<?xml version="1.0" encoding="UTF-8" standalone="no"?>
<!DOCTYPE svg PUBLIC "-//W3C//DTD SVG 1.1//EN"
 "http://www.w3.org/Graphics/SVG/1.1/DTD/svg11.dtd">
<!-- Generated by graphviz version 2.38.0 (20140413.2041)
 -->
<!-- Title: %3 Pages: 1 -->
<svg width="1811pt" height="347pt"
 viewBox="0.00 0.00 1811.22 346.78" xmlns="http://www.w3.org/2000/svg" xmlns:xlink="http://www.w3.org/1999/xlink">
<g id="graph0" class="graph" transform="scale(1 1) rotate(0) translate(4 342.777)">
<title>%3</title>
<polygon fill="white" stroke="none" points="-4,4 -4,-342.777 1807.22,-342.777 1807.22,4 -4,4"/>
<!-- enemy_hp -->
<g id="node1" class="node"><title>enemy_hp</title>
<polygon fill="lightgray" stroke="black" points="650.713,-272.563 597.713,-272.563 597.713,-254.563 650.713,-254.563 650.713,-272.563"/>
<text text-anchor="middle" x="624.213" y="-261.363" font-family="Times,serif" font-size="9.00">enemy_hp</text>
</g>
<!-- attack -->
<g id="node12" class="node"><title>attack</title>
<ellipse fill="lightblue" stroke="black" cx="1463.21" cy="-101.761" rx="26.3269" ry="26.3269"/>
<text text-anchor="middle" x="1463.21" y="-99.5609" font-family="Times,serif" font-size="9.00">attack</text>
</g>
<!-- enemy_hp&#45;&gt;attack -->
<g id="edge13" class="edge"><title>enemy_hp&#45;&gt;attack</title>
<path fill="none" stroke="red" stroke-width="0.151285" d="M651.06,-261.323C795.628,-254.579 1475.48,-222.067 1490.21,-206.35 1508.95,-186.358 1497.15,-155.036 1483.77,-132.065"/>
<polygon fill="red" stroke="red" stroke-width="0.151285" points="1486.66,-130.078 1478.43,-123.405 1480.7,-133.753 1486.66,-130.078"/>
</g>
<!-- up -->
<g id="node13" class="node"><title>up</title>
<ellipse fill="lightblue" stroke="black" cx="1184.21" cy="-19.799" rx="18.2703" ry="18.2703"/>
<text text-anchor="middle" x="1184.21" y="-17.599" font-family="Times,serif" font-size="9.00">up</text>
</g>
<!-- enemy_hp&#45;&gt;up -->
<g id="edge58" class="edge"><title>enemy_hp&#45;&gt;up</title>
<path fill="none" stroke="green" stroke-width="0.352209" d="M597.598,-263.126C557.165,-262.356 481.27,-254.185 446.213,-206.35 424.134,-176.224 459.525,-84.4377 470.213,-75.598 497.092,-53.3666 1025.73,-27.9925 1155.59,-22.0772"/>
<polygon fill="green" stroke="green" stroke-width="0.352209" points="1156.08,-25.5589 1165.91,-21.6101 1155.76,-18.5661 1156.08,-25.5589"/>
</g>
<!-- down -->
<g id="node14" class="node"><title>down</title>
<ellipse fill="lightblue" stroke="black" cx="1128.21" cy="-101.761" rx="26.3269" ry="26.3269"/>
<text text-anchor="middle" x="1128.21" y="-99.5609" font-family="Times,serif" font-size="9.00">down</text>
</g>
<!-- enemy_hp&#45;&gt;down -->
<g id="edge72" class="edge"><title>enemy_hp&#45;&gt;down</title>
<path fill="none" stroke="red" stroke-width="0.165663" d="M650.782,-261.522C731.935,-257.954 975.178,-244.273 1043.21,-206.35 1051.54,-201.711 1084.02,-160.586 1106.33,-131.573"/>
<polygon fill="red" stroke="red" stroke-width="0.165663" points="1109.3,-133.448 1112.6,-123.382 1103.74,-129.191 1109.3,-133.448"/>
</g>
<!-- left -->
<g id="node15" class="node"><title>left</title>
<ellipse fill="lightblue" stroke="black" cx="789.213" cy="-19.799" rx="19.6" ry="19.6"/>
<text text-anchor="middle" x="789.213" y="-17.599" font-family="Times,serif" font-size="9.00">left</text>
</g>
<!-- enemy_hp&#45;&gt;left -->
<g id="edge42" class="edge"><title>enemy_hp&#45;&gt;left</title>
<path fill="none" stroke="red" stroke-width="0.847761" d="M597.479,-261.279C504.41,-256.536 198.714,-238.597 170.213,-206.35 157.726,-192.221 166.409,-182.392 170.213,-163.924 178.835,-122.068 173.664,-100.75 208.213,-75.598 253.05,-42.9566 646.219,-26.0638 759.058,-21.8587"/>
<polygon fill="red" stroke="red" stroke-width="0.847761" points="759.51,-25.3446 769.375,-21.4807 759.253,-18.3492 759.51,-25.3446"/>
</g>
<!-- right -->
<g id="node16" class="node"><title>right</title>
<ellipse fill="lightblue" stroke="black" cx="738.213" cy="-101.761" rx="23.1702" ry="23.1702"/>
<text text-anchor="middle" x="738.213" y="-99.5609" font-family="Times,serif" font-size="9.00">right</text>
</g>
<!-- enemy_hp&#45;&gt;right -->
<g id="edge31" class="edge"><title>enemy_hp&#45;&gt;right</title>
<path fill="none" stroke="red" stroke-width="0.3727" d="M624.28,-254.357C624.811,-236.363 628.228,-192.746 648.213,-163.924 663.082,-142.481 688.106,-126.371 707.999,-116.083"/>
<polygon fill="red" stroke="red" stroke-width="0.3727" points="709.588,-119.201 717.003,-111.634 706.487,-112.926 709.588,-119.201"/>
</g>
<!-- select -->
<g id="node17" class="node"><title>select</title>
<ellipse fill="lightblue" stroke="black" cx="628.213" cy="-101.761" rx="25.4118" ry="25.4118"/>
<text text-anchor="middle" x="628.213" y="-99.5609" font-family="Times,serif" font-size="9.00">select</text>
</g>
<!-- enemy_hp&#45;&gt;select -->
<g id="edge49" class="edge"><title>enemy_hp&#45;&gt;select</title>
<path fill="none" stroke="red" stroke-width="0.121025" d="M597.633,-260.906C527.056,-255.514 343.939,-234.517 398.213,-163.924 421.803,-133.241 534.038,-114.711 592.545,-106.979"/>
<polygon fill="red" stroke="red" stroke-width="0.121025" points="593.338,-110.405 602.81,-105.66 592.446,-103.463 593.338,-110.405"/>
</g>
<!-- 6 -->
<g id="node18" class="node"><title>6</title>
<ellipse fill="white" stroke="black" cx="1106.21" cy="-185.137" rx="14.7" ry="14.7"/>
<text text-anchor="middle" x="1106.21" y="-182.937" font-family="Times,serif" font-size="9.00">6</text>
</g>
<!-- enemy_hp&#45;&gt;6 -->
<g id="edge23" class="edge"><title>enemy_hp&#45;&gt;6</title>
<path fill="none" stroke="green" stroke-width="0.331936" stroke-dasharray="1,5" d="M650.992,-260.934C735.91,-255.503 998.221,-236.634 1077.21,-206.35 1080.58,-205.059 1083.93,-203.295 1087.1,-201.343"/>
<polygon fill="green" stroke="green" stroke-width="0.331936" points="1089.16,-204.168 1095.37,-195.584 1085.17,-198.422 1089.16,-204.168"/>
</g>
<!-- player_hp_1 -->
<g id="node2" class="node"><title>player_hp_1</title>
<polygon fill="lightgray" stroke="black" points="894.713,-194.137 833.713,-194.137 833.713,-176.137 894.713,-176.137 894.713,-194.137"/>
<text text-anchor="middle" x="864.213" y="-182.937" font-family="Times,serif" font-size="9.00">player_hp_1</text>
</g>
<!-- player_hp_1&#45;&gt;attack -->
<g id="edge3" class="edge"><title>player_hp_1&#45;&gt;attack</title>
<path fill="none" stroke="red" stroke-width="0.442311" stroke-dasharray="1,5" d="M877.018,-176.035C884.619,-171.65 894.619,-166.597 904.213,-163.924 1108.59,-106.988 1171.67,-166.934 1380.21,-127.924 1396.57,-124.865 1414.27,-119.758 1429.1,-114.942"/>
<polygon fill="red" stroke="red" stroke-width="0.442311" points="1430.49,-118.169 1438.87,-111.682 1428.27,-111.529 1430.49,-118.169"/>
</g>
<!-- player_hp_1&#45;&gt;up -->
<g id="edge74" class="edge"><title>player_hp_1&#45;&gt;up</title>
<path fill="none" stroke="green" stroke-width="0.128392" d="M870.761,-175.924C887.341,-155.689 933.23,-103.087 983.213,-75.598 1039.94,-44.3982 1115.61,-30.0375 1156,-24.2215"/>
<polygon fill="green" stroke="green" stroke-width="0.128392" points="1156.51,-27.6845 1165.94,-22.8611 1155.56,-20.7491 1156.51,-27.6845"/>
</g>
<!-- player_hp_1&#45;&gt;down -->
<g id="edge71" class="edge"><title>player_hp_1&#45;&gt;down</title>
<path fill="none" stroke="red" stroke-width="0.316391" d="M878.336,-176.122C885.854,-172.082 895.354,-167.332 904.213,-163.924 968.963,-139.016 1047.89,-119.956 1092.67,-110.138"/>
<polygon fill="red" stroke="red" stroke-width="0.316391" points="1093.45,-113.549 1102.48,-108.013 1091.97,-106.707 1093.45,-113.549"/>
</g>
<!-- player_hp_1&#45;&gt;left -->
<g id="edge38" class="edge"><title>player_hp_1&#45;&gt;left</title>
<path fill="none" stroke="red" stroke-width="0.208302" d="M860.391,-175.813C849.649,-152.419 818.848,-85.3386 801.489,-47.5346"/>
<polygon fill="red" stroke="red" stroke-width="0.208302" points="804.535,-45.7806 797.182,-38.1533 798.174,-48.7016 804.535,-45.7806"/>
</g>
<!-- player_hp_1&#45;&gt;right -->
<g id="edge44" class="edge"><title>player_hp_1&#45;&gt;right</title>
<path fill="none" stroke="green" stroke-width="0.581038" d="M851.671,-176.037C831.874,-163.251 792.892,-138.075 766.199,-120.835"/>
<polygon fill="green" stroke="green" stroke-width="0.581038" points="767.963,-117.808 757.663,-115.323 764.165,-123.688 767.963,-117.808"/>
</g>
<!-- player_hp_1&#45;&gt;select -->
<g id="edge10" class="edge"><title>player_hp_1&#45;&gt;select</title>
<path fill="none" stroke="green" stroke-width="0.498821" d="M849.676,-176.031C842.208,-172.063 832.877,-167.405 824.213,-163.924 773.335,-143.484 758.528,-144.342 706.213,-127.924 691.684,-123.364 675.67,-118.219 661.953,-113.775"/>
<polygon fill="green" stroke="green" stroke-width="0.498821" points="663.016,-110.441 652.424,-110.681 660.855,-117.098 663.016,-110.441"/>
</g>
<!-- player_hp_2 -->
<g id="node3" class="node"><title>player_hp_2</title>
<polygon fill="lightgray" stroke="black" points="1352.71,-194.137 1291.71,-194.137 1291.71,-176.137 1352.71,-176.137 1352.71,-194.137"/>
<text text-anchor="middle" x="1322.21" y="-182.937" font-family="Times,serif" font-size="9.00">player_hp_2</text>
</g>
<!-- player_hp_2&#45;&gt;attack -->
<g id="edge2" class="edge"><title>player_hp_2&#45;&gt;attack</title>
<path fill="none" stroke="red" stroke-width="1.08293" d="M1336.25,-176.037C1358.47,-163.213 1402.29,-137.924 1432.16,-120.681"/>
<polygon fill="red" stroke="red" stroke-width="1.08293" points="1434.04,-123.64 1440.95,-115.61 1430.54,-117.578 1434.04,-123.64"/>
</g>
<!-- player_hp_2&#45;&gt;up -->
<g id="edge28" class="edge"><title>player_hp_2&#45;&gt;up</title>
<path fill="none" stroke="green" stroke-width="0.179213" d="M1315.18,-175.813C1294.54,-151.377 1233.62,-79.2779 1202.69,-42.6651"/>
<polygon fill="green" stroke="green" stroke-width="0.179213" points="1204.99,-39.9664 1195.86,-34.5865 1199.64,-44.484 1204.99,-39.9664"/>
</g>
<!-- player_hp_2&#45;&gt;down -->
<g id="edge66" class="edge"><title>player_hp_2&#45;&gt;down</title>
<path fill="none" stroke="green" stroke-width="0.331898" d="M1304.75,-176.132C1296.44,-172.364 1286.34,-167.846 1277.21,-163.924 1237.86,-147.013 1192.25,-128.441 1161.97,-116.25"/>
<polygon fill="green" stroke="green" stroke-width="0.331898" points="1162.9,-112.853 1152.31,-112.372 1160.29,-119.348 1162.9,-112.853"/>
</g>
<!-- player_hp_2&#45;&gt;left -->
<g id="edge11" class="edge"><title>player_hp_2&#45;&gt;left</title>
<path fill="none" stroke="green" stroke-width="0.162954" d="M1310.61,-176.116C1274.68,-151.281 1167.36,-77.2162 1163.21,-75.598 1042.15,-28.3309 884.571,-21.4007 819.426,-20.6854"/>
<polygon fill="green" stroke="green" stroke-width="0.162954" points="819.096,-17.1832 809.073,-20.617 819.05,-24.1831 819.096,-17.1832"/>
</g>
<!-- player_hp_2&#45;&gt;select -->
<g id="edge80" class="edge"><title>player_hp_2&#45;&gt;select</title>
<path fill="none" stroke="red" stroke-width="0.102356" d="M1291.64,-180.726C1253.77,-176.545 1187.27,-169.349 1130.21,-163.924 941.94,-146.023 891.626,-165.197 706.213,-127.924 691.171,-124.9 674.963,-119.959 661.239,-115.253"/>
<polygon fill="red" stroke="red" stroke-width="0.102356" points="662.332,-111.927 651.737,-111.898 660.001,-118.528 662.332,-111.927"/>
</g>
<!-- enemy_x -->
<g id="node4" class="node"><title>enemy_x</title>
<polygon fill="lightgray" stroke="black" points="815.713,-194.137 766.713,-194.137 766.713,-176.137 815.713,-176.137 815.713,-194.137"/>
<text text-anchor="middle" x="791.213" y="-182.937" font-family="Times,serif" font-size="9.00">enemy_x</text>
</g>
<!-- enemy_x&#45;&gt;attack -->
<g id="edge79" class="edge"><title>enemy_x&#45;&gt;attack</title>
<path fill="none" stroke="green" stroke-width="0.212613" d="M801.565,-175.98C807.766,-171.577 816.016,-166.524 824.213,-163.924 1060.26,-89.0629 1136.56,-172.137 1380.21,-127.924 1396.58,-124.953 1414.29,-119.859 1429.12,-115.028"/>
<polygon fill="green" stroke="green" stroke-width="0.212613" points="1430.51,-118.252 1438.88,-111.754 1428.29,-111.616 1430.51,-118.252"/>
</g>
<!-- enemy_x&#45;&gt;up -->
<g id="edge43" class="edge"><title>enemy_x&#45;&gt;up</title>
<path fill="none" stroke="red" stroke-width="0.441011" d="M797.689,-176.026C814.512,-155.56 861.941,-101.602 914.213,-75.598 995.403,-35.2075 1104.42,-24.5868 1155.52,-21.7946"/>
<polygon fill="red" stroke="red" stroke-width="0.441011" points="1155.98,-25.2765 1165.8,-21.2977 1155.64,-18.2847 1155.98,-25.2765"/>
</g>
<!-- enemy_x&#45;&gt;down -->
<g id="edge8" class="edge"><title>enemy_x&#45;&gt;down</title>
<path fill="none" stroke="red" stroke-width="0.416842" d="M802.301,-175.985C808.474,-171.806 816.458,-166.968 824.213,-163.924 916.679,-127.627 1033.78,-111.879 1091.97,-105.914"/>
<polygon fill="red" stroke="red" stroke-width="0.416842" points="1092.52,-109.377 1102.13,-104.912 1091.83,-102.411 1092.52,-109.377"/>
</g>
<!-- enemy_x&#45;&gt;left -->
<g id="edge65" class="edge"><title>enemy_x&#45;&gt;left</title>
<path fill="none" stroke="green" stroke-width="0.166019" stroke-dasharray="1,5" d="M791.111,-175.813C790.832,-152.973 790.042,-88.4919 789.574,-50.2692"/>
<polygon fill="green" stroke="green" stroke-width="0.166019" points="793.068,-49.7394 789.446,-39.783 786.068,-49.8251 793.068,-49.7394"/>
</g>
<!-- enemy_x&#45;&gt;right -->
<g id="edge36" class="edge"><title>enemy_x&#45;&gt;right</title>
<path fill="none" stroke="red" stroke-width="0.207434" d="M785.938,-176.037C779.045,-165.454 766.624,-146.382 756.181,-130.349"/>
<polygon fill="red" stroke="red" stroke-width="0.207434" points="759.021,-128.297 750.631,-121.827 753.156,-132.117 759.021,-128.297"/>
</g>
<!-- enemy_x&#45;&gt;select -->
<g id="edge1" class="edge"><title>enemy_x&#45;&gt;select</title>
<path fill="none" stroke="green" stroke-width="0.459677" d="M774.988,-176.037C748.27,-162.698 694.539,-135.874 660.029,-118.644"/>
<polygon fill="green" stroke="green" stroke-width="0.459677" points="661.353,-115.394 650.843,-114.059 658.226,-121.657 661.353,-115.394"/>
</g>
<!-- enemy_y -->
<g id="node5" class="node"><title>enemy_y</title>
<polygon fill="lightgray" stroke="black" points="1034.71,-194.137 985.713,-194.137 985.713,-176.137 1034.71,-176.137 1034.71,-194.137"/>
<text text-anchor="middle" x="1010.21" y="-182.937" font-family="Times,serif" font-size="9.00">enemy_y</text>
</g>
<!-- enemy_y&#45;&gt;attack -->
<g id="edge69" class="edge"><title>enemy_y&#45;&gt;attack</title>
<path fill="none" stroke="red" stroke-width="0.341932" d="M1034.98,-176.17C1048.76,-171.993 1066.3,-167.1 1082.21,-163.924 1213.04,-137.818 1249.66,-155.381 1380.21,-127.924 1396.5,-124.5 1414.19,-119.343 1429.03,-114.588"/>
<polygon fill="red" stroke="red" stroke-width="0.341932" points="1430.39,-117.825 1438.81,-111.386 1428.22,-111.173 1430.39,-117.825"/>
</g>
<!-- enemy_y&#45;&gt;up -->
<g id="edge15" class="edge"><title>enemy_y&#45;&gt;up</title>
<path fill="none" stroke="red" stroke-width="0.467581" d="M1014.97,-175.952C1026.47,-156.657 1057.51,-107.553 1093.21,-75.598 1113.08,-57.8179 1139.53,-42.6429 1158.79,-32.8012"/>
<polygon fill="red" stroke="red" stroke-width="0.467581" points="1160.48,-35.8712 1167.87,-28.2828 1157.36,-29.6042 1160.48,-35.8712"/>
</g>
<!-- enemy_y&#45;&gt;down -->
<g id="edge86" class="edge"><title>enemy_y&#45;&gt;down</title>
<path fill="none" stroke="red" stroke-width="0.319201" d="M1021.96,-176.037C1039.69,-163.81 1073.85,-140.253 1098.66,-123.141"/>
<polygon fill="red" stroke="red" stroke-width="0.319201" points="1100.76,-125.944 1107.01,-117.386 1096.79,-120.182 1100.76,-125.944"/>
</g>
<!-- enemy_y&#45;&gt;right -->
<g id="edge19" class="edge"><title>enemy_y&#45;&gt;right</title>
<path fill="none" stroke="red" stroke-width="0.895979" stroke-dasharray="1,5" d="M998.378,-175.964C992.034,-171.881 983.949,-167.14 976.213,-163.924 905.895,-134.693 817.927,-116.49 771.11,-108.147"/>
<polygon fill="red" stroke="red" stroke-width="0.895979" points="771.671,-104.692 761.219,-106.422 770.469,-111.588 771.671,-104.692"/>
</g>
<!-- enemy_y&#45;&gt;select -->
<g id="edge57" class="edge"><title>enemy_y&#45;&gt;select</title>
<path fill="none" stroke="red" stroke-width="0.43224" d="M999.138,-175.991C992.75,-171.705 984.386,-166.764 976.213,-163.924 861.86,-124.184 824.296,-154.616 706.213,-127.924 691.248,-124.541 675.051,-119.544 661.316,-114.892"/>
<polygon fill="red" stroke="red" stroke-width="0.43224" points="662.397,-111.563 651.802,-111.594 660.104,-118.176 662.397,-111.563"/>
</g>
<!-- player_x_1 -->
<g id="node6" class="node"><title>player_x_1</title>
<polygon fill="lightgray" stroke="black" points="1134.21,-272.563 1078.21,-272.563 1078.21,-254.563 1134.21,-254.563 1134.21,-272.563"/>
<text text-anchor="middle" x="1106.21" y="-261.363" font-family="Times,serif" font-size="9.00">player_x_1</text>
</g>
<!-- player_x_1&#45;&gt;attack -->
<g id="edge63" class="edge"><title>player_x_1&#45;&gt;attack</title>
<path fill="none" stroke="green" stroke-width="0.402712" d="M1134.54,-256.157C1154.5,-251.812 1181.89,-246.182 1206.21,-242.35 1276.25,-231.317 1475.99,-259.235 1523.21,-206.35 1545.32,-181.59 1516.49,-147.404 1491.67,-125.192"/>
<polygon fill="green" stroke="green" stroke-width="0.402712" points="1493.69,-122.306 1483.83,-118.428 1489.12,-127.608 1493.69,-122.306"/>
</g>
<!-- player_x_1&#45;&gt;up -->
<g id="edge25" class="edge"><title>player_x_1&#45;&gt;up</title>
<path fill="none" stroke="red" stroke-width="0.346476" stroke-dasharray="1,5" d="M1078.11,-261.181C956.24,-255.052 478.545,-229.61 457.213,-206.35 444.468,-192.454 450.712,-181.624 457.213,-163.924 474.968,-115.582 486.423,-99.1655 532.213,-75.598 588.224,-46.7696 1036.71,-26.7564 1155.45,-21.9267"/>
<polygon fill="red" stroke="red" stroke-width="0.346476" points="1155.74,-25.4182 1165.59,-21.519 1155.45,-18.4239 1155.74,-25.4182"/>
</g>
<!-- player_x_1&#45;&gt;down -->
<g id="edge41" class="edge"><title>player_x_1&#45;&gt;down</title>
<path fill="none" stroke="green" stroke-width="0.453751" d="M1110.88,-254.524C1116.76,-243.908 1126.51,-224.44 1130.21,-206.35 1134.82,-183.84 1134.33,-158.003 1132.68,-137.764"/>
<polygon fill="green" stroke="green" stroke-width="0.453751" points="1136.16,-137.365 1131.74,-127.738 1129.19,-138.022 1136.16,-137.365"/>
</g>
<!-- player_x_1&#45;&gt;left -->
<g id="edge6" class="edge"><title>player_x_1&#45;&gt;left</title>
<path fill="none" stroke="red" stroke-width="0.14619" d="M1078.05,-261.22C954.79,-255.205 467.946,-230.012 446.213,-206.35 421.291,-179.215 453.391,-90.8905 470.213,-75.598 512.433,-37.2177 688.406,-25.2456 759.361,-21.9358"/>
<polygon fill="red" stroke="red" stroke-width="0.14619" points="759.59,-25.4292 769.426,-21.4922 759.282,-18.436 759.59,-25.4292"/>
</g>
<!-- player_x_1&#45;&gt;right -->
<g id="edge20" class="edge"><title>player_x_1&#45;&gt;right</title>
<path fill="none" stroke="red" stroke-width="0.212521" d="M1078.1,-260.912C988.21,-255.35 712.132,-235.969 686.213,-206.35 664.783,-181.86 691.179,-146.973 713.529,-124.598"/>
<polygon fill="red" stroke="red" stroke-width="0.212521" points="716.102,-126.979 720.878,-117.522 711.247,-121.936 716.102,-126.979"/>
</g>
<!-- player_x_1&#45;&gt;select -->
<g id="edge77" class="edge"><title>player_x_1&#45;&gt;select</title>
<path fill="none" stroke="red" stroke-width="0.511713" d="M1077.82,-261.119C956.911,-254.832 490.089,-229.149 469.213,-206.35 456.479,-192.443 458.538,-179.468 469.213,-163.924 496.838,-123.699 554.898,-109.918 592.688,-105.204"/>
<polygon fill="red" stroke="red" stroke-width="0.511713" points="593.208,-108.668 602.768,-104.1 592.446,-101.709 593.208,-108.668"/>
</g>
<!-- player_x_1&#45;&gt;6 -->
<g id="edge87" class="edge"><title>player_x_1&#45;&gt;6</title>
<path fill="none" stroke="green" stroke-width="0.611394" d="M1106.21,-254.385C1106.21,-243.973 1106.21,-225.526 1106.21,-210.433"/>
<polygon fill="green" stroke="green" stroke-width="0.611394" points="1109.71,-210.199 1106.21,-200.199 1102.71,-210.199 1109.71,-210.199"/>
</g>
<!-- 67 -->
<g id="node20" class="node"><title>67</title>
<ellipse fill="white" stroke="black" cx="1463.21" cy="-185.137" rx="18.2703" ry="18.2703"/>
<text text-anchor="middle" x="1463.21" y="-182.937" font-family="Times,serif" font-size="9.00">67</text>
</g>
<!-- player_x_1&#45;&gt;67 -->
<g id="edge27" class="edge"><title>player_x_1&#45;&gt;67</title>
<path fill="none" stroke="red" stroke-width="0.249169" d="M1134.6,-256.478C1154.58,-252.28 1181.98,-246.694 1206.21,-242.35 1308.06,-224.096 1340.87,-246.542 1436.21,-206.35 1438.03,-205.583 1439.84,-204.666 1441.61,-203.653"/>
<polygon fill="red" stroke="red" stroke-width="0.249169" points="1443.65,-206.505 1450,-198.03 1439.75,-200.691 1443.65,-206.505"/>
</g>
<!-- 52 -->
<g id="node25" class="node"><title>52</title>
<ellipse fill="white" stroke="black" cx="1631.21" cy="-185.137" rx="18.2703" ry="18.2703"/>
<text text-anchor="middle" x="1631.21" y="-182.937" font-family="Times,serif" font-size="9.00">52</text>
</g>
<!-- player_x_1&#45;&gt;52 -->
<g id="edge59" class="edge"><title>player_x_1&#45;&gt;52</title>
<path fill="none" stroke="red" stroke-width="0.247197" d="M1134.53,-256.066C1154.48,-251.678 1181.87,-246.036 1206.21,-242.35 1363.01,-218.612 1405.51,-236.47 1561.21,-206.35 1575.62,-203.564 1591.34,-199.153 1604.23,-195.161"/>
<polygon fill="red" stroke="red" stroke-width="0.247197" points="1605.41,-198.458 1613.88,-192.089 1603.29,-191.788 1605.41,-198.458"/>
</g>
<!-- player_y_1 -->
<g id="node7" class="node"><title>player_y_1</title>
<polygon fill="lightgray" stroke="black" points="789.213,-338.777 733.213,-338.777 733.213,-320.777 789.213,-320.777 789.213,-338.777"/>
<text text-anchor="middle" x="761.213" y="-327.577" font-family="Times,serif" font-size="9.00">player_y_1</text>
</g>
<!-- player_y_1&#45;&gt;attack -->
<g id="edge54" class="edge"><title>player_y_1&#45;&gt;attack</title>
<path fill="none" stroke="red" stroke-width="0.593407" d="M789.48,-328.228C910.645,-325.712 1386.61,-314.123 1533.21,-284.777 1636.23,-264.156 1695.48,-292.082 1756.21,-206.35 1767.11,-190.963 1768.59,-178.152 1756.21,-163.924 1718.37,-120.409 1552.88,-149.025 1499.21,-127.924 1496.7,-126.938 1494.2,-125.744 1491.75,-124.419"/>
<polygon fill="red" stroke="red" stroke-width="0.593407" points="1493.55,-121.417 1483.2,-119.183 1489.9,-127.388 1493.55,-121.417"/>
</g>
<!-- player_y_1&#45;&gt;up -->
<g id="edge85" class="edge"><title>player_y_1&#45;&gt;up</title>
<path fill="none" stroke="green" stroke-width="0.264537" d="M789.496,-328.986C921.22,-329.716 1475.17,-329.991 1641.21,-284.777 1713.8,-265.011 1752.24,-270.699 1791.21,-206.35 1824.83,-150.839 1782.58,-107.763 1726.21,-75.598 1637.34,-24.8811 1311.46,-20.7502 1212.74,-20.6862"/>
<polygon fill="green" stroke="green" stroke-width="0.264537" points="1212.62,-17.1862 1202.62,-20.6939 1212.63,-24.1862 1212.62,-17.1862"/>
</g>
<!-- player_y_1&#45;&gt;down -->
<g id="edge32" class="edge"><title>player_y_1&#45;&gt;down</title>
<path fill="none" stroke="green" stroke-width="0.342173" d="M789.355,-327.611C873.556,-323.843 1119.2,-310.702 1143.21,-284.777 1180.54,-244.485 1160.48,-175.386 1143.61,-134.911"/>
<polygon fill="green" stroke="green" stroke-width="0.342173" points="1146.73,-133.297 1139.54,-125.515 1140.31,-136.082 1146.73,-133.297"/>
</g>
<!-- player_y_1&#45;&gt;right -->
<g id="edge4" class="edge"><title>player_y_1&#45;&gt;right</title>
<path fill="none" stroke="red" stroke-width="0.656738" d="M732.892,-327.66C670.244,-323.421 521.346,-303.144 469.213,-206.35 460.272,-189.749 457.164,-178.428 469.213,-163.924 524.97,-96.8048 577.713,-149.687 662.213,-127.924 677.015,-124.112 693.124,-118.932 706.686,-114.262"/>
<polygon fill="red" stroke="red" stroke-width="0.656738" points="708.218,-117.434 716.496,-110.822 705.901,-110.828 708.218,-117.434"/>
</g>
<!-- player_y_1&#45;&gt;select -->
<g id="edge39" class="edge"><title>player_y_1&#45;&gt;select</title>
<path fill="none" stroke="green" stroke-width="0.189448" d="M732.924,-327.422C672.099,-323.993 531.372,-313.136 494.213,-284.777 463.725,-261.508 466.402,-243.819 458.213,-206.35 454.187,-187.929 447.369,-179.35 458.213,-163.924 488.515,-120.818 552.251,-107.948 592.494,-104.193"/>
<polygon fill="green" stroke="green" stroke-width="0.189448" points="592.985,-107.665 602.679,-103.39 592.435,-100.687 592.985,-107.665"/>
</g>
<!-- 146 -->
<g id="node24" class="node"><title>146</title>
<ellipse fill="white" stroke="black" cx="89.2132" cy="-263.563" rx="21.4286" ry="21.4286"/>
<text text-anchor="middle" x="89.2132" y="-261.363" font-family="Times,serif" font-size="9.00">146</text>
</g>
<!-- player_y_1&#45;&gt;146 -->
<g id="edge62" class="edge"><title>player_y_1&#45;&gt;146</title>
<path fill="none" stroke="green" stroke-width="0.210018" d="M732.98,-326.791C655.251,-321.233 431.58,-304.619 246.213,-284.777 202.39,-280.086 151.86,-273.34 120.224,-268.954"/>
<polygon fill="green" stroke="green" stroke-width="0.210018" points="120.644,-265.479 110.257,-267.564 119.677,-272.412 120.644,-265.479"/>
</g>
<!-- player_x_2 -->
<g id="node8" class="node"><title>player_x_2</title>
<polygon fill="lightgray" stroke="black" points="1427.21,-194.137 1371.21,-194.137 1371.21,-176.137 1427.21,-176.137 1427.21,-194.137"/>
<text text-anchor="middle" x="1399.21" y="-182.937" font-family="Times,serif" font-size="9.00">player_x_2</text>
</g>
<!-- player_x_2&#45;&gt;attack -->
<g id="edge46" class="edge"><title>player_x_2&#45;&gt;attack</title>
<path fill="none" stroke="green" stroke-width="0.387175" stroke-dasharray="1,5" d="M1405.58,-176.037C1413.82,-165.561 1428.6,-146.769 1441.13,-130.838"/>
<polygon fill="green" stroke="green" stroke-width="0.387175" points="1444,-132.851 1447.43,-122.827 1438.5,-128.524 1444,-132.851"/>
</g>
<!-- player_x_2&#45;&gt;up -->
<g id="edge12" class="edge"><title>player_x_2&#45;&gt;up</title>
<path fill="none" stroke="green" stroke-width="0.333512" stroke-dasharray="1,5" d="M1400.42,-176.103C1402.92,-156.275 1406.4,-104.529 1380.21,-75.598 1336.93,-27.7867 1255.73,-20.2964 1212.68,-19.935"/>
<polygon fill="green" stroke="green" stroke-width="0.333512" points="1212.59,-16.4352 1202.61,-19.9765 1212.62,-23.4352 1212.59,-16.4352"/>
</g>
<!-- player_x_2&#45;&gt;down -->
<g id="edge67" class="edge"><title>player_x_2&#45;&gt;down</title>
<path fill="none" stroke="green" stroke-width="0.103568" d="M1385.86,-176.05C1378.73,-171.99 1369.7,-167.244 1361.21,-163.924 1325.1,-149.799 1219.03,-124.04 1163.31,-110.917"/>
<polygon fill="green" stroke="green" stroke-width="0.103568" points="1164.06,-107.497 1153.52,-108.619 1162.46,-114.312 1164.06,-107.497"/>
</g>
<!-- player_x_2&#45;&gt;left -->
<g id="edge29" class="edge"><title>player_x_2&#45;&gt;left</title>
<path fill="none" stroke="red" stroke-width="0.163808" stroke-dasharray="1,5" d="M1387.16,-176.106C1352.54,-153.172 1252.89,-88.2208 1216.21,-75.598 1073.37,-26.4331 889.905,-20.7434 819.009,-20.526"/>
<polygon fill="red" stroke="red" stroke-width="0.163808" points="819,-17.0259 809.002,-20.5307 819.004,-24.0259 819,-17.0259"/>
</g>
<!-- player_x_2&#45;&gt;right -->
<g id="edge83" class="edge"><title>player_x_2&#45;&gt;right</title>
<path fill="none" stroke="red" stroke-width="0.446504" d="M1387.08,-176.105C1379.87,-171.743 1370.37,-166.69 1361.21,-163.924 1304.53,-146.802 892.898,-114.509 771.7,-105.281"/>
<polygon fill="red" stroke="red" stroke-width="0.446504" points="771.774,-101.777 761.537,-104.51 771.244,-108.757 771.774,-101.777"/>
</g>
<!-- player_x_2&#45;&gt;select -->
<g id="edge51" class="edge"><title>player_x_2&#45;&gt;select</title>
<path fill="none" stroke="red" stroke-width="0.145296" d="M1387.12,-175.957C1379.93,-171.546 1370.43,-166.492 1361.21,-163.924 1080.37,-85.629 992.87,-181.119 706.213,-127.924 691.128,-125.125 674.913,-120.219 661.195,-115.478"/>
<polygon fill="red" stroke="red" stroke-width="0.145296" points="662.295,-112.155 651.7,-112.088 659.941,-118.747 662.295,-112.155"/>
</g>
<!-- 98 -->
<g id="node19" class="node"><title>98</title>
<ellipse fill="white" stroke="black" cx="1526.21" cy="-101.761" rx="18.2703" ry="18.2703"/>
<text text-anchor="middle" x="1526.21" y="-99.5609" font-family="Times,serif" font-size="9.00">98</text>
</g>
<!-- player_x_2&#45;&gt;98 -->
<g id="edge47" class="edge"><title>player_x_2&#45;&gt;98</title>
<path fill="none" stroke="red" stroke-width="0.361624" d="M1414.04,-175.949C1439.75,-161.718 1490.6,-133.411 1498.21,-127.924 1500.7,-126.133 1503.21,-124.155 1505.66,-122.117"/>
<polygon fill="red" stroke="red" stroke-width="0.361624" points="1508.39,-124.377 1513.6,-115.149 1503.78,-119.116 1508.39,-124.377"/>
</g>
<!-- 186 -->
<g id="node27" class="node"><title>186</title>
<ellipse fill="white" stroke="black" cx="1350.21" cy="-101.761" rx="21.4286" ry="21.4286"/>
<text text-anchor="middle" x="1350.21" y="-99.5609" font-family="Times,serif" font-size="9.00">186</text>
</g>
<!-- player_x_2&#45;&gt;186 -->
<g id="edge52" class="edge"><title>player_x_2&#45;&gt;186</title>
<path fill="none" stroke="green" stroke-width="0.221414" d="M1394.34,-176.037C1387.76,-165.115 1375.74,-145.151 1365.9,-128.817"/>
<polygon fill="green" stroke="green" stroke-width="0.221414" points="1368.87,-126.958 1360.71,-120.196 1362.87,-130.569 1368.87,-126.958"/>
</g>
<!-- player_y_2 -->
<g id="node9" class="node"><title>player_y_2</title>
<polygon fill="lightgray" stroke="black" points="1271.21,-272.563 1215.21,-272.563 1215.21,-254.563 1271.21,-254.563 1271.21,-272.563"/>
<text text-anchor="middle" x="1243.21" y="-261.363" font-family="Times,serif" font-size="9.00">player_y_2</text>
</g>
<!-- player_y_2&#45;&gt;attack -->
<g id="edge78" class="edge"><title>player_y_2&#45;&gt;attack</title>
<path fill="none" stroke="green" stroke-width="0.722101" stroke-dasharray="1,5" d="M1271.39,-259.646C1345.69,-251.669 1542.55,-228.607 1561.21,-206.35 1573.33,-191.903 1570.62,-180.265 1561.21,-163.924 1545.32,-136.309 1526.07,-145.066 1499.21,-127.924 1497.08,-126.56 1494.89,-125.126 1492.69,-123.663"/>
<polygon fill="green" stroke="green" stroke-width="0.722101" points="1494.57,-120.703 1484.33,-117.963 1490.62,-126.488 1494.57,-120.703"/>
</g>
<!-- player_y_2&#45;&gt;up -->
<g id="edge21" class="edge"><title>player_y_2&#45;&gt;up</title>
<path fill="none" stroke="red" stroke-width="0.262698" stroke-dasharray="1,5" d="M1271.39,-259.986C1377.58,-250.207 1748.02,-215.492 1756.21,-206.35 1768.8,-192.31 1765.88,-180.113 1756.21,-163.924 1713.76,-92.8474 1670.96,-101.15 1592.21,-75.598 1455.05,-31.0905 1280.65,-22.7001 1212.92,-21.1426"/>
<polygon fill="red" stroke="red" stroke-width="0.262698" points="1212.69,-17.6375 1202.62,-20.941 1212.55,-24.6362 1212.69,-17.6375"/>
</g>
<!-- player_y_2&#45;&gt;down -->
<g id="edge7" class="edge"><title>player_y_2&#45;&gt;down</title>
<path fill="none" stroke="green" stroke-width="0.151601" d="M1241.17,-254.496C1236.42,-236.778 1223.27,-193.678 1201.21,-163.924 1189.36,-147.936 1172.51,-133.46 1157.99,-122.61"/>
<polygon fill="green" stroke="green" stroke-width="0.151601" points="1159.92,-119.683 1149.76,-116.656 1155.81,-125.354 1159.92,-119.683"/>
</g>
<!-- player_y_2&#45;&gt;left -->
<g id="edge61" class="edge"><title>player_y_2&#45;&gt;left</title>
<path fill="none" stroke="red" stroke-width="0.285647" stroke-dasharray="1,5" d="M1214.95,-255.701C1195.02,-251.146 1167.64,-245.454 1143.21,-242.35 1068.82,-232.896 520.81,-260.776 469.213,-206.35 424.155,-158.821 511.942,-88.8982 532.213,-75.598 603.642,-28.7339 708.085,-21.1092 759.025,-20.3935"/>
<polygon fill="red" stroke="red" stroke-width="0.285647" points="759.36,-23.8917 769.339,-20.3347 759.32,-16.8918 759.36,-23.8917"/>
</g>
<!-- player_y_2&#45;&gt;right -->
<g id="edge35" class="edge"><title>player_y_2&#45;&gt;right</title>
<path fill="none" stroke="green" stroke-width="0.150497" d="M1214.91,-255.949C1194.97,-251.507 1167.58,-245.849 1143.21,-242.35 1096.96,-235.711 755.808,-240.776 724.213,-206.35 706.068,-186.579 713.556,-155.085 723.119,-132.008"/>
<polygon fill="green" stroke="green" stroke-width="0.150497" points="726.398,-133.25 727.276,-122.692 720.005,-130.398 726.398,-133.25"/>
</g>
<!-- player_y_2&#45;&gt;select -->
<g id="edge55" class="edge"><title>player_y_2&#45;&gt;select</title>
<path fill="none" stroke="green" stroke-width="0.244999" stroke-dasharray="1,5" d="M1214.94,-255.775C1195.01,-251.254 1167.62,-245.571 1143.21,-242.35 1080.19,-234.033 615.727,-252.694 572.213,-206.35 549.737,-182.412 577.508,-147.735 601.323,-125.217"/>
<polygon fill="green" stroke="green" stroke-width="0.244999" points="603.812,-127.684 608.848,-118.362 599.098,-122.509 603.812,-127.684"/>
</g>
<!-- player_y_2&#45;&gt;52 -->
<g id="edge53" class="edge"><title>player_y_2&#45;&gt;52</title>
<path fill="none" stroke="red" stroke-width="0.137474" d="M1271.21,-259.624C1344.19,-251.728 1538.75,-229.108 1599.21,-206.35 1602.19,-205.229 1605.19,-203.809 1608.09,-202.242"/>
<polygon fill="red" stroke="red" stroke-width="0.137474" points="1610.14,-205.091 1616.9,-196.928 1606.53,-199.098 1610.14,-205.091"/>
</g>
<!-- distance_1 -->
<g id="node10" class="node"><title>distance_1</title>
<polygon fill="lightgray" stroke="black" points="967.213,-194.137 913.213,-194.137 913.213,-176.137 967.213,-176.137 967.213,-194.137"/>
<text text-anchor="middle" x="940.213" y="-182.937" font-family="Times,serif" font-size="9.00">distance_1</text>
</g>
<!-- distance_1&#45;&gt;attack -->
<g id="edge68" class="edge"><title>distance_1&#45;&gt;attack</title>
<path fill="none" stroke="red" stroke-width="0.20511" d="M951.64,-176.066C958.449,-171.691 967.449,-166.637 976.213,-163.924 1148.42,-110.609 1203.25,-162.255 1380.21,-127.924 1396.55,-124.755 1414.24,-119.634 1429.08,-114.836"/>
<polygon fill="red" stroke="red" stroke-width="0.20511" points="1430.46,-118.066 1438.85,-111.594 1428.26,-111.423 1430.46,-118.066"/>
</g>
<!-- distance_1&#45;&gt;up -->
<g id="edge34" class="edge"><title>distance_1&#45;&gt;up</title>
<path fill="none" stroke="red" stroke-width="0.178998" d="M946.16,-175.907C960.862,-156.085 1000.95,-105.154 1045.21,-75.598 1080.37,-52.1204 1127.1,-36.3253 1156.42,-27.9468"/>
<polygon fill="red" stroke="red" stroke-width="0.178998" points="1157.67,-31.2318 1166.38,-25.195 1155.81,-24.4846 1157.67,-31.2318"/>
</g>
<!-- distance_1&#45;&gt;down -->
<g id="edge48" class="edge"><title>distance_1&#45;&gt;down</title>
<path fill="none" stroke="red" stroke-width="0.126285" d="M953.67,-176.036C960.342,-172.161 968.587,-167.581 976.213,-163.924 1015.91,-144.892 1063.15,-126.52 1094.32,-114.964"/>
<polygon fill="red" stroke="red" stroke-width="0.126285" points="1095.67,-118.198 1103.84,-111.459 1093.25,-111.628 1095.67,-118.198"/>
</g>
<!-- distance_1&#45;&gt;left -->
<g id="edge14" class="edge"><title>distance_1&#45;&gt;left</title>
<path fill="none" stroke="red" stroke-width="0.816437" stroke-dasharray="1,5" d="M932.816,-175.917C916.43,-157.732 875.785,-112.758 841.213,-75.598 830.82,-64.4263 819.133,-52.0907 809.475,-41.9566"/>
<polygon fill="red" stroke="red" stroke-width="0.816437" points="811.977,-39.5085 802.541,-34.6918 806.914,-44.342 811.977,-39.5085"/>
</g>
<!-- distance_1&#45;&gt;right -->
<g id="edge17" class="edge"><title>distance_1&#45;&gt;right</title>
<path fill="none" stroke="red" stroke-width="0.804597" d="M926.402,-175.97C919.548,-172.079 911.073,-167.505 903.213,-163.924 857.988,-143.32 803.615,-124.205 769.98,-113.006"/>
<polygon fill="red" stroke="red" stroke-width="0.804597" points="770.834,-109.602 760.241,-109.791 768.64,-116.249 770.834,-109.602"/>
</g>
<!-- distance_1&#45;&gt;select -->
<g id="edge75" class="edge"><title>distance_1&#45;&gt;select</title>
<path fill="none" stroke="green" stroke-width="0.179484" d="M927.67,-175.974C920.717,-171.791 911.769,-166.954 903.213,-163.924 819.314,-134.21 792.53,-149.634 706.213,-127.924 691.334,-124.182 675.151,-119.128 661.402,-114.531"/>
<polygon fill="green" stroke="green" stroke-width="0.179484" points="662.469,-111.197 651.875,-111.29 660.215,-117.824 662.469,-111.197"/>
</g>
<!-- distance_2 -->
<g id="node11" class="node"><title>distance_2</title>
<polygon fill="lightgray" stroke="black" points="1524.21,-272.563 1470.21,-272.563 1470.21,-254.563 1524.21,-254.563 1524.21,-272.563"/>
<text text-anchor="middle" x="1497.21" y="-261.363" font-family="Times,serif" font-size="9.00">distance_2</text>
</g>
<!-- distance_2&#45;&gt;attack -->
<g id="edge60" class="edge"><title>distance_2&#45;&gt;attack</title>
<path fill="none" stroke="red" stroke-width="0.526664" stroke-dasharray="1,5" d="M1524.45,-262.055C1561.78,-259.711 1627.7,-249.319 1658.21,-206.35 1669.13,-190.976 1669.98,-178.656 1658.21,-163.924 1612.99,-107.315 1565.48,-157.226 1499.21,-127.924 1496.75,-126.834 1494.28,-125.565 1491.85,-124.188"/>
<polygon fill="red" stroke="red" stroke-width="0.526664" points="1493.67,-121.196 1483.33,-118.851 1489.95,-127.127 1493.67,-121.196"/>
</g>
<!-- distance_2&#45;&gt;up -->
<g id="edge5" class="edge"><title>distance_2&#45;&gt;up</title>
<path fill="none" stroke="green" stroke-width="0.772184" d="M1524.33,-261.264C1587.75,-257.601 1742.77,-244.817 1774.21,-206.35 1786.15,-191.751 1782.01,-181.094 1774.21,-163.924 1749.56,-109.624 1727.78,-99.6454 1673.21,-75.598 1589.64,-38.7701 1304.57,-25.2342 1212.87,-21.7728"/>
<polygon fill="green" stroke="green" stroke-width="0.772184" points="1212.8,-18.2677 1202.68,-21.3997 1212.54,-25.2631 1212.8,-18.2677"/>
</g>
<!-- distance_2&#45;&gt;down -->
<g id="edge50" class="edge"><title>distance_2&#45;&gt;down</title>
<path fill="none" stroke="red" stroke-width="1.54966" d="M1470.2,-259.048C1428.22,-252.821 1345.59,-237.466 1282.21,-206.35 1254.5,-192.745 1252.6,-181.489 1227.21,-163.924 1205.03,-148.573 1179.05,-132.594 1159.27,-120.819"/>
<polygon fill="red" stroke="red" stroke-width="1.54966" points="1161.04,-117.802 1150.65,-115.722 1157.48,-123.827 1161.04,-117.802"/>
</g>
<!-- distance_2&#45;&gt;right -->
<g id="edge18" class="edge"><title>distance_2&#45;&gt;right</title>
<path fill="none" stroke="red" stroke-width="0.667411" d="M1470.17,-259.833C1429.13,-255.737 1348.66,-247.893 1280.21,-242.35 1222.15,-237.649 800.655,-245.154 757.213,-206.35 737.701,-188.922 734.065,-158.614 734.654,-135.27"/>
<polygon fill="red" stroke="red" stroke-width="0.667411" points="738.158,-135.272 735.18,-125.105 731.168,-134.911 738.158,-135.272"/>
</g>
<!-- distance_2&#45;&gt;select -->
<g id="edge56" class="edge"><title>distance_2&#45;&gt;select</title>
<path fill="none" stroke="green" stroke-width="0.324996" d="M1470.17,-259.806C1429.13,-255.677 1348.67,-247.79 1280.21,-242.35 1158.78,-232.7 844.336,-256.265 733.213,-206.35 697.482,-190.3 666.963,-156.446 648.184,-131.795"/>
<polygon fill="green" stroke="green" stroke-width="0.324996" points="650.807,-129.456 642.043,-123.504 645.182,-133.623 650.807,-129.456"/>
</g>
<!-- 206 -->
<g id="node23" class="node"><title>206</title>
<ellipse fill="white" stroke="black" cx="1726.21" cy="-185.137" rx="21.4286" ry="21.4286"/>
<text text-anchor="middle" x="1726.21" y="-182.937" font-family="Times,serif" font-size="9.00">206</text>
</g>
<!-- distance_2&#45;&gt;206 -->
<g id="edge70" class="edge"><title>distance_2&#45;&gt;206</title>
<path fill="none" stroke="green" stroke-width="0.187593" d="M1524.28,-256.903C1562.43,-248.44 1633.79,-230.822 1691.21,-206.35 1693.94,-205.19 1696.71,-203.863 1699.45,-202.456"/>
<polygon fill="green" stroke="green" stroke-width="0.187593" points="1701.4,-205.376 1708.48,-197.489 1698.03,-199.243 1701.4,-205.376"/>
</g>
<!-- 6&#45;&gt;down -->
<g id="edge9" class="edge"><title>6&#45;&gt;down</title>
<path fill="none" stroke="green" stroke-width="0.332984" d="M1109.85,-170.699C1112.33,-161.53 1115.73,-148.943 1118.93,-137.093"/>
<polygon fill="green" stroke="green" stroke-width="0.332984" points="1122.32,-137.971 1121.55,-127.404 1115.56,-136.144 1122.32,-137.971"/>
</g>
<!-- 98&#45;&gt;up -->
<g id="edge82" class="edge"><title>98&#45;&gt;up</title>
<path fill="none" stroke="green" stroke-width="0.251306" d="M1514.52,-87.5625C1509.87,-83.0988 1504.21,-78.5122 1498.21,-75.598 1401.19,-28.4406 1269.86,-21.3267 1212.73,-20.6159"/>
<polygon fill="green" stroke="green" stroke-width="0.251306" points="1212.66,-17.1155 1202.63,-20.5493 1212.61,-24.1153 1212.66,-17.1155"/>
</g>
<!-- 67&#45;&gt;attack -->
<g id="edge26" class="edge"><title>67&#45;&gt;attack</title>
<path fill="none" stroke="red" stroke-width="0.194006" d="M1463.21,-166.48C1463.21,-158.241 1463.21,-148.124 1463.21,-138.398"/>
<polygon fill="red" stroke="red" stroke-width="0.194006" points="1466.71,-138.104 1463.21,-128.105 1459.71,-138.105 1466.71,-138.104"/>
</g>
<!-- 67&#45;&gt;186 -->
<g id="edge45" class="edge"><title>67&#45;&gt;186</title>
<path fill="none" stroke="red" stroke-width="0.288762" d="M1448.97,-173.372C1444.87,-170.299 1440.38,-166.961 1436.21,-163.924 1415.92,-149.117 1392.7,-132.627 1375.5,-120.504"/>
<polygon fill="red" stroke="red" stroke-width="0.288762" points="1377.3,-117.489 1367.11,-114.594 1373.27,-123.213 1377.3,-117.489"/>
</g>
<!-- 203 -->
<g id="node21" class="node"><title>203</title>
<ellipse fill="white" stroke="black" cx="59.2132" cy="-101.761" rx="21.4286" ry="21.4286"/>
<text text-anchor="middle" x="59.2132" y="-99.5609" font-family="Times,serif" font-size="9.00">203</text>
</g>
<!-- 203&#45;&gt;left -->
<g id="edge64" class="edge"><title>203&#45;&gt;left</title>
<path fill="none" stroke="green" stroke-width="0.397315" d="M74.5351,-86.9836C80.3079,-82.5737 87.1857,-78.1712 94.2132,-75.598 219.18,-29.8392 642.289,-22.2588 759.115,-21.0309"/>
<polygon fill="green" stroke="green" stroke-width="0.397315" points="759.478,-24.5277 769.444,-20.9309 759.41,-17.528 759.478,-24.5277"/>
</g>
<!-- 108 -->
<g id="node22" class="node"><title>108</title>
<ellipse fill="white" stroke="black" cx="499.213" cy="-185.137" rx="21.4286" ry="21.4286"/>
<text text-anchor="middle" x="499.213" y="-182.937" font-family="Times,serif" font-size="9.00">108</text>
</g>
<!-- 108&#45;&gt;up -->
<g id="edge37" class="edge"><title>108&#45;&gt;up</title>
<path fill="none" stroke="green" stroke-width="0.174712" d="M508.992,-166.12C523.753,-140.929 554.294,-95.9872 594.213,-75.598 644.639,-49.8426 1044.73,-27.8557 1155.74,-22.2054"/>
<polygon fill="green" stroke="green" stroke-width="0.174712" points="1156.03,-25.6952 1165.84,-21.6958 1155.68,-18.704 1156.03,-25.6952"/>
</g>
<!-- 108&#45;&gt;select -->
<g id="edge84" class="edge"><title>108&#45;&gt;select</title>
<path fill="none" stroke="green" stroke-width="0.135374" d="M516.88,-172.993C537.866,-159.754 573.206,-137.461 598.44,-121.542"/>
<polygon fill="green" stroke="green" stroke-width="0.135374" points="600.314,-124.498 606.905,-116.203 596.58,-118.578 600.314,-124.498"/>
</g>
<!-- 206&#45;&gt;attack -->
<g id="edge30" class="edge"><title>206&#45;&gt;attack</title>
<path fill="none" stroke="red" stroke-width="0.599206" d="M1708.98,-172.638C1703.49,-169.406 1697.27,-166.165 1691.21,-163.924 1609.79,-133.784 1579.26,-161.549 1499.21,-127.924 1496.73,-126.88 1494.24,-125.645 1491.81,-124.291"/>
<polygon fill="red" stroke="red" stroke-width="0.599206" points="1493.61,-121.294 1483.27,-118.998 1489.92,-127.243 1493.61,-121.294"/>
</g>
<!-- 146&#45;&gt;left -->
<g id="edge33" class="edge"><title>146&#45;&gt;left</title>
<path fill="none" stroke="red" stroke-width="0.19338" d="M91.6651,-242.326C97.6333,-202.808 116.828,-115.736 173.213,-75.598 221.349,-41.3327 642.164,-25.4776 759.153,-21.707"/>
<polygon fill="red" stroke="red" stroke-width="0.19338" points="759.316,-25.2037 769.2,-21.389 759.095,-18.2072 759.316,-25.2037"/>
</g>
<!-- 146&#45;&gt;203 -->
<g id="edge22" class="edge"><title>146&#45;&gt;203</title>
<path fill="none" stroke="green" stroke-width="0.426746" stroke-dasharray="1,5" d="M85.4743,-242.647C80.2953,-215.06 70.8955,-164.99 64.8592,-132.836"/>
<polygon fill="green" stroke="green" stroke-width="0.426746" points="68.237,-131.859 62.9519,-122.676 61.3572,-133.15 68.237,-131.859"/>
</g>
<!-- 217 -->
<g id="node26" class="node"><title>217</title>
<ellipse fill="white" stroke="black" cx="21.2132" cy="-185.137" rx="21.4286" ry="21.4286"/>
<text text-anchor="middle" x="21.2132" y="-182.937" font-family="Times,serif" font-size="9.00">217</text>
</g>
<!-- 146&#45;&gt;217 -->
<g id="edge81" class="edge"><title>146&#45;&gt;217</title>
<path fill="none" stroke="red" stroke-width="0.604419" d="M75.4524,-247.097C65.7746,-236.22 52.6571,-221.477 41.7464,-209.215"/>
<polygon fill="red" stroke="red" stroke-width="0.604419" points="44.2156,-206.725 34.9536,-201.58 38.986,-211.378 44.2156,-206.725"/>
</g>
<!-- 52&#45;&gt;attack -->
<g id="edge76" class="edge"><title>52&#45;&gt;attack</title>
<path fill="none" stroke="green" stroke-width="0.168809" d="M1616.3,-173.773C1611.04,-170.375 1605,-166.751 1599.21,-163.924 1556.77,-143.188 1541.16,-149.644 1499.21,-127.924 1496.9,-126.727 1494.57,-125.403 1492.26,-124.005"/>
<polygon fill="green" stroke="green" stroke-width="0.168809" points="1493.86,-120.873 1483.56,-118.373 1490.05,-126.747 1493.86,-120.873"/>
</g>
<!-- 52&#45;&gt;up -->
<g id="edge40" class="edge"><title>52&#45;&gt;up</title>
<path fill="none" stroke="green" stroke-width="0.230537" d="M1624.47,-167.684C1613.48,-143.168 1589.27,-97.5842 1553.21,-75.598 1495.9,-40.65 1289.44,-26.3682 1212.97,-22.1994"/>
<polygon fill="green" stroke="green" stroke-width="0.230537" points="1212.83,-18.6875 1202.66,-21.6565 1212.46,-25.6778 1212.83,-18.6875"/>
</g>
<!-- 52&#45;&gt;98 -->
<g id="edge16" class="edge"><title>52&#45;&gt;98</title>
<path fill="none" stroke="red" stroke-width="0.48278" d="M1617.05,-173.162C1599.44,-159.512 1569.17,-136.051 1548.45,-119.992"/>
<polygon fill="red" stroke="red" stroke-width="0.48278" points="1550.53,-117.181 1540.48,-113.822 1546.25,-122.714 1550.53,-117.181"/>
</g>
<!-- 217&#45;&gt;203 -->
<g id="edge24" class="edge"><title>217&#45;&gt;203</title>
<path fill="none" stroke="green" stroke-width="0.337096" d="M29.836,-165.672C34.6603,-155.34 40.7722,-142.252 46.1704,-130.692"/>
<polygon fill="green" stroke="green" stroke-width="0.337096" points="49.4331,-131.977 50.493,-121.435 43.0906,-129.015 49.4331,-131.977"/>
</g>
<!-- 186&#45;&gt;left -->
<g id="edge73" class="edge"><title>186&#45;&gt;left</title>
<path fill="none" stroke="green" stroke-width="0.349596" d="M1330.52,-93.5008C1314.28,-87.7953 1290.54,-80.0864 1269.21,-75.598 1101.41,-40.2817 895.491,-26.4236 819.357,-22.2743"/>
<polygon fill="green" stroke="green" stroke-width="0.349596" points="819.257,-18.7642 809.086,-21.7311 818.887,-25.7544 819.257,-18.7642"/>
</g>
</g>
</svg>
