<?xml version="1.0" encoding="UTF-8" standalone="no"?>
<!DOCTYPE svg PUBLIC "-//W3C//DTD SVG 1.1//EN"
 "http://www.w3.org/Graphics/SVG/1.1/DTD/svg11.dtd">
<!-- Generated by graphviz version 2.38.0 (20140413.2041)
 -->
<!-- Title: %3 Pages: 1 -->
<svg width="2256pt" height="271pt"
 viewBox="0.00 0.00 2256.43 271.18" xmlns="http://www.w3.org/2000/svg" xmlns:xlink="http://www.w3.org/1999/xlink">
<g id="graph0" class="graph" transform="scale(1 1) rotate(0) translate(4 267.179)">
<title>%3</title>
<polygon fill="white" stroke="none" points="-4,4 -4,-267.179 2252.43,-267.179 2252.43,4 -4,4"/>
<!-- enemy_hp -->
<g id="node1" class="node"><title>enemy_hp</title>
<polygon fill="lightgray" stroke="black" points="607.713,-196.966 554.713,-196.966 554.713,-178.966 607.713,-178.966 607.713,-196.966"/>
<text text-anchor="middle" x="581.213" y="-185.766" font-family="Times,serif" font-size="9.00">enemy_hp</text>
</g>
<!-- attack -->
<g id="node12" class="node"><title>attack</title>
<ellipse fill="lightblue" stroke="black" cx="1795.21" cy="-26.163" rx="26.3269" ry="26.3269"/>
<text text-anchor="middle" x="1795.21" y="-23.963" font-family="Times,serif" font-size="9.00">attack</text>
</g>
<!-- enemy_hp&#45;&gt;attack -->
<g id="edge5" class="edge"><title>enemy_hp&#45;&gt;attack</title>
<path fill="none" stroke="red" stroke-width="0.207333" d="M592.27,-178.92C599.096,-174.435 608.239,-169.262 617.213,-166.752 845.05,-103.03 1462.01,-219.757 1681.21,-130.752 1719.5,-115.205 1753.1,-80.6821 1773.73,-55.7572"/>
<polygon fill="red" stroke="red" stroke-width="0.207333" points="1776.66,-57.6956 1780.21,-47.7136 1771.21,-53.3024 1776.66,-57.6956"/>
</g>
<!-- up -->
<g id="node13" class="node"><title>up</title>
<ellipse fill="lightblue" stroke="black" cx="830.213" cy="-26.163" rx="18.2703" ry="18.2703"/>
<text text-anchor="middle" x="830.213" y="-23.963" font-family="Times,serif" font-size="9.00">up</text>
</g>
<!-- enemy_hp&#45;&gt;up -->
<g id="edge56" class="edge"><title>enemy_hp&#45;&gt;up</title>
<path fill="none" stroke="red" stroke-width="0.212357" d="M586.477,-178.893C598.916,-160.398 631.974,-114.539 670.213,-88.3259 711.823,-59.8022 768.545,-42.2238 802.08,-33.6099"/>
<polygon fill="red" stroke="red" stroke-width="0.212357" points="803.24,-36.9284 812.104,-31.1257 801.556,-30.134 803.24,-36.9284"/>
</g>
<!-- down -->
<g id="node14" class="node"><title>down</title>
<ellipse fill="lightblue" stroke="black" cx="1412.21" cy="-26.163" rx="26.3269" ry="26.3269"/>
<text text-anchor="middle" x="1412.21" y="-23.963" font-family="Times,serif" font-size="9.00">down</text>
</g>
<!-- enemy_hp&#45;&gt;down -->
<g id="edge54" class="edge"><title>enemy_hp&#45;&gt;down</title>
<path fill="none" stroke="green" stroke-width="0.376774" d="M592.603,-178.77C599.4,-174.354 608.4,-169.301 617.213,-166.752 766.844,-123.483 1176.29,-197.098 1317.21,-130.752 1350.25,-115.201 1377.12,-82.441 1393.75,-57.9012"/>
<polygon fill="green" stroke="green" stroke-width="0.376774" points="1396.84,-59.5606 1399.4,-49.2792 1390.99,-55.7214 1396.84,-59.5606"/>
</g>
<!-- left -->
<g id="node15" class="node"><title>left</title>
<ellipse fill="lightblue" stroke="black" cx="1290.21" cy="-26.163" rx="19.6" ry="19.6"/>
<text text-anchor="middle" x="1290.21" y="-23.963" font-family="Times,serif" font-size="9.00">left</text>
</g>
<!-- enemy_hp&#45;&gt;left -->
<g id="edge71" class="edge"><title>enemy_hp&#45;&gt;left</title>
<path fill="none" stroke="red" stroke-width="0.263127" d="M592.614,-178.809C599.415,-174.406 608.415,-169.352 617.213,-166.752 738.929,-130.783 1075.01,-190.08 1187.21,-130.752 1208.33,-119.586 1203.81,-105.693 1220.21,-88.3259 1234.85,-72.83 1253.02,-57.0431 1267.17,-45.3903"/>
<polygon fill="red" stroke="red" stroke-width="0.263127" points="1269.44,-48.0625 1274.99,-39.0404 1265.02,-42.6295 1269.44,-48.0625"/>
</g>
<!-- right -->
<g id="node16" class="node"><title>right</title>
<ellipse fill="lightblue" stroke="black" cx="678.213" cy="-26.163" rx="23.1702" ry="23.1702"/>
<text text-anchor="middle" x="678.213" y="-23.963" font-family="Times,serif" font-size="9.00">right</text>
</g>
<!-- enemy_hp&#45;&gt;right -->
<g id="edge82" class="edge"><title>enemy_hp&#45;&gt;right</title>
<path fill="none" stroke="green" stroke-width="0.162242" d="M554.644,-186.011C477.287,-182.322 261.662,-165.061 326.213,-88.3259 346.723,-63.9449 561.051,-39.3018 644.873,-30.5222"/>
<polygon fill="green" stroke="green" stroke-width="0.162242" points="645.301,-33.9967 654.887,-29.484 644.579,-27.034 645.301,-33.9967"/>
</g>
<!-- select -->
<g id="node17" class="node"><title>select</title>
<ellipse fill="lightblue" stroke="black" cx="412.213" cy="-26.163" rx="25.4118" ry="25.4118"/>
<text text-anchor="middle" x="412.213" y="-23.963" font-family="Times,serif" font-size="9.00">select</text>
</g>
<!-- enemy_hp&#45;&gt;select -->
<g id="edge69" class="edge"><title>enemy_hp&#45;&gt;select</title>
<path fill="none" stroke="red" stroke-width="0.615526" stroke-dasharray="1,5" d="M554.603,-187.403C474.706,-188.093 239.504,-185.368 192.213,-130.752 137.051,-67.0461 301.668,-39.707 376.864,-30.754"/>
<polygon fill="red" stroke="red" stroke-width="0.615526" points="377.312,-34.2257 386.849,-29.6108 376.516,-27.2711 377.312,-34.2257"/>
</g>
<!-- 228 -->
<g id="node18" class="node"><title>228</title>
<ellipse fill="white" stroke="black" cx="119.213" cy="-109.539" rx="21.4286" ry="21.4286"/>
<text text-anchor="middle" x="119.213" y="-107.339" font-family="Times,serif" font-size="9.00">228</text>
</g>
<!-- enemy_hp&#45;&gt;228 -->
<g id="edge64" class="edge"><title>enemy_hp&#45;&gt;228</title>
<path fill="none" stroke="green" stroke-width="0.17153" d="M554.406,-187.029C485.858,-186.434 299.357,-180.032 154.213,-130.752 151.252,-129.747 148.262,-128.479 145.341,-127.071"/>
<polygon fill="green" stroke="green" stroke-width="0.17153" points="146.839,-123.902 136.375,-122.242 143.52,-130.065 146.839,-123.902"/>
</g>
<!-- player_hp_1 -->
<g id="node2" class="node"><title>player_hp_1</title>
<polygon fill="lightgray" stroke="black" points="1320.71,-196.966 1259.71,-196.966 1259.71,-178.966 1320.71,-178.966 1320.71,-196.966"/>
<text text-anchor="middle" x="1290.21" y="-185.766" font-family="Times,serif" font-size="9.00">player_hp_1</text>
</g>
<!-- player_hp_1&#45;&gt;attack -->
<g id="edge21" class="edge"><title>player_hp_1&#45;&gt;attack</title>
<path fill="none" stroke="green" stroke-width="0.287781" d="M1320.94,-179.355C1339.22,-175.08 1362.92,-169.973 1384.21,-166.752 1428.99,-159.979 1758.84,-163.413 1790.21,-130.752 1807.41,-112.848 1807.53,-84.1799 1803.99,-61.5365"/>
<polygon fill="green" stroke="green" stroke-width="0.287781" points="1807.41,-60.8107 1802.15,-51.617 1800.53,-62.0877 1807.41,-60.8107"/>
</g>
<!-- player_hp_1&#45;&gt;up -->
<g id="edge24" class="edge"><title>player_hp_1&#45;&gt;up</title>
<path fill="none" stroke="green" stroke-width="0.536898" stroke-dasharray="1,5" d="M1259.56,-185.648C1159.29,-181.028 845.762,-164.012 816.213,-130.752 797.23,-109.384 806.904,-75.099 817.159,-51.8788"/>
<polygon fill="green" stroke="green" stroke-width="0.536898" points="820.4,-53.2115 821.508,-42.6747 814.071,-50.2211 820.4,-53.2115"/>
</g>
<!-- player_hp_1&#45;&gt;down -->
<g id="edge19" class="edge"><title>player_hp_1&#45;&gt;down</title>
<path fill="none" stroke="green" stroke-width="0.307793" d="M1320.96,-183.944C1353.36,-178.937 1402.85,-165.688 1426.21,-130.752 1440.12,-109.952 1434.99,-81.5072 1427.29,-59.6867"/>
<polygon fill="green" stroke="green" stroke-width="0.307793" points="1430.49,-58.2542 1423.63,-50.1785 1423.95,-60.7683 1430.49,-58.2542"/>
</g>
<!-- player_hp_1&#45;&gt;left -->
<g id="edge78" class="edge"><title>player_hp_1&#45;&gt;left</title>
<path fill="none" stroke="red" stroke-width="0.144303" d="M1295.69,-178.645C1302.31,-168.043 1313.08,-148.909 1317.21,-130.752 1321.4,-112.367 1321.1,-106.776 1317.21,-88.3259 1314.65,-76.1523 1309.49,-63.4503 1304.37,-52.7967"/>
<polygon fill="red" stroke="red" stroke-width="0.144303" points="1307.39,-51.0067 1299.75,-43.6625 1301.14,-54.1658 1307.39,-51.0067"/>
</g>
<!-- player_hp_1&#45;&gt;right -->
<g id="edge62" class="edge"><title>player_hp_1&#45;&gt;right</title>
<path fill="none" stroke="green" stroke-width="0.100595" d="M1259.37,-186.577C1138.9,-184.747 704.754,-175.097 664.213,-130.752 646.106,-110.946 653.589,-79.4573 663.14,-56.3913"/>
<polygon fill="green" stroke="green" stroke-width="0.100595" points="666.416,-57.6387 667.291,-47.0801 660.022,-54.7882 666.416,-57.6387"/>
</g>
<!-- player_hp_1&#45;&gt;select -->
<g id="edge14" class="edge"><title>player_hp_1&#45;&gt;select</title>
<path fill="none" stroke="red" stroke-width="0.10773" d="M1259.59,-185.967C1110.7,-180.984 468.233,-157.965 436.213,-130.752 416.696,-114.165 411.285,-85.1278 410.422,-62.0092"/>
<polygon fill="red" stroke="red" stroke-width="0.10773" points="413.921,-61.8308 410.312,-51.8696 406.921,-61.9072 413.921,-61.8308"/>
</g>
<!-- 12 -->
<g id="node20" class="node"><title>12</title>
<ellipse fill="white" stroke="black" cx="1290.21" cy="-109.539" rx="18.2703" ry="18.2703"/>
<text text-anchor="middle" x="1290.21" y="-107.339" font-family="Times,serif" font-size="9.00">12</text>
</g>
<!-- player_hp_1&#45;&gt;12 -->
<g id="edge68" class="edge"><title>player_hp_1&#45;&gt;12</title>
<path fill="none" stroke="green" stroke-width="0.604332" d="M1290.21,-178.787C1290.21,-169.213 1290.21,-152.844 1290.21,-138.537"/>
<polygon fill="green" stroke="green" stroke-width="0.604332" points="1293.71,-138.145 1290.21,-128.145 1286.71,-138.145 1293.71,-138.145"/>
</g>
<!-- player_hp_2 -->
<g id="node3" class="node"><title>player_hp_2</title>
<polygon fill="lightgray" stroke="black" points="1031.71,-118.539 970.713,-118.539 970.713,-100.539 1031.71,-100.539 1031.71,-118.539"/>
<text text-anchor="middle" x="1001.21" y="-107.339" font-family="Times,serif" font-size="9.00">player_hp_2</text>
</g>
<!-- player_hp_2&#45;&gt;attack -->
<g id="edge75" class="edge"><title>player_hp_2&#45;&gt;attack</title>
<path fill="none" stroke="red" stroke-width="0.110052" d="M1014.02,-100.457C1021.63,-96.0781 1031.63,-91.0248 1041.21,-88.3259 1076.13,-78.4955 1612.54,-40.0659 1758.68,-29.733"/>
<polygon fill="red" stroke="red" stroke-width="0.110052" points="1759.18,-33.2067 1768.91,-29.0109 1758.69,-26.2241 1759.18,-33.2067"/>
</g>
<!-- player_hp_2&#45;&gt;up -->
<g id="edge58" class="edge"><title>player_hp_2&#45;&gt;up</title>
<path fill="none" stroke="green" stroke-width="0.140835" stroke-dasharray="1,5" d="M985.309,-100.36C977.996,-96.6353 969.191,-92.2029 961.213,-88.3259 924.981,-70.7182 882.69,-51.1482 856.178,-38.9971"/>
<polygon fill="green" stroke="green" stroke-width="0.140835" points="857.385,-35.7004 846.835,-34.7229 854.473,-42.0659 857.385,-35.7004"/>
</g>
<!-- player_hp_2&#45;&gt;down -->
<g id="edge43" class="edge"><title>player_hp_2&#45;&gt;down</title>
<path fill="none" stroke="red" stroke-width="0.291449" stroke-dasharray="1,5" d="M1014.43,-100.425C1022.01,-96.1492 1031.84,-91.2076 1041.21,-88.3259 1160.3,-51.7054 1197.02,-76.6514 1319.21,-52.3259 1338.69,-48.4493 1360.1,-42.7576 1377.46,-37.7676"/>
<polygon fill="red" stroke="red" stroke-width="0.291449" points="1378.55,-41.0944 1387.17,-34.9296 1376.59,-34.3754 1378.55,-41.0944"/>
</g>
<!-- player_hp_2&#45;&gt;left -->
<g id="edge15" class="edge"><title>player_hp_2&#45;&gt;left</title>
<path fill="none" stroke="red" stroke-width="0.22148" d="M1015.3,-100.43C1022.81,-96.365 1032.31,-91.6199 1041.21,-88.3259 1118.26,-59.8195 1213.62,-40.6284 1260.85,-32.1358"/>
<polygon fill="red" stroke="red" stroke-width="0.22148" points="1261.47,-35.5798 1270.71,-30.393 1260.26,-28.6866 1261.47,-35.5798"/>
</g>
<!-- player_hp_2&#45;&gt;right -->
<g id="edge83" class="edge"><title>player_hp_2&#45;&gt;right</title>
<path fill="none" stroke="red" stroke-width="0.249317" d="M987.53,-100.528C979.977,-96.3899 970.308,-91.5468 961.213,-88.3259 937.721,-80.0059 780.788,-47.8705 711.262,-33.8117"/>
<polygon fill="red" stroke="red" stroke-width="0.249317" points="711.771,-30.3439 701.276,-31.7952 710.385,-37.2054 711.771,-30.3439"/>
</g>
<!-- player_hp_2&#45;&gt;select -->
<g id="edge35" class="edge"><title>player_hp_2&#45;&gt;select</title>
<path fill="none" stroke="green" stroke-width="0.117784" d="M988.013,-100.36C980.446,-96.0643 970.609,-91.1239 961.213,-88.3259 955.01,-86.4785 568.5,-44.213 447.811,-31.0441"/>
<polygon fill="green" stroke="green" stroke-width="0.117784" points="447.949,-27.5384 437.628,-29.9332 447.189,-34.4971 447.949,-27.5384"/>
</g>
<!-- enemy_x -->
<g id="node4" class="node"><title>enemy_x</title>
<polygon fill="lightgray" stroke="black" points="1819.71,-196.966 1770.71,-196.966 1770.71,-178.966 1819.71,-178.966 1819.71,-196.966"/>
<text text-anchor="middle" x="1795.21" y="-185.766" font-family="Times,serif" font-size="9.00">enemy_x</text>
</g>
<!-- enemy_x&#45;&gt;attack -->
<g id="edge61" class="edge"><title>enemy_x&#45;&gt;attack</title>
<path fill="none" stroke="green" stroke-width="0.666082" d="M1819.97,-187.35C1859.17,-186.447 1934.65,-178.236 1969.21,-130.752 1980.31,-115.507 1980.11,-103.712 1969.21,-88.3259 1938.14,-44.4613 1872.99,-31.825 1831.82,-28.3229"/>
<polygon fill="green" stroke="green" stroke-width="0.666082" points="1831.88,-24.8181 1821.65,-27.6014 1831.38,-31.8006 1831.88,-24.8181"/>
</g>
<!-- enemy_x&#45;&gt;down -->
<g id="edge12" class="edge"><title>enemy_x&#45;&gt;down</title>
<path fill="none" stroke="green" stroke-width="0.152477" stroke-dasharray="1,5" d="M1791.04,-178.73C1780.83,-159.475 1752.57,-111.399 1714.21,-88.3259 1629.02,-37.0803 1508.37,-28.005 1448.63,-26.8796"/>
<polygon fill="green" stroke="green" stroke-width="0.152477" points="1448.59,-23.379 1438.55,-26.7555 1448.51,-30.3785 1448.59,-23.379"/>
</g>
<!-- enemy_x&#45;&gt;left -->
<g id="edge34" class="edge"><title>enemy_x&#45;&gt;left</title>
<path fill="none" stroke="green" stroke-width="0.429863" d="M1780.78,-178.793C1763.79,-168.77 1735.22,-150.644 1714.21,-130.752 1696.87,-114.326 1702.02,-100.067 1681.21,-88.3259 1562.73,-21.4561 1510.56,-79.3171 1377.21,-52.3259 1357.3,-48.2962 1335.33,-41.9256 1318.45,-36.6029"/>
<polygon fill="green" stroke="green" stroke-width="0.429863" points="1319.25,-33.1843 1308.66,-33.4545 1317.11,-39.8481 1319.25,-33.1843"/>
</g>
<!-- enemy_x&#45;&gt;right -->
<g id="edge70" class="edge"><title>enemy_x&#45;&gt;right</title>
<path fill="none" stroke="green" stroke-width="0.485688" stroke-dasharray="1,5" d="M1770.66,-183.91C1734.49,-179.509 1664.74,-171.407 1605.21,-166.752 1445.94,-154.297 1041.8,-171.07 887.213,-130.752 817.922,-112.681 744.64,-70.152 705.938,-45.5742"/>
<polygon fill="green" stroke="green" stroke-width="0.485688" points="707.621,-42.4952 697.317,-40.031 703.836,-48.3832 707.621,-42.4952"/>
</g>
<!-- enemy_x&#45;&gt;select -->
<g id="edge1" class="edge"><title>enemy_x&#45;&gt;select</title>
<path fill="none" stroke="red" stroke-width="0.200131" d="M1770.66,-183.857C1734.5,-179.392 1664.76,-171.21 1605.21,-166.752 1421.55,-153.004 955.622,-176.474 777.213,-130.752 735.927,-120.172 731.435,-102.421 691.213,-88.3259 606.1,-58.5002 501.102,-40.1825 447.434,-32.0753"/>
<polygon fill="red" stroke="red" stroke-width="0.200131" points="447.81,-28.593 437.405,-30.5896 446.784,-35.5174 447.81,-28.593"/>
</g>
<!-- 239 -->
<g id="node21" class="node"><title>239</title>
<ellipse fill="white" stroke="black" cx="1939.21" cy="-109.539" rx="21.4286" ry="21.4286"/>
<text text-anchor="middle" x="1939.21" y="-107.339" font-family="Times,serif" font-size="9.00">239</text>
</g>
<!-- enemy_x&#45;&gt;239 -->
<g id="edge33" class="edge"><title>enemy_x&#45;&gt;239</title>
<path fill="none" stroke="green" stroke-width="0.177114" d="M1811.59,-178.824C1833.03,-168.099 1871.7,-148.512 1904.21,-130.752 1906.9,-129.286 1909.68,-127.733 1912.46,-126.165"/>
<polygon fill="green" stroke="green" stroke-width="0.177114" points="1914.2,-129.2 1921.14,-121.195 1910.72,-123.125 1914.2,-129.2"/>
</g>
<!-- enemy_y -->
<g id="node5" class="node"><title>enemy_y</title>
<polygon fill="lightgray" stroke="black" points="1442.71,-196.966 1393.71,-196.966 1393.71,-178.966 1442.71,-178.966 1442.71,-196.966"/>
<text text-anchor="middle" x="1418.21" y="-185.766" font-family="Times,serif" font-size="9.00">enemy_y</text>
</g>
<!-- enemy_y&#45;&gt;attack -->
<g id="edge2" class="edge"><title>enemy_y&#45;&gt;attack</title>
<path fill="none" stroke="red" stroke-width="0.220727" stroke-dasharray="1,5" d="M1443,-182.785C1468.57,-178.527 1509.63,-171.846 1545.21,-166.752 1607.97,-157.769 1786.31,-178.324 1828.21,-130.752 1846.8,-109.653 1832.58,-78.0322 1817.44,-55.2796"/>
<polygon fill="red" stroke="red" stroke-width="0.220727" points="1820.27,-53.2133 1811.66,-47.0341 1814.54,-57.2316 1820.27,-53.2133"/>
</g>
<!-- enemy_y&#45;&gt;up -->
<g id="edge25" class="edge"><title>enemy_y&#45;&gt;up</title>
<path fill="none" stroke="green" stroke-width="0.182519" d="M1393.46,-180.349C1375.7,-175.847 1351.14,-170.118 1329.21,-166.752 1231.81,-151.802 969.939,-184.306 887.213,-130.752 860.224,-113.281 844.924,-78.4125 837.112,-53.9746"/>
<polygon fill="green" stroke="green" stroke-width="0.182519" points="840.416,-52.8077 834.21,-44.221 833.707,-54.8039 840.416,-52.8077"/>
</g>
<!-- enemy_y&#45;&gt;down -->
<g id="edge49" class="edge"><title>enemy_y&#45;&gt;down</title>
<path fill="none" stroke="green" stroke-width="0.584329" d="M1441.14,-178.823C1461.31,-170.291 1489.4,-154.744 1502.21,-130.752 1511.1,-114.119 1511.04,-104.99 1502.21,-88.3259 1490.38,-65.9855 1466.33,-50.2893 1446.07,-40.3951"/>
<polygon fill="green" stroke="green" stroke-width="0.584329" points="1447.34,-37.1259 1436.79,-36.1275 1444.41,-43.4856 1447.34,-37.1259"/>
</g>
<!-- enemy_y&#45;&gt;left -->
<g id="edge66" class="edge"><title>enemy_y&#45;&gt;left</title>
<path fill="none" stroke="green" stroke-width="0.477807" d="M1411.69,-178.821C1392.82,-155.268 1337.7,-86.4508 1308.64,-50.1663"/>
<polygon fill="green" stroke="green" stroke-width="0.477807" points="1311.17,-47.7239 1302.18,-42.107 1305.7,-52.1001 1311.17,-47.7239"/>
</g>
<!-- enemy_y&#45;&gt;right -->
<g id="edge38" class="edge"><title>enemy_y&#45;&gt;right</title>
<path fill="none" stroke="green" stroke-width="0.608202" d="M1393.46,-180.306C1375.71,-175.784 1351.15,-170.047 1329.21,-166.752 1117.65,-134.974 1052.96,-195.966 849.213,-130.752 792.769,-112.687 735.55,-72.6387 703.698,-47.9675"/>
<polygon fill="green" stroke="green" stroke-width="0.608202" points="705.81,-45.1761 695.785,-41.7485 701.485,-50.6797 705.81,-45.1761"/>
</g>
<!-- enemy_y&#45;&gt;select -->
<g id="edge55" class="edge"><title>enemy_y&#45;&gt;select</title>
<path fill="none" stroke="red" stroke-width="0.120791" stroke-dasharray="1,5" d="M1393.48,-180.225C1375.73,-175.665 1351.17,-169.917 1329.21,-166.752 1077.53,-130.477 1008.53,-175.508 758.213,-130.752 640.396,-109.687 505.919,-62.4465 445.123,-39.7743"/>
<polygon fill="red" stroke="red" stroke-width="0.120791" points="446.262,-36.4635 435.67,-36.225 443.801,-43.0168 446.262,-36.4635"/>
</g>
<!-- 20 -->
<g id="node24" class="node"><title>20</title>
<ellipse fill="white" stroke="black" cx="366.213" cy="-109.539" rx="18.2703" ry="18.2703"/>
<text text-anchor="middle" x="366.213" y="-107.339" font-family="Times,serif" font-size="9.00">20</text>
</g>
<!-- enemy_y&#45;&gt;20 -->
<g id="edge17" class="edge"><title>enemy_y&#45;&gt;20</title>
<path fill="none" stroke="green" stroke-width="0.518065" d="M1393.5,-180.072C1375.76,-175.44 1351.2,-169.668 1329.21,-166.752 935.447,-114.548 828.306,-194.311 436.213,-130.752 421.632,-128.389 405.787,-123.975 392.866,-119.874"/>
<polygon fill="green" stroke="green" stroke-width="0.518065" points="393.803,-116.498 383.21,-116.697 391.615,-123.147 393.803,-116.498"/>
</g>
<!-- 223 -->
<g id="node26" class="node"><title>223</title>
<ellipse fill="white" stroke="black" cx="1651.21" cy="-109.539" rx="21.4286" ry="21.4286"/>
<text text-anchor="middle" x="1651.21" y="-107.339" font-family="Times,serif" font-size="9.00">223</text>
</g>
<!-- enemy_y&#45;&gt;223 -->
<g id="edge80" class="edge"><title>enemy_y&#45;&gt;223</title>
<path fill="none" stroke="green" stroke-width="0.171777" d="M1442.95,-182.008C1481.1,-173.909 1556.15,-156.158 1616.21,-130.752 1618.94,-129.599 1621.72,-128.277 1624.46,-126.873"/>
<polygon fill="green" stroke="green" stroke-width="0.171777" points="1626.41,-129.794 1633.49,-121.911 1623.04,-123.66 1626.41,-129.794"/>
</g>
<!-- player_x_1 -->
<g id="node6" class="node"><title>player_x_1</title>
<polygon fill="lightgray" stroke="black" points="952.213,-118.539 896.213,-118.539 896.213,-100.539 952.213,-100.539 952.213,-118.539"/>
<text text-anchor="middle" x="924.213" y="-107.339" font-family="Times,serif" font-size="9.00">player_x_1</text>
</g>
<!-- player_x_1&#45;&gt;attack -->
<g id="edge31" class="edge"><title>player_x_1&#45;&gt;attack</title>
<path fill="none" stroke="green" stroke-width="0.109252" stroke-dasharray="1,5" d="M935.973,-100.419C942.976,-96.0278 952.226,-90.9745 961.213,-88.3259 963.646,-87.6089 1598.15,-41.4787 1758.66,-29.8178"/>
<polygon fill="green" stroke="green" stroke-width="0.109252" points="1759.24,-33.2849 1768.96,-29.0695 1758.73,-26.3033 1759.24,-33.2849"/>
</g>
<!-- player_x_1&#45;&gt;up -->
<g id="edge51" class="edge"><title>player_x_1&#45;&gt;up</title>
<path fill="none" stroke="red" stroke-width="0.384557" d="M914.856,-100.439C900.163,-87.719 871.305,-62.7362 851.4,-45.5049"/>
<polygon fill="red" stroke="red" stroke-width="0.384557" points="853.595,-42.7753 843.744,-38.8763 849.013,-48.0677 853.595,-42.7753"/>
</g>
<!-- player_x_1&#45;&gt;down -->
<g id="edge76" class="edge"><title>player_x_1&#45;&gt;down</title>
<path fill="none" stroke="red" stroke-width="0.501722" d="M936,-100.51C943.013,-96.149 952.263,-91.0957 961.213,-88.3259 1113.98,-41.0513 1161.95,-81.3063 1319.21,-52.3259 1338.74,-48.7277 1360.15,-43.0563 1377.51,-38.0079"/>
<polygon fill="red" stroke="red" stroke-width="0.501722" points="1378.62,-41.3288 1387.21,-35.1278 1376.63,-34.6182 1378.62,-41.3288"/>
</g>
<!-- player_x_1&#45;&gt;left -->
<g id="edge9" class="edge"><title>player_x_1&#45;&gt;left</title>
<path fill="none" stroke="green" stroke-width="0.24641" d="M936.76,-100.386C943.714,-96.2065 952.662,-91.369 961.213,-88.3259 1067.36,-50.5509 1201.49,-34.9087 1260.29,-29.5441"/>
<polygon fill="green" stroke="green" stroke-width="0.24641" points="1260.71,-33.0205 1270.37,-28.659 1260.1,-26.0473 1260.71,-33.0205"/>
</g>
<!-- player_x_1&#45;&gt;right -->
<g id="edge39" class="edge"><title>player_x_1&#45;&gt;right</title>
<path fill="none" stroke="green" stroke-width="0.444124" d="M908.913,-100.459C901.061,-96.4975 891.267,-91.8367 882.213,-88.3259 822.911,-65.3301 751.192,-45.6214 710.521,-35.1658"/>
<polygon fill="green" stroke="green" stroke-width="0.444124" points="711.189,-31.7243 700.635,-32.6497 709.463,-38.508 711.189,-31.7243"/>
</g>
<!-- player_x_1&#45;&gt;select -->
<g id="edge74" class="edge"><title>player_x_1&#45;&gt;select</title>
<path fill="none" stroke="green" stroke-width="0.205658" d="M895.957,-104.048C808.665,-90.1741 543.409,-48.0149 447.387,-32.7534"/>
<polygon fill="green" stroke="green" stroke-width="0.205658" points="447.745,-29.2665 437.32,-31.1533 446.646,-36.1797 447.745,-29.2665"/>
</g>
<!-- player_y_1 -->
<g id="node7" class="node"><title>player_y_1</title>
<polygon fill="lightgray" stroke="black" points="1054.21,-263.179 998.213,-263.179 998.213,-245.179 1054.21,-245.179 1054.21,-263.179"/>
<text text-anchor="middle" x="1026.21" y="-251.979" font-family="Times,serif" font-size="9.00">player_y_1</text>
</g>
<!-- player_y_1&#45;&gt;attack -->
<g id="edge13" class="edge"><title>player_y_1&#45;&gt;attack</title>
<path fill="none" stroke="green" stroke-width="0.256296" d="M1054.22,-252.871C1194.75,-251.177 1819.53,-241.853 1899.21,-209.179 1960.69,-183.97 2026.42,-141.967 1987.21,-88.3259 1951.57,-39.5619 1876.67,-28.7536 1831.68,-26.8845"/>
<polygon fill="green" stroke="green" stroke-width="0.256296" points="1831.57,-23.38 1821.47,-26.5924 1831.37,-30.3771 1831.57,-23.38"/>
</g>
<!-- player_y_1&#45;&gt;up -->
<g id="edge81" class="edge"><title>player_y_1&#45;&gt;up</title>
<path fill="none" stroke="red" stroke-width="0.402113" d="M997.92,-252.76C899.419,-251.012 575.845,-242.741 545.213,-209.179 460.679,-116.559 715.601,-51.7863 802.381,-32.8678"/>
<polygon fill="red" stroke="red" stroke-width="0.402113" points="803.279,-36.2552 812.325,-30.7412 801.815,-29.41 803.279,-36.2552"/>
</g>
<!-- player_y_1&#45;&gt;down -->
<g id="edge63" class="edge"><title>player_y_1&#45;&gt;down</title>
<path fill="none" stroke="red" stroke-width="0.509109" d="M1054.47,-253.322C1178.91,-253.696 1678.5,-252.424 1828.21,-209.179 1897.1,-189.279 1932.86,-192.565 1969.21,-130.752 1978.77,-114.498 1981.8,-102.368 1969.21,-88.3259 1951.74,-68.833 1569.85,-38.8784 1448.73,-29.8367"/>
<polygon fill="red" stroke="red" stroke-width="0.509109" points="1448.72,-26.3267 1438.49,-29.076 1448.2,-33.3075 1448.72,-26.3267"/>
</g>
<!-- player_y_1&#45;&gt;left -->
<g id="edge48" class="edge"><title>player_y_1&#45;&gt;left</title>
<path fill="none" stroke="green" stroke-width="0.136812" stroke-dasharray="1,5" d="M1054.31,-252.404C1144.85,-249.621 1424.6,-238.685 1451.21,-209.179 1508.09,-146.114 1375.98,-69.6895 1316.92,-39.9064"/>
<polygon fill="green" stroke="green" stroke-width="0.136812" points="1318.29,-36.6817 1307.78,-35.3764 1315.19,-42.9535 1318.29,-36.6817"/>
</g>
<!-- player_y_1&#45;&gt;right -->
<g id="edge6" class="edge"><title>player_y_1&#45;&gt;right</title>
<path fill="none" stroke="green" stroke-width="0.12182" d="M998.189,-253.521C875.211,-254.32 386.11,-249.904 311.213,-130.752 301.178,-114.788 299.025,-102.713 311.213,-88.3259 332.782,-62.8656 558.632,-38.6585 644.938,-30.2689"/>
<polygon fill="green" stroke="green" stroke-width="0.12182" points="645.365,-33.7441 654.984,-29.3028 644.695,-26.7762 645.365,-33.7441"/>
</g>
<!-- player_y_1&#45;&gt;select -->
<g id="edge72" class="edge"><title>player_y_1&#45;&gt;select</title>
<path fill="none" stroke="green" stroke-width="0.567169" stroke-dasharray="1,5" d="M998.165,-253.644C904.926,-254.709 597.167,-254.331 348.213,-209.179 229.871,-187.715 160.884,-227.338 89.2132,-130.752 15.7401,-31.7367 278.499,-25.3924 376.656,-26.3662"/>
<polygon fill="green" stroke="green" stroke-width="0.567169" points="376.661,-29.8665 386.706,-26.4977 376.753,-22.8671 376.661,-29.8665"/>
</g>
<!-- 178 -->
<g id="node22" class="node"><title>178</title>
<ellipse fill="white" stroke="black" cx="1575.21" cy="-187.966" rx="21.4286" ry="21.4286"/>
<text text-anchor="middle" x="1575.21" y="-185.766" font-family="Times,serif" font-size="9.00">178</text>
</g>
<!-- player_y_1&#45;&gt;178 -->
<g id="edge52" class="edge"><title>player_y_1&#45;&gt;178</title>
<path fill="none" stroke="green" stroke-width="0.160475" d="M1054.47,-252.376C1148.25,-249.462 1448.36,-238.05 1540.21,-209.179 1543.2,-208.241 1546.2,-207.017 1549.13,-205.636"/>
<polygon fill="green" stroke="green" stroke-width="0.160475" points="1550.94,-208.639 1558.11,-200.84 1547.64,-202.465 1550.94,-208.639"/>
</g>
<!-- 116 -->
<g id="node23" class="node"><title>116</title>
<ellipse fill="white" stroke="black" cx="21.2132" cy="-187.966" rx="21.4286" ry="21.4286"/>
<text text-anchor="middle" x="21.2132" y="-185.766" font-family="Times,serif" font-size="9.00">116</text>
</g>
<!-- player_y_1&#45;&gt;116 -->
<g id="edge40" class="edge"><title>player_y_1&#45;&gt;116</title>
<path fill="none" stroke="green" stroke-width="0.21822" d="M997.746,-252.692C847.334,-250.011 148.539,-236.181 56.2132,-209.179 53.212,-208.301 50.1951,-207.116 47.2589,-205.758"/>
<polygon fill="green" stroke="green" stroke-width="0.21822" points="48.7471,-202.586 38.2728,-200.992 45.4673,-208.77 48.7471,-202.586"/>
</g>
<!-- player_x_2 -->
<g id="node8" class="node"><title>player_x_2</title>
<polygon fill="lightgray" stroke="black" points="682.213,-196.966 626.213,-196.966 626.213,-178.966 682.213,-178.966 682.213,-196.966"/>
<text text-anchor="middle" x="654.213" y="-185.766" font-family="Times,serif" font-size="9.00">player_x_2</text>
</g>
<!-- player_x_2&#45;&gt;attack -->
<g id="edge84" class="edge"><title>player_x_2&#45;&gt;attack</title>
<path fill="none" stroke="red" stroke-width="0.170197" d="M682.385,-185.937C851.9,-179.696 1729.67,-146.652 1752.21,-130.752 1774.39,-115.111 1785.17,-85.7961 1790.38,-62.3328"/>
<polygon fill="red" stroke="red" stroke-width="0.170197" points="1793.85,-62.8526 1792.35,-52.364 1786.98,-61.4965 1793.85,-62.8526"/>
</g>
<!-- player_x_2&#45;&gt;up -->
<g id="edge46" class="edge"><title>player_x_2&#45;&gt;up</title>
<path fill="none" stroke="red" stroke-width="0.154459" d="M656.219,-178.723C661.091,-160.272 675.184,-115.163 702.213,-88.3259 730.543,-60.1977 774.314,-43.1687 802.615,-34.4603"/>
<polygon fill="red" stroke="red" stroke-width="0.154459" points="803.674,-37.7972 812.284,-31.6233 801.703,-31.0803 803.674,-37.7972"/>
</g>
<!-- player_x_2&#45;&gt;down -->
<g id="edge47" class="edge"><title>player_x_2&#45;&gt;down</title>
<path fill="none" stroke="red" stroke-width="0.275113" d="M682.347,-186.745C810.344,-185.486 1333.81,-177.496 1388.21,-130.752 1407.52,-114.165 1412.99,-85.3947 1413.93,-62.3772"/>
<polygon fill="red" stroke="red" stroke-width="0.275113" points="1417.43,-62.3204 1414.08,-52.2708 1410.43,-62.2193 1417.43,-62.3204"/>
</g>
<!-- player_x_2&#45;&gt;left -->
<g id="edge59" class="edge"><title>player_x_2&#45;&gt;left</title>
<path fill="none" stroke="red" stroke-width="0.212687" d="M682.509,-187.266C783.913,-187.874 1127.98,-185.758 1220.21,-130.752 1249.21,-113.457 1268.82,-78.9284 1279.74,-54.4982"/>
<polygon fill="red" stroke="red" stroke-width="0.212687" points="1283.06,-55.6191 1283.76,-45.047 1276.62,-52.8792 1283.06,-55.6191"/>
</g>
<!-- player_x_2&#45;&gt;right -->
<g id="edge18" class="edge"><title>player_x_2&#45;&gt;right</title>
<path fill="none" stroke="red" stroke-width="0.671818" d="M641.707,-178.837C634.528,-174.557 625.182,-169.616 616.213,-166.752 557.081,-147.872 380.18,-177.387 339.213,-130.752 326.769,-116.586 327.121,-102.795 339.213,-88.3259 358.803,-64.8851 563.079,-39.8994 644.747,-30.7677"/>
<polygon fill="red" stroke="red" stroke-width="0.671818" points="645.424,-34.2143 654.978,-29.6352 644.654,-27.2568 645.424,-34.2143"/>
</g>
<!-- player_x_2&#45;&gt;select -->
<g id="edge53" class="edge"><title>player_x_2&#45;&gt;select</title>
<path fill="none" stroke="red" stroke-width="0.128687" d="M641.713,-178.818C634.536,-174.531 625.191,-169.59 616.213,-166.752 554.294,-147.178 369.211,-179.417 326.213,-130.752 313.728,-116.622 317.568,-105.083 326.213,-88.3259 337.403,-66.6374 360.231,-50.9599 379.557,-40.91"/>
<polygon fill="red" stroke="red" stroke-width="0.128687" points="381.26,-43.9731 388.697,-36.4268 378.177,-37.6885 381.26,-43.9731"/>
</g>
<!-- player_x_2&#45;&gt;20 -->
<g id="edge26" class="edge"><title>player_x_2&#45;&gt;20</title>
<path fill="none" stroke="red" stroke-width="0.137212" d="M641.668,-178.957C634.477,-174.714 625.132,-169.77 616.213,-166.752 523.192,-135.279 489.997,-165.669 398.213,-130.752 395.238,-129.621 392.244,-128.194 389.343,-126.623"/>
<polygon fill="red" stroke="red" stroke-width="0.137212" points="390.907,-123.479 380.538,-121.306 387.289,-129.472 390.907,-123.479"/>
</g>
<!-- player_y_2 -->
<g id="node9" class="node"><title>player_y_2</title>
<polygon fill="lightgray" stroke="black" points="1106.21,-118.539 1050.21,-118.539 1050.21,-100.539 1106.21,-100.539 1106.21,-118.539"/>
<text text-anchor="middle" x="1078.21" y="-107.339" font-family="Times,serif" font-size="9.00">player_y_2</text>
</g>
<!-- player_y_2&#45;&gt;attack -->
<g id="edge60" class="edge"><title>player_y_2&#45;&gt;attack</title>
<path fill="none" stroke="red" stroke-width="0.376589" d="M1089.99,-100.475C1097,-96.1019 1106.25,-91.0486 1115.21,-88.3259 1146.27,-78.8936 1622.12,-40.8161 1758.78,-30.0257"/>
<polygon fill="red" stroke="red" stroke-width="0.376589" points="1759.42,-33.4857 1769.12,-29.2102 1758.87,-26.5073 1759.42,-33.4857"/>
</g>
<!-- player_y_2&#45;&gt;up -->
<g id="edge41" class="edge"><title>player_y_2&#45;&gt;up</title>
<path fill="none" stroke="green" stroke-width="0.463406" d="M1064.47,-100.346C1057.39,-96.3554 1048.52,-91.703 1040.21,-88.3259 976.787,-62.5402 898.532,-42.7365 857.8,-33.2797"/>
<polygon fill="green" stroke="green" stroke-width="0.463406" points="858.579,-29.8676 848.051,-31.0481 857.018,-36.6912 858.579,-29.8676"/>
</g>
<!-- player_y_2&#45;&gt;down -->
<g id="edge10" class="edge"><title>player_y_2&#45;&gt;down</title>
<path fill="none" stroke="green" stroke-width="0.182264" d="M1090.75,-100.355C1097.7,-96.1662 1106.65,-91.33 1115.21,-88.3259 1202.09,-57.8539 1229.35,-72.369 1319.21,-52.3259 1338.59,-48.0035 1359.99,-42.2795 1377.38,-37.3829"/>
<polygon fill="green" stroke="green" stroke-width="0.182264" points="1378.44,-40.7184 1387.1,-34.6124 1376.53,-33.9863 1378.44,-40.7184"/>
</g>
<!-- player_y_2&#45;&gt;left -->
<g id="edge29" class="edge"><title>player_y_2&#45;&gt;left</title>
<path fill="none" stroke="red" stroke-width="0.571742" stroke-dasharray="1,5" d="M1091.65,-100.506C1098.55,-96.5567 1107.19,-91.8924 1115.21,-88.3259 1165.54,-65.9653 1226.77,-46.1714 1261.85,-35.5028"/>
<polygon fill="red" stroke="red" stroke-width="0.571742" points="1262.87,-38.8508 1271.43,-32.6164 1260.85,-32.148 1262.87,-38.8508"/>
</g>
<!-- player_y_2&#45;&gt;right -->
<g id="edge67" class="edge"><title>player_y_2&#45;&gt;right</title>
<path fill="none" stroke="green" stroke-width="0.43229" d="M1065.68,-100.486C1058.5,-96.2288 1049.15,-91.2859 1040.21,-88.3259 939.074,-54.8313 908.133,-70.8439 803.213,-52.3259 771.931,-46.8046 736.442,-39.5667 711.292,-34.2715"/>
<polygon fill="green" stroke="green" stroke-width="0.43229" points="711.697,-30.7797 701.189,-32.1317 710.247,-37.6278 711.697,-30.7797"/>
</g>
<!-- player_y_2&#45;&gt;select -->
<g id="edge50" class="edge"><title>player_y_2&#45;&gt;select</title>
<path fill="none" stroke="green" stroke-width="0.29657" d="M1066.09,-100.484C1058.88,-96.1142 1049.38,-91.0609 1040.21,-88.3259 871.715,-38.0457 821.191,-69.7267 646.213,-52.3259 575.676,-45.3113 493.277,-36.2479 447.488,-31.134"/>
<polygon fill="green" stroke="green" stroke-width="0.29657" points="447.805,-27.6477 437.477,-30.0137 447.026,-34.6042 447.805,-27.6477"/>
</g>
<!-- distance_1 -->
<g id="node10" class="node"><title>distance_1</title>
<polygon fill="lightgray" stroke="black" points="1178.21,-118.539 1124.21,-118.539 1124.21,-100.539 1178.21,-100.539 1178.21,-118.539"/>
<text text-anchor="middle" x="1151.21" y="-107.339" font-family="Times,serif" font-size="9.00">distance_1</text>
</g>
<!-- distance_1&#45;&gt;attack -->
<g id="edge45" class="edge"><title>distance_1&#45;&gt;attack</title>
<path fill="none" stroke="green" stroke-width="0.157829" d="M1178.29,-103.15C1200.93,-98.7661 1234.09,-92.6238 1263.21,-88.3259 1449.07,-60.9003 1672.98,-38.6628 1759.08,-30.5109"/>
<polygon fill="green" stroke="green" stroke-width="0.157829" points="1759.49,-33.9875 1769.12,-29.565 1758.83,-27.0184 1759.49,-33.9875"/>
</g>
<!-- distance_1&#45;&gt;up -->
<g id="edge65" class="edge"><title>distance_1&#45;&gt;up</title>
<path fill="none" stroke="green" stroke-width="0.136859" d="M1139,-100.466C1132.23,-96.3101 1123.53,-91.4695 1115.21,-88.3259 1024.84,-54.1542 910.751,-36.9335 858.583,-30.3863"/>
<polygon fill="green" stroke="green" stroke-width="0.136859" points="858.772,-26.8835 848.422,-29.149 857.926,-33.8322 858.772,-26.8835"/>
</g>
<!-- distance_1&#45;&gt;down -->
<g id="edge3" class="edge"><title>distance_1&#45;&gt;down</title>
<path fill="none" stroke="red" stroke-width="0.451457" stroke-dasharray="1,5" d="M1177.19,-100.439C1224.56,-85.6719 1324.93,-54.3776 1377.87,-37.8713"/>
<polygon fill="red" stroke="red" stroke-width="0.451457" points="1378.98,-41.1904 1387.49,-34.8725 1376.9,-34.5077 1378.98,-41.1904"/>
</g>
<!-- distance_1&#45;&gt;left -->
<g id="edge22" class="edge"><title>distance_1&#45;&gt;left</title>
<path fill="none" stroke="green" stroke-width="0.2582" d="M1165.05,-100.439C1188.22,-86.8719 1235.23,-59.3545 1264.58,-42.1714"/>
<polygon fill="green" stroke="green" stroke-width="0.2582" points="1266.57,-45.0592 1273.43,-36.9864 1263.04,-39.0183 1266.57,-45.0592"/>
</g>
<!-- distance_1&#45;&gt;right -->
<g id="edge36" class="edge"><title>distance_1&#45;&gt;right</title>
<path fill="none" stroke="green" stroke-width="0.385011" d="M1139.44,-100.349C1132.66,-96.049 1123.81,-91.1089 1115.21,-88.3259 982.419,-45.3127 941.088,-74.1184 803.213,-52.3259 771.837,-47.3665 736.359,-40.0605 711.238,-34.597"/>
<polygon fill="green" stroke="green" stroke-width="0.385011" points="711.666,-31.1076 701.148,-32.3805 710.164,-37.9446 711.666,-31.1076"/>
</g>
<!-- distance_1&#45;&gt;select -->
<g id="edge57" class="edge"><title>distance_1&#45;&gt;select</title>
<path fill="none" stroke="green" stroke-width="0.107505" d="M1139.8,-100.427C1132.99,-96.0389 1123.99,-90.9856 1115.21,-88.3259 915.132,-27.7224 854.389,-71.5041 646.213,-52.3259 575.627,-45.8232 493.246,-36.5779 447.473,-31.2936"/>
<polygon fill="green" stroke="green" stroke-width="0.107505" points="447.802,-27.8084 437.466,-30.134 446.996,-34.7619 447.802,-27.8084"/>
</g>
<!-- distance_2 -->
<g id="node11" class="node"><title>distance_2</title>
<polygon fill="lightgray" stroke="black" points="2129.21,-263.179 2075.21,-263.179 2075.21,-245.179 2129.21,-245.179 2129.21,-263.179"/>
<text text-anchor="middle" x="2102.21" y="-251.979" font-family="Times,serif" font-size="9.00">distance_2</text>
</g>
<!-- distance_2&#45;&gt;attack -->
<g id="edge28" class="edge"><title>distance_2&#45;&gt;attack</title>
<path fill="none" stroke="green" stroke-width="0.288509" stroke-dasharray="1,5" d="M2106.38,-245.147C2119.29,-219.063 2155.4,-135.684 2116.21,-88.3259 2080.38,-45.0152 1907.65,-32.1071 1831.46,-28.4856"/>
<polygon fill="green" stroke="green" stroke-width="0.288509" points="1831.52,-24.9849 1821.37,-28.0341 1831.21,-31.9779 1831.52,-24.9849"/>
</g>
<!-- distance_2&#45;&gt;up -->
<g id="edge7" class="edge"><title>distance_2&#45;&gt;up</title>
<path fill="none" stroke="red" stroke-width="0.663437" d="M2074.96,-252.844C1895.46,-250.355 887.2,-231.91 802.213,-130.752 782.853,-107.709 799.079,-72.4946 813.687,-49.6482"/>
<polygon fill="red" stroke="red" stroke-width="0.663437" points="816.652,-51.5116 819.332,-41.2613 810.844,-47.6032 816.652,-51.5116"/>
</g>
<!-- distance_2&#45;&gt;down -->
<g id="edge73" class="edge"><title>distance_2&#45;&gt;down</title>
<path fill="none" stroke="red" stroke-width="0.540051" d="M2099.42,-245.171C2089.36,-217.672 2052.1,-126.679 1987.21,-88.3259 1940.81,-60.8991 1567.57,-36.4436 1448.55,-29.2773"/>
<polygon fill="red" stroke="red" stroke-width="0.540051" points="1448.67,-25.7786 1438.48,-28.6761 1448.25,-32.7662 1448.67,-25.7786"/>
</g>
<!-- distance_2&#45;&gt;right -->
<g id="edge37" class="edge"><title>distance_2&#45;&gt;right</title>
<path fill="none" stroke="green" stroke-width="0.349586" d="M2075.05,-252.933C1870.03,-251.013 572.987,-237.748 545.213,-209.179 492.218,-154.664 596.237,-78.0746 649.491,-44.3036"/>
<polygon fill="green" stroke="green" stroke-width="0.349586" points="651.549,-47.1453 658.184,-38.885 647.846,-41.2049 651.549,-47.1453"/>
</g>
<!-- 171 -->
<g id="node19" class="node"><title>171</title>
<ellipse fill="white" stroke="black" cx="2189.21" cy="-187.966" rx="21.4286" ry="21.4286"/>
<text text-anchor="middle" x="2189.21" y="-185.766" font-family="Times,serif" font-size="9.00">171</text>
</g>
<!-- distance_2&#45;&gt;171 -->
<g id="edge8" class="edge"><title>distance_2&#45;&gt;171</title>
<path fill="none" stroke="red" stroke-width="0.486584" d="M2113.23,-245.046C2125.93,-235.677 2147.19,-219.981 2164,-207.573"/>
<polygon fill="red" stroke="red" stroke-width="0.486584" points="2166.35,-210.19 2172.32,-201.436 2162.19,-204.558 2166.35,-210.19"/>
</g>
<!-- 228&#45;&gt;select -->
<g id="edge30" class="edge"><title>228&#45;&gt;select</title>
<path fill="none" stroke="red" stroke-width="0.204866" d="M136.515,-97.2164C142.006,-93.9909 148.214,-90.7099 154.213,-88.3259 230.695,-57.9333 326.184,-40.1608 376.83,-32.2045"/>
<polygon fill="red" stroke="red" stroke-width="0.204866" points="377.58,-35.6305 386.934,-30.6547 376.519,-28.7114 377.58,-35.6305"/>
</g>
<!-- 171&#45;&gt;attack -->
<g id="edge77" class="edge"><title>171&#45;&gt;attack</title>
<path fill="none" stroke="green" stroke-width="0.198955" stroke-dasharray="1,5" d="M2187.88,-166.571C2185.26,-143.884 2177.44,-107.859 2154.21,-88.3259 2105.71,-47.5286 1912.97,-33.1188 1831.68,-28.7882"/>
<polygon fill="green" stroke="green" stroke-width="0.198955" points="1831.59,-25.2793 1821.43,-28.2644 1831.24,-32.2702 1831.59,-25.2793"/>
</g>
<!-- 184 -->
<g id="node25" class="node"><title>184</title>
<ellipse fill="white" stroke="black" cx="2227.21" cy="-109.539" rx="21.4286" ry="21.4286"/>
<text text-anchor="middle" x="2227.21" y="-107.339" font-family="Times,serif" font-size="9.00">184</text>
</g>
<!-- 171&#45;&gt;184 -->
<g id="edge16" class="edge"><title>171&#45;&gt;184</title>
<path fill="none" stroke="red" stroke-width="0.138883" d="M2198.41,-168.465C2202.94,-159.359 2208.49,-148.196 2213.51,-138.109"/>
<polygon fill="red" stroke="red" stroke-width="0.138883" points="2216.78,-139.382 2218.1,-128.869 2210.51,-136.265 2216.78,-139.382"/>
</g>
<!-- 12&#45;&gt;up -->
<g id="edge4" class="edge"><title>12&#45;&gt;up</title>
<path fill="none" stroke="red" stroke-width="0.461736" d="M1272.37,-104.903C1251.86,-100.752 1217.14,-93.826 1187.21,-88.3259 1064.98,-65.8653 918.708,-41.6314 858.362,-31.7486"/>
<polygon fill="red" stroke="red" stroke-width="0.461736" points="858.879,-28.2867 848.445,-30.1271 857.75,-35.195 858.879,-28.2867"/>
</g>
<!-- 12&#45;&gt;down -->
<g id="edge23" class="edge"><title>12&#45;&gt;down</title>
<path fill="none" stroke="green" stroke-width="0.296519" d="M1305.17,-98.5608C1324.21,-85.8603 1357.56,-63.6159 1381.99,-47.3225"/>
<polygon fill="green" stroke="green" stroke-width="0.296519" points="1384.17,-50.0784 1390.54,-41.6176 1380.28,-44.255 1384.17,-50.0784"/>
</g>
<!-- 239&#45;&gt;down -->
<g id="edge27" class="edge"><title>239&#45;&gt;down</title>
<path fill="none" stroke="green" stroke-width="0.152477" d="M1922.06,-96.8093C1916.58,-93.5673 1910.33,-90.3793 1904.21,-88.3259 1740.82,-33.5078 1532.05,-27.0243 1448.83,-26.8014"/>
<polygon fill="green" stroke="green" stroke-width="0.152477" points="1448.63,-23.3013 1438.63,-26.8046 1448.63,-30.3013 1448.63,-23.3013"/>
</g>
<!-- 178&#45;&gt;left -->
<g id="edge32" class="edge"><title>178&#45;&gt;left</title>
<path fill="none" stroke="green" stroke-width="0.142502" d="M1573.71,-166.774C1570.92,-144.272 1562.96,-108.417 1540.21,-88.3259 1484.61,-39.2056 1449.11,-70.6419 1377.21,-52.3259 1357.66,-47.3433 1335.84,-41.0312 1318.94,-35.9755"/>
<polygon fill="green" stroke="green" stroke-width="0.142502" points="1319.71,-32.5509 1309.13,-33.013 1317.69,-39.2525 1319.71,-32.5509"/>
</g>
<!-- 178&#45;&gt;223 -->
<g id="edge79" class="edge"><title>178&#45;&gt;223</title>
<path fill="none" stroke="green" stroke-width="0.164433" d="M1589.87,-172.23C1601.12,-160.917 1616.82,-145.121 1629.53,-132.346"/>
<polygon fill="green" stroke="green" stroke-width="0.164433" points="1632.04,-134.788 1636.6,-125.23 1627.07,-129.853 1632.04,-134.788"/>
</g>
<!-- 116&#45;&gt;select -->
<g id="edge42" class="edge"><title>116&#45;&gt;select</title>
<path fill="none" stroke="red" stroke-width="0.653805" d="M22.5469,-166.577C25.1808,-143.895 33.0033,-107.875 56.2132,-88.3259 104.412,-47.7297 296.345,-33.1784 376.624,-28.7987"/>
<polygon fill="red" stroke="red" stroke-width="0.653805" points="376.936,-32.2873 386.739,-28.2689 376.57,-25.2969 376.936,-32.2873"/>
</g>
<!-- 20&#45;&gt;select -->
<g id="edge20" class="edge"><title>20&#45;&gt;select</title>
<path fill="none" stroke="green" stroke-width="0.195599" d="M374.865,-93.2329C380.506,-83.2536 388.065,-69.8828 394.906,-57.7804"/>
<polygon fill="green" stroke="green" stroke-width="0.195599" points="398.08,-59.2778 399.954,-48.85 391.986,-55.8331 398.08,-59.2778"/>
</g>
<!-- 184&#45;&gt;attack -->
<g id="edge44" class="edge"><title>184&#45;&gt;attack</title>
<path fill="none" stroke="red" stroke-width="0.166716" d="M2210.02,-96.919C2204.54,-93.6815 2198.3,-90.4684 2192.21,-88.3259 2064.88,-43.5274 1903.14,-31.5071 1831.82,-28.3085"/>
<polygon fill="red" stroke="red" stroke-width="0.166716" points="1831.7,-24.8008 1821.56,-27.8825 1831.41,-31.7948 1831.7,-24.8008"/>
</g>
<!-- 223&#45;&gt;attack -->
<g id="edge85" class="edge"><title>223&#45;&gt;attack</title>
<path fill="none" stroke="green" stroke-width="0.259842" d="M1669.45,-98.2328C1693.22,-84.803 1735.14,-61.1135 1764,-44.8007"/>
<polygon fill="green" stroke="green" stroke-width="0.259842" points="1765.89,-47.7529 1772.88,-39.7859 1762.45,-41.6587 1765.89,-47.7529"/>
</g>
<!-- 223&#45;&gt;left -->
<g id="edge11" class="edge"><title>223&#45;&gt;left</title>
<path fill="none" stroke="green" stroke-width="0.345" d="M1631.2,-102.457C1616.6,-98.153 1596.29,-92.4388 1578.21,-88.3259 1489.72,-68.1951 1465.59,-72.9617 1377.21,-52.3259 1357.56,-47.7369 1335.74,-41.4236 1318.87,-36.269"/>
<polygon fill="green" stroke="green" stroke-width="0.345" points="1319.66,-32.8487 1309.07,-33.2349 1317.59,-39.5356 1319.66,-32.8487"/>
</g>
</g>
</svg>
