<?xml version="1.0" encoding="UTF-8" standalone="no"?>
<!DOCTYPE svg PUBLIC "-//W3C//DTD SVG 1.1//EN"
 "http://www.w3.org/Graphics/SVG/1.1/DTD/svg11.dtd">
<!-- Generated by graphviz version 2.38.0 (20140413.2041)
 -->
<!-- Title: %3 Pages: 1 -->
<svg width="1317pt" height="360pt"
 viewBox="0.00 0.00 1317.17 359.50" xmlns="http://www.w3.org/2000/svg" xmlns:xlink="http://www.w3.org/1999/xlink">
<g id="graph0" class="graph" transform="scale(1 1) rotate(0) translate(4 355.505)">
<title>%3</title>
<polygon fill="white" stroke="none" points="-4,4 -4,-355.505 1313.17,-355.505 1313.17,4 -4,4"/>
<!-- enemy_hp -->
<g id="node1" class="node"><title>enemy_hp</title>
<polygon fill="lightgray" stroke="black" points="1147.51,-285.291 1094.51,-285.291 1094.51,-267.291 1147.51,-267.291 1147.51,-285.291"/>
<text text-anchor="middle" x="1121.01" y="-274.091" font-family="Times,serif" font-size="9.00">enemy_hp</text>
</g>
<!-- attack -->
<g id="node12" class="node"><title>attack</title>
<ellipse fill="lightblue" stroke="black" cx="548.005" cy="-26.163" rx="26.3269" ry="26.3269"/>
<text text-anchor="middle" x="548.005" y="-23.963" font-family="Times,serif" font-size="9.00">attack</text>
</g>
<!-- enemy_hp&#45;&gt;attack -->
<g id="edge22" class="edge"><title>enemy_hp&#45;&gt;attack</title>
<path fill="none" stroke="red" stroke-width="0.165105" stroke-dasharray="1,5" d="M1111.58,-266.952C1099.22,-256.012 1076.92,-236.193 1058.01,-219.078 1032.51,-196.002 1030.64,-184.203 1001.01,-166.752 957.407,-141.078 940.722,-147.579 893.005,-130.752 842.02,-112.774 830.53,-104.692 779.005,-88.3259 710.593,-66.5957 629.136,-46.2999 583.517,-35.4259"/>
<polygon fill="red" stroke="red" stroke-width="0.165105" points="584.07,-31.96 573.532,-33.06 582.456,-38.7714 584.07,-31.96"/>
</g>
<!-- up -->
<g id="node13" class="node"><title>up</title>
<ellipse fill="lightblue" stroke="black" cx="884.005" cy="-192.915" rx="18.2703" ry="18.2703"/>
<text text-anchor="middle" x="884.005" y="-190.715" font-family="Times,serif" font-size="9.00">up</text>
</g>
<!-- enemy_hp&#45;&gt;up -->
<g id="edge25" class="edge"><title>enemy_hp&#45;&gt;up</title>
<path fill="none" stroke="red" stroke-width="0.150086" d="M1108.02,-267.098C1101.32,-263.108 1092.92,-258.455 1085.01,-255.078 1025.24,-229.562 951.305,-209.937 911.874,-200.363"/>
<polygon fill="red" stroke="red" stroke-width="0.150086" points="912.475,-196.908 901.935,-197.986 910.847,-203.716 912.475,-196.908"/>
</g>
<!-- down -->
<g id="node14" class="node"><title>down</title>
<ellipse fill="lightblue" stroke="black" cx="564.005" cy="-192.915" rx="26.3269" ry="26.3269"/>
<text text-anchor="middle" x="564.005" y="-190.715" font-family="Times,serif" font-size="9.00">down</text>
</g>
<!-- enemy_hp&#45;&gt;down -->
<g id="edge2" class="edge"><title>enemy_hp&#45;&gt;down</title>
<path fill="none" stroke="red" stroke-width="0.102558" d="M1109.57,-267.245C1102.76,-262.878 1093.76,-257.825 1085.01,-255.078 926.518,-205.349 877.668,-240.922 713.005,-219.078 674.155,-213.924 629.908,-206.217 599.793,-200.691"/>
<polygon fill="red" stroke="red" stroke-width="0.102558" points="600.232,-197.213 589.762,-198.835 598.958,-204.096 600.232,-197.213"/>
</g>
<!-- left -->
<g id="node15" class="node"><title>left</title>
<ellipse fill="lightblue" stroke="black" cx="424.005" cy="-192.915" rx="19.6" ry="19.6"/>
<text text-anchor="middle" x="424.005" y="-190.715" font-family="Times,serif" font-size="9.00">left</text>
</g>
<!-- enemy_hp&#45;&gt;left -->
<g id="edge65" class="edge"><title>enemy_hp&#45;&gt;left</title>
<path fill="none" stroke="red" stroke-width="0.64687" d="M1109.6,-267.14C1102.8,-262.739 1093.8,-257.685 1085.01,-255.078 847.585,-184.711 773.855,-256.067 529.005,-219.078 502.843,-215.126 473.609,-207.882 452.645,-202.178"/>
<polygon fill="red" stroke="red" stroke-width="0.64687" points="453.354,-198.743 442.782,-199.442 451.483,-205.488 453.354,-198.743"/>
</g>
<!-- right -->
<g id="node16" class="node"><title>right</title>
<ellipse fill="lightblue" stroke="black" cx="874.005" cy="-26.163" rx="23.1702" ry="23.1702"/>
<text text-anchor="middle" x="874.005" y="-23.963" font-family="Times,serif" font-size="9.00">right</text>
</g>
<!-- enemy_hp&#45;&gt;right -->
<g id="edge75" class="edge"><title>enemy_hp&#45;&gt;right</title>
<path fill="none" stroke="red" stroke-width="0.269154" d="M1117.31,-267.157C1108.57,-248.38 1085.3,-201.002 1058.01,-166.752 1026.18,-126.807 1014.67,-119.237 974.005,-88.3259 951.386,-71.1302 923.695,-54.4986 903.192,-42.9305"/>
<polygon fill="red" stroke="red" stroke-width="0.269154" points="904.761,-39.798 894.322,-37.9879 901.353,-45.9128 904.761,-39.798"/>
</g>
<!-- select -->
<g id="node17" class="node"><title>select</title>
<ellipse fill="lightblue" stroke="black" cx="747.005" cy="-192.915" rx="25.4118" ry="25.4118"/>
<text text-anchor="middle" x="747.005" y="-190.715" font-family="Times,serif" font-size="9.00">select</text>
</g>
<!-- enemy_hp&#45;&gt;select -->
<g id="edge63" class="edge"><title>enemy_hp&#45;&gt;select</title>
<path fill="none" stroke="red" stroke-width="0.1868" d="M1109.18,-267.239C1102.39,-262.983 1093.54,-258.04 1085.01,-255.078 988.089,-221.437 957.733,-238.528 857.005,-219.078 831.714,-214.195 803.385,-207.69 781.81,-202.517"/>
<polygon fill="red" stroke="red" stroke-width="0.1868" points="782.347,-199.046 771.804,-200.098 780.702,-205.85 782.347,-199.046"/>
</g>
<!-- 466 -->
<g id="node22" class="node"><title>466</title>
<ellipse fill="white" stroke="black" cx="749.005" cy="-109.539" rx="21.4286" ry="21.4286"/>
<text text-anchor="middle" x="749.005" y="-107.339" font-family="Times,serif" font-size="9.00">466</text>
</g>
<!-- enemy_hp&#45;&gt;466 -->
<g id="edge78" class="edge"><title>enemy_hp&#45;&gt;466</title>
<path fill="none" stroke="green" stroke-width="0.139269" d="M1108.08,-267.286C1068.03,-242.498 948.451,-168.558 944.005,-166.752 876.471,-139.331 851.895,-157.281 784.005,-130.752 781.093,-129.614 778.134,-128.26 775.232,-126.799"/>
<polygon fill="green" stroke="green" stroke-width="0.139269" points="776.743,-123.636 766.29,-121.904 773.382,-129.776 776.743,-123.636"/>
</g>
<!-- player_hp_1 -->
<g id="node2" class="node"><title>player_hp_1</title>
<polygon fill="lightgray" stroke="black" points="149.505,-285.291 88.5051,-285.291 88.5051,-267.291 149.505,-267.291 149.505,-285.291"/>
<text text-anchor="middle" x="119.005" y="-274.091" font-family="Times,serif" font-size="9.00">player_hp_1</text>
</g>
<!-- player_hp_1&#45;&gt;attack -->
<g id="edge4" class="edge"><title>player_hp_1&#45;&gt;attack</title>
<path fill="none" stroke="green" stroke-width="0.235503" stroke-dasharray="1,5" d="M117.865,-267.044C114.326,-237.752 106.695,-137.844 159.005,-88.3259 209.465,-40.5589 425.05,-30.0865 511.717,-27.799"/>
<polygon fill="green" stroke="green" stroke-width="0.235503" points="511.955,-31.2944 521.867,-27.5534 511.785,-24.2964 511.955,-31.2944"/>
</g>
<!-- player_hp_1&#45;&gt;up -->
<g id="edge49" class="edge"><title>player_hp_1&#45;&gt;up</title>
<path fill="none" stroke="green" stroke-width="0.299363" d="M131.792,-267.126C139.388,-262.719 149.388,-257.666 159.005,-255.078 426.401,-183.126 507.154,-260.106 781.005,-219.078 807.169,-215.158 836.418,-207.709 857.043,-201.929"/>
<polygon fill="green" stroke="green" stroke-width="0.299363" points="858.049,-205.281 866.702,-199.167 856.125,-198.551 858.049,-205.281"/>
</g>
<!-- player_hp_1&#45;&gt;down -->
<g id="edge48" class="edge"><title>player_hp_1&#45;&gt;down</title>
<path fill="none" stroke="green" stroke-width="0.125963" d="M132.217,-267.152C139.788,-262.868 149.624,-257.927 159.005,-255.078 284.966,-216.821 323.314,-241.659 453.005,-219.078 478.549,-214.631 507.07,-208.131 528.805,-202.852"/>
<polygon fill="green" stroke="green" stroke-width="0.125963" points="529.707,-206.235 538.582,-200.449 528.036,-199.437 529.707,-206.235"/>
</g>
<!-- player_hp_1&#45;&gt;left -->
<g id="edge24" class="edge"><title>player_hp_1&#45;&gt;left</title>
<path fill="none" stroke="red" stroke-width="0.369578" d="M133.074,-267.131C140.577,-263.052 150.08,-258.31 159.005,-255.078 241.728,-225.129 344.418,-206.375 394.186,-198.385"/>
<polygon fill="red" stroke="red" stroke-width="0.369578" points="394.923,-201.812 404.257,-196.8 393.835,-194.897 394.923,-201.812"/>
</g>
<!-- player_hp_1&#45;&gt;right -->
<g id="edge10" class="edge"><title>player_hp_1&#45;&gt;right</title>
<path fill="none" stroke="green" stroke-width="0.833431" d="M121.194,-267.06C129.681,-236.95 163.501,-132.265 234.005,-88.3259 240.527,-84.2615 709.798,-41.8961 840.53,-30.1614"/>
<polygon fill="green" stroke="green" stroke-width="0.833431" points="841.088,-33.6255 850.735,-29.2458 840.462,-26.6535 841.088,-33.6255"/>
</g>
<!-- player_hp_1&#45;&gt;select -->
<g id="edge16" class="edge"><title>player_hp_1&#45;&gt;select</title>
<path fill="none" stroke="red" stroke-width="0.23305" d="M131.816,-267.211C139.419,-262.834 149.419,-257.78 159.005,-255.078 347.854,-201.842 404.328,-243.545 599.005,-219.078 637.983,-214.18 682.368,-206.326 712.281,-200.696"/>
<polygon fill="red" stroke="red" stroke-width="0.23305" points="713.055,-204.111 722.226,-198.805 711.748,-197.235 713.055,-204.111"/>
</g>
<!-- 69 -->
<g id="node19" class="node"><title>69</title>
<ellipse fill="white" stroke="black" cx="261.005" cy="-109.539" rx="18.2703" ry="18.2703"/>
<text text-anchor="middle" x="261.005" y="-107.339" font-family="Times,serif" font-size="9.00">69</text>
</g>
<!-- player_hp_1&#45;&gt;69 -->
<g id="edge57" class="edge"><title>player_hp_1&#45;&gt;69</title>
<path fill="none" stroke="red" stroke-width="0.136901" d="M130.681,-267.217C144.947,-257.013 169.359,-238.434 187.005,-219.078 211.177,-192.563 233.587,-157.645 247.272,-134.667"/>
<polygon fill="red" stroke="red" stroke-width="0.136901" points="250.372,-136.299 252.413,-125.902 244.334,-132.757 250.372,-136.299"/>
</g>
<!-- player_hp_2 -->
<g id="node3" class="node"><title>player_hp_2</title>
<polygon fill="lightgray" stroke="black" points="497.505,-285.291 436.505,-285.291 436.505,-267.291 497.505,-267.291 497.505,-285.291"/>
<text text-anchor="middle" x="467.005" y="-274.091" font-family="Times,serif" font-size="9.00">player_hp_2</text>
</g>
<!-- player_hp_2&#45;&gt;attack -->
<g id="edge69" class="edge"><title>player_hp_2&#45;&gt;attack</title>
<path fill="none" stroke="green" stroke-width="0.239885" d="M468.992,-267.066C473.434,-248.87 484.671,-203.875 496.005,-166.752 506.77,-131.495 510.026,-122.829 523.005,-88.3259 526.475,-79.1006 530.432,-69.178 534.158,-60.0653"/>
<polygon fill="green" stroke="green" stroke-width="0.239885" points="537.499,-61.1454 538.077,-50.5664 531.028,-58.4759 537.499,-61.1454"/>
</g>
<!-- player_hp_2&#45;&gt;up -->
<g id="edge52" class="edge"><title>player_hp_2&#45;&gt;up</title>
<path fill="none" stroke="green" stroke-width="0.465967" d="M497.728,-269.904C571.282,-256.99 753.44,-224.907 781.005,-219.078 806.734,-213.638 835.824,-206.433 856.511,-201.127"/>
<polygon fill="green" stroke="green" stroke-width="0.465967" points="857.413,-204.509 866.219,-198.619 855.662,-197.732 857.413,-204.509"/>
</g>
<!-- player_hp_2&#45;&gt;down -->
<g id="edge37" class="edge"><title>player_hp_2&#45;&gt;down</title>
<path fill="none" stroke="red" stroke-width="0.653355" d="M476.66,-267.191C490.475,-255.602 516.423,-233.833 536.462,-217.022"/>
<polygon fill="red" stroke="red" stroke-width="0.653355" points="538.949,-219.504 544.361,-210.395 534.45,-214.141 538.949,-219.504"/>
</g>
<!-- player_hp_2&#45;&gt;left -->
<g id="edge17" class="edge"><title>player_hp_2&#45;&gt;left</title>
<path fill="none" stroke="green" stroke-width="0.250881" d="M462.725,-267.191C456.936,-256.236 446.34,-236.184 437.694,-219.822"/>
<polygon fill="green" stroke="green" stroke-width="0.250881" points="440.647,-217.918 432.881,-210.712 434.458,-221.188 440.647,-217.918"/>
</g>
<!-- player_hp_2&#45;&gt;right -->
<g id="edge19" class="edge"><title>player_hp_2&#45;&gt;right</title>
<path fill="none" stroke="red" stroke-width="0.5778" d="M471.257,-267.081C483.771,-243.034 520.143,-173.998 529.005,-166.752 568.502,-134.459 591.029,-150.655 638.005,-130.752 675.425,-114.899 682.051,-105.236 719.005,-88.3259 761.019,-69.0998 810.94,-50.0568 842.549,-38.4519"/>
<polygon fill="red" stroke="red" stroke-width="0.5778" points="843.94,-41.6701 852.135,-34.9546 841.541,-35.094 843.94,-41.6701"/>
</g>
<!-- player_hp_2&#45;&gt;select -->
<g id="edge47" class="edge"><title>player_hp_2&#45;&gt;select</title>
<path fill="none" stroke="green" stroke-width="0.397765" d="M494.619,-267.266C546.183,-252.28 656.949,-220.088 713.012,-203.795"/>
<polygon fill="green" stroke="green" stroke-width="0.397765" points="714.191,-207.097 722.817,-200.945 712.237,-200.375 714.191,-207.097"/>
</g>
<!-- enemy_x -->
<g id="node4" class="node"><title>enemy_x</title>
<polygon fill="lightgray" stroke="black" points="865.505,-285.291 816.505,-285.291 816.505,-267.291 865.505,-267.291 865.505,-285.291"/>
<text text-anchor="middle" x="841.005" y="-274.091" font-family="Times,serif" font-size="9.00">enemy_x</text>
</g>
<!-- enemy_x&#45;&gt;attack -->
<g id="edge58" class="edge"><title>enemy_x&#45;&gt;attack</title>
<path fill="none" stroke="red" stroke-width="0.347658" d="M838.693,-267.236C832.591,-247.361 814.2,-195.517 781.005,-166.752 746.882,-137.183 725.563,-152.521 686.005,-130.752 644.619,-107.978 601.858,-73.9565 575.119,-51.1848"/>
<polygon fill="red" stroke="red" stroke-width="0.347658" points="577.218,-48.373 567.355,-44.5038 572.652,-53.6792 577.218,-48.373"/>
</g>
<!-- enemy_x&#45;&gt;up -->
<g id="edge72" class="edge"><title>enemy_x&#45;&gt;up</title>
<path fill="none" stroke="green" stroke-width="0.231105" d="M845.285,-267.191C851.216,-255.967 862.193,-235.194 870.949,-218.624"/>
<polygon fill="green" stroke="green" stroke-width="0.231105" points="874.215,-219.935 875.792,-209.458 868.026,-216.664 874.215,-219.935"/>
</g>
<!-- enemy_x&#45;&gt;down -->
<g id="edge13" class="edge"><title>enemy_x&#45;&gt;down</title>
<path fill="none" stroke="red" stroke-width="0.372672" d="M816.423,-268.07C766.96,-253.539 655.299,-220.735 598.536,-204.06"/>
<polygon fill="red" stroke="red" stroke-width="0.372672" points="599.511,-200.698 588.93,-201.238 597.538,-207.414 599.511,-200.698"/>
</g>
<!-- enemy_x&#45;&gt;left -->
<g id="edge30" class="edge"><title>enemy_x&#45;&gt;left</title>
<path fill="none" stroke="red" stroke-width="0.276668" d="M816.11,-270.677C793.82,-266.556 760.238,-260.369 731.005,-255.078 641.271,-238.838 618.273,-237.712 529.005,-219.078 503.261,-213.704 474.198,-206.663 453.186,-201.396"/>
<polygon fill="red" stroke="red" stroke-width="0.276668" points="453.833,-197.95 443.281,-198.895 452.12,-204.737 453.833,-197.95"/>
</g>
<!-- enemy_x&#45;&gt;right -->
<g id="edge64" class="edge"><title>enemy_x&#45;&gt;right</title>
<path fill="none" stroke="green" stroke-width="0.478571" d="M842.103,-267.036C846.378,-234.896 862.048,-117.067 869.718,-59.3945"/>
<polygon fill="green" stroke="green" stroke-width="0.478571" points="873.204,-59.7342 871.053,-49.3601 866.265,-58.8113 873.204,-59.7342"/>
</g>
<!-- enemy_x&#45;&gt;select -->
<g id="edge1" class="edge"><title>enemy_x&#45;&gt;select</title>
<path fill="none" stroke="green" stroke-width="0.238681" stroke-dasharray="1,5" d="M831.648,-267.191C818.261,-255.602 793.115,-233.833 773.696,-217.022"/>
<polygon fill="green" stroke="green" stroke-width="0.238681" points="775.893,-214.294 766.042,-210.395 771.311,-219.587 775.893,-214.294"/>
</g>
<!-- enemy_y -->
<g id="node5" class="node"><title>enemy_y</title>
<polygon fill="lightgray" stroke="black" points="383.505,-351.505 334.505,-351.505 334.505,-333.505 383.505,-333.505 383.505,-351.505"/>
<text text-anchor="middle" x="359.005" y="-340.305" font-family="Times,serif" font-size="9.00">enemy_y</text>
</g>
<!-- enemy_y&#45;&gt;attack -->
<g id="edge41" class="edge"><title>enemy_y&#45;&gt;attack</title>
<path fill="none" stroke="green" stroke-width="0.514575" d="M334.069,-341.987C266.674,-342.703 83.4454,-340.576 46.0051,-297.505 -14.9864,-227.34 -15.63,-157.926 46.0051,-88.3259 76.8816,-53.4592 401.44,-34.3727 511.636,-28.8606"/>
<polygon fill="green" stroke="green" stroke-width="0.514575" points="512.096,-32.3423 521.912,-28.355 511.752,-25.3507 512.096,-32.3423"/>
</g>
<!-- enemy_y&#45;&gt;up -->
<g id="edge26" class="edge"><title>enemy_y&#45;&gt;up</title>
<path fill="none" stroke="green" stroke-width="0.300824" d="M383.588,-341.592C490.328,-341.717 910.005,-339.522 949.005,-297.505 974.268,-270.287 934.669,-231.906 907.045,-210.32"/>
<polygon fill="green" stroke="green" stroke-width="0.300824" points="909.029,-207.432 898.942,-204.192 904.806,-213.015 909.029,-207.432"/>
</g>
<!-- enemy_y&#45;&gt;down -->
<g id="edge76" class="edge"><title>enemy_y&#45;&gt;down</title>
<path fill="none" stroke="red" stroke-width="0.864659" d="M383.728,-339.747C415.239,-336.345 469.939,-326.409 506.005,-297.505 528.422,-279.54 543.621,-250.431 552.818,-227.638"/>
<polygon fill="red" stroke="red" stroke-width="0.864659" points="556.204,-228.581 556.51,-217.991 549.667,-226.079 556.204,-228.581"/>
</g>
<!-- enemy_y&#45;&gt;left -->
<g id="edge61" class="edge"><title>enemy_y&#45;&gt;left</title>
<path fill="none" stroke="red" stroke-width="0.23287" stroke-dasharray="1,5" d="M334.282,-336.937C312.876,-331.533 283.188,-320.226 269.005,-297.505 259.02,-281.509 257.732,-270.194 269.005,-255.078 302.549,-210.102 339.809,-244.145 390.005,-219.078 393.67,-217.248 397.352,-215.021 400.869,-212.656"/>
<polygon fill="red" stroke="red" stroke-width="0.23287" points="403.125,-215.344 409.172,-206.644 399.02,-209.675 403.125,-215.344"/>
</g>
<!-- enemy_y&#45;&gt;right -->
<g id="edge34" class="edge"><title>enemy_y&#45;&gt;right</title>
<path fill="none" stroke="green" stroke-width="0.441852" d="M334.452,-341.53C272.396,-341.018 111.865,-335.931 79.0051,-297.505 11.0062,-217.986 97.1062,-141.854 187.005,-88.3259 190.566,-86.2057 702.281,-41.9654 840.133,-30.0803"/>
<polygon fill="green" stroke="green" stroke-width="0.441852" points="840.831,-33.5333 850.493,-29.1873 840.229,-26.5591 840.831,-33.5333"/>
</g>
<!-- enemy_y&#45;&gt;select -->
<g id="edge8" class="edge"><title>enemy_y&#45;&gt;select</title>
<path fill="none" stroke="red" stroke-width="0.54615" d="M383.737,-340.291C462.84,-336.179 705.97,-321.666 731.005,-297.505 749.173,-279.971 752.347,-251.013 751.444,-228.166"/>
<polygon fill="red" stroke="red" stroke-width="0.54615" points="754.935,-227.908 750.781,-218.162 747.95,-228.371 754.935,-227.908"/>
</g>
<!-- 354 -->
<g id="node18" class="node"><title>354</title>
<ellipse fill="white" stroke="black" cx="359.005" cy="-276.291" rx="21.4286" ry="21.4286"/>
<text text-anchor="middle" x="359.005" y="-274.091" font-family="Times,serif" font-size="9.00">354</text>
</g>
<!-- enemy_y&#45;&gt;354 -->
<g id="edge20" class="edge"><title>enemy_y&#45;&gt;354</title>
<path fill="none" stroke="green" stroke-width="0.407744" d="M359.005,-333.372C359.005,-326.829 359.005,-317.2 359.005,-307.761"/>
<polygon fill="green" stroke="green" stroke-width="0.407744" points="362.505,-307.747 359.005,-297.747 355.505,-307.747 362.505,-307.747"/>
</g>
<!-- player_x_1 -->
<g id="node6" class="node"><title>player_x_1</title>
<polygon fill="lightgray" stroke="black" points="1222.01,-285.291 1166.01,-285.291 1166.01,-267.291 1222.01,-267.291 1222.01,-285.291"/>
<text text-anchor="middle" x="1194.01" y="-274.091" font-family="Times,serif" font-size="9.00">player_x_1</text>
</g>
<!-- player_x_1&#45;&gt;attack -->
<g id="edge28" class="edge"><title>player_x_1&#45;&gt;attack</title>
<path fill="none" stroke="red" stroke-width="0.300912" stroke-dasharray="1,5" d="M1189.25,-267.24C1177.46,-247.814 1145.03,-197.695 1107.01,-166.752 1047.43,-118.272 1026.14,-111.791 953.005,-88.3259 821.621,-46.1734 656.729,-32.7824 584.606,-28.7695"/>
<polygon fill="red" stroke="red" stroke-width="0.300912" points="584.42,-25.2549 574.25,-28.223 584.051,-32.2452 584.42,-25.2549"/>
</g>
<!-- player_x_1&#45;&gt;up -->
<g id="edge45" class="edge"><title>player_x_1&#45;&gt;up</title>
<path fill="none" stroke="red" stroke-width="0.404296" d="M1181.04,-267.28C1173.88,-263.142 1164.69,-258.299 1156.01,-255.078 1070.18,-223.258 962.712,-205.072 912.422,-197.742"/>
<polygon fill="red" stroke="red" stroke-width="0.404296" points="912.7,-194.246 902.307,-196.303 911.714,-201.177 912.7,-194.246"/>
</g>
<!-- player_x_1&#45;&gt;left -->
<g id="edge9" class="edge"><title>player_x_1&#45;&gt;left</title>
<path fill="none" stroke="red" stroke-width="0.750046" d="M1181.91,-267.12C1174.72,-262.711 1165.22,-257.658 1156.01,-255.078 887.225,-179.791 805.15,-259.764 529.005,-219.078 502.828,-215.221 473.596,-207.968 452.636,-202.236"/>
<polygon fill="red" stroke="red" stroke-width="0.750046" points="453.349,-198.801 442.776,-199.484 451.467,-205.543 453.349,-198.801"/>
</g>
<!-- player_x_1&#45;&gt;right -->
<g id="edge35" class="edge"><title>player_x_1&#45;&gt;right</title>
<path fill="none" stroke="green" stroke-width="0.114484" stroke-dasharray="1,5" d="M1195.97,-267.233C1202.43,-238.582 1219.97,-140.568 1172.01,-88.3259 1136.67,-49.8414 977.967,-34.3103 907.684,-29.24"/>
<polygon fill="green" stroke="green" stroke-width="0.114484" points="907.806,-25.7401 897.588,-28.5401 907.322,-32.7233 907.806,-25.7401"/>
</g>
<!-- player_x_1&#45;&gt;select -->
<g id="edge68" class="edge"><title>player_x_1&#45;&gt;select</title>
<path fill="none" stroke="green" stroke-width="0.115331" d="M1181.51,-267.131C1174.33,-262.84 1164.99,-257.9 1156.01,-255.078 1028.31,-214.968 988.871,-242.034 857.005,-219.078 831.628,-214.661 803.302,-208.143 781.749,-202.848"/>
<polygon fill="green" stroke="green" stroke-width="0.115331" points="782.305,-199.379 771.756,-200.361 780.615,-206.172 782.305,-199.379"/>
</g>
<!-- 280 -->
<g id="node23" class="node"><title>280</title>
<ellipse fill="white" stroke="black" cx="923.005" cy="-109.539" rx="21.4286" ry="21.4286"/>
<text text-anchor="middle" x="923.005" y="-107.339" font-family="Times,serif" font-size="9.00">280</text>
</g>
<!-- player_x_1&#45;&gt;280 -->
<g id="edge62" class="edge"><title>player_x_1&#45;&gt;280</title>
<path fill="none" stroke="green" stroke-width="0.454547" d="M1185.72,-267.275C1165.38,-247.927 1110.79,-197.968 1058.01,-166.752 1023.75,-146.495 980.831,-129.969 952.7,-120.201"/>
<polygon fill="green" stroke="green" stroke-width="0.454547" points="953.643,-116.825 943.048,-116.913 951.386,-123.451 953.643,-116.825"/>
</g>
<!-- player_y_1 -->
<g id="node7" class="node"><title>player_y_1</title>
<polygon fill="lightgray" stroke="black" points="940.005,-285.291 884.005,-285.291 884.005,-267.291 940.005,-267.291 940.005,-285.291"/>
<text text-anchor="middle" x="912.005" y="-274.091" font-family="Times,serif" font-size="9.00">player_y_1</text>
</g>
<!-- player_y_1&#45;&gt;attack -->
<g id="edge14" class="edge"><title>player_y_1&#45;&gt;attack</title>
<path fill="none" stroke="green" stroke-width="0.341921" d="M915.053,-267.032C921.806,-247.144 935.571,-196.076 911.005,-166.752 855.251,-100.199 797.57,-167.702 719.005,-130.752 692.324,-118.204 692.625,-104.549 668.005,-88.3259 640.08,-69.9255 605.905,-52.9954 581.178,-41.6355"/>
<polygon fill="green" stroke="green" stroke-width="0.341921" points="582.42,-38.3558 571.867,-37.4156 579.53,-44.7315 582.42,-38.3558"/>
</g>
<!-- player_y_1&#45;&gt;up -->
<g id="edge73" class="edge"><title>player_y_1&#45;&gt;up</title>
<path fill="none" stroke="green" stroke-width="0.193284" d="M909.218,-267.191C905.484,-256.338 898.678,-236.558 893.077,-220.282"/>
<polygon fill="green" stroke="green" stroke-width="0.193284" points="896.348,-219.029 889.784,-210.712 889.729,-221.306 896.348,-219.029"/>
</g>
<!-- player_y_1&#45;&gt;down -->
<g id="edge59" class="edge"><title>player_y_1&#45;&gt;down</title>
<path fill="none" stroke="green" stroke-width="0.446447" stroke-dasharray="1,5" d="M899.078,-267.189C891.923,-263.024 882.735,-258.184 874.005,-255.078 848.337,-245.946 675.831,-214.156 599.836,-200.372"/>
<polygon fill="green" stroke="green" stroke-width="0.446447" points="600.243,-196.889 589.779,-198.551 598.995,-203.777 600.243,-196.889"/>
</g>
<!-- player_y_1&#45;&gt;left -->
<g id="edge38" class="edge"><title>player_y_1&#45;&gt;left</title>
<path fill="none" stroke="green" stroke-width="0.239482" d="M899.866,-267.28C892.653,-262.925 883.153,-257.872 874.005,-255.078 726.563,-210.047 680.959,-245.098 529.005,-219.078 502.925,-214.612 473.683,-207.421 452.695,-201.868"/>
<polygon fill="green" stroke="green" stroke-width="0.239482" points="453.385,-198.429 442.819,-199.215 451.568,-205.189 453.385,-198.429"/>
</g>
<!-- player_y_1&#45;&gt;right -->
<g id="edge5" class="edge"><title>player_y_1&#45;&gt;right</title>
<path fill="none" stroke="green" stroke-width="0.813082" stroke-dasharray="1,5" d="M918.18,-267.049C925.699,-256.527 938.122,-237.475 944.005,-219.078 961.748,-163.597 978.655,-140.624 953.005,-88.3259 942.793,-67.5053 921.701,-51.75 903.878,-41.448"/>
<polygon fill="green" stroke="green" stroke-width="0.813082" points="905.385,-38.2828 894.931,-36.5598 902.028,-44.4258 905.385,-38.2828"/>
</g>
<!-- player_y_1&#45;&gt;select -->
<g id="edge66" class="edge"><title>player_y_1&#45;&gt;select</title>
<path fill="none" stroke="green" stroke-width="0.153912" d="M897.279,-267.282C890.265,-263.512 881.738,-258.995 874.005,-255.078 842.064,-238.9 805.15,-221.236 779.381,-209.069"/>
<polygon fill="green" stroke="green" stroke-width="0.153912" points="780.622,-205.785 770.084,-204.69 777.639,-212.117 780.622,-205.785"/>
</g>
<!-- player_x_2 -->
<g id="node8" class="node"><title>player_x_2</title>
<polygon fill="lightgray" stroke="black" points="722.005,-285.291 666.005,-285.291 666.005,-267.291 722.005,-267.291 722.005,-285.291"/>
<text text-anchor="middle" x="694.005" y="-274.091" font-family="Times,serif" font-size="9.00">player_x_2</text>
</g>
<!-- player_x_2&#45;&gt;attack -->
<g id="edge77" class="edge"><title>player_x_2&#45;&gt;attack</title>
<path fill="none" stroke="green" stroke-width="0.256508" d="M690.077,-267.209C680.537,-248.137 654.594,-199.479 623.005,-166.752 603.737,-146.79 587.485,-153.777 572.005,-130.752 558.462,-110.609 552.5,-83.8306 549.904,-62.5469"/>
<polygon fill="green" stroke="green" stroke-width="0.256508" points="553.385,-62.1829 548.881,-52.593 546.421,-62.8984 553.385,-62.1829"/>
</g>
<!-- player_x_2&#45;&gt;up -->
<g id="edge18" class="edge"><title>player_x_2&#45;&gt;up</title>
<path fill="none" stroke="green" stroke-width="0.232984" d="M712.918,-267.191C747.039,-252.577 818.952,-221.777 857.792,-205.142"/>
<polygon fill="green" stroke="green" stroke-width="0.232984" points="859.548,-208.198 867.362,-201.043 856.792,-201.763 859.548,-208.198"/>
</g>
<!-- player_x_2&#45;&gt;down -->
<g id="edge40" class="edge"><title>player_x_2&#45;&gt;down</title>
<path fill="none" stroke="red" stroke-width="0.301833" d="M681.065,-267.191C661.101,-254.694 622.227,-230.361 594.766,-213.17"/>
<polygon fill="red" stroke="red" stroke-width="0.301833" points="596.267,-209.981 585.934,-207.642 592.553,-215.915 596.267,-209.981"/>
</g>
<!-- player_x_2&#45;&gt;left -->
<g id="edge53" class="edge"><title>player_x_2&#45;&gt;left</title>
<path fill="none" stroke="green" stroke-width="0.40786" stroke-dasharray="1,5" d="M681.026,-267.186C674.096,-263.122 665.304,-258.377 657.005,-255.078 637.934,-247.497 511.133,-215.585 453.013,-201.109"/>
<polygon fill="green" stroke="green" stroke-width="0.40786" points="453.55,-197.637 443.001,-198.619 451.86,-204.43 453.55,-197.637"/>
</g>
<!-- player_x_2&#45;&gt;right -->
<g id="edge70" class="edge"><title>player_x_2&#45;&gt;right</title>
<path fill="none" stroke="red" stroke-width="0.167814" d="M693.178,-267.032C691.672,-247.577 690.478,-198.15 713.005,-166.752 732.484,-139.604 752.691,-151.344 779.005,-130.752 808.144,-107.95 836.093,-75.8185 854.039,-53.4082"/>
<polygon fill="red" stroke="red" stroke-width="0.167814" points="856.962,-55.3536 860.409,-45.335 851.467,-51.0177 856.962,-55.3536"/>
</g>
<!-- player_x_2&#45;&gt;select -->
<g id="edge46" class="edge"><title>player_x_2&#45;&gt;select</title>
<path fill="none" stroke="green" stroke-width="0.492644" d="M699.281,-267.191C705.952,-256.947 717.804,-238.75 728.027,-223.054"/>
<polygon fill="green" stroke="green" stroke-width="0.492644" points="730.971,-224.947 733.496,-214.657 725.106,-221.126 730.971,-224.947"/>
</g>
<!-- player_y_2 -->
<g id="node9" class="node"><title>player_y_2</title>
<polygon fill="lightgray" stroke="black" points="648.005,-285.291 592.005,-285.291 592.005,-267.291 648.005,-267.291 648.005,-285.291"/>
<text text-anchor="middle" x="620.005" y="-274.091" font-family="Times,serif" font-size="9.00">player_y_2</text>
</g>
<!-- player_y_2&#45;&gt;attack -->
<g id="edge55" class="edge"><title>player_y_2&#45;&gt;attack</title>
<path fill="none" stroke="green" stroke-width="0.248477" d="M620.637,-267.028C621.691,-247.566 621.785,-198.124 599.005,-166.752 579.601,-140.031 550.771,-159.204 534.005,-130.752 521.381,-109.33 526.281,-81.1648 533.562,-59.6113"/>
<polygon fill="green" stroke="green" stroke-width="0.248477" points="536.849,-60.8149 537.021,-50.2215 530.28,-58.3953 536.849,-60.8149"/>
</g>
<!-- player_y_2&#45;&gt;up -->
<g id="edge36" class="edge"><title>player_y_2&#45;&gt;up</title>
<path fill="none" stroke="green" stroke-width="0.46684" d="M632.993,-267.208C639.926,-263.15 648.717,-258.404 657.005,-255.078 693.595,-240.396 804.235,-213.042 856.324,-200.503"/>
<polygon fill="green" stroke="green" stroke-width="0.46684" points="857.305,-203.867 866.213,-198.131 855.672,-197.06 857.305,-203.867"/>
</g>
<!-- player_y_2&#45;&gt;down -->
<g id="edge11" class="edge"><title>player_y_2&#45;&gt;down</title>
<path fill="none" stroke="green" stroke-width="0.11932" d="M614.431,-267.191C607.428,-257.015 595.025,-238.991 584.272,-223.366"/>
<polygon fill="green" stroke="green" stroke-width="0.11932" points="587.065,-221.251 578.513,-214.997 581.299,-225.219 587.065,-221.251"/>
</g>
<!-- player_y_2&#45;&gt;left -->
<g id="edge71" class="edge"><title>player_y_2&#45;&gt;left</title>
<path fill="none" stroke="green" stroke-width="0.100992" d="M600.495,-267.191C565.415,-252.626 491.61,-221.984 451.45,-205.31"/>
<polygon fill="green" stroke="green" stroke-width="0.100992" points="452.586,-201.992 442.008,-201.39 449.902,-208.457 452.586,-201.992"/>
</g>
<!-- player_y_2&#45;&gt;select -->
<g id="edge44" class="edge"><title>player_y_2&#45;&gt;select</title>
<path fill="none" stroke="red" stroke-width="0.162616" d="M632.647,-267.191C652.15,-254.694 690.126,-230.361 716.954,-213.17"/>
<polygon fill="red" stroke="red" stroke-width="0.162616" points="719.051,-215.984 725.582,-207.642 715.274,-210.09 719.051,-215.984"/>
</g>
<!-- distance_1 -->
<g id="node10" class="node"><title>distance_1</title>
<polygon fill="lightgray" stroke="black" points="222.005,-285.291 168.005,-285.291 168.005,-267.291 222.005,-267.291 222.005,-285.291"/>
<text text-anchor="middle" x="195.005" y="-274.091" font-family="Times,serif" font-size="9.00">distance_1</text>
</g>
<!-- distance_1&#45;&gt;attack -->
<g id="edge39" class="edge"><title>distance_1&#45;&gt;attack</title>
<path fill="none" stroke="green" stroke-width="0.12756" stroke-dasharray="1,5" d="M206.75,-267.036C255.722,-232.613 444.532,-99.8959 518.265,-48.0678"/>
<polygon fill="green" stroke="green" stroke-width="0.12756" points="520.501,-50.7744 526.669,-42.1604 516.475,-45.0476 520.501,-50.7744"/>
</g>
<!-- distance_1&#45;&gt;up -->
<g id="edge60" class="edge"><title>distance_1&#45;&gt;up</title>
<path fill="none" stroke="red" stroke-width="0.672096" d="M219.737,-267.226C233.988,-262.91 252.331,-257.913 269.005,-255.078 493.895,-216.84 555.619,-254.273 781.005,-219.078 807.144,-214.997 836.397,-207.567 857.029,-201.835"/>
<polygon fill="red" stroke="red" stroke-width="0.672096" points="858.023,-205.191 866.691,-199.1 856.116,-198.456 858.023,-205.191"/>
</g>
<!-- distance_1&#45;&gt;down -->
<g id="edge3" class="edge"><title>distance_1&#45;&gt;down</title>
<path fill="none" stroke="red" stroke-width="0.40975" d="M222.294,-267.322C236.212,-263.39 253.444,-258.721 269.005,-255.078 350.14,-236.087 371.474,-236.291 453.005,-219.078 478.374,-213.722 506.9,-207.246 528.68,-202.205"/>
<polygon fill="red" stroke="red" stroke-width="0.40975" points="529.533,-205.6 538.482,-199.928 527.949,-198.781 529.533,-205.6"/>
</g>
<!-- distance_1&#45;&gt;left -->
<g id="edge23" class="edge"><title>distance_1&#45;&gt;left</title>
<path fill="none" stroke="red" stroke-width="0.185664" d="M209.453,-267.157C217.151,-263.086 226.89,-258.342 236.005,-255.078 302.181,-231.383 326.214,-248.596 390.005,-219.078 393.904,-217.274 397.796,-214.981 401.482,-212.515"/>
<polygon fill="red" stroke="red" stroke-width="0.185664" points="403.583,-215.315 409.61,-206.602 399.465,-209.654 403.583,-215.315"/>
</g>
<!-- distance_1&#45;&gt;right -->
<g id="edge32" class="edge"><title>distance_1&#45;&gt;right</title>
<path fill="none" stroke="red" stroke-width="0.688595" d="M219.46,-267.153C246.859,-257.543 292.132,-240.167 328.005,-219.078 360.577,-199.93 361.626,-184.454 395.005,-166.752 495.264,-113.582 529.03,-120.003 638.005,-88.3259 710.213,-67.3363 795.86,-46.0225 841.517,-34.9435"/>
<polygon fill="red" stroke="red" stroke-width="0.688595" points="842.535,-38.2981 851.433,-32.5458 840.89,-31.4942 842.535,-38.2981"/>
</g>
<!-- distance_1&#45;&gt;select -->
<g id="edge50" class="edge"><title>distance_1&#45;&gt;select</title>
<path fill="none" stroke="green" stroke-width="0.395867" stroke-dasharray="1,5" d="M220.458,-267.269C234.624,-263.076 252.65,-258.184 269.005,-255.078 413.952,-227.555 452.882,-239.452 599.005,-219.078 637.798,-213.669 682.048,-205.939 711.979,-200.478"/>
<polygon fill="green" stroke="green" stroke-width="0.395867" points="712.734,-203.898 721.937,-198.648 711.469,-197.013 712.734,-203.898"/>
</g>
<!-- distance_1&#45;&gt;69 -->
<g id="edge56" class="edge"><title>distance_1&#45;&gt;69</title>
<path fill="none" stroke="green" stroke-width="0.7034" d="M201.686,-267.029C209.906,-256.487 223.781,-237.414 232.005,-219.078 243.857,-192.653 251.716,-160.367 256.228,-137.909"/>
<polygon fill="green" stroke="green" stroke-width="0.7034" points="259.674,-138.522 258.122,-128.041 252.799,-137.202 259.674,-138.522"/>
</g>
<!-- distance_2 -->
<g id="node11" class="node"><title>distance_2</title>
<polygon fill="lightgray" stroke="black" points="1033.01,-351.505 979.005,-351.505 979.005,-333.505 1033.01,-333.505 1033.01,-351.505"/>
<text text-anchor="middle" x="1006.01" y="-340.305" font-family="Times,serif" font-size="9.00">distance_2</text>
</g>
<!-- distance_2&#45;&gt;attack -->
<g id="edge27" class="edge"><title>distance_2&#45;&gt;attack</title>
<path fill="none" stroke="red" stroke-width="0.524454" stroke-dasharray="1,5" d="M1033.2,-340.349C1087.49,-337.412 1206.21,-327.617 1231.01,-297.505 1242.99,-282.948 1238.05,-272.567 1231.01,-255.078 1186.33,-144.215 1132.58,-128.503 1020.01,-88.3259 939.37,-59.5472 679.987,-37.2818 584.088,-29.843"/>
<polygon fill="red" stroke="red" stroke-width="0.524454" points="584.249,-26.3452 574.01,-29.0694 583.713,-33.3246 584.249,-26.3452"/>
</g>
<!-- distance_2&#45;&gt;up -->
<g id="edge7" class="edge"><title>distance_2&#45;&gt;up</title>
<path fill="none" stroke="red" stroke-width="0.243621" stroke-dasharray="1,5" d="M1005.66,-333.265C1004.59,-316.816 1000.18,-279.401 982.005,-255.078 963.806,-230.73 932.804,-213.773 910.538,-203.99"/>
<polygon fill="red" stroke="red" stroke-width="0.243621" points="911.873,-200.754 901.298,-200.118 909.168,-207.211 911.873,-200.754"/>
</g>
<!-- distance_2&#45;&gt;down -->
<g id="edge67" class="edge"><title>distance_2&#45;&gt;down</title>
<path fill="none" stroke="green" stroke-width="0.132971" d="M978.863,-340.542C890.047,-337.142 612.103,-324.423 583.005,-297.505 564.615,-280.492 560.468,-252.016 560.585,-229.221"/>
<polygon fill="green" stroke="green" stroke-width="0.132971" points="564.084,-229.316 560.903,-219.209 557.087,-229.093 564.084,-229.316"/>
</g>
<!-- distance_2&#45;&gt;left -->
<g id="edge51" class="edge"><title>distance_2&#45;&gt;left</title>
<path fill="none" stroke="red" stroke-width="0.750035" d="M978.653,-341.522C869.021,-341.315 465.455,-337.802 427.005,-297.505 408.264,-277.863 410.573,-245.388 415.629,-222.031"/>
<polygon fill="red" stroke="red" stroke-width="0.750035" points="419.101,-222.565 418.079,-212.02 412.302,-220.901 419.101,-222.565"/>
</g>
<!-- distance_2&#45;&gt;right -->
<g id="edge33" class="edge"><title>distance_2&#45;&gt;right</title>
<path fill="none" stroke="green" stroke-width="0.557077" d="M1033.43,-341.094C1093.71,-339.553 1234.7,-332.23 1264.01,-297.505 1323.96,-226.455 1324.44,-158.974 1264.01,-88.3259 1218.13,-34.6973 993.674,-27.7709 907.647,-27.1126"/>
<polygon fill="green" stroke="green" stroke-width="0.557077" points="907.412,-23.6114 897.394,-27.0594 907.375,-30.6113 907.412,-23.6114"/>
</g>
<!-- distance_2&#45;&gt;select -->
<g id="edge15" class="edge"><title>distance_2&#45;&gt;select</title>
<path fill="none" stroke="red" stroke-width="0.420086" d="M978.762,-342.133C937.631,-341.728 858.975,-335.532 807.005,-297.505 783.23,-280.108 767.388,-250.217 757.984,-227.001"/>
<polygon fill="red" stroke="red" stroke-width="0.420086" points="761.194,-225.598 754.343,-217.516 754.659,-228.107 761.194,-225.598"/>
</g>
<!-- 303 -->
<g id="node21" class="node"><title>303</title>
<ellipse fill="white" stroke="black" cx="1055.01" cy="-276.291" rx="21.4286" ry="21.4286"/>
<text text-anchor="middle" x="1055.01" y="-274.091" font-family="Times,serif" font-size="9.00">303</text>
</g>
<!-- distance_2&#45;&gt;303 -->
<g id="edge54" class="edge"><title>distance_2&#45;&gt;303</title>
<path fill="none" stroke="green" stroke-width="0.442029" d="M1012.21,-333.372C1018.24,-325.465 1027.72,-313.053 1036.22,-301.913"/>
<polygon fill="green" stroke="green" stroke-width="0.442029" points="1039.17,-303.811 1042.45,-293.738 1033.61,-299.565 1039.17,-303.811"/>
</g>
<!-- up&#45;&gt;280 -->
<g id="edge43" class="edge"><title>up&#45;&gt;280</title>
<path fill="none" stroke="green" stroke-width="0.168416" d="M891.71,-175.838C896.876,-165.06 903.81,-150.592 909.838,-138.013"/>
<polygon fill="green" stroke="green" stroke-width="0.168416" points="913.061,-139.386 914.227,-128.855 906.749,-136.361 913.061,-139.386"/>
</g>
<!-- left&#45;&gt;69 -->
<g id="edge6" class="edge"><title>left&#45;&gt;69</title>
<path fill="none" stroke="green" stroke-width="0.106456" d="M406.561,-183.207C377.708,-168.802 319.919,-139.951 286.489,-123.262"/>
<polygon fill="green" stroke="green" stroke-width="0.106456" points="287.863,-120.036 277.352,-118.7 284.736,-126.298 287.863,-120.036"/>
</g>
<!-- 354&#45;&gt;left -->
<g id="edge29" class="edge"><title>354&#45;&gt;left</title>
<path fill="none" stroke="red" stroke-width="0.195461" d="M371.847,-259.214C381.529,-247.093 394.939,-230.304 405.737,-216.785"/>
<polygon fill="red" stroke="red" stroke-width="0.195461" points="408.56,-218.859 412.067,-208.862 403.091,-214.491 408.56,-218.859"/>
</g>
<!-- 69&#45;&gt;attack -->
<g id="edge74" class="edge"><title>69&#45;&gt;attack</title>
<path fill="none" stroke="red" stroke-width="0.270846" d="M278.277,-102.531C290.447,-98.3675 307.155,-92.7921 322.005,-88.3259 389.174,-68.1252 468.475,-47.3678 513.035,-35.9824"/>
<polygon fill="red" stroke="red" stroke-width="0.270846" points="513.966,-39.357 522.793,-33.4971 512.239,-32.5735 513.966,-39.357"/>
</g>
<!-- 174 -->
<g id="node20" class="node"><title>174</title>
<ellipse fill="white" stroke="black" cx="299.005" cy="-276.291" rx="21.4286" ry="21.4286"/>
<text text-anchor="middle" x="299.005" y="-274.091" font-family="Times,serif" font-size="9.00">174</text>
</g>
<!-- 174&#45;&gt;left -->
<g id="edge21" class="edge"><title>174&#45;&gt;left</title>
<path fill="none" stroke="green" stroke-width="0.205294" d="M316.023,-263.569C320.233,-260.739 324.756,-257.76 329.005,-255.078 355.626,-238.276 363.762,-236.465 390.005,-219.078 393.42,-216.816 396.961,-214.345 400.411,-211.863"/>
<polygon fill="green" stroke="green" stroke-width="0.205294" points="402.692,-214.53 408.676,-205.786 398.546,-208.89 402.692,-214.53"/>
</g>
<!-- 303&#45;&gt;up -->
<g id="edge31" class="edge"><title>303&#45;&gt;up</title>
<path fill="none" stroke="red" stroke-width="0.675295" d="M1037.03,-264.447C1031.62,-261.309 1025.63,-257.956 1020.01,-255.078 982.652,-235.954 938.076,-216.527 910.401,-204.847"/>
<polygon fill="red" stroke="red" stroke-width="0.675295" points="911.589,-201.551 901.013,-200.91 908.881,-208.006 911.589,-201.551"/>
</g>
<!-- 466&#45;&gt;attack -->
<g id="edge42" class="edge"><title>466&#45;&gt;attack</title>
<path fill="none" stroke="green" stroke-width="0.140487" d="M731.154,-97.4455C725.747,-94.3006 719.723,-91.0065 714.005,-88.3259 669.901,-67.6504 616.734,-49.1184 582.659,-38.0092"/>
<polygon fill="green" stroke="green" stroke-width="0.140487" points="583.32,-34.5449 572.728,-34.8057 581.171,-41.2068 583.32,-34.5449"/>
</g>
<!-- 280&#45;&gt;right -->
<g id="edge12" class="edge"><title>280&#45;&gt;right</title>
<path fill="none" stroke="red" stroke-width="0.83431" d="M912.373,-90.8817C906.093,-80.4517 897.999,-67.0113 890.866,-55.165"/>
<polygon fill="red" stroke="red" stroke-width="0.83431" points="893.801,-53.2545 885.645,-46.4931 887.805,-56.8654 893.801,-53.2545"/>
</g>
</g>
</svg>
