<?xml version="1.0" encoding="UTF-8" standalone="no"?>
<!DOCTYPE svg PUBLIC "-//W3C//DTD SVG 1.1//EN"
 "http://www.w3.org/Graphics/SVG/1.1/DTD/svg11.dtd">
<!-- Generated by graphviz version 2.38.0 (20140413.2041)
 -->
<!-- Title: %3 Pages: 1 -->
<svg width="2104pt" height="508pt"
 viewBox="0.00 0.00 2103.53 507.87" xmlns="http://www.w3.org/2000/svg" xmlns:xlink="http://www.w3.org/1999/xlink">
<g id="graph0" class="graph" transform="scale(1 1) rotate(0) translate(4 503.872)">
<title>%3</title>
<polygon fill="white" stroke="none" points="-4,4 -4,-503.872 2099.53,-503.872 2099.53,4 -4,4"/>
<!-- enemy_hp -->
<g id="node1" class="node"><title>enemy_hp</title>
<polygon fill="lightgray" stroke="black" points="908.029,-355.233 855.029,-355.233 855.029,-337.233 908.029,-337.233 908.029,-355.233"/>
<text text-anchor="middle" x="881.529" y="-344.033" font-family="Times,serif" font-size="9.00">enemy_hp</text>
</g>
<!-- attack -->
<g id="node12" class="node"><title>attack</title>
<ellipse fill="lightblue" stroke="black" cx="729.529" cy="-262.856" rx="26.3269" ry="26.3269"/>
<text text-anchor="middle" x="729.529" y="-260.656" font-family="Times,serif" font-size="9.00">attack</text>
</g>
<!-- enemy_hp&#45;&gt;attack -->
<g id="edge2" class="edge"><title>enemy_hp&#45;&gt;attack</title>
<path fill="none" stroke="green" stroke-width="0.863736" d="M865.284,-337.188C836.47,-322.901 778.578,-294.121 769.529,-289.019 766.433,-287.274 763.24,-285.399 760.071,-283.489"/>
<polygon fill="green" stroke="green" stroke-width="0.863736" points="761.655,-280.353 751.305,-278.086 757.982,-286.312 761.655,-280.353"/>
</g>
<!-- up -->
<g id="node13" class="node"><title>up</title>
<ellipse fill="lightblue" stroke="black" cx="745.529" cy="-19.799" rx="18.2703" ry="18.2703"/>
<text text-anchor="middle" x="745.529" y="-17.599" font-family="Times,serif" font-size="9.00">up</text>
</g>
<!-- enemy_hp&#45;&gt;up -->
<g id="edge58" class="edge"><title>enemy_hp&#45;&gt;up</title>
<path fill="none" stroke="red" stroke-width="0.148652" d="M864.981,-337.109C847.907,-327.852 821.812,-311.1 807.529,-289.019 757.727,-212.028 747.749,-99.7919 745.876,-48.3792"/>
<polygon fill="red" stroke="red" stroke-width="0.148652" points="749.374,-48.2612 745.587,-38.3661 742.377,-48.4627 749.374,-48.2612"/>
</g>
<!-- down -->
<g id="node14" class="node"><title>down</title>
<ellipse fill="lightblue" stroke="black" cx="1421.53" cy="-174.53" rx="26.3269" ry="26.3269"/>
<text text-anchor="middle" x="1421.53" y="-172.33" font-family="Times,serif" font-size="9.00">down</text>
</g>
<!-- enemy_hp&#45;&gt;down -->
<g id="edge50" class="edge"><title>enemy_hp&#45;&gt;down</title>
<path fill="none" stroke="green" stroke-width="0.287759" d="M891.962,-337.139C918.864,-316.711 993.461,-262.837 1064.53,-236.693 1123.29,-215.077 1306.65,-190.082 1385.21,-180.044"/>
<polygon fill="green" stroke="green" stroke-width="0.287759" points="1386.09,-183.46 1395.57,-178.729 1385.21,-176.515 1386.09,-183.46"/>
</g>
<!-- left -->
<g id="node15" class="node"><title>left</title>
<ellipse fill="lightblue" stroke="black" cx="1263.53" cy="-19.799" rx="19.6" ry="19.6"/>
<text text-anchor="middle" x="1263.53" y="-17.599" font-family="Times,serif" font-size="9.00">left</text>
</g>
<!-- enemy_hp&#45;&gt;left -->
<g id="edge40" class="edge"><title>enemy_hp&#45;&gt;left</title>
<path fill="none" stroke="green" stroke-width="0.353368" d="M878.224,-337.035C867.042,-307.837 833.755,-207.504 878.529,-148.368 965.426,-33.5948 1159.08,-20.7791 1233.55,-20.272"/>
<polygon fill="green" stroke="green" stroke-width="0.353368" points="1233.64,-23.772 1243.64,-20.2759 1233.65,-16.772 1233.64,-23.772"/>
</g>
<!-- right -->
<g id="node16" class="node"><title>right</title>
<ellipse fill="lightblue" stroke="black" cx="910.529" cy="-174.53" rx="23.1702" ry="23.1702"/>
<text text-anchor="middle" x="910.529" y="-172.33" font-family="Times,serif" font-size="9.00">right</text>
</g>
<!-- enemy_hp&#45;&gt;right -->
<g id="edge47" class="edge"><title>enemy_hp&#45;&gt;right</title>
<path fill="none" stroke="green" stroke-width="0.456479" d="M880.609,-337.208C878.757,-319.044 875.411,-273.502 883.529,-236.693 885.954,-225.699 890.417,-214.255 895.027,-204.281"/>
<polygon fill="green" stroke="green" stroke-width="0.456479" points="898.202,-205.754 899.429,-195.231 891.907,-202.692 898.202,-205.754"/>
</g>
<!-- select -->
<g id="node17" class="node"><title>select</title>
<ellipse fill="lightblue" stroke="black" cx="1178.53" cy="-262.856" rx="25.4118" ry="25.4118"/>
<text text-anchor="middle" x="1178.53" y="-260.656" font-family="Times,serif" font-size="9.00">select</text>
</g>
<!-- enemy_hp&#45;&gt;select -->
<g id="edge52" class="edge"><title>enemy_hp&#45;&gt;select</title>
<path fill="none" stroke="red" stroke-width="0.150601" d="M908.147,-337.939C962.119,-323.151 1084.38,-289.652 1144.23,-273.254"/>
<polygon fill="red" stroke="red" stroke-width="0.150601" points="1145.25,-276.605 1153.96,-270.587 1143.4,-269.854 1145.25,-276.605"/>
</g>
<!-- player_hp_1 -->
<g id="node2" class="node"><title>player_hp_1</title>
<polygon fill="lightgray" stroke="black" points="481.029,-355.233 420.029,-355.233 420.029,-337.233 481.029,-337.233 481.029,-355.233"/>
<text text-anchor="middle" x="450.529" y="-344.033" font-family="Times,serif" font-size="9.00">player_hp_1</text>
</g>
<!-- player_hp_1&#45;&gt;attack -->
<g id="edge16" class="edge"><title>player_hp_1&#45;&gt;attack</title>
<path fill="none" stroke="green" stroke-width="0.253626" d="M478.044,-337.207C529.165,-322.297 638.684,-290.353 694.808,-273.983"/>
<polygon fill="green" stroke="green" stroke-width="0.253626" points="696.021,-277.276 704.641,-271.116 694.061,-270.556 696.021,-277.276"/>
</g>
<!-- player_hp_1&#45;&gt;up -->
<g id="edge73" class="edge"><title>player_hp_1&#45;&gt;up</title>
<path fill="none" stroke="green" stroke-width="0.413086" stroke-dasharray="1,5" d="M419.669,-342.068C364.154,-335.67 251.026,-319.175 227.529,-289.019 189.106,-239.71 191.278,-199.295 227.529,-148.368 285.769,-66.5489 617.081,-31.8044 717.004,-23.0945"/>
<polygon fill="green" stroke="green" stroke-width="0.413086" points="717.572,-26.5589 727.239,-22.2236 716.978,-19.5841 717.572,-26.5589"/>
</g>
<!-- player_hp_1&#45;&gt;down -->
<g id="edge72" class="edge"><title>player_hp_1&#45;&gt;down</title>
<path fill="none" stroke="red" stroke-width="0.373617" stroke-dasharray="1,5" d="M450.55,-336.944C451.101,-316.06 455.751,-261.203 488.529,-236.693 552.5,-188.859 1126.93,-207.34 1206.53,-200.693 1269.54,-195.433 1342.59,-186.218 1385.27,-180.519"/>
<polygon fill="red" stroke="red" stroke-width="0.373617" points="1386,-183.953 1395.44,-179.151 1385.06,-177.016 1386,-183.953"/>
</g>
<!-- player_hp_1&#45;&gt;left -->
<g id="edge57" class="edge"><title>player_hp_1&#45;&gt;left</title>
<path fill="none" stroke="green" stroke-width="0.515536" d="M450.748,-336.908C451.968,-307.281 459.976,-205.677 512.529,-148.368 560.458,-96.1004 586.408,-95.3086 654.529,-75.598 765.317,-43.542 1126.78,-26.4243 1233.56,-21.9802"/>
<polygon fill="green" stroke="green" stroke-width="0.515536" points="1233.79,-25.4737 1243.64,-21.5671 1233.51,-18.4796 1233.79,-25.4737"/>
</g>
<!-- player_hp_1&#45;&gt;right -->
<g id="edge32" class="edge"><title>player_hp_1&#45;&gt;right</title>
<path fill="none" stroke="green" stroke-width="0.163012" d="M447.764,-337.052C441.522,-316.889 428.866,-264.441 455.529,-236.693 520.127,-169.467 785.682,-231.923 873.529,-200.693 877.292,-199.356 881.035,-197.541 884.615,-195.494"/>
<polygon fill="green" stroke="green" stroke-width="0.163012" points="886.559,-198.405 893.097,-190.068 882.787,-192.509 886.559,-198.405"/>
</g>
<!-- player_hp_1&#45;&gt;select -->
<g id="edge12" class="edge"><title>player_hp_1&#45;&gt;select</title>
<path fill="none" stroke="red" stroke-width="0.459235" d="M476.318,-337.229C490.918,-332.988 509.594,-328.044 526.529,-325.019 759.238,-283.457 1044.04,-269.061 1142.8,-265.12"/>
<polygon fill="red" stroke="red" stroke-width="0.459235" points="1142.99,-268.615 1152.85,-264.73 1142.72,-261.621 1142.99,-268.615"/>
</g>
<!-- 13 -->
<g id="node23" class="node"><title>13</title>
<ellipse fill="white" stroke="black" cx="515.529" cy="-262.856" rx="18.2703" ry="18.2703"/>
<text text-anchor="middle" x="515.529" y="-260.656" font-family="Times,serif" font-size="9.00">13</text>
</g>
<!-- player_hp_1&#45;&gt;13 -->
<g id="edge90" class="edge"><title>player_hp_1&#45;&gt;13</title>
<path fill="none" stroke="green" stroke-width="0.475139" d="M456.999,-337.132C466.406,-325.356 484.208,-303.068 497.72,-286.152"/>
<polygon fill="green" stroke="green" stroke-width="0.475139" points="500.821,-287.878 504.327,-277.88 495.351,-283.509 500.821,-287.878"/>
</g>
<!-- 26 -->
<g id="node27" class="node"><title>26</title>
<ellipse fill="white" stroke="black" cx="1127.53" cy="-93.9828" rx="18.2703" ry="18.2703"/>
<text text-anchor="middle" x="1127.53" y="-91.7828" font-family="Times,serif" font-size="9.00">26</text>
</g>
<!-- player_hp_1&#45;&gt;26 -->
<g id="edge81" class="edge"><title>player_hp_1&#45;&gt;26</title>
<path fill="none" stroke="red" stroke-width="0.187924" stroke-dasharray="1,5" d="M445.727,-337.049C434.852,-317.331 411.115,-266.613 435.529,-236.693 521.612,-131.195 979.059,-102.093 1098.82,-96.2314"/>
<polygon fill="red" stroke="red" stroke-width="0.187924" points="1099.2,-99.7173 1109.02,-95.7488 1098.87,-92.7251 1099.2,-99.7173"/>
</g>
<!-- player_hp_2 -->
<g id="node3" class="node"><title>player_hp_2</title>
<polygon fill="lightgray" stroke="black" points="1104.03,-355.233 1043.03,-355.233 1043.03,-337.233 1104.03,-337.233 1104.03,-355.233"/>
<text text-anchor="middle" x="1073.53" y="-344.033" font-family="Times,serif" font-size="9.00">player_hp_2</text>
</g>
<!-- player_hp_2&#45;&gt;attack -->
<g id="edge84" class="edge"><title>player_hp_2&#45;&gt;attack</title>
<path fill="none" stroke="red" stroke-width="0.227357" stroke-dasharray="1,5" d="M1059.86,-337.169C1052.32,-333.016 1042.65,-328.175 1033.53,-325.019 939.898,-292.611 823.771,-275.189 765.887,-267.955"/>
<polygon fill="red" stroke="red" stroke-width="0.227357" points="766.125,-264.458 755.775,-266.722 765.278,-271.407 766.125,-264.458"/>
</g>
<!-- player_hp_2&#45;&gt;up -->
<g id="edge29" class="edge"><title>player_hp_2&#45;&gt;up</title>
<path fill="none" stroke="red" stroke-width="0.708034" d="M1070.98,-336.802C1059.02,-298.867 1004.61,-142.919 899.529,-75.598 859.598,-50.0156 806.178,-34.4817 773.894,-26.7785"/>
<polygon fill="red" stroke="red" stroke-width="0.708034" points="774.335,-23.2889 763.806,-24.4631 772.769,-30.1115 774.335,-23.2889"/>
</g>
<!-- player_hp_2&#45;&gt;down -->
<g id="edge66" class="edge"><title>player_hp_2&#45;&gt;down</title>
<path fill="none" stroke="green" stroke-width="0.219706" d="M1087.65,-337.216C1095.17,-333.176 1104.67,-328.426 1113.53,-325.019 1170.29,-303.196 1189.99,-313.787 1245.53,-289.019 1301.39,-264.106 1359.85,-222.922 1393.36,-197.614"/>
<polygon fill="green" stroke="green" stroke-width="0.219706" points="1395.49,-200.387 1401.32,-191.541 1391.25,-194.82 1395.49,-200.387"/>
</g>
<!-- player_hp_2&#45;&gt;left -->
<g id="edge13" class="edge"><title>player_hp_2&#45;&gt;left</title>
<path fill="none" stroke="red" stroke-width="0.288722" d="M1088.52,-337.122C1095.95,-333.244 1105.1,-328.665 1113.53,-325.019 1156.5,-306.428 1182.19,-324.678 1212.53,-289.019 1271.44,-219.781 1270.71,-103.745 1266.63,-49.8909"/>
<polygon fill="red" stroke="red" stroke-width="0.288722" points="1270.1,-49.3474 1265.76,-39.6812 1263.12,-49.9426 1270.1,-49.3474"/>
</g>
<!-- player_hp_2&#45;&gt;right -->
<g id="edge48" class="edge"><title>player_hp_2&#45;&gt;right</title>
<path fill="none" stroke="red" stroke-width="1.03679" d="M1065.67,-337.047C1041.94,-312.344 970.402,-237.866 933.341,-199.281"/>
<polygon fill="red" stroke="red" stroke-width="1.03679" points="935.864,-196.855 926.413,-192.068 930.816,-201.704 935.864,-196.855"/>
</g>
<!-- player_hp_2&#45;&gt;select -->
<g id="edge79" class="edge"><title>player_hp_2&#45;&gt;select</title>
<path fill="none" stroke="green" stroke-width="0.19463" d="M1083.98,-337.132C1099.44,-325.155 1128.92,-302.304 1150.87,-285.291"/>
<polygon fill="green" stroke="green" stroke-width="0.19463" points="1153.11,-287.983 1158.87,-279.091 1148.82,-282.45 1153.11,-287.983"/>
</g>
<!-- enemy_x -->
<g id="node4" class="node"><title>enemy_x</title>
<polygon fill="lightgray" stroke="black" points="1346.03,-355.233 1297.03,-355.233 1297.03,-337.233 1346.03,-337.233 1346.03,-355.233"/>
<text text-anchor="middle" x="1321.53" y="-344.033" font-family="Times,serif" font-size="9.00">enemy_x</text>
</g>
<!-- enemy_x&#45;&gt;attack -->
<g id="edge78" class="edge"><title>enemy_x&#45;&gt;attack</title>
<path fill="none" stroke="red" stroke-width="0.161576" d="M1296.85,-341.84C1203.98,-329.074 875.32,-283.897 765.536,-268.806"/>
<polygon fill="red" stroke="red" stroke-width="0.161576" points="765.697,-265.295 755.313,-267.401 764.744,-272.23 765.697,-265.295"/>
</g>
<!-- enemy_x&#45;&gt;up -->
<g id="edge45" class="edge"><title>enemy_x&#45;&gt;up</title>
<path fill="none" stroke="red" stroke-width="0.619063" d="M1319.45,-337.139C1309.24,-299.356 1260.68,-139.483 1154.53,-75.598 1090.06,-36.7961 855.993,-24.7753 774.077,-21.7109"/>
<polygon fill="red" stroke="red" stroke-width="0.619063" points="774.111,-18.21 763.993,-21.3507 773.861,-25.2055 774.111,-18.21"/>
</g>
<!-- enemy_x&#45;&gt;down -->
<g id="edge10" class="edge"><title>enemy_x&#45;&gt;down</title>
<path fill="none" stroke="red" stroke-width="0.148491" d="M1338.93,-337.108C1356.54,-327.955 1383.16,-311.386 1397.53,-289.019 1412.51,-265.702 1418.32,-234.653 1420.49,-210.926"/>
<polygon fill="red" stroke="red" stroke-width="0.148491" points="1423.98,-211.154 1421.23,-200.923 1417,-210.637 1423.98,-211.154"/>
</g>
<!-- enemy_x&#45;&gt;left -->
<g id="edge63" class="edge"><title>enemy_x&#45;&gt;left</title>
<path fill="none" stroke="red" stroke-width="0.412034" d="M1346.28,-341.961C1428.96,-330.979 1690.74,-295.738 1696.53,-289.019 1711.71,-271.398 1708.77,-256.469 1696.53,-236.693 1604.43,-87.8578 1375.4,-38.2794 1293.36,-24.9824"/>
<polygon fill="red" stroke="red" stroke-width="0.412034" points="1293.86,-21.5185 1283.44,-23.4377 1292.78,-28.4351 1293.86,-21.5185"/>
</g>
<!-- enemy_x&#45;&gt;right -->
<g id="edge38" class="edge"><title>enemy_x&#45;&gt;right</title>
<path fill="none" stroke="green" stroke-width="0.616183" d="M1316.02,-337.102C1301.66,-316.59 1260.79,-262.533 1212.53,-236.693 1123.73,-189.154 1002.19,-178.458 944.105,-176.126"/>
<polygon fill="green" stroke="green" stroke-width="0.616183" points="944.133,-172.625 934.02,-175.781 943.894,-179.621 944.133,-172.625"/>
</g>
<!-- enemy_x&#45;&gt;select -->
<g id="edge1" class="edge"><title>enemy_x&#45;&gt;select</title>
<path fill="none" stroke="green" stroke-width="0.382116" d="M1307.29,-337.132C1284.57,-324.199 1239.56,-298.587 1209.25,-281.337"/>
<polygon fill="green" stroke="green" stroke-width="0.382116" points="1210.77,-278.179 1200.35,-276.275 1207.31,-284.263 1210.77,-278.179"/>
</g>
<!-- enemy_y -->
<g id="node5" class="node"><title>enemy_y</title>
<polygon fill="lightgray" stroke="black" points="659.029,-355.233 610.029,-355.233 610.029,-337.233 659.029,-337.233 659.029,-355.233"/>
<text text-anchor="middle" x="634.529" y="-344.033" font-family="Times,serif" font-size="9.00">enemy_y</text>
</g>
<!-- enemy_y&#45;&gt;attack -->
<g id="edge70" class="edge"><title>enemy_y&#45;&gt;attack</title>
<path fill="none" stroke="red" stroke-width="0.181994" d="M643.985,-337.132C657.432,-325.614 682.619,-304.039 702.194,-287.271"/>
<polygon fill="red" stroke="red" stroke-width="0.181994" points="704.603,-289.816 709.92,-280.653 700.049,-284.5 704.603,-289.816"/>
</g>
<!-- enemy_y&#45;&gt;up -->
<g id="edge18" class="edge"><title>enemy_y&#45;&gt;up</title>
<path fill="none" stroke="red" stroke-width="0.366772" d="M621.511,-337.109C614.806,-333.137 606.404,-328.479 598.529,-325.019 551.433,-304.329 518.721,-330.668 488.529,-289.019 474.879,-270.19 478.706,-257.773 488.529,-236.693 537.403,-131.806 665.091,-59.736 719.915,-32.6815"/>
<polygon fill="red" stroke="red" stroke-width="0.366772" points="721.494,-35.8058 728.969,-28.2979 718.443,-29.5054 721.494,-35.8058"/>
</g>
<!-- enemy_y&#45;&gt;down -->
<g id="edge88" class="edge"><title>enemy_y&#45;&gt;down</title>
<path fill="none" stroke="green" stroke-width="0.988838" d="M636.222,-337.159C641.072,-316.295 657.139,-260.554 694.529,-236.693 742.603,-206.015 1149.75,-206.01 1206.53,-200.693 1269.48,-194.8 1342.55,-185.785 1385.25,-180.296"/>
<polygon fill="green" stroke="green" stroke-width="0.988838" points="1385.96,-183.734 1395.42,-178.981 1385.06,-176.792 1385.96,-183.734"/>
</g>
<!-- enemy_y&#45;&gt;left -->
<g id="edge35" class="edge"><title>enemy_y&#45;&gt;left</title>
<path fill="none" stroke="green" stroke-width="0.28438" d="M633.442,-337.074C631.315,-317.838 628.494,-268.851 649.529,-236.693 724.565,-121.981 783.87,-122.887 912.529,-75.598 1025.85,-33.948 1171.09,-23.953 1233.18,-21.5552"/>
<polygon fill="green" stroke="green" stroke-width="0.28438" points="1233.57,-25.044 1243.44,-21.2003 1233.33,-18.0482 1233.57,-25.044"/>
</g>
<!-- enemy_y&#45;&gt;select -->
<g id="edge56" class="edge"><title>enemy_y&#45;&gt;select</title>
<path fill="none" stroke="green" stroke-width="0.896367" d="M659.174,-340.56C682.037,-336.288 717.028,-329.91 747.529,-325.019 894.046,-301.527 1069.35,-278.092 1143.09,-268.445"/>
<polygon fill="green" stroke="green" stroke-width="0.896367" points="1143.76,-271.888 1153.22,-267.124 1142.85,-264.947 1143.76,-271.888"/>
</g>
<!-- enemy_y&#45;&gt;13 -->
<g id="edge64" class="edge"><title>enemy_y&#45;&gt;13</title>
<path fill="none" stroke="red" stroke-width="0.373597" d="M622.684,-337.132C603.121,-323.755 563.724,-296.814 538.537,-279.59"/>
<polygon fill="red" stroke="red" stroke-width="0.373597" points="540.508,-276.698 530.277,-273.942 536.556,-282.476 540.508,-276.698"/>
</g>
<!-- player_x_1 -->
<g id="node6" class="node"><title>player_x_1</title>
<polygon fill="lightgray" stroke="black" points="786.529,-499.872 730.529,-499.872 730.529,-481.872 786.529,-481.872 786.529,-499.872"/>
<text text-anchor="middle" x="758.529" y="-488.672" font-family="Times,serif" font-size="9.00">player_x_1</text>
</g>
<!-- player_x_1&#45;&gt;attack -->
<g id="edge61" class="edge"><title>player_x_1&#45;&gt;attack</title>
<path fill="none" stroke="green" stroke-width="0.287702" stroke-dasharray="1,5" d="M750.599,-481.602C743.253,-473.32 732.835,-459.831 728.529,-445.872 713.354,-396.677 717.898,-336.38 723.21,-299.036"/>
<polygon fill="green" stroke="green" stroke-width="0.287702" points="726.741,-299.094 724.787,-288.681 719.821,-298.04 726.741,-299.094"/>
</g>
<!-- player_x_1&#45;&gt;up -->
<g id="edge28" class="edge"><title>player_x_1&#45;&gt;up</title>
<path fill="none" stroke="green" stroke-width="0.485227" stroke-dasharray="1,5" d="M730.31,-487.598C593.247,-476.183 3.52886,-422.684 3.52886,-347.233 3.52886,-347.233 3.52886,-347.233 3.52886,-173.53 3.52886,-129.193 -10.5866,-105.079 22.5289,-75.598 75.1738,-28.7303 589.111,-21.9258 716.883,-20.9568"/>
<polygon fill="green" stroke="green" stroke-width="0.485227" points="717.074,-24.4557 727.05,-20.8861 717.026,-17.4558 717.074,-24.4557"/>
</g>
<!-- player_x_1&#45;&gt;down -->
<g id="edge43" class="edge"><title>player_x_1&#45;&gt;down</title>
<path fill="none" stroke="red" stroke-width="0.16549" d="M786.693,-488.387C939.372,-480.071 1663.46,-437.136 1731.53,-367.446 1772.21,-325.796 1776.61,-281.582 1739.53,-236.693 1704.09,-193.794 1533.34,-180.669 1457.71,-176.922"/>
<polygon fill="red" stroke="red" stroke-width="0.16549" points="1457.85,-173.424 1447.7,-176.453 1457.52,-180.417 1457.85,-173.424"/>
</g>
<!-- player_x_1&#45;&gt;left -->
<g id="edge7" class="edge"><title>player_x_1&#45;&gt;left</title>
<path fill="none" stroke="green" stroke-width="0.396556" d="M786.762,-489.918C979.645,-489.874 2095.53,-483.719 2095.53,-347.233 2095.53,-347.233 2095.53,-347.233 2095.53,-173.53 2095.53,-106.059 2041.97,-101.173 1979.53,-75.598 1852.41,-23.5296 1413.58,-20.4976 1293.89,-20.6622"/>
<polygon fill="green" stroke="green" stroke-width="0.396556" points="1293.62,-17.1627 1283.63,-20.6856 1293.64,-24.1627 1293.62,-17.1627"/>
</g>
<!-- player_x_1&#45;&gt;right -->
<g id="edge24" class="edge"><title>player_x_1&#45;&gt;right</title>
<path fill="none" stroke="green" stroke-width="0.545541" d="M730.409,-490.358C660.064,-489.856 476.472,-477.577 397.529,-367.446 381.971,-345.742 387.884,-255.7 406.529,-236.693 439.536,-203.045 769.259,-182.926 876.804,-177.219"/>
<polygon fill="green" stroke="green" stroke-width="0.545541" points="877.274,-180.699 887.077,-176.682 876.908,-173.708 877.274,-180.699"/>
</g>
<!-- player_x_1&#45;&gt;select -->
<g id="edge76" class="edge"><title>player_x_1&#45;&gt;select</title>
<path fill="none" stroke="red" stroke-width="0.338694" d="M786.829,-486.703C876.179,-476.019 1149.06,-437.988 1194.53,-367.446 1208.29,-346.091 1202.29,-317.218 1193.98,-295.379"/>
<polygon fill="red" stroke="red" stroke-width="0.338694" points="1197.11,-293.799 1190.06,-285.891 1190.64,-296.47 1197.11,-293.799"/>
</g>
<!-- 118 -->
<g id="node25" class="node"><title>118</title>
<ellipse fill="white" stroke="black" cx="758.529" cy="-424.659" rx="21.4286" ry="21.4286"/>
<text text-anchor="middle" x="758.529" y="-422.459" font-family="Times,serif" font-size="9.00">118</text>
</g>
<!-- player_x_1&#45;&gt;118 -->
<g id="edge62" class="edge"><title>player_x_1&#45;&gt;118</title>
<path fill="none" stroke="red" stroke-width="0.407942" d="M758.529,-481.74C758.529,-475.197 758.529,-465.568 758.529,-456.128"/>
<polygon fill="red" stroke="red" stroke-width="0.407942" points="762.029,-456.114 758.529,-446.114 755.029,-456.114 762.029,-456.114"/>
</g>
<!-- player_y_1 -->
<g id="node7" class="node"><title>player_y_1</title>
<polygon fill="lightgray" stroke="black" points="1024.53,-355.233 968.529,-355.233 968.529,-337.233 1024.53,-337.233 1024.53,-355.233"/>
<text text-anchor="middle" x="996.529" y="-344.033" font-family="Times,serif" font-size="9.00">player_y_1</text>
</g>
<!-- player_y_1&#45;&gt;attack -->
<g id="edge54" class="edge"><title>player_y_1&#45;&gt;attack</title>
<path fill="none" stroke="green" stroke-width="0.377754" d="M969.952,-337.132C921.376,-322.328 818.296,-290.911 764.249,-274.438"/>
<polygon fill="green" stroke="green" stroke-width="0.377754" points="765.024,-271.016 754.438,-271.448 762.983,-277.712 765.024,-271.016"/>
</g>
<!-- player_y_1&#45;&gt;up -->
<g id="edge86" class="edge"><title>player_y_1&#45;&gt;up</title>
<path fill="none" stroke="red" stroke-width="0.755497" d="M996.298,-336.84C995.103,-307.821 987.748,-210.136 942.529,-148.368 897.964,-87.4927 814.81,-47.9424 772.2,-30.7144"/>
<polygon fill="red" stroke="red" stroke-width="0.755497" points="773.362,-27.4103 762.775,-27.0019 770.796,-33.9233 773.362,-27.4103"/>
</g>
<!-- player_y_1&#45;&gt;down -->
<g id="edge33" class="edge"><title>player_y_1&#45;&gt;down</title>
<path fill="none" stroke="green" stroke-width="0.681851" stroke-dasharray="1,5" d="M1006.6,-336.989C1034.75,-314.079 1114.19,-250.424 1144.53,-236.693 1225.71,-199.948 1330.51,-184.591 1384.99,-178.745"/>
<polygon fill="green" stroke="green" stroke-width="0.681851" points="1385.6,-182.2 1395.19,-177.699 1384.89,-175.237 1385.6,-182.2"/>
</g>
<!-- player_y_1&#45;&gt;left -->
<g id="edge68" class="edge"><title>player_y_1&#45;&gt;left</title>
<path fill="none" stroke="red" stroke-width="0.141776" d="M1000.99,-336.997C1011.22,-318.404 1037.54,-272.038 1064.53,-236.693 1123.16,-159.913 1204.05,-78.4925 1242.1,-41.3821"/>
<polygon fill="red" stroke="red" stroke-width="0.141776" points="1244.81,-43.6299 1249.55,-34.1533 1239.93,-38.6071 1244.81,-43.6299"/>
</g>
<!-- player_y_1&#45;&gt;right -->
<g id="edge3" class="edge"><title>player_y_1&#45;&gt;right</title>
<path fill="none" stroke="red" stroke-width="0.132816" d="M990.544,-337.132C982.807,-326.45 969.183,-306.91 959.529,-289.019 944.814,-261.752 931.112,-229.144 921.96,-205.893"/>
<polygon fill="red" stroke="red" stroke-width="0.132816" points="925.212,-204.596 918.327,-196.543 918.687,-207.132 925.212,-204.596"/>
</g>
<!-- player_y_1&#45;&gt;select -->
<g id="edge41" class="edge"><title>player_y_1&#45;&gt;select</title>
<path fill="none" stroke="green" stroke-width="0.39713" d="M1009.95,-337.169C1016.85,-333.212 1025.49,-328.55 1033.53,-325.019 1079.09,-305.018 1094.73,-310.669 1139.53,-289.019 1142.75,-287.465 1146.02,-285.693 1149.23,-283.827"/>
<polygon fill="green" stroke="green" stroke-width="0.39713" points="1151.34,-286.637 1158.03,-278.419 1147.68,-280.674 1151.34,-286.637"/>
</g>
<!-- player_x_2 -->
<g id="node8" class="node"><title>player_x_2</title>
<polygon fill="lightgray" stroke="black" points="1012.53,-433.659 956.529,-433.659 956.529,-415.659 1012.53,-415.659 1012.53,-433.659"/>
<text text-anchor="middle" x="984.529" y="-422.459" font-family="Times,serif" font-size="9.00">player_x_2</text>
</g>
<!-- player_x_2&#45;&gt;attack -->
<g id="edge49" class="edge"><title>player_x_2&#45;&gt;attack</title>
<path fill="none" stroke="red" stroke-width="0.745778" d="M956.299,-416.37C926.82,-407.856 880.143,-391.759 845.529,-367.446 824.814,-352.896 826.004,-342.324 807.529,-325.019 792.305,-310.76 774.011,-296.292 758.968,-285.01"/>
<polygon fill="red" stroke="red" stroke-width="0.745778" points="760.652,-281.902 750.534,-278.761 756.485,-287.526 760.652,-281.902"/>
</g>
<!-- player_x_2&#45;&gt;up -->
<g id="edge14" class="edge"><title>player_x_2&#45;&gt;up</title>
<path fill="none" stroke="red" stroke-width="1.00119" d="M956.3,-420.65C918.222,-416.613 848.28,-409.277 788.529,-403.446 655.389,-390.452 272.902,-399.536 197.529,-289.019 140.627,-205.586 184.013,-118.304 275.529,-75.598 354.763,-38.6232 627.203,-25.2494 716.751,-21.7926"/>
<polygon fill="red" stroke="red" stroke-width="1.00119" points="717.111,-25.2817 726.974,-21.4109 716.85,-18.2866 717.111,-25.2817"/>
</g>
<!-- player_x_2&#45;&gt;down -->
<g id="edge67" class="edge"><title>player_x_2&#45;&gt;down</title>
<path fill="none" stroke="green" stroke-width="0.335358" d="M1012.55,-423.481C1138.84,-422.414 1651.17,-415.152 1702.53,-367.446 1745.29,-327.73 1751.34,-281.978 1714.53,-236.693 1682.57,-197.379 1529.31,-182.471 1458.08,-177.597"/>
<polygon fill="green" stroke="green" stroke-width="0.335358" points="1457.99,-174.084 1447.78,-176.924 1457.53,-181.069 1457.99,-174.084"/>
</g>
<!-- player_x_2&#45;&gt;left -->
<g id="edge30" class="edge"><title>player_x_2&#45;&gt;left</title>
<path fill="none" stroke="red" stroke-width="0.299168" d="M1012.7,-422.603C1131.29,-417.991 1590.37,-398.458 1731.53,-367.446 1828.84,-346.067 1869.05,-357.382 1941.53,-289.019 1972.75,-259.574 1971.67,-242.682 1980.53,-200.693 1992.33,-144.75 1996.74,-109.267 1950.53,-75.598 1896.79,-36.4447 1418.47,-23.9705 1293.36,-21.3631"/>
<polygon fill="red" stroke="red" stroke-width="0.299168" points="1293.41,-17.8635 1283.34,-21.1598 1293.27,-24.862 1293.41,-17.8635"/>
</g>
<!-- player_x_2&#45;&gt;right -->
<g id="edge85" class="edge"><title>player_x_2&#45;&gt;right</title>
<path fill="none" stroke="green" stroke-width="0.336955" stroke-dasharray="1,5" d="M956.298,-420.678C918.216,-416.672 848.271,-409.371 788.529,-403.446 746.545,-399.282 438.912,-398.661 410.529,-367.446 385.105,-339.486 418.989,-250.953 435.529,-236.693 501.765,-179.587 779.887,-175.033 876.941,-175.224"/>
<polygon fill="green" stroke="green" stroke-width="0.336955" points="877.058,-178.725 887.072,-175.263 877.085,-171.725 877.058,-178.725"/>
</g>
<!-- player_x_2&#45;&gt;select -->
<g id="edge53" class="edge"><title>player_x_2&#45;&gt;select</title>
<path fill="none" stroke="green" stroke-width="0.244015" stroke-dasharray="1,5" d="M1012.79,-424.577C1055.34,-424.245 1134.98,-416.61 1173.53,-367.446 1188.68,-348.12 1189.11,-319.98 1186.2,-297.906"/>
<polygon fill="green" stroke="green" stroke-width="0.244015" points="1189.64,-297.258 1184.61,-287.933 1182.73,-298.359 1189.64,-297.258"/>
</g>
<!-- 134 -->
<g id="node18" class="node"><title>134</title>
<ellipse fill="white" stroke="black" cx="1143.53" cy="-346.233" rx="21.4286" ry="21.4286"/>
<text text-anchor="middle" x="1143.53" y="-344.033" font-family="Times,serif" font-size="9.00">134</text>
</g>
<!-- player_x_2&#45;&gt;134 -->
<g id="edge87" class="edge"><title>player_x_2&#45;&gt;134</title>
<path fill="none" stroke="green" stroke-width="0.516459" d="M1005.87,-415.535C1031.7,-405.423 1076.24,-387.075 1112.53,-367.446 1114.27,-366.506 1116.03,-365.5 1117.8,-364.458"/>
<polygon fill="green" stroke="green" stroke-width="0.516459" points="1119.81,-367.33 1126.46,-359.079 1116.11,-361.384 1119.81,-367.33"/>
</g>
<!-- 44 -->
<g id="node22" class="node"><title>44</title>
<ellipse fill="white" stroke="black" cx="49.5289" cy="-93.9828" rx="18.2703" ry="18.2703"/>
<text text-anchor="middle" x="49.5289" y="-91.7828" font-family="Times,serif" font-size="9.00">44</text>
</g>
<!-- player_x_2&#45;&gt;44 -->
<g id="edge46" class="edge"><title>player_x_2&#45;&gt;44</title>
<path fill="none" stroke="green" stroke-width="0.640599" d="M956.331,-420.301C918.287,-415.874 848.384,-408.102 788.529,-403.446 712.542,-397.535 164.653,-412.973 103.529,-367.446 27.2315,-310.616 36.4602,-179.563 44.7071,-122.438"/>
<polygon fill="green" stroke="green" stroke-width="0.640599" points="48.1971,-122.771 46.2662,-112.353 41.2793,-121.701 48.1971,-122.771"/>
</g>
<!-- player_y_2 -->
<g id="node9" class="node"><title>player_y_2</title>
<polygon fill="lightgray" stroke="black" points="1547.53,-355.233 1491.53,-355.233 1491.53,-337.233 1547.53,-337.233 1547.53,-355.233"/>
<text text-anchor="middle" x="1519.53" y="-344.033" font-family="Times,serif" font-size="9.00">player_y_2</text>
</g>
<!-- player_y_2&#45;&gt;attack -->
<g id="edge77" class="edge"><title>player_y_2&#45;&gt;attack</title>
<path fill="none" stroke="green" stroke-width="0.145895" d="M1491.53,-341.591C1458.72,-337.375 1402.72,-330.329 1354.53,-325.019 1131,-300.394 861.926,-275.744 765.818,-267.096"/>
<polygon fill="green" stroke="green" stroke-width="0.145895" points="766.024,-263.601 755.751,-266.192 765.397,-270.573 766.024,-263.601"/>
</g>
<!-- player_y_2&#45;&gt;up -->
<g id="edge25" class="edge"><title>player_y_2&#45;&gt;up</title>
<path fill="none" stroke="red" stroke-width="0.238732" d="M1547.66,-340.418C1592.95,-332.029 1678.78,-313.284 1696.53,-289.019 1710.26,-270.25 1709.83,-255.767 1696.53,-236.693 1586.32,-78.7016 920.632,-31.0009 774.061,-22.3512"/>
<polygon fill="red" stroke="red" stroke-width="0.238732" points="774.234,-18.8555 764.049,-21.7741 773.831,-25.8439 774.234,-18.8555"/>
</g>
<!-- player_y_2&#45;&gt;down -->
<g id="edge8" class="edge"><title>player_y_2&#45;&gt;down</title>
<path fill="none" stroke="red" stroke-width="0.124462" stroke-dasharray="1,5" d="M1520.01,-337.199C1520.78,-318.233 1520.48,-269.785 1500.53,-236.693 1489.34,-218.145 1470.27,-203.139 1453.67,-192.633"/>
<polygon fill="red" stroke="red" stroke-width="0.124462" points="1455.14,-189.431 1444.77,-187.265 1451.53,-195.426 1455.14,-189.431"/>
</g>
<!-- player_y_2&#45;&gt;left -->
<g id="edge60" class="edge"><title>player_y_2&#45;&gt;left</title>
<path fill="none" stroke="green" stroke-width="0.16977" stroke-dasharray="1,5" d="M1547.77,-339.838C1570.18,-335.619 1602.32,-329.703 1630.53,-325.019 1683.73,-316.187 1831.01,-325.721 1870.53,-289.019 1940.47,-224.06 1959.04,-145.952 1894.53,-75.598 1853.5,-30.8483 1413.62,-22.5254 1293.62,-21.0836"/>
<polygon fill="green" stroke="green" stroke-width="0.16977" points="1293.38,-17.5808 1283.34,-20.9678 1293.3,-24.5803 1293.38,-17.5808"/>
</g>
<!-- player_y_2&#45;&gt;right -->
<g id="edge36" class="edge"><title>player_y_2&#45;&gt;right</title>
<path fill="none" stroke="red" stroke-width="0.853867" stroke-dasharray="1,5" d="M1503.85,-337.231C1464.07,-317.25 1355.54,-264.767 1259.53,-236.693 1146.23,-203.564 1006.68,-185.735 943.905,-178.883"/>
<polygon fill="red" stroke="red" stroke-width="0.853867" points="944.115,-175.386 933.8,-177.803 943.371,-182.346 944.115,-175.386"/>
</g>
<!-- player_y_2&#45;&gt;select -->
<g id="edge71" class="edge"><title>player_y_2&#45;&gt;select</title>
<path fill="none" stroke="red" stroke-width="0.36444" d="M1491.33,-338.504C1429.26,-323.69 1280.92,-288.292 1213.25,-272.142"/>
<polygon fill="red" stroke="red" stroke-width="0.36444" points="1214.03,-268.73 1203.49,-269.813 1212.4,-275.539 1214.03,-268.73"/>
</g>
<!-- 207 -->
<g id="node24" class="node"><title>207</title>
<ellipse fill="white" stroke="black" cx="1606.53" cy="-262.856" rx="21.4286" ry="21.4286"/>
<text text-anchor="middle" x="1606.53" y="-260.656" font-family="Times,serif" font-size="9.00">207</text>
</g>
<!-- player_y_2&#45;&gt;207 -->
<g id="edge31" class="edge"><title>player_y_2&#45;&gt;207</title>
<path fill="none" stroke="green" stroke-width="0.171999" d="M1528.19,-337.132C1541.13,-325.032 1565.93,-301.833 1584.17,-284.768"/>
<polygon fill="green" stroke="green" stroke-width="0.171999" points="1586.62,-287.267 1591.54,-277.88 1581.84,-282.155 1586.62,-287.267"/>
</g>
<!-- 55 -->
<g id="node26" class="node"><title>55</title>
<ellipse fill="white" stroke="black" cx="1867.53" cy="-93.9828" rx="18.2703" ry="18.2703"/>
<text text-anchor="middle" x="1867.53" y="-91.7828" font-family="Times,serif" font-size="9.00">55</text>
</g>
<!-- player_y_2&#45;&gt;55 -->
<g id="edge21" class="edge"><title>player_y_2&#45;&gt;55</title>
<path fill="none" stroke="red" stroke-width="0.366233" d="M1547.8,-339.983C1570.22,-335.843 1602.36,-329.964 1630.53,-325.019 1677.81,-316.719 1810.35,-323.708 1843.53,-289.019 1886.59,-244.004 1880.25,-163.809 1873.2,-122.009"/>
<polygon fill="red" stroke="red" stroke-width="0.366233" points="1876.62,-121.224 1871.38,-112.015 1869.73,-122.48 1876.62,-121.224"/>
</g>
<!-- 190 -->
<g id="node28" class="node"><title>190</title>
<ellipse fill="white" stroke="black" cx="1470.53" cy="-262.856" rx="21.4286" ry="21.4286"/>
<text text-anchor="middle" x="1470.53" y="-260.656" font-family="Times,serif" font-size="9.00">190</text>
</g>
<!-- player_y_2&#45;&gt;190 -->
<g id="edge37" class="edge"><title>player_y_2&#45;&gt;190</title>
<path fill="none" stroke="green" stroke-width="0.280665" d="M1514.65,-337.132C1508.07,-326.21 1496.05,-306.247 1486.22,-289.912"/>
<polygon fill="green" stroke="green" stroke-width="0.280665" points="1489.18,-288.053 1481.03,-281.292 1483.19,-291.664 1489.18,-288.053"/>
</g>
<!-- distance_1 -->
<g id="node10" class="node"><title>distance_1</title>
<polygon fill="lightgray" stroke="black" points="589.529,-355.233 535.529,-355.233 535.529,-337.233 589.529,-337.233 589.529,-355.233"/>
<text text-anchor="middle" x="562.529" y="-344.033" font-family="Times,serif" font-size="9.00">distance_1</text>
</g>
<!-- distance_1&#45;&gt;attack -->
<g id="edge69" class="edge"><title>distance_1&#45;&gt;attack</title>
<path fill="none" stroke="green" stroke-width="0.343091" d="M577.244,-337.202C584.256,-333.428 592.784,-328.913 600.529,-325.019 633.072,-308.66 670.761,-290.928 696.964,-278.79"/>
<polygon fill="green" stroke="green" stroke-width="0.343091" points="698.458,-281.956 706.068,-274.584 695.522,-275.601 698.458,-281.956"/>
</g>
<!-- distance_1&#45;&gt;up -->
<g id="edge9" class="edge"><title>distance_1&#45;&gt;up</title>
<path fill="none" stroke="red" stroke-width="0.100904" d="M535.275,-337.136C521.609,-333.216 504.763,-328.597 489.529,-325.019 407.558,-305.77 357.113,-353.969 303.529,-289.019 288.729,-271.08 291.764,-256.754 303.529,-236.693 394.376,-81.7839 634.205,-35.6954 716.967,-24.1746"/>
<polygon fill="red" stroke="red" stroke-width="0.100904" points="717.467,-27.639 726.919,-22.8526 716.545,-20.7 717.467,-27.639"/>
</g>
<!-- distance_1&#45;&gt;down -->
<g id="edge51" class="edge"><title>distance_1&#45;&gt;down</title>
<path fill="none" stroke="red" stroke-width="0.416514" d="M571.666,-336.968C583.066,-326.423 602.847,-307.348 617.529,-289.019 634.868,-267.373 627.595,-250.706 651.529,-236.693 704.857,-205.471 1144.99,-206.287 1206.53,-200.693 1269.5,-194.97 1342.56,-185.902 1385.25,-180.357"/>
<polygon fill="red" stroke="red" stroke-width="0.416514" points="1385.97,-183.793 1395.43,-179.027 1385.06,-176.852 1385.97,-183.793"/>
</g>
<!-- distance_1&#45;&gt;left -->
<g id="edge17" class="edge"><title>distance_1&#45;&gt;left</title>
<path fill="none" stroke="green" stroke-width="0.46727" d="M543.955,-337.202C526.04,-328.321 500.002,-312.143 488.529,-289.019 478.192,-268.187 476.393,-256.531 488.529,-236.693 570.589,-102.558 653.106,-121.414 803.529,-75.598 960.455,-27.8015 1159.33,-21.3817 1233.69,-20.7466"/>
<polygon fill="green" stroke="green" stroke-width="0.46727" points="1233.76,-24.2464 1243.74,-20.6906 1233.72,-17.2465 1233.76,-24.2464"/>
</g>
<!-- distance_1&#45;&gt;right -->
<g id="edge22" class="edge"><title>distance_1&#45;&gt;right</title>
<path fill="none" stroke="red" stroke-width="0.239294" d="M564.475,-337.009C569.85,-316.276 586.979,-261.747 623.529,-236.693 716.122,-173.225 768.873,-241.3 873.529,-200.693 877.069,-199.32 880.605,-197.554 884.011,-195.595"/>
<polygon fill="red" stroke="red" stroke-width="0.239294" points="886.084,-198.425 892.633,-190.097 882.32,-192.522 886.084,-198.425"/>
</g>
<!-- distance_1&#45;&gt;select -->
<g id="edge74" class="edge"><title>distance_1&#45;&gt;select</title>
<path fill="none" stroke="green" stroke-width="0.358127" stroke-dasharray="1,5" d="M574.67,-337.226C581.883,-332.873 591.383,-327.82 600.529,-325.019 703.009,-293.639 1033.4,-272.223 1142.9,-265.842"/>
<polygon fill="green" stroke="green" stroke-width="0.358127" points="1143.31,-269.324 1153.09,-265.254 1142.9,-262.336 1143.31,-269.324"/>
</g>
<!-- distance_2 -->
<g id="node11" class="node"><title>distance_2</title>
<polygon fill="lightgray" stroke="black" points="1693.53,-355.233 1639.53,-355.233 1639.53,-337.233 1693.53,-337.233 1693.53,-355.233"/>
<text text-anchor="middle" x="1666.53" y="-344.033" font-family="Times,serif" font-size="9.00">distance_2</text>
</g>
<!-- distance_2&#45;&gt;attack -->
<g id="edge59" class="edge"><title>distance_2&#45;&gt;attack</title>
<path fill="none" stroke="green" stroke-width="0.830171" d="M1639.08,-339.338C1616.91,-334.781 1584.84,-328.657 1556.53,-325.019 1399.96,-304.904 904.814,-274.372 766.016,-266.028"/>
<polygon fill="green" stroke="green" stroke-width="0.830171" points="766.097,-262.527 755.906,-265.422 765.678,-269.514 766.097,-262.527"/>
</g>
<!-- distance_2&#45;&gt;up -->
<g id="edge4" class="edge"><title>distance_2&#45;&gt;up</title>
<path fill="none" stroke="green" stroke-width="0.434173" d="M1677.21,-337.092C1689.18,-327.231 1707.9,-309.387 1715.53,-289.019 1723.69,-267.242 1724.76,-258.038 1715.53,-236.693 1692.77,-184.078 1671.42,-176.609 1621.53,-148.368 1518.22,-89.8863 1481.28,-97.0978 1364.53,-75.598 1139.43,-34.1459 862.307,-23.7635 773.977,-21.423"/>
<polygon fill="green" stroke="green" stroke-width="0.434173" points="774.012,-17.9228 763.927,-21.1704 773.836,-24.9206 774.012,-17.9228"/>
</g>
<!-- distance_2&#45;&gt;down -->
<g id="edge42" class="edge"><title>distance_2&#45;&gt;down</title>
<path fill="none" stroke="red" stroke-width="0.43306" stroke-dasharray="1,5" d="M1673.05,-337.183C1687.95,-317.762 1721.36,-267.653 1696.53,-236.693 1666.97,-199.843 1525.45,-183.781 1457.76,-178.116"/>
<polygon fill="red" stroke="red" stroke-width="0.43306" points="1457.8,-174.608 1447.55,-177.294 1457.24,-181.586 1457.8,-174.608"/>
</g>
<!-- distance_2&#45;&gt;left -->
<g id="edge75" class="edge"><title>distance_2&#45;&gt;left</title>
<path fill="none" stroke="green" stroke-width="0.184427" d="M1693.9,-346.21C1742.16,-346.478 1843.14,-340.328 1905.53,-289.019 1978.97,-228.618 1995.56,-134.014 1920.53,-75.598 1870.56,-36.6919 1415.94,-24.0993 1293.68,-21.4015"/>
<polygon fill="green" stroke="green" stroke-width="0.184427" points="1293.61,-17.8993 1283.54,-21.1838 1293.46,-24.8977 1293.61,-17.8993"/>
</g>
<!-- distance_2&#45;&gt;right -->
<g id="edge23" class="edge"><title>distance_2&#45;&gt;right</title>
<path fill="none" stroke="red" stroke-width="0.555156" d="M1653.3,-337.222C1635.64,-326.479 1603.48,-306.704 1576.53,-289.019 1542.24,-266.523 1539.02,-250.839 1500.53,-236.693 1352.09,-182.146 1303.82,-217.077 1146.53,-200.693 1074.25,-193.165 989.554,-184.067 943.852,-179.135"/>
<polygon fill="red" stroke="red" stroke-width="0.555156" points="943.957,-175.626 933.639,-178.032 943.205,-182.586 943.957,-175.626"/>
</g>
<!-- distance_2&#45;&gt;select -->
<g id="edge55" class="edge"><title>distance_2&#45;&gt;select</title>
<path fill="none" stroke="green" stroke-width="0.377645" d="M1639.43,-340.088C1617.19,-335.903 1584.85,-329.912 1556.53,-325.019 1430.61,-303.266 1280.68,-279.697 1213.78,-269.304"/>
<polygon fill="green" stroke="green" stroke-width="0.377645" points="1214.19,-265.826 1203.77,-267.751 1213.12,-272.743 1214.19,-265.826"/>
</g>
<!-- 107 -->
<g id="node21" class="node"><title>107</title>
<ellipse fill="white" stroke="black" cx="1666.53" cy="-262.856" rx="21.4286" ry="21.4286"/>
<text text-anchor="middle" x="1666.53" y="-260.656" font-family="Times,serif" font-size="9.00">107</text>
</g>
<!-- distance_2&#45;&gt;107 -->
<g id="edge6" class="edge"><title>distance_2&#45;&gt;107</title>
<path fill="none" stroke="green" stroke-width="0.315468" d="M1666.53,-337.132C1666.53,-327.203 1666.53,-309.8 1666.53,-294.446"/>
<polygon fill="green" stroke="green" stroke-width="0.315468" points="1670.03,-294.26 1666.53,-284.26 1663.03,-294.26 1670.03,-294.26"/>
</g>
<!-- 166 -->
<g id="node20" class="node"><title>166</title>
<ellipse fill="white" stroke="black" cx="1176.53" cy="-174.53" rx="21.4286" ry="21.4286"/>
<text text-anchor="middle" x="1176.53" y="-172.33" font-family="Times,serif" font-size="9.00">166</text>
</g>
<!-- select&#45;&gt;166 -->
<g id="edge44" class="edge"><title>select&#45;&gt;166</title>
<path fill="none" stroke="green" stroke-width="0.25496" d="M1177.96,-237.35C1177.74,-227.657 1177.48,-216.41 1177.24,-206.187"/>
<polygon fill="green" stroke="green" stroke-width="0.25496" points="1180.73,-205.929 1177,-196.012 1173.74,-206.091 1180.73,-205.929"/>
</g>
<!-- select&#45;&gt;26 -->
<g id="edge11" class="edge"><title>select&#45;&gt;26</title>
<path fill="none" stroke="red" stroke-width="0.321971" stroke-dasharray="1,5" d="M1165.46,-240.776C1158.88,-229.303 1151.3,-214.639 1146.53,-200.693 1137.74,-175.038 1132.81,-144.417 1130.18,-122.751"/>
<polygon fill="red" stroke="red" stroke-width="0.321971" points="1133.64,-122.151 1129.04,-112.604 1126.68,-122.932 1133.64,-122.151"/>
</g>
<!-- 134&#45;&gt;select -->
<g id="edge80" class="edge"><title>134&#45;&gt;select</title>
<path fill="none" stroke="green" stroke-width="0.411646" d="M1151.65,-326.359C1155.5,-317.392 1160.22,-306.419 1164.62,-296.184"/>
<polygon fill="green" stroke="green" stroke-width="0.411646" points="1167.97,-297.256 1168.71,-286.687 1161.54,-294.49 1167.97,-297.256"/>
</g>
<!-- 129 -->
<g id="node19" class="node"><title>129</title>
<ellipse fill="white" stroke="black" cx="777.529" cy="-346.233" rx="21.4286" ry="21.4286"/>
<text text-anchor="middle" x="777.529" y="-344.033" font-family="Times,serif" font-size="9.00">129</text>
</g>
<!-- 129&#45;&gt;attack -->
<g id="edge15" class="edge"><title>129&#45;&gt;attack</title>
<path fill="none" stroke="red" stroke-width="0.329302" d="M767.114,-327.575C761.413,-317.911 754.189,-305.663 747.6,-294.493"/>
<polygon fill="red" stroke="red" stroke-width="0.329302" points="750.589,-292.671 742.494,-285.836 744.56,-296.228 750.589,-292.671"/>
</g>
<!-- 166&#45;&gt;26 -->
<g id="edge89" class="edge"><title>166&#45;&gt;26</title>
<path fill="none" stroke="green" stroke-width="0.403517" d="M1165.65,-156.098C1158.78,-145.077 1149.8,-130.692 1142.29,-118.646"/>
<polygon fill="green" stroke="green" stroke-width="0.403517" points="1145.15,-116.617 1136.89,-109.985 1139.21,-120.322 1145.15,-116.617"/>
</g>
<!-- 107&#45;&gt;down -->
<g id="edge83" class="edge"><title>107&#45;&gt;down</title>
<path fill="none" stroke="green" stroke-width="0.268253" d="M1651.86,-247.452C1647.25,-243.52 1641.93,-239.56 1636.53,-236.693 1577.81,-205.557 1501.43,-188.707 1457.3,-180.963"/>
<polygon fill="green" stroke="green" stroke-width="0.268253" points="1457.78,-177.495 1447.33,-179.274 1456.61,-184.396 1457.78,-177.495"/>
</g>
<!-- 44&#45;&gt;up -->
<g id="edge19" class="edge"><title>44&#45;&gt;up</title>
<path fill="none" stroke="red" stroke-width="0.361155" d="M64.5881,-83.1326C69.7587,-80.2122 75.7127,-77.3336 81.5289,-75.598 203.412,-39.2261 605.932,-24.9041 716.951,-21.59"/>
<polygon fill="red" stroke="red" stroke-width="0.361155" points="717.158,-25.0856 727.051,-21.2952 716.953,-18.0886 717.158,-25.0856"/>
</g>
<!-- 13&#45;&gt;right -->
<g id="edge5" class="edge"><title>13&#45;&gt;right</title>
<path fill="none" stroke="red" stroke-width="0.124787" stroke-dasharray="1,5" d="M528.164,-249.247C533.665,-244.512 540.464,-239.582 547.529,-236.693 682.454,-181.52 736.778,-251.171 873.529,-200.693 877.091,-199.379 880.641,-197.649 884.055,-195.71"/>
<polygon fill="red" stroke="red" stroke-width="0.124787" points="886.117,-198.547 892.685,-190.233 882.366,-192.636 886.117,-198.547"/>
</g>
<!-- 207&#45;&gt;down -->
<g id="edge82" class="edge"><title>207&#45;&gt;down</title>
<path fill="none" stroke="red" stroke-width="0.211341" d="M1590.32,-248.989C1584.58,-244.763 1577.95,-240.243 1571.53,-236.693 1533.56,-215.689 1486.86,-197.785 1455.76,-186.875"/>
<polygon fill="red" stroke="red" stroke-width="0.211341" points="1456.83,-183.543 1446.24,-183.583 1454.55,-190.159 1456.83,-183.543"/>
</g>
<!-- 118&#45;&gt;attack -->
<g id="edge27" class="edge"><title>118&#45;&gt;attack</title>
<path fill="none" stroke="red" stroke-width="0.110344" stroke-dasharray="1,5" d="M754.506,-403.646C752.377,-392.921 749.75,-379.474 747.529,-367.446 743.322,-344.67 738.864,-319.024 735.436,-298.948"/>
<polygon fill="red" stroke="red" stroke-width="0.110344" points="738.872,-298.273 733.745,-289.002 731.971,-299.447 738.872,-298.273"/>
</g>
<!-- 118&#45;&gt;129 -->
<g id="edge34" class="edge"><title>118&#45;&gt;129</title>
<path fill="none" stroke="green" stroke-width="0.58141" d="M763.422,-403.977C765.467,-395.751 767.888,-386.013 770.142,-376.947"/>
<polygon fill="green" stroke="green" stroke-width="0.58141" points="773.57,-377.662 772.586,-367.113 766.777,-375.973 773.57,-377.662"/>
</g>
<!-- 55&#45;&gt;left -->
<g id="edge65" class="edge"><title>55&#45;&gt;left</title>
<path fill="none" stroke="red" stroke-width="0.110505" d="M1852.46,-83.1774C1847.28,-80.2601 1841.33,-77.3719 1835.53,-75.598 1732.55,-44.1267 1396.48,-26.7644 1293.68,-22.0958"/>
<polygon fill="red" stroke="red" stroke-width="0.110505" points="1293.54,-18.5861 1283.39,-21.6359 1293.23,-25.5792 1293.54,-18.5861"/>
</g>
<!-- 26&#45;&gt;up -->
<g id="edge39" class="edge"><title>26&#45;&gt;up</title>
<path fill="none" stroke="green" stroke-width="0.415512" d="M1112.39,-83.3798C1107.22,-80.476 1101.28,-77.5446 1095.53,-75.598 980.635,-36.6946 835.036,-25.2094 774.236,-21.9863"/>
<polygon fill="green" stroke="green" stroke-width="0.415512" points="774.057,-18.4733 763.897,-21.4759 773.712,-25.4648 774.057,-18.4733"/>
</g>
<!-- 26&#45;&gt;left -->
<g id="edge20" class="edge"><title>26&#45;&gt;left</title>
<path fill="none" stroke="red" stroke-width="0.248244" d="M1143.46,-84.2768C1148.58,-81.4905 1154.29,-78.4018 1159.53,-75.598 1185.9,-61.4872 1216.16,-45.5733 1237.22,-34.5453"/>
<polygon fill="red" stroke="red" stroke-width="0.248244" points="1238.96,-37.5841 1246.2,-29.8462 1235.71,-31.3821 1238.96,-37.5841"/>
</g>
<!-- 190&#45;&gt;right -->
<g id="edge26" class="edge"><title>190&#45;&gt;right</title>
<path fill="none" stroke="green" stroke-width="0.210166" d="M1449.82,-258.227C1421.06,-253.218 1367.39,-243.977 1321.53,-236.693 1181.25,-214.413 1013.63,-190.225 943.707,-180.243"/>
<polygon fill="green" stroke="green" stroke-width="0.210166" points="944.122,-176.767 933.728,-178.82 943.134,-183.697 944.122,-176.767"/>
</g>
</g>
</svg>
