<?xml version="1.0" encoding="UTF-8" standalone="no"?>
<!DOCTYPE svg PUBLIC "-//W3C//DTD SVG 1.1//EN"
 "http://www.w3.org/Graphics/SVG/1.1/DTD/svg11.dtd">
<!-- Generated by graphviz version 2.38.0 (20140413.2041)
 -->
<!-- Title: %3 Pages: 1 -->
<svg width="946pt" height="274pt"
 viewBox="0.00 0.00 946.48 274.01" xmlns="http://www.w3.org/2000/svg" xmlns:xlink="http://www.w3.org/1999/xlink">
<g id="graph0" class="graph" transform="scale(1 1) rotate(0) translate(4 270.007)">
<title>%3</title>
<polygon fill="white" stroke="none" points="-4,4 -4,-270.007 942.483,-270.007 942.483,4 -4,4"/>
<!-- enemy_hp -->
<g id="node1" class="node"><title>enemy_hp</title>
<polygon fill="lightgray" stroke="black" points="660.885,-202.622 607.885,-202.622 607.885,-184.622 660.885,-184.622 660.885,-202.622"/>
<text text-anchor="middle" x="634.385" y="-191.422" font-family="Times,serif" font-size="9.00">enemy_hp</text>
</g>
<!-- attack -->
<g id="node12" class="node"><title>attack</title>
<ellipse fill="lightblue" stroke="black" cx="561.385" cy="-113.075" rx="26.3269" ry="26.3269"/>
<text text-anchor="middle" x="561.385" y="-110.875" font-family="Times,serif" font-size="9.00">attack</text>
</g>
<!-- enemy_hp&#45;&gt;attack -->
<g id="edge5" class="edge"><title>enemy_hp&#45;&gt;attack</title>
<path fill="none" stroke="red" stroke-width="0.219918" d="M626.847,-184.512C617.293,-174.232 600.349,-156 586.093,-140.661"/>
<polygon fill="red" stroke="red" stroke-width="0.219918" points="588.308,-137.903 578.937,-132.961 583.181,-142.668 588.308,-137.903"/>
</g>
<!-- up -->
<g id="node13" class="node"><title>up</title>
<ellipse fill="lightblue" stroke="black" cx="339.385" cy="-113.075" rx="18.2703" ry="18.2703"/>
<text text-anchor="middle" x="339.385" y="-110.875" font-family="Times,serif" font-size="9.00">up</text>
</g>
<!-- enemy_hp&#45;&gt;up -->
<g id="edge46" class="edge"><title>enemy_hp&#45;&gt;up</title>
<path fill="none" stroke="green" stroke-width="0.106684" d="M620.039,-184.606C613.586,-181.289 605.772,-177.658 598.385,-175.238 515.051,-147.928 488.75,-163.17 404.385,-139.238 391.197,-135.497 376.953,-130.139 365.17,-125.329"/>
<polygon fill="green" stroke="green" stroke-width="0.106684" points="366.504,-122.093 355.928,-121.464 363.803,-128.551 366.504,-122.093"/>
</g>
<!-- down -->
<g id="node14" class="node"><title>down</title>
<ellipse fill="lightblue" stroke="black" cx="669.385" cy="-113.075" rx="26.3269" ry="26.3269"/>
<text text-anchor="middle" x="669.385" y="-110.875" font-family="Times,serif" font-size="9.00">down</text>
</g>
<!-- enemy_hp&#45;&gt;down -->
<g id="edge45" class="edge"><title>enemy_hp&#45;&gt;down</title>
<path fill="none" stroke="red" stroke-width="0.200314" d="M637.999,-184.512C642,-175.531 648.706,-160.482 654.894,-146.595"/>
<polygon fill="red" stroke="red" stroke-width="0.200314" points="658.183,-147.814 659.056,-137.255 651.789,-144.964 658.183,-147.814"/>
</g>
<!-- left -->
<g id="node15" class="node"><title>left</title>
<ellipse fill="lightblue" stroke="black" cx="497.385" cy="-113.075" rx="19.6" ry="19.6"/>
<text text-anchor="middle" x="497.385" y="-110.875" font-family="Times,serif" font-size="9.00">left</text>
</g>
<!-- enemy_hp&#45;&gt;left -->
<g id="edge66" class="edge"><title>enemy_hp&#45;&gt;left</title>
<path fill="none" stroke="red" stroke-width="0.569554" d="M617.837,-184.58C588.615,-170.359 530.543,-142.003 526.385,-139.238 523.939,-137.611 521.476,-135.799 519.074,-133.914"/>
<polygon fill="red" stroke="red" stroke-width="0.569554" points="521.176,-131.109 511.258,-127.383 516.688,-136.48 521.176,-131.109"/>
</g>
<!-- right -->
<g id="node16" class="node"><title>right</title>
<ellipse fill="lightblue" stroke="black" cx="436.385" cy="-113.075" rx="23.1702" ry="23.1702"/>
<text text-anchor="middle" x="436.385" y="-110.875" font-family="Times,serif" font-size="9.00">right</text>
</g>
<!-- enemy_hp&#45;&gt;right -->
<g id="edge10" class="edge"><title>enemy_hp&#45;&gt;right</title>
<path fill="none" stroke="green" stroke-width="0.181715" d="M619.234,-184.557C612.903,-181.385 605.4,-177.878 598.385,-175.238 542.276,-154.117 521.884,-166.296 468.385,-139.238 466.122,-138.093 463.865,-136.776 461.657,-135.355"/>
<polygon fill="green" stroke="green" stroke-width="0.181715" points="463.646,-132.475 453.471,-129.521 459.583,-138.175 463.646,-132.475"/>
</g>
<!-- select -->
<g id="node17" class="node"><title>select</title>
<ellipse fill="lightblue" stroke="black" cx="669.385" cy="-25.4558" rx="25.4118" ry="25.4118"/>
<text text-anchor="middle" x="669.385" y="-23.2558" font-family="Times,serif" font-size="9.00">select</text>
</g>
<!-- enemy_hp&#45;&gt;select -->
<g id="edge58" class="edge"><title>enemy_hp&#45;&gt;select</title>
<path fill="none" stroke="red" stroke-width="0.282138" d="M652.918,-184.494C669.824,-175.949 693.74,-160.743 704.385,-139.238 717.873,-111.987 703.985,-78.4573 689.914,-55.0704"/>
<polygon fill="red" stroke="red" stroke-width="0.282138" points="692.68,-52.8969 684.365,-46.3316 686.771,-56.6495 692.68,-52.8969"/>
</g>
<!-- player_hp_1 -->
<g id="node2" class="node"><title>player_hp_1</title>
<polygon fill="lightgray" stroke="black" points="535.885,-266.007 474.885,-266.007 474.885,-248.007 535.885,-248.007 535.885,-266.007"/>
<text text-anchor="middle" x="505.385" y="-254.807" font-family="Times,serif" font-size="9.00">player_hp_1</text>
</g>
<!-- player_hp_1&#45;&gt;attack -->
<g id="edge21" class="edge"><title>player_hp_1&#45;&gt;attack</title>
<path fill="none" stroke="red" stroke-width="0.213784" d="M535.924,-254.77C622.222,-250.964 863.155,-238.074 886.385,-212.007 947.686,-143.219 882.688,-199.192 634.385,-139.238 621.224,-136.06 607.085,-131.473 594.788,-127.083"/>
<polygon fill="red" stroke="red" stroke-width="0.213784" points="595.969,-123.788 585.375,-123.636 593.561,-130.361 595.969,-123.788"/>
</g>
<!-- player_hp_1&#45;&gt;up -->
<g id="edge23" class="edge"><title>player_hp_1&#45;&gt;up</title>
<path fill="none" stroke="green" stroke-width="0.141872" stroke-dasharray="1,5" d="M474.722,-255.004C384.296,-251.734 123.459,-239.938 98.3848,-212.007 35.6972,-142.177 233.533,-121.187 310.284,-115.757"/>
<polygon fill="green" stroke="green" stroke-width="0.141872" points="310.938,-119.221 320.683,-115.065 310.473,-112.237 310.938,-119.221"/>
</g>
<!-- player_hp_1&#45;&gt;down -->
<g id="edge2" class="edge"><title>player_hp_1&#45;&gt;down</title>
<path fill="none" stroke="red" stroke-width="0.284442" d="M535.973,-254.998C626.177,-251.711 886.375,-239.874 911.385,-212.007 922.3,-199.845 921.425,-188.131 911.385,-175.238 898.648,-158.882 769.75,-132.805 705.456,-120.678"/>
<polygon fill="red" stroke="red" stroke-width="0.284442" points="705.824,-117.186 695.35,-118.786 704.536,-124.066 705.824,-117.186"/>
</g>
<!-- player_hp_1&#45;&gt;left -->
<g id="edge60" class="edge"><title>player_hp_1&#45;&gt;left</title>
<path fill="none" stroke="green" stroke-width="0.204963" d="M504.932,-247.97C503.813,-228.126 500.877,-176.029 499.014,-142.977"/>
<polygon fill="green" stroke="green" stroke-width="0.204963" points="502.508,-142.768 498.45,-132.981 495.519,-143.162 502.508,-142.768"/>
</g>
<!-- player_hp_1&#45;&gt;right -->
<g id="edge69" class="edge"><title>player_hp_1&#45;&gt;right</title>
<path fill="none" stroke="green" stroke-width="0.455687" d="M474.606,-254.789C387.631,-251.033 144.807,-238.266 121.385,-212.007 61.4731,-144.839 134.317,-197.381 366.385,-139.238 379.401,-135.976 393.383,-131.217 405.402,-126.713"/>
<polygon fill="green" stroke="green" stroke-width="0.455687" points="406.898,-129.888 414.973,-123.028 404.383,-123.355 406.898,-129.888"/>
</g>
<!-- player_hp_1&#45;&gt;select -->
<g id="edge15" class="edge"><title>player_hp_1&#45;&gt;select</title>
<path fill="none" stroke="green" stroke-width="0.338323" d="M535.927,-255.141C628.645,-252.2 902.154,-241.108 928.385,-212.007 958.247,-178.877 913.511,-106.317 891.385,-86.9117 838.477,-40.5089 753.251,-29.3417 705.245,-26.8892"/>
<polygon fill="green" stroke="green" stroke-width="0.338323" points="705.157,-23.3827 695.022,-26.4708 704.871,-30.3769 705.157,-23.3827"/>
</g>
<!-- 12 -->
<g id="node18" class="node"><title>12</title>
<ellipse fill="white" stroke="black" cx="18.3848" cy="-193.622" rx="18.2703" ry="18.2703"/>
<text text-anchor="middle" x="18.3848" y="-191.422" font-family="Times,serif" font-size="9.00">12</text>
</g>
<!-- player_hp_1&#45;&gt;12 -->
<g id="edge57" class="edge"><title>player_hp_1&#45;&gt;12</title>
<path fill="none" stroke="green" stroke-width="0.261297" d="M474.627,-254.633C385.803,-250.414 130.16,-236.426 50.3848,-212.007 47.7549,-211.202 45.0949,-210.169 42.4908,-209.008"/>
<polygon fill="green" stroke="green" stroke-width="0.261297" points="43.9599,-205.829 33.4585,-204.425 40.7923,-212.071 43.9599,-205.829"/>
</g>
<!-- player_hp_2 -->
<g id="node3" class="node"><title>player_hp_2</title>
<polygon fill="lightgray" stroke="black" points="409.885,-202.622 348.885,-202.622 348.885,-184.622 409.885,-184.622 409.885,-202.622"/>
<text text-anchor="middle" x="379.385" y="-191.422" font-family="Times,serif" font-size="9.00">player_hp_2</text>
</g>
<!-- player_hp_2&#45;&gt;attack -->
<g id="edge64" class="edge"><title>player_hp_2&#45;&gt;attack</title>
<path fill="none" stroke="green" stroke-width="0.345539" d="M396.704,-184.467C403.414,-181.422 411.198,-178.029 418.385,-175.238 465.547,-156.916 481.333,-162.266 526.385,-139.238 528.442,-138.186 530.512,-137.022 532.562,-135.788"/>
<polygon fill="green" stroke="green" stroke-width="0.345539" points="534.865,-138.464 541.319,-130.062 531.034,-132.606 534.865,-138.464"/>
</g>
<!-- player_hp_2&#45;&gt;up -->
<g id="edge49" class="edge"><title>player_hp_2&#45;&gt;up</title>
<path fill="none" stroke="green" stroke-width="0.329011" d="M375.255,-184.512C369.833,-173.865 360.068,-154.691 352.095,-139.033"/>
<polygon fill="green" stroke="green" stroke-width="0.329011" points="355.073,-137.169 347.416,-129.846 348.835,-140.345 355.073,-137.169"/>
</g>
<!-- player_hp_2&#45;&gt;down -->
<g id="edge35" class="edge"><title>player_hp_2&#45;&gt;down</title>
<path fill="none" stroke="red" stroke-width="0.176705" d="M395.392,-184.532C402.325,-181.28 410.618,-177.721 418.385,-175.238 495.264,-150.658 518.505,-160.435 596.385,-139.238 609.219,-135.744 623.07,-131.179 635.222,-126.898"/>
<polygon fill="red" stroke="red" stroke-width="0.176705" points="636.742,-130.071 644.971,-123.397 634.376,-123.483 636.742,-130.071"/>
</g>
<!-- player_hp_2&#45;&gt;left -->
<g id="edge16" class="edge"><title>player_hp_2&#45;&gt;left</title>
<path fill="none" stroke="green" stroke-width="0.106602" d="M394.694,-184.51C412.844,-174.654 443.735,-157.115 468.385,-139.238 470.762,-137.513 473.181,-135.637 475.555,-133.712"/>
<polygon fill="green" stroke="green" stroke-width="0.106602" points="477.961,-136.261 483.337,-127.132 473.441,-130.916 477.961,-136.261"/>
</g>
<!-- player_hp_2&#45;&gt;right -->
<g id="edge70" class="edge"><title>player_hp_2&#45;&gt;right</title>
<path fill="none" stroke="green" stroke-width="0.132031" d="M385.27,-184.512C392.758,-174.194 406.059,-155.865 417.215,-140.491"/>
<polygon fill="green" stroke="green" stroke-width="0.132031" points="420.102,-142.473 423.142,-132.323 414.436,-138.361 420.102,-142.473"/>
</g>
<!-- player_hp_2&#45;&gt;select -->
<g id="edge55" class="edge"><title>player_hp_2&#45;&gt;select</title>
<path fill="none" stroke="green" stroke-width="0.402909" d="M362.238,-184.613C346.009,-175.975 322.65,-160.541 312.385,-139.238 302.29,-118.287 297.376,-104.676 312.385,-86.9117 353.34,-38.438 551.75,-28.8202 633.78,-26.9201"/>
<polygon fill="green" stroke="green" stroke-width="0.402909" points="633.948,-30.4174 643.873,-26.712 633.803,-23.4189 633.948,-30.4174"/>
</g>
<!-- enemy_x -->
<g id="node4" class="node"><title>enemy_x</title>
<polygon fill="lightgray" stroke="black" points="476.885,-202.622 427.885,-202.622 427.885,-184.622 476.885,-184.622 476.885,-202.622"/>
<text text-anchor="middle" x="452.385" y="-191.422" font-family="Times,serif" font-size="9.00">enemy_x</text>
</g>
<!-- enemy_x&#45;&gt;attack -->
<g id="edge52" class="edge"><title>enemy_x&#45;&gt;attack</title>
<path fill="none" stroke="green" stroke-width="0.145356" d="M463.639,-184.512C479.652,-172.973 509.566,-151.417 532.101,-135.177"/>
<polygon fill="green" stroke="green" stroke-width="0.145356" points="534.265,-137.932 540.332,-129.246 530.173,-132.252 534.265,-137.932"/>
</g>
<!-- enemy_x&#45;&gt;up -->
<g id="edge67" class="edge"><title>enemy_x&#45;&gt;up</title>
<path fill="none" stroke="green" stroke-width="0.531412" d="M439.535,-184.622C423.371,-174.452 394.885,-156.176 371.385,-139.238 368.061,-136.842 364.602,-134.241 361.239,-131.651"/>
<polygon fill="green" stroke="green" stroke-width="0.531412" points="363.239,-128.771 353.21,-125.356 358.92,-134.28 363.239,-128.771"/>
</g>
<!-- enemy_x&#45;&gt;down -->
<g id="edge12" class="edge"><title>enemy_x&#45;&gt;down</title>
<path fill="none" stroke="red" stroke-width="0.427724" d="M474.79,-184.512C512.845,-170.738 590.335,-142.688 635.198,-126.449"/>
<polygon fill="red" stroke="red" stroke-width="0.427724" points="636.574,-129.673 644.786,-122.979 634.191,-123.091 636.574,-129.673"/>
</g>
<!-- enemy_x&#45;&gt;left -->
<g id="edge28" class="edge"><title>enemy_x&#45;&gt;left</title>
<path fill="none" stroke="red" stroke-width="0.557266" d="M457.031,-184.512C463.076,-173.962 473.918,-155.036 482.843,-139.458"/>
<polygon fill="red" stroke="red" stroke-width="0.557266" points="485.891,-141.178 487.825,-130.761 479.817,-137.698 485.891,-141.178"/>
</g>
<!-- enemy_x&#45;&gt;right -->
<g id="edge59" class="edge"><title>enemy_x&#45;&gt;right</title>
<path fill="none" stroke="red" stroke-width="0.120212" stroke-dasharray="1,5" d="M450.733,-184.512C448.882,-175.428 445.767,-160.137 442.912,-146.118"/>
<polygon fill="red" stroke="red" stroke-width="0.120212" points="446.326,-145.342 440.9,-136.242 439.467,-146.74 446.326,-145.342"/>
</g>
<!-- enemy_x&#45;&gt;select -->
<g id="edge1" class="edge"><title>enemy_x&#45;&gt;select</title>
<path fill="none" stroke="red" stroke-width="0.351555" d="M441.078,-184.289C429.344,-174.864 411.703,-158.323 404.385,-139.238 396.058,-117.523 389.884,-105.093 404.385,-86.9117 432.675,-51.4407 567.985,-35.1469 633.577,-29.2342"/>
<polygon fill="red" stroke="red" stroke-width="0.351555" points="634.193,-32.6939 643.853,-28.3417 633.587,-25.7202 634.193,-32.6939"/>
</g>
<!-- enemy_y -->
<g id="node5" class="node"><title>enemy_y</title>
<polygon fill="lightgray" stroke="black" points="802.885,-202.622 753.885,-202.622 753.885,-184.622 802.885,-184.622 802.885,-202.622"/>
<text text-anchor="middle" x="778.385" y="-191.422" font-family="Times,serif" font-size="9.00">enemy_y</text>
</g>
<!-- enemy_y&#45;&gt;attack -->
<g id="edge40" class="edge"><title>enemy_y&#45;&gt;attack</title>
<path fill="none" stroke="green" stroke-width="0.230568" d="M763.727,-184.493C757.817,-181.383 750.872,-177.938 744.385,-175.238 696.895,-155.468 683.147,-155.62 634.385,-139.238 621.777,-135.002 607.976,-130.269 595.801,-126.062"/>
<polygon fill="green" stroke="green" stroke-width="0.230568" points="596.614,-122.639 586.019,-122.673 594.322,-129.254 596.614,-122.639"/>
</g>
<!-- enemy_y&#45;&gt;up -->
<g id="edge24" class="edge"><title>enemy_y&#45;&gt;up</title>
<path fill="none" stroke="green" stroke-width="0.381153" d="M765.293,-184.498C759.164,-181.075 751.629,-177.392 744.385,-175.238 598.734,-131.92 552.078,-174.977 404.385,-139.238 391.061,-136.014 376.802,-130.716 365.043,-125.811"/>
<polygon fill="green" stroke="green" stroke-width="0.381153" points="366.398,-122.583 355.83,-121.837 363.626,-129.011 366.398,-122.583"/>
</g>
<!-- enemy_y&#45;&gt;down -->
<g id="edge41" class="edge"><title>enemy_y&#45;&gt;down</title>
<path fill="none" stroke="red" stroke-width="0.262377" d="M767.13,-184.512C751.118,-172.973 721.204,-151.417 698.669,-135.177"/>
<polygon fill="red" stroke="red" stroke-width="0.262377" points="700.597,-132.252 690.437,-129.246 696.504,-137.932 700.597,-132.252"/>
</g>
<!-- enemy_y&#45;&gt;left -->
<g id="edge29" class="edge"><title>enemy_y&#45;&gt;left</title>
<path fill="none" stroke="red" stroke-width="0.206128" d="M764.908,-184.513C758.827,-181.178 751.437,-177.56 744.385,-175.238 651.112,-144.518 615.267,-180.991 526.385,-139.238 523.579,-137.92 520.836,-136.25 518.225,-134.401"/>
<polygon fill="red" stroke="red" stroke-width="0.206128" points="520.397,-131.656 510.422,-128.087 515.995,-137.098 520.397,-131.656"/>
</g>
<!-- enemy_y&#45;&gt;right -->
<g id="edge32" class="edge"><title>enemy_y&#45;&gt;right</title>
<path fill="none" stroke="green" stroke-width="0.236517" d="M765.269,-184.579C759.134,-181.172 751.602,-177.48 744.385,-175.238 626.247,-138.54 582.42,-187.186 468.385,-139.238 465.991,-138.231 463.624,-136.995 461.327,-135.616"/>
<polygon fill="green" stroke="green" stroke-width="0.236517" points="463.111,-132.593 452.899,-129.772 459.122,-138.346 463.111,-132.593"/>
</g>
<!-- enemy_y&#45;&gt;select -->
<g id="edge8" class="edge"><title>enemy_y&#45;&gt;select</title>
<path fill="none" stroke="green" stroke-width="0.158448" stroke-dasharray="1,5" d="M776.752,-184.568C772.704,-166.004 760.867,-119.318 738.385,-86.9117 727.634,-71.415 712.064,-57.3187 698.435,-46.6433"/>
<polygon fill="green" stroke="green" stroke-width="0.158448" points="700.346,-43.7002 690.26,-40.4565 696.122,-49.282 700.346,-43.7002"/>
</g>
<!-- 20 -->
<g id="node19" class="node"><title>20</title>
<ellipse fill="white" stroke="black" cx="845.385" cy="-113.075" rx="18.2703" ry="18.2703"/>
<text text-anchor="middle" x="845.385" y="-110.875" font-family="Times,serif" font-size="9.00">20</text>
</g>
<!-- enemy_y&#45;&gt;20 -->
<g id="edge18" class="edge"><title>enemy_y&#45;&gt;20</title>
<path fill="none" stroke="green" stroke-width="0.29138" d="M785.303,-184.512C795.097,-173.03 813.351,-151.629 827.179,-135.418"/>
<polygon fill="green" stroke="green" stroke-width="0.29138" points="830.112,-137.373 833.938,-127.494 824.786,-132.831 830.112,-137.373"/>
</g>
<!-- player_x_1 -->
<g id="node6" class="node"><title>player_x_1</title>
<polygon fill="lightgray" stroke="black" points="589.385,-202.622 533.385,-202.622 533.385,-184.622 589.385,-184.622 589.385,-202.622"/>
<text text-anchor="middle" x="561.385" y="-191.422" font-family="Times,serif" font-size="9.00">player_x_1</text>
</g>
<!-- player_x_1&#45;&gt;attack -->
<g id="edge27" class="edge"><title>player_x_1&#45;&gt;attack</title>
<path fill="none" stroke="green" stroke-width="0.356226" d="M561.385,-184.512C561.385,-176.161 561.385,-162.564 561.385,-149.533"/>
<polygon fill="green" stroke="green" stroke-width="0.356226" points="564.885,-149.314 561.385,-139.314 557.885,-149.314 564.885,-149.314"/>
</g>
<!-- player_x_1&#45;&gt;up -->
<g id="edge43" class="edge"><title>player_x_1&#45;&gt;up</title>
<path fill="none" stroke="red" stroke-width="0.238089" d="M536.799,-184.614C505.799,-174.435 450.925,-156.15 404.385,-139.238 391.501,-134.556 377.292,-129.09 365.453,-124.451"/>
<polygon fill="red" stroke="red" stroke-width="0.238089" points="366.734,-121.194 356.147,-120.784 364.168,-127.707 366.734,-121.194"/>
</g>
<!-- player_x_1&#45;&gt;down -->
<g id="edge65" class="edge"><title>player_x_1&#45;&gt;down</title>
<path fill="none" stroke="green" stroke-width="0.181703" d="M572.536,-184.512C588.402,-172.973 618.041,-151.417 640.37,-135.177"/>
<polygon fill="green" stroke="green" stroke-width="0.181703" points="642.497,-137.958 648.525,-129.246 638.379,-132.297 642.497,-137.958"/>
</g>
<!-- player_x_1&#45;&gt;left -->
<g id="edge9" class="edge"><title>player_x_1&#45;&gt;left</title>
<path fill="none" stroke="green" stroke-width="0.297978" d="M554.777,-184.512C545.693,-173.364 528.991,-152.865 515.938,-136.845"/>
<polygon fill="green" stroke="green" stroke-width="0.297978" points="518.534,-134.49 509.504,-128.948 513.107,-138.912 518.534,-134.49"/>
</g>
<!-- player_x_1&#45;&gt;right -->
<g id="edge39" class="edge"><title>player_x_1&#45;&gt;right</title>
<path fill="none" stroke="green" stroke-width="0.370569" d="M545.831,-184.591C527.021,-174.675 494.617,-156.944 468.385,-139.238 466.283,-137.819 464.142,-136.304 462.014,-134.747"/>
<polygon fill="green" stroke="green" stroke-width="0.370569" points="464.063,-131.909 453.981,-128.653 459.832,-137.485 464.063,-131.909"/>
</g>
<!-- player_x_1&#45;&gt;select -->
<g id="edge50" class="edge"><title>player_x_1&#45;&gt;select</title>
<path fill="none" stroke="red" stroke-width="0.245821" d="M566.856,-184.31C573.757,-173.818 585.98,-155.209 596.385,-139.238 614.817,-110.943 635.749,-78.5795 650.458,-55.7993"/>
<polygon fill="red" stroke="red" stroke-width="0.245821" points="653.484,-57.566 655.967,-47.2661 647.603,-53.7696 653.484,-57.566"/>
</g>
<!-- player_y_1 -->
<g id="node7" class="node"><title>player_y_1</title>
<polygon fill="lightgray" stroke="black" points="735.385,-202.622 679.385,-202.622 679.385,-184.622 735.385,-184.622 735.385,-202.622"/>
<text text-anchor="middle" x="707.385" y="-191.422" font-family="Times,serif" font-size="9.00">player_y_1</text>
</g>
<!-- player_y_1&#45;&gt;attack -->
<g id="edge13" class="edge"><title>player_y_1&#45;&gt;attack</title>
<path fill="none" stroke="red" stroke-width="0.233094" d="M692.31,-184.512C669.069,-172.008 623.965,-147.743 593.263,-131.225"/>
<polygon fill="red" stroke="red" stroke-width="0.233094" points="594.702,-128.025 584.237,-126.369 591.386,-134.189 594.702,-128.025"/>
</g>
<!-- player_y_1&#45;&gt;up -->
<g id="edge68" class="edge"><title>player_y_1&#45;&gt;up</title>
<path fill="none" stroke="red" stroke-width="0.474593" d="M692.249,-184.455C685.438,-181.109 677.189,-177.499 669.385,-175.238 555.222,-142.156 519.485,-168.896 404.385,-139.238 391.11,-135.817 376.856,-130.497 365.089,-125.627"/>
<polygon fill="red" stroke="red" stroke-width="0.474593" points="366.437,-122.397 355.865,-121.695 363.691,-128.836 366.437,-122.397"/>
</g>
<!-- player_y_1&#45;&gt;down -->
<g id="edge53" class="edge"><title>player_y_1&#45;&gt;down</title>
<path fill="none" stroke="red" stroke-width="0.478717" d="M703.461,-184.512C699.086,-175.468 691.733,-160.268 684.975,-146.299"/>
<polygon fill="red" stroke="red" stroke-width="0.478717" points="687.941,-144.394 680.435,-136.916 681.639,-147.442 687.941,-144.394"/>
</g>
<!-- player_y_1&#45;&gt;left -->
<g id="edge36" class="edge"><title>player_y_1&#45;&gt;left</title>
<path fill="none" stroke="green" stroke-width="0.375912" d="M691.38,-184.513C684.695,-181.335 676.777,-177.835 669.385,-175.238 607.551,-153.514 584.498,-169.54 526.385,-139.238 523.78,-137.88 521.214,-136.244 518.748,-134.466"/>
<polygon fill="green" stroke="green" stroke-width="0.375912" points="520.826,-131.644 510.852,-128.071 516.42,-137.084 520.826,-131.644"/>
</g>
<!-- player_y_1&#45;&gt;right -->
<g id="edge6" class="edge"><title>player_y_1&#45;&gt;right</title>
<path fill="none" stroke="red" stroke-width="0.247111" d="M692.202,-184.611C685.383,-181.294 677.14,-177.663 669.385,-175.238 582.768,-148.145 551.186,-176.392 468.385,-139.238 466.015,-138.174 463.666,-136.898 461.381,-135.491"/>
<polygon fill="red" stroke="red" stroke-width="0.247111" points="463.172,-132.472 452.975,-129.597 459.153,-138.203 463.172,-132.472"/>
</g>
<!-- player_y_1&#45;&gt;select -->
<g id="edge61" class="edge"><title>player_y_1&#45;&gt;select</title>
<path fill="none" stroke="red" stroke-width="0.468044" d="M711.063,-184.371C718.63,-166.17 734.196,-121.453 721.385,-86.9117 716.116,-72.7065 705.849,-59.5983 695.82,-49.2452"/>
<polygon fill="red" stroke="red" stroke-width="0.468044" points="698.231,-46.7072 688.634,-42.2171 693.336,-51.7115 698.231,-46.7072"/>
</g>
<!-- player_x_2 -->
<g id="node8" class="node"><title>player_x_2</title>
<polygon fill="lightgray" stroke="black" points="877.385,-202.622 821.385,-202.622 821.385,-184.622 877.385,-184.622 877.385,-202.622"/>
<text text-anchor="middle" x="849.385" y="-191.422" font-family="Times,serif" font-size="9.00">player_x_2</text>
</g>
<!-- player_x_2&#45;&gt;attack -->
<g id="edge71" class="edge"><title>player_x_2&#45;&gt;attack</title>
<path fill="none" stroke="green" stroke-width="0.471528" d="M833.808,-184.52C827.056,-181.266 818.973,-177.709 811.385,-175.238 735.054,-150.377 711.832,-160.364 634.385,-139.238 621.553,-135.737 607.702,-131.171 595.55,-126.89"/>
<polygon fill="green" stroke="green" stroke-width="0.471528" points="596.395,-123.475 585.801,-123.391 594.03,-130.063 596.395,-123.475"/>
</g>
<!-- player_x_2&#45;&gt;up -->
<g id="edge17" class="edge"><title>player_x_2&#45;&gt;up</title>
<path fill="none" stroke="green" stroke-width="0.130268" d="M834.66,-184.462C827.79,-181.032 819.38,-177.353 811.385,-175.238 635.83,-128.791 581.248,-180.423 404.385,-139.238 391.034,-136.129 376.771,-130.844 365.018,-125.918"/>
<polygon fill="green" stroke="green" stroke-width="0.130268" points="366.377,-122.692 355.81,-121.92 363.589,-129.113 366.377,-122.692"/>
</g>
<!-- player_x_2&#45;&gt;down -->
<g id="edge33" class="edge"><title>player_x_2&#45;&gt;down</title>
<path fill="none" stroke="red" stroke-width="0.321424" d="M832.018,-184.578C825.554,-181.611 818.148,-178.241 811.385,-175.238 774.356,-158.795 731.628,-140.48 702.794,-128.216"/>
<polygon fill="red" stroke="red" stroke-width="0.321424" points="704.149,-124.989 693.577,-124.3 701.412,-131.431 704.149,-124.989"/>
</g>
<!-- player_x_2&#45;&gt;left -->
<g id="edge63" class="edge"><title>player_x_2&#45;&gt;left</title>
<path fill="none" stroke="red" stroke-width="0.106479" d="M834.622,-184.6C827.745,-181.197 819.339,-177.502 811.385,-175.238 688.591,-140.279 642.953,-191.317 526.385,-139.238 523.555,-137.973 520.796,-136.338 518.176,-134.508"/>
<polygon fill="red" stroke="red" stroke-width="0.106479" points="520.346,-131.762 510.362,-128.217 515.956,-137.215 520.346,-131.762"/>
</g>
<!-- player_x_2&#45;&gt;right -->
<g id="edge19" class="edge"><title>player_x_2&#45;&gt;right</title>
<path fill="none" stroke="red" stroke-width="0.591341" d="M834.644,-184.522C827.771,-181.104 819.363,-177.418 811.385,-175.238 663.527,-134.822 610.419,-196.87 468.385,-139.238 465.978,-138.261 463.603,-137.046 461.3,-135.682"/>
<polygon fill="red" stroke="red" stroke-width="0.591341" points="463.08,-132.658 452.86,-129.865 459.108,-138.422 463.08,-132.658"/>
</g>
<!-- player_x_2&#45;&gt;select -->
<g id="edge44" class="edge"><title>player_x_2&#45;&gt;select</title>
<path fill="none" stroke="green" stroke-width="0.281047" d="M855.05,-184.556C867.632,-165.561 895.063,-117.328 872.385,-86.9117 852.242,-59.8956 756.889,-40.5754 704.343,-31.7792"/>
<polygon fill="green" stroke="green" stroke-width="0.281047" points="704.873,-28.3194 694.439,-30.1611 703.744,-35.2278 704.873,-28.3194"/>
</g>
<!-- player_x_2&#45;&gt;20 -->
<g id="edge38" class="edge"><title>player_x_2&#45;&gt;20</title>
<path fill="none" stroke="green" stroke-width="0.367137" d="M848.972,-184.512C848.464,-174.545 847.576,-157.105 846.811,-142.072"/>
<polygon fill="green" stroke="green" stroke-width="0.367137" points="850.286,-141.502 846.282,-131.693 843.295,-141.858 850.286,-141.502"/>
</g>
<!-- player_y_2 -->
<g id="node9" class="node"><title>player_y_2</title>
<polygon fill="lightgray" stroke="black" points="186.385,-202.622 130.385,-202.622 130.385,-184.622 186.385,-184.622 186.385,-202.622"/>
<text text-anchor="middle" x="158.385" y="-191.422" font-family="Times,serif" font-size="9.00">player_y_2</text>
</g>
<!-- player_y_2&#45;&gt;attack -->
<g id="edge51" class="edge"><title>player_y_2&#45;&gt;attack</title>
<path fill="none" stroke="red" stroke-width="0.173496" d="M172.718,-184.529C179.406,-181.112 187.595,-177.425 195.385,-175.238 337.852,-135.227 388.198,-192.173 526.385,-139.238 528.542,-138.411 530.689,-137.418 532.795,-136.31"/>
<polygon fill="red" stroke="red" stroke-width="0.173496" points="534.973,-139.081 541.685,-130.884 531.326,-133.107 534.973,-139.081"/>
</g>
<!-- player_y_2&#45;&gt;up -->
<g id="edge34" class="edge"><title>player_y_2&#45;&gt;up</title>
<path fill="none" stroke="green" stroke-width="0.380491" d="M175.269,-184.526C181.56,-181.553 188.776,-178.192 195.385,-175.238 236.197,-156.99 284.056,-136.923 313.029,-124.92"/>
<polygon fill="green" stroke="green" stroke-width="0.380491" points="314.543,-128.082 322.447,-121.027 311.868,-121.612 314.543,-128.082"/>
</g>
<!-- player_y_2&#45;&gt;down -->
<g id="edge11" class="edge"><title>player_y_2&#45;&gt;down</title>
<path fill="none" stroke="red" stroke-width="0.143246" d="M172.699,-184.461C179.384,-181.031 187.575,-177.352 195.385,-175.238 368.106,-128.477 421.405,-176.669 596.385,-139.238 609.625,-136.405 623.78,-131.891 636.068,-127.463"/>
<polygon fill="red" stroke="red" stroke-width="0.143246" points="637.318,-130.732 645.469,-123.964 634.876,-124.172 637.318,-130.732"/>
</g>
<!-- player_y_2&#45;&gt;left -->
<g id="edge26" class="edge"><title>player_y_2&#45;&gt;left</title>
<path fill="none" stroke="red" stroke-width="0.540786" stroke-dasharray="1,5" d="M172.741,-184.611C179.434,-181.21 187.621,-177.514 195.385,-175.238 312.826,-140.808 356.782,-189.464 468.385,-139.238 471.211,-137.966 473.968,-136.325 476.587,-134.493"/>
<polygon fill="red" stroke="red" stroke-width="0.540786" points="478.808,-137.198 484.399,-128.198 474.416,-131.747 478.808,-137.198"/>
</g>
<!-- player_y_2&#45;&gt;right -->
<g id="edge56" class="edge"><title>player_y_2&#45;&gt;right</title>
<path fill="none" stroke="green" stroke-width="0.212654" d="M173.538,-184.529C180.11,-181.277 187.982,-177.718 195.385,-175.238 269.025,-150.558 291.664,-160.424 366.385,-139.238 379.294,-135.577 393.256,-130.743 405.29,-126.29"/>
<polygon fill="green" stroke="green" stroke-width="0.212654" points="406.757,-129.478 414.878,-122.674 404.287,-122.928 406.757,-129.478"/>
</g>
<!-- player_y_2&#45;&gt;select -->
<g id="edge42" class="edge"><title>player_y_2&#45;&gt;select</title>
<path fill="none" stroke="green" stroke-width="0.151473" d="M162.165,-184.55C172.16,-164.211 201.424,-110.785 243.385,-86.9117 309.986,-49.0189 543.438,-33.0333 633.535,-28.1784"/>
<polygon fill="green" stroke="green" stroke-width="0.151473" points="633.988,-31.6596 643.791,-27.6408 633.621,-24.6692 633.988,-31.6596"/>
</g>
<!-- distance_1 -->
<g id="node10" class="node"><title>distance_1</title>
<polygon fill="lightgray" stroke="black" points="258.385,-202.622 204.385,-202.622 204.385,-184.622 258.385,-184.622 258.385,-202.622"/>
<text text-anchor="middle" x="231.385" y="-191.422" font-family="Times,serif" font-size="9.00">distance_1</text>
</g>
<!-- distance_1&#45;&gt;attack -->
<g id="edge37" class="edge"><title>distance_1&#45;&gt;attack</title>
<path fill="none" stroke="red" stroke-width="0.277782" d="M245.68,-184.447C252.124,-181.099 259.945,-177.49 267.385,-175.238 378.616,-141.56 418.488,-182.423 526.385,-139.238 528.53,-138.379 530.667,-137.361 532.766,-136.236"/>
<polygon fill="red" stroke="red" stroke-width="0.277782" points="534.963,-138.993 541.639,-130.767 531.29,-133.034 534.963,-138.993"/>
</g>
<!-- distance_1&#45;&gt;up -->
<g id="edge54" class="edge"><title>distance_1&#45;&gt;up</title>
<path fill="none" stroke="red" stroke-width="0.440337" d="M242.536,-184.512C259.931,-171.861 293.883,-147.168 316.603,-130.643"/>
<polygon fill="red" stroke="red" stroke-width="0.440337" points="318.675,-133.465 324.704,-124.752 314.558,-127.804 318.675,-133.465"/>
</g>
<!-- distance_1&#45;&gt;down -->
<g id="edge3" class="edge"><title>distance_1&#45;&gt;down</title>
<path fill="none" stroke="red" stroke-width="0.360988" stroke-dasharray="1,5" d="M245.306,-184.524C251.809,-181.106 259.779,-177.42 267.385,-175.238 408.774,-134.667 452.85,-171.405 596.385,-139.238 609.597,-136.277 623.746,-131.735 636.037,-127.322"/>
<polygon fill="red" stroke="red" stroke-width="0.360988" points="637.278,-130.594 645.442,-123.842 634.849,-124.029 637.278,-130.594"/>
</g>
<!-- distance_1&#45;&gt;left -->
<g id="edge22" class="edge"><title>distance_1&#45;&gt;left</title>
<path fill="none" stroke="red" stroke-width="0.185625" d="M245.723,-184.585C252.175,-181.263 259.99,-177.635 267.385,-175.238 353.715,-147.245 386.506,-178.381 468.385,-139.238 471.181,-137.901 473.919,-136.219 476.526,-134.363"/>
<polygon fill="red" stroke="red" stroke-width="0.185625" points="478.761,-137.057 484.326,-128.041 474.353,-131.618 478.761,-137.057"/>
</g>
<!-- distance_1&#45;&gt;right -->
<g id="edge30" class="edge"><title>distance_1&#45;&gt;right</title>
<path fill="none" stroke="red" stroke-width="0.237153" d="M247.352,-184.477C253.544,-181.433 260.732,-178.039 267.385,-175.238 270.699,-173.842 356.91,-142.728 404.885,-125.429"/>
<polygon fill="red" stroke="red" stroke-width="0.237153" points="406.279,-128.647 414.499,-121.962 403.905,-122.062 406.279,-128.647"/>
</g>
<!-- distance_1&#45;&gt;select -->
<g id="edge47" class="edge"><title>distance_1&#45;&gt;select</title>
<path fill="none" stroke="green" stroke-width="0.132261" d="M232.79,-184.371C236.713,-164.087 249.782,-111.644 283.385,-86.9117 338.851,-46.087 549.195,-31.9895 633.812,-27.905"/>
<polygon fill="green" stroke="green" stroke-width="0.132261" points="634.13,-31.3941 643.958,-27.4345 633.806,-24.4016 634.13,-31.3941"/>
</g>
<!-- distance_2 -->
<g id="node11" class="node"><title>distance_2</title>
<polygon fill="lightgray" stroke="black" points="330.385,-202.622 276.385,-202.622 276.385,-184.622 330.385,-184.622 330.385,-202.622"/>
<text text-anchor="middle" x="303.385" y="-191.422" font-family="Times,serif" font-size="9.00">distance_2</text>
</g>
<!-- distance_2&#45;&gt;attack -->
<g id="edge25" class="edge"><title>distance_2&#45;&gt;attack</title>
<path fill="none" stroke="green" stroke-width="0.517647" d="M318.085,-184.452C324.472,-181.187 332.138,-177.639 339.385,-175.238 419.724,-148.611 448.653,-172.723 526.385,-139.238 528.507,-138.323 530.626,-137.264 532.713,-136.107"/>
<polygon fill="green" stroke="green" stroke-width="0.517647" points="534.941,-138.841 541.555,-130.564 531.223,-132.91 534.941,-138.841"/>
</g>
<!-- distance_2&#45;&gt;up -->
<g id="edge7" class="edge"><title>distance_2&#45;&gt;up</title>
<path fill="none" stroke="red" stroke-width="0.31177" d="M307.102,-184.512C311.952,-173.93 320.663,-154.924 327.814,-139.32"/>
<polygon fill="red" stroke="red" stroke-width="0.31177" points="331.033,-140.698 332.018,-130.149 324.669,-137.782 331.033,-140.698"/>
</g>
<!-- distance_2&#45;&gt;down -->
<g id="edge62" class="edge"><title>distance_2&#45;&gt;down</title>
<path fill="none" stroke="red" stroke-width="0.32402" d="M317.681,-184.451C324.126,-181.104 331.946,-177.494 339.385,-175.238 449.756,-141.757 484.233,-166.156 596.385,-139.238 609.55,-136.078 623.69,-131.494 635.986,-127.103"/>
<polygon fill="red" stroke="red" stroke-width="0.32402" points="637.214,-130.381 645.399,-123.653 634.805,-123.808 637.214,-130.381"/>
</g>
<!-- distance_2&#45;&gt;left -->
<g id="edge48" class="edge"><title>distance_2&#45;&gt;left</title>
<path fill="none" stroke="green" stroke-width="0.576354" d="M318.538,-184.564C324.869,-181.393 332.372,-177.885 339.385,-175.238 395.072,-154.212 415.961,-167.43 468.385,-139.238 470.972,-137.846 473.527,-136.189 475.985,-134.397"/>
<polygon fill="green" stroke="green" stroke-width="0.576354" points="478.321,-137.009 483.873,-127.986 473.905,-131.578 478.321,-137.009"/>
</g>
<!-- distance_2&#45;&gt;right -->
<g id="edge31" class="edge"><title>distance_2&#45;&gt;right</title>
<path fill="none" stroke="red" stroke-width="0.263544" d="M317.117,-184.512C338.345,-171.975 379.594,-147.614 407.567,-131.094"/>
<polygon fill="red" stroke="red" stroke-width="0.263544" points="409.665,-133.92 416.496,-125.821 406.105,-127.892 409.665,-133.92"/>
</g>
<!-- distance_2&#45;&gt;select -->
<g id="edge14" class="edge"><title>distance_2&#45;&gt;select</title>
<path fill="none" stroke="green" stroke-width="0.206932" d="M299.837,-184.559C291.903,-165.145 275.241,-115.32 299.385,-86.9117 342.13,-36.6148 549.398,-28.0678 633.658,-26.6872"/>
<polygon fill="green" stroke="green" stroke-width="0.206932" points="633.822,-30.1853 643.772,-26.5467 633.724,-23.186 633.822,-30.1853"/>
</g>
<!-- 12&#45;&gt;up -->
<g id="edge4" class="edge"><title>12&#45;&gt;up</title>
<path fill="none" stroke="red" stroke-width="0.138212" d="M33.5858,-183.198C38.7659,-180.306 44.6897,-177.337 50.3848,-175.238 142.449,-141.306 258.318,-123.931 310.992,-117.317"/>
<polygon fill="red" stroke="red" stroke-width="0.138212" points="311.448,-120.787 320.951,-116.101 310.6,-113.839 311.448,-120.787"/>
</g>
<!-- 20&#45;&gt;select -->
<g id="edge20" class="edge"><title>20&#45;&gt;select</title>
<path fill="none" stroke="red" stroke-width="0.263567" d="M831.95,-100.195C826.437,-95.6785 819.841,-90.7113 813.385,-86.9117 777.589,-65.8461 733.073,-48.3444 703.088,-37.6841"/>
<polygon fill="red" stroke="red" stroke-width="0.263567" points="704.105,-34.332 693.511,-34.3359 701.795,-40.9398 704.105,-34.332"/>
</g>
</g>
</svg>
