<?xml version="1.0" encoding="UTF-8" standalone="no"?>
<!DOCTYPE svg PUBLIC "-//W3C//DTD SVG 1.1//EN"
 "http://www.w3.org/Graphics/SVG/1.1/DTD/svg11.dtd">
<!-- Generated by graphviz version 2.38.0 (20140413.2041)
 -->
<!-- Title: %3 Pages: 1 -->
<svg width="1282pt" height="417pt"
 viewBox="0.00 0.00 1282.20 416.72" xmlns="http://www.w3.org/2000/svg" xmlns:xlink="http://www.w3.org/1999/xlink">
<g id="graph0" class="graph" transform="scale(1 1) rotate(0) translate(4 412.718)">
<title>%3</title>
<polygon fill="white" stroke="none" points="-4,4 -4,-412.718 1278.2,-412.718 1278.2,4 -4,4"/>
<!-- enemy_hp -->
<g id="node1" class="node"><title>enemy_hp</title>
<polygon fill="lightgray" stroke="black" points="236.704,-264.078 183.704,-264.078 183.704,-246.078 236.704,-246.078 236.704,-264.078"/>
<text text-anchor="middle" x="210.204" y="-252.878" font-family="Times,serif" font-size="9.00">enemy_hp</text>
</g>
<!-- attack -->
<g id="node12" class="node"><title>attack</title>
<ellipse fill="lightblue" stroke="black" cx="369.204" cy="-171.702" rx="26.3269" ry="26.3269"/>
<text text-anchor="middle" x="369.204" y="-169.502" font-family="Times,serif" font-size="9.00">attack</text>
</g>
<!-- enemy_hp&#45;&gt;attack -->
<g id="edge4" class="edge"><title>enemy_hp&#45;&gt;attack</title>
<path fill="none" stroke="green" stroke-width="0.147284" d="M226.031,-245.978C251.878,-232.749 303.641,-206.257 337.331,-189.015"/>
<polygon fill="green" stroke="green" stroke-width="0.147284" points="339.01,-192.087 346.317,-184.415 335.821,-185.856 339.01,-192.087"/>
</g>
<!-- up -->
<g id="node13" class="node"><title>up</title>
<ellipse fill="lightblue" stroke="black" cx="584.204" cy="-18.3848" rx="18.2703" ry="18.2703"/>
<text text-anchor="middle" x="584.204" y="-16.1848" font-family="Times,serif" font-size="9.00">up</text>
</g>
<!-- enemy_hp&#45;&gt;up -->
<g id="edge50" class="edge"><title>enemy_hp&#45;&gt;up</title>
<path fill="none" stroke="green" stroke-width="0.135714" d="M210.132,-245.708C210.386,-216.047 215.675,-115.447 274.204,-72.7696 319.022,-40.0895 487.898,-25.6596 555.736,-21.0934"/>
<polygon fill="green" stroke="green" stroke-width="0.135714" points="555.97,-24.5857 565.722,-20.444 555.516,-17.6005 555.97,-24.5857"/>
</g>
<!-- down -->
<g id="node14" class="node"><title>down</title>
<ellipse fill="lightblue" stroke="black" cx="477.204" cy="-171.702" rx="26.3269" ry="26.3269"/>
<text text-anchor="middle" x="477.204" y="-169.502" font-family="Times,serif" font-size="9.00">down</text>
</g>
<!-- enemy_hp&#45;&gt;down -->
<g id="edge2" class="edge"><title>enemy_hp&#45;&gt;down</title>
<path fill="none" stroke="green" stroke-width="0.417907" d="M224.654,-245.95C232.352,-241.879 242.091,-237.135 251.204,-233.865 316.955,-210.268 337.097,-217.272 404.204,-197.865 416.981,-194.17 430.82,-189.559 442.978,-185.298"/>
<polygon fill="green" stroke="green" stroke-width="0.417907" points="444.485,-188.476 452.735,-181.828 442.14,-181.881 444.485,-188.476"/>
</g>
<!-- left -->
<g id="node15" class="node"><title>left</title>
<ellipse fill="lightblue" stroke="black" cx="749.204" cy="-171.702" rx="19.6" ry="19.6"/>
<text text-anchor="middle" x="749.204" y="-169.502" font-family="Times,serif" font-size="9.00">left</text>
</g>
<!-- enemy_hp&#45;&gt;left -->
<g id="edge84" class="edge"><title>enemy_hp&#45;&gt;left</title>
<path fill="none" stroke="red" stroke-width="0.719824" d="M235.287,-245.989C249.494,-241.721 267.678,-236.779 284.204,-233.865 475.688,-200.105 541.004,-273.319 720.204,-197.865 723.061,-196.662 725.836,-195.066 728.466,-193.259"/>
<polygon fill="red" stroke="red" stroke-width="0.719824" points="730.673,-195.976 736.291,-186.993 726.298,-190.512 730.673,-195.976"/>
</g>
<!-- right -->
<g id="node16" class="node"><title>right</title>
<ellipse fill="lightblue" stroke="black" cx="688.204" cy="-171.702" rx="23.1702" ry="23.1702"/>
<text text-anchor="middle" x="688.204" y="-169.502" font-family="Times,serif" font-size="9.00">right</text>
</g>
<!-- enemy_hp&#45;&gt;right -->
<g id="edge80" class="edge"><title>enemy_hp&#45;&gt;right</title>
<path fill="none" stroke="green" stroke-width="0.101291" d="M235.655,-246.048C249.821,-241.852 267.847,-236.96 284.204,-233.865 430.905,-206.106 472.704,-231.354 618.204,-197.865 631.281,-194.855 645.274,-190.143 657.286,-185.607"/>
<polygon fill="green" stroke="green" stroke-width="0.101291" points="658.801,-188.773 666.846,-181.879 656.257,-182.251 658.801,-188.773"/>
</g>
<!-- select -->
<g id="node17" class="node"><title>select</title>
<ellipse fill="lightblue" stroke="black" cx="584.204" cy="-171.702" rx="25.4118" ry="25.4118"/>
<text text-anchor="middle" x="584.204" y="-169.502" font-family="Times,serif" font-size="9.00">select</text>
</g>
<!-- enemy_hp&#45;&gt;select -->
<g id="edge65" class="edge"><title>enemy_hp&#45;&gt;select</title>
<path fill="none" stroke="green" stroke-width="0.253411" d="M236.747,-246.067C250.768,-242.028 268.319,-237.278 284.204,-233.865 384.504,-212.316 412.714,-222.889 512.204,-197.865 525.146,-194.61 539.056,-190.018 551.167,-185.646"/>
<polygon fill="green" stroke="green" stroke-width="0.253411" points="552.693,-188.813 560.857,-182.06 550.263,-182.249 552.693,-188.813"/>
</g>
<!-- 194 -->
<g id="node18" class="node"><title>194</title>
<ellipse fill="white" stroke="black" cx="266.204" cy="-171.702" rx="21.4286" ry="21.4286"/>
<text text-anchor="middle" x="266.204" y="-169.502" font-family="Times,serif" font-size="9.00">194</text>
</g>
<!-- enemy_hp&#45;&gt;194 -->
<g id="edge7" class="edge"><title>enemy_hp&#45;&gt;194</title>
<path fill="none" stroke="red" stroke-width="0.374488" d="M215.778,-245.978C223.388,-234.92 237.375,-214.595 248.691,-198.151"/>
<polygon fill="red" stroke="red" stroke-width="0.374488" points="251.86,-199.721 254.645,-189.498 246.093,-195.752 251.86,-199.721"/>
</g>
<!-- player_hp_1 -->
<g id="node2" class="node"><title>player_hp_1</title>
<polygon fill="lightgray" stroke="black" points="165.704,-264.078 104.704,-264.078 104.704,-246.078 165.704,-246.078 165.704,-264.078"/>
<text text-anchor="middle" x="135.204" y="-252.878" font-family="Times,serif" font-size="9.00">player_hp_1</text>
</g>
<!-- player_hp_1&#45;&gt;attack -->
<g id="edge19" class="edge"><title>player_hp_1&#45;&gt;attack</title>
<path fill="none" stroke="red" stroke-width="0.323104" d="M149.342,-245.918C156.614,-241.936 165.714,-237.281 174.204,-233.865 226.651,-212.761 242.356,-215.081 296.204,-197.865 308.873,-193.815 322.687,-189.124 334.856,-184.898"/>
<polygon fill="red" stroke="red" stroke-width="0.323104" points="336.344,-188.085 344.629,-181.482 334.034,-181.478 336.344,-188.085"/>
</g>
<!-- player_hp_1&#45;&gt;up -->
<g id="edge22" class="edge"><title>player_hp_1&#45;&gt;up</title>
<path fill="none" stroke="red" stroke-width="0.196539" d="M128.128,-246.034C119.57,-235.717 105.639,-216.877 100.204,-197.865 84.0045,-141.198 94.7079,-104.765 144.204,-72.7696 212.684,-28.5032 469.343,-20.9421 555.67,-19.6508"/>
<polygon fill="red" stroke="red" stroke-width="0.196539" points="555.831,-23.149 565.784,-19.5171 555.738,-16.1496 555.831,-23.149"/>
</g>
<!-- player_hp_1&#45;&gt;down -->
<g id="edge48" class="edge"><title>player_hp_1&#45;&gt;down</title>
<path fill="none" stroke="red" stroke-width="0.568301" d="M148.097,-246.05C155.483,-241.801 165.073,-236.858 174.204,-233.865 272.525,-201.641 303.792,-222.821 404.204,-197.865 417.344,-194.599 431.478,-189.994 443.777,-185.614"/>
<polygon fill="red" stroke="red" stroke-width="0.568301" points="444.998,-188.894 453.193,-182.179 442.599,-182.318 444.998,-188.894"/>
</g>
<!-- player_hp_1&#45;&gt;left -->
<g id="edge68" class="edge"><title>player_hp_1&#45;&gt;left</title>
<path fill="none" stroke="red" stroke-width="0.564019" d="M147.652,-245.939C155.051,-241.541 164.801,-236.488 174.204,-233.865 291.33,-201.196 607.75,-244.124 720.204,-197.865 723.071,-196.686 725.853,-195.105 728.486,-193.307"/>
<polygon fill="red" stroke="red" stroke-width="0.564019" points="730.688,-196.028 736.315,-187.05 726.318,-190.559 730.688,-196.028"/>
</g>
<!-- player_hp_1&#45;&gt;right -->
<g id="edge9" class="edge"><title>player_hp_1&#45;&gt;right</title>
<path fill="none" stroke="green" stroke-width="0.16392" d="M147.667,-245.992C155.071,-241.612 164.821,-236.558 174.204,-233.865 364.5,-179.24 424.697,-239.716 618.204,-197.865 631.418,-195.007 645.531,-190.279 657.597,-185.687"/>
<polygon fill="green" stroke="green" stroke-width="0.16392" points="659.167,-188.831 667.187,-181.907 656.6,-182.318 659.167,-188.831"/>
</g>
<!-- player_hp_1&#45;&gt;select -->
<g id="edge15" class="edge"><title>player_hp_1&#45;&gt;select</title>
<path fill="none" stroke="red" stroke-width="0.123614" stroke-dasharray="1,5" d="M148.042,-245.876C155.411,-241.572 165.002,-236.632 174.204,-233.865 318.875,-190.356 364.812,-231.005 512.204,-197.865 525.224,-194.938 539.151,-190.415 551.254,-186.008"/>
<polygon fill="red" stroke="red" stroke-width="0.123614" points="552.802,-189.165 560.93,-182.37 550.338,-182.613 552.802,-189.165"/>
</g>
<!-- 180 -->
<g id="node22" class="node"><title>180</title>
<ellipse fill="white" stroke="black" cx="130.204" cy="-171.702" rx="21.4286" ry="21.4286"/>
<text text-anchor="middle" x="130.204" y="-169.502" font-family="Times,serif" font-size="9.00">180</text>
</g>
<!-- player_hp_1&#45;&gt;180 -->
<g id="edge67" class="edge"><title>player_hp_1&#45;&gt;180</title>
<path fill="none" stroke="red" stroke-width="0.175084" d="M134.706,-245.978C134.096,-236.048 133.027,-218.646 132.084,-203.291"/>
<polygon fill="red" stroke="red" stroke-width="0.175084" points="135.564,-202.872 131.458,-193.105 128.578,-203.301 135.564,-202.872"/>
</g>
<!-- 30 -->
<g id="node24" class="node"><title>30</title>
<ellipse fill="white" stroke="black" cx="171.204" cy="-91.1543" rx="18.2703" ry="18.2703"/>
<text text-anchor="middle" x="171.204" y="-88.9543" font-family="Times,serif" font-size="9.00">30</text>
</g>
<!-- player_hp_1&#45;&gt;30 -->
<g id="edge70" class="edge"><title>player_hp_1&#45;&gt;30</title>
<path fill="none" stroke="green" stroke-width="0.184942" stroke-dasharray="1,5" d="M139.779,-245.997C145.582,-235.336 155.407,-215.82 160.204,-197.865 167.13,-171.94 169.737,-141.355 170.697,-119.772"/>
<polygon fill="green" stroke="green" stroke-width="0.184942" points="174.198,-119.786 171.055,-109.669 167.203,-119.538 174.198,-119.786"/>
</g>
<!-- player_hp_2 -->
<g id="node3" class="node"><title>player_hp_2</title>
<polygon fill="lightgray" stroke="black" points="466.704,-264.078 405.704,-264.078 405.704,-246.078 466.704,-246.078 466.704,-264.078"/>
<text text-anchor="middle" x="436.204" y="-252.878" font-family="Times,serif" font-size="9.00">player_hp_2</text>
</g>
<!-- player_hp_2&#45;&gt;attack -->
<g id="edge74" class="edge"><title>player_hp_2&#45;&gt;attack</title>
<path fill="none" stroke="red" stroke-width="0.130332" d="M429.535,-245.978C420.854,-235.434 405.235,-216.464 392.064,-200.467"/>
<polygon fill="red" stroke="red" stroke-width="0.130332" points="394.508,-197.929 385.45,-192.433 389.104,-202.378 394.508,-197.929"/>
</g>
<!-- player_hp_2&#45;&gt;up -->
<g id="edge54" class="edge"><title>player_hp_2&#45;&gt;up</title>
<path fill="none" stroke="red" stroke-width="0.18139" d="M434.632,-245.931C431.418,-227.128 425.71,-179.699 442.204,-145.539 467.63,-92.8795 525.965,-52.6423 559.418,-32.8848"/>
<polygon fill="red" stroke="red" stroke-width="0.18139" points="561.225,-35.8835 568.146,-27.8619 557.733,-29.8165 561.225,-35.8835"/>
</g>
<!-- player_hp_2&#45;&gt;down -->
<g id="edge32" class="edge"><title>player_hp_2&#45;&gt;down</title>
<path fill="none" stroke="green" stroke-width="0.607112" d="M440.285,-245.978C445.149,-236.323 453.573,-219.604 461.147,-204.572"/>
<polygon fill="green" stroke="green" stroke-width="0.607112" points="464.34,-206.014 465.713,-195.509 458.088,-202.864 464.34,-206.014"/>
</g>
<!-- player_hp_2&#45;&gt;left -->
<g id="edge16" class="edge"><title>player_hp_2&#45;&gt;left</title>
<path fill="none" stroke="red" stroke-width="0.785876" d="M449.086,-246.017C456.468,-241.758 466.059,-236.815 475.204,-233.865 579.948,-200.078 620.178,-243.773 720.204,-197.865 723.021,-196.572 725.772,-194.919 728.387,-193.078"/>
<polygon fill="red" stroke="red" stroke-width="0.785876" points="730.612,-195.78 736.195,-186.775 726.216,-190.333 730.612,-195.78"/>
</g>
<!-- player_hp_2&#45;&gt;right -->
<g id="edge81" class="edge"><title>player_hp_2&#45;&gt;right</title>
<path fill="none" stroke="red" stroke-width="0.236789" d="M449.923,-245.973C457.239,-241.909 466.504,-237.163 475.204,-233.865 536.486,-210.63 555.513,-216.973 618.204,-197.865 631.04,-193.953 644.988,-189.071 657.03,-184.651"/>
<polygon fill="red" stroke="red" stroke-width="0.236789" points="658.48,-187.846 666.632,-181.079 656.039,-181.286 658.48,-187.846"/>
</g>
<!-- player_hp_2&#45;&gt;select -->
<g id="edge47" class="edge"><title>player_hp_2&#45;&gt;select</title>
<path fill="none" stroke="red" stroke-width="0.212476" d="M450.936,-245.978C474.693,-232.916 521.969,-206.921 553.345,-189.669"/>
<polygon fill="red" stroke="red" stroke-width="0.212476" points="555.058,-192.722 562.134,-184.837 551.685,-186.588 555.058,-192.722"/>
</g>
<!-- enemy_x -->
<g id="node4" class="node"><title>enemy_x</title>
<polygon fill="lightgray" stroke="black" points="897.704,-264.078 848.704,-264.078 848.704,-246.078 897.704,-246.078 897.704,-264.078"/>
<text text-anchor="middle" x="873.204" y="-252.878" font-family="Times,serif" font-size="9.00">enemy_x</text>
</g>
<!-- enemy_x&#45;&gt;attack -->
<g id="edge58" class="edge"><title>enemy_x&#45;&gt;attack</title>
<path fill="none" stroke="red" stroke-width="0.389846" d="M862.475,-246.004C856.066,-241.628 847.566,-236.575 839.204,-233.865 670.665,-179.245 615.436,-235.003 442.204,-197.865 428.965,-195.027 414.81,-190.511 402.522,-186.084"/>
<polygon fill="red" stroke="red" stroke-width="0.389846" points="403.714,-182.793 393.121,-182.586 401.272,-189.354 403.714,-182.793"/>
</g>
<!-- enemy_x&#45;&gt;up -->
<g id="edge78" class="edge"><title>enemy_x&#45;&gt;up</title>
<path fill="none" stroke="red" stroke-width="0.404055" d="M871.21,-245.699C863.897,-216.851 835.765,-120.786 775.204,-72.7696 727.012,-34.5603 653.084,-23.6814 612.796,-20.5957"/>
<polygon fill="red" stroke="red" stroke-width="0.404055" points="612.816,-17.0897 602.608,-19.9285 612.358,-24.0747 612.816,-17.0897"/>
</g>
<!-- enemy_x&#45;&gt;down -->
<g id="edge12" class="edge"><title>enemy_x&#45;&gt;down</title>
<path fill="none" stroke="green" stroke-width="0.172842" d="M862.138,-245.905C855.754,-241.61 847.389,-236.67 839.204,-233.865 716.757,-191.903 676.293,-227.114 550.204,-197.865 537.015,-194.806 522.87,-190.243 510.576,-185.841"/>
<polygon fill="green" stroke="green" stroke-width="0.172842" points="511.761,-182.547 501.168,-182.376 509.342,-189.116 511.761,-182.547"/>
</g>
<!-- enemy_x&#45;&gt;left -->
<g id="edge28" class="edge"><title>enemy_x&#45;&gt;left</title>
<path fill="none" stroke="green" stroke-width="0.147339" d="M860.861,-245.978C840.696,-232.744 800.304,-206.237 774.031,-188.995"/>
<polygon fill="green" stroke="green" stroke-width="0.147339" points="775.664,-185.88 765.383,-183.32 771.823,-191.733 775.664,-185.88"/>
</g>
<!-- enemy_x&#45;&gt;right -->
<g id="edge66" class="edge"><title>enemy_x&#45;&gt;right</title>
<path fill="none" stroke="green" stroke-width="0.494776" stroke-dasharray="1,5" d="M861.311,-246.038C854.952,-241.992 846.871,-237.243 839.204,-233.865 788.64,-211.583 769.214,-223.384 720.204,-197.865 717.955,-196.694 715.708,-195.357 713.507,-193.924"/>
<polygon fill="green" stroke="green" stroke-width="0.494776" points="715.5,-191.046 705.334,-188.064 711.422,-196.735 715.5,-191.046"/>
</g>
<!-- enemy_x&#45;&gt;select -->
<g id="edge1" class="edge"><title>enemy_x&#45;&gt;select</title>
<path fill="none" stroke="green" stroke-width="0.162728" stroke-dasharray="1,5" d="M861.751,-245.924C855.383,-241.744 847.157,-236.907 839.204,-233.865 761.782,-204.253 736.198,-219.594 656.204,-197.865 643.326,-194.367 629.429,-189.723 617.311,-185.378"/>
<polygon fill="green" stroke="green" stroke-width="0.162728" points="618.205,-181.979 607.612,-181.83 615.8,-188.553 618.205,-181.979"/>
</g>
<!-- 48 -->
<g id="node21" class="node"><title>48</title>
<ellipse fill="white" stroke="black" cx="919.204" cy="-171.702" rx="18.2703" ry="18.2703"/>
<text text-anchor="middle" x="919.204" y="-169.502" font-family="Times,serif" font-size="9.00">48</text>
</g>
<!-- enemy_x&#45;&gt;48 -->
<g id="edge45" class="edge"><title>enemy_x&#45;&gt;48</title>
<path fill="none" stroke="green" stroke-width="0.303637" d="M877.783,-245.978C884.128,-234.754 895.87,-213.981 905.237,-197.411"/>
<polygon fill="green" stroke="green" stroke-width="0.303637" points="908.544,-198.673 910.418,-188.245 902.45,-195.228 908.544,-198.673"/>
</g>
<!-- enemy_y -->
<g id="node5" class="node"><title>enemy_y</title>
<polygon fill="lightgray" stroke="black" points="533.704,-264.078 484.704,-264.078 484.704,-246.078 533.704,-246.078 533.704,-264.078"/>
<text text-anchor="middle" x="509.204" y="-252.878" font-family="Times,serif" font-size="9.00">enemy_y</text>
</g>
<!-- enemy_y&#45;&gt;attack -->
<g id="edge40" class="edge"><title>enemy_y&#45;&gt;attack</title>
<path fill="none" stroke="green" stroke-width="0.11982" d="M495.661,-245.972C489.44,-242.263 481.959,-237.822 475.204,-233.865 450.131,-219.179 421.595,-202.729 400.452,-190.59"/>
<polygon fill="green" stroke="green" stroke-width="0.11982" points="402.003,-187.445 391.587,-185.505 398.519,-193.517 402.003,-187.445"/>
</g>
<!-- enemy_y&#45;&gt;up -->
<g id="edge23" class="edge"><title>enemy_y&#45;&gt;up</title>
<path fill="none" stroke="green" stroke-width="0.572003" d="M511.786,-246C521.88,-214.413 558.945,-98.4254 575.782,-45.7381"/>
<polygon fill="green" stroke="green" stroke-width="0.572003" points="579.156,-46.6793 578.866,-36.0884 572.488,-44.5484 579.156,-46.6793"/>
</g>
<!-- enemy_y&#45;&gt;down -->
<g id="edge41" class="edge"><title>enemy_y&#45;&gt;down</title>
<path fill="none" stroke="red" stroke-width="0.431715" d="M506.019,-245.978C502.31,-236.546 495.95,-220.373 490.147,-205.616"/>
<polygon fill="red" stroke="red" stroke-width="0.431715" points="493.365,-204.234 486.448,-196.209 486.85,-206.796 493.365,-204.234"/>
</g>
<!-- enemy_y&#45;&gt;left -->
<g id="edge63" class="edge"><title>enemy_y&#45;&gt;left</title>
<path fill="none" stroke="red" stroke-width="0.147116" d="M533.873,-248.973C582.216,-238.732 687.548,-215.179 720.204,-197.865 722.799,-196.489 725.36,-194.841 727.821,-193.056"/>
<polygon fill="red" stroke="red" stroke-width="0.147116" points="730.153,-195.671 735.713,-186.652 725.743,-190.236 730.153,-195.671"/>
</g>
<!-- enemy_y&#45;&gt;right -->
<g id="edge35" class="edge"><title>enemy_y&#45;&gt;right</title>
<path fill="none" stroke="red" stroke-width="0.487391" d="M527.022,-245.978C557.544,-232.102 620.164,-203.634 657.735,-186.554"/>
<polygon fill="red" stroke="red" stroke-width="0.487391" points="659.511,-189.591 667.166,-182.266 656.614,-183.219 659.511,-189.591"/>
</g>
<!-- enemy_y&#45;&gt;select -->
<g id="edge49" class="edge"><title>enemy_y&#45;&gt;select</title>
<path fill="none" stroke="red" stroke-width="0.298791" d="M516.67,-245.978C526.731,-235.061 545.118,-215.111 560.169,-198.781"/>
<polygon fill="red" stroke="red" stroke-width="0.298791" points="563.035,-200.836 567.238,-191.11 557.887,-196.092 563.035,-200.836"/>
</g>
<!-- player_x_1 -->
<g id="node6" class="node"><title>player_x_1</title>
<polygon fill="lightgray" stroke="black" points="756.204,-264.078 700.204,-264.078 700.204,-246.078 756.204,-246.078 756.204,-264.078"/>
<text text-anchor="middle" x="728.204" y="-252.878" font-family="Times,serif" font-size="9.00">player_x_1</text>
</g>
<!-- player_x_1&#45;&gt;attack -->
<g id="edge26" class="edge"><title>player_x_1&#45;&gt;attack</title>
<path fill="none" stroke="red" stroke-width="0.16977" d="M716.039,-245.991C709.053,-241.724 699.953,-236.782 691.204,-233.865 585.126,-198.501 550.876,-224.201 442.204,-197.865 429.045,-194.676 414.907,-190.087 402.61,-185.698"/>
<polygon fill="red" stroke="red" stroke-width="0.16977" points="403.791,-182.403 393.197,-182.252 401.384,-188.977 403.791,-182.403"/>
</g>
<!-- player_x_1&#45;&gt;up -->
<g id="edge44" class="edge"><title>player_x_1&#45;&gt;up</title>
<path fill="none" stroke="green" stroke-width="0.315579" d="M739.101,-245.988C751.307,-236.174 770.403,-218.374 778.204,-197.865 786.472,-176.129 789.295,-165.98 778.204,-145.539 742.388,-79.526 655.432,-42.6524 611.123,-27.5618"/>
<polygon fill="green" stroke="green" stroke-width="0.315579" points="612.182,-24.2257 601.589,-24.4284 609.996,-30.8758 612.182,-24.2257"/>
</g>
<!-- player_x_1&#45;&gt;down -->
<g id="edge18" class="edge"><title>player_x_1&#45;&gt;down</title>
<path fill="none" stroke="red" stroke-width="0.32395" stroke-dasharray="1,5" d="M715.234,-245.95C708.306,-241.88 699.513,-237.136 691.204,-233.865 631.021,-210.176 612.163,-216.419 550.204,-197.865 537.462,-194.049 523.632,-189.412 511.47,-185.162"/>
<polygon fill="red" stroke="red" stroke-width="0.32395" points="512.303,-181.744 501.708,-181.711 509.969,-188.344 512.303,-181.744"/>
</g>
<!-- player_x_1&#45;&gt;left -->
<g id="edge8" class="edge"><title>player_x_1&#45;&gt;left</title>
<path fill="none" stroke="green" stroke-width="0.304892" d="M730.294,-245.978C732.984,-235.557 737.797,-216.906 741.894,-201.029"/>
<polygon fill="green" stroke="green" stroke-width="0.304892" points="745.344,-201.668 744.454,-191.11 738.566,-199.919 745.344,-201.668"/>
</g>
<!-- player_x_1&#45;&gt;right -->
<g id="edge33" class="edge"><title>player_x_1&#45;&gt;right</title>
<path fill="none" stroke="green" stroke-width="0.318948" d="M724.222,-245.978C719.248,-235.857 710.457,-217.974 702.806,-202.408"/>
<polygon fill="green" stroke="green" stroke-width="0.318948" points="705.786,-200.536 698.233,-193.105 699.504,-203.624 705.786,-200.536"/>
</g>
<!-- player_x_1&#45;&gt;select -->
<g id="edge55" class="edge"><title>player_x_1&#45;&gt;select</title>
<path fill="none" stroke="red" stroke-width="0.263038" stroke-dasharray="1,5" d="M713.87,-245.978C690.919,-233.008 645.407,-207.289 614.879,-190.037"/>
<polygon fill="red" stroke="red" stroke-width="0.263038" points="616.356,-186.851 605.928,-184.979 612.912,-192.946 616.356,-186.851"/>
</g>
<!-- player_y_1 -->
<g id="node7" class="node"><title>player_y_1</title>
<polygon fill="lightgray" stroke="black" points="349.204,-264.078 293.204,-264.078 293.204,-246.078 349.204,-246.078 349.204,-264.078"/>
<text text-anchor="middle" x="321.204" y="-252.878" font-family="Times,serif" font-size="9.00">player_y_1</text>
</g>
<!-- player_y_1&#45;&gt;attack -->
<g id="edge13" class="edge"><title>player_y_1&#45;&gt;attack</title>
<path fill="none" stroke="green" stroke-width="0.354745" d="M325.982,-245.978C331.81,-236.098 342.002,-218.819 351.025,-203.522"/>
<polygon fill="green" stroke="green" stroke-width="0.354745" points="354.095,-205.206 356.161,-194.814 348.066,-201.649 354.095,-205.206"/>
</g>
<!-- player_y_1&#45;&gt;up -->
<g id="edge79" class="edge"><title>player_y_1&#45;&gt;up</title>
<path fill="none" stroke="green" stroke-width="0.304142" d="M319.856,-245.885C317.136,-226.573 312.933,-177.433 334.204,-145.539 386.426,-67.2391 502.634,-35.2193 556.188,-24.2611"/>
<polygon fill="green" stroke="green" stroke-width="0.304142" points="556.88,-27.692 566.026,-22.3428 555.541,-20.8214 556.88,-27.692"/>
</g>
<!-- player_y_1&#45;&gt;down -->
<g id="edge59" class="edge"><title>player_y_1&#45;&gt;down</title>
<path fill="none" stroke="green" stroke-width="0.10049" d="M336.732,-245.978C361.843,-232.879 411.885,-206.775 444.955,-189.525"/>
<polygon fill="green" stroke="green" stroke-width="0.10049" points="446.964,-192.424 454.212,-184.696 443.727,-186.218 446.964,-192.424"/>
</g>
<!-- player_y_1&#45;&gt;left -->
<g id="edge36" class="edge"><title>player_y_1&#45;&gt;left</title>
<path fill="none" stroke="red" stroke-width="0.245998" d="M347.011,-246.078C361.371,-241.891 379.641,-236.998 396.204,-233.865 538.565,-206.935 587.48,-255.972 720.204,-197.865 723.043,-196.622 725.808,-195 728.432,-193.178"/>
<polygon fill="red" stroke="red" stroke-width="0.245998" points="730.647,-195.888 736.249,-186.896 726.262,-190.432 730.647,-195.888"/>
</g>
<!-- player_y_1&#45;&gt;right -->
<g id="edge5" class="edge"><title>player_y_1&#45;&gt;right</title>
<path fill="none" stroke="green" stroke-width="0.206291" d="M348.469,-246.008C362.624,-242.002 380.252,-237.299 396.204,-233.865 493.922,-212.832 521.429,-222.878 618.204,-197.865 631.196,-194.507 645.173,-189.73 657.196,-185.238"/>
<polygon fill="green" stroke="green" stroke-width="0.206291" points="658.684,-188.416 666.77,-181.57 656.18,-181.879 658.684,-188.416"/>
</g>
<!-- player_y_1&#45;&gt;select -->
<g id="edge69" class="edge"><title>player_y_1&#45;&gt;select</title>
<path fill="none" stroke="red" stroke-width="0.474056" d="M349.494,-246.23C386.899,-235.744 454.784,-216.336 512.204,-197.865 524.809,-193.81 538.553,-189.084 550.622,-184.829"/>
<polygon fill="red" stroke="red" stroke-width="0.474056" points="552.053,-188.035 560.305,-181.391 549.71,-181.439 552.053,-188.035"/>
</g>
<!-- player_y_1&#45;&gt;194 -->
<g id="edge53" class="edge"><title>player_y_1&#45;&gt;194</title>
<path fill="none" stroke="green" stroke-width="0.285118" d="M315.729,-245.978C308.301,-234.988 294.687,-214.844 283.609,-198.454"/>
<polygon fill="green" stroke="green" stroke-width="0.285118" points="286.271,-196.142 277.772,-189.817 280.471,-200.062 286.271,-196.142"/>
</g>
<!-- player_x_2 -->
<g id="node8" class="node"><title>player_x_2</title>
<polygon fill="lightgray" stroke="black" points="830.204,-264.078 774.204,-264.078 774.204,-246.078 830.204,-246.078 830.204,-264.078"/>
<text text-anchor="middle" x="802.204" y="-252.878" font-family="Times,serif" font-size="9.00">player_x_2</text>
</g>
<!-- player_x_2&#45;&gt;attack -->
<g id="edge82" class="edge"><title>player_x_2&#45;&gt;attack</title>
<path fill="none" stroke="green" stroke-width="0.282382" d="M790.075,-245.881C783.1,-241.579 774,-236.639 765.204,-233.865 627.448,-190.421 583.12,-229.594 442.204,-197.865 428.995,-194.891 414.846,-190.347 402.555,-185.934"/>
<polygon fill="green" stroke="green" stroke-width="0.282382" points="403.742,-182.642 393.149,-182.457 401.315,-189.208 403.742,-182.642"/>
</g>
<!-- player_x_2&#45;&gt;up -->
<g id="edge17" class="edge"><title>player_x_2&#45;&gt;up</title>
<path fill="none" stroke="green" stroke-width="0.17085" d="M803.31,-245.865C805.479,-227.316 809.034,-181.037 796.204,-145.539 782.515,-107.663 774.768,-96.468 742.204,-72.7696 702.49,-43.8673 646.029,-29.8276 612.456,-23.6443"/>
<polygon fill="green" stroke="green" stroke-width="0.17085" points="612.86,-20.1623 602.409,-21.9039 611.665,-27.0596 612.86,-20.1623"/>
</g>
<!-- player_x_2&#45;&gt;down -->
<g id="edge39" class="edge"><title>player_x_2&#45;&gt;down</title>
<path fill="none" stroke="red" stroke-width="0.467603" d="M790.014,-246.067C783.02,-241.823 773.92,-236.879 765.204,-233.865 673.639,-202.199 644.104,-221.734 550.204,-197.865 537.082,-194.529 522.951,-189.909 510.65,-185.537"/>
<polygon fill="red" stroke="red" stroke-width="0.467603" points="511.826,-182.24 501.231,-182.113 509.434,-188.819 511.826,-182.24"/>
</g>
<!-- player_x_2&#45;&gt;left -->
<g id="edge73" class="edge"><title>player_x_2&#45;&gt;left</title>
<path fill="none" stroke="red" stroke-width="0.185938" stroke-dasharray="1,5" d="M796.928,-245.978C789.638,-234.784 776.163,-214.095 765.386,-197.548"/>
<polygon fill="red" stroke="red" stroke-width="0.185938" points="768.123,-195.337 759.733,-188.868 762.257,-199.157 768.123,-195.337"/>
</g>
<!-- player_x_2&#45;&gt;right -->
<g id="edge75" class="edge"><title>player_x_2&#45;&gt;right</title>
<path fill="none" stroke="red" stroke-width="0.122632" d="M789.804,-245.944C773.591,-235.226 744.406,-215.647 720.204,-197.865 718.161,-196.364 716.062,-194.789 713.963,-193.191"/>
<polygon fill="red" stroke="red" stroke-width="0.122632" points="716.036,-190.37 705.985,-187.018 711.752,-195.906 716.036,-190.37"/>
</g>
<!-- player_x_2&#45;&gt;select -->
<g id="edge46" class="edge"><title>player_x_2&#45;&gt;select</title>
<path fill="none" stroke="red" stroke-width="0.696799" stroke-dasharray="1,5" d="M788.794,-245.986C781.895,-242.022 773.261,-237.362 765.204,-233.865 718.404,-213.552 704.509,-214.282 656.204,-197.865 643.667,-193.604 629.938,-188.833 617.862,-184.599"/>
<polygon fill="red" stroke="red" stroke-width="0.696799" points="618.763,-181.206 608.168,-181.193 616.442,-187.811 618.763,-181.206"/>
</g>
<!-- player_y_2 -->
<g id="node9" class="node"><title>player_y_2</title>
<polygon fill="lightgray" stroke="black" points="1052.2,-408.718 996.204,-408.718 996.204,-390.718 1052.2,-390.718 1052.2,-408.718"/>
<text text-anchor="middle" x="1024.2" y="-397.518" font-family="Times,serif" font-size="9.00">player_y_2</text>
</g>
<!-- player_y_2&#45;&gt;attack -->
<g id="edge56" class="edge"><title>player_y_2&#45;&gt;attack</title>
<path fill="none" stroke="red" stroke-width="0.313205" d="M996.072,-398.993C901.849,-399.474 589.024,-397.519 335.204,-354.718 206.503,-333.015 131.216,-380.177 52.204,-276.291 -58.0725,-131.298 -0.889112,-270.321 296.204,-197.865 309.358,-194.657 323.495,-190.064 335.793,-185.677"/>
<polygon fill="red" stroke="red" stroke-width="0.313205" points="337.017,-188.956 345.207,-182.234 334.613,-182.382 337.017,-188.956"/>
</g>
<!-- player_y_2&#45;&gt;up -->
<g id="edge34" class="edge"><title>player_y_2&#45;&gt;up</title>
<path fill="none" stroke="green" stroke-width="0.11527" d="M1052.31,-399.088C1092.65,-398.234 1167.56,-391.334 1217.2,-354.718 1257.95,-324.664 1274.2,-306.711 1274.2,-256.078 1274.2,-256.078 1274.2,-256.078 1274.2,-170.702 1274.2,-33.0662 743.76,-20.459 613.047,-19.4418"/>
<polygon fill="green" stroke="green" stroke-width="0.11527" points="612.681,-15.9396 602.66,-19.3796 612.639,-22.9395 612.681,-15.9396"/>
</g>
<!-- player_y_2&#45;&gt;down -->
<g id="edge10" class="edge"><title>player_y_2&#45;&gt;down</title>
<path fill="none" stroke="red" stroke-width="0.298716" d="M995.865,-398.78C871.411,-398.386 375.463,-389.639 284.204,-276.291 272.379,-261.604 272.948,-248.993 284.204,-233.865 317.442,-189.192 351.205,-214.941 404.204,-197.865 416.864,-193.786 430.676,-189.089 442.846,-184.866"/>
<polygon fill="red" stroke="red" stroke-width="0.298716" points="444.333,-188.054 452.62,-181.454 442.025,-181.445 444.333,-188.054"/>
</g>
<!-- player_y_2&#45;&gt;left -->
<g id="edge76" class="edge"><title>player_y_2&#45;&gt;left</title>
<path fill="none" stroke="red" stroke-width="0.190366" d="M1031.98,-390.523C1055.61,-364.641 1122.48,-283.435 1081.2,-233.865 1078.76,-230.928 859.792,-192.155 778.845,-177.907"/>
<polygon fill="red" stroke="red" stroke-width="0.190366" points="779.264,-174.427 768.809,-176.142 778.051,-181.322 779.264,-174.427"/>
</g>
<!-- player_y_2&#45;&gt;right -->
<g id="edge64" class="edge"><title>player_y_2&#45;&gt;right</title>
<path fill="none" stroke="red" stroke-width="0.613973" d="M1022.21,-390.515C1015.09,-363.162 988.215,-274.512 930.204,-233.865 852.651,-179.526 806.743,-236.311 720.204,-197.865 717.83,-196.811 715.479,-195.54 713.192,-194.138"/>
<polygon fill="red" stroke="red" stroke-width="0.613973" points="714.981,-191.118 704.782,-188.251 710.967,-196.853 714.981,-191.118"/>
</g>
<!-- player_y_2&#45;&gt;select -->
<g id="edge43" class="edge"><title>player_y_2&#45;&gt;select</title>
<path fill="none" stroke="green" stroke-width="0.248813" d="M996.004,-395.017C908.195,-382.879 642.426,-341.287 590.204,-276.291 574.814,-257.137 574.12,-228.986 576.832,-206.864"/>
<polygon fill="green" stroke="green" stroke-width="0.248813" points="580.309,-207.275 578.331,-196.866 573.386,-206.237 580.309,-207.275"/>
</g>
<!-- 258 -->
<g id="node19" class="node"><title>258</title>
<ellipse fill="white" stroke="black" cx="1051.2" cy="-255.078" rx="21.4286" ry="21.4286"/>
<text text-anchor="middle" x="1051.2" y="-252.878" font-family="Times,serif" font-size="9.00">258</text>
</g>
<!-- player_y_2&#45;&gt;258 -->
<g id="edge27" class="edge"><title>player_y_2&#45;&gt;258</title>
<path fill="none" stroke="green" stroke-width="0.216927" d="M1025.73,-390.64C1029.47,-370.911 1039.21,-319.454 1045.5,-286.194"/>
<polygon fill="green" stroke="green" stroke-width="0.216927" points="1048.99,-286.575 1047.41,-276.098 1042.12,-285.273 1048.99,-286.575"/>
</g>
<!-- 170 -->
<g id="node20" class="node"><title>170</title>
<ellipse fill="white" stroke="black" cx="1187.2" cy="-333.505" rx="21.4286" ry="21.4286"/>
<text text-anchor="middle" x="1187.2" y="-331.305" font-family="Times,serif" font-size="9.00">170</text>
</g>
<!-- player_y_2&#45;&gt;170 -->
<g id="edge24" class="edge"><title>player_y_2&#45;&gt;170</title>
<path fill="none" stroke="green" stroke-width="0.284237" d="M1052.27,-390.777C1078.61,-382.928 1118.84,-369.913 1152.2,-354.718 1154.9,-353.491 1157.65,-352.119 1160.38,-350.684"/>
<polygon fill="green" stroke="green" stroke-width="0.284237" points="1162.35,-353.594 1169.39,-345.678 1158.95,-347.475 1162.35,-353.594"/>
</g>
<!-- distance_1 -->
<g id="node10" class="node"><title>distance_1</title>
<polygon fill="lightgray" stroke="black" points="682.204,-264.078 628.204,-264.078 628.204,-246.078 682.204,-246.078 682.204,-264.078"/>
<text text-anchor="middle" x="655.204" y="-252.878" font-family="Times,serif" font-size="9.00">distance_1</text>
</g>
<!-- distance_1&#45;&gt;attack -->
<g id="edge38" class="edge"><title>distance_1&#45;&gt;attack</title>
<path fill="none" stroke="green" stroke-width="0.730139" d="M628.125,-247.613C587.49,-237.758 508.438,-217.99 442.204,-197.865 429.478,-193.998 415.651,-189.349 403.488,-185.105"/>
<polygon fill="green" stroke="green" stroke-width="0.730139" points="404.318,-181.686 393.723,-181.661 401.989,-188.287 404.318,-181.686"/>
</g>
<!-- distance_1&#45;&gt;up -->
<g id="edge61" class="edge"><title>distance_1&#45;&gt;up</title>
<path fill="none" stroke="red" stroke-width="0.542468" d="M652.76,-246C643.205,-214.413 608.116,-98.4254 592.176,-45.7381"/>
<polygon fill="red" stroke="red" stroke-width="0.542468" points="595.503,-44.6465 589.257,-36.0884 588.803,-46.6735 595.503,-44.6465"/>
</g>
<!-- distance_1&#45;&gt;down -->
<g id="edge3" class="edge"><title>distance_1&#45;&gt;down</title>
<path fill="none" stroke="red" stroke-width="0.337183" d="M637.486,-245.978C607.861,-232.434 547.827,-204.989 510.228,-187.8"/>
<polygon fill="red" stroke="red" stroke-width="0.337183" points="511.273,-184.429 500.723,-183.454 508.363,-190.795 511.273,-184.429"/>
</g>
<!-- distance_1&#45;&gt;left -->
<g id="edge20" class="edge"><title>distance_1&#45;&gt;left</title>
<path fill="none" stroke="red" stroke-width="0.102976" d="M664.465,-246.077C677.077,-235.18 700.357,-215.058 720.204,-197.865 722.424,-195.942 724.739,-193.935 727.05,-191.931"/>
<polygon fill="red" stroke="red" stroke-width="0.102976" points="729.492,-194.447 734.752,-185.25 724.905,-189.159 729.492,-194.447"/>
</g>
<!-- distance_1&#45;&gt;right -->
<g id="edge30" class="edge"><title>distance_1&#45;&gt;right</title>
<path fill="none" stroke="green" stroke-width="0.245446" d="M658.489,-245.978C662.501,-236.085 669.521,-218.773 675.731,-203.46"/>
<polygon fill="green" stroke="green" stroke-width="0.245446" points="679.14,-204.366 679.655,-193.784 672.653,-201.736 679.14,-204.366"/>
</g>
<!-- distance_1&#45;&gt;select -->
<g id="edge51" class="edge"><title>distance_1&#45;&gt;select</title>
<path fill="none" stroke="green" stroke-width="0.308347" d="M648.137,-245.978C638.672,-235.13 621.425,-215.363 607.228,-199.091"/>
<polygon fill="green" stroke="green" stroke-width="0.308347" points="609.763,-196.673 600.551,-191.438 604.488,-201.275 609.763,-196.673"/>
</g>
<!-- distance_2 -->
<g id="node11" class="node"><title>distance_2</title>
<polygon fill="lightgray" stroke="black" points="953.204,-342.505 899.204,-342.505 899.204,-324.505 953.204,-324.505 953.204,-342.505"/>
<text text-anchor="middle" x="926.204" y="-331.305" font-family="Times,serif" font-size="9.00">distance_2</text>
</g>
<!-- distance_2&#45;&gt;attack -->
<g id="edge25" class="edge"><title>distance_2&#45;&gt;attack</title>
<path fill="none" stroke="green" stroke-width="0.371412" d="M898.785,-332.812C761.29,-334.073 151.237,-336.243 95.204,-276.291 -19.1833,-153.905 32.2185,-266.562 296.204,-197.865 309.307,-194.455 323.434,-189.819 335.737,-185.455"/>
<polygon fill="green" stroke="green" stroke-width="0.371412" points="336.948,-188.739 345.158,-182.043 334.564,-182.158 336.948,-188.739"/>
</g>
<!-- distance_2&#45;&gt;up -->
<g id="edge6" class="edge"><title>distance_2&#45;&gt;up</title>
<path fill="none" stroke="green" stroke-width="0.633254" d="M953.373,-331.577C989.512,-328.706 1052.2,-317.66 1081.2,-276.291 1092.03,-260.852 1088.6,-251.209 1081.2,-233.865 1040.62,-138.712 1005.78,-118.94 913.204,-72.7696 811.564,-22.0775 672.374,-17.7361 612.967,-18.4691"/>
<polygon fill="green" stroke="green" stroke-width="0.633254" points="612.764,-14.9721 602.83,-18.655 612.892,-21.971 612.764,-14.9721"/>
</g>
<!-- distance_2&#45;&gt;down -->
<g id="edge72" class="edge"><title>distance_2&#45;&gt;down</title>
<path fill="none" stroke="green" stroke-width="0.216443" d="M899.025,-331.704C795.529,-328.382 430.162,-314.041 396.204,-276.291 383.593,-262.273 387.799,-250.744 396.204,-233.865 406.304,-213.582 426.694,-198.244 444.488,-188"/>
<polygon fill="green" stroke="green" stroke-width="0.216443" points="446.374,-190.959 453.488,-183.109 443.031,-184.809 446.374,-190.959"/>
</g>
<!-- distance_2&#45;&gt;left -->
<g id="edge62" class="edge"><title>distance_2&#45;&gt;left</title>
<path fill="none" stroke="green" stroke-width="0.160708" d="M930.848,-324.421C940.581,-306.295 960.597,-261.808 940.204,-233.865 920.938,-207.466 827.221,-186.895 778.603,-177.8"/>
<polygon fill="green" stroke="green" stroke-width="0.160708" points="779.143,-174.34 768.676,-175.985 777.884,-181.226 779.143,-174.34"/>
</g>
<!-- distance_2&#45;&gt;right -->
<g id="edge31" class="edge"><title>distance_2&#45;&gt;right</title>
<path fill="none" stroke="green" stroke-width="0.364615" stroke-dasharray="1,5" d="M927.285,-324.226C929.252,-305.297 931.148,-258.589 906.204,-233.865 846.402,-174.59 796.783,-232.872 720.204,-197.865 717.842,-196.785 715.498,-195.497 713.217,-194.082"/>
<polygon fill="green" stroke="green" stroke-width="0.364615" points="715.01,-191.064 704.817,-188.173 710.982,-196.789 715.01,-191.064"/>
</g>
<!-- distance_2&#45;&gt;select -->
<g id="edge14" class="edge"><title>distance_2&#45;&gt;select</title>
<path fill="none" stroke="red" stroke-width="0.19542" d="M899.018,-330.995C831.97,-326.744 661.111,-312.533 619.204,-276.291 599.406,-259.17 590.781,-230.441 587.037,-207.575"/>
<polygon fill="red" stroke="red" stroke-width="0.19542" points="590.486,-206.965 585.638,-197.545 583.553,-207.933 590.486,-206.965"/>
</g>
<!-- distance_2&#45;&gt;258 -->
<g id="edge60" class="edge"><title>distance_2&#45;&gt;258</title>
<path fill="none" stroke="green" stroke-width="0.454174" d="M939.581,-324.326C959.863,-311.925 998.79,-288.125 1024.88,-272.171"/>
<polygon fill="green" stroke="green" stroke-width="0.454174" points="1026.82,-275.089 1033.53,-266.886 1023.17,-269.117 1026.82,-275.089"/>
</g>
<!-- 194&#45;&gt;up -->
<g id="edge57" class="edge"><title>194&#45;&gt;up</title>
<path fill="none" stroke="red" stroke-width="0.202217" d="M267.641,-150.524C270.369,-128.063 278.279,-92.3553 301.204,-72.7696 339.296,-40.2268 491.18,-25.9194 555.351,-21.24"/>
<polygon fill="red" stroke="red" stroke-width="0.202217" points="555.838,-24.7145 565.569,-20.5229 555.348,-17.7317 555.838,-24.7145"/>
</g>
<!-- 194&#45;&gt;30 -->
<g id="edge71" class="edge"><title>194&#45;&gt;30</title>
<path fill="none" stroke="red" stroke-width="0.446318" d="M250.089,-157.378C234.348,-144.363 210.285,-124.467 192.874,-110.072"/>
<polygon fill="red" stroke="red" stroke-width="0.446318" points="194.865,-107.176 184.927,-103.501 190.404,-112.571 194.865,-107.176"/>
</g>
<!-- 258&#45;&gt;right -->
<g id="edge83" class="edge"><title>258&#45;&gt;right</title>
<path fill="none" stroke="green" stroke-width="0.359367" d="M1034.05,-242.338C1028.57,-239.096 1022.33,-235.91 1016.2,-233.865 890.506,-191.878 842.591,-248.702 720.204,-197.865 717.805,-196.869 715.436,-195.64 713.137,-194.266"/>
<polygon fill="green" stroke="green" stroke-width="0.359367" points="714.919,-191.243 704.704,-188.431 710.936,-196.999 714.919,-191.243"/>
</g>
<!-- 258&#45;&gt;48 -->
<g id="edge21" class="edge"><title>258&#45;&gt;48</title>
<path fill="none" stroke="red" stroke-width="0.344071" d="M1033.4,-243.103C1010.11,-228.745 969.211,-203.53 943.201,-187.496"/>
<polygon fill="red" stroke="red" stroke-width="0.344071" points="945.025,-184.508 934.675,-182.24 941.351,-190.467 945.025,-184.508"/>
</g>
<!-- 170&#45;&gt;left -->
<g id="edge37" class="edge"><title>170&#45;&gt;left</title>
<path fill="none" stroke="green" stroke-width="0.355318" stroke-dasharray="1,5" d="M1200.32,-316.503C1216.16,-295.157 1238.22,-257.335 1217.2,-233.865 1168.73,-179.729 964.134,-208.167 892.204,-197.865 852.645,-192.2 807.243,-183.901 778.404,-178.404"/>
<polygon fill="green" stroke="green" stroke-width="0.355318" points="779.051,-174.964 768.57,-176.515 777.731,-181.838 779.051,-174.964"/>
</g>
<!-- 597 -->
<g id="node23" class="node"><title>597</title>
<ellipse fill="white" stroke="black" cx="1187.2" cy="-255.078" rx="21.4286" ry="21.4286"/>
<text text-anchor="middle" x="1187.2" y="-252.878" font-family="Times,serif" font-size="9.00">597</text>
</g>
<!-- 170&#45;&gt;597 -->
<g id="edge77" class="edge"><title>170&#45;&gt;597</title>
<path fill="none" stroke="green" stroke-width="0.1847" d="M1187.2,-312.024C1187.2,-304.165 1187.2,-295.021 1187.2,-286.431"/>
<polygon fill="green" stroke="green" stroke-width="0.1847" points="1190.7,-286.351 1187.2,-276.351 1183.7,-286.351 1190.7,-286.351"/>
</g>
<!-- 48&#45;&gt;up -->
<g id="edge11" class="edge"><title>48&#45;&gt;up</title>
<path fill="none" stroke="red" stroke-width="0.444999" d="M918.693,-153.274C917.047,-131.079 910.711,-93.167 887.204,-72.7696 846.313,-37.2876 680.19,-24.5247 612.806,-20.7488"/>
<polygon fill="red" stroke="red" stroke-width="0.444999" points="612.682,-17.2373 602.509,-20.1994 612.309,-24.2273 612.682,-17.2373"/>
</g>
<!-- 180&#45;&gt;30 -->
<g id="edge52" class="edge"><title>180&#45;&gt;30</title>
<path fill="none" stroke="green" stroke-width="0.164354" d="M139.713,-152.484C145.221,-141.933 152.231,-128.504 158.238,-116.995"/>
<polygon fill="green" stroke="green" stroke-width="0.164354" points="161.469,-118.369 162.993,-107.884 155.263,-115.13 161.469,-118.369"/>
</g>
<!-- 597&#45;&gt;left -->
<g id="edge29" class="edge"><title>597&#45;&gt;left</title>
<path fill="none" stroke="red" stroke-width="0.302219" d="M1170.03,-242.401C1164.55,-239.161 1158.31,-235.961 1152.2,-233.865 1041.87,-195.99 1007.45,-215.977 892.204,-197.865 852.726,-191.661 807.304,-183.491 778.439,-178.169"/>
<polygon fill="red" stroke="red" stroke-width="0.302219" points="779.066,-174.726 768.595,-176.346 777.791,-181.609 779.066,-174.726"/>
</g>
<!-- 30&#45;&gt;up -->
<g id="edge42" class="edge"><title>30&#45;&gt;up</title>
<path fill="none" stroke="green" stroke-width="0.175836" d="M186.324,-80.4971C191.498,-77.5896 197.44,-74.6698 203.204,-72.7696 330.03,-30.9605 491.146,-21.8946 555.634,-19.9289"/>
<polygon fill="green" stroke="green" stroke-width="0.175836" points="555.929,-23.4223 565.831,-19.654 555.74,-16.4248 555.929,-23.4223"/>
</g>
</g>
</svg>
