<?xml version="1.0" encoding="UTF-8" standalone="no"?>
<!DOCTYPE svg PUBLIC "-//W3C//DTD SVG 1.1//EN"
 "http://www.w3.org/Graphics/SVG/1.1/DTD/svg11.dtd">
<!-- Generated by graphviz version 2.38.0 (20140413.2041)
 -->
<!-- Title: %3 Pages: 1 -->
<svg width="989pt" height="193pt"
 viewBox="0.00 0.00 988.87 192.75" xmlns="http://www.w3.org/2000/svg" xmlns:xlink="http://www.w3.org/1999/xlink">
<g id="graph0" class="graph" transform="scale(1 1) rotate(0) translate(4 188.752)">
<title>%3</title>
<polygon fill="white" stroke="none" points="-4,4 -4,-188.752 984.866,-188.752 984.866,4 -4,4"/>
<!-- enemy_hp -->
<g id="node1" class="node"><title>enemy_hp</title>
<polygon fill="lightgray" stroke="black" points="306.153,-118.539 253.153,-118.539 253.153,-100.539 306.153,-100.539 306.153,-118.539"/>
<text text-anchor="middle" x="279.653" y="-107.339" font-family="Times,serif" font-size="9.00">enemy_hp</text>
</g>
<!-- attack -->
<g id="node12" class="node"><title>attack</title>
<ellipse fill="lightblue" stroke="black" cx="242.653" cy="-26.163" rx="26.3269" ry="26.3269"/>
<text text-anchor="middle" x="242.653" y="-23.963" font-family="Times,serif" font-size="9.00">attack</text>
</g>
<!-- enemy_hp&#45;&gt;attack -->
<g id="edge4" class="edge"><title>enemy_hp&#45;&gt;attack</title>
<path fill="none" stroke="red" stroke-width="0.185918" d="M275.97,-100.439C271.652,-90.9413 264.225,-74.6072 257.478,-59.7677"/>
<polygon fill="red" stroke="red" stroke-width="0.185918" points="260.507,-57.9733 253.181,-50.3188 254.134,-60.8707 260.507,-57.9733"/>
</g>
<!-- up -->
<g id="node13" class="node"><title>up</title>
<ellipse fill="lightblue" stroke="black" cx="566.653" cy="-26.163" rx="18.2703" ry="18.2703"/>
<text text-anchor="middle" x="566.653" y="-23.963" font-family="Times,serif" font-size="9.00">up</text>
</g>
<!-- enemy_hp&#45;&gt;up -->
<g id="edge21" class="edge"><title>enemy_hp&#45;&gt;up</title>
<path fill="none" stroke="red" stroke-width="0.628234" d="M291.118,-100.487C297.713,-96.2301 306.322,-91.2872 314.653,-88.3259 409.662,-54.5531 447.671,-95.7956 538.653,-52.3259 541.661,-50.8889 544.581,-49.0259 547.33,-46.9635"/>
<polygon fill="red" stroke="red" stroke-width="0.628234" points="549.664,-49.5722 554.976,-40.4051 545.107,-44.2588 549.664,-49.5722"/>
</g>
<!-- down -->
<g id="node14" class="node"><title>down</title>
<ellipse fill="lightblue" stroke="black" cx="312.653" cy="-26.163" rx="26.3269" ry="26.3269"/>
<text text-anchor="middle" x="312.653" y="-23.963" font-family="Times,serif" font-size="9.00">down</text>
</g>
<!-- enemy_hp&#45;&gt;down -->
<g id="edge38" class="edge"><title>enemy_hp&#45;&gt;down</title>
<path fill="none" stroke="green" stroke-width="0.304416" d="M282.938,-100.439C286.763,-91.0073 293.321,-74.8337 299.306,-60.0771"/>
<polygon fill="green" stroke="green" stroke-width="0.304416" points="302.606,-61.2519 303.121,-50.6696 296.119,-58.6213 302.606,-61.2519"/>
</g>
<!-- left -->
<g id="node15" class="node"><title>left</title>
<ellipse fill="lightblue" stroke="black" cx="445.653" cy="-26.163" rx="19.6" ry="19.6"/>
<text text-anchor="middle" x="445.653" y="-23.963" font-family="Times,serif" font-size="9.00">left</text>
</g>
<!-- enemy_hp&#45;&gt;left -->
<g id="edge20" class="edge"><title>enemy_hp&#45;&gt;left</title>
<path fill="none" stroke="green" stroke-width="0.16863" d="M292.316,-100.468C298.836,-96.5091 307.005,-91.8476 314.653,-88.3259 358.32,-68.2193 375.101,-76.5037 416.653,-52.3259 419.192,-50.8487 421.716,-49.1346 424.154,-47.3089"/>
<polygon fill="green" stroke="green" stroke-width="0.16863" points="426.509,-49.904 432.018,-40.8537 422.068,-44.4936 426.509,-49.904"/>
</g>
<!-- right -->
<g id="node16" class="node"><title>right</title>
<ellipse fill="lightblue" stroke="black" cx="506.653" cy="-26.163" rx="23.1702" ry="23.1702"/>
<text text-anchor="middle" x="506.653" y="-23.963" font-family="Times,serif" font-size="9.00">right</text>
</g>
<!-- enemy_hp&#45;&gt;right -->
<g id="edge66" class="edge"><title>enemy_hp&#45;&gt;right</title>
<path fill="none" stroke="green" stroke-width="0.127992" d="M291.509,-100.485C298.084,-96.3341 306.549,-91.4927 314.653,-88.3259 382.543,-61.797 408.826,-83.6249 474.653,-52.3259 476.999,-51.2106 479.33,-49.897 481.604,-48.4649"/>
<polygon fill="green" stroke="green" stroke-width="0.127992" points="483.853,-51.161 489.989,-42.5239 479.806,-45.4493 483.853,-51.161"/>
</g>
<!-- select -->
<g id="node17" class="node"><title>select</title>
<ellipse fill="lightblue" stroke="black" cx="382.653" cy="-26.163" rx="25.4118" ry="25.4118"/>
<text text-anchor="middle" x="382.653" y="-23.963" font-family="Times,serif" font-size="9.00">select</text>
</g>
<!-- enemy_hp&#45;&gt;select -->
<g id="edge53" class="edge"><title>enemy_hp&#45;&gt;select</title>
<path fill="none" stroke="red" stroke-width="0.184611" d="M289.906,-100.439C304.909,-88.5852 333.392,-66.082 354.853,-49.1267"/>
<polygon fill="red" stroke="red" stroke-width="0.184611" points="357.303,-51.6514 362.98,-42.7057 352.964,-46.1587 357.303,-51.6514"/>
</g>
<!-- player_hp_1 -->
<g id="node2" class="node"><title>player_hp_1</title>
<polygon fill="lightgray" stroke="black" points="385.153,-118.539 324.153,-118.539 324.153,-100.539 385.153,-100.539 385.153,-118.539"/>
<text text-anchor="middle" x="354.653" y="-107.339" font-family="Times,serif" font-size="9.00">player_hp_1</text>
</g>
<!-- player_hp_1&#45;&gt;attack -->
<g id="edge18" class="edge"><title>player_hp_1&#45;&gt;attack</title>
<path fill="none" stroke="red" stroke-width="0.265707" d="M343.505,-100.439C326.947,-88.4087 295.293,-65.4094 271.845,-48.373"/>
<polygon fill="red" stroke="red" stroke-width="0.265707" points="273.768,-45.4441 263.621,-42.3976 269.654,-51.1071 273.768,-45.4441"/>
</g>
<!-- player_hp_1&#45;&gt;up -->
<g id="edge42" class="edge"><title>player_hp_1&#45;&gt;up</title>
<path fill="none" stroke="green" stroke-width="0.278738" d="M368.368,-100.422C375.683,-96.3547 384.948,-91.6101 393.653,-88.3259 455.78,-64.8872 479.994,-83.4422 538.653,-52.3259 541.45,-50.8424 544.19,-49.0195 546.796,-47.0386"/>
<polygon fill="green" stroke="green" stroke-width="0.278738" points="549.24,-49.5545 554.564,-40.395 544.69,-44.2346 549.24,-49.5545"/>
</g>
<!-- player_hp_1&#45;&gt;down -->
<g id="edge41" class="edge"><title>player_hp_1&#45;&gt;down</title>
<path fill="none" stroke="red" stroke-width="0.268106" d="M350.472,-100.439C345.455,-90.7177 336.741,-73.8342 328.941,-58.7221"/>
<polygon fill="red" stroke="red" stroke-width="0.268106" points="331.941,-56.9025 324.244,-49.6215 325.721,-60.113 331.941,-56.9025"/>
</g>
<!-- player_hp_1&#45;&gt;left -->
<g id="edge55" class="edge"><title>player_hp_1&#45;&gt;left</title>
<path fill="none" stroke="green" stroke-width="0.15623" d="M363.711,-100.439C377.558,-88.0569 404.398,-64.0551 423.588,-46.8943"/>
<polygon fill="green" stroke="green" stroke-width="0.15623" points="426.163,-49.2873 431.284,-40.0123 421.497,-44.0693 426.163,-49.2873"/>
</g>
<!-- player_hp_1&#45;&gt;right -->
<g id="edge9" class="edge"><title>player_hp_1&#45;&gt;right</title>
<path fill="none" stroke="green" stroke-width="0.149827" d="M369.734,-100.455C376.925,-96.669 385.68,-92.1594 393.653,-88.3259 429.157,-71.2542 440.91,-72.6579 474.653,-52.3259 476.825,-51.0174 479.016,-49.5814 481.179,-48.0795"/>
<polygon fill="green" stroke="green" stroke-width="0.149827" points="483.32,-50.8496 489.279,-42.0894 479.157,-45.2214 483.32,-50.8496"/>
</g>
<!-- player_hp_1&#45;&gt;select -->
<g id="edge14" class="edge"><title>player_hp_1&#45;&gt;select</title>
<path fill="none" stroke="green" stroke-width="0.221915" d="M357.44,-100.439C360.654,-91.0971 366.145,-75.1412 371.183,-60.4991"/>
<polygon fill="green" stroke="green" stroke-width="0.221915" points="374.621,-61.2643 374.565,-50.6696 368.002,-58.9867 374.621,-61.2643"/>
</g>
<!-- player_hp_2 -->
<g id="node3" class="node"><title>player_hp_2</title>
<polygon fill="lightgray" stroke="black" points="464.153,-118.539 403.153,-118.539 403.153,-100.539 464.153,-100.539 464.153,-118.539"/>
<text text-anchor="middle" x="433.653" y="-107.339" font-family="Times,serif" font-size="9.00">player_hp_2</text>
</g>
<!-- player_hp_2&#45;&gt;attack -->
<g id="edge59" class="edge"><title>player_hp_2&#45;&gt;attack</title>
<path fill="none" stroke="green" stroke-width="1.02203" d="M419.109,-100.451C411.639,-96.4876 402.309,-91.8274 393.653,-88.3259 343.611,-68.0822 325.972,-76.3934 277.653,-52.3259 275.585,-51.2957 273.506,-50.148 271.45,-48.9261"/>
<polygon fill="green" stroke="green" stroke-width="1.02203" points="272.972,-45.7412 262.68,-43.2284 269.159,-51.6113 272.972,-45.7412"/>
</g>
<!-- player_hp_2&#45;&gt;up -->
<g id="edge45" class="edge"><title>player_hp_2&#45;&gt;up</title>
<path fill="none" stroke="green" stroke-width="0.602883" d="M449.388,-100.381C476.669,-86.1992 530.613,-57.967 538.653,-52.3259 541.161,-50.5663 543.689,-48.6075 546.146,-46.5813"/>
<polygon fill="green" stroke="green" stroke-width="0.602883" points="548.874,-48.8454 554.093,-39.6251 544.263,-43.5783 548.874,-48.8454"/>
</g>
<!-- player_hp_2&#45;&gt;down -->
<g id="edge29" class="edge"><title>player_hp_2&#45;&gt;down</title>
<path fill="none" stroke="red" stroke-width="0.43989" d="M421.199,-100.446C404.575,-89.6113 374.256,-69.7354 348.653,-52.3259 346.556,-50.9002 344.397,-49.4204 342.227,-47.9245"/>
<polygon fill="red" stroke="red" stroke-width="0.43989" points="344.122,-44.9798 333.911,-42.1563 340.133,-50.7316 344.122,-44.9798"/>
</g>
<!-- player_hp_2&#45;&gt;left -->
<g id="edge15" class="edge"><title>player_hp_2&#45;&gt;left</title>
<path fill="none" stroke="red" stroke-width="0.449474" d="M434.847,-100.439C436.36,-90.1825 439.048,-71.9535 441.365,-56.2438"/>
<polygon fill="red" stroke="red" stroke-width="0.449474" points="444.894,-56.303 442.89,-45.8993 437.969,-55.2817 444.894,-56.303"/>
</g>
<!-- player_hp_2&#45;&gt;right -->
<g id="edge67" class="edge"><title>player_hp_2&#45;&gt;right</title>
<path fill="none" stroke="green" stroke-width="0.202631" d="M440.919,-100.439C450.961,-89.2454 469.521,-68.5555 484.365,-52.0084"/>
<polygon fill="green" stroke="green" stroke-width="0.202631" points="487.227,-54.0588 491.3,-44.2779 482.017,-49.3845 487.227,-54.0588"/>
</g>
<!-- player_hp_2&#45;&gt;select -->
<g id="edge26" class="edge"><title>player_hp_2&#45;&gt;select</title>
<path fill="none" stroke="green" stroke-width="0.147961" d="M428.576,-100.439C422.258,-90.3572 411.112,-72.5719 401.383,-57.0484"/>
<polygon fill="green" stroke="green" stroke-width="0.147961" points="404.142,-54.8598 395.866,-48.245 398.21,-58.5771 404.142,-54.8598"/>
</g>
<!-- enemy_x -->
<g id="node4" class="node"><title>enemy_x</title>
<polygon fill="lightgray" stroke="black" points="531.153,-118.539 482.153,-118.539 482.153,-100.539 531.153,-100.539 531.153,-118.539"/>
<text text-anchor="middle" x="506.653" y="-107.339" font-family="Times,serif" font-size="9.00">enemy_x</text>
</g>
<!-- enemy_x&#45;&gt;attack -->
<g id="edge48" class="edge"><title>enemy_x&#45;&gt;attack</title>
<path fill="none" stroke="red" stroke-width="0.476896" d="M495.214,-100.348C488.85,-96.1574 480.624,-91.3213 472.653,-88.3259 390.155,-57.3237 358.726,-86.8845 277.653,-52.3259 275.527,-51.4198 273.406,-50.3663 271.317,-49.2141"/>
<polygon fill="red" stroke="red" stroke-width="0.476896" points="272.805,-46.0163 262.47,-43.6816 269.093,-51.9514 272.805,-46.0163"/>
</g>
<!-- enemy_x&#45;&gt;up -->
<g id="edge63" class="edge"><title>enemy_x&#45;&gt;up</title>
<path fill="none" stroke="red" stroke-width="0.171928" d="M512.625,-100.439C521.258,-88.7309 537.551,-66.6337 549.996,-49.7545"/>
<polygon fill="red" stroke="red" stroke-width="0.171928" points="552.975,-51.6119 556.092,-41.4861 547.341,-47.4578 552.975,-51.6119"/>
</g>
<!-- enemy_x&#45;&gt;down -->
<g id="edge11" class="edge"><title>enemy_x&#45;&gt;down</title>
<path fill="none" stroke="green" stroke-width="0.605476" d="M494.776,-100.464C488.42,-96.4083 480.338,-91.6613 472.653,-88.3259 420.01,-65.4793 400.419,-77.0955 348.653,-52.3259 346.306,-51.2027 343.945,-49.9319 341.615,-48.5727"/>
<polygon fill="green" stroke="green" stroke-width="0.605476" points="343.198,-45.4317 332.882,-43.018 339.441,-51.3382 343.198,-45.4317"/>
</g>
<!-- enemy_x&#45;&gt;left -->
<g id="edge25" class="edge"><title>enemy_x&#45;&gt;left</title>
<path fill="none" stroke="red" stroke-width="0.524006" d="M500.581,-100.439C491.959,-88.9363 475.819,-67.4058 463.257,-50.6476"/>
<polygon fill="red" stroke="red" stroke-width="0.524006" points="465.872,-48.2998 457.073,-42.3976 460.27,-52.4984 465.872,-48.2998"/>
</g>
<!-- enemy_x&#45;&gt;right -->
<g id="edge54" class="edge"><title>enemy_x&#45;&gt;right</title>
<path fill="none" stroke="red" stroke-width="0.169112" d="M506.653,-100.439C506.653,-90.9929 506.653,-74.7841 506.653,-60.0093"/>
<polygon fill="red" stroke="red" stroke-width="0.169112" points="510.153,-59.6215 506.653,-49.6215 503.153,-59.6215 510.153,-59.6215"/>
</g>
<!-- enemy_x&#45;&gt;select -->
<g id="edge1" class="edge"><title>enemy_x&#45;&gt;select</title>
<path fill="none" stroke="red" stroke-width="0.128115" d="M493.022,-100.484C475.206,-89.8513 443.15,-70.365 416.653,-52.3259 414.779,-51.05 412.862,-49.7158 410.94,-48.356"/>
<polygon fill="red" stroke="red" stroke-width="0.128115" points="412.756,-45.3497 402.6,-42.3312 408.657,-51.0241 412.756,-45.3497"/>
</g>
<!-- enemy_y -->
<g id="node5" class="node"><title>enemy_y</title>
<polygon fill="lightgray" stroke="black" points="598.153,-118.539 549.153,-118.539 549.153,-100.539 598.153,-100.539 598.153,-118.539"/>
<text text-anchor="middle" x="573.653" y="-107.339" font-family="Times,serif" font-size="9.00">enemy_y</text>
</g>
<!-- enemy_y&#45;&gt;attack -->
<g id="edge36" class="edge"><title>enemy_y&#45;&gt;attack</title>
<path fill="none" stroke="green" stroke-width="0.177788" d="M562.573,-100.406C556.185,-96.1238 547.82,-91.1825 539.653,-88.3259 428.705,-49.5209 386.81,-95.9165 277.653,-52.3259 275.507,-51.469 273.37,-50.4527 271.27,-49.3281"/>
<polygon fill="green" stroke="green" stroke-width="0.177788" points="272.746,-46.1265 262.396,-43.861 269.074,-52.0862 272.746,-46.1265"/>
</g>
<!-- enemy_y&#45;&gt;up -->
<g id="edge22" class="edge"><title>enemy_y&#45;&gt;up</title>
<path fill="none" stroke="red" stroke-width="0.11346" d="M572.956,-100.439C572.043,-89.8201 570.394,-70.6552 569.012,-54.5883"/>
<polygon fill="red" stroke="red" stroke-width="0.11346" points="572.497,-54.2615 568.153,-44.5983 565.523,-54.8615 572.497,-54.2615"/>
</g>
<!-- enemy_y&#45;&gt;down -->
<g id="edge69" class="edge"><title>enemy_y&#45;&gt;down</title>
<path fill="none" stroke="green" stroke-width="0.356804" stroke-dasharray="1,5" d="M562.21,-100.36C555.844,-96.1727 547.618,-91.3362 539.653,-88.3259 458.848,-57.7874 428.279,-85.8192 348.653,-52.3259 346.169,-51.2809 343.684,-50.0449 341.247,-48.6904"/>
<polygon fill="green" stroke="green" stroke-width="0.356804" points="343.055,-45.6931 332.712,-43.3967 339.365,-51.6418 343.055,-45.6931"/>
</g>
<!-- enemy_y&#45;&gt;left -->
<g id="edge51" class="edge"><title>enemy_y&#45;&gt;left</title>
<path fill="none" stroke="green" stroke-width="0.388494" d="M560.142,-100.378C553.927,-96.6577 546.443,-92.2231 539.653,-88.3259 511.012,-71.8861 501.716,-71.2504 474.653,-52.3259 472.246,-50.6428 469.808,-48.7936 467.422,-46.8854"/>
<polygon fill="green" stroke="green" stroke-width="0.388494" points="469.531,-44.0855 459.626,-40.3258 465.024,-49.4419 469.531,-44.0855"/>
</g>
<!-- enemy_y&#45;&gt;right -->
<g id="edge32" class="edge"><title>enemy_y&#45;&gt;right</title>
<path fill="none" stroke="red" stroke-width="0.101932" d="M566.984,-100.439C557.908,-89.4156 541.249,-69.1826 527.733,-52.7662"/>
<polygon fill="red" stroke="red" stroke-width="0.101932" points="530.066,-50.0937 521.008,-44.5983 524.662,-54.5431 530.066,-50.0937"/>
</g>
<!-- enemy_y&#45;&gt;select -->
<g id="edge7" class="edge"><title>enemy_y&#45;&gt;select</title>
<path fill="none" stroke="red" stroke-width="0.101621" d="M561.773,-100.471C555.417,-96.417 547.335,-91.6696 539.653,-88.3259 487.426,-65.5924 467.669,-77.6606 416.653,-52.3259 414.622,-51.3174 412.587,-50.1862 410.577,-48.9765"/>
<polygon fill="red" stroke="red" stroke-width="0.101621" points="412.297,-45.9174 402.029,-43.3078 408.429,-51.7513 412.297,-45.9174"/>
</g>
<!-- player_x_1 -->
<g id="node6" class="node"><title>player_x_1</title>
<polygon fill="lightgray" stroke="black" points="672.653,-118.539 616.653,-118.539 616.653,-100.539 672.653,-100.539 672.653,-118.539"/>
<text text-anchor="middle" x="644.653" y="-107.339" font-family="Times,serif" font-size="9.00">player_x_1</text>
</g>
<!-- player_x_1&#45;&gt;attack -->
<g id="edge24" class="edge"><title>player_x_1&#45;&gt;attack</title>
<path fill="none" stroke="red" stroke-width="0.389543" d="M632.857,-100.538C625.842,-96.1867 616.592,-91.1334 607.653,-88.3259 466.896,-44.1158 415.418,-105.126 277.653,-52.3259 275.495,-51.499 273.349,-50.5055 271.243,-49.3977"/>
<polygon fill="red" stroke="red" stroke-width="0.389543" points="272.712,-46.1941 262.353,-43.9705 269.065,-52.1687 272.712,-46.1941"/>
</g>
<!-- player_x_1&#45;&gt;up -->
<g id="edge39" class="edge"><title>player_x_1&#45;&gt;up</title>
<path fill="none" stroke="red" stroke-width="0.17127" d="M636.889,-100.439C625.127,-88.1674 602.424,-64.4827 586.008,-47.3556"/>
<polygon fill="red" stroke="red" stroke-width="0.17127" points="588.416,-44.8097 578.969,-40.0123 583.362,-49.6535 588.416,-44.8097"/>
</g>
<!-- player_x_1&#45;&gt;down -->
<g id="edge17" class="edge"><title>player_x_1&#45;&gt;down</title>
<path fill="none" stroke="green" stroke-width="0.249731" d="M632.494,-100.434C625.51,-96.1606 616.41,-91.2188 607.653,-88.3259 497.301,-51.8719 456.834,-94.793 348.653,-52.3259 346.144,-51.3411 343.642,-50.1486 341.192,-48.8245"/>
<polygon fill="green" stroke="green" stroke-width="0.249731" points="342.99,-45.8215 332.633,-43.5892 339.338,-51.793 342.99,-45.8215"/>
</g>
<!-- player_x_1&#45;&gt;left -->
<g id="edge8" class="edge"><title>player_x_1&#45;&gt;left</title>
<path fill="none" stroke="red" stroke-width="0.138451" d="M631.664,-100.46C624.73,-96.403 615.939,-91.6562 607.653,-88.3259 550.833,-65.488 528.7,-81.1196 474.653,-52.3259 472.061,-50.9449 469.502,-49.2938 467.041,-47.5066"/>
<polygon fill="red" stroke="red" stroke-width="0.138451" points="469.12,-44.6862 459.151,-41.1001 464.708,-50.1206 469.12,-44.6862"/>
</g>
<!-- player_x_1&#45;&gt;right -->
<g id="edge30" class="edge"><title>player_x_1&#45;&gt;right</title>
<path fill="none" stroke="red" stroke-width="0.533485" d="M629.913,-100.429C623.143,-96.719 615.002,-92.2784 607.653,-88.3259 577.536,-72.1283 568.458,-70.7557 539.653,-52.3259 537.423,-50.8989 535.153,-49.3631 532.9,-47.7791"/>
<polygon fill="red" stroke="red" stroke-width="0.533485" points="534.555,-44.6523 524.422,-41.5591 530.415,-50.2964 534.555,-44.6523"/>
</g>
<!-- player_x_1&#45;&gt;select -->
<g id="edge46" class="edge"><title>player_x_1&#45;&gt;select</title>
<path fill="none" stroke="green" stroke-width="0.228103" d="M632.103,-100.395C625.148,-96.2175 616.2,-91.3797 607.653,-88.3259 526.306,-59.2619 495.818,-86.8947 416.653,-52.3259 414.52,-51.3947 412.395,-50.3085 410.307,-49.1199"/>
<polygon fill="green" stroke="green" stroke-width="0.228103" points="411.791,-45.9111 401.494,-43.4169 407.988,-51.788 411.791,-45.9111"/>
</g>
<!-- player_y_1 -->
<g id="node7" class="node"><title>player_y_1</title>
<polygon fill="lightgray" stroke="black" points="746.653,-118.539 690.653,-118.539 690.653,-100.539 746.653,-100.539 746.653,-118.539"/>
<text text-anchor="middle" x="718.653" y="-107.339" font-family="Times,serif" font-size="9.00">player_y_1</text>
</g>
<!-- player_y_1&#45;&gt;attack -->
<g id="edge12" class="edge"><title>player_y_1&#45;&gt;attack</title>
<path fill="none" stroke="green" stroke-width="0.207422" d="M706.877,-100.472C699.869,-96.0981 690.619,-91.0448 681.653,-88.3259 509.144,-36.0122 446.611,-115.171 277.653,-52.3259 275.487,-51.5204 273.335,-50.5431 271.224,-49.4473"/>
<polygon fill="green" stroke="green" stroke-width="0.207422" points="272.689,-46.2424 262.324,-44.0486 269.059,-52.2274 272.689,-46.2424"/>
</g>
<!-- player_y_1&#45;&gt;up -->
<g id="edge64" class="edge"><title>player_y_1&#45;&gt;up</title>
<path fill="none" stroke="green" stroke-width="0.420175" d="M703.91,-100.436C697.139,-96.7268 688.998,-92.2854 681.653,-88.3259 650.687,-71.6334 614.889,-52.6423 591.567,-40.3104"/>
<polygon fill="green" stroke="green" stroke-width="0.420175" points="593.159,-37.1934 582.683,-35.6158 589.889,-43.3824 593.159,-37.1934"/>
</g>
<!-- player_y_1&#45;&gt;down -->
<g id="edge49" class="edge"><title>player_y_1&#45;&gt;down</title>
<path fill="none" stroke="green" stroke-width="0.173288" d="M706.858,-100.535C699.843,-96.1824 690.593,-91.1291 681.653,-88.3259 539.61,-43.7876 488.032,-104.608 348.653,-52.3259 346.13,-51.3794 343.617,-50.2145 341.16,-48.9098"/>
<polygon fill="green" stroke="green" stroke-width="0.173288" points="342.952,-45.9035 332.586,-43.7117 339.323,-51.8892 342.952,-45.9035"/>
</g>
<!-- player_y_1&#45;&gt;left -->
<g id="edge33" class="edge"><title>player_y_1&#45;&gt;left</title>
<path fill="none" stroke="green" stroke-width="0.22038" d="M706.12,-100.346C699.17,-96.1553 690.222,-91.3193 681.653,-88.3259 593.497,-57.5285 559.003,-92.3903 474.653,-52.3259 471.853,-50.996 469.114,-49.3191 466.505,-47.465"/>
<polygon fill="green" stroke="green" stroke-width="0.22038" points="468.677,-44.7206 458.703,-41.1468 464.272,-50.1604 468.677,-44.7206"/>
</g>
<!-- player_y_1&#45;&gt;right -->
<g id="edge5" class="edge"><title>player_y_1&#45;&gt;right</title>
<path fill="none" stroke="red" stroke-width="0.489218" d="M705.686,-100.405C698.758,-96.3333 689.965,-91.5896 681.653,-88.3259 621.049,-64.5305 598.283,-80.6382 539.653,-52.3259 537.269,-51.1745 534.889,-49.8352 532.561,-48.3855"/>
<polygon fill="red" stroke="red" stroke-width="0.489218" points="534.158,-45.2333 523.945,-42.4122 530.169,-50.9861 534.158,-45.2333"/>
</g>
<!-- player_y_1&#45;&gt;select -->
<g id="edge56" class="edge"><title>player_y_1&#45;&gt;select</title>
<path fill="none" stroke="red" stroke-width="0.371744" d="M706.498,-100.423C699.515,-96.1469 690.415,-91.2053 681.653,-88.3259 568.735,-51.2175 526.764,-97.083 416.653,-52.3259 414.497,-51.4497 412.354,-50.4048 410.254,-49.2465"/>
<polygon fill="red" stroke="red" stroke-width="0.371744" points="411.726,-46.0342 401.411,-43.6131 407.965,-51.938 411.726,-46.0342"/>
</g>
<!-- player_x_2 -->
<g id="node8" class="node"><title>player_x_2</title>
<polygon fill="lightgray" stroke="black" points="90.653,-118.539 34.653,-118.539 34.653,-100.539 90.653,-100.539 90.653,-118.539"/>
<text text-anchor="middle" x="62.653" y="-107.339" font-family="Times,serif" font-size="9.00">player_x_2</text>
</g>
<!-- player_x_2&#45;&gt;attack -->
<g id="edge68" class="edge"><title>player_x_2&#45;&gt;attack</title>
<path fill="none" stroke="green" stroke-width="0.591272" d="M76.8942,-100.343C83.7022,-96.533 92.0152,-92.035 99.653,-88.3259 136.533,-70.416 179.969,-52.2354 209.212,-40.4054"/>
<polygon fill="green" stroke="green" stroke-width="0.591272" points="210.583,-43.6262 218.554,-36.6466 207.971,-37.1321 210.583,-43.6262"/>
</g>
<!-- player_x_2&#45;&gt;up -->
<g id="edge16" class="edge"><title>player_x_2&#45;&gt;up</title>
<path fill="none" stroke="green" stroke-width="0.158254" d="M74.4214,-100.448C81.4275,-96.0665 90.6775,-91.0132 99.653,-88.3259 287.194,-32.1753 358.875,-129.813 538.653,-52.3259 541.714,-51.0066 544.667,-49.2143 547.433,-47.1898"/>
<polygon fill="green" stroke="green" stroke-width="0.158254" points="549.752,-49.8114 555.092,-40.6605 545.211,-44.4841 549.752,-49.8114"/>
</g>
<!-- player_x_2&#45;&gt;down -->
<g id="edge35" class="edge"><title>player_x_2&#45;&gt;down</title>
<path fill="none" stroke="green" stroke-width="0.124696" d="M75.2189,-100.44C82.1788,-96.2759 91.1262,-91.4363 99.653,-88.3259 175.479,-60.6665 203.676,-84.6054 277.653,-52.3259 279.771,-51.4018 281.887,-50.3346 283.971,-49.1723"/>
<polygon fill="green" stroke="green" stroke-width="0.124696" points="286.205,-51.9019 292.807,-43.6158 282.479,-45.9761 286.205,-51.9019"/>
</g>
<!-- player_x_2&#45;&gt;left -->
<g id="edge58" class="edge"><title>player_x_2&#45;&gt;left</title>
<path fill="none" stroke="red" stroke-width="0.346069" d="M74.7842,-100.349C81.7596,-96.0491 90.8602,-91.109 99.653,-88.3259 234.838,-45.5377 286.83,-109.35 416.653,-52.3259 419.491,-51.0794 422.255,-49.4555 424.878,-47.6324"/>
<polygon fill="red" stroke="red" stroke-width="0.346069" points="427.094,-50.3417 432.695,-41.3484 422.708,-44.8859 427.094,-50.3417"/>
</g>
<!-- player_x_2&#45;&gt;right -->
<g id="edge60" class="edge"><title>player_x_2&#45;&gt;right</title>
<path fill="none" stroke="red" stroke-width="0.119214" d="M74.4355,-100.495C81.4464,-96.1288 90.6964,-91.0755 99.653,-88.3259 259.714,-39.1896 319.228,-114.591 474.653,-52.3259 477.064,-51.36 479.442,-50.1529 481.747,-48.7937"/>
<polygon fill="red" stroke="red" stroke-width="0.119214" points="483.935,-51.5371 490.191,-42.9864 479.968,-45.7695 483.935,-51.5371"/>
</g>
<!-- player_x_2&#45;&gt;select -->
<g id="edge40" class="edge"><title>player_x_2&#45;&gt;select</title>
<path fill="none" stroke="red" stroke-width="0.368268" d="M74.8185,-100.454C81.8046,-96.1875 90.9045,-91.2453 99.653,-88.3259 205.303,-53.0707 244.376,-94.0246 347.653,-52.3259 350.169,-51.3102 352.674,-50.0777 355.12,-48.71"/>
<polygon fill="red" stroke="red" stroke-width="0.368268" points="357.068,-51.6195 363.643,-43.3114 353.322,-45.7061 357.068,-51.6195"/>
</g>
<!-- player_y_2 -->
<g id="node9" class="node"><title>player_y_2</title>
<polygon fill="lightgray" stroke="black" points="840.653,-184.752 784.653,-184.752 784.653,-166.752 840.653,-166.752 840.653,-184.752"/>
<text text-anchor="middle" x="812.653" y="-173.552" font-family="Times,serif" font-size="9.00">player_y_2</text>
</g>
<!-- player_y_2&#45;&gt;attack -->
<g id="edge47" class="edge"><title>player_y_2&#45;&gt;attack</title>
<path fill="none" stroke="red" stroke-width="0.104904" d="M784.31,-174.274C645.14,-171.788 39.7251,-159.354 12.653,-130.752 -47.7779,-66.9064 127.98,-39.4945 206.678,-30.6349"/>
<polygon fill="red" stroke="red" stroke-width="0.104904" points="207.097,-34.1101 216.661,-29.5522 206.342,-27.151 207.097,-34.1101"/>
</g>
<!-- player_y_2&#45;&gt;up -->
<g id="edge31" class="edge"><title>player_y_2&#45;&gt;up</title>
<path fill="none" stroke="red" stroke-width="0.1576" stroke-dasharray="1,5" d="M817.648,-166.584C827.117,-149.935 845.151,-111.68 826.653,-88.3259 797.999,-52.1486 656.718,-35.2528 595.276,-29.5258"/>
<polygon fill="red" stroke="red" stroke-width="0.1576" points="595.387,-26.0218 585.114,-28.6133 594.761,-32.9937 595.387,-26.0218"/>
</g>
<!-- player_y_2&#45;&gt;down -->
<g id="edge10" class="edge"><title>player_y_2&#45;&gt;down</title>
<path fill="none" stroke="green" stroke-width="0.265863" d="M784.315,-174.247C646.546,-171.656 52.2444,-158.872 25.653,-130.752 12.6972,-117.052 13.2984,-102.571 25.653,-88.3259 62.7168,-45.591 225.175,-73.4454 277.653,-52.3259 279.797,-51.4632 281.932,-50.4427 284.031,-49.3148"/>
<polygon fill="green" stroke="green" stroke-width="0.265863" points="286.23,-52.0705 292.901,-43.8401 282.553,-46.1136 286.23,-52.0705"/>
</g>
<!-- player_y_2&#45;&gt;left -->
<g id="edge61" class="edge"><title>player_y_2&#45;&gt;left</title>
<path fill="none" stroke="green" stroke-width="0.386237" d="M808.479,-166.704C798.168,-147.149 771.21,-98.0269 755.653,-88.3259 648.814,-21.7019 589.566,-103.787 474.653,-52.3259 471.824,-51.059 469.066,-49.4222 466.447,-47.5916"/>
<polygon fill="green" stroke="green" stroke-width="0.386237" points="468.617,-44.8455 458.633,-41.2992 464.226,-50.2974 468.617,-44.8455"/>
</g>
<!-- player_y_2&#45;&gt;right -->
<g id="edge52" class="edge"><title>player_y_2&#45;&gt;right</title>
<path fill="none" stroke="green" stroke-width="0.378458" d="M813.08,-166.591C813.497,-149.258 811.798,-108.698 788.653,-88.3259 704.718,-14.4478 642.751,-95.6143 539.653,-52.3259 536.975,-51.2015 534.322,-49.8073 531.753,-48.256"/>
<polygon fill="green" stroke="green" stroke-width="0.378458" points="533.651,-45.3134 523.425,-42.5413 529.69,-51.0852 533.651,-45.3134"/>
</g>
<!-- 128 -->
<g id="node18" class="node"><title>128</title>
<ellipse fill="white" stroke="black" cx="899.653" cy="-109.539" rx="21.4286" ry="21.4286"/>
<text text-anchor="middle" x="899.653" y="-107.339" font-family="Times,serif" font-size="9.00">128</text>
</g>
<!-- player_y_2&#45;&gt;128 -->
<g id="edge62" class="edge"><title>player_y_2&#45;&gt;128</title>
<path fill="none" stroke="green" stroke-width="0.142677" d="M823.672,-166.62C836.365,-157.251 857.631,-141.555 874.442,-129.147"/>
<polygon fill="green" stroke="green" stroke-width="0.142677" points="876.79,-131.764 882.758,-123.009 872.633,-126.132 876.79,-131.764"/>
</g>
<!-- 140 -->
<g id="node19" class="node"><title>140</title>
<ellipse fill="white" stroke="black" cx="959.653" cy="-109.539" rx="21.4286" ry="21.4286"/>
<text text-anchor="middle" x="959.653" y="-107.339" font-family="Times,serif" font-size="9.00">140</text>
</g>
<!-- player_y_2&#45;&gt;140 -->
<g id="edge65" class="edge"><title>player_y_2&#45;&gt;140</title>
<path fill="none" stroke="green" stroke-width="0.340637" d="M839.429,-166.661C863.646,-158.886 899.953,-146.075 929.653,-130.752 931.188,-129.96 932.739,-129.105 934.286,-128.21"/>
<polygon fill="green" stroke="green" stroke-width="0.340637" points="936.319,-131.067 942.942,-122.798 932.608,-125.131 936.319,-131.067"/>
</g>
<!-- distance_1 -->
<g id="node10" class="node"><title>distance_1</title>
<polygon fill="lightgray" stroke="black" points="162.653,-118.539 108.653,-118.539 108.653,-100.539 162.653,-100.539 162.653,-118.539"/>
<text text-anchor="middle" x="135.653" y="-107.339" font-family="Times,serif" font-size="9.00">distance_1</text>
</g>
<!-- distance_1&#45;&gt;attack -->
<g id="edge34" class="edge"><title>distance_1&#45;&gt;attack</title>
<path fill="none" stroke="green" stroke-width="0.623279" d="M146.304,-100.439C161.959,-88.5327 191.741,-65.8826 214.069,-48.9019"/>
<polygon fill="green" stroke="green" stroke-width="0.623279" points="216.375,-51.5451 222.216,-42.7057 212.138,-45.9734 216.375,-51.5451"/>
</g>
<!-- distance_1&#45;&gt;up -->
<g id="edge50" class="edge"><title>distance_1&#45;&gt;up</title>
<path fill="none" stroke="green" stroke-width="0.357568" d="M147.089,-100.497C153.901,-96.1317 162.901,-91.0784 171.653,-88.3259 327.998,-39.1571 388.666,-118.396 538.653,-52.3259 541.703,-50.9822 544.65,-49.1752 547.412,-47.1429"/>
<polygon fill="green" stroke="green" stroke-width="0.357568" points="549.735,-49.7618 555.069,-40.6076 545.191,-44.4374 549.735,-49.7618"/>
</g>
<!-- distance_1&#45;&gt;down -->
<g id="edge2" class="edge"><title>distance_1&#45;&gt;down</title>
<path fill="none" stroke="green" stroke-width="0.102783" d="M148.687,-100.453C155.396,-96.4897 163.797,-91.8293 171.653,-88.3259 217.093,-68.0606 233.415,-75.0964 277.653,-52.3259 279.707,-51.2684 281.775,-50.1 283.824,-48.8628"/>
<polygon fill="green" stroke="green" stroke-width="0.102783" points="286.129,-51.5366 292.576,-43.1288 282.293,-45.6813 286.129,-51.5366"/>
</g>
<!-- distance_1&#45;&gt;left -->
<g id="edge19" class="edge"><title>distance_1&#45;&gt;left</title>
<path fill="none" stroke="green" stroke-width="0.45451" d="M147.462,-100.451C154.251,-96.184 163.105,-91.2418 171.653,-88.3259 275.817,-52.7921 316.627,-98.2343 416.653,-52.3259 419.47,-51.033 422.221,-49.3795 424.836,-47.5392"/>
<polygon fill="green" stroke="green" stroke-width="0.45451" points="427.061,-50.2407 432.644,-41.2361 422.665,-44.7938 427.061,-50.2407"/>
</g>
<!-- distance_1&#45;&gt;right -->
<g id="edge27" class="edge"><title>distance_1&#45;&gt;right</title>
<path fill="none" stroke="green" stroke-width="0.1323" d="M147.432,-100.36C154.211,-96.0638 163.066,-91.1234 171.653,-88.3259 300.597,-46.3189 349.342,-104.174 474.653,-52.3259 477.053,-51.3329 479.423,-50.1065 481.723,-48.734"/>
<polygon fill="green" stroke="green" stroke-width="0.1323" points="483.922,-51.4687 490.157,-42.9025 479.941,-45.7111 483.922,-51.4687"/>
</g>
<!-- distance_1&#45;&gt;select -->
<g id="edge43" class="edge"><title>distance_1&#45;&gt;select</title>
<path fill="none" stroke="green" stroke-width="0.492902" stroke-dasharray="1,5" d="M147.854,-100.434C154.618,-96.2688 163.324,-91.4294 171.653,-88.3259 246.469,-60.4474 274.51,-84.3378 347.653,-52.3259 350.138,-51.2382 352.622,-49.954 355.053,-48.5508"/>
<polygon fill="green" stroke="green" stroke-width="0.492902" points="357.032,-51.4399 363.548,-43.086 353.244,-45.553 357.032,-51.4399"/>
</g>
<!-- distance_2 -->
<g id="node11" class="node"><title>distance_2</title>
<polygon fill="lightgray" stroke="black" points="234.653,-118.539 180.653,-118.539 180.653,-100.539 234.653,-100.539 234.653,-118.539"/>
<text text-anchor="middle" x="207.653" y="-107.339" font-family="Times,serif" font-size="9.00">distance_2</text>
</g>
<!-- distance_2&#45;&gt;attack -->
<g id="edge23" class="edge"><title>distance_2&#45;&gt;attack</title>
<path fill="none" stroke="green" stroke-width="0.400661" d="M211.137,-100.439C215.193,-91.0073 222.15,-74.8337 228.497,-60.0771"/>
<polygon fill="green" stroke="green" stroke-width="0.400661" points="231.807,-61.2388 232.543,-50.6696 225.376,-58.4731 231.807,-61.2388"/>
</g>
<!-- distance_2&#45;&gt;up -->
<g id="edge6" class="edge"><title>distance_2&#45;&gt;up</title>
<path fill="none" stroke="green" stroke-width="0.304946" d="M219.435,-100.37C226.215,-96.0776 235.07,-91.1371 243.653,-88.3259 369.175,-47.2129 418.416,-106.998 538.653,-52.3259 541.687,-50.9462 544.624,-49.1176 547.381,-47.0736"/>
<polygon fill="green" stroke="green" stroke-width="0.304946" points="549.709,-49.6886 555.034,-40.5295 545.159,-44.3684 549.709,-49.6886"/>
</g>
<!-- distance_2&#45;&gt;down -->
<g id="edge57" class="edge"><title>distance_2&#45;&gt;down</title>
<path fill="none" stroke="red" stroke-width="0.501618" d="M218.105,-100.439C233.375,-88.604 262.343,-66.1535 284.209,-49.2076"/>
<polygon fill="red" stroke="red" stroke-width="0.501618" points="286.438,-51.9083 292.198,-43.016 282.15,-46.3754 286.438,-51.9083"/>
</g>
<!-- distance_2&#45;&gt;left -->
<g id="edge44" class="edge"><title>distance_2&#45;&gt;left</title>
<path fill="none" stroke="green" stroke-width="0.213655" d="M219.858,-100.446C226.623,-96.2834 235.33,-91.4435 243.653,-88.3259 317.199,-60.7782 346.278,-87.1861 416.653,-52.3259 419.431,-50.9501 422.156,-49.2438 424.756,-47.3726"/>
<polygon fill="green" stroke="green" stroke-width="0.213655" points="426.999,-50.0604 432.549,-41.0356 422.582,-44.6296 426.999,-50.0604"/>
</g>
<!-- distance_2&#45;&gt;right -->
<g id="edge28" class="edge"><title>distance_2&#45;&gt;right</title>
<path fill="none" stroke="red" stroke-width="0.304661" d="M219.472,-100.48C226.264,-96.2218 235.118,-91.279 243.653,-88.3259 341.847,-54.3507 379.379,-93.7894 474.653,-52.3259 477.035,-51.2895 479.392,-50.032 481.683,-48.6384"/>
<polygon fill="red" stroke="red" stroke-width="0.304661" points="483.9,-51.3593 490.1,-42.768 479.895,-45.6177 483.9,-51.3593"/>
</g>
<!-- distance_2&#45;&gt;select -->
<g id="edge13" class="edge"><title>distance_2&#45;&gt;select</title>
<path fill="none" stroke="green" stroke-width="0.287001" d="M220.696,-100.472C227.407,-96.514 235.808,-91.8523 243.653,-88.3259 288.266,-68.2727 304.229,-74.8385 347.653,-52.3259 349.92,-51.1505 352.205,-49.8413 354.462,-48.4549"/>
<polygon fill="green" stroke="green" stroke-width="0.287001" points="356.531,-51.2832 362.937,-42.8447 352.666,-45.4463 356.531,-51.2832"/>
</g>
<!-- 128&#45;&gt;up -->
<g id="edge37" class="edge"><title>128&#45;&gt;up</title>
<path fill="none" stroke="green" stroke-width="0.318672" d="M882.395,-97.104C876.905,-93.874 870.688,-90.6186 864.653,-88.3259 769.734,-52.264 649.312,-35.8712 595.226,-29.9434"/>
<polygon fill="green" stroke="green" stroke-width="0.318672" points="595.335,-26.4354 585.022,-28.8642 594.599,-33.3966 595.335,-26.4354"/>
</g>
<!-- 140&#45;&gt;up -->
<g id="edge3" class="edge"><title>140&#45;&gt;up</title>
<path fill="none" stroke="red" stroke-width="0.196446" d="M943.227,-95.656C938.998,-92.8617 934.319,-90.1891 929.653,-88.3259 811.793,-41.2627 658.363,-30.411 595.461,-27.9106"/>
<polygon fill="red" stroke="red" stroke-width="0.196446" points="595.256,-24.4012 585.138,-27.5446 595.007,-31.3968 595.256,-24.4012"/>
</g>
</g>
</svg>
