<?xml version="1.0" encoding="UTF-8" standalone="no"?>
<!DOCTYPE svg PUBLIC "-//W3C//DTD SVG 1.1//EN"
 "http://www.w3.org/Graphics/SVG/1.1/DTD/svg11.dtd">
<!-- Generated by graphviz version 2.38.0 (20140413.2041)
 -->
<!-- Title: %3 Pages: 1 -->
<svg width="1867pt" height="519pt"
 viewBox="0.00 0.00 1867.00 519.19" xmlns="http://www.w3.org/2000/svg" xmlns:xlink="http://www.w3.org/1999/xlink">
<g id="graph0" class="graph" transform="scale(1 1) rotate(0) translate(4 515.186)">
<title>%3</title>
<polygon fill="white" stroke="none" points="-4,4 -4,-515.186 1863,-515.186 1863,4 -4,4"/>
<!-- enemy_hp -->
<g id="node1" class="node"><title>enemy_hp</title>
<polygon fill="lightgray" stroke="black" points="1414.5,-372.203 1361.5,-372.203 1361.5,-354.203 1414.5,-354.203 1414.5,-372.203"/>
<text text-anchor="middle" x="1388" y="-361.003" font-family="Times,serif" font-size="9.00">enemy_hp</text>
</g>
<!-- attack -->
<g id="node12" class="node"><title>attack</title>
<ellipse fill="lightblue" stroke="black" cx="1186" cy="-114.489" rx="26.3269" ry="26.3269"/>
<text text-anchor="middle" x="1186" y="-112.289" font-family="Times,serif" font-size="9.00">attack</text>
</g>
<!-- enemy_hp&#45;&gt;attack -->
<g id="edge2" class="edge"><title>enemy_hp&#45;&gt;attack</title>
<path fill="none" stroke="green" stroke-width="0.342468" d="M1381.97,-353.834C1362.69,-327.243 1300.58,-242.552 1244,-176.652 1233.64,-164.59 1221.63,-151.751 1211.24,-140.967"/>
<polygon fill="green" stroke="green" stroke-width="0.342468" points="1213.48,-138.251 1204,-133.518 1208.46,-143.129 1213.48,-138.251"/>
</g>
<!-- up -->
<g id="node13" class="node"><title>up</title>
<ellipse fill="lightblue" stroke="black" cx="1472" cy="-280.534" rx="18.2703" ry="18.2703"/>
<text text-anchor="middle" x="1472" y="-278.334" font-family="Times,serif" font-size="9.00">up</text>
</g>
<!-- enemy_hp&#45;&gt;up -->
<g id="edge77" class="edge"><title>enemy_hp&#45;&gt;up</title>
<path fill="none" stroke="green" stroke-width="0.812385" d="M1396.36,-354.173C1409.1,-341.939 1433.76,-318.262 1451.46,-301.262"/>
<polygon fill="green" stroke="green" stroke-width="0.812385" points="1454.24,-303.438 1459.03,-293.987 1449.4,-298.389 1454.24,-303.438"/>
</g>
<!-- down -->
<g id="node14" class="node"><title>down</title>
<ellipse fill="lightblue" stroke="black" cx="978" cy="-26.163" rx="26.3269" ry="26.3269"/>
<text text-anchor="middle" x="978" y="-23.963" font-family="Times,serif" font-size="9.00">down</text>
</g>
<!-- enemy_hp&#45;&gt;down -->
<g id="edge46" class="edge"><title>enemy_hp&#45;&gt;down</title>
<path fill="none" stroke="red" stroke-width="0.148117" stroke-dasharray="1,5" d="M1391.35,-354.129C1400.82,-331.681 1428.15,-269.245 1445,-255.078 1484.38,-221.977 1524.81,-260.727 1555,-219.078 1566.07,-203.811 1565.57,-192.264 1555,-176.652 1492.89,-84.9446 1131.2,-42.0814 1014.37,-30.4999"/>
<polygon fill="red" stroke="red" stroke-width="0.148117" points="1014.46,-26.9916 1004.16,-29.5062 1013.78,-33.9586 1014.46,-26.9916"/>
</g>
<!-- left -->
<g id="node15" class="node"><title>left</title>
<ellipse fill="lightblue" stroke="black" cx="824" cy="-280.534" rx="19.6" ry="19.6"/>
<text text-anchor="middle" x="824" y="-278.334" font-family="Times,serif" font-size="9.00">left</text>
</g>
<!-- enemy_hp&#45;&gt;left -->
<g id="edge31" class="edge"><title>enemy_hp&#45;&gt;left</title>
<path fill="none" stroke="red" stroke-width="0.447284" d="M1376.23,-354.01C1369.45,-349.709 1360.59,-344.769 1352,-341.99 1304.41,-326.599 958.663,-293.91 853.963,-284.266"/>
<polygon fill="red" stroke="red" stroke-width="0.447284" points="854.056,-280.76 843.777,-283.331 853.415,-287.731 854.056,-280.76"/>
</g>
<!-- right -->
<g id="node16" class="node"><title>right</title>
<ellipse fill="lightblue" stroke="black" cx="345" cy="-280.534" rx="23.1702" ry="23.1702"/>
<text text-anchor="middle" x="345" y="-278.334" font-family="Times,serif" font-size="9.00">right</text>
</g>
<!-- enemy_hp&#45;&gt;right -->
<g id="edge43" class="edge"><title>enemy_hp&#45;&gt;right</title>
<path fill="none" stroke="green" stroke-width="0.318861" d="M1376.6,-354.036C1369.8,-349.63 1360.8,-344.576 1352,-341.99 1328.09,-334.966 550.606,-292.638 378.506,-283.34"/>
<polygon fill="green" stroke="green" stroke-width="0.318861" points="378.456,-279.832 368.282,-282.787 378.078,-286.822 378.456,-279.832"/>
</g>
<!-- select -->
<g id="node17" class="node"><title>select</title>
<ellipse fill="lightblue" stroke="black" cx="1150" cy="-280.534" rx="25.4118" ry="25.4118"/>
<text text-anchor="middle" x="1150" y="-278.334" font-family="Times,serif" font-size="9.00">select</text>
</g>
<!-- enemy_hp&#45;&gt;select -->
<g id="edge48" class="edge"><title>enemy_hp&#45;&gt;select</title>
<path fill="none" stroke="green" stroke-width="0.220821" d="M1375.79,-354.133C1369.02,-349.978 1360.31,-345.137 1352,-341.99 1280.99,-315.103 1254.6,-336.332 1185,-305.99 1182.68,-304.979 1180.36,-303.803 1178.07,-302.524"/>
<polygon fill="green" stroke="green" stroke-width="0.220821" points="1179.88,-299.527 1169.55,-297.211 1176.18,-305.469 1179.88,-299.527"/>
</g>
<!-- 267 -->
<g id="node22" class="node"><title>267</title>
<ellipse fill="white" stroke="black" cx="1525" cy="-197.865" rx="21.4286" ry="21.4286"/>
<text text-anchor="middle" x="1525" y="-195.665" font-family="Times,serif" font-size="9.00">267</text>
</g>
<!-- enemy_hp&#45;&gt;267 -->
<g id="edge26" class="edge"><title>enemy_hp&#45;&gt;267</title>
<path fill="none" stroke="green" stroke-width="0.253686" d="M1387.58,-353.959C1387.04,-334.559 1388.25,-285.379 1412,-255.078 1432.64,-228.74 1468.87,-213.821 1494.75,-206.07"/>
<polygon fill="green" stroke="green" stroke-width="0.253686" points="1495.76,-209.421 1504.44,-203.352 1493.87,-202.681 1495.76,-209.421"/>
</g>
<!-- player_hp_1 -->
<g id="node2" class="node"><title>player_hp_1</title>
<polygon fill="lightgray" stroke="black" points="566.5,-511.186 505.5,-511.186 505.5,-493.186 566.5,-493.186 566.5,-511.186"/>
<text text-anchor="middle" x="536" y="-499.986" font-family="Times,serif" font-size="9.00">player_hp_1</text>
</g>
<!-- player_hp_1&#45;&gt;attack -->
<g id="edge10" class="edge"><title>player_hp_1&#45;&gt;attack</title>
<path fill="none" stroke="green" stroke-width="0.322342" d="M538.598,-492.913C552.466,-450.307 622.199,-254.611 756,-176.652 822.822,-137.718 1058.64,-121.908 1149.72,-117.162"/>
<polygon fill="green" stroke="green" stroke-width="0.322342" points="1150.03,-120.651 1159.84,-116.65 1149.68,-113.66 1150.03,-120.651"/>
</g>
<!-- player_hp_1&#45;&gt;up -->
<g id="edge60" class="edge"><title>player_hp_1&#45;&gt;up</title>
<path fill="none" stroke="green" stroke-width="0.956895" d="M566.563,-500.86C713.957,-499.132 1347.61,-489.843 1429,-457.186 1474.84,-438.793 1492.48,-429.346 1513,-384.416 1525.71,-356.594 1506.79,-323.621 1490.64,-302.643"/>
<polygon fill="green" stroke="green" stroke-width="0.956895" points="1493.23,-300.273 1484.22,-294.7 1487.79,-304.676 1493.23,-300.273"/>
</g>
<!-- player_hp_1&#45;&gt;down -->
<g id="edge76" class="edge"><title>player_hp_1&#45;&gt;down</title>
<path fill="none" stroke="red" stroke-width="0.488171" stroke-dasharray="1,5" d="M505.215,-499.62C424.447,-495.217 208.079,-481.441 141,-457.186 70.4071,-431.66 0,-439.269 0,-364.203 0,-364.203 0,-364.203 0,-196.865 0,-137.461 26.0907,-117.21 78,-88.3259 154.421,-45.8035 782.66,-30.9214 941.582,-27.8182"/>
<polygon fill="red" stroke="red" stroke-width="0.488171" points="941.85,-31.3138 951.781,-27.6228 941.716,-24.3151 941.85,-31.3138"/>
</g>
<!-- player_hp_1&#45;&gt;left -->
<g id="edge37" class="edge"><title>player_hp_1&#45;&gt;left</title>
<path fill="none" stroke="red" stroke-width="0.40754" d="M542.293,-492.874C561.943,-467.378 624.878,-389.154 692,-341.99 724.879,-318.887 767.998,-301.113 795.853,-290.991"/>
<polygon fill="red" stroke="red" stroke-width="0.40754" points="797.123,-294.254 805.377,-287.612 794.783,-287.657 797.123,-294.254"/>
</g>
<!-- player_hp_1&#45;&gt;right -->
<g id="edge29" class="edge"><title>player_hp_1&#45;&gt;right</title>
<path fill="none" stroke="red" stroke-width="0.237459" d="M505.366,-500.807C428.737,-499.336 231.031,-492.159 177,-457.186 145.272,-436.649 143.151,-420.822 133,-384.416 127.936,-366.253 121.641,-357.041 133,-341.99 154.56,-313.422 257.775,-294.328 311.824,-286.113"/>
<polygon fill="red" stroke="red" stroke-width="0.237459" points="312.56,-289.542 321.939,-284.616 311.535,-282.618 312.56,-289.542"/>
</g>
<!-- player_hp_1&#45;&gt;select -->
<g id="edge7" class="edge"><title>player_hp_1&#45;&gt;select</title>
<path fill="none" stroke="green" stroke-width="0.109219" d="M566.623,-500.375C680.658,-496.646 1077.97,-477.091 1153,-384.416 1168.6,-365.147 1166.41,-336.543 1161.13,-314.383"/>
<polygon fill="green" stroke="green" stroke-width="0.109219" points="1164.51,-313.466 1158.54,-304.712 1157.75,-315.277 1164.51,-313.466"/>
</g>
<!-- 73 -->
<g id="node20" class="node"><title>73</title>
<ellipse fill="white" stroke="black" cx="204" cy="-438.801" rx="18.2703" ry="18.2703"/>
<text text-anchor="middle" x="204" y="-436.601" font-family="Times,serif" font-size="9.00">73</text>
</g>
<!-- player_hp_1&#45;&gt;73 -->
<g id="edge75" class="edge"><title>player_hp_1&#45;&gt;73</title>
<path fill="none" stroke="red" stroke-width="0.263601" d="M505.382,-500.225C450.179,-497.726 330.888,-488.804 236,-457.186 233.391,-456.316 230.744,-455.24 228.149,-454.053"/>
<polygon fill="red" stroke="red" stroke-width="0.263601" points="229.624,-450.876 219.127,-449.437 226.435,-457.108 229.624,-450.876"/>
</g>
<!-- player_hp_2 -->
<g id="node3" class="node"><title>player_hp_2</title>
<polygon fill="lightgray" stroke="black" points="1085.5,-372.203 1024.5,-372.203 1024.5,-354.203 1085.5,-354.203 1085.5,-372.203"/>
<text text-anchor="middle" x="1055" y="-361.003" font-family="Times,serif" font-size="9.00">player_hp_2</text>
</g>
<!-- player_hp_2&#45;&gt;attack -->
<g id="edge87" class="edge"><title>player_hp_2&#45;&gt;attack</title>
<path fill="none" stroke="red" stroke-width="0.448952" stroke-dasharray="1,5" d="M1059.36,-353.994C1076.39,-321.918 1139,-204.002 1169.32,-146.895"/>
<polygon fill="red" stroke="red" stroke-width="0.448952" points="1172.48,-148.422 1174.07,-137.948 1166.29,-145.139 1172.48,-148.422"/>
</g>
<!-- player_hp_2&#45;&gt;up -->
<g id="edge27" class="edge"><title>player_hp_2&#45;&gt;up</title>
<path fill="none" stroke="red" stroke-width="0.181153" d="M1085.66,-356.271C1163.65,-341.185 1368.67,-301.523 1443.85,-286.98"/>
<polygon fill="red" stroke="red" stroke-width="0.181153" points="1444.81,-290.358 1453.97,-285.023 1443.48,-283.486 1444.81,-290.358"/>
</g>
<!-- player_hp_2&#45;&gt;down -->
<g id="edge67" class="edge"><title>player_hp_2&#45;&gt;down</title>
<path fill="none" stroke="red" stroke-width="0.320458" d="M1053.1,-353.921C1043.85,-313.692 1003.37,-137.536 985.98,-61.8844"/>
<polygon fill="red" stroke="red" stroke-width="0.320458" points="989.336,-60.8632 983.685,-51.9013 982.514,-62.4312 989.336,-60.8632"/>
</g>
<!-- player_hp_2&#45;&gt;right -->
<g id="edge44" class="edge"><title>player_hp_2&#45;&gt;right</title>
<path fill="none" stroke="red" stroke-width="0.583825" d="M1042.18,-354.153C1034.57,-349.785 1024.57,-344.732 1015,-341.99 893.328,-307.141 497.446,-287.967 378.865,-282.905"/>
<polygon fill="red" stroke="red" stroke-width="0.583825" points="378.725,-279.396 368.587,-282.472 378.431,-286.39 378.725,-279.396"/>
</g>
<!-- player_hp_2&#45;&gt;select -->
<g id="edge15" class="edge"><title>player_hp_2&#45;&gt;select</title>
<path fill="none" stroke="green" stroke-width="0.315339" d="M1064.46,-354.173C1077.99,-342.685 1103.4,-321.105 1123.02,-304.44"/>
<polygon fill="green" stroke="green" stroke-width="0.315339" points="1125.4,-307.011 1130.76,-297.871 1120.87,-301.676 1125.4,-307.011"/>
</g>
<!-- enemy_x -->
<g id="node4" class="node"><title>enemy_x</title>
<polygon fill="lightgray" stroke="black" points="1343.5,-372.203 1294.5,-372.203 1294.5,-354.203 1343.5,-354.203 1343.5,-372.203"/>
<text text-anchor="middle" x="1319" y="-361.003" font-family="Times,serif" font-size="9.00">enemy_x</text>
</g>
<!-- enemy_x&#45;&gt;attack -->
<g id="edge83" class="edge"><title>enemy_x&#45;&gt;attack</title>
<path fill="none" stroke="red" stroke-width="0.852832" stroke-dasharray="1,5" d="M1314.35,-353.84C1308.25,-342.874 1297.26,-323.029 1288,-305.99 1257.62,-250.077 1222.71,-184.623 1202.62,-146.819"/>
<polygon fill="red" stroke="red" stroke-width="0.852832" points="1205.63,-145.016 1197.85,-137.826 1199.45,-148.3 1205.63,-145.016"/>
</g>
<!-- enemy_x&#45;&gt;up -->
<g id="edge42" class="edge"><title>enemy_x&#45;&gt;up</title>
<path fill="none" stroke="green" stroke-width="0.816663" stroke-dasharray="1,5" d="M1331.7,-354.082C1337.78,-350.287 1345.19,-345.782 1352,-341.99 1383.88,-324.233 1421.61,-305.601 1446.14,-293.795"/>
<polygon fill="green" stroke="green" stroke-width="0.816663" points="1447.96,-296.801 1455.47,-289.325 1444.94,-290.488 1447.96,-296.801"/>
</g>
<!-- enemy_x&#45;&gt;left -->
<g id="edge64" class="edge"><title>enemy_x&#45;&gt;left</title>
<path fill="none" stroke="green" stroke-width="0.217842" d="M1294.45,-358.203C1211.69,-344.715 943.066,-300.938 853.424,-286.329"/>
<polygon fill="green" stroke="green" stroke-width="0.217842" points="853.837,-282.85 843.404,-284.696 852.711,-289.759 853.837,-282.85"/>
</g>
<!-- enemy_x&#45;&gt;right -->
<g id="edge35" class="edge"><title>enemy_x&#45;&gt;right</title>
<path fill="none" stroke="green" stroke-width="0.196612" d="M1294.37,-359.917C1252.99,-356.092 1166.88,-348.205 1094,-341.99 817.526,-318.414 483.432,-292.281 378.313,-284.115"/>
<polygon fill="green" stroke="green" stroke-width="0.196612" points="378.545,-280.622 368.304,-283.338 378.003,-287.601 378.545,-280.622"/>
</g>
<!-- enemy_x&#45;&gt;select -->
<g id="edge1" class="edge"><title>enemy_x&#45;&gt;select</title>
<path fill="none" stroke="green" stroke-width="0.139331" d="M1304.38,-354.115C1297.14,-350.242 1288.22,-345.661 1280,-341.99 1238.78,-323.57 1224.92,-327.082 1185,-305.99 1182.76,-304.808 1180.5,-303.507 1178.26,-302.139"/>
<polygon fill="green" stroke="green" stroke-width="0.139331" points="1180.11,-299.166 1169.82,-296.645 1176.29,-305.033 1180.11,-299.166"/>
</g>
<!-- 210 -->
<g id="node25" class="node"><title>210</title>
<ellipse fill="white" stroke="black" cx="1215" cy="-280.534" rx="21.4286" ry="21.4286"/>
<text text-anchor="middle" x="1215" y="-278.334" font-family="Times,serif" font-size="9.00">210</text>
</g>
<!-- enemy_x&#45;&gt;210 -->
<g id="edge59" class="edge"><title>enemy_x&#45;&gt;210</title>
<path fill="none" stroke="red" stroke-width="0.352962" d="M1308.65,-354.173C1292.61,-341.734 1261.32,-317.466 1239.34,-300.414"/>
<polygon fill="red" stroke="red" stroke-width="0.352962" points="1241.47,-297.635 1231.42,-294.272 1237.18,-303.166 1241.47,-297.635"/>
</g>
<!-- enemy_y -->
<g id="node5" class="node"><title>enemy_y</title>
<polygon fill="lightgray" stroke="black" points="727.5,-447.801 678.5,-447.801 678.5,-429.801 727.5,-429.801 727.5,-447.801"/>
<text text-anchor="middle" x="703" y="-436.601" font-family="Times,serif" font-size="9.00">enemy_y</text>
</g>
<!-- enemy_y&#45;&gt;attack -->
<g id="edge72" class="edge"><title>enemy_y&#45;&gt;attack</title>
<path fill="none" stroke="red" stroke-width="0.240401" d="M701.263,-429.789C695.761,-402.131 681.476,-309.381 724,-255.078 766.309,-201.05 792.735,-200.717 857,-176.652 958.835,-138.518 1087.63,-123.451 1149.53,-118.106"/>
<polygon fill="red" stroke="red" stroke-width="0.240401" points="1149.9,-121.587 1159.58,-117.273 1149.32,-114.61 1149.9,-121.587"/>
</g>
<!-- enemy_y&#45;&gt;up -->
<g id="edge12" class="edge"><title>enemy_y&#45;&gt;up</title>
<path fill="none" stroke="red" stroke-width="0.1093" stroke-dasharray="1,5" d="M715.72,-429.681C721.896,-426.169 729.573,-422.412 737,-420.416 810.712,-400.606 1359.55,-426.842 1423,-384.416 1448.5,-367.366 1461.09,-333.227 1467.05,-308.955"/>
<polygon fill="red" stroke="red" stroke-width="0.1093" points="1470.53,-309.437 1469.28,-298.916 1463.69,-307.918 1470.53,-309.437"/>
</g>
<!-- enemy_y&#45;&gt;down -->
<g id="edge91" class="edge"><title>enemy_y&#45;&gt;down</title>
<path fill="none" stroke="green" stroke-width="0.149968" stroke-dasharray="1,5" d="M678.44,-437.202C571.762,-434.387 151.949,-421.043 107,-384.416 69.9785,-354.249 76,-329.29 76,-281.534 76,-281.534 76,-281.534 76,-196.865 76,-143.937 81.5925,-118.61 125,-88.3259 192.705,-41.0903 786.618,-29.7647 941.299,-27.6059"/>
<polygon fill="green" stroke="green" stroke-width="0.149968" points="941.711,-31.1008 951.663,-27.466 941.617,-24.1014 941.711,-31.1008"/>
</g>
<!-- enemy_y&#45;&gt;left -->
<g id="edge33" class="edge"><title>enemy_y&#45;&gt;left</title>
<path fill="none" stroke="green" stroke-width="0.209025" stroke-dasharray="1,5" d="M700.793,-429.555C696.575,-411.898 689.273,-369.781 707,-341.99 726.516,-311.394 766.808,-295.498 794.611,-287.835"/>
<polygon fill="green" stroke="green" stroke-width="0.209025" points="795.763,-291.153 804.586,-285.287 794.031,-284.37 795.763,-291.153"/>
</g>
<!-- enemy_y&#45;&gt;right -->
<g id="edge18" class="edge"><title>enemy_y&#45;&gt;right</title>
<path fill="none" stroke="green" stroke-width="0.870143" d="M678.5,-438.427C600.482,-439.843 360.146,-439.583 312,-384.416 292.97,-362.611 308.865,-329.719 324.5,-307.024"/>
<polygon fill="green" stroke="green" stroke-width="0.870143" points="327.375,-309.022 330.406,-298.87 321.705,-304.916 327.375,-309.022"/>
</g>
<!-- enemy_y&#45;&gt;select -->
<g id="edge56" class="edge"><title>enemy_y&#45;&gt;select</title>
<path fill="none" stroke="red" stroke-width="0.605388" d="M716.086,-429.66C722.215,-426.234 729.75,-422.553 737,-420.416 813.484,-397.877 1027.59,-428.54 1094,-384.416 1106.97,-375.797 1124.47,-340.654 1136.44,-313.817"/>
<polygon fill="red" stroke="red" stroke-width="0.605388" points="1139.77,-314.934 1140.57,-304.37 1133.36,-312.125 1139.77,-314.934"/>
</g>
<!-- 123 -->
<g id="node23" class="node"><title>123</title>
<ellipse fill="white" stroke="black" cx="737" cy="-363.203" rx="21.4286" ry="21.4286"/>
<text text-anchor="middle" x="737" y="-361.003" font-family="Times,serif" font-size="9.00">123</text>
</g>
<!-- enemy_y&#45;&gt;123 -->
<g id="edge61" class="edge"><title>enemy_y&#45;&gt;123</title>
<path fill="none" stroke="green" stroke-width="0.606837" d="M706.769,-429.644C710.942,-420.609 717.901,-405.546 724.091,-392.147"/>
<polygon fill="green" stroke="green" stroke-width="0.606837" points="727.394,-393.342 728.411,-382.796 721.04,-390.406 727.394,-393.342"/>
</g>
<!-- player_x_1 -->
<g id="node6" class="node"><title>player_x_1</title>
<polygon fill="lightgray" stroke="black" points="802,-447.801 746,-447.801 746,-429.801 802,-429.801 802,-447.801"/>
<text text-anchor="middle" x="774" y="-436.601" font-family="Times,serif" font-size="9.00">player_x_1</text>
</g>
<!-- player_x_1&#45;&gt;attack -->
<g id="edge63" class="edge"><title>player_x_1&#45;&gt;attack</title>
<path fill="none" stroke="green" stroke-width="0.776056" d="M756.853,-429.792C740.625,-421.154 717.265,-405.72 707,-384.416 698.815,-367.429 699.73,-359.388 707,-341.99 728.194,-291.269 748.456,-284.326 795,-255.078 914.244,-180.145 1079.24,-138.28 1150.68,-122.656"/>
<polygon fill="green" stroke="green" stroke-width="0.776056" points="1151.48,-126.064 1160.52,-120.541 1150.01,-119.22 1151.48,-126.064"/>
</g>
<!-- player_x_1&#45;&gt;up -->
<g id="edge22" class="edge"><title>player_x_1&#45;&gt;up</title>
<path fill="none" stroke="green" stroke-width="0.158442" d="M802.294,-437.63C925.17,-436.618 1408.52,-429.763 1457,-384.416 1477.23,-365.49 1478.6,-332.274 1476.44,-308.707"/>
<polygon fill="green" stroke="green" stroke-width="0.158442" points="1479.9,-308.168 1475.26,-298.645 1472.95,-308.984 1479.9,-308.168"/>
</g>
<!-- player_x_1&#45;&gt;down -->
<g id="edge40" class="edge"><title>player_x_1&#45;&gt;down</title>
<path fill="none" stroke="green" stroke-width="0.260869" d="M759.662,-429.717C752.733,-426.213 744.166,-422.452 736,-420.416 670.874,-404.178 183.288,-428.87 133,-384.416 98.162,-353.62 114,-328.033 114,-281.534 114,-281.534 114,-281.534 114,-196.865 114,-55.0735 275.865,-120.318 414,-88.3259 609.669,-43.0096 851.489,-31.0791 941.772,-28.1004"/>
<polygon fill="green" stroke="green" stroke-width="0.260869" points="941.886,-31.5987 951.771,-27.7872 941.667,-24.6021 941.886,-31.5987"/>
</g>
<!-- player_x_1&#45;&gt;left -->
<g id="edge5" class="edge"><title>player_x_1&#45;&gt;left</title>
<path fill="none" stroke="green" stroke-width="0.287993" d="M776.688,-429.399C783.814,-407.128 803.437,-345.8 815.051,-309.502"/>
<polygon fill="green" stroke="green" stroke-width="0.287993" points="818.523,-310.137 818.237,-299.546 811.856,-308.003 818.523,-310.137"/>
</g>
<!-- player_x_1&#45;&gt;right -->
<g id="edge19" class="edge"><title>player_x_1&#45;&gt;right</title>
<path fill="none" stroke="green" stroke-width="1.0426" stroke-dasharray="1,5" d="M759.272,-429.654C752.401,-426.226 743.992,-422.546 736,-420.416 651.686,-397.947 403.803,-448.882 345,-384.416 327.777,-365.534 329.807,-335.619 334.948,-312.903"/>
<polygon fill="green" stroke="green" stroke-width="1.0426" points="338.384,-313.593 337.471,-303.038 331.602,-311.859 338.384,-313.593"/>
</g>
<!-- player_x_1&#45;&gt;select -->
<g id="edge80" class="edge"><title>player_x_1&#45;&gt;select</title>
<path fill="none" stroke="red" stroke-width="0.154989" d="M802.164,-435.39C881.779,-428.323 1104.26,-406.749 1128,-384.416 1146.26,-367.237 1151.26,-338.903 1151.98,-316.314"/>
<polygon fill="red" stroke="red" stroke-width="0.154989" points="1155.48,-316.099 1152.03,-306.082 1148.48,-316.064 1155.48,-316.099"/>
</g>
<!-- 256 -->
<g id="node18" class="node"><title>256</title>
<ellipse fill="white" stroke="black" cx="375" cy="-363.203" rx="21.4286" ry="21.4286"/>
<text text-anchor="middle" x="375" y="-361.003" font-family="Times,serif" font-size="9.00">256</text>
</g>
<!-- player_x_1&#45;&gt;256 -->
<g id="edge90" class="edge"><title>player_x_1&#45;&gt;256</title>
<path fill="none" stroke="green" stroke-width="0.495743" d="M759.254,-429.721C752.379,-426.307 743.972,-422.619 736,-420.416 595.493,-381.602 548.513,-429.835 410,-384.416 407.029,-383.442 404.031,-382.194 401.107,-380.798"/>
<polygon fill="green" stroke="green" stroke-width="0.495743" points="402.602,-377.629 392.136,-375.985 399.293,-383.797 402.602,-377.629"/>
</g>
<!-- player_y_1 -->
<g id="node7" class="node"><title>player_y_1</title>
<polygon fill="lightgray" stroke="black" points="1679,-372.203 1623,-372.203 1623,-354.203 1679,-354.203 1679,-372.203"/>
<text text-anchor="middle" x="1651" y="-361.003" font-family="Times,serif" font-size="9.00">player_y_1</text>
</g>
<!-- player_y_1&#45;&gt;attack -->
<g id="edge54" class="edge"><title>player_y_1&#45;&gt;attack</title>
<path fill="none" stroke="red" stroke-width="0.70483" stroke-dasharray="1,5" d="M1643.22,-354.129C1621.46,-331.682 1559.9,-269.248 1535,-255.078 1486.24,-227.326 1460.32,-250.734 1414,-219.078 1394.28,-205.6 1400.99,-189.724 1381,-176.652 1326.5,-141.025 1300.25,-162.719 1239,-140.652 1232.02,-138.136 1224.71,-135.013 1217.84,-131.833"/>
<polygon fill="red" stroke="red" stroke-width="0.70483" points="1219.33,-128.668 1208.8,-127.513 1216.32,-134.984 1219.33,-128.668"/>
</g>
<!-- player_y_1&#45;&gt;up -->
<g id="edge89" class="edge"><title>player_y_1&#45;&gt;up</title>
<path fill="none" stroke="red" stroke-width="0.151164" d="M1635.25,-354.075C1627.45,-350.193 1617.83,-345.615 1609,-341.99 1563.36,-323.26 1547.5,-329.27 1504,-305.99 1500.43,-304.077 1496.83,-301.777 1493.41,-299.362"/>
<polygon fill="red" stroke="red" stroke-width="0.151164" points="1495.44,-296.515 1485.35,-293.281 1491.22,-302.101 1495.44,-296.515"/>
</g>
<!-- player_y_1&#45;&gt;down -->
<g id="edge30" class="edge"><title>player_y_1&#45;&gt;down</title>
<path fill="none" stroke="green" stroke-width="0.282382" d="M1647.91,-354.062C1635.06,-320.248 1585.88,-191.934 1574,-176.652 1533.79,-124.932 1516.72,-112.923 1456,-88.3259 1375.56,-55.7389 1111.55,-35.7989 1014.35,-29.4102"/>
<polygon fill="green" stroke="green" stroke-width="0.282382" points="1014.34,-25.9027 1004.14,-28.7489 1013.89,-32.888 1014.34,-25.9027"/>
</g>
<!-- player_y_1&#45;&gt;left -->
<g id="edge69" class="edge"><title>player_y_1&#45;&gt;left</title>
<path fill="none" stroke="red" stroke-width="0.230034" d="M1622.53,-359.426C1495.73,-347.058 982.913,-297.035 853.68,-284.429"/>
<polygon fill="red" stroke="red" stroke-width="0.230034" points="854,-280.944 843.708,-283.456 853.321,-287.911 854,-280.944"/>
</g>
<!-- player_y_1&#45;&gt;right -->
<g id="edge3" class="edge"><title>player_y_1&#45;&gt;right</title>
<path fill="none" stroke="red" stroke-width="0.203967" d="M1622.94,-359.421C1579.94,-355.223 1495.14,-347.209 1423,-341.99 1316.73,-334.301 548.841,-292.579 378.437,-283.344"/>
<polygon fill="red" stroke="red" stroke-width="0.203967" points="378.485,-279.842 368.31,-282.796 378.106,-286.832 378.485,-279.842"/>
</g>
<!-- player_y_1&#45;&gt;select -->
<g id="edge38" class="edge"><title>player_y_1&#45;&gt;select</title>
<path fill="none" stroke="green" stroke-width="0.367797" d="M1622.78,-359.604C1528.19,-350.782 1226.01,-321.659 1185,-305.99 1182.64,-305.087 1180.28,-303.99 1177.98,-302.767"/>
<polygon fill="green" stroke="green" stroke-width="0.367797" points="1179.76,-299.76 1169.4,-297.569 1176.14,-305.746 1179.76,-299.76"/>
</g>
<!-- 131 -->
<g id="node19" class="node"><title>131</title>
<ellipse fill="white" stroke="black" cx="1661" cy="-280.534" rx="21.4286" ry="21.4286"/>
<text text-anchor="middle" x="1661" y="-278.334" font-family="Times,serif" font-size="9.00">131</text>
</g>
<!-- player_y_1&#45;&gt;131 -->
<g id="edge21" class="edge"><title>player_y_1&#45;&gt;131</title>
<path fill="none" stroke="red" stroke-width="0.239845" d="M1652,-354.173C1653.22,-344.33 1655.35,-327.078 1657.24,-311.857"/>
<polygon fill="red" stroke="red" stroke-width="0.239845" points="1660.74,-312.115 1658.49,-301.76 1653.79,-311.254 1660.74,-312.115"/>
</g>
<!-- 219 -->
<g id="node27" class="node"><title>219</title>
<ellipse fill="white" stroke="black" cx="1351" cy="-197.865" rx="21.4286" ry="21.4286"/>
<text text-anchor="middle" x="1351" y="-195.665" font-family="Times,serif" font-size="9.00">219</text>
</g>
<!-- player_y_1&#45;&gt;219 -->
<g id="edge66" class="edge"><title>player_y_1&#45;&gt;219</title>
<path fill="none" stroke="green" stroke-width="0.249077" d="M1634.58,-354.177C1606.12,-340.204 1549.91,-312.292 1542,-305.99 1518.84,-287.533 1523.63,-271.53 1499,-255.078 1455.17,-225.8 1434.21,-240.382 1386,-219.078 1383.29,-217.882 1380.53,-216.531 1377.8,-215.109"/>
<polygon fill="green" stroke="green" stroke-width="0.249077" points="1379.22,-211.898 1368.78,-210.12 1375.83,-218.023 1379.22,-211.898"/>
</g>
<!-- player_x_2 -->
<g id="node8" class="node"><title>player_x_2</title>
<polygon fill="lightgray" stroke="black" points="1006,-372.203 950,-372.203 950,-354.203 1006,-354.203 1006,-372.203"/>
<text text-anchor="middle" x="978" y="-361.003" font-family="Times,serif" font-size="9.00">player_x_2</text>
</g>
<!-- player_x_2&#45;&gt;attack -->
<g id="edge45" class="edge"><title>player_x_2&#45;&gt;attack</title>
<path fill="none" stroke="red" stroke-width="0.192486" d="M984.354,-353.874C1004.63,-327.401 1069.86,-243.023 1128,-176.652 1138.47,-164.693 1150.5,-151.87 1160.88,-141.07"/>
<polygon fill="red" stroke="red" stroke-width="0.192486" points="1163.67,-143.226 1168.1,-133.604 1158.63,-138.36 1163.67,-143.226"/>
</g>
<!-- player_x_2&#45;&gt;up -->
<g id="edge8" class="edge"><title>player_x_2&#45;&gt;up</title>
<path fill="none" stroke="red" stroke-width="0.540597" d="M990.151,-354.075C997.133,-349.795 1006.23,-344.854 1015,-341.99 1055.89,-328.632 1350.4,-295.073 1443.72,-284.663"/>
<polygon fill="red" stroke="red" stroke-width="0.540597" points="1444.28,-288.123 1453.83,-283.538 1443.5,-281.166 1444.28,-288.123"/>
</g>
<!-- player_x_2&#45;&gt;down -->
<g id="edge68" class="edge"><title>player_x_2&#45;&gt;down</title>
<path fill="none" stroke="red" stroke-width="0.384991" d="M978,-353.921C978,-313.788 978,-138.378 978,-62.4291"/>
<polygon fill="red" stroke="red" stroke-width="0.384991" points="981.5,-62.3968 978,-52.3969 974.5,-62.3969 981.5,-62.3968"/>
</g>
<!-- player_x_2&#45;&gt;left -->
<g id="edge28" class="edge"><title>player_x_2&#45;&gt;left</title>
<path fill="none" stroke="green" stroke-width="0.874257" d="M963.278,-354.059C956.512,-350.342 948.369,-345.906 941,-341.99 910.123,-325.581 874.384,-307.203 850.61,-295.063"/>
<polygon fill="green" stroke="green" stroke-width="0.874257" points="852.008,-291.847 841.509,-290.422 848.828,-298.083 852.008,-291.847"/>
</g>
<!-- player_x_2&#45;&gt;right -->
<g id="edge88" class="edge"><title>player_x_2&#45;&gt;right</title>
<path fill="none" stroke="green" stroke-width="0.142593" stroke-dasharray="1,5" d="M966.212,-354.177C959.199,-349.817 949.949,-344.764 941,-341.99 834.525,-308.99 488.475,-288.866 378.722,-283.193"/>
<polygon fill="green" stroke="green" stroke-width="0.142593" points="378.727,-279.689 368.561,-282.674 378.37,-286.679 378.727,-279.689"/>
</g>
<!-- player_x_2&#45;&gt;select -->
<g id="edge52" class="edge"><title>player_x_2&#45;&gt;select</title>
<path fill="none" stroke="red" stroke-width="0.487997" d="M992.269,-354.065C999.084,-350.267 1007.39,-345.763 1015,-341.99 1049.42,-324.914 1089.72,-307.146 1117.27,-295.329"/>
<polygon fill="red" stroke="red" stroke-width="0.487997" points="1118.99,-298.402 1126.81,-291.257 1116.24,-291.965 1118.99,-298.402"/>
</g>
<!-- player_y_2 -->
<g id="node9" class="node"><title>player_y_2</title>
<polygon fill="lightgray" stroke="black" points="508,-372.203 452,-372.203 452,-354.203 508,-354.203 508,-372.203"/>
<text text-anchor="middle" x="480" y="-361.003" font-family="Times,serif" font-size="9.00">player_y_2</text>
</g>
<!-- player_y_2&#45;&gt;attack -->
<g id="edge81" class="edge"><title>player_y_2&#45;&gt;attack</title>
<path fill="none" stroke="green" stroke-width="0.506205" d="M481.873,-354.043C489.569,-321.255 519.781,-199.766 550,-176.652 597.83,-140.067 1022.11,-121.541 1149.8,-116.76"/>
<polygon fill="green" stroke="green" stroke-width="0.506205" points="1149.99,-120.255 1159.85,-116.389 1149.73,-113.26 1149.99,-120.255"/>
</g>
<!-- player_y_2&#45;&gt;up -->
<g id="edge20" class="edge"><title>player_y_2&#45;&gt;up</title>
<path fill="none" stroke="green" stroke-width="0.281339" d="M508.295,-359.482C551.226,-355.399 635.406,-347.572 707,-341.99 945.921,-323.361 1006.26,-326.829 1245,-305.99 1316.71,-299.73 1400.92,-290.044 1443.8,-284.943"/>
<polygon fill="green" stroke="green" stroke-width="0.281339" points="1444.27,-288.413 1453.78,-283.75 1443.44,-281.462 1444.27,-288.413"/>
</g>
<!-- player_y_2&#45;&gt;down -->
<g id="edge6" class="edge"><title>player_y_2&#45;&gt;down</title>
<path fill="none" stroke="red" stroke-width="0.543518" stroke-dasharray="1,5" d="M473.591,-354.03C465.829,-343.581 453.157,-324.604 448,-305.99 422.171,-212.758 384.03,-159.088 450,-88.3259 483.528,-52.3626 827.181,-33.8882 941.351,-28.7088"/>
<polygon fill="red" stroke="red" stroke-width="0.543518" points="941.832,-32.191 951.666,-28.2489 941.52,-25.1979 941.832,-32.191"/>
</g>
<!-- player_y_2&#45;&gt;left -->
<g id="edge41" class="edge"><title>player_y_2&#45;&gt;left</title>
<path fill="none" stroke="green" stroke-width="0.160142" d="M508.151,-355.602C572.448,-340.524 729.554,-303.682 794.824,-288.376"/>
<polygon fill="green" stroke="green" stroke-width="0.160142" points="795.903,-291.718 804.84,-286.027 794.305,-284.903 795.903,-291.718"/>
</g>
<!-- player_y_2&#45;&gt;right -->
<g id="edge34" class="edge"><title>player_y_2&#45;&gt;right</title>
<path fill="none" stroke="red" stroke-width="0.371044" d="M465.219,-354.108C445.885,-343.432 411.052,-323.899 382,-305.99 378.958,-304.115 375.803,-302.116 372.676,-300.1"/>
<polygon fill="red" stroke="red" stroke-width="0.371044" points="374.34,-297.005 364.055,-294.46 370.508,-302.863 374.34,-297.005"/>
</g>
<!-- player_y_2&#45;&gt;select -->
<g id="edge74" class="edge"><title>player_y_2&#45;&gt;select</title>
<path fill="none" stroke="red" stroke-width="0.297895" d="M508.361,-358.788C615.588,-345.878 996.134,-300.06 1114.56,-285.801"/>
<polygon fill="red" stroke="red" stroke-width="0.297895" points="1115.04,-289.269 1124.55,-284.598 1114.2,-282.319 1115.04,-289.269"/>
</g>
<!-- 202 -->
<g id="node21" class="node"><title>202</title>
<ellipse fill="white" stroke="black" cx="480" cy="-114.489" rx="21.4286" ry="21.4286"/>
<text text-anchor="middle" x="480" y="-112.289" font-family="Times,serif" font-size="9.00">202</text>
</g>
<!-- player_y_2&#45;&gt;202 -->
<g id="edge36" class="edge"><title>player_y_2&#45;&gt;202</title>
<path fill="none" stroke="green" stroke-width="0.523734" d="M476.76,-353.999C466.885,-327.896 438.691,-244.497 453,-176.652 455.476,-164.913 460.354,-152.683 465.29,-142.272"/>
<polygon fill="green" stroke="green" stroke-width="0.523734" points="468.44,-143.799 469.774,-133.288 462.177,-140.673 468.44,-143.799"/>
</g>
<!-- 82 -->
<g id="node24" class="node"><title>82</title>
<ellipse fill="white" stroke="black" cx="480" cy="-197.865" rx="18.2703" ry="18.2703"/>
<text text-anchor="middle" x="480" y="-195.665" font-family="Times,serif" font-size="9.00">82</text>
</g>
<!-- player_y_2&#45;&gt;82 -->
<g id="edge57" class="edge"><title>player_y_2&#45;&gt;82</title>
<path fill="none" stroke="red" stroke-width="0.146377" d="M480,-353.879C480,-330.743 480,-264.88 480,-226.863"/>
<polygon fill="red" stroke="red" stroke-width="0.146377" points="483.5,-226.487 480,-216.487 476.5,-226.487 483.5,-226.487"/>
</g>
<!-- distance_1 -->
<g id="node10" class="node"><title>distance_1</title>
<polygon fill="lightgray" stroke="black" points="1255,-511.186 1201,-511.186 1201,-493.186 1255,-493.186 1255,-511.186"/>
<text text-anchor="middle" x="1228" y="-499.986" font-family="Times,serif" font-size="9.00">distance_1</text>
</g>
<!-- distance_1&#45;&gt;attack -->
<g id="edge70" class="edge"><title>distance_1&#45;&gt;attack</title>
<path fill="none" stroke="green" stroke-width="0.207696" d="M1255.09,-501.508C1317.07,-501.488 1473.32,-497.113 1596,-457.186 1658.96,-436.693 1692.51,-441.538 1726,-384.416 1735.54,-368.149 1727.19,-360.809 1726,-341.99 1723.55,-303.131 1737.64,-286.756 1715,-255.078 1668.95,-190.645 1630.42,-200.811 1555,-176.652 1436.72,-138.762 1289.2,-123.348 1222.16,-117.975"/>
<polygon fill="green" stroke="green" stroke-width="0.207696" points="1222.35,-114.48 1212.11,-117.197 1221.81,-121.459 1222.35,-114.48"/>
</g>
<!-- distance_1&#45;&gt;up -->
<g id="edge32" class="edge"><title>distance_1&#45;&gt;up</title>
<path fill="none" stroke="green" stroke-width="0.261376" d="M1255.23,-499.726C1332.71,-495.298 1550.18,-480.849 1571,-457.186 1604.82,-418.749 1598.38,-385.253 1571,-341.99 1551.01,-310.407 1525.22,-327.986 1495,-305.99 1493.57,-304.952 1492.16,-303.818 1490.79,-302.626"/>
<polygon fill="green" stroke="green" stroke-width="0.261376" points="1492.97,-299.865 1483.36,-295.407 1488.09,-304.886 1492.97,-299.865"/>
</g>
<!-- distance_1&#45;&gt;down -->
<g id="edge47" class="edge"><title>distance_1&#45;&gt;down</title>
<path fill="none" stroke="red" stroke-width="0.153665" d="M1255.11,-501.185C1375.89,-500.469 1859,-489.755 1859,-364.203 1859,-364.203 1859,-364.203 1859,-196.865 1859,-64.2263 1709.94,-119.424 1581,-88.3259 1370.71,-37.6094 1109.31,-28.9053 1014.49,-27.444"/>
<polygon fill="red" stroke="red" stroke-width="0.153665" points="1014.33,-23.9416 1004.28,-27.3054 1014.23,-30.941 1014.33,-23.9416"/>
</g>
<!-- distance_1&#45;&gt;left -->
<g id="edge11" class="edge"><title>distance_1&#45;&gt;left</title>
<path fill="none" stroke="red" stroke-width="0.202719" d="M1200.92,-501.989C1129.79,-502.5 936.64,-493.296 841,-384.416 823.363,-364.338 820.414,-333.205 821.078,-310.444"/>
<polygon fill="red" stroke="red" stroke-width="0.202719" points="824.579,-310.51 821.621,-300.336 817.589,-310.134 824.579,-310.51"/>
</g>
<!-- distance_1&#45;&gt;right -->
<g id="edge16" class="edge"><title>distance_1&#45;&gt;right</title>
<path fill="none" stroke="green" stroke-width="0.264906" d="M1200.7,-499.937C1053.51,-492.921 358.97,-456.151 300,-384.416 280.484,-360.676 302.067,-327.161 321.533,-304.913"/>
<polygon fill="green" stroke="green" stroke-width="0.264906" points="324.362,-307.005 328.529,-297.264 319.197,-302.281 324.362,-307.005"/>
</g>
<!-- distance_1&#45;&gt;select -->
<g id="edge78" class="edge"><title>distance_1&#45;&gt;select</title>
<path fill="none" stroke="green" stroke-width="0.237343" d="M1228.36,-493.106C1229.12,-468.902 1229.08,-395.365 1204,-341.99 1197.45,-328.051 1186.63,-314.982 1176.39,-304.585"/>
<polygon fill="green" stroke="green" stroke-width="0.237343" points="1178.72,-301.968 1169.11,-297.514 1173.84,-306.99 1178.72,-301.968"/>
</g>
<!-- distance_1&#45;&gt;73 -->
<g id="edge14" class="edge"><title>distance_1&#45;&gt;73</title>
<path fill="none" stroke="green" stroke-width="0.110914" d="M1200.89,-500.711C1051.41,-497.998 331.196,-483.634 236,-457.186 233.35,-456.45 230.677,-455.462 228.065,-454.329"/>
<polygon fill="green" stroke="green" stroke-width="0.110914" points="229.528,-451.147 219.022,-449.781 226.383,-457.401 229.528,-451.147"/>
</g>
<!-- distance_2 -->
<g id="node11" class="node"><title>distance_2</title>
<polygon fill="lightgray" stroke="black" points="1420,-447.801 1366,-447.801 1366,-429.801 1420,-429.801 1420,-447.801"/>
<text text-anchor="middle" x="1393" y="-436.601" font-family="Times,serif" font-size="9.00">distance_2</text>
</g>
<!-- distance_2&#45;&gt;attack -->
<g id="edge62" class="edge"><title>distance_2&#45;&gt;attack</title>
<path fill="none" stroke="red" stroke-width="0.162176" stroke-dasharray="1,5" d="M1420.05,-437.467C1489.33,-435.983 1670.26,-427.934 1707,-384.416 1726.77,-360.997 1707.44,-271.511 1691,-255.078 1628.36,-192.464 1573.55,-259.99 1495,-219.078 1471.19,-206.677 1475.9,-188.884 1452,-176.652 1366.53,-132.909 1330.57,-169.515 1239,-140.652 1231.92,-138.42 1224.58,-135.42 1217.69,-132.27"/>
<polygon fill="red" stroke="red" stroke-width="0.162176" points="1219.19,-129.106 1208.66,-127.939 1216.16,-135.418 1219.19,-129.106"/>
</g>
<!-- distance_2&#45;&gt;up -->
<g id="edge4" class="edge"><title>distance_2&#45;&gt;up</title>
<path fill="none" stroke="green" stroke-width="0.431444" d="M1420.14,-431.938C1444.51,-425.079 1478.85,-411.09 1495,-384.416 1509.78,-360.002 1498.02,-327.161 1486.57,-305.215"/>
<polygon fill="green" stroke="green" stroke-width="0.431444" points="1489.51,-303.296 1481.6,-296.251 1483.39,-306.693 1489.51,-303.296"/>
</g>
<!-- distance_2&#45;&gt;down -->
<g id="edge39" class="edge"><title>distance_2&#45;&gt;down</title>
<path fill="none" stroke="green" stroke-width="0.118272" stroke-dasharray="1,5" d="M1420.08,-437.757C1492.29,-437.006 1686.59,-430.645 1726,-384.416 1741.14,-366.651 1729.24,-281.01 1715,-255.078 1659.14,-153.33 1620.77,-133.856 1514,-88.3259 1423.42,-49.6998 1120.01,-33.2621 1014.52,-28.6227"/>
<polygon fill="green" stroke="green" stroke-width="0.118272" points="1014.51,-25.1191 1004.37,-28.186 1014.21,-32.1126 1014.51,-25.1191"/>
</g>
<!-- distance_2&#45;&gt;left -->
<g id="edge79" class="edge"><title>distance_2&#45;&gt;left</title>
<path fill="none" stroke="red" stroke-width="0.101832" stroke-dasharray="1,5" d="M1365.88,-436.434C1265.92,-431.197 921.718,-411.349 881,-384.416 854.921,-367.167 839.647,-333.744 831.582,-309.667"/>
<polygon fill="red" stroke="red" stroke-width="0.101832" points="834.883,-308.494 828.557,-299.995 828.202,-310.584 834.883,-308.494"/>
</g>
<!-- distance_2&#45;&gt;right -->
<g id="edge17" class="edge"><title>distance_2&#45;&gt;right</title>
<path fill="none" stroke="green" stroke-width="0.183424" d="M1365.94,-436.864C1215.34,-431.573 485.707,-404.955 443,-384.416 420.187,-373.445 422.366,-360.408 405,-341.99 393.213,-329.489 379.766,-315.883 368.594,-304.749"/>
<polygon fill="green" stroke="green" stroke-width="0.183424" points="370.834,-302.041 361.271,-297.48 365.903,-307.009 370.834,-302.041"/>
</g>
<!-- distance_2&#45;&gt;select -->
<g id="edge55" class="edge"><title>distance_2&#45;&gt;select</title>
<path fill="none" stroke="green" stroke-width="0.343066" d="M1372.01,-429.783C1349.4,-420.628 1312.94,-404.315 1285,-384.416 1263.13,-368.841 1263.03,-358.683 1242,-341.99 1218.53,-323.36 1209.95,-322.575 1185,-305.99 1183.09,-304.723 1181.14,-303.406 1179.17,-302.069"/>
<polygon fill="green" stroke="green" stroke-width="0.343066" points="1180.84,-298.967 1170.62,-296.178 1176.87,-304.733 1180.84,-298.967"/>
</g>
<!-- distance_2&#45;&gt;131 -->
<g id="edge25" class="edge"><title>distance_2&#45;&gt;131</title>
<path fill="none" stroke="green" stroke-width="0.186533" d="M1420.36,-437.131C1486.85,-434.869 1653.97,-425.161 1688,-384.416 1706.39,-362.396 1692.51,-329.206 1678.76,-306.518"/>
<polygon fill="green" stroke="green" stroke-width="0.186533" points="1681.7,-304.625 1673.37,-298.088 1675.81,-308.398 1681.7,-304.625"/>
</g>
<!-- 190 -->
<g id="node28" class="node"><title>190</title>
<ellipse fill="white" stroke="black" cx="911" cy="-363.203" rx="21.4286" ry="21.4286"/>
<text text-anchor="middle" x="911" y="-361.003" font-family="Times,serif" font-size="9.00">190</text>
</g>
<!-- distance_2&#45;&gt;190 -->
<g id="edge53" class="edge"><title>distance_2&#45;&gt;190</title>
<path fill="none" stroke="red" stroke-width="0.410835" d="M1365.7,-436.266C1280.41,-431.206 1019.9,-413.686 941,-384.416 939.381,-383.816 937.763,-383.111 936.166,-382.331"/>
<polygon fill="red" stroke="red" stroke-width="0.410835" points="937.773,-379.218 927.363,-377.25 934.274,-385.28 937.773,-379.218"/>
</g>
<!-- left&#45;&gt;82 -->
<g id="edge65" class="edge"><title>left&#45;&gt;82</title>
<path fill="none" stroke="green" stroke-width="0.678518" d="M804.519,-274.966C746.642,-261.393 575.548,-221.271 507.941,-205.417"/>
<polygon fill="green" stroke="green" stroke-width="0.678518" points="508.547,-201.965 498.012,-203.089 506.949,-208.78 508.547,-201.965"/>
</g>
<!-- right&#45;&gt;82 -->
<g id="edge23" class="edge"><title>right&#45;&gt;82</title>
<path fill="none" stroke="red" stroke-width="0.381052" d="M364.63,-267.804C388.728,-253.404 429.598,-228.983 455.667,-213.405"/>
<polygon fill="red" stroke="red" stroke-width="0.381052" points="457.755,-216.235 464.544,-208.101 454.164,-210.226 457.755,-216.235"/>
</g>
<!-- 256&#45;&gt;right -->
<g id="edge24" class="edge"><title>256&#45;&gt;right</title>
<path fill="none" stroke="green" stroke-width="1.17756" d="M367.89,-343.086C364.476,-333.906 360.3,-322.676 356.454,-312.333"/>
<polygon fill="green" stroke="green" stroke-width="1.17756" points="359.669,-310.938 352.903,-302.785 353.108,-313.378 359.669,-310.938"/>
</g>
<!-- 131&#45;&gt;attack -->
<g id="edge50" class="edge"><title>131&#45;&gt;attack</title>
<path fill="none" stroke="green" stroke-width="0.120525" d="M1640.65,-273.884C1593.19,-260.632 1477.96,-227.992 1462,-219.078 1437.14,-205.194 1439.08,-190.126 1414,-176.652 1351.23,-142.934 1268.57,-126.805 1221.98,-119.925"/>
<polygon fill="green" stroke="green" stroke-width="0.120525" points="1222.44,-116.456 1212.05,-118.519 1221.46,-123.387 1222.44,-116.456"/>
</g>
<!-- 73&#45;&gt;right -->
<g id="edge82" class="edge"><title>73&#45;&gt;right</title>
<path fill="none" stroke="green" stroke-width="0.193478" stroke-dasharray="1,5" d="M205.956,-420.391C209.086,-399.646 216.945,-364.919 236,-341.99 256.178,-317.708 288.76,-301.467 313.054,-291.989"/>
<polygon fill="green" stroke="green" stroke-width="0.193478" points="314.415,-295.217 322.569,-288.453 311.976,-288.655 314.415,-295.217"/>
</g>
<!-- 244 -->
<g id="node26" class="node"><title>244</title>
<ellipse fill="white" stroke="black" cx="163" cy="-363.203" rx="21.4286" ry="21.4286"/>
<text text-anchor="middle" x="163" y="-361.003" font-family="Times,serif" font-size="9.00">244</text>
</g>
<!-- 73&#45;&gt;244 -->
<g id="edge86" class="edge"><title>73&#45;&gt;244</title>
<path fill="none" stroke="green" stroke-width="0.380083" d="M195.305,-422.193C190.251,-413.12 183.744,-401.441 177.897,-390.944"/>
<polygon fill="green" stroke="green" stroke-width="0.380083" points="180.905,-389.152 172.981,-382.119 174.79,-392.558 180.905,-389.152"/>
</g>
<!-- 202&#45;&gt;down -->
<g id="edge71" class="edge"><title>202&#45;&gt;down</title>
<path fill="none" stroke="red" stroke-width="0.131737" d="M500.764,-109.889C577.404,-96.6044 844.955,-50.2256 942.267,-33.3572"/>
<polygon fill="red" stroke="red" stroke-width="0.131737" points="942.953,-36.7904 952.208,-31.6338 941.757,-29.8933 942.953,-36.7904"/>
</g>
<!-- 267&#45;&gt;down -->
<g id="edge51" class="edge"><title>267&#45;&gt;down</title>
<path fill="none" stroke="red" stroke-width="0.164426" d="M1507.21,-185.642C1501.8,-182.493 1495.77,-179.23 1490,-176.652 1318.98,-100.177 1098.5,-51.2132 1013.55,-34.0392"/>
<polygon fill="red" stroke="red" stroke-width="0.164426" points="1014.13,-30.5866 1003.64,-32.0565 1012.76,-37.4505 1014.13,-30.5866"/>
</g>
<!-- 123&#45;&gt;left -->
<g id="edge84" class="edge"><title>123&#45;&gt;left</title>
<path fill="none" stroke="red" stroke-width="0.206542" d="M752.154,-348.152C766.001,-335.313 786.635,-316.18 802.242,-301.709"/>
<polygon fill="red" stroke="red" stroke-width="0.206542" points="804.93,-303.99 809.883,-294.624 800.17,-298.857 804.93,-303.99"/>
</g>
<!-- 82&#45;&gt;attack -->
<g id="edge73" class="edge"><title>82&#45;&gt;attack</title>
<path fill="none" stroke="green" stroke-width="0.914066" stroke-dasharray="1,5" d="M494.234,-185.846C499.533,-182.308 505.777,-178.762 512,-176.652 572.608,-156.099 1018.25,-126.228 1149.64,-117.787"/>
<polygon fill="green" stroke="green" stroke-width="0.914066" points="1150.2,-121.258 1159.96,-117.126 1149.76,-114.272 1150.2,-121.258"/>
</g>
<!-- 82&#45;&gt;down -->
<g id="edge49" class="edge"><title>82&#45;&gt;down</title>
<path fill="none" stroke="red" stroke-width="0.591277" d="M494.534,-186.593C499.861,-183.125 506.046,-179.432 512,-176.652 665.797,-104.829 863.349,-54.0658 942.7,-35.2334"/>
<polygon fill="red" stroke="red" stroke-width="0.591277" points="943.726,-38.5878 952.659,-32.8909 942.123,-31.7737 943.726,-38.5878"/>
</g>
<!-- 82&#45;&gt;202 -->
<g id="edge85" class="edge"><title>82&#45;&gt;202</title>
<path fill="none" stroke="red" stroke-width="0.306154" d="M480,-179.208C480,-169.572 480,-157.368 480,-146.224"/>
<polygon fill="red" stroke="red" stroke-width="0.306154" points="483.5,-145.984 480,-135.984 476.5,-145.984 483.5,-145.984"/>
</g>
<!-- 244&#45;&gt;right -->
<g id="edge9" class="edge"><title>244&#45;&gt;right</title>
<path fill="none" stroke="green" stroke-width="0.328043" d="M180.915,-351.243C186.324,-348.102 192.333,-344.776 198,-341.99 236.935,-322.847 283.493,-304.414 313.625,-293.04"/>
<polygon fill="green" stroke="green" stroke-width="0.328043" points="315.041,-296.247 323.179,-289.462 312.586,-289.691 315.041,-296.247"/>
</g>
<!-- 219&#45;&gt;attack -->
<g id="edge58" class="edge"><title>219&#45;&gt;attack</title>
<path fill="none" stroke="green" stroke-width="0.148435" d="M1333,-186.081C1327.58,-182.945 1321.6,-179.578 1316,-176.652 1283.52,-159.669 1245.49,-142.03 1218.99,-130.083"/>
<polygon fill="green" stroke="green" stroke-width="0.148435" points="1220.33,-126.851 1209.78,-125.951 1217.47,-133.238 1220.33,-126.851"/>
</g>
<!-- 190&#45;&gt;left -->
<g id="edge13" class="edge"><title>190&#45;&gt;left</title>
<path fill="none" stroke="green" stroke-width="0.120623" d="M895.846,-348.152C881.999,-335.313 861.365,-316.18 845.758,-301.709"/>
<polygon fill="green" stroke="green" stroke-width="0.120623" points="847.83,-298.857 838.117,-294.624 843.07,-303.99 847.83,-298.857"/>
</g>
</g>
</svg>
