<?xml version="1.0" encoding="UTF-8" standalone="no"?>
<!DOCTYPE svg PUBLIC "-//W3C//DTD SVG 1.1//EN"
 "http://www.w3.org/Graphics/SVG/1.1/DTD/svg11.dtd">
<!-- Generated by graphviz version 2.38.0 (20140413.2041)
 -->
<!-- Title: %3 Pages: 1 -->
<svg width="1347pt" height="348pt"
 viewBox="0.00 0.00 1346.52 348.19" xmlns="http://www.w3.org/2000/svg" xmlns:xlink="http://www.w3.org/1999/xlink">
<g id="graph0" class="graph" transform="scale(1 1) rotate(0) translate(4 344.191)">
<title>%3</title>
<polygon fill="white" stroke="none" points="-4,4 -4,-344.191 1342.52,-344.191 1342.52,4 -4,4"/>
<!-- enemy_hp -->
<g id="node1" class="node"><title>enemy_hp</title>
<polygon fill="lightgray" stroke="black" points="390.707,-276.806 337.707,-276.806 337.707,-258.806 390.707,-258.806 390.707,-276.806"/>
<text text-anchor="middle" x="364.207" y="-265.606" font-family="Times,serif" font-size="9.00">enemy_hp</text>
</g>
<!-- attack -->
<g id="node12" class="node"><title>attack</title>
<ellipse fill="lightblue" stroke="black" cx="499.207" cy="-26.163" rx="26.3269" ry="26.3269"/>
<text text-anchor="middle" x="499.207" y="-23.963" font-family="Times,serif" font-size="9.00">attack</text>
</g>
<!-- enemy_hp&#45;&gt;attack -->
<g id="edge4" class="edge"><title>enemy_hp&#45;&gt;attack</title>
<path fill="none" stroke="red" stroke-width="0.387397" stroke-dasharray="1,5" d="M363.12,-258.579C359.955,-231.032 353.495,-140.829 396.207,-88.3259 414.351,-66.0222 442.937,-49.9705 465.396,-39.9229"/>
<polygon fill="red" stroke="red" stroke-width="0.387397" points="466.782,-43.1369 474.597,-35.9837 464.027,-36.7018 466.782,-43.1369"/>
</g>
<!-- up -->
<g id="node13" class="node"><title>up</title>
<ellipse fill="lightblue" stroke="black" cx="418.207" cy="-187.258" rx="18.2703" ry="18.2703"/>
<text text-anchor="middle" x="418.207" y="-185.058" font-family="Times,serif" font-size="9.00">up</text>
</g>
<!-- enemy_hp&#45;&gt;up -->
<g id="edge63" class="edge"><title>enemy_hp&#45;&gt;up</title>
<path fill="none" stroke="green" stroke-width="0.437997" d="M369.782,-258.696C377.422,-247.584 391.448,-227.182 402.446,-211.184"/>
<polygon fill="green" stroke="green" stroke-width="0.437997" points="405.403,-213.06 408.184,-202.837 399.635,-209.095 405.403,-213.06"/>
</g>
<!-- down -->
<g id="node14" class="node"><title>down</title>
<ellipse fill="lightblue" stroke="black" cx="655.207" cy="-187.258" rx="26.3269" ry="26.3269"/>
<text text-anchor="middle" x="655.207" y="-185.058" font-family="Times,serif" font-size="9.00">down</text>
</g>
<!-- enemy_hp&#45;&gt;down -->
<g id="edge47" class="edge"><title>enemy_hp&#45;&gt;down</title>
<path fill="none" stroke="red" stroke-width="0.506828" d="M390.802,-259.627C443.481,-245.408 561.083,-213.665 620.062,-197.745"/>
<polygon fill="red" stroke="red" stroke-width="0.506828" points="621.283,-201.041 630.025,-195.056 619.458,-194.283 621.283,-201.041"/>
</g>
<!-- left -->
<g id="node15" class="node"><title>left</title>
<ellipse fill="lightblue" stroke="black" cx="874.207" cy="-187.258" rx="19.6" ry="19.6"/>
<text text-anchor="middle" x="874.207" y="-185.058" font-family="Times,serif" font-size="9.00">left</text>
</g>
<!-- enemy_hp&#45;&gt;left -->
<g id="edge67" class="edge"><title>enemy_hp&#45;&gt;left</title>
<path fill="none" stroke="green" stroke-width="0.233926" d="M390.741,-259.605C404.759,-256.046 422.311,-251.978 438.207,-249.421 617.497,-220.582 678.049,-284.38 845.207,-213.421 848.06,-212.21 850.833,-210.609 853.462,-208.799"/>
<polygon fill="green" stroke="green" stroke-width="0.233926" points="855.671,-211.514 861.285,-202.529 851.293,-206.052 855.671,-211.514"/>
</g>
<!-- right -->
<g id="node16" class="node"><title>right</title>
<ellipse fill="lightblue" stroke="black" cx="478.207" cy="-187.258" rx="23.1702" ry="23.1702"/>
<text text-anchor="middle" x="478.207" y="-185.058" font-family="Times,serif" font-size="9.00">right</text>
</g>
<!-- enemy_hp&#45;&gt;right -->
<g id="edge78" class="edge"><title>enemy_hp&#45;&gt;right</title>
<path fill="none" stroke="red" stroke-width="0.324973" d="M377.015,-258.749C393.138,-248.521 421.581,-230.184 445.207,-213.421 447.366,-211.889 449.586,-210.278 451.803,-208.643"/>
<polygon fill="red" stroke="red" stroke-width="0.324973" points="454.32,-211.13 460.218,-202.329 450.119,-205.531 454.32,-211.13"/>
</g>
<!-- select -->
<g id="node17" class="node"><title>select</title>
<ellipse fill="lightblue" stroke="black" cx="811.207" cy="-187.258" rx="25.4118" ry="25.4118"/>
<text text-anchor="middle" x="811.207" y="-185.058" font-family="Times,serif" font-size="9.00">select</text>
</g>
<!-- enemy_hp&#45;&gt;select -->
<g id="edge77" class="edge"><title>enemy_hp&#45;&gt;select</title>
<path fill="none" stroke="red" stroke-width="0.248325" d="M390.802,-259.955C404.837,-256.492 422.385,-252.404 438.207,-249.421 549.386,-228.463 578.768,-232.949 690.207,-213.421 719.295,-208.324 752.08,-201.435 776.179,-196.153"/>
<polygon fill="red" stroke="red" stroke-width="0.248325" points="777.257,-199.5 786.267,-193.925 775.748,-192.664 777.257,-199.5"/>
</g>
<!-- 57 -->
<g id="node23" class="node"><title>57</title>
<ellipse fill="white" stroke="black" cx="423.207" cy="-106.711" rx="18.2703" ry="18.2703"/>
<text text-anchor="middle" x="423.207" y="-104.511" font-family="Times,serif" font-size="9.00">57</text>
</g>
<!-- enemy_hp&#45;&gt;57 -->
<g id="edge21" class="edge"><title>enemy_hp&#45;&gt;57</title>
<path fill="none" stroke="red" stroke-width="0.228771" d="M365.469,-258.592C368.432,-240.465 376.701,-195.886 391.207,-161.095 395.573,-150.623 401.741,-139.761 407.498,-130.59"/>
<polygon fill="red" stroke="red" stroke-width="0.228771" points="410.526,-132.353 413.036,-122.06 404.655,-128.541 410.526,-132.353"/>
</g>
<!-- player_hp_1 -->
<g id="node2" class="node"><title>player_hp_1</title>
<polygon fill="lightgray" stroke="black" points="1187.71,-340.191 1126.71,-340.191 1126.71,-322.191 1187.71,-322.191 1187.71,-340.191"/>
<text text-anchor="middle" x="1157.21" y="-328.991" font-family="Times,serif" font-size="9.00">player_hp_1</text>
</g>
<!-- player_hp_1&#45;&gt;attack -->
<g id="edge22" class="edge"><title>player_hp_1&#45;&gt;attack</title>
<path fill="none" stroke="green" stroke-width="0.56534" d="M1188.05,-326.895C1233.19,-321.364 1313.79,-308.564 1331.21,-286.191 1341.25,-273.296 1340.56,-262.824 1331.21,-249.421 1236.58,-113.8 684.238,-46.604 535.877,-30.8467"/>
<polygon fill="green" stroke="green" stroke-width="0.56534" points="535.821,-27.3218 525.511,-29.7601 535.092,-34.2836 535.821,-27.3218"/>
</g>
<!-- player_hp_1&#45;&gt;up -->
<g id="edge25" class="edge"><title>player_hp_1&#45;&gt;up</title>
<path fill="none" stroke="red" stroke-width="0.249787" d="M1126.49,-329.857C972.609,-328.038 291.679,-318.197 261.207,-286.191 217.505,-240.29 334.402,-206.974 390.322,-194.106"/>
<polygon fill="red" stroke="red" stroke-width="0.249787" points="391.318,-197.47 400.315,-191.875 389.793,-190.639 391.318,-197.47"/>
</g>
<!-- player_hp_1&#45;&gt;left -->
<g id="edge24" class="edge"><title>player_hp_1&#45;&gt;left</title>
<path fill="none" stroke="red" stroke-width="0.122327" stroke-dasharray="1,5" d="M1187.81,-326.017C1229.03,-319.696 1298.98,-306.266 1314.21,-286.191 1324.08,-273.169 1324.94,-261.747 1314.21,-249.421 1260.56,-187.797 994.291,-186.283 904.12,-187.591"/>
<polygon fill="red" stroke="red" stroke-width="0.122327" points="903.962,-184.093 894.023,-187.761 904.08,-191.092 903.962,-184.093"/>
</g>
<!-- player_hp_1&#45;&gt;right -->
<g id="edge9" class="edge"><title>player_hp_1&#45;&gt;right</title>
<path fill="none" stroke="green" stroke-width="0.361952" d="M1126.54,-329.474C992.315,-326.19 462.146,-311.64 438.207,-286.191 418.68,-265.433 437.523,-233.857 455.394,-212.205"/>
<polygon fill="green" stroke="green" stroke-width="0.361952" points="458.219,-214.289 462.113,-204.436 452.924,-209.71 458.219,-214.289"/>
</g>
<!-- player_hp_1&#45;&gt;select -->
<g id="edge16" class="edge"><title>player_hp_1&#45;&gt;select</title>
<path fill="none" stroke="green" stroke-width="0.585703" stroke-dasharray="1,5" d="M1151.01,-322.141C1137.7,-305.476 1104.52,-267.265 1067.21,-249.421 977.032,-206.297 937.313,-252.249 845.207,-213.421 843.062,-212.517 840.928,-211.452 838.834,-210.278"/>
<polygon fill="green" stroke="green" stroke-width="0.585703" points="840.312,-207.068 830.006,-204.61 836.53,-212.958 840.312,-207.068"/>
</g>
<!-- 67 -->
<g id="node18" class="node"><title>67</title>
<ellipse fill="white" stroke="black" cx="1287.21" cy="-267.806" rx="18.2703" ry="18.2703"/>
<text text-anchor="middle" x="1287.21" y="-265.606" font-family="Times,serif" font-size="9.00">67</text>
</g>
<!-- player_hp_1&#45;&gt;67 -->
<g id="edge29" class="edge"><title>player_hp_1&#45;&gt;67</title>
<path fill="none" stroke="green" stroke-width="0.125944" d="M1176.19,-322.174C1196.08,-313.658 1228.13,-299.599 1255.21,-286.191 1257.54,-285.037 1259.94,-283.805 1262.34,-282.55"/>
<polygon fill="green" stroke="green" stroke-width="0.125944" points="1264.22,-285.518 1271.38,-277.712 1260.91,-279.347 1264.22,-285.518"/>
</g>
<!-- 27 -->
<g id="node24" class="node"><title>27</title>
<ellipse fill="white" stroke="black" cx="1157.21" cy="-267.806" rx="18.2703" ry="18.2703"/>
<text text-anchor="middle" x="1157.21" y="-265.606" font-family="Times,serif" font-size="9.00">27</text>
</g>
<!-- player_hp_1&#45;&gt;27 -->
<g id="edge2" class="edge"><title>player_hp_1&#45;&gt;27</title>
<path fill="none" stroke="red" stroke-width="0.47728" d="M1157.21,-322.166C1157.21,-315.602 1157.21,-305.912 1157.21,-296.585"/>
<polygon fill="red" stroke="red" stroke-width="0.47728" points="1160.71,-296.394 1157.21,-286.394 1153.71,-296.394 1160.71,-296.394"/>
</g>
<!-- player_hp_2 -->
<g id="node3" class="node"><title>player_hp_2</title>
<polygon fill="lightgray" stroke="black" points="508.707,-276.806 447.707,-276.806 447.707,-258.806 508.707,-258.806 508.707,-276.806"/>
<text text-anchor="middle" x="478.207" y="-265.606" font-family="Times,serif" font-size="9.00">player_hp_2</text>
</g>
<!-- player_hp_2&#45;&gt;attack -->
<g id="edge72" class="edge"><title>player_hp_2&#45;&gt;attack</title>
<path fill="none" stroke="red" stroke-width="0.799613" stroke-dasharray="1,5" d="M489.513,-258.472C501.247,-249.048 518.888,-232.507 526.207,-213.421 546.113,-161.509 537.68,-142.727 526.207,-88.3259 524.091,-78.2951 520.222,-67.9056 516.06,-58.5988"/>
<polygon fill="red" stroke="red" stroke-width="0.799613" points="519.124,-56.8908 511.679,-49.3525 512.798,-59.8881 519.124,-56.8908"/>
</g>
<!-- player_hp_2&#45;&gt;up -->
<g id="edge52" class="edge"><title>player_hp_2&#45;&gt;up</title>
<path fill="none" stroke="green" stroke-width="0.504245" d="M472.012,-258.696C463.422,-247.451 447.567,-226.694 435.284,-210.615"/>
<polygon fill="green" stroke="green" stroke-width="0.504245" points="437.749,-208.075 428.897,-202.253 432.186,-212.324 437.749,-208.075"/>
</g>
<!-- player_hp_2&#45;&gt;down -->
<g id="edge36" class="edge"><title>player_hp_2&#45;&gt;down</title>
<path fill="none" stroke="red" stroke-width="0.407538" stroke-dasharray="1,5" d="M496.482,-258.696C526.077,-245.563 584.912,-219.453 622.043,-202.976"/>
<polygon fill="red" stroke="red" stroke-width="0.407538" points="623.72,-206.061 631.441,-198.805 620.88,-199.662 623.72,-206.061"/>
</g>
<!-- player_hp_2&#45;&gt;left -->
<g id="edge7" class="edge"><title>player_hp_2&#45;&gt;left</title>
<path fill="none" stroke="red" stroke-width="0.431776" d="M508.821,-259.274C523.149,-255.931 540.486,-252.146 556.207,-249.421 683.743,-227.317 726.982,-266.118 845.207,-213.421 848.038,-212.159 850.797,-210.526 853.418,-208.697"/>
<polygon fill="red" stroke="red" stroke-width="0.431776" points="855.637,-211.404 861.232,-202.407 851.247,-205.951 855.637,-211.404"/>
</g>
<!-- player_hp_2&#45;&gt;right -->
<g id="edge56" class="edge"><title>player_hp_2&#45;&gt;right</title>
<path fill="none" stroke="green" stroke-width="0.713812" d="M478.207,-258.696C478.207,-249.763 478.207,-234.826 478.207,-221"/>
<polygon fill="green" stroke="green" stroke-width="0.713812" points="481.707,-220.762 478.207,-210.762 474.707,-220.762 481.707,-220.762"/>
</g>
<!-- player_hp_2&#45;&gt;select -->
<g id="edge33" class="edge"><title>player_hp_2&#45;&gt;select</title>
<path fill="none" stroke="red" stroke-width="0.185636" d="M508.938,-259.557C571.141,-244.885 711.57,-211.761 776.759,-196.384"/>
<polygon fill="red" stroke="red" stroke-width="0.185636" points="777.622,-199.776 786.551,-194.074 776.015,-192.963 777.622,-199.776"/>
</g>
<!-- 19 -->
<g id="node22" class="node"><title>19</title>
<ellipse fill="white" stroke="black" cx="499.207" cy="-106.711" rx="18.2703" ry="18.2703"/>
<text text-anchor="middle" x="499.207" y="-104.511" font-family="Times,serif" font-size="9.00">19</text>
</g>
<!-- player_hp_2&#45;&gt;19 -->
<g id="edge66" class="edge"><title>player_hp_2&#45;&gt;19</title>
<path fill="none" stroke="green" stroke-width="0.15147" d="M484.955,-258.774C492.803,-248.858 505.307,-231.126 510.207,-213.421 517.481,-187.136 512.688,-155.962 507.338,-134.309"/>
<polygon fill="green" stroke="green" stroke-width="0.15147" points="510.681,-133.263 504.717,-124.506 503.919,-135.071 510.681,-133.263"/>
</g>
<!-- enemy_x -->
<g id="node4" class="node"><title>enemy_x</title>
<polygon fill="lightgray" stroke="black" points="319.707,-276.806 270.707,-276.806 270.707,-258.806 319.707,-258.806 319.707,-276.806"/>
<text text-anchor="middle" x="295.207" y="-265.606" font-family="Times,serif" font-size="9.00">enemy_x</text>
</g>
<!-- enemy_x&#45;&gt;attack -->
<g id="edge58" class="edge"><title>enemy_x&#45;&gt;attack</title>
<path fill="none" stroke="green" stroke-width="0.578319" stroke-dasharray="1,5" d="M296.634,-258.567C301.807,-230.986 321.978,-140.684 372.207,-88.3259 397.405,-62.0593 436.192,-45.6684 464.273,-36.5441"/>
<polygon fill="green" stroke="green" stroke-width="0.578319" points="465.571,-39.8064 474.089,-33.5065 463.501,-33.1192 465.571,-39.8064"/>
</g>
<!-- enemy_x&#45;&gt;up -->
<g id="edge75" class="edge"><title>enemy_x&#45;&gt;up</title>
<path fill="none" stroke="red" stroke-width="0.148973" d="M307.907,-258.696C328.332,-245.653 368.799,-219.81 394.629,-203.315"/>
<polygon fill="red" stroke="red" stroke-width="0.148973" points="396.553,-206.239 403.098,-197.907 392.786,-200.339 396.553,-206.239"/>
</g>
<!-- enemy_x&#45;&gt;down -->
<g id="edge13" class="edge"><title>enemy_x&#45;&gt;down</title>
<path fill="none" stroke="red" stroke-width="0.214949" d="M308.282,-258.755C314.184,-255.431 321.357,-251.805 328.207,-249.421 341.987,-244.626 537.819,-209.281 619.663,-194.612"/>
<polygon fill="red" stroke="red" stroke-width="0.214949" points="620.289,-198.055 629.516,-192.847 619.055,-191.165 620.289,-198.055"/>
</g>
<!-- enemy_x&#45;&gt;left -->
<g id="edge32" class="edge"><title>enemy_x&#45;&gt;left</title>
<path fill="none" stroke="red" stroke-width="0.108526" d="M307.538,-258.739C313.529,-255.239 320.982,-251.477 328.207,-249.421 549.748,-186.389 632.353,-301.438 845.207,-213.421 848.071,-212.237 850.852,-210.653 853.484,-208.853"/>
<polygon fill="red" stroke="red" stroke-width="0.108526" points="855.688,-211.572 861.312,-202.594 851.316,-206.105 855.688,-211.572"/>
</g>
<!-- enemy_x&#45;&gt;right -->
<g id="edge64" class="edge"><title>enemy_x&#45;&gt;right</title>
<path fill="none" stroke="green" stroke-width="0.30821" d="M309.061,-258.77C314.859,-255.602 321.743,-252.091 328.207,-249.421 378.492,-228.652 396.823,-238.302 445.207,-213.421 447.561,-212.21 449.92,-210.829 452.233,-209.35"/>
<polygon fill="green" stroke="green" stroke-width="0.30821" points="454.647,-211.932 460.823,-203.324 450.626,-206.202 454.647,-211.932"/>
</g>
<!-- enemy_x&#45;&gt;select -->
<g id="edge1" class="edge"><title>enemy_x&#45;&gt;select</title>
<path fill="none" stroke="green" stroke-width="0.627701" d="M307.877,-258.655C313.82,-255.226 321.137,-251.546 328.207,-249.421 483.046,-202.879 530.39,-237.915 690.207,-213.421 719.528,-208.928 752.469,-201.949 776.568,-196.48"/>
<polygon fill="green" stroke="green" stroke-width="0.627701" points="777.356,-199.89 786.319,-194.24 775.789,-193.068 777.356,-199.89"/>
</g>
<!-- 40 -->
<g id="node19" class="node"><title>40</title>
<ellipse fill="white" stroke="black" cx="250.207" cy="-106.711" rx="18.2703" ry="18.2703"/>
<text text-anchor="middle" x="250.207" y="-104.511" font-family="Times,serif" font-size="9.00">40</text>
</g>
<!-- enemy_x&#45;&gt;40 -->
<g id="edge11" class="edge"><title>enemy_x&#45;&gt;40</title>
<path fill="none" stroke="green" stroke-width="0.167647" d="M292.913,-258.698C286.523,-236.106 268.301,-171.683 257.84,-134.698"/>
<polygon fill="green" stroke="green" stroke-width="0.167647" points="261.078,-133.284 254.988,-124.614 254.342,-135.189 261.078,-133.284"/>
</g>
<!-- enemy_y -->
<g id="node5" class="node"><title>enemy_y</title>
<polygon fill="lightgray" stroke="black" points="679.707,-340.191 630.707,-340.191 630.707,-322.191 679.707,-322.191 679.707,-340.191"/>
<text text-anchor="middle" x="655.207" y="-328.991" font-family="Times,serif" font-size="9.00">enemy_y</text>
</g>
<!-- enemy_y&#45;&gt;attack -->
<g id="edge43" class="edge"><title>enemy_y&#45;&gt;attack</title>
<path fill="none" stroke="green" stroke-width="0.531536" d="M630.644,-330.248C524.957,-330.24 112.549,-327.546 74.2067,-286.191 -3.68211,-202.18 -31.8638,-234.787 223.207,-88.3259 300.777,-43.785 407.787,-31.664 463.003,-28.3768"/>
<polygon fill="green" stroke="green" stroke-width="0.531536" points="463.211,-31.8708 473.011,-27.845 462.84,-24.8806 463.211,-31.8708"/>
</g>
<!-- enemy_y&#45;&gt;up -->
<g id="edge26" class="edge"><title>enemy_y&#45;&gt;up</title>
<path fill="none" stroke="red" stroke-width="0.350896" d="M630.403,-330.18C526.526,-329.881 130.127,-326.114 93.2067,-286.191 7.09333,-193.072 295.499,-187.308 389.549,-187.833"/>
<polygon fill="red" stroke="red" stroke-width="0.350896" points="389.741,-191.335 399.771,-187.92 389.801,-184.335 389.741,-191.335"/>
</g>
<!-- enemy_y&#45;&gt;down -->
<g id="edge79" class="edge"><title>enemy_y&#45;&gt;down</title>
<path fill="none" stroke="red" stroke-width="0.128945" stroke-dasharray="1,5" d="M662.106,-322.091C668.737,-313.729 678.31,-299.991 682.207,-286.191 688.52,-263.83 681.185,-238.549 672.577,-219.274"/>
<polygon fill="red" stroke="red" stroke-width="0.128945" points="675.641,-217.569 668.165,-210.062 669.328,-220.593 675.641,-217.569"/>
</g>
<!-- enemy_y&#45;&gt;left -->
<g id="edge61" class="edge"><title>enemy_y&#45;&gt;left</title>
<path fill="none" stroke="red" stroke-width="0.44525" d="M680.01,-330.18C783.888,-329.881 1180.29,-326.114 1217.21,-286.191 1228.3,-274.193 1227.7,-261.95 1217.21,-249.421 1177.32,-201.796 980.635,-191.22 904.437,-188.9"/>
<polygon fill="red" stroke="red" stroke-width="0.44525" points="904.196,-185.392 894.103,-188.615 904.002,-192.39 904.196,-185.392"/>
</g>
<!-- enemy_y&#45;&gt;right -->
<g id="edge40" class="edge"><title>enemy_y&#45;&gt;right</title>
<path fill="none" stroke="red" stroke-width="0.110043" d="M630.6,-329.311C548.226,-326.115 285.929,-313.828 261.207,-286.191 250.311,-274.011 250.82,-262.038 261.207,-249.421 314.171,-185.091 369.2,-247.577 445.207,-213.421 447.856,-212.231 450.489,-210.791 453.046,-209.211"/>
<polygon fill="red" stroke="red" stroke-width="0.110043" points="455.13,-212.024 461.354,-203.45 451.142,-206.272 455.13,-212.024"/>
</g>
<!-- enemy_y&#45;&gt;select -->
<g id="edge17" class="edge"><title>enemy_y&#45;&gt;select</title>
<path fill="none" stroke="red" stroke-width="0.386429" d="M679.814,-329.311C762.187,-326.115 1024.48,-313.828 1049.21,-286.191 1060.1,-274.011 1059.71,-261.941 1049.21,-249.421 990.032,-178.889 929.794,-249.774 845.207,-213.421 843.069,-212.503 840.939,-211.426 838.849,-210.244"/>
<polygon fill="red" stroke="red" stroke-width="0.386429" points="840.329,-207.034 830.028,-204.557 836.536,-212.917 840.329,-207.034"/>
</g>
<!-- 74 -->
<g id="node20" class="node"><title>74</title>
<ellipse fill="white" stroke="black" cx="655.207" cy="-267.806" rx="18.2703" ry="18.2703"/>
<text text-anchor="middle" x="655.207" y="-265.606" font-family="Times,serif" font-size="9.00">74</text>
</g>
<!-- enemy_y&#45;&gt;74 -->
<g id="edge53" class="edge"><title>enemy_y&#45;&gt;74</title>
<path fill="none" stroke="green" stroke-width="0.321036" d="M655.207,-322.166C655.207,-315.602 655.207,-305.912 655.207,-296.585"/>
<polygon fill="green" stroke="green" stroke-width="0.321036" points="658.707,-296.394 655.207,-286.394 651.707,-296.394 658.707,-296.394"/>
</g>
<!-- player_x_1 -->
<g id="node6" class="node"><title>player_x_1</title>
<polygon fill="lightgray" stroke="black" points="785.207,-276.806 729.207,-276.806 729.207,-258.806 785.207,-258.806 785.207,-276.806"/>
<text text-anchor="middle" x="757.207" y="-265.606" font-family="Times,serif" font-size="9.00">player_x_1</text>
</g>
<!-- player_x_1&#45;&gt;attack -->
<g id="edge30" class="edge"><title>player_x_1&#45;&gt;attack</title>
<path fill="none" stroke="red" stroke-width="0.150844" d="M753.433,-258.64C744.467,-239.838 720.36,-192.689 690.207,-161.095 641.696,-110.268 571.218,-66.8215 530.825,-44.0946"/>
<polygon fill="red" stroke="red" stroke-width="0.150844" points="532.399,-40.9653 521.958,-39.1672 528.999,-47.084 532.399,-40.9653"/>
</g>
<!-- player_x_1&#45;&gt;up -->
<g id="edge45" class="edge"><title>player_x_1&#45;&gt;up</title>
<path fill="none" stroke="green" stroke-width="0.249706" d="M729.179,-259.774C715.132,-256.386 697.827,-252.419 682.207,-249.421 578.005,-229.427 542.125,-258.78 446.207,-213.421 443.193,-211.996 440.27,-210.141 437.519,-208.082"/>
<polygon fill="green" stroke="green" stroke-width="0.249706" points="439.741,-205.377 429.871,-201.527 435.186,-210.692 439.741,-205.377"/>
</g>
<!-- player_x_1&#45;&gt;down -->
<g id="edge20" class="edge"><title>player_x_1&#45;&gt;down</title>
<path fill="none" stroke="red" stroke-width="0.33792" d="M746.675,-258.696C731.936,-247.346 704.613,-226.305 683.653,-210.164"/>
<polygon fill="red" stroke="red" stroke-width="0.33792" points="685.745,-207.358 675.687,-204.03 681.475,-212.904 685.745,-207.358"/>
</g>
<!-- player_x_1&#45;&gt;left -->
<g id="edge46" class="edge"><title>player_x_1&#45;&gt;left</title>
<path fill="none" stroke="green" stroke-width="0.513782" d="M772.334,-258.664C790.27,-248.779 820.805,-231.213 845.207,-213.421 847.58,-211.691 849.995,-209.811 852.368,-207.884"/>
<polygon fill="green" stroke="green" stroke-width="0.513782" points="854.775,-210.432 860.148,-201.3 850.253,-205.088 854.775,-210.432"/>
</g>
<!-- player_x_1&#45;&gt;right -->
<g id="edge37" class="edge"><title>player_x_1&#45;&gt;right</title>
<path fill="none" stroke="green" stroke-width="0.246766" d="M729.178,-258.915C677.121,-244.259 565.799,-212.919 510.607,-197.38"/>
<polygon fill="green" stroke="green" stroke-width="0.246766" points="511.241,-193.923 500.666,-194.582 509.344,-200.661 511.241,-193.923"/>
</g>
<!-- player_x_1&#45;&gt;select -->
<g id="edge71" class="edge"><title>player_x_1&#45;&gt;select</title>
<path fill="none" stroke="green" stroke-width="0.345499" d="M762.782,-258.696C769.495,-248.932 781.139,-231.995 791.326,-217.176"/>
<polygon fill="green" stroke="green" stroke-width="0.345499" points="794.327,-218.989 797.108,-208.766 788.559,-215.024 794.327,-218.989"/>
</g>
<!-- player_y_1 -->
<g id="node7" class="node"><title>player_y_1</title>
<polygon fill="lightgray" stroke="black" points="859.207,-276.806 803.207,-276.806 803.207,-258.806 859.207,-258.806 859.207,-276.806"/>
<text text-anchor="middle" x="831.207" y="-265.606" font-family="Times,serif" font-size="9.00">player_y_1</text>
</g>
<!-- player_y_1&#45;&gt;attack -->
<g id="edge14" class="edge"><title>player_y_1&#45;&gt;attack</title>
<path fill="none" stroke="green" stroke-width="0.191138" d="M823.035,-258.705C801.424,-237.299 743.071,-179.611 723.207,-161.095 687.563,-127.873 682.327,-114.467 641.207,-88.3259 606.812,-66.4606 563.264,-49.0165 533.521,-38.4409"/>
<polygon fill="green" stroke="green" stroke-width="0.191138" points="534.591,-35.1074 523.996,-35.1212 532.287,-41.7174 534.591,-35.1074"/>
</g>
<!-- player_y_1&#45;&gt;up -->
<g id="edge76" class="edge"><title>player_y_1&#45;&gt;up</title>
<path fill="none" stroke="green" stroke-width="0.287129" d="M816.879,-258.694C810.192,-255.273 802.002,-251.589 794.207,-249.421 644.396,-207.772 588.338,-276.481 446.207,-213.421 443.16,-212.07 440.216,-210.258 437.454,-208.223"/>
<polygon fill="green" stroke="green" stroke-width="0.287129" points="439.676,-205.517 429.798,-201.686 435.131,-210.841 439.676,-205.517"/>
</g>
<!-- player_y_1&#45;&gt;down -->
<g id="edge59" class="edge"><title>player_y_1&#45;&gt;down</title>
<path fill="none" stroke="red" stroke-width="0.228793" d="M814.301,-258.756C808.009,-255.787 800.796,-252.419 794.207,-249.421 758.141,-233.017 716.518,-214.795 688.291,-202.543"/>
<polygon fill="red" stroke="red" stroke-width="0.228793" points="689.464,-199.236 678.897,-198.47 686.68,-205.659 689.464,-199.236"/>
</g>
<!-- player_y_1&#45;&gt;left -->
<g id="edge41" class="edge"><title>player_y_1&#45;&gt;left</title>
<path fill="none" stroke="green" stroke-width="0.21496" d="M835.647,-258.696C841.368,-248.244 851.59,-229.573 860.071,-214.079"/>
<polygon fill="green" stroke="green" stroke-width="0.21496" points="863.34,-215.397 865.072,-204.945 857.2,-212.036 863.34,-215.397"/>
</g>
<!-- player_y_1&#45;&gt;right -->
<g id="edge5" class="edge"><title>player_y_1&#45;&gt;right</title>
<path fill="none" stroke="red" stroke-width="0.249266" d="M816.073,-258.654C809.504,-255.392 801.629,-251.842 794.207,-249.421 767.378,-240.673 586.142,-207.65 510.876,-194.107"/>
<polygon fill="red" stroke="red" stroke-width="0.249266" points="511.447,-190.654 500.986,-192.33 510.209,-197.543 511.447,-190.654"/>
</g>
<!-- player_y_1&#45;&gt;select -->
<g id="edge68" class="edge"><title>player_y_1&#45;&gt;select</title>
<path fill="none" stroke="red" stroke-width="0.74319" d="M829.142,-258.696C826.931,-250.013 823.275,-235.657 819.84,-222.163"/>
<polygon fill="red" stroke="red" stroke-width="0.74319" points="823.142,-220.947 817.282,-212.12 816.358,-222.675 823.142,-220.947"/>
</g>
<!-- player_x_2 -->
<g id="node8" class="node"><title>player_x_2</title>
<polygon fill="lightgray" stroke="black" points="933.207,-276.806 877.207,-276.806 877.207,-258.806 933.207,-258.806 933.207,-276.806"/>
<text text-anchor="middle" x="905.207" y="-265.606" font-family="Times,serif" font-size="9.00">player_x_2</text>
</g>
<!-- player_x_2&#45;&gt;attack -->
<g id="edge28" class="edge"><title>player_x_2&#45;&gt;attack</title>
<path fill="none" stroke="green" stroke-width="0.403639" d="M907.912,-258.665C913.728,-239.508 925.195,-190.951 903.207,-161.095 815.365,-41.8245 617.368,-27.221 535.595,-26.4981"/>
<polygon fill="green" stroke="green" stroke-width="0.403639" points="535.539,-22.9981 525.531,-26.4754 535.523,-29.9981 535.539,-22.9981"/>
</g>
<!-- player_x_2&#45;&gt;up -->
<g id="edge38" class="edge"><title>player_x_2&#45;&gt;up</title>
<path fill="none" stroke="red" stroke-width="0.366196" d="M890.897,-258.629C884.213,-255.195 876.021,-251.518 868.207,-249.421 686.402,-200.634 618.948,-288.211 446.207,-213.421 443.148,-212.097 440.197,-210.302 437.431,-208.276"/>
<polygon fill="red" stroke="red" stroke-width="0.366196" points="439.653,-205.57 429.772,-201.745 435.111,-210.897 439.653,-205.57"/>
</g>
<!-- player_x_2&#45;&gt;down -->
<g id="edge42" class="edge"><title>player_x_2&#45;&gt;down</title>
<path fill="none" stroke="red" stroke-width="0.269177" d="M889.601,-258.796C883.088,-255.633 875.382,-252.118 868.207,-249.421 806.987,-226.418 733.156,-206.996 690.453,-196.542"/>
<polygon fill="red" stroke="red" stroke-width="0.269177" points="691.093,-193.096 680.55,-194.142 689.444,-199.899 691.093,-193.096"/>
</g>
<!-- player_x_2&#45;&gt;left -->
<g id="edge48" class="edge"><title>player_x_2&#45;&gt;left</title>
<path fill="none" stroke="red" stroke-width="0.204045" d="M902.006,-258.696C897.996,-248.535 890.921,-230.608 884.912,-215.383"/>
<polygon fill="red" stroke="red" stroke-width="0.204045" points="888.087,-213.894 881.16,-205.877 881.576,-216.464 888.087,-213.894"/>
</g>
<!-- player_x_2&#45;&gt;right -->
<g id="edge73" class="edge"><title>player_x_2&#45;&gt;right</title>
<path fill="none" stroke="red" stroke-width="0.305584" d="M890.483,-258.662C883.854,-255.321 875.82,-251.707 868.207,-249.421 761.534,-217.391 730.166,-231.14 620.207,-213.421 582.782,-207.391 539.955,-199.692 511.207,-194.407"/>
<polygon fill="red" stroke="red" stroke-width="0.305584" points="511.758,-190.95 501.289,-192.577 510.488,-197.834 511.758,-190.95"/>
</g>
<!-- player_x_2&#45;&gt;select -->
<g id="edge8" class="edge"><title>player_x_2&#45;&gt;select</title>
<path fill="none" stroke="red" stroke-width="0.283594" d="M895.501,-258.696C882.121,-247.515 857.485,-226.929 838.289,-210.889"/>
<polygon fill="red" stroke="red" stroke-width="0.283594" points="840.361,-208.059 830.443,-204.333 835.873,-213.431 840.361,-208.059"/>
</g>
<!-- player_y_2 -->
<g id="node9" class="node"><title>player_y_2</title>
<polygon fill="lightgray" stroke="black" points="1007.21,-276.806 951.207,-276.806 951.207,-258.806 1007.21,-258.806 1007.21,-276.806"/>
<text text-anchor="middle" x="979.207" y="-265.606" font-family="Times,serif" font-size="9.00">player_y_2</text>
</g>
<!-- player_y_2&#45;&gt;attack -->
<g id="edge55" class="edge"><title>player_y_2&#45;&gt;attack</title>
<path fill="none" stroke="red" stroke-width="0.152252" d="M976.654,-258.749C966.839,-229.31 928.417,-127.258 856.207,-88.3259 800.917,-58.5169 614.506,-37.9844 535.297,-30.4038"/>
<polygon fill="red" stroke="red" stroke-width="0.152252" points="535.582,-26.9152 525.298,-29.4614 534.926,-33.8843 535.582,-26.9152"/>
</g>
<!-- player_y_2&#45;&gt;up -->
<g id="edge39" class="edge"><title>player_y_2&#45;&gt;up</title>
<path fill="none" stroke="red" stroke-width="0.348117" d="M965.259,-258.764C958.515,-255.27 950.172,-251.505 942.207,-249.421 728.377,-193.487 649.588,-299.954 446.207,-213.421 443.14,-212.116 440.183,-210.333 437.415,-208.313"/>
<polygon fill="red" stroke="red" stroke-width="0.348117" points="439.636,-205.607 429.754,-201.787 435.097,-210.936 439.636,-205.607"/>
</g>
<!-- player_y_2&#45;&gt;down -->
<g id="edge10" class="edge"><title>player_y_2&#45;&gt;down</title>
<path fill="none" stroke="green" stroke-width="0.38951" d="M964.05,-258.722C957.478,-255.471 949.606,-251.911 942.207,-249.421 930.245,-245.396 764.808,-210.949 690.686,-195.594"/>
<polygon fill="green" stroke="green" stroke-width="0.38951" points="691.36,-192.159 680.858,-193.559 689.941,-199.014 691.36,-192.159"/>
</g>
<!-- player_y_2&#45;&gt;left -->
<g id="edge74" class="edge"><title>player_y_2&#45;&gt;left</title>
<path fill="none" stroke="green" stroke-width="0.374633" d="M968.365,-258.696C951.898,-246.377 920.169,-222.642 898.119,-206.147"/>
<polygon fill="green" stroke="green" stroke-width="0.374633" points="900.013,-203.192 889.909,-200.005 895.819,-208.797 900.013,-203.192"/>
</g>
<!-- player_y_2&#45;&gt;right -->
<g id="edge62" class="edge"><title>player_y_2&#45;&gt;right</title>
<path fill="none" stroke="green" stroke-width="0.334386" d="M964.871,-258.723C958.182,-255.309 949.993,-251.621 942.207,-249.421 803.626,-210.277 762.732,-233.995 620.207,-213.421 582.688,-208.006 539.879,-200.194 511.16,-194.715"/>
<polygon fill="green" stroke="green" stroke-width="0.334386" points="511.734,-191.261 501.253,-192.811 510.413,-198.136 511.734,-191.261"/>
</g>
<!-- player_y_2&#45;&gt;select -->
<g id="edge44" class="edge"><title>player_y_2&#45;&gt;select</title>
<path fill="none" stroke="green" stroke-width="0.248026" d="M962.763,-258.718C956.396,-255.682 949.013,-252.277 942.207,-249.421 899.804,-231.628 885.644,-235.316 845.207,-213.421 843.213,-212.342 841.205,-211.157 839.217,-209.907"/>
<polygon fill="green" stroke="green" stroke-width="0.248026" points="840.958,-206.859 830.717,-204.144 837.03,-212.653 840.958,-206.859"/>
</g>
<!-- distance_1 -->
<g id="node10" class="node"><title>distance_1</title>
<polygon fill="lightgray" stroke="black" points="619.207,-276.806 565.207,-276.806 565.207,-258.806 619.207,-258.806 619.207,-276.806"/>
<text text-anchor="middle" x="592.207" y="-265.606" font-family="Times,serif" font-size="9.00">distance_1</text>
</g>
<!-- distance_1&#45;&gt;up -->
<g id="edge60" class="edge"><title>distance_1&#45;&gt;up</title>
<path fill="none" stroke="red" stroke-width="0.379777" d="M564.996,-260.21C534.593,-252.099 484.603,-236.506 446.207,-213.421 443.494,-211.79 440.805,-209.875 438.228,-207.843"/>
<polygon fill="red" stroke="red" stroke-width="0.379777" points="440.341,-205.043 430.487,-201.151 435.763,-210.339 440.341,-205.043"/>
</g>
<!-- distance_1&#45;&gt;down -->
<g id="edge3" class="edge"><title>distance_1&#45;&gt;down</title>
<path fill="none" stroke="green" stroke-width="0.172764" d="M598.712,-258.696C606.722,-248.708 620.753,-231.215 632.827,-216.162"/>
<polygon fill="green" stroke="green" stroke-width="0.172764" points="635.756,-218.103 639.282,-208.113 630.295,-213.724 635.756,-218.103"/>
</g>
<!-- distance_1&#45;&gt;left -->
<g id="edge23" class="edge"><title>distance_1&#45;&gt;left</title>
<path fill="none" stroke="green" stroke-width="0.343881" d="M606.531,-258.723C612.98,-255.393 620.797,-251.772 628.207,-249.421 721.394,-219.864 756.737,-255.021 845.207,-213.421 848.012,-212.102 850.754,-210.432 853.365,-208.582"/>
<polygon fill="green" stroke="green" stroke-width="0.343881" points="855.596,-211.28 861.169,-202.269 851.193,-205.838 855.596,-211.28"/>
</g>
<!-- distance_1&#45;&gt;right -->
<g id="edge34" class="edge"><title>distance_1&#45;&gt;right</title>
<path fill="none" stroke="green" stroke-width="0.323893" d="M580.436,-258.696C562.906,-246.617 529.445,-223.562 505.581,-207.119"/>
<polygon fill="green" stroke="green" stroke-width="0.323893" points="507.49,-204.185 497.27,-201.393 503.518,-209.949 507.49,-204.185"/>
</g>
<!-- distance_1&#45;&gt;select -->
<g id="edge50" class="edge"><title>distance_1&#45;&gt;select</title>
<path fill="none" stroke="green" stroke-width="0.412674" d="M607.782,-258.749C614.048,-255.65 621.392,-252.193 628.207,-249.421 679.12,-228.718 739.943,-209.429 777.059,-198.245"/>
<polygon fill="green" stroke="green" stroke-width="0.412674" points="778.292,-201.53 786.871,-195.312 776.287,-194.823 778.292,-201.53"/>
</g>
<!-- distance_2 -->
<g id="node11" class="node"><title>distance_2</title>
<polygon fill="lightgray" stroke="black" points="193.207,-340.191 139.207,-340.191 139.207,-322.191 193.207,-322.191 193.207,-340.191"/>
<text text-anchor="middle" x="166.207" y="-328.991" font-family="Times,serif" font-size="9.00">distance_2</text>
</g>
<!-- distance_2&#45;&gt;attack -->
<g id="edge27" class="edge"><title>distance_2&#45;&gt;attack</title>
<path fill="none" stroke="red" stroke-width="0.443881" d="M138.95,-328.935C108.581,-326.011 60.2104,-316.53 33.2067,-286.191 -4.02237,-244.363 -10.8574,-208.958 18.2067,-161.095 65.511,-83.1946 359.633,-42.9053 463.185,-30.9988"/>
<polygon fill="red" stroke="red" stroke-width="0.443881" points="463.618,-34.4723 473.162,-29.8722 462.832,-27.5165 463.618,-34.4723"/>
</g>
<!-- distance_2&#45;&gt;up -->
<g id="edge6" class="edge"><title>distance_2&#45;&gt;up</title>
<path fill="none" stroke="red" stroke-width="0.274706" d="M138.797,-325.253C117.13,-319.753 88.272,-308.509 74.2067,-286.191 65.4936,-272.365 63.7112,-261.948 74.2067,-249.421 114.494,-201.339 314.226,-191.027 389.467,-188.839"/>
<polygon fill="red" stroke="red" stroke-width="0.274706" points="389.727,-192.334 399.631,-188.572 389.542,-185.336 389.727,-192.334"/>
</g>
<!-- distance_2&#45;&gt;down -->
<g id="edge70" class="edge"><title>distance_2&#45;&gt;down</title>
<path fill="none" stroke="red" stroke-width="0.295092" d="M193.281,-328.963C265.234,-325.36 459.637,-313.317 517.207,-286.191 538.757,-276.037 537.31,-263.927 556.207,-249.421 577.609,-232.993 603.623,-217.06 623.613,-205.576"/>
<polygon fill="red" stroke="red" stroke-width="0.295092" points="625.365,-208.607 632.335,-200.628 621.91,-202.518 625.365,-208.607"/>
</g>
<!-- distance_2&#45;&gt;left -->
<g id="edge51" class="edge"><title>distance_2&#45;&gt;left</title>
<path fill="none" stroke="green" stroke-width="0.192562" d="M193.449,-329.529C353.639,-325.574 1166.56,-304.616 1184.21,-286.191 1267.48,-199.243 996.763,-189.198 904.148,-188.266"/>
<polygon fill="green" stroke="green" stroke-width="0.192562" points="904.042,-184.766 894.017,-188.194 903.992,-191.765 904.042,-184.766"/>
</g>
<!-- distance_2&#45;&gt;right -->
<g id="edge35" class="edge"><title>distance_2&#45;&gt;right</title>
<path fill="none" stroke="red" stroke-width="0.289796" stroke-dasharray="1,5" d="M172.073,-321.944C184.431,-305.254 214.928,-267.527 250.207,-249.421 328.614,-209.18 364.628,-249.117 445.207,-213.421 447.862,-212.245 450.5,-210.815 453.059,-209.241"/>
<polygon fill="red" stroke="red" stroke-width="0.289796" points="455.139,-212.058 461.372,-203.49 451.156,-206.301 455.139,-212.058"/>
</g>
<!-- distance_2&#45;&gt;select -->
<g id="edge15" class="edge"><title>distance_2&#45;&gt;select</title>
<path fill="none" stroke="red" stroke-width="0.153743" d="M193.447,-329.823C335.632,-327.773 987.208,-316.73 1016.21,-286.191 1027.46,-274.34 1026.5,-262.111 1016.21,-249.421 967.271,-189.111 916.049,-245.254 845.207,-213.421 843.084,-212.468 840.966,-211.364 838.884,-210.163"/>
<polygon fill="red" stroke="red" stroke-width="0.153743" points="840.373,-206.956 830.083,-204.432 836.553,-212.822 840.373,-206.956"/>
</g>
<!-- 48 -->
<g id="node21" class="node"><title>48</title>
<ellipse fill="white" stroke="black" cx="120.207" cy="-267.806" rx="18.2703" ry="18.2703"/>
<text text-anchor="middle" x="120.207" y="-265.606" font-family="Times,serif" font-size="9.00">48</text>
</g>
<!-- distance_2&#45;&gt;48 -->
<g id="edge57" class="edge"><title>distance_2&#45;&gt;48</title>
<path fill="none" stroke="red" stroke-width="0.215294" d="M160.193,-322.166C154.351,-314.37 145.206,-302.167 137.136,-291.397"/>
<polygon fill="red" stroke="red" stroke-width="0.215294" points="139.775,-289.082 130.977,-283.179 134.173,-293.28 139.775,-289.082"/>
</g>
<!-- up&#45;&gt;19 -->
<g id="edge54" class="edge"><title>up&#45;&gt;19</title>
<path fill="none" stroke="red" stroke-width="0.341331" d="M431.221,-173.638C444.169,-161.082 464.213,-141.645 479.188,-127.123"/>
<polygon fill="red" stroke="red" stroke-width="0.341331" points="481.75,-129.515 486.492,-120.04 476.877,-124.489 481.75,-129.515"/>
</g>
<!-- 67&#45;&gt;left -->
<g id="edge65" class="edge"><title>67&#45;&gt;left</title>
<path fill="none" stroke="red" stroke-width="0.101617" d="M1272.06,-257.216C1266.89,-254.313 1260.95,-251.379 1255.21,-249.421 1129.36,-206.539 969.67,-193.387 904.232,-189.64"/>
<polygon fill="red" stroke="red" stroke-width="0.101617" points="904.376,-186.143 894.202,-189.098 903.999,-193.133 904.376,-186.143"/>
</g>
<!-- 40&#45;&gt;attack -->
<g id="edge31" class="edge"><title>40&#45;&gt;attack</title>
<path fill="none" stroke="red" stroke-width="0.404312" d="M265.818,-96.3257C270.925,-93.503 276.701,-90.5645 282.207,-88.3259 344.139,-63.1433 420.03,-44.3369 463.682,-34.6087"/>
<polygon fill="red" stroke="red" stroke-width="0.404312" points="464.518,-38.0086 473.535,-32.4455 463.017,-31.1714 464.518,-38.0086"/>
</g>
<!-- 74&#45;&gt;down -->
<g id="edge80" class="edge"><title>74&#45;&gt;down</title>
<path fill="none" stroke="red" stroke-width="0.366837" d="M655.207,-249.374C655.207,-241.837 655.207,-232.727 655.207,-223.868"/>
<polygon fill="red" stroke="red" stroke-width="0.366837" points="658.707,-223.693 655.207,-213.693 651.707,-223.693 658.707,-223.693"/>
</g>
<!-- 48&#45;&gt;up -->
<g id="edge12" class="edge"><title>48&#45;&gt;up</title>
<path fill="none" stroke="red" stroke-width="0.155862" d="M135.43,-257.44C140.611,-254.552 146.53,-251.57 152.207,-249.421 235.815,-217.776 340.654,-199.555 390.027,-192.159"/>
<polygon fill="red" stroke="red" stroke-width="0.155862" points="390.581,-195.616 399.969,-190.705 389.567,-188.689 390.581,-195.616"/>
</g>
<!-- 48&#45;&gt;right -->
<g id="edge69" class="edge"><title>48&#45;&gt;right</title>
<path fill="none" stroke="red" stroke-width="0.221615" d="M135.308,-257.092C140.481,-254.18 146.426,-251.273 152.207,-249.421 277.156,-209.402 323.701,-262.921 445.207,-213.421 447.896,-212.326 450.557,-210.951 453.132,-209.412"/>
<polygon fill="red" stroke="red" stroke-width="0.221615" points="455.185,-212.248 461.468,-203.718 451.237,-206.468 455.185,-212.248"/>
</g>
<!-- 19&#45;&gt;attack -->
<g id="edge18" class="edge"><title>19&#45;&gt;attack</title>
<path fill="none" stroke="green" stroke-width="0.328498" d="M499.207,-88.2784C499.207,-80.7418 499.207,-71.6318 499.207,-62.7727"/>
<polygon fill="green" stroke="green" stroke-width="0.328498" points="502.707,-62.5973 499.207,-52.5973 495.707,-62.5974 502.707,-62.5973"/>
</g>
<!-- 57&#45;&gt;attack -->
<g id="edge19" class="edge"><title>57&#45;&gt;attack</title>
<path fill="none" stroke="green" stroke-width="0.541528" d="M435.757,-92.7401C446.189,-81.9583 461.357,-66.2818 474.247,-52.9596"/>
<polygon fill="green" stroke="green" stroke-width="0.541528" points="477.082,-55.0631 481.52,-45.4426 472.051,-50.1956 477.082,-55.0631"/>
</g>
<!-- 27&#45;&gt;select -->
<g id="edge49" class="edge"><title>27&#45;&gt;select</title>
<path fill="none" stroke="green" stroke-width="0.154071" stroke-dasharray="1,5" d="M1142.1,-257.111C1136.93,-254.201 1130.98,-251.289 1125.21,-249.421 1005.82,-210.815 961.609,-260.251 845.207,-213.421 843.048,-212.553 840.903,-211.514 838.801,-210.36"/>
<polygon fill="green" stroke="green" stroke-width="0.154071" points="840.271,-207.147 829.954,-204.736 836.515,-213.054 840.271,-207.147"/>
</g>
</g>
</svg>
