<?xml version="1.0" encoding="UTF-8" standalone="no"?>
<!DOCTYPE svg PUBLIC "-//W3C//DTD SVG 1.1//EN"
 "http://www.w3.org/Graphics/SVG/1.1/DTD/svg11.dtd">
<!-- Generated by graphviz version 2.38.0 (20140413.2041)
 -->
<!-- Title: %3 Pages: 1 -->
<svg width="2379pt" height="622pt"
 viewBox="0.00 0.00 2378.86 621.65" xmlns="http://www.w3.org/2000/svg" xmlns:xlink="http://www.w3.org/1999/xlink">
<g id="graph0" class="graph" transform="scale(1 1) rotate(0) translate(4 617.654)">
<title>%3</title>
<polygon fill="white" stroke="none" points="-4,4 -4,-617.654 2374.86,-617.654 2374.86,4 -4,4"/>
<!-- enemy_hp -->
<g id="node1" class="node"><title>enemy_hp</title>
<polygon fill="lightgray" stroke="black" points="1669.71,-543.905 1616.71,-543.905 1616.71,-525.905 1669.71,-525.905 1669.71,-543.905"/>
<text text-anchor="middle" x="1643.21" y="-532.705" font-family="Times,serif" font-size="9.00">enemy_hp</text>
</g>
<!-- attack -->
<g id="node12" class="node"><title>attack</title>
<ellipse fill="lightblue" stroke="black" cx="1298.21" cy="-362.496" rx="26.3269" ry="26.3269"/>
<text text-anchor="middle" x="1298.21" y="-360.296" font-family="Times,serif" font-size="9.00">attack</text>
</g>
<!-- enemy_hp&#45;&gt;attack -->
<g id="edge5" class="edge"><title>enemy_hp&#45;&gt;attack</title>
<path fill="none" stroke="green" stroke-width="0.602798" d="M1633.2,-525.711C1608.65,-505.959 1542.98,-455.103 1481.21,-424.659 1432.19,-400.496 1371.32,-382.288 1333.62,-372.26"/>
<polygon fill="green" stroke="green" stroke-width="0.602798" points="1334.19,-368.792 1323.63,-369.65 1332.42,-375.564 1334.19,-368.792"/>
</g>
<!-- up -->
<g id="node13" class="node"><title>up</title>
<ellipse fill="lightblue" stroke="black" cx="830.213" cy="-449.408" rx="18.2703" ry="18.2703"/>
<text text-anchor="middle" x="830.213" y="-447.208" font-family="Times,serif" font-size="9.00">up</text>
</g>
<!-- enemy_hp&#45;&gt;up -->
<g id="edge89" class="edge"><title>enemy_hp&#45;&gt;up</title>
<path fill="none" stroke="red" stroke-width="0.158326" d="M1616.71,-526.341C1596.69,-520.938 1568.44,-513.976 1543.21,-510.156 1308.02,-474.553 1245.91,-497.811 1009.21,-474.156 955.644,-468.803 893.393,-459.944 858.216,-454.693"/>
<polygon fill="red" stroke="red" stroke-width="0.158326" points="858.617,-451.214 848.208,-453.187 857.575,-458.136 858.617,-451.214"/>
</g>
<!-- down -->
<g id="node14" class="node"><title>down</title>
<ellipse fill="lightblue" stroke="black" cx="1586.21" cy="-191.501" rx="26.3269" ry="26.3269"/>
<text text-anchor="middle" x="1586.21" y="-189.301" font-family="Times,serif" font-size="9.00">down</text>
</g>
<!-- enemy_hp&#45;&gt;down -->
<g id="edge58" class="edge"><title>enemy_hp&#45;&gt;down</title>
<path fill="none" stroke="red" stroke-width="0.328815" d="M1652.69,-525.613C1675.29,-505.129 1731.97,-449.372 1752.21,-388.659 1771.19,-331.743 1786.53,-302.879 1752.21,-253.664 1723.03,-211.804 1661.8,-198.517 1622.42,-194.346"/>
<polygon fill="red" stroke="red" stroke-width="0.328815" points="1622.7,-190.857 1612.42,-193.432 1622.06,-197.828 1622.7,-190.857"/>
</g>
<!-- left -->
<g id="node15" class="node"><title>left</title>
<ellipse fill="lightblue" stroke="black" cx="1106.21" cy="-449.408" rx="19.6" ry="19.6"/>
<text text-anchor="middle" x="1106.21" y="-447.208" font-family="Times,serif" font-size="9.00">left</text>
</g>
<!-- enemy_hp&#45;&gt;left -->
<g id="edge46" class="edge"><title>enemy_hp&#45;&gt;left</title>
<path fill="none" stroke="red" stroke-width="0.305163" d="M1616.66,-526.641C1596.62,-521.391 1568.36,-514.488 1543.21,-510.156 1396.95,-484.96 1357.61,-498.568 1211.21,-474.156 1185.35,-469.844 1156.3,-463.125 1135.32,-457.933"/>
<polygon fill="red" stroke="red" stroke-width="0.305163" points="1135.99,-454.492 1125.43,-455.451 1134.28,-461.281 1135.99,-454.492"/>
</g>
<!-- right -->
<g id="node16" class="node"><title>right</title>
<ellipse fill="lightblue" stroke="black" cx="952.213" cy="-276.999" rx="23.1702" ry="23.1702"/>
<text text-anchor="middle" x="952.213" y="-274.799" font-family="Times,serif" font-size="9.00">right</text>
</g>
<!-- enemy_hp&#45;&gt;right -->
<g id="edge54" class="edge"><title>enemy_hp&#45;&gt;right</title>
<path fill="none" stroke="red" stroke-width="0.281664" d="M1636.98,-525.745C1612.09,-493.916 1515.83,-377.829 1405.21,-336.333 1256.31,-280.473 1062.67,-276.335 985.79,-277.162"/>
<polygon fill="red" stroke="red" stroke-width="0.281664" points="985.682,-273.663 975.734,-277.307 985.783,-280.662 985.682,-273.663"/>
</g>
<!-- select -->
<g id="node17" class="node"><title>select</title>
<ellipse fill="lightblue" stroke="black" cx="1958.21" cy="-25.4558" rx="25.4118" ry="25.4118"/>
<text text-anchor="middle" x="1958.21" y="-23.2558" font-family="Times,serif" font-size="9.00">select</text>
</g>
<!-- enemy_hp&#45;&gt;select -->
<g id="edge60" class="edge"><title>enemy_hp&#45;&gt;select</title>
<path fill="none" stroke="red" stroke-width="0.247625" stroke-dasharray="1,5" d="M1662.55,-525.79C1748.07,-489.726 2089.17,-343.845 2116.21,-300.333 2166.28,-219.769 2169.98,-165.054 2116.21,-86.9117 2088.82,-47.1023 2031.38,-33.4918 1993.82,-28.8479"/>
<polygon fill="red" stroke="red" stroke-width="0.247625" points="1994.12,-25.3596 1983.8,-27.7616 1993.36,-32.3188 1994.12,-25.3596"/>
</g>
<!-- player_hp_1 -->
<g id="node2" class="node"><title>player_hp_1</title>
<polygon fill="lightgray" stroke="black" points="558.713,-543.905 497.713,-543.905 497.713,-525.905 558.713,-525.905 558.713,-543.905"/>
<text text-anchor="middle" x="528.213" y="-532.705" font-family="Times,serif" font-size="9.00">player_hp_1</text>
</g>
<!-- player_hp_1&#45;&gt;attack -->
<g id="edge17" class="edge"><title>player_hp_1&#45;&gt;attack</title>
<path fill="none" stroke="red" stroke-width="0.400209" stroke-dasharray="1,5" d="M553.414,-525.89C584.778,-515.546 639.643,-496.234 684.213,-474.156 721.679,-455.598 724.714,-438.368 764.213,-424.659 856.9,-392.491 1157.61,-371.902 1262.07,-365.574"/>
<polygon fill="red" stroke="red" stroke-width="0.400209" points="1262.34,-369.063 1272.12,-364.972 1261.93,-362.076 1262.34,-369.063"/>
</g>
<!-- player_hp_1&#45;&gt;up -->
<g id="edge70" class="edge"><title>player_hp_1&#45;&gt;up</title>
<path fill="none" stroke="green" stroke-width="0.73662" d="M557.17,-525.899C615.404,-509.798 745.969,-473.7 802.853,-457.972"/>
<polygon fill="green" stroke="green" stroke-width="0.73662" points="803.877,-461.321 812.583,-455.282 802.012,-454.574 803.877,-461.321"/>
</g>
<!-- player_hp_1&#45;&gt;down -->
<g id="edge87" class="edge"><title>player_hp_1&#45;&gt;down</title>
<path fill="none" stroke="red" stroke-width="0.670948" stroke-dasharray="1,5" d="M515.947,-525.767C508.203,-520.846 497.87,-514.673 488.213,-510.156 444.668,-489.787 413.979,-513.401 386.213,-474.156 374.931,-458.21 384.088,-356.717 393.213,-336.333 413.978,-289.948 426.05,-274.918 472.213,-253.664 571.943,-207.748 1368.86,-195.188 1549.77,-192.916"/>
<polygon fill="red" stroke="red" stroke-width="0.670948" points="1549.89,-196.415 1559.84,-192.792 1549.8,-189.416 1549.89,-196.415"/>
</g>
<!-- player_hp_1&#45;&gt;left -->
<g id="edge52" class="edge"><title>player_hp_1&#45;&gt;left</title>
<path fill="none" stroke="green" stroke-width="0.453999" d="M558.95,-529.681C595.631,-524.705 658.838,-516.334 713.213,-510.156 874.741,-491.805 927.001,-536.32 1077.21,-474.156 1079.69,-473.133 1082.11,-471.826 1084.44,-470.352"/>
<polygon fill="green" stroke="green" stroke-width="0.453999" points="1086.93,-472.868 1092.86,-464.092 1082.75,-467.251 1086.93,-472.868"/>
</g>
<!-- player_hp_1&#45;&gt;right -->
<g id="edge39" class="edge"><title>player_hp_1&#45;&gt;right</title>
<path fill="none" stroke="green" stroke-width="0.25522" d="M533.994,-525.58C550.216,-502.448 596.397,-438.205 618.213,-424.659 677.928,-387.58 712.521,-425.774 772.213,-388.659 797.776,-372.765 791.118,-354.375 815.213,-336.333 832.54,-323.359 885.826,-302.395 920.609,-289.448"/>
<polygon fill="green" stroke="green" stroke-width="0.25522" points="922.147,-292.611 930.316,-285.863 919.723,-286.044 922.147,-292.611"/>
</g>
<!-- player_hp_1&#45;&gt;select -->
<g id="edge13" class="edge"><title>player_hp_1&#45;&gt;select</title>
<path fill="none" stroke="red" stroke-width="0.414451" d="M516.813,-525.818C509.07,-520.665 498.419,-514.216 488.213,-510.156 340.659,-451.469 260.283,-505.009 152.213,-388.659 116.193,-349.879 108.213,-330.926 108.213,-277.999 108.213,-277.999 108.213,-277.999 108.213,-190.501 108.213,-138.374 118.998,-114.52 163.213,-86.9117 240.581,-38.6014 1676.51,-28.0957 1922.5,-26.6479"/>
<polygon fill="red" stroke="red" stroke-width="0.414451" points="1922.7,-30.1469 1932.68,-26.5892 1922.66,-23.1471 1922.7,-30.1469"/>
</g>
<!-- 556 -->
<g id="node20" class="node"><title>556</title>
<ellipse fill="white" stroke="black" cx="1347.21" cy="-449.408" rx="21.4286" ry="21.4286"/>
<text text-anchor="middle" x="1347.21" y="-447.208" font-family="Times,serif" font-size="9.00">556</text>
</g>
<!-- player_hp_1&#45;&gt;556 -->
<g id="edge2" class="edge"><title>player_hp_1&#45;&gt;556</title>
<path fill="none" stroke="green" stroke-width="0.281464" d="M558.915,-529.351C595.563,-524.057 658.738,-515.38 713.213,-510.156 964.126,-486.097 1032.16,-524.175 1279.21,-474.156 1292.43,-471.481 1306.57,-466.847 1318.52,-462.379"/>
<polygon fill="green" stroke="green" stroke-width="0.281464" points="1319.91,-465.592 1327.97,-458.711 1317.38,-459.066 1319.91,-465.592"/>
</g>
<!-- 192 -->
<g id="node24" class="node"><title>192</title>
<ellipse fill="white" stroke="black" cx="742.213" cy="-108.125" rx="21.4286" ry="21.4286"/>
<text text-anchor="middle" x="742.213" y="-105.925" font-family="Times,serif" font-size="9.00">192</text>
</g>
<!-- player_hp_1&#45;&gt;192 -->
<g id="edge84" class="edge"><title>player_hp_1&#45;&gt;192</title>
<path fill="none" stroke="red" stroke-width="0.469411" stroke-dasharray="1,5" d="M516.337,-525.903C508.571,-520.913 498.074,-514.616 488.213,-510.156 440.958,-488.786 415.307,-509.351 377.213,-474.156 301.494,-404.2 282.522,-354.225 305.213,-253.664 314.781,-211.262 312.196,-191.093 347.213,-165.338 405.014,-122.827 627.946,-112.307 710.89,-109.84"/>
<polygon fill="red" stroke="red" stroke-width="0.469411" points="711.066,-113.337 720.964,-109.56 710.871,-106.339 711.066,-113.337"/>
</g>
<!-- 471 -->
<g id="node27" class="node"><title>471</title>
<ellipse fill="white" stroke="black" cx="521.213" cy="-362.496" rx="21.4286" ry="21.4286"/>
<text text-anchor="middle" x="521.213" y="-360.296" font-family="Times,serif" font-size="9.00">471</text>
</g>
<!-- player_hp_1&#45;&gt;471 -->
<g id="edge88" class="edge"><title>player_hp_1&#45;&gt;471</title>
<path fill="none" stroke="green" stroke-width="0.332654" d="M515.644,-525.79C501.285,-515.686 478.57,-496.948 469.213,-474.156 460.859,-453.806 461.622,-445.307 469.213,-424.659 474.996,-408.928 486.82,-394.481 497.733,-383.582"/>
<polygon fill="green" stroke="green" stroke-width="0.332654" points="500.213,-386.053 505.058,-376.631 495.395,-380.976 500.213,-386.053"/>
</g>
<!-- 990 -->
<g id="node29" class="node"><title>990</title>
<ellipse fill="white" stroke="black" cx="423.213" cy="-362.496" rx="21.4286" ry="21.4286"/>
<text text-anchor="middle" x="423.213" y="-360.296" font-family="Times,serif" font-size="9.00">990</text>
</g>
<!-- player_hp_1&#45;&gt;990 -->
<g id="edge14" class="edge"><title>player_hp_1&#45;&gt;990</title>
<path fill="none" stroke="red" stroke-width="0.489198" stroke-dasharray="1,5" d="M515.525,-525.684C507.797,-520.852 497.63,-514.8 488.213,-510.156 449.575,-491.102 422.366,-509.831 398.213,-474.156 381.056,-448.815 393.935,-413.471 406.71,-389.601"/>
<polygon fill="red" stroke="red" stroke-width="0.489198" points="409.839,-391.178 411.721,-380.752 403.748,-387.729 409.839,-391.178"/>
</g>
<!-- 225 -->
<g id="node30" class="node"><title>225</title>
<ellipse fill="white" stroke="black" cx="502.213" cy="-276.999" rx="21.4286" ry="21.4286"/>
<text text-anchor="middle" x="502.213" y="-274.799" font-family="Times,serif" font-size="9.00">225</text>
</g>
<!-- player_hp_1&#45;&gt;225 -->
<g id="edge3" class="edge"><title>player_hp_1&#45;&gt;225</title>
<path fill="none" stroke="green" stroke-width="0.450967" stroke-dasharray="1,5" d="M512.897,-525.756C496.367,-515.99 470.968,-497.924 460.213,-474.156 434.402,-417.118 465.551,-343.46 486.391,-304.649"/>
<polygon fill="green" stroke="green" stroke-width="0.450967" points="489.64,-306.007 491.427,-295.564 483.517,-302.614 489.64,-306.007"/>
</g>
<!-- player_hp_2 -->
<g id="node3" class="node"><title>player_hp_2</title>
<polygon fill="lightgray" stroke="black" points="783.713,-543.905 722.713,-543.905 722.713,-525.905 783.713,-525.905 783.713,-543.905"/>
<text text-anchor="middle" x="753.213" y="-532.705" font-family="Times,serif" font-size="9.00">player_hp_2</text>
</g>
<!-- player_hp_2&#45;&gt;attack -->
<g id="edge98" class="edge"><title>player_hp_2&#45;&gt;attack</title>
<path fill="none" stroke="red" stroke-width="0.569129" d="M754.269,-525.634C757.407,-504.781 768.719,-449.929 803.213,-424.659 876.244,-371.158 1160.22,-364.251 1261.81,-363.515"/>
<polygon fill="red" stroke="red" stroke-width="0.569129" points="1261.92,-367.015 1271.9,-363.459 1261.88,-360.015 1261.92,-367.015"/>
</g>
<!-- player_hp_2&#45;&gt;up -->
<g id="edge36" class="edge"><title>player_hp_2&#45;&gt;up</title>
<path fill="none" stroke="red" stroke-width="0.153583" d="M760.596,-525.899C772.152,-513.369 794.877,-488.725 811.224,-470.999"/>
<polygon fill="red" stroke="red" stroke-width="0.153583" points="814.017,-473.134 818.223,-463.41 808.871,-468.388 814.017,-473.134"/>
</g>
<!-- player_hp_2&#45;&gt;left -->
<g id="edge45" class="edge"><title>player_hp_2&#45;&gt;left</title>
<path fill="none" stroke="red" stroke-width="1.2394" d="M778.367,-525.892C794.947,-520.834 817.213,-514.466 837.213,-510.156 942.654,-487.439 978.619,-517.894 1077.21,-474.156 1079.61,-473.094 1081.97,-471.779 1084.24,-470.317"/>
<polygon fill="red" stroke="red" stroke-width="1.2394" points="1086.56,-472.95 1092.5,-464.17 1082.38,-467.335 1086.56,-472.95"/>
</g>
<!-- player_hp_2&#45;&gt;right -->
<g id="edge55" class="edge"><title>player_hp_2&#45;&gt;right</title>
<path fill="none" stroke="green" stroke-width="0.179257" stroke-dasharray="1,5" d="M751.534,-525.841C747.963,-506.377 741.673,-456.113 764.213,-424.659 786.688,-393.296 811.593,-410.771 843.213,-388.659 877.959,-364.361 911.14,-328.168 931.572,-303.856"/>
<polygon fill="green" stroke="green" stroke-width="0.179257" points="934.313,-306.035 937.997,-296.101 928.922,-301.569 934.313,-306.035"/>
</g>
<!-- player_hp_2&#45;&gt;select -->
<g id="edge97" class="edge"><title>player_hp_2&#45;&gt;select</title>
<path fill="none" stroke="green" stroke-width="0.860238" d="M722.445,-529.793C640.061,-518.651 418.641,-487.807 388.213,-474.156 261.891,-417.486 146.213,-416.45 146.213,-277.999 146.213,-277.999 146.213,-277.999 146.213,-190.501 146.213,-69.8184 279.311,-112.666 397.213,-86.9117 701.933,-20.3491 1719.21,-24.5927 1922.63,-26.1405"/>
<polygon fill="green" stroke="green" stroke-width="0.860238" points="1922.73,-29.6413 1932.76,-26.2206 1922.79,-22.6415 1922.73,-29.6413"/>
</g>
<!-- 1218 -->
<g id="node25" class="node"><title>1218</title>
<ellipse fill="white" stroke="black" cx="503.213" cy="-449.408" rx="25" ry="25"/>
<text text-anchor="middle" x="503.213" y="-447.208" font-family="Times,serif" font-size="9.00">1218</text>
</g>
<!-- player_hp_2&#45;&gt;1218 -->
<g id="edge102" class="edge"><title>player_hp_2&#45;&gt;1218</title>
<path fill="none" stroke="green" stroke-width="0.323597" d="M729.242,-525.899C684.214,-510.86 586.946,-478.374 535.939,-461.338"/>
<polygon fill="green" stroke="green" stroke-width="0.323597" points="536.978,-457.995 526.384,-458.146 534.76,-464.634 536.978,-457.995"/>
</g>
<!-- enemy_x -->
<g id="node4" class="node"><title>enemy_x</title>
<polygon fill="lightgray" stroke="black" points="479.713,-543.905 430.713,-543.905 430.713,-525.905 479.713,-525.905 479.713,-543.905"/>
<text text-anchor="middle" x="455.213" y="-532.705" font-family="Times,serif" font-size="9.00">enemy_x</text>
</g>
<!-- enemy_x&#45;&gt;attack -->
<g id="edge95" class="edge"><title>enemy_x&#45;&gt;attack</title>
<path fill="none" stroke="green" stroke-width="0.341011" d="M465.241,-525.832C471.596,-520.936 480.116,-514.766 488.213,-510.156 489.504,-509.422 682.776,-425.034 684.213,-424.659 898.015,-368.856 1165.89,-363.27 1261.91,-363.206"/>
<polygon fill="green" stroke="green" stroke-width="0.341011" points="1261.96,-366.706 1271.97,-363.22 1261.97,-359.706 1261.96,-366.706"/>
</g>
<!-- enemy_x&#45;&gt;up -->
<g id="edge53" class="edge"><title>enemy_x&#45;&gt;up</title>
<path fill="none" stroke="green" stroke-width="0.574708" stroke-dasharray="1,5" d="M464.061,-525.828C470.347,-520.541 479.235,-513.935 488.213,-510.156 502.738,-504.043 721.831,-468.034 801.516,-455.062"/>
<polygon fill="green" stroke="green" stroke-width="0.574708" points="802.49,-458.45 811.799,-453.39 801.367,-451.54 802.49,-458.45"/>
</g>
<!-- enemy_x&#45;&gt;down -->
<g id="edge11" class="edge"><title>enemy_x&#45;&gt;down</title>
<path fill="none" stroke="red" stroke-width="0.532714" stroke-dasharray="1,5" d="M436.684,-525.85C417.778,-516.494 389.521,-499.089 377.213,-474.156 355.282,-429.731 370.395,-283.145 410.213,-253.664 457.13,-218.927 1356.67,-197.483 1549.87,-193.268"/>
<polygon fill="red" stroke="red" stroke-width="0.532714" points="1550.14,-196.763 1560.06,-193.047 1549.98,-189.764 1550.14,-196.763"/>
</g>
<!-- enemy_x&#45;&gt;left -->
<g id="edge74" class="edge"><title>enemy_x&#45;&gt;left</title>
<path fill="none" stroke="green" stroke-width="0.787615" d="M463.666,-525.74C469.908,-520.266 478.905,-513.474 488.213,-510.156 735.253,-422.096 833.039,-569.878 1077.21,-474.156 1079.7,-473.18 1082.14,-471.904 1084.48,-470.45"/>
<polygon fill="green" stroke="green" stroke-width="0.787615" points="1086.95,-472.978 1092.91,-464.22 1082.79,-467.349 1086.95,-472.978"/>
</g>
<!-- enemy_x&#45;&gt;right -->
<g id="edge38" class="edge"><title>enemy_x&#45;&gt;right</title>
<path fill="none" stroke="red" stroke-width="0.25267" d="M466.369,-525.854C488.446,-509.91 535.72,-475.714 537.213,-474.156 555.515,-455.075 551.225,-443.057 570.213,-424.659 623.591,-372.94 643.683,-365.101 712.213,-336.333 782.788,-306.707 871.627,-290.034 918.948,-282.655"/>
<polygon fill="red" stroke="red" stroke-width="0.25267" points="919.585,-286.098 928.947,-281.138 918.535,-279.178 919.585,-286.098"/>
</g>
<!-- enemy_x&#45;&gt;select -->
<g id="edge1" class="edge"><title>enemy_x&#45;&gt;select</title>
<path fill="none" stroke="red" stroke-width="0.103814" stroke-dasharray="1,5" d="M430.436,-528.939C369.597,-516.643 216.268,-484.991 195.213,-474.156 129.238,-440.206 70.2132,-437.694 70.2132,-363.496 70.2132,-363.496 70.2132,-363.496 70.2132,-190.501 70.2132,-140.126 74.4347,-115.058 116.213,-86.9117 193.92,-34.561 1671.94,-27.3963 1922.32,-26.5571"/>
<polygon fill="red" stroke="red" stroke-width="0.103814" points="1922.68,-30.0561 1932.67,-26.5237 1922.66,-23.0561 1922.68,-30.0561"/>
</g>
<!-- 717 -->
<g id="node26" class="node"><title>717</title>
<ellipse fill="white" stroke="black" cx="347.213" cy="-276.999" rx="21.4286" ry="21.4286"/>
<text text-anchor="middle" x="347.213" y="-274.799" font-family="Times,serif" font-size="9.00">717</text>
</g>
<!-- enemy_x&#45;&gt;717 -->
<g id="edge96" class="edge"><title>enemy_x&#45;&gt;717</title>
<path fill="none" stroke="green" stroke-width="0.16951" d="M430.543,-528.794C369.388,-516.01 215.205,-483.041 208.213,-474.156 194.609,-456.869 196.984,-443.576 208.213,-424.659 225.269,-395.927 249.618,-411.275 274.213,-388.659 300.238,-364.729 321.314,-329.674 334.01,-305.461"/>
<polygon fill="green" stroke="green" stroke-width="0.16951" points="337.185,-306.941 338.616,-296.443 330.95,-303.757 337.185,-306.941"/>
</g>
<!-- enemy_y -->
<g id="node5" class="node"><title>enemy_y</title>
<polygon fill="lightgray" stroke="black" points="1534.71,-543.905 1485.71,-543.905 1485.71,-525.905 1534.71,-525.905 1534.71,-543.905"/>
<text text-anchor="middle" x="1510.21" y="-532.705" font-family="Times,serif" font-size="9.00">enemy_y</text>
</g>
<!-- enemy_y&#45;&gt;attack -->
<g id="edge80" class="edge"><title>enemy_y&#45;&gt;attack</title>
<path fill="none" stroke="red" stroke-width="0.651439" d="M1507.71,-525.849C1501.16,-505.961 1481.63,-454.023 1448.21,-424.659 1415.23,-395.681 1366.7,-379.301 1333.84,-370.93"/>
<polygon fill="red" stroke="red" stroke-width="0.651439" points="1334.31,-367.442 1323.77,-368.488 1332.66,-374.245 1334.31,-367.442"/>
</g>
<!-- enemy_y&#45;&gt;up -->
<g id="edge20" class="edge"><title>enemy_y&#45;&gt;up</title>
<path fill="none" stroke="green" stroke-width="0.257214" d="M1485.44,-526.578C1466.4,-521.225 1439.35,-514.219 1415.21,-510.156 1236.57,-480.098 1189.27,-494.074 1009.21,-474.156 955.844,-468.253 893.761,-459.618 858.514,-454.549"/>
<polygon fill="green" stroke="green" stroke-width="0.257214" points="858.875,-451.065 848.477,-453.098 857.873,-457.993 858.875,-451.065"/>
</g>
<!-- enemy_y&#45;&gt;down -->
<g id="edge81" class="edge"><title>enemy_y&#45;&gt;down</title>
<path fill="none" stroke="green" stroke-width="0.120098" stroke-dasharray="1,5" d="M1518.84,-525.653C1529.95,-514.687 1549.36,-494.337 1562.21,-474.156 1584.55,-439.085 1591.58,-429.336 1600.21,-388.659 1612.67,-329.968 1606.95,-313.282 1600.21,-253.664 1599.22,-244.873 1597.45,-235.503 1595.49,-226.808"/>
<polygon fill="green" stroke="green" stroke-width="0.120098" points="1598.87,-225.897 1593.14,-216.984 1592.06,-227.523 1598.87,-225.897"/>
</g>
<!-- enemy_y&#45;&gt;right -->
<g id="edge30" class="edge"><title>enemy_y&#45;&gt;right</title>
<path fill="none" stroke="green" stroke-width="0.187088" d="M1510.08,-525.886C1509.38,-506.522 1505.2,-456.465 1481.21,-424.659 1435.09,-363.498 1405.3,-362.239 1333.21,-336.333 1210.37,-292.189 1053.53,-281.449 985.817,-278.837"/>
<polygon fill="green" stroke="green" stroke-width="0.187088" points="985.851,-275.336 975.735,-278.484 985.606,-282.332 985.851,-275.336"/>
</g>
<!-- enemy_y&#45;&gt;select -->
<g id="edge68" class="edge"><title>enemy_y&#45;&gt;select</title>
<path fill="none" stroke="red" stroke-width="0.181193" stroke-dasharray="1,5" d="M1534.83,-526.54C1607.21,-503.209 1814.21,-423.736 1814.21,-277.999 1814.21,-277.999 1814.21,-277.999 1814.21,-190.501 1814.21,-122.538 1884.88,-69.2894 1927.21,-43.4931"/>
<polygon fill="red" stroke="red" stroke-width="0.181193" points="1929.21,-46.3742 1936.03,-38.2632 1925.64,-40.3532 1929.21,-46.3742"/>
</g>
<!-- player_x_1 -->
<g id="node6" class="node"><title>player_x_1</title>
<polygon fill="lightgray" stroke="black" points="1191.21,-543.905 1135.21,-543.905 1135.21,-525.905 1191.21,-525.905 1191.21,-543.905"/>
<text text-anchor="middle" x="1163.21" y="-532.705" font-family="Times,serif" font-size="9.00">player_x_1</text>
</g>
<!-- player_x_1&#45;&gt;attack -->
<g id="edge72" class="edge"><title>player_x_1&#45;&gt;attack</title>
<path fill="none" stroke="red" stroke-width="0.23953" d="M1165.18,-525.695C1170.14,-506.338 1184.7,-457.039 1211.21,-424.659 1226.25,-406.289 1248.13,-390.942 1266.19,-380.216"/>
<polygon fill="red" stroke="red" stroke-width="0.23953" points="1268.29,-383.046 1275.22,-375.036 1264.81,-376.972 1268.29,-383.046"/>
</g>
<!-- player_x_1&#45;&gt;up -->
<g id="edge33" class="edge"><title>player_x_1&#45;&gt;up</title>
<path fill="none" stroke="red" stroke-width="0.122704" d="M1135.11,-526.858C1072.11,-511.062 920.248,-472.983 857.77,-457.317"/>
<polygon fill="red" stroke="red" stroke-width="0.122704" points="858.41,-453.87 847.859,-454.832 856.708,-460.659 858.41,-453.87"/>
</g>
<!-- player_x_1&#45;&gt;down -->
<g id="edge51" class="edge"><title>player_x_1&#45;&gt;down</title>
<path fill="none" stroke="green" stroke-width="0.628145" d="M1191.3,-531.857C1234.69,-527.497 1319.05,-514.151 1377.21,-474.156 1473.22,-408.144 1542.47,-283.457 1571.33,-224.689"/>
<polygon fill="green" stroke="green" stroke-width="0.628145" points="1574.56,-226.035 1575.77,-215.508 1568.26,-222.986 1574.56,-226.035"/>
</g>
<!-- player_x_1&#45;&gt;left -->
<g id="edge9" class="edge"><title>player_x_1&#45;&gt;left</title>
<path fill="none" stroke="red" stroke-width="0.33794" d="M1157.75,-525.899C1149.78,-514.22 1134.62,-492.018 1122.8,-474.702"/>
<polygon fill="red" stroke="red" stroke-width="0.33794" points="1125.51,-472.46 1116.98,-466.174 1119.72,-476.407 1125.51,-472.46"/>
</g>
<!-- player_x_1&#45;&gt;right -->
<g id="edge28" class="edge"><title>player_x_1&#45;&gt;right</title>
<path fill="none" stroke="green" stroke-width="0.335522" d="M1162.86,-525.809C1161.69,-506.698 1156.66,-457.891 1135.21,-424.659 1095.79,-363.562 1022.31,-316.335 981.478,-293.36"/>
<polygon fill="green" stroke="green" stroke-width="0.335522" points="983.008,-290.206 972.562,-288.437 979.625,-296.334 983.008,-290.206"/>
</g>
<!-- player_x_1&#45;&gt;select -->
<g id="edge92" class="edge"><title>player_x_1&#45;&gt;select</title>
<path fill="none" stroke="red" stroke-width="0.402409" d="M1191.55,-530.277C1323.15,-512.787 1872.38,-432.566 1969.21,-300.333 2022.02,-228.227 1991.42,-114.514 1971.38,-59.0513"/>
<polygon fill="red" stroke="red" stroke-width="0.402409" points="1974.55,-57.5448 1967.78,-49.3962 1967.99,-59.989 1974.55,-57.5448"/>
</g>
<!-- player_y_1 -->
<g id="node7" class="node"><title>player_y_1</title>
<polygon fill="lightgray" stroke="black" points="1766.21,-543.905 1710.21,-543.905 1710.21,-525.905 1766.21,-525.905 1766.21,-543.905"/>
<text text-anchor="middle" x="1738.21" y="-532.705" font-family="Times,serif" font-size="9.00">player_y_1</text>
</g>
<!-- player_y_1&#45;&gt;attack -->
<g id="edge65" class="edge"><title>player_y_1&#45;&gt;attack</title>
<path fill="none" stroke="green" stroke-width="0.18103" d="M1726.04,-525.88C1695.49,-506.063 1612.63,-454.274 1537.21,-424.659 1467.53,-397.296 1381.59,-378.787 1334.08,-369.796"/>
<polygon fill="green" stroke="green" stroke-width="0.18103" points="1334.45,-366.306 1323.98,-367.92 1333.17,-373.188 1334.45,-366.306"/>
</g>
<!-- player_y_1&#45;&gt;up -->
<g id="edge103" class="edge"><title>player_y_1&#45;&gt;up</title>
<path fill="none" stroke="red" stroke-width="0.447983" d="M1722.11,-525.877C1710.28,-520.393 1693.64,-513.532 1678.21,-510.156 1387.33,-446.535 1305.69,-501.759 1009.21,-474.156 955.609,-469.166 893.37,-460.184 858.204,-454.811"/>
<polygon fill="red" stroke="red" stroke-width="0.447983" points="858.616,-451.333 848.2,-453.268 857.549,-458.251 858.616,-451.333"/>
</g>
<!-- player_y_1&#45;&gt;down -->
<g id="edge40" class="edge"><title>player_y_1&#45;&gt;down</title>
<path fill="none" stroke="green" stroke-width="0.103014" stroke-dasharray="1,5" d="M1743.16,-525.547C1764,-489.126 1840.69,-342.155 1776.21,-253.664 1741.07,-205.437 1667.24,-194.416 1622.67,-192.368"/>
<polygon fill="green" stroke="green" stroke-width="0.103014" points="1622.66,-188.866 1612.55,-192.035 1622.43,-195.862 1622.66,-188.866"/>
</g>
<!-- player_y_1&#45;&gt;left -->
<g id="edge44" class="edge"><title>player_y_1&#45;&gt;left</title>
<path fill="none" stroke="green" stroke-width="1.196" d="M1721.83,-525.869C1710.01,-520.457 1693.5,-513.685 1678.21,-510.156 1475.38,-463.324 1417.06,-505.2 1211.21,-474.156 1185.29,-470.246 1156.24,-463.489 1135.28,-458.18"/>
<polygon fill="green" stroke="green" stroke-width="1.196" points="1135.96,-454.741 1125.41,-455.634 1134.22,-461.519 1135.96,-454.741"/>
</g>
<!-- player_y_1&#45;&gt;right -->
<g id="edge6" class="edge"><title>player_y_1&#45;&gt;right</title>
<path fill="none" stroke="red" stroke-width="0.372095" d="M1730.69,-525.846C1700.76,-494.394 1585.79,-379.53 1464.21,-336.333 1375.25,-304.724 1084.96,-285.584 985.784,-279.838"/>
<polygon fill="red" stroke="red" stroke-width="0.372095" points="985.906,-276.34 975.723,-279.263 985.507,-283.328 985.906,-276.34"/>
</g>
<!-- player_y_1&#45;&gt;select -->
<g id="edge47" class="edge"><title>player_y_1&#45;&gt;select</title>
<path fill="none" stroke="green" stroke-width="0.118131" d="M1766.39,-529.858C1853.63,-517.28 2113.95,-479.398 2121.21,-474.156 2166.08,-441.789 2178.21,-418.819 2178.21,-363.496 2178.21,-363.496 2178.21,-363.496 2178.21,-190.501 2178.21,-143.242 2186.41,-121.502 2154.21,-86.9117 2112.41,-42.0049 2038.09,-30.1607 1993.97,-27.2162"/>
<polygon fill="green" stroke="green" stroke-width="0.118131" points="1993.88,-23.7062 1983.7,-26.6558 1993.5,-30.6958 1993.88,-23.7062"/>
</g>
<!-- 101 -->
<g id="node31" class="node"><title>101</title>
<ellipse fill="white" stroke="black" cx="2091.21" cy="-449.408" rx="21.4286" ry="21.4286"/>
<text text-anchor="middle" x="2091.21" y="-447.208" font-family="Times,serif" font-size="9.00">101</text>
</g>
<!-- player_y_1&#45;&gt;101 -->
<g id="edge86" class="edge"><title>player_y_1&#45;&gt;101</title>
<path fill="none" stroke="red" stroke-width="0.113639" d="M1766.68,-530.077C1834.43,-520.723 2003.5,-495.884 2056.21,-474.156 2059.68,-472.729 2063.15,-470.928 2066.49,-468.959"/>
<polygon fill="red" stroke="red" stroke-width="0.113639" points="2068.43,-471.868 2074.93,-463.494 2064.63,-465.993 2068.43,-471.868"/>
</g>
<!-- player_x_2 -->
<g id="node8" class="node"><title>player_x_2</title>
<polygon fill="lightgray" stroke="black" points="1000.21,-543.905 944.213,-543.905 944.213,-525.905 1000.21,-525.905 1000.21,-543.905"/>
<text text-anchor="middle" x="972.213" y="-532.705" font-family="Times,serif" font-size="9.00">player_x_2</text>
</g>
<!-- player_x_2&#45;&gt;attack -->
<g id="edge56" class="edge"><title>player_x_2&#45;&gt;attack</title>
<path fill="none" stroke="green" stroke-width="0.332633" stroke-dasharray="1,5" d="M972.38,-525.872C973.26,-505.577 978.525,-451.924 1009.21,-424.659 1046.41,-391.612 1193.25,-373.523 1262.16,-366.703"/>
<polygon fill="green" stroke="green" stroke-width="0.332633" points="1262.51,-370.185 1272.13,-365.741 1261.84,-363.217 1262.51,-370.185"/>
</g>
<!-- player_x_2&#45;&gt;up -->
<g id="edge15" class="edge"><title>player_x_2&#45;&gt;up</title>
<path fill="none" stroke="green" stroke-width="0.11415" d="M958.267,-525.891C950.119,-521.241 939.619,-515.304 930.213,-510.156 900.216,-493.739 891.137,-492.399 862.213,-474.156 858.98,-472.117 855.652,-469.852 852.421,-467.554"/>
<polygon fill="green" stroke="green" stroke-width="0.11415" points="854.353,-464.63 844.224,-461.523 850.205,-470.269 854.353,-464.63"/>
</g>
<!-- player_x_2&#45;&gt;down -->
<g id="edge75" class="edge"><title>player_x_2&#45;&gt;down</title>
<path fill="none" stroke="red" stroke-width="0.125077" d="M958.295,-525.89C940.992,-515.477 911.185,-496.021 890.213,-474.156 871.911,-455.075 878.838,-439.872 857.213,-424.659 802.905,-386.453 753.12,-440.963 712.213,-388.659 697.886,-370.34 701.689,-357.072 712.213,-336.333 740.372,-280.842 766.886,-275.346 825.213,-253.664 960.691,-203.302 1417.65,-194.359 1550.01,-192.814"/>
<polygon fill="red" stroke="red" stroke-width="0.125077" points="1550.08,-196.314 1560.04,-192.705 1550,-189.314 1550.08,-196.314"/>
</g>
<!-- player_x_2&#45;&gt;left -->
<g id="edge37" class="edge"><title>player_x_2&#45;&gt;left</title>
<path fill="none" stroke="green" stroke-width="0.138856" d="M988.371,-525.801C1009.43,-514.994 1047.13,-494.816 1077.21,-474.156 1079.33,-472.706 1081.47,-471.14 1083.6,-469.528"/>
<polygon fill="green" stroke="green" stroke-width="0.138856" points="1085.88,-472.188 1091.54,-463.232 1081.53,-466.704 1085.88,-472.188"/>
</g>
<!-- player_x_2&#45;&gt;right -->
<g id="edge99" class="edge"><title>player_x_2&#45;&gt;right</title>
<path fill="none" stroke="red" stroke-width="0.181934" stroke-dasharray="1,5" d="M971.57,-525.681C969.003,-492.833 959.401,-369.967 954.758,-310.564"/>
<polygon fill="red" stroke="red" stroke-width="0.181934" points="958.247,-310.28 953.978,-300.583 951.268,-310.825 958.247,-310.28"/>
</g>
<!-- player_x_2&#45;&gt;select -->
<g id="edge64" class="edge"><title>player_x_2&#45;&gt;select</title>
<path fill="none" stroke="red" stroke-width="0.127261" d="M951.206,-525.866C936.348,-520.525 915.837,-513.84 897.213,-510.156 803.581,-491.635 555.192,-515.603 469.213,-474.156 336.278,-410.074 231.476,-256.898 347.213,-165.338 477.342,-62.3936 547.69,-108.432 712.213,-86.9117 1187.78,-24.7054 1772.99,-24.8828 1922.26,-26.0632"/>
<polygon fill="red" stroke="red" stroke-width="0.127261" points="1922.6,-29.5663 1932.63,-26.1528 1922.66,-22.5665 1922.6,-29.5663"/>
</g>
<!-- 1510 -->
<g id="node32" class="node"><title>1510</title>
<ellipse fill="white" stroke="black" cx="1043.21" cy="-449.408" rx="25" ry="25"/>
<text text-anchor="middle" x="1043.21" y="-447.208" font-family="Times,serif" font-size="9.00">1510</text>
</g>
<!-- player_x_2&#45;&gt;1510 -->
<g id="edge62" class="edge"><title>player_x_2&#45;&gt;1510</title>
<path fill="none" stroke="green" stroke-width="0.328175" d="M979.021,-525.899C988.566,-514.674 1006.38,-493.729 1020.82,-476.744"/>
<polygon fill="green" stroke="green" stroke-width="0.328175" points="1023.78,-478.669 1027.59,-468.783 1018.44,-474.134 1023.78,-478.669"/>
</g>
<!-- 251 -->
<g id="node34" class="node"><title>251</title>
<ellipse fill="white" stroke="black" cx="742.213" cy="-362.496" rx="21.4286" ry="21.4286"/>
<text text-anchor="middle" x="742.213" y="-360.296" font-family="Times,serif" font-size="9.00">251</text>
</g>
<!-- player_x_2&#45;&gt;251 -->
<g id="edge48" class="edge"><title>player_x_2&#45;&gt;251</title>
<path fill="none" stroke="green" stroke-width="0.654983" d="M968.171,-525.883C957.817,-506.072 928.449,-454.297 890.213,-424.659 854.48,-396.961 804.425,-379.772 772.661,-370.917"/>
<polygon fill="green" stroke="green" stroke-width="0.654983" points="773.203,-367.439 762.638,-368.231 771.391,-374.2 773.203,-367.439"/>
</g>
<!-- player_y_2 -->
<g id="node9" class="node"><title>player_y_2</title>
<polygon fill="lightgray" stroke="black" points="1747.21,-613.654 1691.21,-613.654 1691.21,-595.654 1747.21,-595.654 1747.21,-613.654"/>
<text text-anchor="middle" x="1719.21" y="-602.454" font-family="Times,serif" font-size="9.00">player_y_2</text>
</g>
<!-- player_y_2&#45;&gt;attack -->
<g id="edge93" class="edge"><title>player_y_2&#45;&gt;attack</title>
<path fill="none" stroke="red" stroke-width="0.216238" stroke-dasharray="1,5" d="M1691.09,-601.519C1634.76,-596.777 1510.58,-583.827 1476.21,-559.654 1419.54,-519.788 1446.59,-474.265 1398.21,-424.659 1378.99,-404.95 1352.16,-388.991 1331.13,-378.323"/>
<polygon fill="red" stroke="red" stroke-width="0.216238" points="1332.44,-375.068 1321.92,-373.799 1329.35,-381.35 1332.44,-375.068"/>
</g>
<!-- player_y_2&#45;&gt;up -->
<g id="edge29" class="edge"><title>player_y_2&#45;&gt;up</title>
<path fill="none" stroke="green" stroke-width="0.419213" d="M1690.93,-603.454C1558.49,-602.334 1003.09,-595.516 935.213,-559.654 910.691,-546.698 916.09,-530.475 897.213,-510.156 883.157,-495.028 865.703,-479.554 852.134,-468.144"/>
<polygon fill="green" stroke="green" stroke-width="0.419213" points="854.183,-465.297 844.252,-461.605 849.713,-470.684 854.183,-465.297"/>
</g>
<!-- player_y_2&#45;&gt;down -->
<g id="edge10" class="edge"><title>player_y_2&#45;&gt;down</title>
<path fill="none" stroke="red" stroke-width="1.49117" d="M1747.34,-603.577C1854.46,-602.996 2232.62,-598.21 2268.21,-559.654 2335.53,-486.721 2325.19,-417.602 2268.21,-336.333 2192.71,-228.638 1753.65,-200.13 1622.92,-193.98"/>
<polygon fill="red" stroke="red" stroke-width="1.49117" points="1622.79,-190.471 1612.64,-193.513 1622.48,-197.464 1622.79,-190.471"/>
</g>
<!-- player_y_2&#45;&gt;right -->
<g id="edge43" class="edge"><title>player_y_2&#45;&gt;right</title>
<path fill="none" stroke="red" stroke-width="0.498479" d="M1747.48,-603.383C1809.61,-602.127 1954.94,-595.351 1985.21,-559.654 1999.44,-542.877 1996.78,-528.87 1985.21,-510.156 1940.54,-437.877 1891.07,-460.903 1814.21,-424.659 1726.69,-383.383 1708.9,-360.53 1615.21,-336.333 1493.97,-305.021 1102.81,-284.916 985.665,-279.485"/>
<polygon fill="red" stroke="red" stroke-width="0.498479" points="985.662,-275.981 975.512,-279.019 985.341,-282.974 985.662,-275.981"/>
</g>
<!-- player_y_2&#45;&gt;select -->
<g id="edge83" class="edge"><title>player_y_2&#45;&gt;select</title>
<path fill="none" stroke="red" stroke-width="0.661425" stroke-dasharray="1,5" d="M1747.57,-602.987C1857.48,-600.202 2251.62,-588.285 2299.21,-559.654 2348.42,-530.05 2368.21,-507.835 2368.21,-450.408 2368.21,-450.408 2368.21,-450.408 2368.21,-190.501 2368.21,-143.242 2378.82,-119.099 2344.21,-86.9117 2293.68,-39.9019 2079.55,-29.4281 1993.87,-27.1094"/>
<polygon fill="red" stroke="red" stroke-width="0.661425" points="1993.92,-23.6098 1983.84,-26.8598 1993.75,-30.6076 1993.92,-23.6098"/>
</g>
<!-- 312 -->
<g id="node23" class="node"><title>312</title>
<ellipse fill="white" stroke="black" cx="1385.21" cy="-534.905" rx="21.4286" ry="21.4286"/>
<text text-anchor="middle" x="1385.21" y="-532.705" font-family="Times,serif" font-size="9.00">312</text>
</g>
<!-- player_y_2&#45;&gt;312 -->
<g id="edge16" class="edge"><title>player_y_2&#45;&gt;312</title>
<path fill="none" stroke="red" stroke-width="0.262097" d="M1690.95,-603.644C1636.6,-602.739 1514.58,-596.381 1420.21,-559.654 1416.72,-558.296 1413.23,-556.536 1409.89,-554.589"/>
<polygon fill="red" stroke="red" stroke-width="0.262097" points="1411.74,-551.621 1401.44,-549.144 1407.95,-557.504 1411.74,-551.621"/>
</g>
<!-- distance_1 -->
<g id="node10" class="node"><title>distance_1</title>
<polygon fill="lightgray" stroke="black" points="1976.21,-543.905 1922.21,-543.905 1922.21,-525.905 1976.21,-525.905 1976.21,-543.905"/>
<text text-anchor="middle" x="1949.21" y="-532.705" font-family="Times,serif" font-size="9.00">distance_1</text>
</g>
<!-- distance_1&#45;&gt;attack -->
<g id="edge78" class="edge"><title>distance_1&#45;&gt;attack</title>
<path fill="none" stroke="red" stroke-width="0.610097" d="M1926.72,-525.904C1871.82,-506.578 1726.38,-456.599 1602.21,-424.659 1506.26,-399.975 1391.15,-379.171 1334.02,-369.426"/>
<polygon fill="red" stroke="red" stroke-width="0.610097" points="1334.49,-365.955 1324.05,-367.736 1333.32,-372.857 1334.49,-365.955"/>
</g>
<!-- distance_1&#45;&gt;up -->
<g id="edge41" class="edge"><title>distance_1&#45;&gt;up</title>
<path fill="none" stroke="red" stroke-width="0.243018" d="M1922.17,-529.457C1888.03,-524.015 1827.43,-514.938 1775.21,-510.156 1435.81,-479.081 1348.67,-504.597 1009.21,-474.156 955.592,-469.348 893.359,-460.303 858.199,-454.87"/>
<polygon fill="red" stroke="red" stroke-width="0.243018" points="858.616,-451.393 848.196,-453.309 857.537,-458.309 858.616,-451.393"/>
</g>
<!-- distance_1&#45;&gt;down -->
<g id="edge59" class="edge"><title>distance_1&#45;&gt;down</title>
<path fill="none" stroke="red" stroke-width="0.358093" d="M1976.31,-533.531C2015.8,-531.344 2088.05,-520.783 2121.21,-474.156 2158.48,-421.757 2121.68,-382.781 2077.21,-336.333 2054.38,-312.478 2038.18,-320.738 2012.21,-300.333 1990.04,-282.906 1994.07,-266.995 1969.21,-253.664 1909.32,-221.539 1705.74,-202.047 1622.31,-195.24"/>
<polygon fill="red" stroke="red" stroke-width="0.358093" points="1622.54,-191.747 1612.29,-194.436 1621.98,-198.724 1622.54,-191.747"/>
</g>
<!-- distance_1&#45;&gt;left -->
<g id="edge18" class="edge"><title>distance_1&#45;&gt;left</title>
<path fill="none" stroke="green" stroke-width="0.83468" stroke-dasharray="1,5" d="M1922.16,-529.598C1888,-524.302 1827.39,-515.376 1775.21,-510.156 1525.28,-485.157 1459.82,-509.975 1211.21,-474.156 1185.26,-470.417 1156.22,-463.644 1135.27,-458.285"/>
<polygon fill="green" stroke="green" stroke-width="0.83468" points="1135.95,-454.847 1125.39,-455.711 1134.19,-461.621 1135.95,-454.847"/>
</g>
<!-- distance_1&#45;&gt;right -->
<g id="edge22" class="edge"><title>distance_1&#45;&gt;right</title>
<path fill="none" stroke="red" stroke-width="0.154404" stroke-dasharray="1,5" d="M1936.4,-525.883C1886.43,-495.055 1699.02,-383.579 1528.21,-336.333 1328.07,-280.973 1075.82,-276.974 985.921,-277.493"/>
<polygon fill="red" stroke="red" stroke-width="0.154404" points="985.748,-273.994 975.777,-277.575 985.805,-280.993 985.748,-273.994"/>
</g>
<!-- distance_1&#45;&gt;select -->
<g id="edge94" class="edge"><title>distance_1&#45;&gt;select</title>
<path fill="none" stroke="green" stroke-width="0.220455" d="M1957.75,-525.81C1963.82,-520.515 1972.43,-513.907 1981.21,-510.156 2068.7,-472.784 2123.46,-539.909 2192.21,-474.156 2228.58,-439.373 2216.21,-413.822 2216.21,-363.496 2216.21,-363.496 2216.21,-363.496 2216.21,-190.501 2216.21,-143.242 2225.21,-120.747 2192.21,-86.9117 2164.77,-58.7729 2052.18,-39.4422 1993.76,-31.0971"/>
<polygon fill="green" stroke="green" stroke-width="0.220455" points="1993.9,-27.5832 1983.51,-29.6671 1992.93,-34.516 1993.9,-27.5832"/>
</g>
<!-- distance_1&#45;&gt;101 -->
<g id="edge50" class="edge"><title>distance_1&#45;&gt;101</title>
<path fill="none" stroke="green" stroke-width="0.324211" d="M1964.69,-525.807C1985.72,-514.684 2024.34,-493.816 2056.21,-474.156 2059.4,-472.19 2062.71,-470.065 2065.96,-467.922"/>
<polygon fill="green" stroke="green" stroke-width="0.324211" points="2067.97,-470.787 2074.32,-462.305 2064.07,-464.977 2067.97,-470.787"/>
</g>
<!-- distance_2 -->
<g id="node11" class="node"><title>distance_2</title>
<polygon fill="lightgray" stroke="black" points="999.213,-613.654 945.213,-613.654 945.213,-595.654 999.213,-595.654 999.213,-613.654"/>
<text text-anchor="middle" x="972.213" y="-602.454" font-family="Times,serif" font-size="9.00">distance_2</text>
</g>
<!-- distance_2&#45;&gt;attack -->
<g id="edge71" class="edge"><title>distance_2&#45;&gt;attack</title>
<path fill="none" stroke="green" stroke-width="0.248217" stroke-dasharray="1,5" d="M999.376,-601.931C1057.81,-597.769 1193.15,-585.541 1230.21,-559.654 1282.03,-523.467 1294.76,-444.828 1297.65,-398.866"/>
<polygon fill="green" stroke="green" stroke-width="0.248217" points="1301.15,-398.919 1298.15,-388.756 1294.16,-398.568 1301.15,-398.919"/>
</g>
<!-- distance_2&#45;&gt;up -->
<g id="edge8" class="edge"><title>distance_2&#45;&gt;up</title>
<path fill="none" stroke="red" stroke-width="0.70191" stroke-dasharray="1,5" d="M945.163,-603.285C913.705,-601.252 862.827,-592.666 837.213,-559.654 819.25,-536.502 820.386,-501.61 824.13,-477.518"/>
<polygon fill="red" stroke="red" stroke-width="0.70191" points="827.588,-478.066 825.91,-467.604 820.698,-476.828 827.588,-478.066"/>
</g>
<!-- distance_2&#45;&gt;down -->
<g id="edge49" class="edge"><title>distance_2&#45;&gt;down</title>
<path fill="none" stroke="green" stroke-width="0.212164" stroke-dasharray="1,5" d="M999.402,-603.206C1150.93,-600.614 1887.9,-586.694 1985.21,-559.654 2061.77,-538.382 2101.63,-542.465 2142.21,-474.156 2201.26,-374.766 2110.83,-298.373 2004.21,-253.664 1872.06,-198.244 1698.13,-191.792 1623.19,-191.843"/>
<polygon fill="green" stroke="green" stroke-width="0.212164" points="1622.85,-188.345 1612.86,-191.893 1622.88,-195.345 1622.85,-188.345"/>
</g>
<!-- distance_2&#45;&gt;left -->
<g id="edge91" class="edge"><title>distance_2&#45;&gt;left</title>
<path fill="none" stroke="red" stroke-width="0.286452" d="M979.418,-595.415C999.448,-572.508 1056.32,-507.472 1086.63,-472.807"/>
<polygon fill="red" stroke="red" stroke-width="0.286452" points="1089.42,-474.925 1093.37,-465.093 1084.15,-470.317 1089.42,-474.925"/>
</g>
<!-- distance_2&#45;&gt;right -->
<g id="edge26" class="edge"><title>distance_2&#45;&gt;right</title>
<path fill="none" stroke="green" stroke-width="0.382848" stroke-dasharray="1,5" d="M945.131,-603.272C884.877,-601.791 742.713,-594.588 713.213,-559.654 685.371,-526.683 744.242,-425.801 745.213,-424.659 766.109,-400.096 784.621,-410.646 808.213,-388.659 828.681,-369.583 822.483,-355.123 843.213,-336.333 866.034,-315.649 897.52,-299.824 920.786,-289.91"/>
<polygon fill="green" stroke="green" stroke-width="0.382848" points="922.294,-293.074 930.204,-286.026 919.625,-286.603 922.294,-293.074"/>
</g>
<!-- distance_2&#45;&gt;select -->
<g id="edge67" class="edge"><title>distance_2&#45;&gt;select</title>
<path fill="none" stroke="green" stroke-width="0.169493" stroke-dasharray="1,5" d="M999.244,-603.612C1157.59,-603.227 1961.37,-599.318 2063.21,-559.654 2223.94,-497.057 2330.21,-450.486 2330.21,-277.999 2330.21,-277.999 2330.21,-277.999 2330.21,-190.501 2330.21,-44.3767 2086.94,-27.3084 1993.85,-26.1261"/>
<polygon fill="green" stroke="green" stroke-width="0.169493" points="1993.81,-22.6258 1983.78,-26.0537 1993.76,-29.6256 1993.81,-22.6258"/>
</g>
<!-- 899 -->
<g id="node19" class="node"><title>899</title>
<ellipse fill="white" stroke="black" cx="21.2132" cy="-449.408" rx="21.4286" ry="21.4286"/>
<text text-anchor="middle" x="21.2132" y="-447.208" font-family="Times,serif" font-size="9.00">899</text>
</g>
<!-- distance_2&#45;&gt;899 -->
<g id="edge35" class="edge"><title>distance_2&#45;&gt;899</title>
<path fill="none" stroke="red" stroke-width="0.152785" d="M945.115,-603.153C832.027,-600.88 397.437,-590.29 264.213,-559.654 166.806,-537.254 144.256,-521.467 56.2132,-474.156 52.9143,-472.384 49.5407,-470.375 46.2532,-468.294"/>
<polygon fill="red" stroke="red" stroke-width="0.152785" points="48.1309,-465.34 37.862,-462.732 44.2633,-471.174 48.1309,-465.34"/>
</g>
<!-- 1335 -->
<g id="node22" class="node"><title>1335</title>
<ellipse fill="white" stroke="black" cx="1245.21" cy="-449.408" rx="25" ry="25"/>
<text text-anchor="middle" x="1245.21" y="-447.208" font-family="Times,serif" font-size="9.00">1335</text>
</g>
<!-- distance_2&#45;&gt;1335 -->
<g id="edge63" class="edge"><title>distance_2&#45;&gt;1335</title>
<path fill="none" stroke="green" stroke-width="0.346818" d="M999.285,-601.622C1052.82,-597.104 1169.7,-584.596 1200.21,-559.654 1223,-541.023 1234.38,-508.953 1239.98,-484.364"/>
<polygon fill="green" stroke="green" stroke-width="0.346818" points="1243.46,-484.845 1242.05,-474.344 1236.6,-483.433 1243.46,-484.845"/>
</g>
<!-- 1246 -->
<g id="node28" class="node"><title>1246</title>
<ellipse fill="white" stroke="black" cx="298.213" cy="-534.905" rx="25" ry="25"/>
<text text-anchor="middle" x="298.213" y="-532.705" font-family="Times,serif" font-size="9.00">1246</text>
</g>
<!-- distance_2&#45;&gt;1246 -->
<g id="edge100" class="edge"><title>distance_2&#45;&gt;1246</title>
<path fill="none" stroke="green" stroke-width="0.473701" d="M945.152,-602.559C864.907,-599.083 621.374,-586.884 421.213,-559.654 390.855,-555.524 356.661,-548.748 332.047,-543.488"/>
<polygon fill="green" stroke="green" stroke-width="0.473701" points="332.637,-540.035 322.123,-541.339 331.156,-546.877 332.637,-540.035"/>
</g>
<!-- 621 -->
<g id="node33" class="node"><title>621</title>
<ellipse fill="white" stroke="black" cx="867.213" cy="-534.905" rx="21.4286" ry="21.4286"/>
<text text-anchor="middle" x="867.213" y="-532.705" font-family="Times,serif" font-size="9.00">621</text>
</g>
<!-- distance_2&#45;&gt;621 -->
<g id="edge69" class="edge"><title>distance_2&#45;&gt;621</title>
<path fill="none" stroke="green" stroke-width="0.121614" d="M958.966,-595.519C944.824,-586.789 921.801,-572.45 902.213,-559.654 899.078,-557.606 895.803,-555.431 892.568,-553.262"/>
<polygon fill="green" stroke="green" stroke-width="0.121614" points="894.468,-550.321 884.223,-547.622 890.548,-556.121 894.468,-550.321"/>
</g>
<!-- up&#45;&gt;471 -->
<g id="edge7" class="edge"><title>up&#45;&gt;471</title>
<path fill="none" stroke="green" stroke-width="0.251356" d="M812.715,-443.599C762.163,-429.708 615.46,-389.395 551.557,-371.834"/>
<polygon fill="green" stroke="green" stroke-width="0.251356" points="552.256,-368.397 541.686,-369.122 550.401,-375.146 552.256,-368.397"/>
</g>
<!-- 514 -->
<g id="node18" class="node"><title>514</title>
<ellipse fill="white" stroke="black" cx="1586.21" cy="-108.125" rx="21.4286" ry="21.4286"/>
<text text-anchor="middle" x="1586.21" y="-105.925" font-family="Times,serif" font-size="9.00">514</text>
</g>
<!-- down&#45;&gt;514 -->
<g id="edge76" class="edge"><title>down&#45;&gt;514</title>
<path fill="none" stroke="red" stroke-width="0.478749" d="M1586.21,-165.199C1586.21,-157.129 1586.21,-148.112 1586.21,-139.709"/>
<polygon fill="red" stroke="red" stroke-width="0.478749" points="1589.71,-139.51 1586.21,-129.51 1582.71,-139.51 1589.71,-139.51"/>
</g>
<!-- down&#45;&gt;192 -->
<g id="edge25" class="edge"><title>down&#45;&gt;192</title>
<path fill="none" stroke="green" stroke-width="0.332261" stroke-dasharray="1,5" d="M1560.03,-187.976C1435.96,-176.014 907.654,-125.076 773.361,-112.128"/>
<polygon fill="green" stroke="green" stroke-width="0.332261" points="773.623,-108.637 763.333,-111.161 772.951,-115.605 773.623,-108.637"/>
</g>
<!-- left&#45;&gt;251 -->
<g id="edge24" class="edge"><title>left&#45;&gt;251</title>
<path fill="none" stroke="red" stroke-width="0.135924" d="M1092.45,-434.751C1087.92,-430.947 1082.65,-427.173 1077.21,-424.659 973.45,-376.646 835.284,-366.27 773.907,-364.066"/>
<polygon fill="red" stroke="red" stroke-width="0.135924" points="773.809,-360.562 763.706,-363.751 773.593,-367.558 773.809,-360.562"/>
</g>
<!-- 899&#45;&gt;down -->
<g id="edge82" class="edge"><title>899&#45;&gt;down</title>
<path fill="none" stroke="red" stroke-width="0.169349" d="M36.2887,-434.071C77.3357,-396.096 196.147,-293.119 317.213,-253.664 437.1,-214.594 1355.31,-196.521 1550.01,-193.108"/>
<polygon fill="red" stroke="red" stroke-width="0.169349" points="1550.07,-196.607 1560.01,-192.934 1549.95,-189.608 1550.07,-196.607"/>
</g>
<!-- 556&#45;&gt;attack -->
<g id="edge61" class="edge"><title>556&#45;&gt;attack</title>
<path fill="none" stroke="green" stroke-width="0.326289" stroke-dasharray="1,5" d="M1336.82,-430.4C1330.82,-420.004 1323.11,-406.64 1316.16,-394.593"/>
<polygon fill="green" stroke="green" stroke-width="0.326289" points="1319.06,-392.62 1311.03,-385.708 1313,-396.119 1319.06,-392.62"/>
</g>
<!-- 820 -->
<g id="node21" class="node"><title>820</title>
<ellipse fill="white" stroke="black" cx="1939.21" cy="-276.999" rx="21.4286" ry="21.4286"/>
<text text-anchor="middle" x="1939.21" y="-274.799" font-family="Times,serif" font-size="9.00">820</text>
</g>
<!-- 820&#45;&gt;down -->
<g id="edge90" class="edge"><title>820&#45;&gt;down</title>
<path fill="none" stroke="red" stroke-width="0.352757" stroke-dasharray="1,5" d="M1922.47,-263.498C1916.9,-259.848 1910.51,-256.171 1904.21,-253.664 1806.9,-214.909 1682.8,-200.168 1622.44,-195.015"/>
<polygon fill="red" stroke="red" stroke-width="0.352757" points="1622.53,-191.511 1612.28,-194.187 1621.96,-198.488 1622.53,-191.511"/>
</g>
<!-- 1335&#45;&gt;attack -->
<g id="edge12" class="edge"><title>1335&#45;&gt;attack</title>
<path fill="none" stroke="green" stroke-width="0.447886" d="M1258.04,-427.853C1264.42,-417.629 1272.26,-405.071 1279.32,-393.771"/>
<polygon fill="green" stroke="green" stroke-width="0.447886" points="1282.44,-395.383 1284.76,-385.046 1276.5,-391.676 1282.44,-395.383"/>
</g>
<!-- 312&#45;&gt;attack -->
<g id="edge77" class="edge"><title>312&#45;&gt;attack</title>
<path fill="none" stroke="green" stroke-width="0.311379" d="M1388.43,-513.621C1391.06,-490.606 1392.23,-452.643 1377.21,-424.659 1366.9,-405.445 1347.67,-390.352 1330.76,-379.966"/>
<polygon fill="green" stroke="green" stroke-width="0.311379" points="1332.08,-376.686 1321.67,-374.684 1328.56,-382.737 1332.08,-376.686"/>
</g>
<!-- 312&#45;&gt;556 -->
<g id="edge34" class="edge"><title>312&#45;&gt;556</title>
<path fill="none" stroke="green" stroke-width="0.22632" d="M1376.78,-515.374C1371.81,-504.456 1365.43,-490.431 1359.87,-478.209"/>
<polygon fill="green" stroke="green" stroke-width="0.22632" points="1362.95,-476.539 1355.62,-468.887 1356.58,-479.438 1362.95,-476.539"/>
</g>
<!-- 192&#45;&gt;select -->
<g id="edge66" class="edge"><title>192&#45;&gt;select</title>
<path fill="none" stroke="green" stroke-width="0.994223" d="M763.319,-105.725C906.873,-96.2014 1739.59,-40.9592 1922.64,-28.8159"/>
<polygon fill="green" stroke="green" stroke-width="0.994223" points="1923.05,-32.2965 1932.79,-28.1422 1922.58,-25.3119 1923.05,-32.2965"/>
</g>
<!-- 1218&#45;&gt;right -->
<g id="edge31" class="edge"><title>1218&#45;&gt;right</title>
<path fill="none" stroke="green" stroke-width="0.175706" d="M518.387,-429.548C543.942,-397.809 592.932,-337.075 594.213,-336.333 649.244,-304.446 840.325,-286.561 918.491,-280.434"/>
<polygon fill="green" stroke="green" stroke-width="0.175706" points="919.042,-283.902 928.745,-279.647 918.506,-276.922 919.042,-283.902"/>
</g>
<!-- 1218&#45;&gt;990 -->
<g id="edge73" class="edge"><title>1218&#45;&gt;990</title>
<path fill="none" stroke="green" stroke-width="0.259025" d="M486.637,-430.814C474.357,-417.78 457.53,-399.92 444.294,-385.871"/>
<polygon fill="green" stroke="green" stroke-width="0.259025" points="446.767,-383.391 437.362,-378.513 441.672,-388.192 446.767,-383.391"/>
</g>
<!-- 717&#45;&gt;down -->
<g id="edge4" class="edge"><title>717&#45;&gt;down</title>
<path fill="none" stroke="red" stroke-width="0.427907" d="M363.415,-263.2C369.052,-259.438 375.622,-255.771 382.213,-253.664 495.763,-217.37 1360.79,-197.234 1549.8,-193.242"/>
<polygon fill="red" stroke="red" stroke-width="0.427907" points="1550.11,-196.736 1560.04,-193.027 1549.97,-189.737 1550.11,-196.736"/>
</g>
<!-- 471&#45;&gt;225 -->
<g id="edge104" class="edge"><title>471&#45;&gt;225</title>
<path fill="none" stroke="green" stroke-width="0.923699" d="M516.71,-341.708C514.408,-331.592 511.559,-319.07 508.997,-307.812"/>
<polygon fill="green" stroke="green" stroke-width="0.923699" points="512.381,-306.908 506.749,-297.934 505.556,-308.461 512.381,-306.908"/>
</g>
<!-- 1246&#45;&gt;899 -->
<g id="edge85" class="edge"><title>1246&#45;&gt;899</title>
<path fill="none" stroke="red" stroke-width="0.455807" d="M273.582,-530.761C228.754,-524.41 131.518,-507.705 56.2132,-474.156 52.7923,-472.632 49.3454,-470.773 46.0185,-468.772"/>
<polygon fill="red" stroke="red" stroke-width="0.455807" points="47.8816,-465.809 37.5929,-463.28 44.059,-471.673 47.8816,-465.809"/>
</g>
<!-- 990&#45;&gt;192 -->
<g id="edge21" class="edge"><title>990&#45;&gt;192</title>
<path fill="none" stroke="green" stroke-width="0.432415" d="M402.808,-356.415C377.541,-348.905 335.596,-332.163 317.213,-300.333 306.84,-282.371 305.136,-270.527 317.213,-253.664 410.691,-123.137 628.927,-109.085 710.608,-108.575"/>
<polygon fill="green" stroke="green" stroke-width="0.432415" points="710.759,-112.075 720.76,-108.579 710.761,-105.075 710.759,-112.075"/>
</g>
<!-- 990&#45;&gt;225 -->
<g id="edge19" class="edge"><title>990&#45;&gt;225</title>
<path fill="none" stroke="green" stroke-width="0.356461" d="M437.337,-346.568C449.395,-333.824 466.924,-315.297 480.722,-300.713"/>
<polygon fill="green" stroke="green" stroke-width="0.356461" points="483.615,-302.748 487.946,-293.078 478.53,-297.937 483.615,-302.748"/>
</g>
<!-- 225&#45;&gt;down -->
<g id="edge57" class="edge"><title>225&#45;&gt;down</title>
<path fill="none" stroke="red" stroke-width="0.179025" d="M523.149,-272.956C556.229,-268.239 622.642,-259.136 679.213,-253.664 1016.93,-220.998 1427.08,-200.062 1549.83,-194.192"/>
<polygon fill="red" stroke="red" stroke-width="0.179025" points="1550,-197.688 1559.83,-193.718 1549.67,-190.696 1550,-197.688"/>
</g>
<!-- 101&#45;&gt;down -->
<g id="edge42" class="edge"><title>101&#45;&gt;down</title>
<path fill="none" stroke="red" stroke-width="0.818652" d="M2079.48,-431.701C2057.82,-400.887 2013.52,-338.067 2011.21,-336.333 1972.8,-307.428 1949.35,-326.791 1909.21,-300.333 1885.67,-284.811 1890.68,-267.694 1866.21,-253.664 1787.34,-208.435 1678.41,-196.612 1622.52,-193.549"/>
<polygon fill="red" stroke="red" stroke-width="0.818652" points="1622.55,-190.046 1612.39,-193.059 1622.21,-197.038 1622.55,-190.046"/>
</g>
<!-- 101&#45;&gt;820 -->
<g id="edge101" class="edge"><title>101&#45;&gt;820</title>
<path fill="none" stroke="green" stroke-width="0.191751" stroke-dasharray="1,5" d="M2088.33,-428.217C2083.88,-403.749 2073.2,-362.55 2049.21,-336.333 2024.26,-309.051 2006.52,-318.311 1974.21,-300.333 1971.16,-298.634 1968.01,-296.778 1964.91,-294.885"/>
<polygon fill="green" stroke="green" stroke-width="0.191751" points="1966.74,-291.904 1956.41,-289.553 1963.02,-297.833 1966.74,-291.904"/>
</g>
<!-- 1510&#45;&gt;attack -->
<g id="edge23" class="edge"><title>1510&#45;&gt;attack</title>
<path fill="none" stroke="green" stroke-width="0.263221" d="M1062.3,-433.398C1066.99,-430.189 1072.13,-427.05 1077.21,-424.659 1139.07,-395.548 1217.39,-377.97 1262.25,-369.552"/>
<polygon fill="green" stroke="green" stroke-width="0.263221" points="1263.16,-372.943 1272.37,-367.703 1261.9,-366.058 1263.16,-372.943"/>
</g>
<!-- 621&#45;&gt;up -->
<g id="edge32" class="edge"><title>621&#45;&gt;up</title>
<path fill="none" stroke="green" stroke-width="0.586639" d="M858.817,-514.958C853.703,-503.417 847.102,-488.521 841.53,-475.947"/>
<polygon fill="green" stroke="green" stroke-width="0.586639" points="844.582,-474.194 837.331,-466.47 838.182,-477.03 844.582,-474.194"/>
</g>
<!-- 251&#45;&gt;down -->
<g id="edge105" class="edge"><title>251&#45;&gt;down</title>
<path fill="none" stroke="green" stroke-width="0.129951" d="M758.093,-348.215C787.732,-324.309 854.448,-274.576 920.213,-253.664 1039.17,-215.838 1428.11,-198.406 1549.61,-193.794"/>
<polygon fill="green" stroke="green" stroke-width="0.129951" points="1550,-197.282 1559.86,-193.411 1549.74,-190.286 1550,-197.282"/>
</g>
<!-- 251&#45;&gt;right -->
<g id="edge27" class="edge"><title>251&#45;&gt;right</title>
<path fill="none" stroke="red" stroke-width="0.65872" d="M758.29,-348.387C764.023,-344.141 770.683,-339.671 777.213,-336.333 824.32,-312.254 883.501,-294.96 919.559,-285.722"/>
<polygon fill="red" stroke="red" stroke-width="0.65872" points="920.678,-289.049 929.527,-283.222 918.976,-282.26 920.678,-289.049"/>
</g>
<!-- 251&#45;&gt;192 -->
<g id="edge79" class="edge"><title>251&#45;&gt;192</title>
<path fill="none" stroke="green" stroke-width="0.163272" d="M742.213,-341.27C742.213,-297.154 742.213,-192.056 742.213,-139.763"/>
<polygon fill="green" stroke="green" stroke-width="0.163272" points="745.713,-139.447 742.213,-129.447 738.713,-139.447 745.713,-139.447"/>
</g>
</g>
</svg>
