<?xml version="1.0" encoding="UTF-8" standalone="no"?>
<!DOCTYPE svg PUBLIC "-//W3C//DTD SVG 1.1//EN"
 "http://www.w3.org/Graphics/SVG/1.1/DTD/svg11.dtd">
<!-- Generated by graphviz version 2.38.0 (20140413.2041)
 -->
<!-- Title: %3 Pages: 1 -->
<svg width="1158pt" height="187pt"
 viewBox="0.00 0.00 1158.09 187.10" xmlns="http://www.w3.org/2000/svg" xmlns:xlink="http://www.w3.org/1999/xlink">
<g id="graph0" class="graph" transform="scale(1 1) rotate(0) translate(4 183.095)">
<title>%3</title>
<polygon fill="white" stroke="none" points="-4,4 -4,-183.095 1154.09,-183.095 1154.09,4 -4,4"/>
<!-- enemy_hp -->
<g id="node1" class="node"><title>enemy_hp</title>
<polygon fill="lightgray" stroke="black" points="627.885,-115.711 574.885,-115.711 574.885,-97.7107 627.885,-97.7107 627.885,-115.711"/>
<text text-anchor="middle" x="601.385" y="-104.511" font-family="Times,serif" font-size="9.00">enemy_hp</text>
</g>
<!-- attack -->
<g id="node12" class="node"><title>attack</title>
<ellipse fill="lightblue" stroke="black" cx="692.385" cy="-26.163" rx="26.3269" ry="26.3269"/>
<text text-anchor="middle" x="692.385" y="-23.963" font-family="Times,serif" font-size="9.00">attack</text>
</g>
<!-- enemy_hp&#45;&gt;attack -->
<g id="edge4" class="edge"><title>enemy_hp&#45;&gt;attack</title>
<path fill="none" stroke="green" stroke-width="0.113674" d="M610.781,-97.6005C623.575,-86.5568 647,-66.3376 665.481,-50.3856"/>
<polygon fill="green" stroke="green" stroke-width="0.113674" points="667.77,-53.0331 673.053,-43.8494 663.196,-47.7341 667.77,-53.0331"/>
</g>
<!-- up -->
<g id="node13" class="node"><title>up</title>
<ellipse fill="lightblue" stroke="black" cx="755.385" cy="-26.163" rx="18.2703" ry="18.2703"/>
<text text-anchor="middle" x="755.385" y="-23.963" font-family="Times,serif" font-size="9.00">up</text>
</g>
<!-- enemy_hp&#45;&gt;up -->
<g id="edge43" class="edge"><title>enemy_hp&#45;&gt;up</title>
<path fill="none" stroke="red" stroke-width="0.195256" d="M617.402,-97.6816C623.6,-94.6526 630.78,-91.2375 637.385,-88.3259 676.806,-70.9483 690.799,-75.0747 727.385,-52.3259 729.986,-50.7082 732.574,-48.8393 735.066,-46.8653"/>
<polygon fill="red" stroke="red" stroke-width="0.195256" points="737.773,-49.1511 743.047,-39.9623 733.194,-43.8566 737.773,-49.1511"/>
</g>
<!-- down -->
<g id="node14" class="node"><title>down</title>
<ellipse fill="lightblue" stroke="black" cx="431.385" cy="-26.163" rx="26.3269" ry="26.3269"/>
<text text-anchor="middle" x="431.385" y="-23.963" font-family="Times,serif" font-size="9.00">down</text>
</g>
<!-- enemy_hp&#45;&gt;down -->
<g id="edge42" class="edge"><title>enemy_hp&#45;&gt;down</title>
<path fill="none" stroke="red" stroke-width="0.214836" d="M585.415,-97.5703C579.223,-94.5277 572.035,-91.1323 565.385,-88.3259 522.25,-70.1228 507.781,-74.1966 466.385,-52.3259 464.342,-51.2465 462.282,-50.0615 460.24,-48.812"/>
<polygon fill="red" stroke="red" stroke-width="0.214836" points="461.778,-45.6335 451.503,-43.0489 457.924,-51.4768 461.778,-45.6335"/>
</g>
<!-- left -->
<g id="node15" class="node"><title>left</title>
<ellipse fill="lightblue" stroke="black" cx="628.385" cy="-26.163" rx="19.6" ry="19.6"/>
<text text-anchor="middle" x="628.385" y="-23.963" font-family="Times,serif" font-size="9.00">left</text>
</g>
<!-- enemy_hp&#45;&gt;left -->
<g id="edge64" class="edge"><title>enemy_hp&#45;&gt;left</title>
<path fill="none" stroke="green" stroke-width="0.329646" d="M604.173,-97.6005C607.643,-87.5043 613.75,-69.7393 618.961,-54.577"/>
<polygon fill="green" stroke="green" stroke-width="0.329646" points="622.28,-55.6904 622.221,-45.0957 615.66,-53.4148 622.28,-55.6904"/>
</g>
<!-- right -->
<g id="node16" class="node"><title>right</title>
<ellipse fill="lightblue" stroke="black" cx="498.385" cy="-26.163" rx="23.1702" ry="23.1702"/>
<text text-anchor="middle" x="498.385" y="-23.963" font-family="Times,serif" font-size="9.00">right</text>
</g>
<!-- enemy_hp&#45;&gt;right -->
<g id="edge9" class="edge"><title>enemy_hp&#45;&gt;right</title>
<path fill="none" stroke="green" stroke-width="0.751435" d="M590.75,-97.6005C575.322,-85.8353 546.239,-63.6566 524.814,-47.3176"/>
<polygon fill="green" stroke="green" stroke-width="0.751435" points="526.81,-44.4385 516.736,-41.1576 522.565,-50.0047 526.81,-44.4385"/>
</g>
<!-- select -->
<g id="node17" class="node"><title>select</title>
<ellipse fill="lightblue" stroke="black" cx="565.385" cy="-26.163" rx="25.4118" ry="25.4118"/>
<text text-anchor="middle" x="565.385" y="-23.963" font-family="Times,serif" font-size="9.00">select</text>
</g>
<!-- enemy_hp&#45;&gt;select -->
<g id="edge57" class="edge"><title>enemy_hp&#45;&gt;select</title>
<path fill="none" stroke="green" stroke-width="0.12604" d="M597.668,-97.6005C593.493,-88.4922 586.458,-73.1424 580.019,-59.0928"/>
<polygon fill="green" stroke="green" stroke-width="0.12604" points="583.047,-57.2991 575.699,-49.6666 576.683,-60.2156 583.047,-57.2991"/>
</g>
<!-- player_hp_1 -->
<g id="node2" class="node"><title>player_hp_1</title>
<polygon fill="lightgray" stroke="black" points="706.885,-115.711 645.885,-115.711 645.885,-97.7107 706.885,-97.7107 706.885,-115.711"/>
<text text-anchor="middle" x="676.385" y="-104.511" font-family="Times,serif" font-size="9.00">player_hp_1</text>
</g>
<!-- player_hp_1&#45;&gt;attack -->
<g id="edge19" class="edge"><title>player_hp_1&#45;&gt;attack</title>
<path fill="none" stroke="green" stroke-width="0.304506" d="M678.037,-97.6005C679.767,-89.1046 682.604,-75.1784 685.3,-61.9423"/>
<polygon fill="green" stroke="green" stroke-width="0.304506" points="688.748,-62.5538 687.314,-52.0564 681.888,-61.1566 688.748,-62.5538"/>
</g>
<!-- player_hp_1&#45;&gt;up -->
<g id="edge21" class="edge"><title>player_hp_1&#45;&gt;up</title>
<path fill="none" stroke="green" stroke-width="0.237514" d="M684.542,-97.6005C696.399,-85.8108 718.774,-63.5642 735.217,-47.2156"/>
<polygon fill="green" stroke="green" stroke-width="0.237514" points="738.116,-49.2681 742.74,-39.7354 733.181,-44.3041 738.116,-49.2681"/>
</g>
<!-- player_hp_1&#45;&gt;down -->
<g id="edge2" class="edge"><title>player_hp_1&#45;&gt;down</title>
<path fill="none" stroke="red" stroke-width="0.449089" d="M660.368,-97.6499C653.433,-94.4032 645.142,-90.8399 637.385,-88.3259 563.502,-64.3811 537.445,-83.6692 466.385,-52.3259 464.271,-51.3934 462.157,-50.3198 460.076,-49.1528"/>
<polygon fill="red" stroke="red" stroke-width="0.449089" points="461.57,-45.9573 451.244,-43.5851 457.837,-51.8789 461.57,-45.9573"/>
</g>
<!-- player_hp_1&#45;&gt;left -->
<g id="edge58" class="edge"><title>player_hp_1&#45;&gt;left</title>
<path fill="none" stroke="green" stroke-width="0.501717" d="M671.429,-97.6005C664.941,-86.9843 653.272,-67.8892 643.719,-52.2564"/>
<polygon fill="green" stroke="green" stroke-width="0.501717" points="646.595,-50.2503 638.394,-43.5425 640.622,-53.9004 646.595,-50.2503"/>
</g>
<!-- player_hp_1&#45;&gt;right -->
<g id="edge67" class="edge"><title>player_hp_1&#45;&gt;right</title>
<path fill="none" stroke="green" stroke-width="0.178746" d="M659.057,-97.5763C652.346,-94.5344 644.563,-91.138 637.385,-88.3259 591.059,-70.1782 575.298,-75.7164 531.385,-52.3259 529.048,-51.0811 526.702,-49.6752 524.398,-48.18"/>
<polygon fill="green" stroke="green" stroke-width="0.178746" points="526.011,-45.0345 515.824,-42.1232 521.972,-50.7517 526.011,-45.0345"/>
</g>
<!-- player_hp_1&#45;&gt;select -->
<g id="edge15" class="edge"><title>player_hp_1&#45;&gt;select</title>
<path fill="none" stroke="green" stroke-width="0.696981" d="M664.565,-97.6829C649.383,-87.3332 622.261,-68.7153 599.385,-52.3259 597.542,-51.0054 595.649,-49.6375 593.744,-48.2526"/>
<polygon fill="green" stroke="green" stroke-width="0.696981" points="595.58,-45.2583 585.445,-42.1686 591.441,-50.9038 595.58,-45.2583"/>
</g>
<!-- player_hp_2 -->
<g id="node3" class="node"><title>player_hp_2</title>
<polygon fill="lightgray" stroke="black" points="785.885,-115.711 724.885,-115.711 724.885,-97.7107 785.885,-97.7107 785.885,-115.711"/>
<text text-anchor="middle" x="755.385" y="-104.511" font-family="Times,serif" font-size="9.00">player_hp_2</text>
</g>
<!-- player_hp_2&#45;&gt;attack -->
<g id="edge62" class="edge"><title>player_hp_2&#45;&gt;attack</title>
<path fill="none" stroke="red" stroke-width="0.191493" d="M748.88,-97.6005C740.869,-87.6127 726.839,-70.1199 714.765,-55.0662"/>
<polygon fill="red" stroke="red" stroke-width="0.191493" points="717.296,-52.6282 708.309,-47.0172 711.836,-57.0079 717.296,-52.6282"/>
</g>
<!-- player_hp_2&#45;&gt;up -->
<g id="edge46" class="edge"><title>player_hp_2&#45;&gt;up</title>
<path fill="none" stroke="green" stroke-width="0.207316" d="M755.385,-97.6005C755.385,-87.6335 755.385,-70.1928 755.385,-55.1604"/>
<polygon fill="green" stroke="green" stroke-width="0.207316" points="758.885,-54.7814 755.385,-44.7814 751.885,-54.7815 758.885,-54.7814"/>
</g>
<!-- player_hp_2&#45;&gt;down -->
<g id="edge33" class="edge"><title>player_hp_2&#45;&gt;down</title>
<path fill="none" stroke="red" stroke-width="0.282631" stroke-dasharray="1,5" d="M739.819,-97.5838C732.823,-94.2453 724.361,-90.6297 716.385,-88.3259 608.536,-57.1767 570.501,-94.2948 466.385,-52.3259 464.242,-51.462 462.106,-50.4406 460.008,-49.312"/>
<polygon fill="red" stroke="red" stroke-width="0.282631" points="461.486,-46.1109 451.138,-43.8357 457.809,-52.0672 461.486,-46.1109"/>
</g>
<!-- player_hp_2&#45;&gt;left -->
<g id="edge16" class="edge"><title>player_hp_2&#45;&gt;left</title>
<path fill="none" stroke="red" stroke-width="0.147324" d="M738.085,-97.7021C717.973,-88.0762 684.124,-70.8851 657.385,-52.3259 654.972,-50.6512 652.53,-48.8075 650.142,-46.9027"/>
<polygon fill="red" stroke="red" stroke-width="0.147324" points="652.25,-44.1021 642.342,-40.3474 647.746,-49.4608 652.25,-44.1021"/>
</g>
<!-- player_hp_2&#45;&gt;right -->
<g id="edge68" class="edge"><title>player_hp_2&#45;&gt;right</title>
<path fill="none" stroke="red" stroke-width="0.302314" stroke-dasharray="1,5" d="M739.386,-97.592C732.455,-94.3355 724.161,-90.7805 716.385,-88.3259 636.505,-63.1114 607.807,-86.6215 531.385,-52.3259 528.735,-51.1368 526.101,-49.6982 523.545,-48.1182"/>
<polygon fill="red" stroke="red" stroke-width="0.302314" points="525.448,-45.1792 515.236,-42.3586 521.46,-50.9321 525.448,-45.1792"/>
</g>
<!-- player_hp_2&#45;&gt;select -->
<g id="edge53" class="edge"><title>player_hp_2&#45;&gt;select</title>
<path fill="none" stroke="green" stroke-width="0.309085" d="M738.485,-97.6422C731.693,-94.541 723.742,-91.086 716.385,-88.3259 665.446,-69.2155 647.945,-76.8594 599.385,-52.3259 597.361,-51.3035 595.331,-50.1617 593.325,-48.9442"/>
<polygon fill="green" stroke="green" stroke-width="0.309085" points="595.049,-45.887 584.786,-43.2568 591.169,-51.7132 595.049,-45.887"/>
</g>
<!-- enemy_x -->
<g id="node4" class="node"><title>enemy_x</title>
<polygon fill="lightgray" stroke="black" points="852.885,-115.711 803.885,-115.711 803.885,-97.7107 852.885,-97.7107 852.885,-115.711"/>
<text text-anchor="middle" x="828.385" y="-104.511" font-family="Times,serif" font-size="9.00">enemy_x</text>
</g>
<!-- enemy_x&#45;&gt;attack -->
<g id="edge49" class="edge"><title>enemy_x&#45;&gt;attack</title>
<path fill="none" stroke="green" stroke-width="0.214484" d="M813.093,-97.6086C786.084,-83.2904 732.39,-54.7826 728.385,-52.3259 726.167,-50.9653 723.9,-49.5204 721.638,-48.0377"/>
<polygon fill="green" stroke="green" stroke-width="0.214484" points="723.287,-44.9284 713.042,-42.231 719.369,-50.729 723.287,-44.9284"/>
</g>
<!-- enemy_x&#45;&gt;up -->
<g id="edge65" class="edge"><title>enemy_x&#45;&gt;up</title>
<path fill="none" stroke="red" stroke-width="0.625417" d="M820.847,-97.6005C810.016,-85.9456 789.686,-64.0714 774.544,-47.7784"/>
<polygon fill="red" stroke="red" stroke-width="0.625417" points="776.963,-45.24 767.592,-40.2976 771.836,-50.0054 776.963,-45.24"/>
</g>
<!-- enemy_x&#45;&gt;down -->
<g id="edge12" class="edge"><title>enemy_x&#45;&gt;down</title>
<path fill="none" stroke="red" stroke-width="0.139853" d="M815.704,-97.5915C809.76,-94.1695 802.444,-90.4858 795.385,-88.3259 654.727,-45.2883 603.729,-104.99 466.385,-52.3259 464.227,-51.4986 462.081,-50.5049 459.975,-49.3969"/>
<polygon fill="red" stroke="red" stroke-width="0.139853" points="461.444,-46.1933 451.086,-43.9693 457.797,-52.1677 461.444,-46.1933"/>
</g>
<!-- enemy_x&#45;&gt;left -->
<g id="edge26" class="edge"><title>enemy_x&#45;&gt;left</title>
<path fill="none" stroke="red" stroke-width="0.19272" d="M814.907,-97.7104C809.053,-94.4739 802.026,-90.9019 795.385,-88.3259 736.289,-65.4031 713.463,-81.8729 657.385,-52.3259 654.786,-50.9568 652.223,-49.3135 649.76,-47.531"/>
<polygon fill="red" stroke="red" stroke-width="0.19272" points="651.838,-44.7101 641.867,-41.1306 647.43,-50.1474 651.838,-44.7101"/>
</g>
<!-- enemy_x&#45;&gt;right -->
<g id="edge56" class="edge"><title>enemy_x&#45;&gt;right</title>
<path fill="none" stroke="green" stroke-width="0.595909" stroke-dasharray="1,5" d="M815.677,-97.6778C809.727,-94.2732 802.415,-90.5793 795.385,-88.3259 682.617,-52.1789 640.754,-97.73 531.385,-52.3259 528.702,-51.2123 526.046,-49.8255 523.475,-48.279"/>
<polygon fill="green" stroke="green" stroke-width="0.595909" points="525.372,-45.3358 515.144,-42.5718 521.416,-51.1108 525.372,-45.3358"/>
</g>
<!-- enemy_x&#45;&gt;select -->
<g id="edge1" class="edge"><title>enemy_x&#45;&gt;select</title>
<path fill="none" stroke="red" stroke-width="0.38698" d="M815.313,-97.649C809.411,-94.3225 802.238,-90.6984 795.385,-88.3259 711.689,-59.3532 680.634,-87.5803 599.385,-52.3259 597.25,-51.3997 595.123,-50.3172 593.034,-49.1313"/>
<polygon fill="red" stroke="red" stroke-width="0.38698" points="594.517,-45.9221 584.218,-43.4346 590.717,-51.8015 594.517,-45.9221"/>
</g>
<!-- enemy_y -->
<g id="node5" class="node"><title>enemy_y</title>
<polygon fill="lightgray" stroke="black" points="164.885,-179.095 115.885,-179.095 115.885,-161.095 164.885,-161.095 164.885,-179.095"/>
<text text-anchor="middle" x="140.385" y="-167.895" font-family="Times,serif" font-size="9.00">enemy_y</text>
</g>
<!-- enemy_y&#45;&gt;attack -->
<g id="edge37" class="edge"><title>enemy_y&#45;&gt;attack</title>
<path fill="none" stroke="green" stroke-width="0.363839" d="M165.027,-168.675C296.377,-166.319 909.214,-153.81 936.385,-125.095 947.617,-113.225 946.909,-100.828 936.385,-88.3259 875.966,-16.5517 815.133,-88.0561 728.385,-52.3259 725.893,-51.2995 723.403,-50.0769 720.961,-48.7318"/>
<polygon fill="green" stroke="green" stroke-width="0.363839" points="722.766,-45.7326 712.419,-43.4561 719.088,-51.6884 722.766,-45.7326"/>
</g>
<!-- enemy_y&#45;&gt;up -->
<g id="edge22" class="edge"><title>enemy_y&#45;&gt;up</title>
<path fill="none" stroke="green" stroke-width="0.283927" d="M165.145,-168.705C298.529,-166.481 926.553,-154.472 954.385,-125.095 1008.19,-68.2988 851.222,-39.9674 784.167,-30.6953"/>
<polygon fill="green" stroke="green" stroke-width="0.283927" points="784.231,-27.1729 773.856,-29.3223 783.307,-34.1117 784.231,-27.1729"/>
</g>
<!-- enemy_y&#45;&gt;down -->
<g id="edge38" class="edge"><title>enemy_y&#45;&gt;down</title>
<path fill="none" stroke="green" stroke-width="0.50106" stroke-dasharray="1,5" d="M124.861,-160.988C112.418,-153.528 95.8484,-141.188 88.3848,-125.095 81.5089,-110.27 77.8924,-100.855 88.3848,-88.3259 127.225,-41.9474 314.763,-30.7042 394.925,-28.0047"/>
<polygon fill="green" stroke="green" stroke-width="0.50106" points="395.163,-31.4991 405.05,-27.6904 394.946,-24.5025 395.163,-31.4991"/>
</g>
<!-- enemy_y&#45;&gt;right -->
<g id="edge29" class="edge"><title>enemy_y&#45;&gt;right</title>
<path fill="none" stroke="red" stroke-width="0.356473" d="M140.109,-160.91C140.04,-144.333 142.461,-106.803 164.385,-88.3259 216.064,-44.7699 403.938,-78.1777 466.385,-52.3259 468.785,-51.3324 471.155,-50.1057 473.454,-48.733"/>
<polygon fill="red" stroke="red" stroke-width="0.356473" points="475.654,-51.4675 481.888,-42.901 471.672,-45.7101 475.654,-51.4675"/>
</g>
<!-- enemy_y&#45;&gt;select -->
<g id="edge7" class="edge"><title>enemy_y&#45;&gt;select</title>
<path fill="none" stroke="red" stroke-width="0.388763" d="M147.423,-160.94C162.513,-144.075 199.916,-105.505 240.385,-88.3259 359.936,-37.5742 409.457,-99.7052 530.385,-52.3259 532.911,-51.3363 535.423,-50.1223 537.875,-48.7675"/>
<polygon fill="red" stroke="red" stroke-width="0.388763" points="539.811,-51.6844 546.407,-43.3928 536.08,-45.7616 539.811,-51.6844"/>
</g>
<!-- 26 -->
<g id="node19" class="node"><title>26</title>
<ellipse fill="white" stroke="black" cx="18.3848" cy="-106.711" rx="18.2703" ry="18.2703"/>
<text text-anchor="middle" x="18.3848" y="-104.511" font-family="Times,serif" font-size="9.00">26</text>
</g>
<!-- enemy_y&#45;&gt;26 -->
<g id="edge55" class="edge"><title>enemy_y&#45;&gt;26</title>
<path fill="none" stroke="green" stroke-width="0.324902" d="M123.357,-161.039C105.178,-152.375 75.5803,-138.091 50.3848,-125.095 48.0739,-123.904 45.6797,-122.646 43.2886,-121.375"/>
<polygon fill="green" stroke="green" stroke-width="0.324902" points="44.728,-118.174 34.2644,-116.512 41.4075,-124.337 44.728,-118.174"/>
</g>
<!-- player_x_1 -->
<g id="node6" class="node"><title>player_x_1</title>
<polygon fill="lightgray" stroke="black" points="927.385,-115.711 871.385,-115.711 871.385,-97.7107 927.385,-97.7107 927.385,-115.711"/>
<text text-anchor="middle" x="899.385" y="-104.511" font-family="Times,serif" font-size="9.00">player_x_1</text>
</g>
<!-- player_x_1&#45;&gt;attack -->
<g id="edge25" class="edge"><title>player_x_1&#45;&gt;attack</title>
<path fill="none" stroke="red" stroke-width="0.217024" d="M883.802,-97.6392C877.293,-94.4661 869.583,-90.9604 862.385,-88.3259 804.474,-67.1309 784.277,-78.3829 728.385,-52.3259 726.026,-51.2264 723.657,-49.9729 721.321,-48.626"/>
<polygon fill="red" stroke="red" stroke-width="0.217024" points="722.899,-45.4826 712.577,-43.0963 719.158,-51.399 722.899,-45.4826"/>
</g>
<!-- player_x_1&#45;&gt;up -->
<g id="edge40" class="edge"><title>player_x_1&#45;&gt;up</title>
<path fill="none" stroke="green" stroke-width="0.428478" d="M884.517,-97.6005C859.877,-84.1603 810.323,-57.1302 780.277,-40.7409"/>
<polygon fill="green" stroke="green" stroke-width="0.428478" points="781.718,-37.5403 771.263,-35.8242 778.366,-43.6855 781.718,-37.5403"/>
</g>
<!-- player_x_1&#45;&gt;down -->
<g id="edge63" class="edge"><title>player_x_1&#45;&gt;down</title>
<path fill="none" stroke="green" stroke-width="0.275687" d="M885.069,-97.5535C878.385,-94.1238 870.193,-90.4446 862.385,-88.3259 691.826,-42.0479 631.968,-114.084 466.385,-52.3259 464.22,-51.5184 462.068,-50.5397 459.958,-49.4428"/>
<polygon fill="green" stroke="green" stroke-width="0.275687" points="461.423,-46.238 451.058,-44.0416 457.791,-52.2221 461.423,-46.238"/>
</g>
<!-- player_x_1&#45;&gt;left -->
<g id="edge8" class="edge"><title>player_x_1&#45;&gt;left</title>
<path fill="none" stroke="green" stroke-width="0.273293" d="M884.628,-97.6739C877.993,-94.352 869.963,-90.7246 862.385,-88.3259 774.192,-60.4112 740.911,-92.0834 657.385,-52.3259 654.586,-50.9937 651.847,-49.3153 649.239,-47.4604"/>
<polygon fill="green" stroke="green" stroke-width="0.273293" points="651.411,-44.716 641.438,-41.1412 647.005,-50.1553 651.411,-44.716"/>
</g>
<!-- player_x_1&#45;&gt;right -->
<g id="edge30" class="edge"><title>player_x_1&#45;&gt;right</title>
<path fill="none" stroke="red" stroke-width="0.139279" d="M885.052,-97.6172C878.364,-94.2003 870.174,-90.5136 862.385,-88.3259 719.918,-48.3151 668.813,-107.2 531.385,-52.3259 528.687,-51.2489 526.021,-49.8871 523.443,-48.3569"/>
<polygon fill="red" stroke="red" stroke-width="0.139279" points="525.337,-45.412 515.102,-42.675 521.396,-51.1973 525.337,-45.412"/>
</g>
<!-- player_x_1&#45;&gt;select -->
<g id="edge47" class="edge"><title>player_x_1&#45;&gt;select</title>
<path fill="none" stroke="green" stroke-width="0.197479" d="M884.669,-97.5375C878.042,-94.1904 870.007,-90.581 862.385,-88.3259 749.253,-54.8564 708.657,-96.8068 599.385,-52.3259 597.23,-51.4486 595.087,-50.4029 592.987,-49.244"/>
<polygon fill="green" stroke="green" stroke-width="0.197479" points="594.459,-46.0317 584.144,-43.6092 590.697,-51.935 594.459,-46.0317"/>
</g>
<!-- player_y_1 -->
<g id="node7" class="node"><title>player_y_1</title>
<polygon fill="lightgray" stroke="black" points="1021.38,-179.095 965.385,-179.095 965.385,-161.095 1021.38,-161.095 1021.38,-179.095"/>
<text text-anchor="middle" x="993.385" y="-167.895" font-family="Times,serif" font-size="9.00">player_y_1</text>
</g>
<!-- player_y_1&#45;&gt;attack -->
<g id="edge13" class="edge"><title>player_y_1&#45;&gt;attack</title>
<path fill="none" stroke="red" stroke-width="0.273869" d="M998.658,-160.826C1008.18,-144.753 1025.62,-109.06 1007.38,-88.3259 966.106,-41.3785 786.687,-74.8841 728.385,-52.3259 725.871,-51.3534 723.366,-50.1698 720.913,-48.8519"/>
<polygon fill="red" stroke="red" stroke-width="0.273869" points="722.71,-45.8478 712.35,-43.6285 719.065,-51.8239 722.71,-45.8478"/>
</g>
<!-- player_y_1&#45;&gt;up -->
<g id="edge66" class="edge"><title>player_y_1&#45;&gt;up</title>
<path fill="none" stroke="red" stroke-width="0.220953" stroke-dasharray="1,5" d="M1021.41,-170.006C1056.23,-169.426 1114.45,-162.472 1142.38,-125.095 1152.17,-112.005 1153,-100.751 1142.38,-88.3259 1095.98,-34.0058 865.144,-27.6495 783.807,-27.1173"/>
<polygon fill="red" stroke="red" stroke-width="0.220953" points="783.799,-23.6173 773.785,-27.077 783.771,-30.6173 783.799,-23.6173"/>
</g>
<!-- player_y_1&#45;&gt;down -->
<g id="edge50" class="edge"><title>player_y_1&#45;&gt;down</title>
<path fill="none" stroke="green" stroke-width="0.465187" d="M965.284,-168.501C832.625,-165.56 274.402,-151.636 249.385,-125.095 201.844,-74.6598 329.67,-44.5789 395.282,-32.8509"/>
<polygon fill="green" stroke="green" stroke-width="0.465187" points="395.986,-36.2812 405.242,-31.1259 394.791,-29.3839 395.986,-36.2812"/>
</g>
<!-- player_y_1&#45;&gt;left -->
<g id="edge34" class="edge"><title>player_y_1&#45;&gt;left</title>
<path fill="none" stroke="red" stroke-width="0.292822" d="M990.312,-160.983C983.488,-144.199 965.345,-105.775 936.385,-88.3259 829.294,-23.7996 771.47,-103.478 657.385,-52.3259 654.556,-51.0578 651.799,-49.4201 649.179,-47.589"/>
<polygon fill="red" stroke="red" stroke-width="0.292822" points="651.35,-44.843 641.366,-41.2961 646.959,-50.2946 651.35,-44.843"/>
</g>
<!-- player_y_1&#45;&gt;right -->
<g id="edge5" class="edge"><title>player_y_1&#45;&gt;right</title>
<path fill="none" stroke="red" stroke-width="0.186338" d="M965.302,-168.473C833.998,-165.429 285.96,-151.192 261.385,-125.095 250.181,-113.198 250.876,-100.841 261.385,-88.3259 320.871,-17.4834 381.923,-90.0541 466.385,-52.3259 468.756,-51.2666 471.106,-49.9929 473.392,-48.5881"/>
<polygon fill="red" stroke="red" stroke-width="0.186338" points="475.619,-51.3018 481.8,-42.6972 471.602,-45.5688 475.619,-51.3018"/>
</g>
<!-- player_y_1&#45;&gt;select -->
<g id="edge59" class="edge"><title>player_y_1&#45;&gt;select</title>
<path fill="none" stroke="red" stroke-width="0.203029" d="M965.33,-168.445C835.413,-165.297 297.519,-150.749 273.385,-125.095 262.187,-113.193 262.661,-100.657 273.385,-88.3259 311.229,-44.8114 476.857,-73.7833 530.385,-52.3259 532.903,-51.3165 535.41,-50.0884 537.858,-48.7238"/>
<polygon fill="red" stroke="red" stroke-width="0.203029" points="539.803,-51.6351 546.382,-43.331 536.06,-45.7194 539.803,-51.6351"/>
</g>
<!-- 15 -->
<g id="node18" class="node"><title>15</title>
<ellipse fill="white" stroke="black" cx="1115.38" cy="-106.711" rx="18.2703" ry="18.2703"/>
<text text-anchor="middle" x="1115.38" y="-104.511" font-family="Times,serif" font-size="9.00">15</text>
</g>
<!-- player_y_1&#45;&gt;15 -->
<g id="edge32" class="edge"><title>player_y_1&#45;&gt;15</title>
<path fill="none" stroke="green" stroke-width="0.279023" d="M1010.41,-161.039C1028.59,-152.375 1058.19,-138.091 1083.38,-125.095 1085.7,-123.904 1088.09,-122.646 1090.48,-121.375"/>
<polygon fill="green" stroke="green" stroke-width="0.279023" points="1092.36,-124.337 1099.51,-116.512 1089.04,-118.174 1092.36,-124.337"/>
</g>
<!-- player_x_2 -->
<g id="node8" class="node"><title>player_x_2</title>
<polygon fill="lightgray" stroke="black" points="338.385,-115.711 282.385,-115.711 282.385,-97.7107 338.385,-97.7107 338.385,-115.711"/>
<text text-anchor="middle" x="310.385" y="-104.511" font-family="Times,serif" font-size="9.00">player_x_2</text>
</g>
<!-- player_x_2&#45;&gt;attack -->
<g id="edge69" class="edge"><title>player_x_2&#45;&gt;attack</title>
<path fill="none" stroke="red" stroke-width="0.219062" d="M324.725,-97.6433C331.415,-94.2317 339.603,-90.5419 347.385,-88.3259 480.785,-50.3373 528.041,-102.415 657.385,-52.3259 659.539,-51.4915 661.684,-50.4923 663.788,-49.3803"/>
<polygon fill="red" stroke="red" stroke-width="0.219062" points="665.971,-52.1481 672.674,-43.9432 662.317,-46.1772 665.971,-52.1481"/>
</g>
<!-- player_x_2&#45;&gt;up -->
<g id="edge17" class="edge"><title>player_x_2&#45;&gt;up</title>
<path fill="none" stroke="red" stroke-width="0.100712" d="M324.704,-97.5672C331.389,-94.1403 339.58,-90.4594 347.385,-88.3259 511.025,-43.5915 572.022,-120.456 727.385,-52.3259 730.437,-50.9873 733.385,-49.1833 736.148,-47.1526"/>
<polygon fill="red" stroke="red" stroke-width="0.100712" points="738.47,-49.7721 743.806,-40.6186 733.927,-44.4471 738.47,-49.7721"/>
</g>
<!-- player_x_2&#45;&gt;down -->
<g id="edge36" class="edge"><title>player_x_2&#45;&gt;down</title>
<path fill="none" stroke="red" stroke-width="0.389708" d="M322.878,-97.6005C341.243,-85.6792 376.077,-63.066 401.335,-46.67"/>
<polygon fill="red" stroke="red" stroke-width="0.389708" points="403.345,-49.5382 409.827,-41.1576 399.533,-43.6669 403.345,-49.5382"/>
</g>
<!-- player_x_2&#45;&gt;left -->
<g id="edge61" class="edge"><title>player_x_2&#45;&gt;left</title>
<path fill="none" stroke="green" stroke-width="0.284843" d="M325.106,-97.5587C331.735,-94.2155 339.769,-90.6033 347.385,-88.3259 455.779,-55.9122 496.466,-99.313 599.385,-52.3259 602.204,-51.0386 604.957,-49.3887 607.573,-47.5505"/>
<polygon fill="green" stroke="green" stroke-width="0.284843" points="609.797,-50.2529 615.382,-41.2498 605.402,-44.8049 609.797,-50.2529"/>
</g>
<!-- player_x_2&#45;&gt;right -->
<g id="edge18" class="edge"><title>player_x_2&#45;&gt;right</title>
<path fill="none" stroke="red" stroke-width="0.183408" d="M326.373,-97.5761C332.811,-94.4658 340.361,-91.0219 347.385,-88.3259 398.971,-68.5245 417.375,-77.8451 466.385,-52.3259 468.634,-51.1549 470.881,-49.818 473.082,-48.3846"/>
<polygon fill="red" stroke="red" stroke-width="0.183408" points="475.167,-51.1964 481.255,-42.5253 471.089,-45.5073 475.167,-51.1964"/>
</g>
<!-- player_x_2&#45;&gt;select -->
<g id="edge41" class="edge"><title>player_x_2&#45;&gt;select</title>
<path fill="none" stroke="green" stroke-width="0.100073" d="M325.522,-97.5696C332.091,-94.3093 339.966,-90.7576 347.385,-88.3259 426.153,-62.5072 454.322,-85.275 530.385,-52.3259 532.874,-51.2476 535.36,-49.9701 537.794,-48.5714"/>
<polygon fill="green" stroke="green" stroke-width="0.100073" points="539.768,-51.4632 546.292,-43.1153 535.986,-45.5728 539.768,-51.4632"/>
</g>
<!-- player_y_2 -->
<g id="node9" class="node"><title>player_y_2</title>
<polygon fill="lightgray" stroke="black" points="412.385,-115.711 356.385,-115.711 356.385,-97.7107 412.385,-97.7107 412.385,-115.711"/>
<text text-anchor="middle" x="384.385" y="-104.511" font-family="Times,serif" font-size="9.00">player_y_2</text>
</g>
<!-- player_y_2&#45;&gt;attack -->
<g id="edge48" class="edge"><title>player_y_2&#45;&gt;attack</title>
<path fill="none" stroke="red" stroke-width="0.12448" d="M399.117,-97.5929C405.747,-94.2561 413.78,-90.6394 421.385,-88.3259 522.894,-57.4463 559.143,-92.4046 657.385,-52.3259 659.524,-51.4531 661.657,-50.4248 663.753,-49.2912"/>
<polygon fill="red" stroke="red" stroke-width="0.12448" points="665.958,-52.0426 672.618,-43.803 662.273,-46.0908 665.958,-52.0426"/>
</g>
<!-- player_y_2&#45;&gt;up -->
<g id="edge31" class="edge"><title>player_y_2&#45;&gt;up</title>
<path fill="none" stroke="green" stroke-width="0.524705" d="M398.727,-97.6487C405.417,-94.2382 413.605,-90.5477 421.385,-88.3259 553.059,-50.7223 602.606,-108.738 727.385,-52.3259 730.422,-50.9528 733.36,-49.1281 736.119,-47.0863"/>
<polygon fill="green" stroke="green" stroke-width="0.524705" points="738.445,-49.7019 743.772,-40.5437 733.897,-44.381 738.445,-49.7019"/>
</g>
<!-- player_y_2&#45;&gt;down -->
<g id="edge10" class="edge"><title>player_y_2&#45;&gt;down</title>
<path fill="none" stroke="red" stroke-width="0.396884" d="M389.238,-97.6005C394.87,-88.1872 404.492,-72.1074 413.121,-57.6861"/>
<polygon fill="red" stroke="red" stroke-width="0.396884" points="416.19,-59.3739 418.321,-48.9956 410.183,-55.7796 416.19,-59.3739"/>
</g>
<!-- player_y_2&#45;&gt;left -->
<g id="edge24" class="edge"><title>player_y_2&#45;&gt;left</title>
<path fill="none" stroke="green" stroke-width="0.222777" d="M399.529,-97.5888C406.099,-94.3318 413.973,-90.7773 421.385,-88.3259 498.016,-62.9823 526.959,-87.9494 599.385,-52.3259 602.166,-50.9579 604.894,-49.2566 607.496,-47.3883"/>
<polygon fill="green" stroke="green" stroke-width="0.222777" points="609.736,-50.0774 615.29,-41.0544 605.322,-44.645 609.736,-50.0774"/>
</g>
<!-- player_y_2&#45;&gt;right -->
<g id="edge54" class="edge"><title>player_y_2&#45;&gt;right</title>
<path fill="none" stroke="red" stroke-width="0.182338" d="M397.692,-97.5584C414.118,-87.3804 442.772,-69.2448 466.385,-52.3259 468.446,-50.8492 470.558,-49.2921 472.665,-47.7064"/>
<polygon fill="red" stroke="red" stroke-width="0.182338" points="474.868,-50.428 480.66,-41.5566 470.6,-44.8796 474.868,-50.428"/>
</g>
<!-- player_y_2&#45;&gt;select -->
<g id="edge39" class="edge"><title>player_y_2&#45;&gt;select</title>
<path fill="none" stroke="red" stroke-width="0.344228" d="M400.409,-97.6671C406.851,-94.5694 414.396,-91.1103 421.385,-88.3259 468.78,-69.4439 484.925,-75.4842 530.385,-52.3259 532.66,-51.1667 534.951,-49.8694 537.213,-48.4914"/>
<polygon fill="red" stroke="red" stroke-width="0.344228" points="539.274,-51.3247 545.696,-42.8984 535.421,-45.4805 539.274,-51.3247"/>
</g>
<!-- distance_1 -->
<g id="node10" class="node"><title>distance_1</title>
<polygon fill="lightgray" stroke="black" points="484.385,-115.711 430.385,-115.711 430.385,-97.7107 484.385,-97.7107 484.385,-115.711"/>
<text text-anchor="middle" x="457.385" y="-104.511" font-family="Times,serif" font-size="9.00">distance_1</text>
</g>
<!-- distance_1&#45;&gt;attack -->
<g id="edge35" class="edge"><title>distance_1&#45;&gt;attack</title>
<path fill="none" stroke="green" stroke-width="0.319927" d="M472.116,-97.6319C478.508,-94.3821 486.169,-90.8214 493.385,-88.3259 563.91,-63.9339 589.237,-82.7347 657.385,-52.3259 659.495,-51.3843 661.605,-50.3039 663.685,-49.1317"/>
<polygon fill="green" stroke="green" stroke-width="0.319927" points="665.929,-51.854 672.511,-43.552 662.188,-45.9372 665.929,-51.854"/>
</g>
<!-- distance_1&#45;&gt;up -->
<g id="edge51" class="edge"><title>distance_1&#45;&gt;up</title>
<path fill="none" stroke="green" stroke-width="0.421923" d="M471.696,-97.5864C478.143,-94.2484 485.961,-90.6325 493.385,-88.3259 593.869,-57.103 632.29,-97.3699 727.385,-52.3259 730.397,-50.899 733.32,-49.042 736.071,-46.9829"/>
<polygon fill="green" stroke="green" stroke-width="0.421923" points="738.404,-49.5927 743.718,-40.427 733.848,-44.2781 738.404,-49.5927"/>
</g>
<!-- distance_1&#45;&gt;down -->
<g id="edge3" class="edge"><title>distance_1&#45;&gt;down</title>
<path fill="none" stroke="red" stroke-width="0.290144" d="M454.7,-97.6005C451.819,-88.8952 447.05,-74.4885 442.573,-60.9647"/>
<polygon fill="red" stroke="red" stroke-width="0.290144" points="445.862,-59.761 439.397,-51.3674 439.216,-61.9607 445.862,-59.761"/>
</g>
<!-- distance_1&#45;&gt;left -->
<g id="edge20" class="edge"><title>distance_1&#45;&gt;left</title>
<path fill="none" stroke="green" stroke-width="0.451527" d="M472.967,-97.6707C479.234,-94.5735 486.576,-91.1137 493.385,-88.3259 539.428,-69.4726 556.233,-77.0924 599.385,-52.3259 601.932,-50.8639 604.462,-49.1597 606.904,-47.34"/>
<polygon fill="green" stroke="green" stroke-width="0.451527" points="609.256,-49.938 614.772,-40.8924 604.819,-44.5238 609.256,-49.938"/>
</g>
<!-- distance_1&#45;&gt;right -->
<g id="edge27" class="edge"><title>distance_1&#45;&gt;right</title>
<path fill="none" stroke="red" stroke-width="0.155017" d="M461.618,-97.6005C466.653,-87.9544 475.342,-71.3082 483.009,-56.6197"/>
<polygon fill="red" stroke="red" stroke-width="0.155017" points="486.327,-57.8277 487.851,-47.3431 480.121,-54.5885 486.327,-57.8277"/>
</g>
<!-- distance_1&#45;&gt;select -->
<g id="edge44" class="edge"><title>distance_1&#45;&gt;select</title>
<path fill="none" stroke="green" stroke-width="0.340544" d="M468.536,-97.6005C484.497,-85.9918 514.399,-64.2448 536.772,-47.9726"/>
<polygon fill="green" stroke="green" stroke-width="0.340544" points="538.905,-50.7492 544.934,-42.0367 534.788,-45.0881 538.905,-50.7492"/>
</g>
<!-- distance_2 -->
<g id="node11" class="node"><title>distance_2</title>
<polygon fill="lightgray" stroke="black" points="556.385,-115.711 502.385,-115.711 502.385,-97.7107 556.385,-97.7107 556.385,-115.711"/>
<text text-anchor="middle" x="529.385" y="-104.511" font-family="Times,serif" font-size="9.00">distance_2</text>
</g>
<!-- distance_2&#45;&gt;attack -->
<g id="edge23" class="edge"><title>distance_2&#45;&gt;attack</title>
<path fill="none" stroke="red" stroke-width="0.224346" d="M545.861,-97.6995C552.233,-94.6727 559.609,-91.2544 566.385,-88.3259 606.309,-71.0694 619.215,-73.1789 657.385,-52.3259 659.413,-51.2181 661.46,-50.0115 663.494,-48.746"/>
<polygon fill="red" stroke="red" stroke-width="0.224346" points="665.824,-51.3991 672.21,-42.9451 661.946,-45.5716 665.824,-51.3991"/>
</g>
<!-- distance_2&#45;&gt;up -->
<g id="edge6" class="edge"><title>distance_2&#45;&gt;up</title>
<path fill="none" stroke="green" stroke-width="0.320236" d="M544.554,-97.6626C551.128,-94.418 558.998,-90.8529 566.385,-88.3259 635.76,-64.593 662.214,-85.9265 727.385,-52.3259 730.199,-50.8752 732.95,-49.0726 735.562,-47.1033"/>
<polygon fill="green" stroke="green" stroke-width="0.320236" points="738,-49.6237 743.336,-40.4704 733.457,-44.2986 738,-49.6237"/>
</g>
<!-- distance_2&#45;&gt;down -->
<g id="edge60" class="edge"><title>distance_2&#45;&gt;down</title>
<path fill="none" stroke="red" stroke-width="0.315939" d="M519.266,-97.6005C505.254,-86.3697 479.403,-65.6498 459.352,-49.5785"/>
<polygon fill="red" stroke="red" stroke-width="0.315939" points="461.432,-46.7605 451.44,-43.2374 457.054,-52.2226 461.432,-46.7605"/>
</g>
<!-- distance_2&#45;&gt;left -->
<g id="edge45" class="edge"><title>distance_2&#45;&gt;left</title>
<path fill="none" stroke="green" stroke-width="0.1516" d="M540.463,-97.599C554.405,-87.3138 578.996,-68.919 599.385,-52.3259 601.663,-50.472 604.016,-48.5108 606.35,-46.5342"/>
<polygon fill="green" stroke="green" stroke-width="0.1516" points="608.78,-49.061 614.082,-39.888 604.217,-43.7528 608.78,-49.061"/>
</g>
<!-- distance_2&#45;&gt;right -->
<g id="edge28" class="edge"><title>distance_2&#45;&gt;right</title>
<path fill="none" stroke="red" stroke-width="0.214337" d="M526.184,-97.6005C522.489,-88.2374 516.19,-72.2788 510.522,-57.9171"/>
<polygon fill="red" stroke="red" stroke-width="0.214337" points="513.665,-56.3471 506.739,-48.3302 507.154,-58.9169 513.665,-56.3471"/>
</g>
<!-- distance_2&#45;&gt;select -->
<g id="edge14" class="edge"><title>distance_2&#45;&gt;select</title>
<path fill="none" stroke="red" stroke-width="0.195414" stroke-dasharray="1,5" d="M533.102,-97.6005C537.276,-88.4922 544.311,-73.1424 550.751,-59.0928"/>
<polygon fill="red" stroke="red" stroke-width="0.195414" points="554.086,-60.2156 555.071,-49.6666 547.723,-57.2991 554.086,-60.2156"/>
</g>
<!-- 15&#45;&gt;up -->
<g id="edge11" class="edge"><title>15&#45;&gt;up</title>
<path fill="none" stroke="green" stroke-width="0.121916" d="M1100.21,-96.2053C1095.03,-93.308 1089.1,-90.3558 1083.38,-88.3259 976.712,-50.4704 841.782,-34.7698 783.885,-29.4582"/>
<polygon fill="green" stroke="green" stroke-width="0.121916" points="783.948,-25.9502 773.679,-28.5575 783.332,-32.9231 783.948,-25.9502"/>
</g>
<!-- 26&#45;&gt;down -->
<g id="edge52" class="edge"><title>26&#45;&gt;down</title>
<path fill="none" stroke="green" stroke-width="0.568174" d="M33.5271,-96.1208C38.7033,-93.2178 44.6396,-90.2836 50.3848,-88.3259 172.274,-46.791 325.92,-33.1469 394.916,-28.9263"/>
<polygon fill="green" stroke="green" stroke-width="0.568174" points="395.464,-32.4005 405.245,-28.327 395.059,-25.4123 395.464,-32.4005"/>
</g>
</g>
</svg>
