<?xml version="1.0" encoding="UTF-8" standalone="no"?>
<!DOCTYPE svg PUBLIC "-//W3C//DTD SVG 1.1//EN"
 "http://www.w3.org/Graphics/SVG/1.1/DTD/svg11.dtd">
<!-- Generated by graphviz version 2.38.0 (20140413.2041)
 -->
<!-- Title: %3 Pages: 1 -->
<svg width="2006pt" height="344pt"
 viewBox="0.00 0.00 2005.54 343.95" xmlns="http://www.w3.org/2000/svg" xmlns:xlink="http://www.w3.org/1999/xlink">
<g id="graph0" class="graph" transform="scale(1 1) rotate(0) translate(4 339.948)">
<title>%3</title>
<polygon fill="white" stroke="none" points="-4,4 -4,-339.948 2001.54,-339.948 2001.54,4 -4,4"/>
<!-- enemy_hp -->
<g id="node1" class="node"><title>enemy_hp</title>
<polygon fill="lightgray" stroke="black" points="1295.69,-269.735 1242.69,-269.735 1242.69,-251.735 1295.69,-251.735 1295.69,-269.735"/>
<text text-anchor="middle" x="1269.19" y="-258.535" font-family="Times,serif" font-size="9.00">enemy_hp</text>
</g>
<!-- attack -->
<g id="node12" class="node"><title>attack</title>
<ellipse fill="lightblue" stroke="black" cx="1182.19" cy="-98.9325" rx="26.3269" ry="26.3269"/>
<text text-anchor="middle" x="1182.19" y="-96.7325" font-family="Times,serif" font-size="9.00">attack</text>
</g>
<!-- enemy_hp&#45;&gt;attack -->
<g id="edge3" class="edge"><title>enemy_hp&#45;&gt;attack</title>
<path fill="none" stroke="green" stroke-width="0.652216" d="M1268.72,-251.505C1267.4,-233.829 1262.51,-191.389 1245.19,-161.095 1236.56,-146.006 1223.12,-132.225 1210.87,-121.58"/>
<polygon fill="green" stroke="green" stroke-width="0.652216" points="1212.97,-118.775 1203.05,-115.055 1208.48,-124.149 1212.97,-118.775"/>
</g>
<!-- up -->
<g id="node13" class="node"><title>up</title>
<ellipse fill="lightblue" stroke="black" cx="808.191" cy="-18.3848" rx="18.2703" ry="18.2703"/>
<text text-anchor="middle" x="808.191" y="-16.1848" font-family="Times,serif" font-size="9.00">up</text>
</g>
<!-- enemy_hp&#45;&gt;up -->
<g id="edge58" class="edge"><title>enemy_hp&#45;&gt;up</title>
<path fill="none" stroke="green" stroke-width="0.421163" d="M1295.96,-259.322C1333.4,-257.125 1400.3,-246.942 1431.19,-203.522 1459.36,-163.925 1394.46,-75.0991 1391.19,-72.7696 1345.61,-40.3353 947.211,-24.2037 836.579,-20.3233"/>
<polygon fill="green" stroke="green" stroke-width="0.421163" points="836.622,-16.8228 826.507,-19.9763 836.381,-23.8187 836.622,-16.8228"/>
</g>
<!-- down -->
<g id="node14" class="node"><title>down</title>
<ellipse fill="lightblue" stroke="black" cx="426.191" cy="-98.9325" rx="26.3269" ry="26.3269"/>
<text text-anchor="middle" x="426.191" y="-96.7325" font-family="Times,serif" font-size="9.00">down</text>
</g>
<!-- enemy_hp&#45;&gt;down -->
<g id="edge75" class="edge"><title>enemy_hp&#45;&gt;down</title>
<path fill="none" stroke="green" stroke-width="0.174331" d="M1242.68,-257.804C1192.06,-254.13 1078.13,-245.93 982.191,-239.522 918.872,-235.293 455.626,-249.787 412.191,-203.522 394.475,-184.652 400.844,-154.654 409.961,-131.786"/>
<polygon fill="green" stroke="green" stroke-width="0.174331" points="413.23,-133.043 413.974,-122.474 406.802,-130.272 413.23,-133.043"/>
</g>
<!-- left -->
<g id="node15" class="node"><title>left</title>
<ellipse fill="lightblue" stroke="black" cx="506.191" cy="-98.9325" rx="19.6" ry="19.6"/>
<text text-anchor="middle" x="506.191" y="-96.7325" font-family="Times,serif" font-size="9.00">left</text>
</g>
<!-- enemy_hp&#45;&gt;left -->
<g id="edge42" class="edge"><title>enemy_hp&#45;&gt;left</title>
<path fill="none" stroke="green" stroke-width="0.430471" stroke-dasharray="1,5" d="M1242.34,-257.833C1105.16,-248.112 489.014,-204.406 488.191,-203.522 468.736,-182.617 479.782,-148.576 491.315,-125.261"/>
<polygon fill="green" stroke="green" stroke-width="0.430471" points="494.472,-126.777 496.031,-116.298 488.277,-123.518 494.472,-126.777"/>
</g>
<!-- right -->
<g id="node16" class="node"><title>right</title>
<ellipse fill="lightblue" stroke="black" cx="926.191" cy="-98.9325" rx="23.1702" ry="23.1702"/>
<text text-anchor="middle" x="926.191" y="-96.7325" font-family="Times,serif" font-size="9.00">right</text>
</g>
<!-- enemy_hp&#45;&gt;right -->
<g id="edge34" class="edge"><title>enemy_hp&#45;&gt;right</title>
<path fill="none" stroke="red" stroke-width="0.375485" d="M1242.55,-257.181C1199.05,-252.13 1110.99,-238.187 1045.19,-203.522 1020,-190.251 1018.77,-179.664 997.191,-161.095 978.296,-144.841 973.018,-141.428 954.191,-125.095 953.049,-124.105 951.885,-123.088 950.712,-122.058"/>
<polygon fill="red" stroke="red" stroke-width="0.375485" points="952.787,-119.219 942.985,-115.198 948.139,-124.454 952.787,-119.219"/>
</g>
<!-- select -->
<g id="node17" class="node"><title>select</title>
<ellipse fill="lightblue" stroke="black" cx="1357.19" cy="-98.9325" rx="25.4118" ry="25.4118"/>
<text text-anchor="middle" x="1357.19" y="-96.7325" font-family="Times,serif" font-size="9.00">select</text>
</g>
<!-- enemy_hp&#45;&gt;select -->
<g id="edge53" class="edge"><title>enemy_hp&#45;&gt;select</title>
<path fill="none" stroke="red" stroke-width="0.182104" d="M1295.94,-257.996C1329.79,-254.193 1386.85,-242.081 1413.19,-203.522 1431.32,-176.98 1406.06,-143.967 1383.86,-122.442"/>
<polygon fill="red" stroke="red" stroke-width="0.182104" points="1386.23,-119.86 1376.52,-115.609 1381.46,-124.984 1386.23,-119.86"/>
</g>
<!-- 57 -->
<g id="node26" class="node"><title>57</title>
<ellipse fill="white" stroke="black" cx="1315.19" cy="-182.309" rx="18.2703" ry="18.2703"/>
<text text-anchor="middle" x="1315.19" y="-180.109" font-family="Times,serif" font-size="9.00">57</text>
</g>
<!-- enemy_hp&#45;&gt;57 -->
<g id="edge12" class="edge"><title>enemy_hp&#45;&gt;57</title>
<path fill="none" stroke="green" stroke-width="0.293175" d="M1274.11,-251.556C1280.41,-241.096 1291.59,-222.527 1300.69,-207.396"/>
<polygon fill="green" stroke="green" stroke-width="0.293175" points="1303.88,-208.895 1306.03,-198.522 1297.88,-205.285 1303.88,-208.895"/>
</g>
<!-- player_hp_1 -->
<g id="node2" class="node"><title>player_hp_1</title>
<polygon fill="lightgray" stroke="black" points="799.691,-191.309 738.691,-191.309 738.691,-173.309 799.691,-173.309 799.691,-191.309"/>
<text text-anchor="middle" x="769.191" y="-180.109" font-family="Times,serif" font-size="9.00">player_hp_1</text>
</g>
<!-- player_hp_1&#45;&gt;attack -->
<g id="edge13" class="edge"><title>player_hp_1&#45;&gt;attack</title>
<path fill="none" stroke="red" stroke-width="0.202711" d="M782.091,-173.305C789.48,-169.063 799.07,-164.119 808.191,-161.095 870.796,-140.339 1064.75,-114.578 1145.9,-104.384"/>
<polygon fill="red" stroke="red" stroke-width="0.202711" points="1146.64,-107.819 1156.13,-103.107 1145.77,-100.873 1146.64,-107.819"/>
</g>
<!-- player_hp_1&#45;&gt;up -->
<g id="edge77" class="edge"><title>player_hp_1&#45;&gt;up</title>
<path fill="none" stroke="red" stroke-width="0.849233" d="M771.178,-173.056C776.754,-149.905 792.726,-83.5936 801.76,-46.082"/>
<polygon fill="red" stroke="red" stroke-width="0.849233" points="805.171,-46.8669 804.11,-36.3253 798.366,-45.2277 805.171,-46.8669"/>
</g>
<!-- player_hp_1&#45;&gt;down -->
<g id="edge51" class="edge"><title>player_hp_1&#45;&gt;down</title>
<path fill="none" stroke="red" stroke-width="0.711506" d="M755.956,-173.242C748.378,-168.981 738.542,-164.039 729.191,-161.095 621.272,-127.132 585.27,-158.543 477.191,-125.095 470.6,-123.056 463.808,-120.255 457.415,-117.26"/>
<polygon fill="red" stroke="red" stroke-width="0.711506" points="458.919,-114.1 448.404,-112.801 455.814,-120.373 458.919,-114.1"/>
</g>
<!-- player_hp_1&#45;&gt;left -->
<g id="edge46" class="edge"><title>player_hp_1&#45;&gt;left</title>
<path fill="none" stroke="green" stroke-width="0.141403" d="M755.066,-173.297C747.548,-169.259 738.048,-164.509 729.191,-161.095 661.534,-135.025 578.347,-115.297 535.217,-105.939"/>
<polygon fill="green" stroke="green" stroke-width="0.141403" points="535.908,-102.508 525.397,-103.838 534.444,-109.353 535.908,-102.508"/>
</g>
<!-- player_hp_1&#45;&gt;right -->
<g id="edge48" class="edge"><title>player_hp_1&#45;&gt;right</title>
<path fill="none" stroke="green" stroke-width="0.450529" d="M784.818,-173.208C810.796,-159.744 863.286,-132.537 896.483,-115.331"/>
<polygon fill="green" stroke="green" stroke-width="0.450529" points="898.438,-118.259 905.706,-110.55 895.217,-112.045 898.438,-118.259"/>
</g>
<!-- player_hp_1&#45;&gt;select -->
<g id="edge9" class="edge"><title>player_hp_1&#45;&gt;select</title>
<path fill="none" stroke="red" stroke-width="0.370235" d="M781.661,-173.246C789.067,-168.874 798.817,-163.821 808.191,-161.095 983.413,-110.143 1036.32,-149.26 1217.19,-125.095 1253.11,-120.296 1293.86,-112.73 1322.09,-107.147"/>
<polygon fill="red" stroke="red" stroke-width="0.370235" points="1323.14,-110.506 1332.26,-105.114 1321.77,-103.642 1323.14,-110.506"/>
</g>
<!-- player_hp_2 -->
<g id="node3" class="node"><title>player_hp_2</title>
<polygon fill="lightgray" stroke="black" points="878.691,-191.309 817.691,-191.309 817.691,-173.309 878.691,-173.309 878.691,-191.309"/>
<text text-anchor="middle" x="848.191" y="-180.109" font-family="Times,serif" font-size="9.00">player_hp_2</text>
</g>
<!-- player_hp_2&#45;&gt;attack -->
<g id="edge85" class="edge"><title>player_hp_2&#45;&gt;attack</title>
<path fill="none" stroke="green" stroke-width="0.123115" d="M878.716,-173.871C940.778,-158.751 1081.35,-124.502 1147.08,-108.487"/>
<polygon fill="green" stroke="green" stroke-width="0.123115" points="1148.07,-111.847 1156.96,-106.079 1146.42,-105.046 1148.07,-111.847"/>
</g>
<!-- player_hp_2&#45;&gt;up -->
<g id="edge29" class="edge"><title>player_hp_2&#45;&gt;up</title>
<path fill="none" stroke="green" stroke-width="0.550542" d="M846.152,-173.056C840.433,-149.905 824.052,-83.5936 814.786,-46.082"/>
<polygon fill="green" stroke="green" stroke-width="0.550542" points="818.171,-45.1941 812.375,-36.3253 811.376,-46.8729 818.171,-45.1941"/>
</g>
<!-- player_hp_2&#45;&gt;down -->
<g id="edge65" class="edge"><title>player_hp_2&#45;&gt;down</title>
<path fill="none" stroke="red" stroke-width="0.111363" d="M834.994,-173.12C827.427,-168.821 817.59,-163.881 808.191,-161.095 666.312,-119.047 619.269,-166.465 477.191,-125.095 470.567,-123.167 463.759,-120.416 457.362,-117.436"/>
<polygon fill="red" stroke="red" stroke-width="0.111363" points="458.866,-114.276 448.352,-112.975 455.76,-120.549 458.866,-114.276"/>
</g>
<!-- player_hp_2&#45;&gt;left -->
<g id="edge10" class="edge"><title>player_hp_2&#45;&gt;left</title>
<path fill="none" stroke="red" stroke-width="0.767313" d="M834.524,-173.25C826.976,-169.098 817.306,-164.257 808.191,-161.095 711.53,-127.569 590.744,-110 535.826,-103.257"/>
<polygon fill="red" stroke="red" stroke-width="0.767313" points="536.093,-99.7642 525.748,-102.051 535.261,-106.715 536.093,-99.7642"/>
</g>
<!-- player_hp_2&#45;&gt;right -->
<g id="edge49" class="edge"><title>player_hp_2&#45;&gt;right</title>
<path fill="none" stroke="red" stroke-width="0.483661" d="M855.955,-173.208C866.915,-161.774 887.374,-140.429 903.396,-123.714"/>
<polygon fill="red" stroke="red" stroke-width="0.483661" points="906.001,-126.054 910.394,-116.412 900.948,-121.21 906.001,-126.054"/>
</g>
<!-- player_hp_2&#45;&gt;select -->
<g id="edge84" class="edge"><title>player_hp_2&#45;&gt;select</title>
<path fill="none" stroke="red" stroke-width="0.279892" d="M878.85,-176.92C942.157,-167.797 1091.89,-145.896 1217.19,-125.095 1252.94,-119.161 1293.71,-111.761 1322,-106.526"/>
<polygon fill="red" stroke="red" stroke-width="0.279892" points="1323,-109.901 1332.19,-104.634 1321.72,-103.018 1323,-109.901"/>
</g>
<!-- enemy_x -->
<g id="node4" class="node"><title>enemy_x</title>
<polygon fill="lightgray" stroke="black" points="653.691,-191.309 604.691,-191.309 604.691,-173.309 653.691,-173.309 653.691,-191.309"/>
<text text-anchor="middle" x="629.191" y="-180.109" font-family="Times,serif" font-size="9.00">enemy_x</text>
</g>
<!-- enemy_x&#45;&gt;attack -->
<g id="edge83" class="edge"><title>enemy_x&#45;&gt;attack</title>
<path fill="none" stroke="green" stroke-width="0.394388" d="M639.889,-173.108C646.072,-168.805 654.191,-163.865 662.191,-161.095 673.683,-157.116 1029.56,-117.025 1145.83,-103.998"/>
<polygon fill="green" stroke="green" stroke-width="0.394388" points="1146.45,-107.45 1156,-102.859 1145.67,-100.493 1146.45,-107.45"/>
</g>
<!-- enemy_x&#45;&gt;up -->
<g id="edge47" class="edge"><title>enemy_x&#45;&gt;up</title>
<path fill="none" stroke="red" stroke-width="0.422367" d="M635.936,-173.155C651.708,-154.339 692.659,-106.883 732.191,-72.7696 748.722,-58.5037 769.031,-44.3921 784.494,-34.2636"/>
<polygon fill="red" stroke="red" stroke-width="0.422367" points="786.471,-37.1536 792.974,-28.7893 782.674,-31.2726 786.471,-37.1536"/>
</g>
<!-- enemy_x&#45;&gt;down -->
<g id="edge8" class="edge"><title>enemy_x&#45;&gt;down</title>
<path fill="none" stroke="green" stroke-width="0.328855" d="M617.294,-173.276C610.934,-169.232 602.853,-164.483 595.191,-161.095 545.041,-138.926 528.166,-145.292 477.191,-125.095 470.986,-122.637 464.503,-119.723 458.32,-116.765"/>
<polygon fill="green" stroke="green" stroke-width="0.328855" points="459.452,-113.421 448.935,-112.139 456.357,-119.699 459.452,-113.421"/>
</g>
<!-- enemy_x&#45;&gt;left -->
<g id="edge63" class="edge"><title>enemy_x&#45;&gt;left</title>
<path fill="none" stroke="green" stroke-width="0.113331" stroke-dasharray="1,5" d="M616.947,-173.208C596.944,-159.975 556.879,-133.467 530.817,-116.225"/>
<polygon fill="green" stroke="green" stroke-width="0.113331" points="532.51,-113.149 522.239,-110.55 528.648,-118.987 532.51,-113.149"/>
</g>
<!-- enemy_x&#45;&gt;right -->
<g id="edge31" class="edge"><title>enemy_x&#45;&gt;right</title>
<path fill="none" stroke="green" stroke-width="0.178965" stroke-dasharray="1,5" d="M640.314,-173.246C646.497,-169.093 654.481,-164.252 662.191,-161.095 741.454,-128.642 841.492,-111.415 892.673,-104.171"/>
<polygon fill="green" stroke="green" stroke-width="0.178965" points="893.397,-107.604 902.827,-102.775 892.444,-100.669 893.397,-107.604"/>
</g>
<!-- enemy_x&#45;&gt;select -->
<g id="edge1" class="edge"><title>enemy_x&#45;&gt;select</title>
<path fill="none" stroke="green" stroke-width="0.31246" d="M639.543,-173.152C645.743,-168.749 653.993,-163.696 662.191,-161.095 779.998,-123.725 1094.51,-140.051 1217.19,-125.095 1253.16,-120.71 1293.9,-113.084 1322.12,-107.373"/>
<polygon fill="green" stroke="green" stroke-width="0.31246" points="1323.19,-110.726 1332.28,-105.289 1321.78,-103.869 1323.19,-110.726"/>
</g>
<!-- enemy_y -->
<g id="node5" class="node"><title>enemy_y</title>
<polygon fill="lightgray" stroke="black" points="720.691,-191.309 671.691,-191.309 671.691,-173.309 720.691,-173.309 720.691,-191.309"/>
<text text-anchor="middle" x="696.191" y="-180.109" font-family="Times,serif" font-size="9.00">enemy_y</text>
</g>
<!-- enemy_y&#45;&gt;attack -->
<g id="edge71" class="edge"><title>enemy_y&#45;&gt;attack</title>
<path fill="none" stroke="red" stroke-width="0.626471" d="M706.907,-173.161C713.096,-168.875 721.215,-163.934 729.191,-161.095 768.275,-147.187 1045.73,-115.194 1146.08,-103.938"/>
<polygon fill="red" stroke="red" stroke-width="0.626471" points="1146.51,-107.413 1156.05,-102.823 1145.73,-100.457 1146.51,-107.413"/>
</g>
<!-- enemy_y&#45;&gt;up -->
<g id="edge15" class="edge"><title>enemy_y&#45;&gt;up</title>
<path fill="none" stroke="red" stroke-width="0.11712" d="M701.899,-173.056C718.419,-149.173 766.711,-79.3537 792.126,-42.6098"/>
<polygon fill="red" stroke="red" stroke-width="0.11712" points="795.251,-44.2442 798.061,-34.0288 789.494,-40.2621 795.251,-44.2442"/>
</g>
<!-- enemy_y&#45;&gt;down -->
<g id="edge88" class="edge"><title>enemy_y&#45;&gt;down</title>
<path fill="none" stroke="green" stroke-width="0.319512" d="M684.74,-173.148C678.373,-168.966 670.147,-164.129 662.191,-161.095 583.923,-131.252 556.563,-151.864 477.191,-125.095 470.867,-122.963 464.327,-120.202 458.126,-117.294"/>
<polygon fill="green" stroke="green" stroke-width="0.319512" points="459.258,-113.95 448.74,-112.671 456.165,-120.229 459.258,-113.95"/>
</g>
<!-- enemy_y&#45;&gt;left -->
<g id="edge38" class="edge"><title>enemy_y&#45;&gt;left</title>
<path fill="none" stroke="green" stroke-width="0.58298" d="M683.548,-173.125C677.262,-169.229 669.469,-164.657 662.191,-161.095 618.805,-139.869 566.078,-120.449 534.375,-109.421"/>
<polygon fill="green" stroke="green" stroke-width="0.58298" points="535.454,-106.09 524.859,-106.143 533.174,-112.709 535.454,-106.09"/>
</g>
<!-- enemy_y&#45;&gt;right -->
<g id="edge20" class="edge"><title>enemy_y&#45;&gt;right</title>
<path fill="none" stroke="green" stroke-width="0.254206" d="M707.713,-173.272C713.88,-169.227 721.724,-164.477 729.191,-161.095 784.739,-135.934 853.552,-117.185 893.406,-107.449"/>
<polygon fill="green" stroke="green" stroke-width="0.254206" points="894.46,-110.796 903.366,-105.057 892.825,-103.989 894.46,-110.796"/>
</g>
<!-- enemy_y&#45;&gt;select -->
<g id="edge57" class="edge"><title>enemy_y&#45;&gt;select</title>
<path fill="none" stroke="red" stroke-width="0.169029" stroke-dasharray="1,5" d="M706.551,-173.179C712.755,-168.785 721.005,-163.732 729.191,-161.095 936.196,-94.4192 1001.43,-152.368 1217.19,-125.095 1253.14,-120.551 1293.88,-112.948 1322.11,-107.286"/>
<polygon fill="red" stroke="red" stroke-width="0.169029" points="1323.17,-110.641 1332.27,-105.222 1321.78,-103.781 1323.17,-110.641"/>
</g>
<!-- player_x_1 -->
<g id="node6" class="node"><title>player_x_1</title>
<polygon fill="lightgray" stroke="black" points="586.191,-191.309 530.191,-191.309 530.191,-173.309 586.191,-173.309 586.191,-191.309"/>
<text text-anchor="middle" x="558.191" y="-180.109" font-family="Times,serif" font-size="9.00">player_x_1</text>
</g>
<!-- player_x_1&#45;&gt;up -->
<g id="edge26" class="edge"><title>player_x_1&#45;&gt;up</title>
<path fill="none" stroke="red" stroke-width="0.513995" d="M565.129,-173.162C582.219,-153.526 628.437,-102.975 676.191,-72.7696 709.721,-51.5611 753.091,-35.9625 780.784,-27.2756"/>
<polygon fill="red" stroke="red" stroke-width="0.513995" points="782.034,-30.5537 790.577,-24.2875 779.991,-23.8584 782.034,-30.5537"/>
</g>
<!-- player_x_1&#45;&gt;down -->
<g id="edge45" class="edge"><title>player_x_1&#45;&gt;down</title>
<path fill="none" stroke="red" stroke-width="0.32379" stroke-dasharray="1,5" d="M545.051,-173.208C524.692,-160.657 484.965,-136.166 457.061,-118.964"/>
<polygon fill="red" stroke="red" stroke-width="0.32379" points="458.806,-115.928 448.457,-113.659 455.132,-121.886 458.806,-115.928"/>
</g>
<!-- player_x_1&#45;&gt;left -->
<g id="edge6" class="edge"><title>player_x_1&#45;&gt;left</title>
<path fill="none" stroke="green" stroke-width="0.530936" d="M553.014,-173.208C545.862,-162.015 532.641,-141.325 522.067,-124.778"/>
<polygon fill="green" stroke="green" stroke-width="0.530936" points="524.854,-122.64 516.52,-116.098 518.956,-126.409 524.854,-122.64"/>
</g>
<!-- player_x_1&#45;&gt;right -->
<g id="edge21" class="edge"><title>player_x_1&#45;&gt;right</title>
<path fill="none" stroke="red" stroke-width="0.308654" d="M570.736,-173.152C577.69,-168.971 586.638,-164.134 595.191,-161.095 699.864,-123.908 831.587,-108.224 892.479,-102.613"/>
<polygon fill="red" stroke="red" stroke-width="0.308654" points="893.008,-106.08 902.66,-101.709 892.389,-99.1071 893.008,-106.08"/>
</g>
<!-- player_x_1&#45;&gt;select -->
<g id="edge80" class="edge"><title>player_x_1&#45;&gt;select</title>
<path fill="none" stroke="red" stroke-width="0.225122" stroke-dasharray="1,5" d="M569.935,-173.137C576.933,-168.728 586.183,-163.675 595.191,-161.095 728.294,-122.979 1079.7,-141.371 1217.19,-125.095 1253.18,-120.835 1293.91,-113.19 1322.13,-107.441"/>
<polygon fill="red" stroke="red" stroke-width="0.225122" points="1323.2,-110.793 1332.29,-105.342 1321.79,-103.937 1323.2,-110.793"/>
</g>
<!-- player_y_1 -->
<g id="node7" class="node"><title>player_y_1</title>
<polygon fill="lightgray" stroke="black" points="973.191,-269.735 917.191,-269.735 917.191,-251.735 973.191,-251.735 973.191,-269.735"/>
<text text-anchor="middle" x="945.191" y="-258.535" font-family="Times,serif" font-size="9.00">player_y_1</text>
</g>
<!-- player_y_1&#45;&gt;attack -->
<g id="edge55" class="edge"><title>player_y_1&#45;&gt;attack</title>
<path fill="none" stroke="red" stroke-width="0.382396" stroke-dasharray="1,5" d="M973.645,-258.123C1036.17,-253.925 1182.34,-240.307 1212.19,-203.522 1229.48,-182.215 1217.14,-151.356 1203.43,-128.864"/>
<polygon fill="red" stroke="red" stroke-width="0.382396" points="1206.33,-126.897 1197.97,-120.391 1200.45,-130.691 1206.33,-126.897"/>
</g>
<!-- player_y_1&#45;&gt;up -->
<g id="edge70" class="edge"><title>player_y_1&#45;&gt;up</title>
<path fill="none" stroke="green" stroke-width="0.840233" d="M917.045,-258.504C813.319,-253.73 456.397,-235.121 417.191,-203.522 388.599,-180.478 397.043,-161.348 391.191,-125.095 387.484,-102.137 375.826,-90.2269 391.191,-72.7696 416.937,-43.5169 689.947,-25.9179 779.742,-20.8875"/>
<polygon fill="green" stroke="green" stroke-width="0.840233" points="779.963,-24.3808 789.755,-20.3364 779.578,-17.3913 779.963,-24.3808"/>
</g>
<!-- player_y_1&#45;&gt;down -->
<g id="edge35" class="edge"><title>player_y_1&#45;&gt;down</title>
<path fill="none" stroke="green" stroke-width="0.197334" d="M916.972,-258.608C815.519,-254.287 473.454,-237.303 439.191,-203.522 421.585,-186.165 419.05,-157.897 420.524,-135.271"/>
<polygon fill="green" stroke="green" stroke-width="0.197334" points="424.037,-135.294 421.482,-125.012 417.067,-134.644 424.037,-135.294"/>
</g>
<!-- player_y_1&#45;&gt;left -->
<g id="edge68" class="edge"><title>player_y_1&#45;&gt;left</title>
<path fill="none" stroke="green" stroke-width="0.351251" d="M917.096,-258.684C816.92,-254.65 481.513,-238.602 450.191,-203.522 427.092,-177.652 459.197,-140.58 483.486,-118.512"/>
<polygon fill="green" stroke="green" stroke-width="0.351251" points="485.807,-121.133 491.018,-111.908 481.191,-115.869 485.807,-121.133"/>
</g>
<!-- player_y_1&#45;&gt;right -->
<g id="edge4" class="edge"><title>player_y_1&#45;&gt;right</title>
<path fill="none" stroke="green" stroke-width="0.112006" d="M944.222,-251.591C941.644,-229.906 934.504,-169.851 930.02,-132.143"/>
<polygon fill="green" stroke="green" stroke-width="0.112006" points="933.488,-131.668 928.832,-122.151 926.537,-132.494 933.488,-131.668"/>
</g>
<!-- player_y_1&#45;&gt;select -->
<g id="edge43" class="edge"><title>player_y_1&#45;&gt;select</title>
<path fill="none" stroke="green" stroke-width="0.100717" d="M973.415,-257.679C1059.75,-251.127 1316,-229.63 1342.19,-203.522 1359.86,-185.912 1362.89,-157.406 1361.9,-134.75"/>
<polygon fill="green" stroke="green" stroke-width="0.100717" points="1365.38,-134.22 1361.18,-124.493 1358.39,-134.716 1365.38,-134.22"/>
</g>
<!-- 303 -->
<g id="node22" class="node"><title>303</title>
<ellipse fill="white" stroke="black" cx="1182.19" cy="-182.309" rx="21.4286" ry="21.4286"/>
<text text-anchor="middle" x="1182.19" y="-180.109" font-family="Times,serif" font-size="9.00">303</text>
</g>
<!-- player_y_1&#45;&gt;303 -->
<g id="edge67" class="edge"><title>player_y_1&#45;&gt;303</title>
<path fill="none" stroke="green" stroke-width="0.309194" d="M973.313,-255.125C1014.09,-247.778 1091.4,-231.329 1152.19,-203.522 1153.76,-202.803 1155.34,-202.006 1156.91,-201.155"/>
<polygon fill="green" stroke="green" stroke-width="0.309194" points="1158.89,-204.047 1165.63,-195.87 1155.26,-198.061 1158.89,-204.047"/>
</g>
<!-- player_x_2 -->
<g id="node8" class="node"><title>player_x_2</title>
<polygon fill="lightgray" stroke="black" points="1743.19,-335.948 1687.19,-335.948 1687.19,-317.948 1743.19,-317.948 1743.19,-335.948"/>
<text text-anchor="middle" x="1715.19" y="-324.748" font-family="Times,serif" font-size="9.00">player_x_2</text>
</g>
<!-- player_x_2&#45;&gt;attack -->
<g id="edge50" class="edge"><title>player_x_2&#45;&gt;attack</title>
<path fill="none" stroke="red" stroke-width="0.352328" d="M1703.15,-317.898C1663.59,-291.756 1533.32,-208.22 1415.19,-161.095 1347.66,-134.154 1264.39,-115.598 1217.91,-106.462"/>
<polygon fill="red" stroke="red" stroke-width="0.352328" points="1218.5,-103.011 1208.02,-104.552 1217.17,-109.884 1218.5,-103.011"/>
</g>
<!-- player_x_2&#45;&gt;up -->
<g id="edge11" class="edge"><title>player_x_2&#45;&gt;up</title>
<path fill="none" stroke="red" stroke-width="0.62136" d="M1731.34,-317.862C1744.39,-310.415 1762.04,-298.081 1771.19,-281.948 1817.43,-200.406 1820.73,-126.895 1744.19,-72.7696 1668.51,-19.2484 986.376,-18.7069 837.008,-19.2371"/>
<polygon fill="red" stroke="red" stroke-width="0.62136" points="836.799,-15.7378 826.813,-19.2781 836.827,-22.7377 836.799,-15.7378"/>
</g>
<!-- player_x_2&#45;&gt;down -->
<g id="edge66" class="edge"><title>player_x_2&#45;&gt;down</title>
<path fill="none" stroke="green" stroke-width="0.716332" d="M1687.01,-325.928C1517.15,-325.674 633.19,-322.402 520.191,-281.948 466.02,-262.555 442.735,-255.078 417.191,-203.522 406.515,-181.976 409.386,-154.806 414.596,-133.698"/>
<polygon fill="green" stroke="green" stroke-width="0.716332" points="418.021,-134.444 417.292,-123.874 411.27,-132.591 418.021,-134.444"/>
</g>
<!-- player_x_2&#45;&gt;left -->
<g id="edge30" class="edge"><title>player_x_2&#45;&gt;left</title>
<path fill="none" stroke="red" stroke-width="0.275765" d="M1687.02,-325.538C1507.02,-322.628 522.775,-302.244 439.191,-203.522 415.36,-175.376 453.898,-138.228 481.686,-116.922"/>
<polygon fill="red" stroke="red" stroke-width="0.275765" points="483.934,-119.612 489.883,-110.845 479.766,-113.988 483.934,-119.612"/>
</g>
<!-- player_x_2&#45;&gt;right -->
<g id="edge86" class="edge"><title>player_x_2&#45;&gt;right</title>
<path fill="none" stroke="green" stroke-width="0.217447" d="M1687.15,-325.629C1612.5,-324.299 1403.04,-317.43 1233.19,-281.948 1125,-259.347 1085.49,-270.006 997.191,-203.522 971.625,-184.272 952.036,-153.043 939.974,-129.9"/>
<polygon fill="green" stroke="green" stroke-width="0.217447" points="943.041,-128.208 935.421,-120.847 936.787,-131.353 943.041,-128.208"/>
</g>
<!-- player_x_2&#45;&gt;select -->
<g id="edge54" class="edge"><title>player_x_2&#45;&gt;select</title>
<path fill="none" stroke="red" stroke-width="0.513571" d="M1722.22,-317.625C1743.54,-291.362 1803.53,-209.15 1762.19,-161.095 1738.13,-133.131 1486.99,-110.316 1392.7,-102.675"/>
<polygon fill="red" stroke="red" stroke-width="0.513571" points="1392.76,-99.1694 1382.52,-101.86 1392.21,-106.147 1392.76,-99.1694"/>
</g>
<!-- 75 -->
<g id="node19" class="node"><title>75</title>
<ellipse fill="white" stroke="black" cx="1964.19" cy="-98.9325" rx="18.2703" ry="18.2703"/>
<text text-anchor="middle" x="1964.19" y="-96.7325" font-family="Times,serif" font-size="9.00">75</text>
</g>
<!-- player_x_2&#45;&gt;75 -->
<g id="edge87" class="edge"><title>player_x_2&#45;&gt;75</title>
<path fill="none" stroke="green" stroke-width="0.499053" stroke-dasharray="1,5" d="M1743.33,-326.667C1781.58,-326.105 1849.91,-319.413 1891.19,-281.948 1933.41,-243.634 1912.05,-213.63 1934.19,-161.095 1939.31,-148.957 1945.65,-135.804 1951.18,-124.817"/>
<polygon fill="green" stroke="green" stroke-width="0.499053" points="1954.36,-126.296 1955.79,-115.798 1948.12,-123.114 1954.36,-126.296"/>
</g>
<!-- 46 -->
<g id="node21" class="node"><title>46</title>
<ellipse fill="white" stroke="black" cx="1715.19" cy="-260.735" rx="18.2703" ry="18.2703"/>
<text text-anchor="middle" x="1715.19" y="-258.535" font-family="Times,serif" font-size="9.00">46</text>
</g>
<!-- player_x_2&#45;&gt;46 -->
<g id="edge64" class="edge"><title>player_x_2&#45;&gt;46</title>
<path fill="none" stroke="green" stroke-width="0.359119" d="M1715.19,-317.816C1715.19,-310.652 1715.19,-299.789 1715.19,-289.526"/>
<polygon fill="green" stroke="green" stroke-width="0.359119" points="1718.69,-289.227 1715.19,-279.227 1711.69,-289.227 1718.69,-289.227"/>
</g>
<!-- 122 -->
<g id="node27" class="node"><title>122</title>
<ellipse fill="white" stroke="black" cx="1964.19" cy="-260.735" rx="21.4286" ry="21.4286"/>
<text text-anchor="middle" x="1964.19" y="-258.535" font-family="Times,serif" font-size="9.00">122</text>
</g>
<!-- player_x_2&#45;&gt;122 -->
<g id="edge27" class="edge"><title>player_x_2&#45;&gt;122</title>
<path fill="none" stroke="green" stroke-width="0.15809" d="M1743.35,-323.072C1785.06,-318.171 1865.19,-306.275 1929.19,-281.948 1932.11,-280.837 1935.08,-279.5 1937.98,-278.05"/>
<polygon fill="green" stroke="green" stroke-width="0.15809" points="1939.83,-281.031 1946.93,-273.169 1936.48,-274.886 1939.83,-281.031"/>
</g>
<!-- player_y_2 -->
<g id="node9" class="node"><title>player_y_2</title>
<polygon fill="lightgray" stroke="black" points="1143.19,-191.309 1087.19,-191.309 1087.19,-173.309 1143.19,-173.309 1143.19,-191.309"/>
<text text-anchor="middle" x="1115.19" y="-180.109" font-family="Times,serif" font-size="9.00">player_y_2</text>
</g>
<!-- player_y_2&#45;&gt;attack -->
<g id="edge81" class="edge"><title>player_y_2&#45;&gt;attack</title>
<path fill="none" stroke="red" stroke-width="0.494664" d="M1121.86,-173.208C1130.54,-162.664 1146.16,-143.694 1159.33,-127.698"/>
<polygon fill="red" stroke="red" stroke-width="0.494664" points="1162.29,-129.609 1165.94,-119.664 1156.89,-125.159 1162.29,-129.609"/>
</g>
<!-- player_y_2&#45;&gt;up -->
<g id="edge23" class="edge"><title>player_y_2&#45;&gt;up</title>
<path fill="none" stroke="red" stroke-width="0.554258" d="M1105.49,-173.222C1081.7,-153.717 1018.06,-103.438 958.191,-72.7696 917.477,-51.9141 866.719,-35.7136 835.916,-26.8649"/>
<polygon fill="red" stroke="red" stroke-width="0.554258" points="836.476,-23.3867 825.902,-24.0461 834.579,-30.1248 836.476,-23.3867"/>
</g>
<!-- player_y_2&#45;&gt;down -->
<g id="edge7" class="edge"><title>player_y_2&#45;&gt;down</title>
<path fill="none" stroke="green" stroke-width="0.438829" stroke-dasharray="1,5" d="M1087.11,-178.812C1044.08,-174.987 959.235,-167.452 887.191,-161.095 704.975,-145.019 653.341,-174.409 477.191,-125.095 470.547,-123.236 463.731,-120.516 457.331,-117.545"/>
<polygon fill="green" stroke="green" stroke-width="0.438829" points="458.835,-114.385 448.321,-113.083 455.729,-120.658 458.835,-114.385"/>
</g>
<!-- player_y_2&#45;&gt;left -->
<g id="edge61" class="edge"><title>player_y_2&#45;&gt;left</title>
<path fill="none" stroke="red" stroke-width="0.180039" d="M1087.04,-177.547C985.707,-164.007 640.078,-117.823 536.051,-103.923"/>
<polygon fill="red" stroke="red" stroke-width="0.180039" points="536.312,-100.426 525.936,-102.571 535.385,-107.365 536.312,-100.426"/>
</g>
<!-- player_y_2&#45;&gt;right -->
<g id="edge39" class="edge"><title>player_y_2&#45;&gt;right</title>
<path fill="none" stroke="red" stroke-width="0.286313" d="M1098.93,-173.23C1091.18,-169.445 1081.76,-164.935 1073.19,-161.095 1033.53,-143.318 987.139,-124.306 957.243,-112.282"/>
<polygon fill="red" stroke="red" stroke-width="0.286313" points="958.355,-108.957 947.77,-108.484 955.75,-115.454 958.355,-108.957"/>
</g>
<!-- player_y_2&#45;&gt;select -->
<g id="edge72" class="edge"><title>player_y_2&#45;&gt;select</title>
<path fill="none" stroke="red" stroke-width="0.243053" d="M1128.56,-173.117C1135.45,-169.128 1144.08,-164.475 1152.19,-161.095 1210.18,-136.92 1281.05,-117.988 1322.45,-107.926"/>
<polygon fill="red" stroke="red" stroke-width="0.243053" points="1323.41,-111.295 1332.31,-105.561 1321.77,-104.488 1323.41,-111.295"/>
</g>
<!-- distance_1 -->
<g id="node10" class="node"><title>distance_1</title>
<polygon fill="lightgray" stroke="black" points="1502.19,-269.735 1448.19,-269.735 1448.19,-251.735 1502.19,-251.735 1502.19,-269.735"/>
<text text-anchor="middle" x="1475.19" y="-258.535" font-family="Times,serif" font-size="9.00">distance_1</text>
</g>
<!-- distance_1&#45;&gt;attack -->
<g id="edge69" class="edge"><title>distance_1&#45;&gt;attack</title>
<path fill="none" stroke="red" stroke-width="0.307554" d="M1469.14,-251.538C1454.87,-232.781 1417.16,-186.41 1375.19,-161.095 1325.07,-130.869 1258.5,-114.088 1218.09,-106.049"/>
<polygon fill="red" stroke="red" stroke-width="0.307554" points="1218.63,-102.59 1208.15,-104.145 1217.31,-109.465 1218.63,-102.59"/>
</g>
<!-- distance_1&#45;&gt;up -->
<g id="edge37" class="edge"><title>distance_1&#45;&gt;up</title>
<path fill="none" stroke="red" stroke-width="0.449638" stroke-dasharray="1,5" d="M1475.77,-251.643C1477.42,-222.019 1478.68,-118.815 1421.19,-72.7696 1375.1,-35.8519 951.304,-22.8812 836.666,-20.0319"/>
<polygon fill="red" stroke="red" stroke-width="0.449638" points="836.642,-16.5304 826.56,-19.7873 836.473,-23.5283 836.642,-16.5304"/>
</g>
<!-- distance_1&#45;&gt;down -->
<g id="edge52" class="edge"><title>distance_1&#45;&gt;down</title>
<path fill="none" stroke="green" stroke-width="0.298974" d="M1448,-255.9C1414.32,-251.292 1355.14,-243.666 1304.19,-239.522 1214.84,-232.255 576.688,-246.816 498.191,-203.522 470.424,-188.208 451.035,-157.083 439.429,-132.928"/>
<polygon fill="green" stroke="green" stroke-width="0.298974" points="442.563,-131.366 435.217,-123.731 436.199,-134.281 442.563,-131.366"/>
</g>
<!-- distance_1&#45;&gt;left -->
<g id="edge14" class="edge"><title>distance_1&#45;&gt;left</title>
<path fill="none" stroke="green" stroke-width="0.324515" d="M1448,-255.911C1414.32,-251.314 1355.14,-243.699 1304.19,-239.522 1260.79,-235.964 553.451,-232.771 521.191,-203.522 500.877,-185.105 499.298,-152.41 501.427,-128.667"/>
<polygon fill="green" stroke="green" stroke-width="0.324515" points="504.934,-128.809 502.611,-118.472 497.981,-128.001 504.934,-128.809"/>
</g>
<!-- distance_1&#45;&gt;right -->
<g id="edge18" class="edge"><title>distance_1&#45;&gt;right</title>
<path fill="none" stroke="red" stroke-width="0.241461" d="M1447.99,-256.359C1361.09,-245.514 1094.88,-211.783 1078.19,-203.522 1054.13,-191.611 1057.37,-176.22 1035.19,-161.095 1002.64,-138.901 987.248,-146.525 954.191,-125.095 952.922,-124.273 951.655,-123.394 950.398,-122.476"/>
<polygon fill="red" stroke="red" stroke-width="0.241461" points="952.355,-119.558 942.371,-116.014 947.966,-125.011 952.355,-119.558"/>
</g>
<!-- distance_1&#45;&gt;select -->
<g id="edge78" class="edge"><title>distance_1&#45;&gt;select</title>
<path fill="none" stroke="red" stroke-width="0.180455" d="M1479.72,-251.556C1488.98,-233.617 1507.72,-190.103 1489.19,-161.095 1468.06,-128.012 1423.93,-112.555 1392.52,-105.517"/>
<polygon fill="red" stroke="red" stroke-width="0.180455" points="1392.9,-102.023 1382.4,-103.439 1391.49,-108.88 1392.9,-102.023"/>
</g>
<!-- 267 -->
<g id="node20" class="node"><title>267</title>
<ellipse fill="white" stroke="black" cx="1714.19" cy="-182.309" rx="21.4286" ry="21.4286"/>
<text text-anchor="middle" x="1714.19" y="-180.109" font-family="Times,serif" font-size="9.00">267</text>
</g>
<!-- distance_1&#45;&gt;267 -->
<g id="edge24" class="edge"><title>distance_1&#45;&gt;267</title>
<path fill="none" stroke="green" stroke-width="0.309418" d="M1502.32,-254.563C1542.12,-246.469 1618.19,-229.047 1679.19,-203.522 1681.92,-202.379 1684.7,-201.064 1687.44,-199.665"/>
<polygon fill="green" stroke="green" stroke-width="0.309418" points="1689.39,-202.588 1696.48,-194.709 1686.02,-196.451 1689.39,-202.588"/>
</g>
<!-- distance_2 -->
<g id="node11" class="node"><title>distance_2</title>
<polygon fill="lightgray" stroke="black" points="608.191,-335.948 554.191,-335.948 554.191,-317.948 608.191,-317.948 608.191,-335.948"/>
<text text-anchor="middle" x="581.191" y="-324.748" font-family="Times,serif" font-size="9.00">distance_2</text>
</g>
<!-- distance_2&#45;&gt;attack -->
<g id="edge60" class="edge"><title>distance_2&#45;&gt;attack</title>
<path fill="none" stroke="green" stroke-width="0.151263" d="M608.257,-325.899C732.598,-325.462 1245.49,-321.271 1304.19,-281.948 1350.97,-250.613 1374.11,-207.476 1342.19,-161.095 1314.53,-120.903 1256.6,-107.107 1218.57,-102.381"/>
<polygon fill="green" stroke="green" stroke-width="0.151263" points="1218.73,-98.8778 1208.41,-101.274 1217.97,-105.837 1218.73,-98.8778"/>
</g>
<!-- distance_2&#45;&gt;up -->
<g id="edge5" class="edge"><title>distance_2&#45;&gt;up</title>
<path fill="none" stroke="red" stroke-width="0.310206" stroke-dasharray="1,5" d="M553.994,-325.719C448.647,-324.57 71.3928,-317.952 33.1905,-281.948 -6.0594,-244.957 -11.067,-203.556 22.1905,-161.095 118.043,-38.7195 648.93,-22.0014 779.282,-19.7365"/>
<polygon fill="red" stroke="red" stroke-width="0.310206" points="779.695,-23.2305 789.638,-19.573 779.584,-16.2314 779.695,-23.2305"/>
</g>
<!-- distance_2&#45;&gt;down -->
<g id="edge44" class="edge"><title>distance_2&#45;&gt;down</title>
<path fill="none" stroke="red" stroke-width="0.253928" stroke-dasharray="1,5" d="M553.933,-325.313C452.642,-322.727 101.708,-311.679 62.1905,-281.948 32.3689,-259.512 38.97,-240.22 32.1905,-203.522 28.7651,-184.979 19.9224,-175.415 32.1905,-161.095 78.119,-107.487 300.957,-100.476 389.658,-99.8415"/>
<polygon fill="red" stroke="red" stroke-width="0.253928" points="389.807,-103.341 399.79,-99.7929 389.773,-96.341 389.807,-103.341"/>
</g>
<!-- distance_2&#45;&gt;left -->
<g id="edge79" class="edge"><title>distance_2&#45;&gt;left</title>
<path fill="none" stroke="green" stroke-width="0.496198" d="M554.045,-326C489.735,-325.486 331.021,-320.278 298.191,-281.948 263.249,-241.155 264.554,-202.971 298.191,-161.095 344.651,-103.254 391.851,-151.482 461.191,-125.095 467.935,-122.529 474.895,-119.083 481.266,-115.566"/>
<polygon fill="green" stroke="green" stroke-width="0.496198" points="483.185,-118.499 490.084,-110.458 479.676,-112.442 483.185,-118.499"/>
</g>
<!-- distance_2&#45;&gt;right -->
<g id="edge19" class="edge"><title>distance_2&#45;&gt;right</title>
<path fill="none" stroke="green" stroke-width="0.151763" stroke-dasharray="1,5" d="M608.538,-322.473C667.508,-313.575 807.705,-284.654 887.191,-203.522 906.2,-184.119 916.107,-154.561 921.168,-131.978"/>
<polygon fill="green" stroke="green" stroke-width="0.151763" points="924.603,-132.651 923.168,-122.154 917.744,-131.255 924.603,-132.651"/>
</g>
<!-- distance_2&#45;&gt;select -->
<g id="edge56" class="edge"><title>distance_2&#45;&gt;select</title>
<path fill="none" stroke="red" stroke-width="0.121335" d="M608.484,-325.705C758.711,-324.238 1479.22,-315.466 1511.19,-281.948 1523.23,-269.323 1523.19,-183.631 1507.19,-161.095 1480.89,-124.046 1428.05,-109.4 1392.64,-103.636"/>
<polygon fill="red" stroke="red" stroke-width="0.121335" points="1393.11,-100.168 1382.7,-102.176 1392.09,-107.093 1393.11,-100.168"/>
</g>
<!-- 217 -->
<g id="node18" class="node"><title>217</title>
<ellipse fill="white" stroke="black" cx="1714.19" cy="-98.9325" rx="21.4286" ry="21.4286"/>
<text text-anchor="middle" x="1714.19" y="-96.7325" font-family="Times,serif" font-size="9.00">217</text>
</g>
<!-- distance_2&#45;&gt;217 -->
<g id="edge2" class="edge"><title>distance_2&#45;&gt;217</title>
<path fill="none" stroke="red" stroke-width="0.311425" d="M608.413,-325.831C779.154,-324.984 1696.66,-318.726 1742.19,-281.948 1784.54,-247.736 1779.97,-212.553 1762.19,-161.095 1757.01,-146.107 1746.48,-131.994 1736.59,-121.11"/>
<polygon fill="red" stroke="red" stroke-width="0.311425" points="1739.04,-118.6 1729.6,-113.789 1733.97,-123.436 1739.04,-118.6"/>
</g>
<!-- 176 -->
<g id="node24" class="node"><title>176</title>
<ellipse fill="white" stroke="black" cx="92.1905" cy="-260.735" rx="21.4286" ry="21.4286"/>
<text text-anchor="middle" x="92.1905" y="-258.535" font-family="Times,serif" font-size="9.00">176</text>
</g>
<!-- distance_2&#45;&gt;176 -->
<g id="edge33" class="edge"><title>distance_2&#45;&gt;176</title>
<path fill="none" stroke="green" stroke-width="0.447354" d="M554.066,-325.615C485.051,-324.25 297.534,-317.303 146.191,-281.948 137.736,-279.973 128.811,-277.016 120.706,-273.969"/>
<polygon fill="green" stroke="green" stroke-width="0.447354" points="121.899,-270.678 111.313,-270.268 119.333,-277.19 121.899,-270.678"/>
</g>
<!-- 217&#45;&gt;up -->
<g id="edge82" class="edge"><title>217&#45;&gt;up</title>
<path fill="none" stroke="red" stroke-width="0.31354" d="M1698.89,-84.0867C1693.12,-79.6703 1686.24,-75.2813 1679.19,-72.7696 1518.87,-15.647 969.03,-17.6714 836.906,-19.0215"/>
<polygon fill="red" stroke="red" stroke-width="0.31354" points="836.733,-15.5231 826.772,-19.1325 836.81,-22.5227 836.733,-15.5231"/>
</g>
<!-- 267&#45;&gt;select -->
<g id="edge16" class="edge"><title>267&#45;&gt;select</title>
<path fill="none" stroke="red" stroke-width="0.627248" stroke-dasharray="1,5" d="M1693.71,-176.641C1635.11,-163.283 1466.21,-124.782 1392.4,-107.959"/>
<polygon fill="red" stroke="red" stroke-width="0.627248" points="1392.76,-104.45 1382.23,-105.64 1391.2,-111.275 1392.76,-104.45"/>
</g>
<!-- 267&#45;&gt;217 -->
<g id="edge41" class="edge"><title>267&#45;&gt;217</title>
<path fill="none" stroke="green" stroke-width="0.213461" d="M1714.19,-160.774C1714.19,-151.548 1714.19,-140.474 1714.19,-130.316"/>
<polygon fill="green" stroke="green" stroke-width="0.213461" points="1717.69,-130.179 1714.19,-120.179 1710.69,-130.179 1717.69,-130.179"/>
</g>
<!-- 46&#45;&gt;select -->
<g id="edge73" class="edge"><title>46&#45;&gt;select</title>
<path fill="none" stroke="red" stroke-width="0.511016" stroke-dasharray="1,5" d="M1726.35,-245.965C1741.73,-225.23 1765.29,-185.795 1744.19,-161.095 1699.12,-108.347 1480.15,-100.827 1393.04,-99.9487"/>
<polygon fill="red" stroke="red" stroke-width="0.511016" points="1392.88,-96.4474 1382.85,-99.8706 1392.82,-103.447 1392.88,-96.4474"/>
</g>
<!-- 46&#45;&gt;267 -->
<g id="edge22" class="edge"><title>46&#45;&gt;267</title>
<path fill="none" stroke="green" stroke-width="0.519507" d="M1714.96,-242.009C1714.85,-233.59 1714.71,-223.286 1714.59,-213.675"/>
<polygon fill="green" stroke="green" stroke-width="0.519507" points="1718.09,-213.592 1714.46,-203.639 1711.09,-213.684 1718.09,-213.592"/>
</g>
<!-- 303&#45;&gt;attack -->
<g id="edge76" class="edge"><title>303&#45;&gt;attack</title>
<path fill="none" stroke="red" stroke-width="0.215781" d="M1182.19,-160.774C1182.19,-152.99 1182.19,-143.89 1182.19,-135.136"/>
<polygon fill="red" stroke="red" stroke-width="0.215781" points="1185.69,-135.116 1182.19,-125.116 1178.69,-135.116 1185.69,-135.116"/>
</g>
<!-- 240 -->
<g id="node23" class="node"><title>240</title>
<ellipse fill="white" stroke="black" cx="1964.19" cy="-182.309" rx="21.4286" ry="21.4286"/>
<text text-anchor="middle" x="1964.19" y="-180.109" font-family="Times,serif" font-size="9.00">240</text>
</g>
<!-- 240&#45;&gt;75 -->
<g id="edge40" class="edge"><title>240&#45;&gt;75</title>
<path fill="none" stroke="red" stroke-width="0.138155" d="M1964.19,-160.774C1964.19,-150.745 1964.19,-138.531 1964.19,-127.685"/>
<polygon fill="red" stroke="red" stroke-width="0.138155" points="1967.69,-127.427 1964.19,-117.427 1960.69,-127.427 1967.69,-127.427"/>
</g>
<!-- 176&#45;&gt;down -->
<g id="edge17" class="edge"><title>176&#45;&gt;down</title>
<path fill="none" stroke="green" stroke-width="0.115109" stroke-dasharray="1,5" d="M76.2543,-246.077C54.5248,-225.834 20.73,-187.427 43.1905,-161.095 87.6036,-109.027 302.961,-101.084 389.792,-100.021"/>
<polygon fill="green" stroke="green" stroke-width="0.115109" points="389.999,-103.519 399.964,-99.9213 389.93,-96.5197 389.999,-103.519"/>
</g>
<!-- 176&#45;&gt;left -->
<g id="edge74" class="edge"><title>176&#45;&gt;left</title>
<path fill="none" stroke="red" stroke-width="0.317289" d="M108.829,-247.22C137.902,-226.005 200.549,-183.142 260.191,-161.095 345.316,-129.629 375.739,-155.664 461.191,-125.095 467.986,-122.665 474.964,-119.269 481.336,-115.758"/>
<polygon fill="red" stroke="red" stroke-width="0.317289" points="483.265,-118.685 490.147,-110.629 479.744,-112.635 483.265,-118.685"/>
</g>
<!-- 311 -->
<g id="node25" class="node"><title>311</title>
<ellipse fill="white" stroke="black" cx="73.1905" cy="-182.309" rx="21.4286" ry="21.4286"/>
<text text-anchor="middle" x="73.1905" y="-180.109" font-family="Times,serif" font-size="9.00">311</text>
</g>
<!-- 176&#45;&gt;311 -->
<g id="edge32" class="edge"><title>176&#45;&gt;311</title>
<path fill="none" stroke="green" stroke-width="0.131652" d="M87.2976,-240.053C85.2524,-231.827 82.8315,-222.089 80.5776,-213.023"/>
<polygon fill="green" stroke="green" stroke-width="0.131652" points="83.9423,-212.049 78.1329,-203.189 77.149,-213.738 83.9423,-212.049"/>
</g>
<!-- 311&#45;&gt;down -->
<g id="edge28" class="edge"><title>311&#45;&gt;down</title>
<path fill="none" stroke="green" stroke-width="0.253238" d="M93.5644,-175.343C108.162,-171.149 128.319,-165.518 146.191,-161.095 233.584,-139.468 337.314,-117.859 390.63,-107.046"/>
<polygon fill="green" stroke="green" stroke-width="0.253238" points="391.493,-110.442 400.601,-105.031 390.106,-103.581 391.493,-110.442"/>
</g>
<!-- 57&#45;&gt;right -->
<g id="edge59" class="edge"><title>57&#45;&gt;right</title>
<path fill="none" stroke="red" stroke-width="0.118805" d="M1297.21,-177.547C1236.43,-164.833 1038.07,-123.338 959.081,-106.813"/>
<polygon fill="red" stroke="red" stroke-width="0.118805" points="959.692,-103.365 949.187,-104.743 958.258,-110.217 959.692,-103.365"/>
</g>
<!-- 57&#45;&gt;select -->
<g id="edge62" class="edge"><title>57&#45;&gt;select</title>
<path fill="none" stroke="red" stroke-width="0.807441" d="M1323.29,-165.619C1328.33,-155.852 1334.99,-142.947 1341.07,-131.164"/>
<polygon fill="red" stroke="red" stroke-width="0.807441" points="1344.31,-132.526 1345.78,-122.035 1338.09,-129.316 1344.31,-132.526"/>
</g>
<!-- 122&#45;&gt;75 -->
<g id="edge25" class="edge"><title>122&#45;&gt;75</title>
<path fill="none" stroke="green" stroke-width="0.132342" stroke-dasharray="1,5" d="M1975.99,-242.916C1982.78,-232.19 1990.65,-217.687 1994.19,-203.522 1998.77,-185.229 1998.45,-179.464 1994.19,-161.095 1991.17,-148.086 1984.98,-134.653 1979,-123.701"/>
<polygon fill="green" stroke="green" stroke-width="0.132342" points="1981.9,-121.72 1973.89,-114.789 1975.83,-125.204 1981.9,-121.72"/>
</g>
<!-- 122&#45;&gt;240 -->
<g id="edge36" class="edge"><title>122&#45;&gt;240</title>
<path fill="none" stroke="green" stroke-width="0.356741" d="M1964.19,-239.254C1964.19,-231.396 1964.19,-222.251 1964.19,-213.661"/>
<polygon fill="green" stroke="green" stroke-width="0.356741" points="1967.69,-213.581 1964.19,-203.581 1960.69,-213.581 1967.69,-213.581"/>
</g>
</g>
</svg>
