<?xml version="1.0" encoding="UTF-8" standalone="no"?>
<!DOCTYPE svg PUBLIC "-//W3C//DTD SVG 1.1//EN"
 "http://www.w3.org/Graphics/SVG/1.1/DTD/svg11.dtd">
<!-- Generated by graphviz version 2.38.0 (20140413.2041)
 -->
<!-- Title: %3 Pages: 1 -->
<svg width="1491pt" height="425pt"
 viewBox="0.00 0.00 1491.49 425.20" xmlns="http://www.w3.org/2000/svg" xmlns:xlink="http://www.w3.org/1999/xlink">
<g id="graph0" class="graph" transform="scale(1 1) rotate(0) translate(4 421.203)">
<title>%3</title>
<polygon fill="white" stroke="none" points="-4,4 -4,-421.203 1487.49,-421.203 1487.49,4 -4,4"/>
<!-- enemy_hp -->
<g id="node1" class="node"><title>enemy_hp</title>
<polygon fill="lightgray" stroke="black" points="438.5,-417.203 385.5,-417.203 385.5,-399.203 438.5,-399.203 438.5,-417.203"/>
<text text-anchor="middle" x="412" y="-406.003" font-family="Times,serif" font-size="9.00">enemy_hp</text>
</g>
<!-- attack -->
<g id="node12" class="node"><title>attack</title>
<ellipse fill="lightblue" stroke="black" cx="569" cy="-258.614" rx="26.3269" ry="26.3269"/>
<text text-anchor="middle" x="569" y="-256.414" font-family="Times,serif" font-size="9.00">attack</text>
</g>
<!-- enemy_hp&#45;&gt;attack -->
<g id="edge3" class="edge"><title>enemy_hp&#45;&gt;attack</title>
<path fill="none" stroke="green" stroke-width="0.182652" d="M415.678,-399.143C423.506,-382.695 443.225,-344.792 469,-320.777 492.878,-298.529 505.37,-302.146 533,-284.777 535.147,-283.427 537.343,-282.004 539.54,-280.549"/>
<polygon fill="green" stroke="green" stroke-width="0.182652" points="541.603,-283.378 547.912,-274.866 537.672,-277.586 541.603,-283.378"/>
</g>
<!-- up -->
<g id="node13" class="node"><title>up</title>
<ellipse fill="lightblue" stroke="black" cx="758" cy="-96.8112" rx="18.2703" ry="18.2703"/>
<text text-anchor="middle" x="758" y="-94.6112" font-family="Times,serif" font-size="9.00">up</text>
</g>
<!-- enemy_hp&#45;&gt;up -->
<g id="edge59" class="edge"><title>enemy_hp&#45;&gt;up</title>
<path fill="none" stroke="green" stroke-width="0.173098" d="M385.156,-407.37C319.909,-407.145 155.862,-402.59 122,-363.203 96.1873,-333.179 141.311,-246.344 152,-232.451 190.4,-182.543 210.86,-175.655 270,-154.024 355.623,-122.707 638.624,-104.491 729.581,-99.3366"/>
<polygon fill="green" stroke="green" stroke-width="0.173098" points="729.905,-102.824 739.695,-98.7728 729.515,-95.8349 729.905,-102.824"/>
</g>
<!-- down -->
<g id="node14" class="node"><title>down</title>
<ellipse fill="lightblue" stroke="black" cx="1125" cy="-258.614" rx="26.3269" ry="26.3269"/>
<text text-anchor="middle" x="1125" y="-256.414" font-family="Times,serif" font-size="9.00">down</text>
</g>
<!-- enemy_hp&#45;&gt;down -->
<g id="edge44" class="edge"><title>enemy_hp&#45;&gt;down</title>
<path fill="none" stroke="green" stroke-width="0.600786" d="M438.602,-405.65C569.11,-398.021 1135.47,-364.828 1137,-363.203 1154.7,-344.4 1148.95,-314.395 1140.39,-291.506"/>
<polygon fill="green" stroke="green" stroke-width="0.600786" points="1143.61,-290.136 1136.61,-282.186 1137.12,-292.768 1143.61,-290.136"/>
</g>
<!-- left -->
<g id="node15" class="node"><title>left</title>
<ellipse fill="lightblue" stroke="black" cx="834" cy="-19.799" rx="19.6" ry="19.6"/>
<text text-anchor="middle" x="834" y="-17.599" font-family="Times,serif" font-size="9.00">left</text>
</g>
<!-- enemy_hp&#45;&gt;left -->
<g id="edge63" class="edge"><title>enemy_hp&#45;&gt;left</title>
<path fill="none" stroke="green" stroke-width="0.49703" d="M385.326,-405.348C321.067,-400.554 159.433,-386.481 111,-363.203 50.1805,-333.973 0,-327.093 0,-259.614 0,-259.614 0,-259.614 0,-174.238 0,-90.7541 654.731,-34.7515 803.97,-23.0707"/>
<polygon fill="green" stroke="green" stroke-width="0.49703" points="804.507,-26.5397 814.207,-22.2773 803.966,-19.5606 804.507,-26.5397"/>
</g>
<!-- right -->
<g id="node16" class="node"><title>right</title>
<ellipse fill="lightblue" stroke="black" cx="883" cy="-258.614" rx="23.1702" ry="23.1702"/>
<text text-anchor="middle" x="883" y="-256.414" font-family="Times,serif" font-size="9.00">right</text>
</g>
<!-- enemy_hp&#45;&gt;right -->
<g id="edge8" class="edge"><title>enemy_hp&#45;&gt;right</title>
<path fill="none" stroke="green" stroke-width="0.349082" stroke-dasharray="1,5" d="M438.682,-405.634C535.248,-399.833 861.663,-379.11 877,-363.203 894.891,-344.647 894.657,-314.473 890.97,-291.464"/>
<polygon fill="green" stroke="green" stroke-width="0.349082" points="894.377,-290.644 889.085,-281.465 887.498,-291.94 894.377,-290.644"/>
</g>
<!-- select -->
<g id="node17" class="node"><title>select</title>
<ellipse fill="lightblue" stroke="black" cx="499" cy="-258.614" rx="25.4118" ry="25.4118"/>
<text text-anchor="middle" x="499" y="-256.414" font-family="Times,serif" font-size="9.00">select</text>
</g>
<!-- enemy_hp&#45;&gt;select -->
<g id="edge61" class="edge"><title>enemy_hp&#45;&gt;select</title>
<path fill="none" stroke="green" stroke-width="0.576763" d="M385.412,-407.682C303.26,-408.31 63.1219,-403.301 133,-320.777 175.169,-270.976 379.799,-261.693 463.355,-259.987"/>
<polygon fill="green" stroke="green" stroke-width="0.576763" points="463.454,-263.485 473.39,-259.807 463.328,-256.487 463.454,-263.485"/>
</g>
<!-- 156 -->
<g id="node23" class="node"><title>156</title>
<ellipse fill="white" stroke="black" cx="847" cy="-341.99" rx="21.4286" ry="21.4286"/>
<text text-anchor="middle" x="847" y="-339.79" font-family="Times,serif" font-size="9.00">156</text>
</g>
<!-- enemy_hp&#45;&gt;156 -->
<g id="edge62" class="edge"><title>enemy_hp&#45;&gt;156</title>
<path fill="none" stroke="green" stroke-width="0.330901" d="M438.552,-405.064C522.934,-398.162 781.504,-376.183 817,-363.203 818.622,-362.61 820.242,-361.911 821.841,-361.136"/>
<polygon fill="green" stroke="green" stroke-width="0.330901" points="823.726,-364.089 830.649,-356.068 820.236,-358.022 823.726,-364.089"/>
</g>
<!-- player_hp_1 -->
<g id="node2" class="node"><title>player_hp_1</title>
<polygon fill="lightgray" stroke="black" points="203.5,-350.99 142.5,-350.99 142.5,-332.99 203.5,-332.99 203.5,-350.99"/>
<text text-anchor="middle" x="173" y="-339.79" font-family="Times,serif" font-size="9.00">player_hp_1</text>
</g>
<!-- player_hp_1&#45;&gt;attack -->
<g id="edge20" class="edge"><title>player_hp_1&#45;&gt;attack</title>
<path fill="none" stroke="red" stroke-width="0.246858" d="M200.603,-332.926C215.438,-328.824 234.104,-324.031 251,-320.777 375.07,-296.881 415.132,-330.291 533,-284.777 535.514,-283.806 538.02,-282.623 540.473,-281.306"/>
<polygon fill="red" stroke="red" stroke-width="0.246858" points="542.321,-284.279 549.037,-276.085 538.677,-278.302 542.321,-284.279"/>
</g>
<!-- player_hp_1&#45;&gt;up -->
<g id="edge45" class="edge"><title>player_hp_1&#45;&gt;up</title>
<path fill="none" stroke="red" stroke-width="0.697038" stroke-dasharray="1,5" d="M180.163,-332.89C206.902,-303.239 304.713,-199.952 409,-154.024 520.002,-105.139 667.618,-98.2306 729.158,-97.6215"/>
<polygon fill="red" stroke="red" stroke-width="0.697038" points="729.303,-101.121 739.286,-97.5722 729.269,-94.121 729.303,-101.121"/>
</g>
<!-- player_hp_1&#45;&gt;left -->
<g id="edge71" class="edge"><title>player_hp_1&#45;&gt;left</title>
<path fill="none" stroke="red" stroke-width="0.177927" stroke-dasharray="1,5" d="M178.241,-332.912C203.701,-294.532 319.117,-130.209 463,-75.598 583.264,-29.9513 738.87,-22.1222 803.637,-20.9262"/>
<polygon fill="red" stroke="red" stroke-width="0.177927" points="803.992,-24.4216 813.941,-20.7792 803.892,-17.4223 803.992,-24.4216"/>
</g>
<!-- player_hp_1&#45;&gt;right -->
<g id="edge75" class="edge"><title>player_hp_1&#45;&gt;right</title>
<path fill="none" stroke="green" stroke-width="0.174412" d="M199.844,-332.92C214.781,-328.712 233.781,-323.822 251,-320.777 280.731,-315.519 722.563,-274.454 849.27,-262.73"/>
<polygon fill="green" stroke="green" stroke-width="0.174412" points="849.893,-266.187 859.528,-261.781 849.248,-259.217 849.893,-266.187"/>
</g>
<!-- player_hp_1&#45;&gt;select -->
<g id="edge14" class="edge"><title>player_hp_1&#45;&gt;select</title>
<path fill="none" stroke="red" stroke-width="0.324114" d="M188.924,-332.861C197.391,-328.79 208.076,-324.046 218,-320.777 304.245,-292.364 409.776,-273.451 463.658,-264.881"/>
<polygon fill="red" stroke="red" stroke-width="0.324114" points="464.387,-268.31 473.725,-263.306 463.304,-261.394 464.387,-268.31"/>
</g>
<!-- player_hp_2 -->
<g id="node3" class="node"><title>player_hp_2</title>
<polygon fill="lightgray" stroke="black" points="735.5,-350.99 674.5,-350.99 674.5,-332.99 735.5,-332.99 735.5,-350.99"/>
<text text-anchor="middle" x="705" y="-339.79" font-family="Times,serif" font-size="9.00">player_hp_2</text>
</g>
<!-- player_hp_2&#45;&gt;attack -->
<g id="edge69" class="edge"><title>player_hp_2&#45;&gt;attack</title>
<path fill="none" stroke="red" stroke-width="0.207833" d="M690.927,-332.936C672.144,-322.145 637.891,-302.317 609,-284.777 605.962,-282.933 602.808,-280.992 599.663,-279.041"/>
<polygon fill="red" stroke="red" stroke-width="0.207833" points="601.264,-275.914 590.929,-273.584 597.555,-281.851 601.264,-275.914"/>
</g>
<!-- player_hp_2&#45;&gt;up -->
<g id="edge48" class="edge"><title>player_hp_2&#45;&gt;up</title>
<path fill="none" stroke="green" stroke-width="0.586162" d="M706.763,-332.899C713.819,-300.526 740.207,-179.451 752.11,-124.836"/>
<polygon fill="green" stroke="green" stroke-width="0.586162" points="755.578,-125.361 754.288,-114.845 748.738,-123.87 755.578,-125.361"/>
</g>
<!-- player_hp_2&#45;&gt;down -->
<g id="edge36" class="edge"><title>player_hp_2&#45;&gt;down</title>
<path fill="none" stroke="green" stroke-width="0.363774" d="M718.255,-332.987C725.839,-328.746 735.675,-323.802 745,-320.777 808.935,-300.032 1007.06,-274.119 1088.98,-263.973"/>
<polygon fill="green" stroke="green" stroke-width="0.363774" points="1089.57,-267.427 1099.07,-262.731 1088.71,-260.48 1089.57,-267.427"/>
</g>
<!-- player_hp_2&#45;&gt;left -->
<g id="edge15" class="edge"><title>player_hp_2&#45;&gt;left</title>
<path fill="none" stroke="green" stroke-width="0.326382" d="M703.206,-332.694C696.148,-297.786 673.401,-160.717 731,-75.598 748.184,-50.2042 781.059,-35.6813 805.061,-28.052"/>
<polygon fill="green" stroke="green" stroke-width="0.326382" points="806.135,-31.3843 814.732,-25.1928 804.15,-24.6715 806.135,-31.3843"/>
</g>
<!-- player_hp_2&#45;&gt;right -->
<g id="edge17" class="edge"><title>player_hp_2&#45;&gt;right</title>
<path fill="none" stroke="red" stroke-width="1.00889" d="M720.486,-332.934C727.866,-329.154 736.844,-324.642 745,-320.777 781.648,-303.409 824.417,-284.689 852.515,-272.597"/>
<polygon fill="red" stroke="red" stroke-width="1.00889" points="853.998,-275.77 861.807,-268.61 851.237,-269.337 853.998,-275.77"/>
</g>
<!-- player_hp_2&#45;&gt;select -->
<g id="edge57" class="edge"><title>player_hp_2&#45;&gt;select</title>
<path fill="none" stroke="green" stroke-width="0.448526" d="M674.234,-333.909C639.114,-325.147 580.518,-308.434 534,-284.777 531.724,-283.619 529.432,-282.323 527.17,-280.946"/>
<polygon fill="green" stroke="green" stroke-width="0.448526" points="528.962,-277.935 518.686,-275.354 525.11,-283.78 528.962,-277.935"/>
</g>
<!-- enemy_x -->
<g id="node4" class="node"><title>enemy_x</title>
<polygon fill="lightgray" stroke="black" points="309.5,-350.99 260.5,-350.99 260.5,-332.99 309.5,-332.99 309.5,-350.99"/>
<text text-anchor="middle" x="285" y="-339.79" font-family="Times,serif" font-size="9.00">enemy_x</text>
</g>
<!-- enemy_x&#45;&gt;attack -->
<g id="edge53" class="edge"><title>enemy_x&#45;&gt;attack</title>
<path fill="none" stroke="green" stroke-width="0.108133" d="M296.114,-332.951C302.513,-328.699 310.877,-323.756 319,-320.777 409.55,-287.568 443.734,-321.298 533,-284.777 535.494,-283.756 537.986,-282.538 540.429,-281.196"/>
<polygon fill="green" stroke="green" stroke-width="0.108133" points="542.3,-284.154 548.974,-275.926 538.625,-278.196 542.3,-284.154"/>
</g>
<!-- enemy_x&#45;&gt;up -->
<g id="edge73" class="edge"><title>enemy_x&#45;&gt;up</title>
<path fill="none" stroke="green" stroke-width="0.443359" d="M288.787,-332.867C298.267,-313.281 324.805,-262.836 360,-232.451 472.651,-135.195 658.54,-107.441 729.377,-100.181"/>
<polygon fill="green" stroke="green" stroke-width="0.443359" points="729.733,-103.662 739.351,-99.2177 729.06,-96.6948 729.733,-103.662"/>
</g>
<!-- enemy_x&#45;&gt;down -->
<g id="edge10" class="edge"><title>enemy_x&#45;&gt;down</title>
<path fill="none" stroke="green" stroke-width="0.470308" d="M295.699,-332.821C302.098,-328.414 310.598,-323.36 319,-320.777 445.824,-281.775 782.849,-296.675 915,-284.777 976.36,-279.252 1047.49,-270.161 1089.23,-264.551"/>
<polygon fill="green" stroke="green" stroke-width="0.470308" points="1089.75,-268.013 1099.19,-263.204 1088.81,-261.076 1089.75,-268.013"/>
</g>
<!-- enemy_x&#45;&gt;left -->
<g id="edge28" class="edge"><title>enemy_x&#45;&gt;left</title>
<path fill="none" stroke="red" stroke-width="0.354162" d="M285.129,-332.714C285.837,-313.225 290.043,-263.73 314,-232.451 398.619,-121.968 455.286,-126.006 585,-75.598 661.138,-46.0096 756.899,-30.6035 804.426,-24.3082"/>
<polygon fill="red" stroke="red" stroke-width="0.354162" points="804.879,-27.7788 814.352,-23.034 803.988,-20.8358 804.879,-27.7788"/>
</g>
<!-- enemy_x&#45;&gt;right -->
<g id="edge60" class="edge"><title>enemy_x&#45;&gt;right</title>
<path fill="none" stroke="red" stroke-width="0.116558" d="M295.747,-332.971C302.162,-328.613 310.662,-323.56 319,-320.777 344.338,-312.318 731.882,-274.261 849.445,-262.854"/>
<polygon fill="red" stroke="red" stroke-width="0.116558" points="850.031,-266.314 859.647,-261.866 849.356,-259.347 850.031,-266.314"/>
</g>
<!-- enemy_x&#45;&gt;select -->
<g id="edge1" class="edge"><title>enemy_x&#45;&gt;select</title>
<path fill="none" stroke="red" stroke-width="0.386559" d="M297.255,-332.858C303.578,-328.884 311.516,-324.227 319,-320.777 368.041,-298.169 427.923,-279.475 464.755,-268.928"/>
<polygon fill="red" stroke="red" stroke-width="0.386559" points="465.833,-272.26 474.504,-266.172 463.929,-265.524 465.833,-272.26"/>
</g>
<!-- 57 -->
<g id="node22" class="node"><title>57</title>
<ellipse fill="white" stroke="black" cx="883" cy="-175.238" rx="18.2703" ry="18.2703"/>
<text text-anchor="middle" x="883" y="-173.038" font-family="Times,serif" font-size="9.00">57</text>
</g>
<!-- enemy_x&#45;&gt;57 -->
<g id="edge78" class="edge"><title>enemy_x&#45;&gt;57</title>
<path fill="none" stroke="red" stroke-width="0.288057" d="M295.183,-332.738C321.457,-311.94 394.428,-257.268 465,-232.451 604.988,-183.223 785.292,-176.708 854.352,-176.13"/>
<polygon fill="red" stroke="red" stroke-width="0.288057" points="854.474,-179.63 864.457,-176.083 854.441,-172.63 854.474,-179.63"/>
</g>
<!-- enemy_y -->
<g id="node5" class="node"><title>enemy_y</title>
<polygon fill="lightgray" stroke="black" points="607.5,-417.203 558.5,-417.203 558.5,-399.203 607.5,-399.203 607.5,-417.203"/>
<text text-anchor="middle" x="583" y="-406.003" font-family="Times,serif" font-size="9.00">enemy_y</text>
</g>
<!-- enemy_y&#45;&gt;attack -->
<g id="edge40" class="edge"><title>enemy_y&#45;&gt;attack</title>
<path fill="none" stroke="red" stroke-width="0.245598" d="M584.436,-399.127C585.922,-390.328 588.144,-375.818 589,-363.203 590.277,-344.39 591.967,-339.398 589,-320.777 587.518,-311.478 584.844,-301.673 581.924,-292.702"/>
<polygon fill="red" stroke="red" stroke-width="0.245598" points="585.146,-291.31 578.572,-283.001 578.53,-293.595 585.146,-291.31"/>
</g>
<!-- enemy_y&#45;&gt;up -->
<g id="edge23" class="edge"><title>enemy_y&#45;&gt;up</title>
<path fill="none" stroke="red" stroke-width="0.225433" d="M558.421,-405.709C466.495,-400.004 147.437,-379.12 133,-363.203 120.332,-349.236 125.654,-338.143 133,-320.777 154.957,-268.866 180.708,-268.542 224,-232.451 235.53,-222.839 320.036,-159.531 334,-154.024 406.722,-125.349 646.627,-105.818 729.525,-99.7863"/>
<polygon fill="red" stroke="red" stroke-width="0.225433" points="729.988,-103.262 739.712,-99.0559 729.487,-96.2801 729.988,-103.262"/>
</g>
<!-- enemy_y&#45;&gt;down -->
<g id="edge76" class="edge"><title>enemy_y&#45;&gt;down</title>
<path fill="none" stroke="red" stroke-width="0.190718" stroke-dasharray="1,5" d="M607.816,-407.28C714.591,-407.358 1131.25,-404.968 1170,-363.203 1190.64,-340.959 1169.88,-307.754 1150.23,-284.968"/>
<polygon fill="red" stroke="red" stroke-width="0.190718" points="1152.69,-282.468 1143.4,-277.378 1147.49,-287.152 1152.69,-282.468"/>
</g>
<!-- enemy_y&#45;&gt;right -->
<g id="edge33" class="edge"><title>enemy_y&#45;&gt;right</title>
<path fill="none" stroke="green" stroke-width="0.221396" d="M607.538,-407.846C676.655,-409.08 870.501,-408.372 910,-363.203 928.577,-341.959 915.617,-309.472 901.997,-286.554"/>
<polygon fill="green" stroke="green" stroke-width="0.221396" points="904.894,-284.586 896.61,-277.981 898.967,-288.311 904.894,-284.586"/>
</g>
<!-- enemy_y&#45;&gt;select -->
<g id="edge6" class="edge"><title>enemy_y&#45;&gt;select</title>
<path fill="none" stroke="green" stroke-width="0.184124" stroke-dasharray="1,5" d="M558.489,-405.789C485.158,-401.31 271.284,-386.353 251,-363.203 188.62,-292.011 380.826,-268.6 463.312,-261.949"/>
<polygon fill="green" stroke="green" stroke-width="0.184124" points="463.793,-265.422 473.496,-261.168 463.258,-258.443 463.793,-265.422"/>
</g>
<!-- 176 -->
<g id="node21" class="node"><title>176</title>
<ellipse fill="white" stroke="black" cx="559" cy="-341.99" rx="21.4286" ry="21.4286"/>
<text text-anchor="middle" x="559" y="-339.79" font-family="Times,serif" font-size="9.00">176</text>
</g>
<!-- enemy_y&#45;&gt;176 -->
<g id="edge30" class="edge"><title>enemy_y&#45;&gt;176</title>
<path fill="none" stroke="red" stroke-width="0.216586" d="M579.96,-399.07C577.341,-392.063 573.399,-381.516 569.638,-371.452"/>
<polygon fill="red" stroke="red" stroke-width="0.216586" points="572.916,-370.225 566.136,-362.083 566.359,-372.676 572.916,-370.225"/>
</g>
<!-- player_x_1 -->
<g id="node6" class="node"><title>player_x_1</title>
<polygon fill="lightgray" stroke="black" points="384,-350.99 328,-350.99 328,-332.99 384,-332.99 384,-350.99"/>
<text text-anchor="middle" x="356" y="-339.79" font-family="Times,serif" font-size="9.00">player_x_1</text>
</g>
<!-- player_x_1&#45;&gt;attack -->
<g id="edge27" class="edge"><title>player_x_1&#45;&gt;attack</title>
<path fill="none" stroke="red" stroke-width="0.517348" d="M371.256,-332.792C379.096,-328.8 388.893,-324.148 398,-320.777 456.234,-299.217 476.695,-310.963 533,-284.777 535.444,-283.64 537.899,-282.338 540.316,-280.937"/>
<polygon fill="red" stroke="red" stroke-width="0.517348" points="542.238,-283.863 548.812,-275.554 538.491,-277.95 542.238,-283.863"/>
</g>
<!-- player_x_1&#45;&gt;up -->
<g id="edge42" class="edge"><title>player_x_1&#45;&gt;up</title>
<path fill="none" stroke="red" stroke-width="0.159155" stroke-dasharray="1,5" d="M366.794,-332.769C380.3,-322.271 403.856,-303.243 422,-284.777 443.096,-263.305 441.162,-250.831 465,-232.451 551.422,-165.816 676.121,-122.593 730.692,-105.764"/>
<polygon fill="red" stroke="red" stroke-width="0.159155" points="731.786,-109.09 740.341,-102.84 729.755,-102.391 731.786,-109.09"/>
</g>
<!-- player_x_1&#45;&gt;down -->
<g id="edge70" class="edge"><title>player_x_1&#45;&gt;down</title>
<path fill="none" stroke="red" stroke-width="0.394113" d="M384.211,-335.163C407,-330.645 439.946,-324.539 469,-320.777 666.22,-295.238 717.125,-304.61 915,-284.777 976.301,-278.632 1047.45,-269.733 1089.21,-264.33"/>
<polygon fill="red" stroke="red" stroke-width="0.394113" points="1089.71,-267.795 1099.17,-263.035 1088.8,-260.853 1089.71,-267.795"/>
</g>
<!-- player_x_1&#45;&gt;left -->
<g id="edge7" class="edge"><title>player_x_1&#45;&gt;left</title>
<path fill="none" stroke="red" stroke-width="0.255371" d="M359.161,-332.944C367.121,-313.532 389.69,-263.44 422,-232.451 540.65,-118.651 732.556,-51.6272 805.039,-29.2472"/>
<polygon fill="red" stroke="red" stroke-width="0.255371" points="806.292,-32.5244 814.843,-26.2689 804.258,-25.8266 806.292,-32.5244"/>
</g>
<!-- player_x_1&#45;&gt;right -->
<g id="edge52" class="edge"><title>player_x_1&#45;&gt;right</title>
<path fill="none" stroke="green" stroke-width="0.180921" d="M384.287,-335.684C407.119,-331.461 440.087,-325.497 469,-320.777 610.183,-297.726 779.09,-273.952 849.56,-264.203"/>
<polygon fill="green" stroke="green" stroke-width="0.180921" points="850.19,-267.65 859.618,-262.815 849.233,-260.715 850.19,-267.65"/>
</g>
<!-- player_x_1&#45;&gt;select -->
<g id="edge49" class="edge"><title>player_x_1&#45;&gt;select</title>
<path fill="none" stroke="red" stroke-width="0.450703" d="M371.715,-332.98C392.265,-322.396 429.264,-302.962 460,-284.777 463.075,-282.957 466.255,-281.013 469.411,-279.042"/>
<polygon fill="red" stroke="red" stroke-width="0.450703" points="471.574,-281.815 478.137,-273.497 467.82,-275.907 471.574,-281.815"/>
</g>
<!-- player_y_1 -->
<g id="node7" class="node"><title>player_y_1</title>
<polygon fill="lightgray" stroke="black" points="1260,-417.203 1204,-417.203 1204,-399.203 1260,-399.203 1260,-417.203"/>
<text text-anchor="middle" x="1232" y="-406.003" font-family="Times,serif" font-size="9.00">player_y_1</text>
</g>
<!-- player_y_1&#45;&gt;attack -->
<g id="edge11" class="edge"><title>player_y_1&#45;&gt;attack</title>
<path fill="none" stroke="green" stroke-width="0.158754" d="M1203.94,-407.689C1103.36,-409.024 761.663,-409.948 665,-363.203 631.972,-347.231 604.757,-314.543 587.843,-290.134"/>
<polygon fill="green" stroke="green" stroke-width="0.158754" points="590.567,-287.913 582.086,-281.563 584.756,-291.816 590.567,-287.913"/>
</g>
<!-- player_y_1&#45;&gt;up -->
<g id="edge74" class="edge"><title>player_y_1&#45;&gt;up</title>
<path fill="none" stroke="red" stroke-width="0.639791" stroke-dasharray="1,5" d="M1260.39,-402.811C1283.25,-397.617 1313.97,-386.518 1329,-363.203 1339.21,-347.353 1339.79,-336.239 1329,-320.777 1302.44,-282.727 1267.47,-313.469 1231,-284.777 1209.01,-267.476 1218.34,-249.297 1196,-232.451 1150.53,-198.159 1006.47,-170.666 952,-154.024 892.685,-135.903 822.727,-115.988 785.146,-105.409"/>
<polygon fill="red" stroke="red" stroke-width="0.639791" points="786.014,-102.018 775.44,-102.682 784.121,-108.757 786.014,-102.018"/>
</g>
<!-- player_y_1&#45;&gt;down -->
<g id="edge55" class="edge"><title>player_y_1&#45;&gt;down</title>
<path fill="none" stroke="green" stroke-width="0.503897" stroke-dasharray="1,5" d="M1231.47,-398.828C1230.09,-382.46 1225.14,-345.654 1208,-320.777 1200.8,-310.33 1176.13,-292.7 1155.54,-279.044"/>
<polygon fill="green" stroke="green" stroke-width="0.503897" points="1157.31,-276.021 1147.03,-273.468 1153.47,-281.876 1157.31,-276.021"/>
</g>
<!-- player_y_1&#45;&gt;left -->
<g id="edge37" class="edge"><title>player_y_1&#45;&gt;left</title>
<path fill="none" stroke="green" stroke-width="0.130334" d="M1260.08,-405.673C1314.89,-402.09 1433.21,-391.231 1461,-363.203 1493.96,-329.966 1480,-306.421 1480,-259.614 1480,-259.614 1480,-259.614 1480,-174.238 1480,-45.9879 991.944,-24.7633 864.266,-21.4051"/>
<polygon fill="green" stroke="green" stroke-width="0.130334" points="864.125,-17.9007 854.042,-21.1548 863.953,-24.8986 864.125,-17.9007"/>
</g>
<!-- player_y_1&#45;&gt;right -->
<g id="edge4" class="edge"><title>player_y_1&#45;&gt;right</title>
<path fill="none" stroke="green" stroke-width="0.459963" d="M1203.97,-407.218C1157.26,-406.16 1061.63,-399.309 991,-363.203 954.787,-344.691 922.478,-310.084 902.839,-285.988"/>
<polygon fill="green" stroke="green" stroke-width="0.459963" points="905.403,-283.59 896.436,-277.947 899.928,-287.95 905.403,-283.59"/>
</g>
<!-- player_y_1&#45;&gt;select -->
<g id="edge64" class="edge"><title>player_y_1&#45;&gt;select</title>
<path fill="none" stroke="red" stroke-width="0.184098" stroke-dasharray="1,5" d="M1203.63,-406.646C1068.41,-403.854 494.702,-390.43 469,-363.203 449.626,-342.679 463.47,-310.409 478.13,-287.341"/>
<polygon fill="red" stroke="red" stroke-width="0.184098" points="481.063,-289.251 483.72,-278.994 475.247,-285.355 481.063,-289.251"/>
</g>
<!-- 232 -->
<g id="node18" class="node"><title>232</title>
<ellipse fill="white" stroke="black" cx="1281" cy="-341.99" rx="21.4286" ry="21.4286"/>
<text text-anchor="middle" x="1281" y="-339.79" font-family="Times,serif" font-size="9.00">232</text>
</g>
<!-- player_y_1&#45;&gt;232 -->
<g id="edge56" class="edge"><title>player_y_1&#45;&gt;232</title>
<path fill="none" stroke="green" stroke-width="0.469659" d="M1238.21,-399.07C1244.24,-391.164 1253.71,-378.751 1262.21,-367.611"/>
<polygon fill="green" stroke="green" stroke-width="0.469659" points="1265.17,-369.51 1268.45,-359.436 1259.6,-365.263 1265.17,-369.51"/>
</g>
<!-- 203 -->
<g id="node19" class="node"><title>203</title>
<ellipse fill="white" stroke="black" cx="499" cy="-341.99" rx="21.4286" ry="21.4286"/>
<text text-anchor="middle" x="499" y="-339.79" font-family="Times,serif" font-size="9.00">203</text>
</g>
<!-- player_y_1&#45;&gt;203 -->
<g id="edge50" class="edge"><title>player_y_1&#45;&gt;203</title>
<path fill="none" stroke="green" stroke-width="0.160658" d="M1203.74,-407.398C1088.87,-407.89 657.081,-406.746 529,-363.203 527.324,-362.633 525.653,-361.944 524.007,-361.168"/>
<polygon fill="green" stroke="green" stroke-width="0.160658" points="525.4,-357.933 514.98,-356.013 521.928,-364.012 525.4,-357.933"/>
</g>
<!-- player_y_1&#45;&gt;57 -->
<g id="edge79" class="edge"><title>player_y_1&#45;&gt;57</title>
<path fill="none" stroke="green" stroke-width="0.117249" d="M1260.28,-399.54C1278.24,-393.043 1300.1,-381.746 1311,-363.203 1320.55,-346.946 1322.03,-336.074 1311,-320.777 1281.42,-279.731 1244.69,-313.443 1203,-284.777 1178.2,-267.722 1185.79,-247.967 1160,-232.451 1079.55,-184.057 964.639,-176.6 911.706,-175.922"/>
<polygon fill="green" stroke="green" stroke-width="0.117249" points="911.699,-172.422 901.68,-175.867 911.661,-179.422 911.699,-172.422"/>
</g>
<!-- player_x_2 -->
<g id="node8" class="node"><title>player_x_2</title>
<polygon fill="lightgray" stroke="black" points="1128,-350.99 1072,-350.99 1072,-332.99 1128,-332.99 1128,-350.99"/>
<text text-anchor="middle" x="1100" y="-339.79" font-family="Times,serif" font-size="9.00">player_x_2</text>
</g>
<!-- player_x_2&#45;&gt;attack -->
<g id="edge77" class="edge"><title>player_x_2&#45;&gt;attack</title>
<path fill="none" stroke="green" stroke-width="0.590803" d="M1087.86,-332.834C1080.88,-328.545 1071.78,-323.604 1063,-320.777 977.384,-293.201 704.37,-270.03 605.33,-262.334"/>
<polygon fill="green" stroke="green" stroke-width="0.590803" points="605.454,-258.833 595.215,-261.555 604.916,-265.812 605.454,-258.833"/>
</g>
<!-- player_x_2&#45;&gt;up -->
<g id="edge16" class="edge"><title>player_x_2&#45;&gt;up</title>
<path fill="none" stroke="green" stroke-width="0.211711" d="M1093.71,-332.647C1071.63,-303.874 994.384,-207.612 910,-154.024 870.309,-128.819 817.668,-112.568 785.896,-104.32"/>
<polygon fill="green" stroke="green" stroke-width="0.211711" points="786.521,-100.869 775.97,-101.829 784.817,-107.658 786.521,-100.869"/>
</g>
<!-- player_x_2&#45;&gt;down -->
<g id="edge34" class="edge"><title>player_x_2&#45;&gt;down</title>
<path fill="none" stroke="green" stroke-width="0.286046" stroke-dasharray="1,5" d="M1102.49,-332.89C1105.32,-323.679 1110.12,-308.037 1114.57,-293.565"/>
<polygon fill="green" stroke="green" stroke-width="0.286046" points="1117.97,-294.413 1117.56,-283.826 1111.28,-292.357 1117.97,-294.413"/>
</g>
<!-- player_x_2&#45;&gt;left -->
<g id="edge68" class="edge"><title>player_x_2&#45;&gt;left</title>
<path fill="none" stroke="green" stroke-width="0.542115" d="M1117.46,-332.874C1154.33,-314.636 1239.39,-266.456 1272,-196.451 1281.16,-176.794 1276.1,-85.2776 1267,-75.598 1239.36,-46.1843 957.794,-27.7727 864.122,-22.4242"/>
<polygon fill="green" stroke="green" stroke-width="0.542115" points="864.088,-18.9168 853.907,-21.8504 863.695,-25.9058 864.088,-18.9168"/>
</g>
<!-- player_x_2&#45;&gt;right -->
<g id="edge18" class="edge"><title>player_x_2&#45;&gt;right</title>
<path fill="none" stroke="red" stroke-width="0.760683" stroke-dasharray="1,5" d="M1086.58,-332.927C1079.67,-328.97 1071.04,-324.308 1063,-320.777 1012.59,-298.64 951.445,-279.382 914.962,-268.651"/>
<polygon fill="red" stroke="red" stroke-width="0.760683" points="915.934,-265.289 905.355,-265.855 913.978,-272.01 915.934,-265.289"/>
</g>
<!-- player_x_2&#45;&gt;select -->
<g id="edge43" class="edge"><title>player_x_2&#45;&gt;select</title>
<path fill="none" stroke="green" stroke-width="0.11134" d="M1088.25,-332.852C1081.24,-328.455 1071.99,-323.402 1063,-320.777 836.783,-254.753 755.718,-364.616 534,-284.777 531.448,-283.858 528.916,-282.694 526.451,-281.374"/>
<polygon fill="green" stroke="green" stroke-width="0.11134" points="528.237,-278.364 517.895,-276.064 524.546,-284.311 528.237,-278.364"/>
</g>
<!-- player_y_2 -->
<g id="node9" class="node"><title>player_y_2</title>
<polygon fill="lightgray" stroke="black" points="1452,-350.99 1396,-350.99 1396,-332.99 1452,-332.99 1452,-350.99"/>
<text text-anchor="middle" x="1424" y="-339.79" font-family="Times,serif" font-size="9.00">player_y_2</text>
</g>
<!-- player_y_2&#45;&gt;attack -->
<g id="edge51" class="edge"><title>player_y_2&#45;&gt;attack</title>
<path fill="none" stroke="red" stroke-width="0.108367" d="M1395.79,-335.144C1373,-330.615 1340.06,-324.503 1311,-320.777 1107.6,-294.69 1055.35,-301.89 851,-284.777 762.604,-277.374 658.695,-267.903 605.075,-262.959"/>
<polygon fill="red" stroke="red" stroke-width="0.108367" points="605.32,-259.467 595.04,-262.033 604.676,-266.438 605.32,-259.467"/>
</g>
<!-- player_y_2&#45;&gt;up -->
<g id="edge35" class="edge"><title>player_y_2&#45;&gt;up</title>
<path fill="none" stroke="green" stroke-width="0.110514" stroke-dasharray="1,5" d="M1407.74,-332.904C1400,-329.118 1390.57,-324.608 1382,-320.777 1343.8,-303.696 1330.92,-306.25 1295,-284.777 1263.47,-265.923 1259.95,-255.078 1231,-232.451 1185.11,-196.58 1179.73,-176.522 1126,-154.024 1007.09,-104.233 850.077,-97.906 786.521,-97.5398"/>
<polygon fill="green" stroke="green" stroke-width="0.110514" points="786.459,-94.0398 776.455,-97.5288 786.451,-101.04 786.459,-94.0398"/>
</g>
<!-- player_y_2&#45;&gt;down -->
<g id="edge9" class="edge"><title>player_y_2&#45;&gt;down</title>
<path fill="none" stroke="red" stroke-width="0.377604" d="M1395.87,-333.334C1341.04,-318.411 1219.99,-285.467 1160.05,-269.152"/>
<polygon fill="red" stroke="red" stroke-width="0.377604" points="1160.85,-265.744 1150.28,-266.495 1159.01,-272.498 1160.85,-265.744"/>
</g>
<!-- player_y_2&#45;&gt;left -->
<g id="edge26" class="edge"><title>player_y_2&#45;&gt;left</title>
<path fill="none" stroke="green" stroke-width="0.174966" stroke-dasharray="1,5" d="M1422.6,-332.62C1415.82,-294.971 1382.66,-140.326 1286,-75.598 1216.57,-29.1054 953.569,-22.0301 864.048,-20.9758"/>
<polygon fill="green" stroke="green" stroke-width="0.174966" points="864.05,-17.4758 854.015,-20.8749 863.98,-24.4754 864.05,-17.4758"/>
</g>
<!-- player_y_2&#45;&gt;right -->
<g id="edge58" class="edge"><title>player_y_2&#45;&gt;right</title>
<path fill="none" stroke="green" stroke-width="0.580778" d="M1395.72,-335.647C1372.89,-331.403 1339.92,-325.429 1311,-320.777 1164.38,-297.195 988.757,-273.532 916.529,-263.998"/>
<polygon fill="green" stroke="green" stroke-width="0.580778" points="916.612,-260.479 906.241,-262.643 915.698,-267.419 916.612,-260.479"/>
</g>
<!-- 143 -->
<g id="node20" class="node"><title>143</title>
<ellipse fill="white" stroke="black" cx="1237" cy="-96.8112" rx="21.4286" ry="21.4286"/>
<text text-anchor="middle" x="1237" y="-94.6112" font-family="Times,serif" font-size="9.00">143</text>
</g>
<!-- player_y_2&#45;&gt;143 -->
<g id="edge80" class="edge"><title>player_y_2&#45;&gt;143</title>
<path fill="none" stroke="red" stroke-width="0.198892" d="M1417.77,-332.81C1403.96,-314.705 1369.77,-269.88 1341,-232.451 1311.28,-193.78 1276.63,-148.978 1255.77,-122.044"/>
<polygon fill="red" stroke="red" stroke-width="0.198892" points="1258.4,-119.721 1249.51,-113.957 1252.87,-124.007 1258.4,-119.721"/>
</g>
<!-- 126 -->
<g id="node24" class="node"><title>126</title>
<ellipse fill="white" stroke="black" cx="1242" cy="-175.238" rx="21.4286" ry="21.4286"/>
<text text-anchor="middle" x="1242" y="-173.038" font-family="Times,serif" font-size="9.00">126</text>
</g>
<!-- player_y_2&#45;&gt;126 -->
<g id="edge54" class="edge"><title>player_y_2&#45;&gt;126</title>
<path fill="none" stroke="green" stroke-width="0.228371" d="M1413.49,-332.866C1399.77,-322.16 1375.13,-302.594 1355,-284.777 1322.38,-255.911 1286.36,-220.692 1263.95,-198.361"/>
<polygon fill="green" stroke="green" stroke-width="0.228371" points="1266.17,-195.627 1256.62,-191.031 1261.22,-200.577 1266.17,-195.627"/>
</g>
<!-- distance_1 -->
<g id="node10" class="node"><title>distance_1</title>
<polygon fill="lightgray" stroke="black" points="808,-350.99 754,-350.99 754,-332.99 808,-332.99 808,-350.99"/>
<text text-anchor="middle" x="781" y="-339.79" font-family="Times,serif" font-size="9.00">distance_1</text>
</g>
<!-- distance_1&#45;&gt;attack -->
<g id="edge38" class="edge"><title>distance_1&#45;&gt;attack</title>
<path fill="none" stroke="green" stroke-width="0.331054" d="M767.564,-332.957C760.659,-329.007 752.027,-324.343 744,-320.777 696.619,-299.724 639.57,-280.947 603.784,-269.919"/>
<polygon fill="green" stroke="green" stroke-width="0.331054" points="604.424,-266.455 593.838,-266.884 602.381,-273.15 604.424,-266.455"/>
</g>
<!-- distance_1&#45;&gt;up -->
<g id="edge19" class="edge"><title>distance_1&#45;&gt;up</title>
<path fill="none" stroke="red" stroke-width="0.238146" d="M780.235,-332.899C777.18,-300.603 765.776,-180.028 760.593,-125.228"/>
<polygon fill="red" stroke="red" stroke-width="0.238146" points="764.07,-124.816 759.644,-115.19 757.101,-125.475 764.07,-124.816"/>
</g>
<!-- distance_1&#45;&gt;down -->
<g id="edge2" class="edge"><title>distance_1&#45;&gt;down</title>
<path fill="none" stroke="red" stroke-width="0.104409" d="M793.193,-332.866C799.956,-328.695 808.663,-323.856 817,-320.777 911.36,-285.923 1029.7,-269.538 1088.44,-263.105"/>
<polygon fill="red" stroke="red" stroke-width="0.104409" points="1089.12,-266.552 1098.69,-262.017 1088.38,-259.591 1089.12,-266.552"/>
</g>
<!-- distance_1&#45;&gt;left -->
<g id="edge21" class="edge"><title>distance_1&#45;&gt;left</title>
<path fill="none" stroke="red" stroke-width="0.2971" d="M782.363,-332.753C788.961,-292.893 817.728,-119.105 829.226,-49.6408"/>
<polygon fill="red" stroke="red" stroke-width="0.2971" points="832.737,-49.8617 830.917,-39.4244 825.831,-48.7185 832.737,-49.8617"/>
</g>
<!-- distance_1&#45;&gt;right -->
<g id="edge31" class="edge"><title>distance_1&#45;&gt;right</title>
<path fill="none" stroke="green" stroke-width="0.144747" d="M791.153,-332.89C806.367,-320.752 835.576,-297.449 856.985,-280.369"/>
<polygon fill="green" stroke="green" stroke-width="0.144747" points="859.413,-282.909 865.047,-273.937 855.047,-277.437 859.413,-282.909"/>
</g>
<!-- distance_1&#45;&gt;select -->
<g id="edge46" class="edge"><title>distance_1&#45;&gt;select</title>
<path fill="none" stroke="red" stroke-width="0.208684" d="M768.47,-332.789C761.521,-328.595 752.572,-323.76 744,-320.777 654.566,-289.654 621.346,-321.352 534,-284.777 531.498,-283.729 529.002,-282.473 526.562,-281.09"/>
<polygon fill="red" stroke="red" stroke-width="0.208684" points="528.365,-278.088 518.052,-275.662 524.601,-283.99 528.365,-278.088"/>
</g>
<!-- distance_2 -->
<g id="node11" class="node"><title>distance_2</title>
<polygon fill="lightgray" stroke="black" points="1054,-350.99 1000,-350.99 1000,-332.99 1054,-332.99 1054,-350.99"/>
<text text-anchor="middle" x="1027" y="-339.79" font-family="Times,serif" font-size="9.00">distance_2</text>
</g>
<!-- distance_2&#45;&gt;attack -->
<g id="edge25" class="edge"><title>distance_2&#45;&gt;attack</title>
<path fill="none" stroke="green" stroke-width="0.145754" d="M999.722,-336.143C920.981,-322.153 693.312,-281.701 604.797,-265.974"/>
<polygon fill="green" stroke="green" stroke-width="0.145754" points="605.169,-262.485 594.711,-264.182 603.945,-269.378 605.169,-262.485"/>
</g>
<!-- distance_2&#45;&gt;up -->
<g id="edge5" class="edge"><title>distance_2&#45;&gt;up</title>
<path fill="none" stroke="green" stroke-width="0.184164" d="M1019.67,-332.726C1002.54,-313.678 958.036,-265.767 915,-232.451 890.71,-213.646 880.111,-215.484 856,-196.451 825.724,-172.55 795.063,-140.056 776.293,-119.008"/>
<polygon fill="green" stroke="green" stroke-width="0.184164" points="778.715,-116.463 769.475,-111.278 773.465,-121.093 778.715,-116.463"/>
</g>
<!-- distance_2&#45;&gt;down -->
<g id="edge67" class="edge"><title>distance_2&#45;&gt;down</title>
<path fill="none" stroke="green" stroke-width="0.108564" d="M1036.75,-332.89C1050.77,-321.249 1077.16,-299.338 1097.44,-282.497"/>
<polygon fill="green" stroke="green" stroke-width="0.108564" points="1099.7,-285.175 1105.15,-276.094 1095.22,-279.789 1099.7,-285.175"/>
</g>
<!-- distance_2&#45;&gt;left -->
<g id="edge47" class="edge"><title>distance_2&#45;&gt;left</title>
<path fill="none" stroke="green" stroke-width="0.363977" d="M1022.04,-332.753C997.579,-292.179 889.48,-112.841 849.198,-46.0122"/>
<polygon fill="green" stroke="green" stroke-width="0.363977" points="852.14,-44.1129 843.98,-37.3553 846.144,-47.7266 852.14,-44.1129"/>
</g>
<!-- distance_2&#45;&gt;right -->
<g id="edge32" class="edge"><title>distance_2&#45;&gt;right</title>
<path fill="none" stroke="red" stroke-width="0.279678" d="M1011.13,-332.932C985.636,-319.943 936.733,-294.818 920,-284.777 916.744,-282.823 913.383,-280.698 910.076,-278.539"/>
<polygon fill="red" stroke="red" stroke-width="0.279678" points="911.811,-275.489 901.554,-272.835 907.918,-281.306 911.811,-275.489"/>
</g>
<!-- distance_2&#45;&gt;select -->
<g id="edge13" class="edge"><title>distance_2&#45;&gt;select</title>
<path fill="none" stroke="red" stroke-width="0.358704" d="M999.933,-337.099C969.918,-332.841 920.049,-325.935 877,-320.777 724.807,-302.54 677.242,-339.34 534,-284.777 531.465,-283.811 528.946,-282.614 526.489,-281.271"/>
<polygon fill="red" stroke="red" stroke-width="0.358704" points="528.281,-278.264 517.949,-275.919 524.564,-284.195 528.281,-278.264"/>
</g>
<!-- right&#45;&gt;57 -->
<g id="edge29" class="edge"><title>right&#45;&gt;57</title>
<path fill="none" stroke="green" stroke-width="0.141773" d="M883,-234.946C883,-225.243 883,-213.826 883,-203.652"/>
<polygon fill="green" stroke="green" stroke-width="0.141773" points="886.5,-203.625 883,-193.625 879.5,-203.625 886.5,-203.625"/>
</g>
<!-- 232&#45;&gt;down -->
<g id="edge24" class="edge"><title>232&#45;&gt;down</title>
<path fill="none" stroke="red" stroke-width="0.454763" d="M1263.03,-330.13C1257.62,-326.991 1251.63,-323.642 1246,-320.777 1210.89,-302.901 1199.76,-303.313 1165,-284.777 1161.86,-283.105 1158.64,-281.278 1155.46,-279.397"/>
<polygon fill="red" stroke="red" stroke-width="0.454763" points="1157.03,-276.256 1146.67,-274.036 1153.38,-282.232 1157.03,-276.256"/>
</g>
<!-- 203&#45;&gt;select -->
<g id="edge66" class="edge"><title>203&#45;&gt;select</title>
<path fill="none" stroke="green" stroke-width="0.121035" d="M499,-320.455C499,-312.536 499,-303.255 499,-294.36"/>
<polygon fill="green" stroke="green" stroke-width="0.121035" points="502.5,-294.202 499,-284.202 495.5,-294.202 502.5,-294.202"/>
</g>
<!-- 143&#45;&gt;left -->
<g id="edge65" class="edge"><title>143&#45;&gt;left</title>
<path fill="none" stroke="red" stroke-width="0.159479" d="M1219.82,-84.1722C1214.33,-80.9339 1208.1,-77.7251 1202,-75.598 1081.51,-33.5479 927.813,-23.764 863.93,-21.4883"/>
<polygon fill="red" stroke="red" stroke-width="0.159479" points="863.875,-17.9849 853.769,-21.1639 863.652,-24.9813 863.875,-17.9849"/>
</g>
<!-- 176&#45;&gt;attack -->
<g id="edge72" class="edge"><title>176&#45;&gt;attack</title>
<path fill="none" stroke="red" stroke-width="0.330058" d="M561.472,-320.874C562.436,-313.026 563.571,-303.792 564.663,-294.907"/>
<polygon fill="red" stroke="red" stroke-width="0.330058" points="568.166,-295.094 565.912,-284.742 561.218,-294.24 568.166,-295.094"/>
</g>
<!-- 57&#45;&gt;up -->
<g id="edge39" class="edge"><title>57&#45;&gt;up</title>
<path fill="none" stroke="red" stroke-width="0.284686" d="M867.673,-164.866C846.306,-151.802 807.353,-127.986 782.085,-112.537"/>
<polygon fill="red" stroke="red" stroke-width="0.284686" points="783.81,-109.49 773.453,-107.259 780.159,-115.462 783.81,-109.49"/>
</g>
<!-- 57&#45;&gt;143 -->
<g id="edge41" class="edge"><title>57&#45;&gt;143</title>
<path fill="none" stroke="red" stroke-width="0.163315" d="M901.042,-170.343C957.998,-158.046 1134.45,-119.952 1206.19,-104.463"/>
<polygon fill="red" stroke="red" stroke-width="0.163315" points="1207.35,-107.794 1216.38,-102.262 1205.87,-100.952 1207.35,-107.794"/>
</g>
<!-- 156&#45;&gt;right -->
<g id="edge12" class="edge"><title>156&#45;&gt;right</title>
<path fill="none" stroke="green" stroke-width="0.408719" d="M855.35,-322.116C859.623,-312.456 864.927,-300.468 869.742,-289.582"/>
<polygon fill="green" stroke="green" stroke-width="0.408719" points="872.966,-290.946 873.811,-280.385 866.564,-288.114 872.966,-290.946"/>
</g>
<!-- 126&#45;&gt;up -->
<g id="edge22" class="edge"><title>126&#45;&gt;up</title>
<path fill="none" stroke="green" stroke-width="0.104888" d="M1221.62,-168.264C1205.97,-163.845 1183.76,-157.939 1164,-154.024 1023.49,-126.189 852.929,-107.373 786.448,-100.602"/>
<polygon fill="green" stroke="green" stroke-width="0.104888" points="786.636,-97.1031 776.336,-99.5835 785.935,-104.068 786.636,-97.1031"/>
</g>
</g>
</svg>
