<?xml version="1.0" encoding="UTF-8" standalone="no"?>
<!DOCTYPE svg PUBLIC "-//W3C//DTD SVG 1.1//EN"
 "http://www.w3.org/Graphics/SVG/1.1/DTD/svg11.dtd">
<!-- Generated by graphviz version 2.38.0 (20140413.2041)
 -->
<!-- Title: %3 Pages: 1 -->
<svg width="2040pt" height="515pt"
 viewBox="0.00 0.00 2040.00 514.94" xmlns="http://www.w3.org/2000/svg" xmlns:xlink="http://www.w3.org/1999/xlink">
<g id="graph0" class="graph" transform="scale(1 1) rotate(0) translate(4 510.943)">
<title>%3</title>
<polygon fill="white" stroke="none" points="-4,4 -4,-510.943 2036,-510.943 2036,4 -4,4"/>
<!-- enemy_hp -->
<g id="node1" class="node"><title>enemy_hp</title>
<polygon fill="lightgray" stroke="black" points="961.5,-283.877 908.5,-283.877 908.5,-265.877 961.5,-265.877 961.5,-283.877"/>
<text text-anchor="middle" x="935" y="-272.677" font-family="Times,serif" font-size="9.00">enemy_hp</text>
</g>
<!-- attack -->
<g id="node12" class="node"><title>attack</title>
<ellipse fill="lightblue" stroke="black" cx="1529" cy="-191.501" rx="26.3269" ry="26.3269"/>
<text text-anchor="middle" x="1529" y="-189.301" font-family="Times,serif" font-size="9.00">attack</text>
</g>
<!-- enemy_hp&#45;&gt;attack -->
<g id="edge3" class="edge"><title>enemy_hp&#45;&gt;attack</title>
<path fill="none" stroke="red" stroke-width="0.292291" d="M961.767,-270.767C1030.38,-262.726 1218.12,-240.291 1374,-217.664 1414.96,-211.718 1461.86,-203.973 1493.24,-198.655"/>
<polygon fill="red" stroke="red" stroke-width="0.292291" points="1493.99,-202.079 1503.26,-196.951 1492.82,-195.178 1493.99,-202.079"/>
</g>
<!-- up -->
<g id="node13" class="node"><title>up</title>
<ellipse fill="lightblue" stroke="black" cx="342" cy="-191.501" rx="18.2703" ry="18.2703"/>
<text text-anchor="middle" x="342" y="-189.301" font-family="Times,serif" font-size="9.00">up</text>
</g>
<!-- enemy_hp&#45;&gt;up -->
<g id="edge78" class="edge"><title>enemy_hp&#45;&gt;up</title>
<path fill="none" stroke="red" stroke-width="0.252138" d="M923.552,-265.873C916.736,-261.52 907.736,-256.467 899,-253.664 886.239,-249.57 482.557,-207.186 370.562,-195.481"/>
<polygon fill="red" stroke="red" stroke-width="0.252138" points="370.679,-191.975 360.37,-194.417 369.952,-198.937 370.679,-191.975"/>
</g>
<!-- down -->
<g id="node14" class="node"><title>down</title>
<ellipse fill="lightblue" stroke="black" cx="617" cy="-191.501" rx="26.3269" ry="26.3269"/>
<text text-anchor="middle" x="617" y="-189.301" font-family="Times,serif" font-size="9.00">down</text>
</g>
<!-- enemy_hp&#45;&gt;down -->
<g id="edge77" class="edge"><title>enemy_hp&#45;&gt;down</title>
<path fill="none" stroke="green" stroke-width="0.180703" d="M922.785,-265.812C916.016,-261.658 907.31,-256.817 899,-253.664 814.031,-221.429 707.88,-204.166 653.233,-196.843"/>
<polygon fill="green" stroke="green" stroke-width="0.180703" points="653.38,-193.333 643.012,-195.509 652.475,-200.274 653.38,-193.333"/>
</g>
<!-- left -->
<g id="node15" class="node"><title>left</title>
<ellipse fill="lightblue" stroke="black" cx="1345" cy="-191.501" rx="19.6" ry="19.6"/>
<text text-anchor="middle" x="1345" y="-189.301" font-family="Times,serif" font-size="9.00">left</text>
</g>
<!-- enemy_hp&#45;&gt;left -->
<g id="edge42" class="edge"><title>enemy_hp&#45;&gt;left</title>
<path fill="none" stroke="red" stroke-width="0.148179" d="M961.585,-268.601C1034.8,-254.069 1239,-213.54 1315.53,-198.35"/>
<polygon fill="red" stroke="red" stroke-width="0.148179" points="1316.33,-201.76 1325.46,-196.38 1314.97,-194.894 1316.33,-201.76"/>
</g>
<!-- right -->
<g id="node16" class="node"><title>right</title>
<ellipse fill="lightblue" stroke="black" cx="1021" cy="-191.501" rx="23.1702" ry="23.1702"/>
<text text-anchor="middle" x="1021" y="-189.301" font-family="Times,serif" font-size="9.00">right</text>
</g>
<!-- enemy_hp&#45;&gt;right -->
<g id="edge47" class="edge"><title>enemy_hp&#45;&gt;right</title>
<path fill="none" stroke="green" stroke-width="0.528322" d="M943.56,-265.777C955.792,-254.203 978.754,-232.475 996.511,-215.673"/>
<polygon fill="green" stroke="green" stroke-width="0.528322" points="999.388,-217.77 1004.25,-208.354 994.577,-212.685 999.388,-217.77"/>
</g>
<!-- select -->
<g id="node17" class="node"><title>select</title>
<ellipse fill="lightblue" stroke="black" cx="917" cy="-25.4558" rx="25.4118" ry="25.4118"/>
<text text-anchor="middle" x="917" y="-23.2558" font-family="Times,serif" font-size="9.00">select</text>
</g>
<!-- enemy_hp&#45;&gt;select -->
<g id="edge54" class="edge"><title>enemy_hp&#45;&gt;select</title>
<path fill="none" stroke="red" stroke-width="0.750344" stroke-dasharray="1,5" d="M934.401,-265.645C932.104,-234.07 923.773,-119.558 919.526,-61.184"/>
<polygon fill="red" stroke="red" stroke-width="0.750344" points="923,-60.6899 918.783,-50.9703 916.018,-61.1979 923,-60.6899"/>
</g>
<!-- 228 -->
<g id="node18" class="node"><title>228</title>
<ellipse fill="white" stroke="black" cx="966" cy="-108.125" rx="21.4286" ry="21.4286"/>
<text text-anchor="middle" x="966" y="-105.925" font-family="Times,serif" font-size="9.00">228</text>
</g>
<!-- enemy_hp&#45;&gt;228 -->
<g id="edge85" class="edge"><title>enemy_hp&#45;&gt;228</title>
<path fill="none" stroke="red" stroke-width="0.187031" d="M936.58,-265.481C940.899,-242.524 953.067,-177.86 960.33,-139.258"/>
<polygon fill="red" stroke="red" stroke-width="0.187031" points="963.829,-139.592 962.238,-129.117 956.949,-138.297 963.829,-139.592"/>
</g>
<!-- player_hp_1 -->
<g id="node2" class="node"><title>player_hp_1</title>
<polygon fill="lightgray" stroke="black" points="1028.5,-440.73 967.5,-440.73 967.5,-422.73 1028.5,-422.73 1028.5,-440.73"/>
<text text-anchor="middle" x="998" y="-429.53" font-family="Times,serif" font-size="9.00">player_hp_1</text>
</g>
<!-- player_hp_1&#45;&gt;attack -->
<g id="edge13" class="edge"><title>player_hp_1&#45;&gt;attack</title>
<path fill="none" stroke="red" stroke-width="0.193728" d="M1028.62,-430.592C1155.72,-429.709 1637.2,-423.154 1682,-374.517 1709.71,-344.432 1655.54,-259.67 1650,-253.664 1626.65,-228.351 1590.47,-211.994 1563.75,-202.624"/>
<polygon fill="red" stroke="red" stroke-width="0.193728" points="1564.61,-199.222 1554.02,-199.37 1562.39,-205.861 1564.61,-199.222"/>
</g>
<!-- player_hp_1&#45;&gt;up -->
<g id="edge64" class="edge"><title>player_hp_1&#45;&gt;up</title>
<path fill="none" stroke="green" stroke-width="0.217668" stroke-dasharray="1,5" d="M967.276,-429.7C834.972,-425.092 317.569,-405.238 252,-374.517 194.543,-347.596 139.709,-305.711 176,-253.664 207.151,-208.988 274.796,-196.858 313.43,-193.622"/>
<polygon fill="green" stroke="green" stroke-width="0.217668" points="313.768,-197.107 323.503,-192.925 313.285,-190.124 313.768,-197.107"/>
</g>
<!-- player_hp_1&#45;&gt;down -->
<g id="edge51" class="edge"><title>player_hp_1&#45;&gt;down</title>
<path fill="none" stroke="green" stroke-width="0.223018" d="M967.381,-429.584C864.083,-425.406 533.136,-409.381 502,-374.517 466.222,-334.455 474.339,-299.706 502,-253.664 519.142,-225.131 554.591,-209.19 581.627,-200.793"/>
<polygon fill="green" stroke="green" stroke-width="0.223018" points="582.886,-204.072 591.521,-197.933 580.943,-197.347 582.886,-204.072"/>
</g>
<!-- player_hp_1&#45;&gt;left -->
<g id="edge36" class="edge"><title>player_hp_1&#45;&gt;left</title>
<path fill="none" stroke="green" stroke-width="0.187742" stroke-dasharray="1,5" d="M1028.7,-425.378C1115.08,-409.606 1356.72,-360.353 1399,-296.09 1417.45,-268.052 1389.48,-232.976 1367.4,-211.677"/>
<polygon fill="green" stroke="green" stroke-width="0.187742" points="1369.63,-208.978 1359.92,-204.753 1364.88,-214.114 1369.63,-208.978"/>
</g>
<!-- player_hp_1&#45;&gt;right -->
<g id="edge34" class="edge"><title>player_hp_1&#45;&gt;right</title>
<path fill="none" stroke="red" stroke-width="0.432078" d="M998.792,-422.53C1001.78,-391.554 1012.49,-280.611 1017.87,-224.902"/>
<polygon fill="red" stroke="red" stroke-width="0.432078" points="1021.36,-225.145 1018.84,-214.855 1014.4,-224.473 1021.36,-225.145"/>
</g>
<!-- player_hp_1&#45;&gt;select -->
<g id="edge9" class="edge"><title>player_hp_1&#45;&gt;select</title>
<path fill="none" stroke="green" stroke-width="0.155268" d="M967.133,-430.34C837.192,-428.434 334.399,-418.317 183,-374.517 94.2436,-348.839 0,-368.273 0,-275.877 0,-275.877 0,-275.877 0,-190.501 0,-45.656 167.376,-117.288 309,-86.9117 522.968,-41.0181 786.919,-29.8315 881.343,-27.2177"/>
<polygon fill="green" stroke="green" stroke-width="0.155268" points="881.587,-30.7126 891.492,-26.9522 881.404,-23.715 881.587,-30.7126"/>
</g>
<!-- 295 -->
<g id="node19" class="node"><title>295</title>
<ellipse fill="white" stroke="black" cx="1047" cy="-353.304" rx="21.4286" ry="21.4286"/>
<text text-anchor="middle" x="1047" y="-351.104" font-family="Times,serif" font-size="9.00">295</text>
</g>
<!-- player_hp_1&#45;&gt;295 -->
<g id="edge50" class="edge"><title>player_hp_1&#45;&gt;295</title>
<path fill="none" stroke="green" stroke-width="0.433965" d="M1003.24,-422.551C1009.66,-412.538 1020.85,-395.092 1030.3,-380.346"/>
<polygon fill="green" stroke="green" stroke-width="0.433965" points="1033.46,-381.912 1035.91,-371.604 1027.56,-378.133 1033.46,-381.912"/>
</g>
<!-- 255 -->
<g id="node20" class="node"><title>255</title>
<ellipse fill="white" stroke="black" cx="1369" cy="-274.877" rx="21.4286" ry="21.4286"/>
<text text-anchor="middle" x="1369" y="-272.677" font-family="Times,serif" font-size="9.00">255</text>
</g>
<!-- player_hp_1&#45;&gt;255 -->
<g id="edge33" class="edge"><title>player_hp_1&#45;&gt;255</title>
<path fill="none" stroke="green" stroke-width="0.173531" stroke-dasharray="1,5" d="M1021.3,-422.692C1076.63,-403.33 1219.83,-351.582 1334,-296.09 1336.75,-294.753 1339.58,-293.285 1342.38,-291.77"/>
<polygon fill="green" stroke="green" stroke-width="0.173531" points="1344.1,-294.82 1351.1,-286.87 1340.67,-288.718 1344.1,-294.82"/>
</g>
<!-- 12 -->
<g id="node23" class="node"><title>12</title>
<ellipse fill="white" stroke="black" cx="405" cy="-353.304" rx="18.2703" ry="18.2703"/>
<text text-anchor="middle" x="405" y="-351.104" font-family="Times,serif" font-size="9.00">12</text>
</g>
<!-- player_hp_1&#45;&gt;12 -->
<g id="edge40" class="edge"><title>player_hp_1&#45;&gt;12</title>
<path fill="none" stroke="green" stroke-width="0.494804" d="M967.208,-429.906C884.71,-427.182 652.194,-416.102 464,-374.517 453.057,-372.099 441.319,-368.332 431.217,-364.702"/>
<polygon fill="green" stroke="green" stroke-width="0.494804" points="432.343,-361.387 421.75,-361.173 429.898,-367.946 432.343,-361.387"/>
</g>
<!-- player_hp_2 -->
<g id="node3" class="node"><title>player_hp_2</title>
<polygon fill="lightgray" stroke="black" points="741.5,-283.877 680.5,-283.877 680.5,-265.877 741.5,-265.877 741.5,-283.877"/>
<text text-anchor="middle" x="711" y="-272.677" font-family="Times,serif" font-size="9.00">player_hp_2</text>
</g>
<!-- player_hp_2&#45;&gt;attack -->
<g id="edge87" class="edge"><title>player_hp_2&#45;&gt;attack</title>
<path fill="none" stroke="red" stroke-width="0.14109" d="M723.787,-265.711C731.383,-261.305 741.383,-256.251 751,-253.664 1018.83,-181.609 1098.31,-247.926 1374,-217.664 1415.15,-213.147 1462.01,-205.137 1493.33,-199.366"/>
<polygon fill="red" stroke="red" stroke-width="0.14109" points="1494.14,-202.775 1503.33,-197.502 1492.86,-195.894 1494.14,-202.775"/>
</g>
<!-- player_hp_2&#45;&gt;up -->
<g id="edge31" class="edge"><title>player_hp_2&#45;&gt;up</title>
<path fill="none" stroke="red" stroke-width="0.592684" stroke-dasharray="1,5" d="M697.353,-265.76C689.811,-261.591 680.14,-256.753 671,-253.664 563.449,-217.323 428.4,-200.825 370.494,-195.051"/>
<polygon fill="red" stroke="red" stroke-width="0.592684" points="370.578,-191.543 360.288,-194.066 369.905,-198.51 370.578,-191.543"/>
</g>
<!-- player_hp_2&#45;&gt;down -->
<g id="edge69" class="edge"><title>player_hp_2&#45;&gt;down</title>
<path fill="none" stroke="green" stroke-width="0.323785" stroke-dasharray="1,5" d="M701.643,-265.777C688.338,-254.258 663.416,-232.684 644.047,-215.916"/>
<polygon fill="green" stroke="green" stroke-width="0.323785" points="646.253,-213.196 636.402,-209.297 641.672,-218.489 646.253,-213.196"/>
</g>
<!-- player_hp_2&#45;&gt;left -->
<g id="edge10" class="edge"><title>player_hp_2&#45;&gt;left</title>
<path fill="none" stroke="green" stroke-width="0.118249" d="M723.832,-265.873C731.443,-261.52 741.443,-256.467 751,-253.664 805.511,-237.679 1202.1,-204.232 1315.05,-194.941"/>
<polygon fill="green" stroke="green" stroke-width="0.118249" points="1315.4,-198.424 1325.08,-194.119 1314.83,-191.448 1315.4,-198.424"/>
</g>
<!-- player_hp_2&#45;&gt;right -->
<g id="edge48" class="edge"><title>player_hp_2&#45;&gt;right</title>
<path fill="none" stroke="red" stroke-width="0.258945" d="M725.063,-265.702C732.565,-261.619 742.068,-256.877 751,-253.664 833.716,-223.907 936.058,-205.45 987.761,-197.335"/>
<polygon fill="red" stroke="red" stroke-width="0.258945" points="988.351,-200.786 997.702,-195.805 987.286,-193.867 988.351,-200.786"/>
</g>
<!-- player_hp_2&#45;&gt;select -->
<g id="edge86" class="edge"><title>player_hp_2&#45;&gt;select</title>
<path fill="none" stroke="green" stroke-width="0.322627" d="M717.016,-265.85C736.785,-239.58 801.804,-154.015 860,-86.9117 870.343,-74.9853 882.26,-62.2076 892.514,-51.4859"/>
<polygon fill="green" stroke="green" stroke-width="0.322627" points="895.227,-53.7151 899.641,-44.0838 890.184,-48.86 895.227,-53.7151"/>
</g>
<!-- enemy_x -->
<g id="node4" class="node"><title>enemy_x</title>
<polygon fill="lightgray" stroke="black" points="1291.5,-283.877 1242.5,-283.877 1242.5,-265.877 1291.5,-265.877 1291.5,-283.877"/>
<text text-anchor="middle" x="1267" y="-272.677" font-family="Times,serif" font-size="9.00">enemy_x</text>
</g>
<!-- enemy_x&#45;&gt;attack -->
<g id="edge83" class="edge"><title>enemy_x&#45;&gt;attack</title>
<path fill="none" stroke="green" stroke-width="0.70902" d="M1291.65,-266.222C1338.56,-251.651 1440.78,-219.902 1494.48,-203.224"/>
<polygon fill="green" stroke="green" stroke-width="0.70902" points="1495.71,-206.504 1504.23,-200.196 1493.64,-199.819 1495.71,-206.504"/>
</g>
<!-- enemy_x&#45;&gt;down -->
<g id="edge8" class="edge"><title>enemy_x&#45;&gt;down</title>
<path fill="none" stroke="red" stroke-width="0.230811" stroke-dasharray="1,5" d="M1256.26,-265.83C1249.85,-261.463 1241.35,-256.41 1233,-253.664 1177.88,-235.541 777.397,-204.469 653.456,-195.192"/>
<polygon fill="red" stroke="red" stroke-width="0.230811" points="653.571,-191.691 643.339,-194.437 653.051,-198.672 653.571,-191.691"/>
</g>
<!-- enemy_x&#45;&gt;left -->
<g id="edge68" class="edge"><title>enemy_x&#45;&gt;left</title>
<path fill="none" stroke="green" stroke-width="0.384794" d="M1274.76,-265.777C1286.26,-253.784 1308.2,-230.892 1324.52,-213.871"/>
<polygon fill="green" stroke="green" stroke-width="0.384794" points="1327.17,-216.166 1331.56,-206.525 1322.11,-211.322 1327.17,-216.166"/>
</g>
<!-- enemy_x&#45;&gt;right -->
<g id="edge41" class="edge"><title>enemy_x&#45;&gt;right</title>
<path fill="none" stroke="green" stroke-width="0.238545" stroke-dasharray="1,5" d="M1255.12,-265.797C1248.77,-261.74 1240.69,-256.993 1233,-253.664 1171.95,-227.228 1096.16,-208.511 1053.73,-199.206"/>
<polygon fill="green" stroke="green" stroke-width="0.238545" points="1054.45,-195.782 1043.94,-197.098 1052.98,-202.625 1054.45,-195.782"/>
</g>
<!-- enemy_x&#45;&gt;select -->
<g id="edge1" class="edge"><title>enemy_x&#45;&gt;select</title>
<path fill="none" stroke="red" stroke-width="0.26665" d="M1258.23,-265.687C1228.52,-238.186 1128.28,-147.479 1035,-86.9117 1007.22,-68.8734 973.387,-52.0122 949.083,-40.7043"/>
<polygon fill="red" stroke="red" stroke-width="0.26665" points="950.493,-37.5003 939.945,-36.5049 947.57,-43.8608 950.493,-37.5003"/>
</g>
<!-- enemy_y -->
<g id="node5" class="node"><title>enemy_y</title>
<polygon fill="lightgray" stroke="black" points="796.5,-362.304 747.5,-362.304 747.5,-344.304 796.5,-344.304 796.5,-362.304"/>
<text text-anchor="middle" x="772" y="-351.104" font-family="Times,serif" font-size="9.00">enemy_y</text>
</g>
<!-- enemy_y&#45;&gt;attack -->
<g id="edge74" class="edge"><title>enemy_y&#45;&gt;attack</title>
<path fill="none" stroke="red" stroke-width="0.351126" stroke-dasharray="1,5" d="M796.728,-350.282C911.202,-340.898 1384.73,-301.807 1399,-296.09 1441.24,-279.164 1480.77,-243.787 1504.9,-219.111"/>
<polygon fill="red" stroke="red" stroke-width="0.351126" points="1507.48,-221.469 1511.88,-211.828 1502.43,-216.626 1507.48,-221.469"/>
</g>
<!-- enemy_y&#45;&gt;up -->
<g id="edge15" class="edge"><title>enemy_y&#45;&gt;up</title>
<path fill="none" stroke="red" stroke-width="0.352656" d="M747.406,-351.055C658.283,-346.285 355.999,-327.858 328,-296.09 309.101,-274.648 318.756,-240.38 328.983,-217.184"/>
<polygon fill="red" stroke="red" stroke-width="0.352656" points="332.219,-218.528 333.32,-207.99 325.888,-215.541 332.219,-218.528"/>
</g>
<!-- enemy_y&#45;&gt;down -->
<g id="edge92" class="edge"><title>enemy_y&#45;&gt;down</title>
<path fill="none" stroke="red" stroke-width="0.450403" d="M747.337,-348.85C699.828,-341.638 598.485,-323.354 578,-296.09 560.701,-273.068 577.019,-241.503 593.524,-219.285"/>
<polygon fill="red" stroke="red" stroke-width="0.450403" points="596.391,-221.3 599.789,-211.265 590.875,-216.991 596.391,-221.3"/>
</g>
<!-- enemy_y&#45;&gt;left -->
<g id="edge38" class="edge"><title>enemy_y&#45;&gt;left</title>
<path fill="none" stroke="red" stroke-width="0.354405" d="M796.718,-350.367C898.32,-342.316 1279.41,-311.217 1300,-296.09 1323.95,-278.497 1335.32,-245.423 1340.6,-221.368"/>
<polygon fill="red" stroke="red" stroke-width="0.354405" points="1344.07,-221.848 1342.57,-211.36 1337.21,-220.497 1344.07,-221.848"/>
</g>
<!-- enemy_y&#45;&gt;right -->
<g id="edge20" class="edge"><title>enemy_y&#45;&gt;right</title>
<path fill="none" stroke="green" stroke-width="0.218137" d="M796.538,-351.56C837.122,-349.096 918.813,-338.766 970,-296.09 992.13,-277.641 1005.49,-247.254 1012.95,-224.151"/>
<polygon fill="green" stroke="green" stroke-width="0.218137" points="1016.34,-225.019 1015.88,-214.435 1009.64,-222.996 1016.34,-225.019"/>
</g>
<!-- enemy_y&#45;&gt;select -->
<g id="edge55" class="edge"><title>enemy_y&#45;&gt;select</title>
<path fill="none" stroke="green" stroke-width="0.166506" stroke-dasharray="1,5" d="M747.203,-351.233C654.343,-346.975 330.933,-329.808 301,-296.09 262.42,-252.632 285.242,-221.273 301,-165.338 312.082,-126.003 314.459,-108.751 349,-86.9117 438.027,-30.623 770.404,-26.1229 880.972,-26.2218"/>
<polygon fill="green" stroke="green" stroke-width="0.166506" points="881.255,-29.7223 891.263,-26.2452 881.271,-22.7224 881.255,-29.7223"/>
</g>
<!-- 223 -->
<g id="node21" class="node"><title>223</title>
<ellipse fill="white" stroke="black" cx="1603" cy="-274.877" rx="21.4286" ry="21.4286"/>
<text text-anchor="middle" x="1603" y="-272.677" font-family="Times,serif" font-size="9.00">223</text>
</g>
<!-- enemy_y&#45;&gt;223 -->
<g id="edge91" class="edge"><title>enemy_y&#45;&gt;223</title>
<path fill="none" stroke="green" stroke-width="0.295601" d="M796.679,-350.122C840.848,-346.251 936.341,-338.028 1017,-332.09 1140.48,-323 1455.82,-336.069 1573,-296.09 1574.68,-295.519 1576.35,-294.828 1577.99,-294.051"/>
<polygon fill="green" stroke="green" stroke-width="0.295601" points="1580.07,-296.894 1587.02,-288.893 1576.6,-290.816 1580.07,-296.894"/>
</g>
<!-- 20 -->
<g id="node27" class="node"><title>20</title>
<ellipse fill="white" stroke="black" cx="376" cy="-108.125" rx="18.2703" ry="18.2703"/>
<text text-anchor="middle" x="376" y="-105.925" font-family="Times,serif" font-size="9.00">20</text>
</g>
<!-- enemy_y&#45;&gt;20 -->
<g id="edge12" class="edge"><title>enemy_y&#45;&gt;20</title>
<path fill="none" stroke="red" stroke-width="0.380122" d="M747.263,-351.148C656.143,-346.643 342.997,-328.864 314,-296.09 304.561,-285.422 296.895,-206.015 315,-165.338 322.638,-148.178 338.327,-133.911 351.881,-124.045"/>
<polygon fill="red" stroke="red" stroke-width="0.380122" points="354.114,-126.758 360.374,-118.21 350.15,-120.988 354.114,-126.758"/>
</g>
<!-- player_x_1 -->
<g id="node6" class="node"><title>player_x_1</title>
<polygon fill="lightgray" stroke="black" points="1522,-362.304 1466,-362.304 1466,-344.304 1522,-344.304 1522,-362.304"/>
<text text-anchor="middle" x="1494" y="-351.104" font-family="Times,serif" font-size="9.00">player_x_1</text>
</g>
<!-- player_x_1&#45;&gt;attack -->
<g id="edge67" class="edge"><title>player_x_1&#45;&gt;attack</title>
<path fill="none" stroke="green" stroke-width="0.483677" stroke-dasharray="1,5" d="M1522.14,-349.956C1555.08,-345.531 1608.26,-332.781 1633,-296.09 1643.54,-280.456 1642.36,-270.032 1633,-253.664 1618.28,-227.936 1588.06,-211.963 1563.97,-202.821"/>
<polygon fill="green" stroke="green" stroke-width="0.483677" points="1565.01,-199.478 1554.42,-199.424 1562.67,-206.073 1565.01,-199.478"/>
</g>
<!-- player_x_1&#45;&gt;up -->
<g id="edge26" class="edge"><title>player_x_1&#45;&gt;up</title>
<path fill="none" stroke="red" stroke-width="0.4352" d="M1465.99,-350.958C1295.56,-342.758 404.835,-299.745 399,-296.09 371.752,-279.025 356.509,-244.066 348.781,-219.496"/>
<polygon fill="red" stroke="red" stroke-width="0.4352" points="352.079,-218.303 345.916,-209.685 345.36,-220.265 352.079,-218.303"/>
</g>
<!-- player_x_1&#45;&gt;down -->
<g id="edge45" class="edge"><title>player_x_1&#45;&gt;down</title>
<path fill="none" stroke="red" stroke-width="0.496153" d="M1465.65,-351.029C1316.19,-344.242 625.995,-312.07 611,-296.09 593.712,-277.667 597.167,-248.34 603.826,-225.585"/>
<polygon fill="red" stroke="red" stroke-width="0.496153" points="607.188,-226.564 606.935,-215.972 600.527,-224.409 607.188,-226.564"/>
</g>
<!-- player_x_1&#45;&gt;left -->
<g id="edge6" class="edge"><title>player_x_1&#45;&gt;left</title>
<path fill="none" stroke="green" stroke-width="0.374603" stroke-dasharray="1,5" d="M1490.27,-344.152C1481.81,-326.266 1459.72,-282.851 1432,-253.664 1414.05,-234.767 1389.45,-218.114 1370.98,-206.976"/>
<polygon fill="green" stroke="green" stroke-width="0.374603" points="1372.61,-203.87 1362.21,-201.818 1369.06,-209.904 1372.61,-203.87"/>
</g>
<!-- player_x_1&#45;&gt;right -->
<g id="edge21" class="edge"><title>player_x_1&#45;&gt;right</title>
<path fill="none" stroke="green" stroke-width="0.239132" d="M1466.38,-344.216C1451.79,-340.157 1433.53,-335.411 1417,-332.09 1304.35,-309.465 1263.99,-347.016 1161,-296.09 1136.93,-284.191 1139.03,-270.349 1118,-253.664 1096.46,-236.574 1069.92,-220.121 1050.05,-208.592"/>
<polygon fill="green" stroke="green" stroke-width="0.239132" points="1051.58,-205.432 1041.16,-203.502 1048.1,-211.507 1051.58,-205.432"/>
</g>
<!-- player_x_1&#45;&gt;select -->
<g id="edge80" class="edge"><title>player_x_1&#45;&gt;select</title>
<path fill="none" stroke="red" stroke-width="0.204841" d="M1522.27,-351.362C1558.77,-348.444 1621.04,-337.312 1650,-296.09 1695.8,-230.91 1569.25,-168.24 1564,-165.338 1353.53,-48.9617 1054.63,-30.0462 952.668,-27.017"/>
<polygon fill="red" stroke="red" stroke-width="0.204841" points="952.684,-23.5163 942.596,-26.7514 952.5,-30.5139 952.684,-23.5163"/>
</g>
<!-- 287 -->
<g id="node30" class="node"><title>287</title>
<ellipse fill="white" stroke="black" cx="1543" cy="-274.877" rx="21.4286" ry="21.4286"/>
<text text-anchor="middle" x="1543" y="-272.677" font-family="Times,serif" font-size="9.00">287</text>
</g>
<!-- player_x_1&#45;&gt;287 -->
<g id="edge30" class="edge"><title>player_x_1&#45;&gt;287</title>
<path fill="none" stroke="green" stroke-width="0.319189" d="M1499.24,-344.125C1505.66,-334.111 1516.85,-316.666 1526.3,-301.92"/>
<polygon fill="green" stroke="green" stroke-width="0.319189" points="1529.46,-303.485 1531.91,-293.178 1523.56,-299.707 1529.46,-303.485"/>
</g>
<!-- player_y_1 -->
<g id="node7" class="node"><title>player_y_1</title>
<polygon fill="lightgray" stroke="black" points="1745,-440.73 1689,-440.73 1689,-422.73 1745,-422.73 1745,-440.73"/>
<text text-anchor="middle" x="1717" y="-429.53" font-family="Times,serif" font-size="9.00">player_y_1</text>
</g>
<!-- player_y_1&#45;&gt;attack -->
<g id="edge58" class="edge"><title>player_y_1&#45;&gt;attack</title>
<path fill="none" stroke="red" stroke-width="0.432763" d="M1734.79,-422.581C1752.84,-413.408 1780.31,-396.822 1796,-374.517 1827.41,-329.86 1852.38,-296.077 1818,-253.664 1786.59,-214.915 1636.07,-199.74 1565.57,-194.685"/>
<polygon fill="red" stroke="red" stroke-width="0.432763" points="1565.59,-191.178 1555.37,-193.985 1565.11,-198.162 1565.59,-191.178"/>
</g>
<!-- player_y_1&#45;&gt;up -->
<g id="edge90" class="edge"><title>player_y_1&#45;&gt;up</title>
<path fill="none" stroke="red" stroke-width="0.123425" d="M1688.83,-429.792C1498.72,-423.43 409.784,-386.515 378,-374.517 326.133,-354.938 304.886,-346.12 281,-296.09 272.876,-279.074 273.796,-271.09 281,-253.664 288.639,-235.186 304.867,-219.365 318.666,-208.445"/>
<polygon fill="red" stroke="red" stroke-width="0.123425" points="320.953,-211.105 326.845,-202.3 316.748,-205.509 320.953,-211.105"/>
</g>
<!-- player_y_1&#45;&gt;down -->
<g id="edge35" class="edge"><title>player_y_1&#45;&gt;down</title>
<path fill="none" stroke="red" stroke-width="0.316868" d="M1688.91,-430.52C1548.87,-429.26 925.313,-421.087 738,-374.517 656.858,-354.343 612.147,-366.466 567,-296.09 550.578,-270.492 571.391,-238.689 590.948,-217.123"/>
<polygon fill="red" stroke="red" stroke-width="0.316868" points="593.677,-219.333 598.025,-209.672 588.601,-214.513 593.677,-219.333"/>
</g>
<!-- player_y_1&#45;&gt;left -->
<g id="edge72" class="edge"><title>player_y_1&#45;&gt;left</title>
<path fill="none" stroke="green" stroke-width="0.340208" stroke-dasharray="1,5" d="M1716.88,-422.491C1715.98,-394.135 1708.96,-299.793 1656,-253.664 1645.32,-244.363 1450.68,-210.465 1374.87,-197.548"/>
<polygon fill="green" stroke="green" stroke-width="0.340208" points="1375.03,-194.024 1364.59,-195.799 1373.86,-200.925 1375.03,-194.024"/>
</g>
<!-- player_y_1&#45;&gt;right -->
<g id="edge4" class="edge"><title>player_y_1&#45;&gt;right</title>
<path fill="none" stroke="red" stroke-width="0.175278" d="M1688.84,-430.396C1599,-428.147 1313.67,-411.754 1118,-296.09 1096.21,-283.209 1097.23,-272.205 1080,-253.664 1068.33,-241.109 1055.1,-227.351 1044.13,-216.069"/>
<polygon fill="red" stroke="red" stroke-width="0.175278" points="1046.43,-213.415 1036.94,-208.699 1041.42,-218.302 1046.43,-213.415"/>
</g>
<!-- player_y_1&#45;&gt;select -->
<g id="edge43" class="edge"><title>player_y_1&#45;&gt;select</title>
<path fill="none" stroke="red" stroke-width="0.247089" stroke-dasharray="1,5" d="M1745.21,-427.282C1786.41,-421.336 1864.47,-406.565 1923,-374.517 1980.31,-343.138 2032,-341.213 2032,-275.877 2032,-275.877 2032,-275.877 2032,-190.501 2032,-125.576 1988.18,-113.62 1929,-86.9117 1838.59,-46.1088 1122.76,-30.2888 953.011,-27.0912"/>
<polygon fill="red" stroke="red" stroke-width="0.247089" points="952.917,-23.589 942.854,-26.9028 952.787,-30.5877 952.917,-23.589"/>
</g>
<!-- 178 -->
<g id="node25" class="node"><title>178</title>
<ellipse fill="white" stroke="black" cx="1652" cy="-353.304" rx="21.4286" ry="21.4286"/>
<text text-anchor="middle" x="1652" y="-351.104" font-family="Times,serif" font-size="9.00">178</text>
</g>
<!-- player_y_1&#45;&gt;178 -->
<g id="edge27" class="edge"><title>player_y_1&#45;&gt;178</title>
<path fill="none" stroke="red" stroke-width="0.152417" d="M1710.04,-422.551C1701.09,-412.024 1685.15,-393.282 1672.24,-378.099"/>
<polygon fill="red" stroke="red" stroke-width="0.152417" points="1674.58,-375.454 1665.44,-370.104 1669.25,-379.99 1674.58,-375.454"/>
</g>
<!-- 116 -->
<g id="node26" class="node"><title>116</title>
<ellipse fill="white" stroke="black" cx="1899" cy="-108.125" rx="21.4286" ry="21.4286"/>
<text text-anchor="middle" x="1899" y="-105.925" font-family="Times,serif" font-size="9.00">116</text>
</g>
<!-- player_y_1&#45;&gt;116 -->
<g id="edge22" class="edge"><title>player_y_1&#45;&gt;116</title>
<path fill="none" stroke="green" stroke-width="0.155778" d="M1745.17,-426.168C1791.52,-418.023 1880.59,-399.465 1899,-374.517 1951.19,-303.781 1925.59,-191.082 1909.16,-138.25"/>
<polygon fill="green" stroke="green" stroke-width="0.155778" points="1912.42,-136.957 1906.02,-128.512 1905.76,-139.103 1912.42,-136.957"/>
</g>
<!-- player_x_2 -->
<g id="node8" class="node"><title>player_x_2</title>
<polygon fill="lightgray" stroke="black" points="816,-283.877 760,-283.877 760,-265.877 816,-265.877 816,-283.877"/>
<text text-anchor="middle" x="788" y="-272.677" font-family="Times,serif" font-size="9.00">player_x_2</text>
</g>
<!-- player_x_2&#45;&gt;attack -->
<g id="edge49" class="edge"><title>player_x_2&#45;&gt;attack</title>
<path fill="none" stroke="red" stroke-width="0.188712" d="M799.752,-265.731C806.753,-261.331 816.003,-256.278 825,-253.664 1059.82,-185.445 1131.04,-245.287 1374,-217.664 1415.13,-212.988 1462,-205.007 1493.33,-199.286"/>
<polygon fill="red" stroke="red" stroke-width="0.188712" points="1494.13,-202.698 1503.32,-197.441 1492.85,-195.814 1494.13,-202.698"/>
</g>
<!-- player_x_2&#45;&gt;up -->
<g id="edge57" class="edge"><title>player_x_2&#45;&gt;up</title>
<path fill="none" stroke="green" stroke-width="0.201474" d="M775.472,-265.817C768.286,-261.558 758.941,-256.615 750,-253.664 678.869,-230.184 451.61,-204.243 370.832,-195.536"/>
<polygon fill="green" stroke="green" stroke-width="0.201474" points="370.753,-192.008 360.438,-194.424 370.008,-198.968 370.753,-192.008"/>
</g>
<!-- player_x_2&#45;&gt;down -->
<g id="edge70" class="edge"><title>player_x_2&#45;&gt;down</title>
<path fill="none" stroke="red" stroke-width="0.281479" d="M773.305,-265.806C766.298,-262.023 757.767,-257.512 750,-253.664 716.331,-236.985 677.192,-219.171 650.13,-207.097"/>
<polygon fill="red" stroke="red" stroke-width="0.281479" points="651.299,-203.786 640.739,-202.92 648.454,-210.182 651.299,-203.786"/>
</g>
<!-- player_x_2&#45;&gt;left -->
<g id="edge32" class="edge"><title>player_x_2&#45;&gt;left</title>
<path fill="none" stroke="red" stroke-width="0.29235" d="M800.136,-265.7C807.112,-261.405 816.213,-256.465 825,-253.664 871.895,-238.718 1211.64,-205.283 1315.15,-195.341"/>
<polygon fill="red" stroke="red" stroke-width="0.29235" points="1315.61,-198.814 1325.23,-194.376 1314.94,-191.845 1315.61,-198.814"/>
</g>
<!-- player_x_2&#45;&gt;right -->
<g id="edge88" class="edge"><title>player_x_2&#45;&gt;right</title>
<path fill="none" stroke="red" stroke-width="0.968133" d="M801.386,-265.729C808.279,-261.75 816.914,-257.095 825,-253.664 880.878,-229.957 949.14,-210.727 988.587,-200.507"/>
<polygon fill="red" stroke="red" stroke-width="0.968133" points="989.622,-203.855 998.443,-197.986 987.887,-197.073 989.622,-203.855"/>
</g>
<!-- player_x_2&#45;&gt;select -->
<g id="edge56" class="edge"><title>player_x_2&#45;&gt;select</title>
<path fill="none" stroke="red" stroke-width="0.699937" d="M792.292,-265.645C809.105,-233.397 871.024,-114.638 900.799,-57.5287"/>
<polygon fill="red" stroke="red" stroke-width="0.699937" points="903.94,-59.075 905.46,-48.5897 897.733,-55.8387 903.94,-59.075"/>
</g>
<!-- player_y_2 -->
<g id="node9" class="node"><title>player_y_2</title>
<polygon fill="lightgray" stroke="black" points="890,-283.877 834,-283.877 834,-265.877 890,-265.877 890,-283.877"/>
<text text-anchor="middle" x="862" y="-272.677" font-family="Times,serif" font-size="9.00">player_y_2</text>
</g>
<!-- player_y_2&#45;&gt;attack -->
<g id="edge81" class="edge"><title>player_y_2&#45;&gt;attack</title>
<path fill="none" stroke="green" stroke-width="0.1272" d="M873.762,-265.765C880.766,-261.377 890.016,-256.324 899,-253.664 1102.01,-193.565 1163.76,-242.65 1374,-217.664 1415.1,-212.779 1461.98,-204.837 1493.31,-199.182"/>
<polygon fill="green" stroke="green" stroke-width="0.1272" points="1494.1,-202.596 1503.31,-197.36 1492.85,-195.709 1494.1,-202.596"/>
</g>
<!-- player_y_2&#45;&gt;up -->
<g id="edge23" class="edge"><title>player_y_2&#45;&gt;up</title>
<path fill="none" stroke="red" stroke-width="0.204427" d="M849.855,-265.731C842.875,-261.445 833.775,-256.504 825,-253.664 781.545,-239.601 467.147,-205.683 370.312,-195.464"/>
<polygon fill="red" stroke="red" stroke-width="0.204427" points="370.676,-191.983 360.365,-194.417 369.944,-198.945 370.676,-191.983"/>
</g>
<!-- player_y_2&#45;&gt;down -->
<g id="edge7" class="edge"><title>player_y_2&#45;&gt;down</title>
<path fill="none" stroke="green" stroke-width="0.205719" d="M848.981,-265.871C842.039,-261.835 833.249,-257.084 825,-253.664 766.217,-229.295 694.361,-210.438 652.335,-200.44"/>
<polygon fill="green" stroke="green" stroke-width="0.205719" points="653.107,-197.027 642.572,-198.15 651.508,-203.842 653.107,-197.027"/>
</g>
<!-- player_y_2&#45;&gt;left -->
<g id="edge46" class="edge"><title>player_y_2&#45;&gt;left</title>
<path fill="none" stroke="red" stroke-width="0.739833" stroke-dasharray="1,5" d="M874.157,-265.766C881.14,-261.491 890.24,-256.549 899,-253.664 977.129,-227.934 1228.32,-203.165 1315.14,-195.172"/>
<polygon fill="red" stroke="red" stroke-width="0.739833" points="1315.71,-198.635 1325.35,-194.24 1315.08,-191.664 1315.71,-198.635"/>
</g>
<!-- player_y_2&#45;&gt;right -->
<g id="edge39" class="edge"><title>player_y_2&#45;&gt;right</title>
<path fill="none" stroke="green" stroke-width="0.498899" d="M876.7,-265.692C883.462,-261.966 891.608,-257.535 899,-253.664 930.131,-237.364 966.139,-219.422 990.924,-207.211"/>
<polygon fill="green" stroke="green" stroke-width="0.498899" points="992.734,-210.222 1000.16,-202.669 989.645,-203.94 992.734,-210.222"/>
</g>
<!-- player_y_2&#45;&gt;select -->
<g id="edge75" class="edge"><title>player_y_2&#45;&gt;select</title>
<path fill="none" stroke="green" stroke-width="0.11995" d="M863.83,-265.645C870.881,-233.926 896.538,-118.507 909.458,-60.3855"/>
<polygon fill="green" stroke="green" stroke-width="0.11995" points="912.887,-61.0878 911.64,-50.5666 906.054,-59.5688 912.887,-61.0878"/>
</g>
<!-- distance_1 -->
<g id="node10" class="node"><title>distance_1</title>
<polygon fill="lightgray" stroke="black" points="1224,-283.877 1170,-283.877 1170,-265.877 1224,-265.877 1224,-283.877"/>
<text text-anchor="middle" x="1197" y="-272.677" font-family="Times,serif" font-size="9.00">distance_1</text>
</g>
<!-- distance_1&#45;&gt;attack -->
<g id="edge73" class="edge"><title>distance_1&#45;&gt;attack</title>
<path fill="none" stroke="green" stroke-width="0.266478" d="M1209.2,-265.779C1215.97,-261.615 1224.67,-256.776 1233,-253.664 1280.47,-235.92 1424.83,-210.13 1492.84,-198.539"/>
<polygon fill="green" stroke="green" stroke-width="0.266478" points="1493.8,-201.927 1503.07,-196.804 1492.63,-195.025 1493.8,-201.927"/>
</g>
<!-- distance_1&#45;&gt;up -->
<g id="edge37" class="edge"><title>distance_1&#45;&gt;up</title>
<path fill="none" stroke="green" stroke-width="0.497482" d="M1169.85,-271.444C1066.69,-262.192 698.974,-229.141 582,-217.664 505.54,-210.162 415.471,-200.496 370.523,-195.616"/>
<polygon fill="green" stroke="green" stroke-width="0.497482" points="370.678,-192.112 360.358,-194.51 369.921,-199.071 370.678,-192.112"/>
</g>
<!-- distance_1&#45;&gt;down -->
<g id="edge52" class="edge"><title>distance_1&#45;&gt;down</title>
<path fill="none" stroke="green" stroke-width="0.391479" stroke-dasharray="1,5" d="M1169.8,-270.061C1075.09,-256.772 759.67,-212.518 652.779,-197.521"/>
<polygon fill="green" stroke="green" stroke-width="0.391479" points="653.2,-194.046 642.81,-196.122 652.227,-200.978 653.2,-194.046"/>
</g>
<!-- distance_1&#45;&gt;left -->
<g id="edge14" class="edge"><title>distance_1&#45;&gt;left</title>
<path fill="none" stroke="green" stroke-width="0.202858" d="M1211.34,-265.773C1217.93,-262.064 1225.85,-257.623 1233,-253.664 1262.34,-237.417 1296.14,-218.999 1318.87,-206.658"/>
<polygon fill="green" stroke="green" stroke-width="0.202858" points="1320.77,-209.61 1327.89,-201.765 1317.43,-203.457 1320.77,-209.61"/>
</g>
<!-- distance_1&#45;&gt;right -->
<g id="edge18" class="edge"><title>distance_1&#45;&gt;right</title>
<path fill="none" stroke="green" stroke-width="0.198215" d="M1180.7,-265.689C1173.2,-261.963 1164.18,-257.532 1156,-253.664 1120.37,-236.814 1079.04,-218.229 1051.59,-206.019"/>
<polygon fill="green" stroke="green" stroke-width="0.198215" points="1052.7,-202.683 1042.14,-201.824 1049.86,-209.081 1052.7,-202.683"/>
</g>
<!-- distance_1&#45;&gt;select -->
<g id="edge79" class="edge"><title>distance_1&#45;&gt;select</title>
<path fill="none" stroke="green" stroke-width="0.101651" d="M1188.84,-265.744C1162.03,-239.152 1073.93,-152.71 996,-86.9117 979.633,-73.092 960.582,-58.4723 945.288,-47.0717"/>
<polygon fill="green" stroke="green" stroke-width="0.101651" points="947.339,-44.2349 937.22,-41.0948 943.172,-49.8597 947.339,-44.2349"/>
</g>
<!-- distance_2 -->
<g id="node11" class="node"><title>distance_2</title>
<polygon fill="lightgray" stroke="black" points="1123,-506.943 1069,-506.943 1069,-488.943 1123,-488.943 1123,-506.943"/>
<text text-anchor="middle" x="1096" y="-495.743" font-family="Times,serif" font-size="9.00">distance_2</text>
</g>
<!-- distance_2&#45;&gt;attack -->
<g id="edge66" class="edge"><title>distance_2&#45;&gt;attack</title>
<path fill="none" stroke="green" stroke-width="0.460498" stroke-dasharray="1,5" d="M1123.41,-496.36C1260.76,-493.321 1868.7,-478.464 1899,-452.943 1966.78,-395.853 1967.99,-317 1906,-253.664 1859.08,-205.721 1650.8,-195.356 1565.56,-193.117"/>
<polygon fill="green" stroke="green" stroke-width="0.460498" points="1565.4,-189.612 1555.32,-192.872 1565.23,-196.61 1565.4,-189.612"/>
</g>
<!-- distance_2&#45;&gt;up -->
<g id="edge5" class="edge"><title>distance_2&#45;&gt;up</title>
<path fill="none" stroke="red" stroke-width="0.435825" stroke-dasharray="1,5" d="M1068.99,-496.051C960.123,-492.319 553.344,-477.023 427,-452.943 315.106,-431.617 262.021,-456.558 183,-374.517 145.126,-335.195 129.169,-298.019 161,-253.664 195.958,-204.951 271.793,-194.536 313.348,-192.622"/>
<polygon fill="red" stroke="red" stroke-width="0.435825" points="313.49,-196.119 323.371,-192.296 313.262,-189.123 313.49,-196.119"/>
</g>
<!-- distance_2&#45;&gt;down -->
<g id="edge44" class="edge"><title>distance_2&#45;&gt;down</title>
<path fill="none" stroke="red" stroke-width="0.829579" d="M1068.63,-496.746C948.408,-495.252 469.138,-482.51 378,-374.517 364.443,-358.452 370.849,-270.43 385,-253.664 410.092,-223.936 522.075,-205.028 580.795,-196.977"/>
<polygon fill="red" stroke="red" stroke-width="0.829579" points="581.318,-200.438 590.766,-195.644 580.39,-193.5 581.318,-200.438"/>
</g>
<!-- distance_2&#45;&gt;right -->
<g id="edge19" class="edge"><title>distance_2&#45;&gt;right</title>
<path fill="none" stroke="green" stroke-width="0.159511" d="M1095.83,-488.915C1095.16,-464.797 1091.93,-391.017 1077,-332.09 1067.02,-292.693 1048.47,-249.601 1035.47,-221.872"/>
<polygon fill="green" stroke="green" stroke-width="0.159511" points="1038.58,-220.262 1031.12,-212.735 1032.26,-223.269 1038.58,-220.262"/>
</g>
<!-- 171 -->
<g id="node22" class="node"><title>171</title>
<ellipse fill="white" stroke="black" cx="1869" cy="-431.73" rx="21.4286" ry="21.4286"/>
<text text-anchor="middle" x="1869" y="-429.53" font-family="Times,serif" font-size="9.00">171</text>
</g>
<!-- distance_2&#45;&gt;171 -->
<g id="edge59" class="edge"><title>distance_2&#45;&gt;171</title>
<path fill="none" stroke="red" stroke-width="0.395314" d="M1123.05,-496.174C1213,-493.396 1510.19,-482.435 1754,-452.943 1782.8,-449.46 1815.33,-443.556 1838.42,-439.025"/>
<polygon fill="red" stroke="red" stroke-width="0.395314" points="1839.2,-442.439 1848.32,-437.054 1837.83,-435.574 1839.2,-442.439"/>
</g>
<!-- right&#45;&gt;228 -->
<g id="edge28" class="edge"><title>right&#45;&gt;228</title>
<path fill="none" stroke="red" stroke-width="0.135227" d="M1008.24,-171.627C1000.79,-160.595 991.278,-146.525 983.17,-134.529"/>
<polygon fill="red" stroke="red" stroke-width="0.135227" points="986.063,-132.559 977.563,-126.234 980.263,-136.479 986.063,-132.559"/>
</g>
<!-- 228&#45;&gt;select -->
<g id="edge16" class="edge"><title>228&#45;&gt;select</title>
<path fill="none" stroke="green" stroke-width="0.301038" d="M955.368,-89.6209C949.46,-79.8949 941.948,-67.528 935.14,-56.3199"/>
<polygon fill="green" stroke="green" stroke-width="0.301038" points="938.058,-54.3821 929.875,-47.6523 932.075,-58.0162 938.058,-54.3821"/>
</g>
<!-- 295&#45;&gt;255 -->
<g id="edge82" class="edge"><title>295&#45;&gt;255</title>
<path fill="none" stroke="green" stroke-width="0.124858" d="M1068.18,-350.56C1116.62,-346.062 1238.67,-331.816 1334,-296.09 1336.93,-294.993 1339.9,-293.665 1342.8,-292.22"/>
<polygon fill="green" stroke="green" stroke-width="0.124858" points="1344.65,-295.203 1351.75,-287.346 1341.3,-289.055 1344.65,-295.203"/>
</g>
<!-- 255&#45;&gt;left -->
<g id="edge71" class="edge"><title>255&#45;&gt;left</title>
<path fill="none" stroke="green" stroke-width="0.267848" d="M1363.19,-254.178C1360.2,-244.022 1356.49,-231.464 1353.21,-220.336"/>
<polygon fill="green" stroke="green" stroke-width="0.267848" points="1356.53,-219.229 1350.35,-210.627 1349.82,-221.209 1356.53,-219.229"/>
</g>
<!-- 223&#45;&gt;attack -->
<g id="edge93" class="edge"><title>223&#45;&gt;attack</title>
<path fill="none" stroke="green" stroke-width="0.596118" d="M1589.08,-258.571C1578.93,-247.41 1564.92,-232.006 1552.99,-218.879"/>
<polygon fill="green" stroke="green" stroke-width="0.596118" points="1555.56,-216.507 1546.24,-211.463 1550.38,-221.216 1555.56,-216.507"/>
</g>
<!-- 223&#45;&gt;left -->
<g id="edge61" class="edge"><title>223&#45;&gt;left</title>
<path fill="none" stroke="green" stroke-width="0.274932" d="M1586.44,-261.306C1582.22,-258.502 1577.57,-255.747 1573,-253.664 1505.33,-222.833 1419.04,-204.98 1374.53,-197.197"/>
<polygon fill="green" stroke="green" stroke-width="0.274932" points="1375.1,-193.744 1364.66,-195.517 1373.93,-200.645 1375.1,-193.744"/>
</g>
<!-- 171&#45;&gt;attack -->
<g id="edge89" class="edge"><title>171&#45;&gt;attack</title>
<path fill="none" stroke="red" stroke-width="0.147806" stroke-dasharray="1,5" d="M1880.8,-413.911C1887.59,-403.185 1895.46,-388.682 1899,-374.517 1912.23,-321.629 1918.21,-290.478 1878,-253.664 1832.62,-212.122 1645.1,-198.157 1565.26,-194.037"/>
<polygon fill="red" stroke="red" stroke-width="0.147806" points="1565.34,-190.536 1555.18,-193.539 1564.99,-197.528 1565.34,-190.536"/>
</g>
<!-- 184 -->
<g id="node29" class="node"><title>184</title>
<ellipse fill="white" stroke="black" cx="1869" cy="-353.304" rx="21.4286" ry="21.4286"/>
<text text-anchor="middle" x="1869" y="-351.104" font-family="Times,serif" font-size="9.00">184</text>
</g>
<!-- 171&#45;&gt;184 -->
<g id="edge11" class="edge"><title>171&#45;&gt;184</title>
<path fill="none" stroke="green" stroke-width="0.149282" d="M1869,-410.249C1869,-402.39 1869,-393.246 1869,-384.656"/>
<polygon fill="green" stroke="green" stroke-width="0.149282" points="1872.5,-384.576 1869,-374.576 1865.5,-384.576 1872.5,-384.576"/>
</g>
<!-- 12&#45;&gt;up -->
<g id="edge2" class="edge"><title>12&#45;&gt;up</title>
<path fill="none" stroke="red" stroke-width="0.516946" d="M386.657,-349.442C359.968,-344.184 311.3,-330.211 290,-296.09 272.253,-267.661 299.606,-232.379 320.889,-211.193"/>
<polygon fill="red" stroke="red" stroke-width="0.516946" points="323.541,-213.499 328.361,-204.064 318.709,-208.435 323.541,-213.499"/>
</g>
<!-- 12&#45;&gt;down -->
<g id="edge63" class="edge"><title>12&#45;&gt;down</title>
<path fill="none" stroke="red" stroke-width="0.253322" stroke-dasharray="1,5" d="M398.131,-336.113C390.326,-314.899 380.863,-277.59 399,-253.664 420.918,-224.75 524.584,-205.732 580.703,-197.373"/>
<polygon fill="red" stroke="red" stroke-width="0.253322" points="581.532,-200.789 590.926,-195.889 580.527,-193.862 581.532,-200.789"/>
</g>
<!-- 278 -->
<g id="node28" class="node"><title>278</title>
<ellipse fill="white" stroke="black" cx="429" cy="-274.877" rx="21.4286" ry="21.4286"/>
<text text-anchor="middle" x="429" y="-272.677" font-family="Times,serif" font-size="9.00">278</text>
</g>
<!-- 12&#45;&gt;278 -->
<g id="edge17" class="edge"><title>12&#45;&gt;278</title>
<path fill="none" stroke="green" stroke-width="0.593362" d="M410.326,-335.342C413.123,-326.437 416.628,-315.274 419.845,-305.032"/>
<polygon fill="green" stroke="green" stroke-width="0.593362" points="423.27,-305.805 422.927,-295.215 416.592,-303.707 423.27,-305.805"/>
</g>
<!-- 239 -->
<g id="node24" class="node"><title>239</title>
<ellipse fill="white" stroke="black" cx="641" cy="-274.877" rx="21.4286" ry="21.4286"/>
<text text-anchor="middle" x="641" y="-272.677" font-family="Times,serif" font-size="9.00">239</text>
</g>
<!-- 239&#45;&gt;down -->
<g id="edge76" class="edge"><title>239&#45;&gt;down</title>
<path fill="none" stroke="red" stroke-width="0.354074" d="M635.19,-254.178C632.766,-245.957 629.877,-236.161 627.123,-226.824"/>
<polygon fill="red" stroke="red" stroke-width="0.354074" points="630.402,-225.57 624.216,-216.968 623.688,-227.55 630.402,-225.57"/>
</g>
<!-- 178&#45;&gt;left -->
<g id="edge53" class="edge"><title>178&#45;&gt;left</title>
<path fill="none" stroke="green" stroke-width="0.409161" stroke-dasharray="1,5" d="M1654.12,-331.963C1655.25,-309.668 1653.28,-274.328 1633,-253.664 1623.87,-244.359 1446.36,-211.037 1374.66,-197.89"/>
<polygon fill="green" stroke="green" stroke-width="0.409161" points="1374.96,-194.386 1364.49,-196.031 1373.7,-201.272 1374.96,-194.386"/>
</g>
<!-- 178&#45;&gt;223 -->
<g id="edge60" class="edge"><title>178&#45;&gt;223</title>
<path fill="none" stroke="red" stroke-width="0.195051" d="M1640.88,-334.961C1634.62,-325.19 1626.67,-312.792 1619.67,-301.878"/>
<polygon fill="red" stroke="red" stroke-width="0.195051" points="1622.42,-299.68 1614.07,-293.151 1616.53,-303.458 1622.42,-299.68"/>
</g>
<!-- 116&#45;&gt;select -->
<g id="edge24" class="edge"><title>116&#45;&gt;select</title>
<path fill="none" stroke="red" stroke-width="0.417448" d="M1878.02,-102.919C1854.32,-98.3169 1814.54,-91.0448 1780,-86.9117 1460.4,-48.6677 1071.1,-32.087 952.78,-27.7009"/>
<polygon fill="red" stroke="red" stroke-width="0.417448" points="952.623,-24.1929 942.501,-27.3255 952.367,-31.1882 952.623,-24.1929"/>
</g>
<!-- 20&#45;&gt;select -->
<g id="edge84" class="edge"><title>20&#45;&gt;select</title>
<path fill="none" stroke="red" stroke-width="0.33066" d="M394.31,-104.395C472.291,-92.7668 777.484,-47.2592 881.81,-31.703"/>
<polygon fill="red" stroke="red" stroke-width="0.33066" points="882.457,-35.1454 891.831,-30.2088 881.424,-28.222 882.457,-35.1454"/>
</g>
<!-- 278&#45;&gt;down -->
<g id="edge65" class="edge"><title>278&#45;&gt;down</title>
<path fill="none" stroke="red" stroke-width="0.271453" d="M446.898,-262.882C452.307,-259.739 458.319,-256.422 464,-253.664 503.823,-234.328 551.409,-216.019 582.821,-204.561"/>
<polygon fill="red" stroke="red" stroke-width="0.271453" points="584.207,-207.782 592.421,-201.089 581.826,-201.199 584.207,-207.782"/>
</g>
<!-- 184&#45;&gt;attack -->
<g id="edge25" class="edge"><title>184&#45;&gt;attack</title>
<path fill="none" stroke="green" stroke-width="0.24858" d="M1872.62,-332.019C1875.33,-309.774 1875.72,-274.478 1856,-253.664 1816.64,-212.122 1642.25,-198.244 1565.49,-194.094"/>
<polygon fill="green" stroke="green" stroke-width="0.24858" points="1565.49,-190.59 1555.33,-193.572 1565.13,-197.581 1565.49,-190.59"/>
</g>
<!-- 184&#45;&gt;239 -->
<g id="edge29" class="edge"><title>184&#45;&gt;239</title>
<path fill="none" stroke="green" stroke-width="0.233772" d="M1848.01,-349.535C1813.46,-345.091 1742.42,-336.426 1682,-332.09 1569.88,-324.045 777.9,-330.835 671,-296.09 669.316,-295.543 667.64,-294.871 665.989,-294.109"/>
<polygon fill="green" stroke="green" stroke-width="0.233772" points="667.377,-290.873 656.95,-288.991 663.928,-296.964 667.377,-290.873"/>
</g>
<!-- 287&#45;&gt;left -->
<g id="edge62" class="edge"><title>287&#45;&gt;left</title>
<path fill="none" stroke="green" stroke-width="0.554513" d="M1525.14,-262.805C1519.73,-259.661 1513.71,-256.362 1508,-253.664 1462.38,-232.111 1406.95,-212.659 1373.9,-201.733"/>
<polygon fill="green" stroke="green" stroke-width="0.554513" points="1374.58,-198.276 1363.99,-198.494 1372.41,-204.929 1374.58,-198.276"/>
</g>
</g>
</svg>
