<?xml version="1.0" encoding="UTF-8" standalone="no"?>
<!DOCTYPE svg PUBLIC "-//W3C//DTD SVG 1.1//EN"
 "http://www.w3.org/Graphics/SVG/1.1/DTD/svg11.dtd">
<!-- Generated by graphviz version 2.38.0 (20140413.2041)
 -->
<!-- Title: %3 Pages: 1 -->
<svg width="948pt" height="187pt"
 viewBox="0.00 0.00 948.20 187.10" xmlns="http://www.w3.org/2000/svg" xmlns:xlink="http://www.w3.org/1999/xlink">
<g id="graph0" class="graph" transform="scale(1 1) rotate(0) translate(4 183.095)">
<title>%3</title>
<polygon fill="white" stroke="none" points="-4,4 -4,-183.095 944.204,-183.095 944.204,4 -4,4"/>
<!-- enemy_hp -->
<g id="node1" class="node"><title>enemy_hp</title>
<polygon fill="lightgray" stroke="black" points="441.885,-115.711 388.885,-115.711 388.885,-97.7107 441.885,-97.7107 441.885,-115.711"/>
<text text-anchor="middle" x="415.385" y="-104.511" font-family="Times,serif" font-size="9.00">enemy_hp</text>
</g>
<!-- attack -->
<g id="node12" class="node"><title>attack</title>
<ellipse fill="lightblue" stroke="black" cx="618.385" cy="-26.163" rx="26.3269" ry="26.3269"/>
<text text-anchor="middle" x="618.385" y="-23.963" font-family="Times,serif" font-size="9.00">attack</text>
</g>
<!-- enemy_hp&#45;&gt;attack -->
<g id="edge3" class="edge"><title>enemy_hp&#45;&gt;attack</title>
<path fill="none" stroke="green" stroke-width="0.409163" d="M430.084,-97.6042C436.234,-94.4258 443.534,-90.9255 450.385,-88.3259 507.64,-66.5999 528.08,-78.6219 583.385,-52.3259 585.472,-51.3337 587.564,-50.2148 589.631,-49.0143"/>
<polygon fill="green" stroke="green" stroke-width="0.409163" points="591.902,-51.7153 598.426,-43.3672 588.12,-45.8249 591.902,-51.7153"/>
</g>
<!-- up -->
<g id="node13" class="node"><title>up</title>
<ellipse fill="lightblue" stroke="black" cx="365.385" cy="-26.163" rx="18.2703" ry="18.2703"/>
<text text-anchor="middle" x="365.385" y="-23.963" font-family="Times,serif" font-size="9.00">up</text>
</g>
<!-- enemy_hp&#45;&gt;up -->
<g id="edge21" class="edge"><title>enemy_hp&#45;&gt;up</title>
<path fill="none" stroke="red" stroke-width="0.527344" d="M410.222,-97.6005C403.256,-86.6566 390.554,-66.7024 380.443,-50.8192"/>
<polygon fill="red" stroke="red" stroke-width="0.527344" points="383.175,-48.5932 374.853,-42.0367 377.27,-52.3521 383.175,-48.5932"/>
</g>
<!-- down -->
<g id="node14" class="node"><title>down</title>
<ellipse fill="lightblue" stroke="black" cx="688.385" cy="-26.163" rx="26.3269" ry="26.3269"/>
<text text-anchor="middle" x="688.385" y="-23.963" font-family="Times,serif" font-size="9.00">down</text>
</g>
<!-- enemy_hp&#45;&gt;down -->
<g id="edge42" class="edge"><title>enemy_hp&#45;&gt;down</title>
<path fill="none" stroke="red" stroke-width="0.575077" d="M429.298,-97.654C435.566,-94.3285 443.168,-90.7037 450.385,-88.3259 537.413,-59.6533 568.967,-87.9594 653.385,-52.3259 655.514,-51.4273 657.638,-50.3795 659.728,-49.2315"/>
<polygon fill="red" stroke="red" stroke-width="0.575077" points="661.948,-51.9719 668.579,-43.709 658.242,-46.0331 661.948,-51.9719"/>
</g>
<!-- left -->
<g id="node15" class="node"><title>left</title>
<ellipse fill="lightblue" stroke="black" cx="490.385" cy="-26.163" rx="19.6" ry="19.6"/>
<text text-anchor="middle" x="490.385" y="-23.963" font-family="Times,serif" font-size="9.00">left</text>
</g>
<!-- enemy_hp&#45;&gt;left -->
<g id="edge63" class="edge"><title>enemy_hp&#45;&gt;left</title>
<path fill="none" stroke="green" stroke-width="0.396223" d="M423.129,-97.6005C434.064,-86.1477 454.422,-64.8269 469.886,-48.631"/>
<polygon fill="green" stroke="green" stroke-width="0.396223" points="472.648,-50.8072 477.022,-41.1576 467.585,-45.9731 472.648,-50.8072"/>
</g>
<!-- right -->
<g id="node16" class="node"><title>right</title>
<ellipse fill="lightblue" stroke="black" cx="551.385" cy="-26.163" rx="23.1702" ry="23.1702"/>
<text text-anchor="middle" x="551.385" y="-23.963" font-family="Times,serif" font-size="9.00">right</text>
</g>
<!-- enemy_hp&#45;&gt;right -->
<g id="edge8" class="edge"><title>enemy_hp&#45;&gt;right</title>
<path fill="none" stroke="green" stroke-width="0.328702" d="M431.801,-97.5018C459.031,-83.8525 511.356,-57.4758 519.385,-52.3259 521.519,-50.9571 523.683,-49.4777 525.828,-47.9457"/>
<polygon fill="green" stroke="green" stroke-width="0.328702" points="527.991,-50.6981 533.892,-41.8984 523.792,-45.0978 527.991,-50.6981"/>
</g>
<!-- select -->
<g id="node17" class="node"><title>select</title>
<ellipse fill="lightblue" stroke="black" cx="427.385" cy="-26.163" rx="25.4118" ry="25.4118"/>
<text text-anchor="middle" x="427.385" y="-23.963" font-family="Times,serif" font-size="9.00">select</text>
</g>
<!-- enemy_hp&#45;&gt;select -->
<g id="edge55" class="edge"><title>enemy_hp&#45;&gt;select</title>
<path fill="none" stroke="green" stroke-width="0.198549" d="M416.624,-97.6005C417.941,-88.9797 420.112,-74.7677 422.161,-61.3588"/>
<polygon fill="green" stroke="green" stroke-width="0.198549" points="425.637,-61.7813 423.687,-51.3674 418.717,-60.7241 425.637,-61.7813"/>
</g>
<!-- player_hp_1 -->
<g id="node2" class="node"><title>player_hp_1</title>
<polygon fill="lightgray" stroke="black" points="520.885,-115.711 459.885,-115.711 459.885,-97.7107 520.885,-97.7107 520.885,-115.711"/>
<text text-anchor="middle" x="490.385" y="-104.511" font-family="Times,serif" font-size="9.00">player_hp_1</text>
</g>
<!-- player_hp_1&#45;&gt;attack -->
<g id="edge18" class="edge"><title>player_hp_1&#45;&gt;attack</title>
<path fill="none" stroke="green" stroke-width="0.538649" d="M505.483,-97.6641C524.117,-87.5926 556.621,-69.5643 583.385,-52.3259 585.276,-51.1076 587.206,-49.8285 589.139,-48.5196"/>
<polygon fill="green" stroke="green" stroke-width="0.538649" points="591.315,-51.2695 597.527,-42.6867 587.319,-45.5224 591.315,-51.2695"/>
</g>
<!-- player_hp_1&#45;&gt;up -->
<g id="edge43" class="edge"><title>player_hp_1&#45;&gt;up</title>
<path fill="none" stroke="red" stroke-width="0.426672" d="M472.854,-97.5804C452.86,-87.9692 419.556,-70.9151 393.385,-52.3259 390.887,-50.5518 388.365,-48.5838 385.912,-46.5523"/>
<polygon fill="red" stroke="red" stroke-width="0.426672" points="387.797,-43.55 377.969,-39.5907 383.183,-48.8142 387.797,-43.55"/>
</g>
<!-- player_hp_1&#45;&gt;down -->
<g id="edge39" class="edge"><title>player_hp_1&#45;&gt;down</title>
<path fill="none" stroke="green" stroke-width="0.426468" d="M507.263,-97.5817C514.051,-94.4722 522.006,-91.0273 529.385,-88.3259 583.274,-68.5975 601.785,-77.439 653.385,-52.3259 655.462,-51.3148 657.548,-50.1815 659.609,-48.9703"/>
<polygon fill="green" stroke="green" stroke-width="0.426468" points="661.891,-51.6633 668.392,-43.2979 658.093,-45.783 661.891,-51.6633"/>
</g>
<!-- player_hp_1&#45;&gt;left -->
<g id="edge57" class="edge"><title>player_hp_1&#45;&gt;left</title>
<path fill="none" stroke="red" stroke-width="0.227623" d="M490.385,-97.6005C490.385,-87.8858 490.385,-71.0711 490.385,-56.3066"/>
<polygon fill="red" stroke="red" stroke-width="0.227623" points="493.885,-56.0489 490.385,-46.0489 486.885,-56.049 493.885,-56.0489"/>
</g>
<!-- player_hp_1&#45;&gt;right -->
<g id="edge66" class="edge"><title>player_hp_1&#45;&gt;right</title>
<path fill="none" stroke="red" stroke-width="0.205274" d="M496.683,-97.6005C504.748,-87.2158 519.113,-68.7179 531.099,-53.2839"/>
<polygon fill="red" stroke="red" stroke-width="0.205274" points="534.089,-55.1405 537.458,-45.0957 528.56,-50.847 534.089,-55.1405"/>
</g>
<!-- player_hp_1&#45;&gt;select -->
<g id="edge14" class="edge"><title>player_hp_1&#45;&gt;select</title>
<path fill="none" stroke="green" stroke-width="0.14787" d="M483.88,-97.6005C475.816,-87.5465 461.653,-69.8879 449.525,-54.7675"/>
<polygon fill="green" stroke="green" stroke-width="0.14787" points="452.036,-52.3038 443.049,-46.6928 446.575,-56.6835 452.036,-52.3038"/>
</g>
<!-- player_hp_2 -->
<g id="node3" class="node"><title>player_hp_2</title>
<polygon fill="lightgray" stroke="black" points="599.885,-115.711 538.885,-115.711 538.885,-97.7107 599.885,-97.7107 599.885,-115.711"/>
<text text-anchor="middle" x="569.385" y="-104.511" font-family="Times,serif" font-size="9.00">player_hp_2</text>
</g>
<!-- player_hp_2&#45;&gt;attack -->
<g id="edge61" class="edge"><title>player_hp_2&#45;&gt;attack</title>
<path fill="none" stroke="red" stroke-width="0.419227" d="M574.444,-97.6005C580.357,-88.1222 590.486,-71.8853 599.53,-57.388"/>
<polygon fill="red" stroke="red" stroke-width="0.419227" points="602.65,-58.9991 604.973,-48.6622 596.711,-55.2941 602.65,-58.9991"/>
</g>
<!-- player_hp_2&#45;&gt;up -->
<g id="edge46" class="edge"><title>player_hp_2&#45;&gt;up</title>
<path fill="none" stroke="red" stroke-width="0.100192" d="M552.481,-97.6886C545.436,-94.5232 537.11,-91.0097 529.385,-88.3259 470.322,-67.8058 448.393,-82.0513 393.385,-52.3259 390.6,-50.8209 387.866,-48.9846 385.264,-46.9962"/>
<polygon fill="red" stroke="red" stroke-width="0.100192" points="387.372,-44.1927 377.5,-40.3455 382.818,-49.5091 387.372,-44.1927"/>
</g>
<!-- player_hp_2&#45;&gt;down -->
<g id="edge33" class="edge"><title>player_hp_2&#45;&gt;down</title>
<path fill="none" stroke="red" stroke-width="0.383212" stroke-dasharray="1,5" d="M582.63,-97.618C599.311,-87.3525 628.767,-68.9778 653.385,-52.3259 655.248,-51.0654 657.157,-49.7539 659.074,-48.4208"/>
<polygon fill="red" stroke="red" stroke-width="0.383212" points="661.271,-51.1545 667.423,-42.5289 657.235,-45.4352 661.271,-51.1545"/>
</g>
<!-- player_hp_2&#45;&gt;left -->
<g id="edge15" class="edge"><title>player_hp_2&#45;&gt;left</title>
<path fill="none" stroke="green" stroke-width="0.384662" d="M561.228,-97.6005C549.641,-86.0803 528.013,-64.5758 511.689,-48.3457"/>
<polygon fill="green" stroke="green" stroke-width="0.384662" points="513.729,-45.4376 504.17,-40.8688 508.793,-50.4015 513.729,-45.4376"/>
</g>
<!-- player_hp_2&#45;&gt;right -->
<g id="edge67" class="edge"><title>player_hp_2&#45;&gt;right</title>
<path fill="none" stroke="red" stroke-width="0.273543" d="M567.526,-97.6005C565.43,-88.4536 561.892,-73.0122 558.661,-58.9144"/>
<polygon fill="red" stroke="red" stroke-width="0.273543" points="562.033,-57.9611 556.388,-48.9956 555.21,-59.5248 562.033,-57.9611"/>
</g>
<!-- player_hp_2&#45;&gt;select -->
<g id="edge53" class="edge"><title>player_hp_2&#45;&gt;select</title>
<path fill="none" stroke="green" stroke-width="0.136304" d="M550.505,-97.6136C528.515,-87.9045 491.376,-70.6353 461.385,-52.3259 459.45,-51.1445 457.487,-49.882 455.531,-48.5752"/>
<polygon fill="green" stroke="green" stroke-width="0.136304" points="457.308,-45.5468 447.109,-42.6763 453.292,-51.2802 457.308,-45.5468"/>
</g>
<!-- enemy_x -->
<g id="node4" class="node"><title>enemy_x</title>
<polygon fill="lightgray" stroke="black" points="666.885,-115.711 617.885,-115.711 617.885,-97.7107 666.885,-97.7107 666.885,-115.711"/>
<text text-anchor="middle" x="642.385" y="-104.511" font-family="Times,serif" font-size="9.00">enemy_x</text>
</g>
<!-- enemy_x&#45;&gt;attack -->
<g id="edge49" class="edge"><title>enemy_x&#45;&gt;attack</title>
<path fill="none" stroke="green" stroke-width="0.551445" d="M639.907,-97.6005C637.247,-88.8952 632.845,-74.4885 628.713,-60.9647"/>
<polygon fill="green" stroke="green" stroke-width="0.551445" points="632.05,-59.9082 625.78,-51.3674 625.355,-61.9537 632.05,-59.9082"/>
</g>
<!-- enemy_x&#45;&gt;up -->
<g id="edge64" class="edge"><title>enemy_x&#45;&gt;up</title>
<path fill="none" stroke="green" stroke-width="0.16598" d="M629.331,-97.5952C623.433,-94.2588 616.258,-90.6418 609.385,-88.3259 517.156,-57.2488 481.079,-94.5373 393.385,-52.3259 390.381,-50.8802 387.463,-49.0119 384.716,-46.9467"/>
<polygon fill="green" stroke="green" stroke-width="0.16598" points="386.939,-44.2422 377.071,-40.3862 382.38,-49.5545 386.939,-44.2422"/>
</g>
<!-- enemy_x&#45;&gt;down -->
<g id="edge10" class="edge"><title>enemy_x&#45;&gt;down</title>
<path fill="none" stroke="green" stroke-width="0.169834" d="M647.134,-97.6005C652.647,-88.1872 662.064,-72.1074 670.509,-57.6861"/>
<polygon fill="green" stroke="green" stroke-width="0.169834" points="673.566,-59.3935 675.599,-48.9956 667.525,-55.856 673.566,-59.3935"/>
</g>
<!-- enemy_x&#45;&gt;left -->
<g id="edge26" class="edge"><title>enemy_x&#45;&gt;left</title>
<path fill="none" stroke="red" stroke-width="0.76295" stroke-dasharray="1,5" d="M627.765,-97.5888C622.091,-94.5484 615.499,-91.1498 609.385,-88.3259 570.274,-70.2614 556.167,-74.7554 519.385,-52.3259 516.877,-50.7967 514.374,-49.0485 511.947,-47.202"/>
<polygon fill="red" stroke="red" stroke-width="0.76295" points="514.038,-44.3899 504.099,-40.7204 509.581,-49.7871 514.038,-44.3899"/>
</g>
<!-- enemy_x&#45;&gt;right -->
<g id="edge56" class="edge"><title>enemy_x&#45;&gt;right</title>
<path fill="none" stroke="green" stroke-width="0.208265" d="M632.989,-97.6005C619.718,-86.1452 595.009,-64.8178 576.244,-48.6206"/>
<polygon fill="green" stroke="green" stroke-width="0.208265" points="578.474,-45.9214 568.617,-42.0367 573.9,-51.2204 578.474,-45.9214"/>
</g>
<!-- enemy_x&#45;&gt;select -->
<g id="edge1" class="edge"><title>enemy_x&#45;&gt;select</title>
<path fill="none" stroke="red" stroke-width="0.148403" d="M628.928,-97.6566C623.077,-94.411 616.047,-90.8468 609.385,-88.3259 546.07,-64.3684 522.694,-81.0295 461.385,-52.3259 459.277,-51.3392 457.171,-50.2113 455.097,-48.9922"/>
<polygon fill="red" stroke="red" stroke-width="0.148403" points="456.594,-45.7877 446.315,-43.2189 452.748,-51.6369 456.594,-45.7877"/>
</g>
<!-- enemy_y -->
<g id="node5" class="node"><title>enemy_y</title>
<polygon fill="lightgray" stroke="black" points="733.885,-115.711 684.885,-115.711 684.885,-97.7107 733.885,-97.7107 733.885,-115.711"/>
<text text-anchor="middle" x="709.385" y="-104.511" font-family="Times,serif" font-size="9.00">enemy_y</text>
</g>
<!-- enemy_y&#45;&gt;attack -->
<g id="edge37" class="edge"><title>enemy_y&#45;&gt;attack</title>
<path fill="none" stroke="green" stroke-width="0.758661" d="M699.989,-97.6005C687.194,-86.5568 663.77,-66.3376 645.289,-50.3856"/>
<polygon fill="green" stroke="green" stroke-width="0.758661" points="647.574,-47.7341 637.717,-43.8494 643,-53.0331 647.574,-47.7341"/>
</g>
<!-- enemy_y&#45;&gt;up -->
<g id="edge22" class="edge"><title>enemy_y&#45;&gt;up</title>
<path fill="none" stroke="red" stroke-width="0.321655" d="M696.687,-97.6486C690.739,-94.2381 683.425,-90.5476 676.385,-88.3259 555.472,-50.167 508.67,-105.102 393.385,-52.3259 390.354,-50.9385 387.42,-49.1052 384.663,-47.0588"/>
<polygon fill="red" stroke="red" stroke-width="0.321655" points="386.885,-44.3536 377.011,-40.5127 382.335,-49.6729 386.885,-44.3536"/>
</g>
<!-- enemy_y&#45;&gt;down -->
<g id="edge38" class="edge"><title>enemy_y&#45;&gt;down</title>
<path fill="none" stroke="red" stroke-width="0.113714" d="M707.217,-97.6005C704.928,-89.0421 701.167,-74.9733 697.605,-61.6504"/>
<polygon fill="red" stroke="red" stroke-width="0.113714" points="700.912,-60.468 694.948,-51.7113 694.15,-62.276 700.912,-60.468"/>
</g>
<!-- enemy_y&#45;&gt;left -->
<g id="edge27" class="edge"><title>enemy_y&#45;&gt;left</title>
<path fill="none" stroke="green" stroke-width="0.186436" stroke-dasharray="1,5" d="M695.944,-97.6136C690.095,-94.3608 683.063,-90.8027 676.385,-88.3259 609.263,-63.4333 583.21,-84.7499 519.385,-52.3259 516.766,-50.9956 514.19,-49.3778 511.719,-47.6109"/>
<polygon fill="green" stroke="green" stroke-width="0.186436" points="513.795,-44.7884 503.815,-41.2301 509.397,-50.235 513.795,-44.7884"/>
</g>
<!-- enemy_y&#45;&gt;right -->
<g id="edge30" class="edge"><title>enemy_y&#45;&gt;right</title>
<path fill="none" stroke="red" stroke-width="0.206997" d="M694.781,-97.5526C689.11,-94.5078 682.514,-91.1156 676.385,-88.3259 636.044,-69.9663 621.896,-74.2657 583.385,-52.3259 581.182,-51.0708 578.968,-49.6734 576.789,-48.1981"/>
<polygon fill="red" stroke="red" stroke-width="0.206997" points="578.799,-45.3319 568.66,-42.2588 574.67,-50.9842 578.799,-45.3319"/>
</g>
<!-- enemy_y&#45;&gt;select -->
<g id="edge6" class="edge"><title>enemy_y&#45;&gt;select</title>
<path fill="none" stroke="red" stroke-width="0.275552" d="M696.33,-97.5977C690.432,-94.2617 683.257,-90.6444 676.385,-88.3259 584.583,-57.3541 550.565,-90.1901 461.385,-52.3259 459.243,-51.4165 457.11,-50.3467 455.018,-49.1701"/>
<polygon fill="red" stroke="red" stroke-width="0.275552" points="456.496,-45.9598 446.192,-43.4947 452.71,-51.8474 456.496,-45.9598"/>
</g>
<!-- player_x_1 -->
<g id="node6" class="node"><title>player_x_1</title>
<polygon fill="lightgray" stroke="black" points="808.385,-115.711 752.385,-115.711 752.385,-97.7107 808.385,-97.7107 808.385,-115.711"/>
<text text-anchor="middle" x="780.385" y="-104.511" font-family="Times,serif" font-size="9.00">player_x_1</text>
</g>
<!-- player_x_1&#45;&gt;attack -->
<g id="edge25" class="edge"><title>player_x_1&#45;&gt;attack</title>
<path fill="none" stroke="red" stroke-width="0.742964" d="M763.534,-97.5381C757.247,-94.5566 750.024,-91.2107 743.385,-88.3259 703.872,-71.1582 691.153,-73.0526 653.385,-52.3259 651.359,-51.2143 649.313,-50.0047 647.281,-48.7371"/>
<polygon fill="red" stroke="red" stroke-width="0.742964" points="648.83,-45.5633 638.567,-42.931 644.948,-51.3886 648.83,-45.5633"/>
</g>
<!-- player_x_1&#45;&gt;up -->
<g id="edge40" class="edge"><title>player_x_1&#45;&gt;up</title>
<path fill="none" stroke="green" stroke-width="0.501857" d="M766.058,-97.5962C759.371,-94.1751 751.181,-90.4908 743.385,-88.3259 592.71,-46.4842 536.342,-115.703 393.385,-52.3259 390.338,-50.975 387.393,-49.1637 384.632,-47.129"/>
<polygon fill="green" stroke="green" stroke-width="0.501857" points="386.853,-44.4236 376.976,-40.592 382.308,-49.7471 386.853,-44.4236"/>
</g>
<!-- player_x_1&#45;&gt;down -->
<g id="edge62" class="edge"><title>player_x_1&#45;&gt;down</title>
<path fill="none" stroke="green" stroke-width="0.436395" d="M770.886,-97.6005C757.951,-86.5568 734.269,-66.3376 715.585,-50.3856"/>
<polygon fill="green" stroke="green" stroke-width="0.436395" points="717.807,-47.6808 707.929,-43.8494 713.262,-53.0044 717.807,-47.6808"/>
</g>
<!-- player_x_1&#45;&gt;left -->
<g id="edge7" class="edge"><title>player_x_1&#45;&gt;left</title>
<path fill="none" stroke="red" stroke-width="0.178077" d="M765.644,-97.6217C759.012,-94.2902 750.98,-90.6697 743.385,-88.3259 647.034,-58.5953 610.742,-95.002 519.385,-52.3259 516.576,-51.014 513.832,-49.3486 511.22,-47.5012"/>
<polygon fill="red" stroke="red" stroke-width="0.178077" points="513.391,-44.7562 503.415,-41.1903 508.99,-50.1995 513.391,-44.7562"/>
</g>
<!-- player_x_1&#45;&gt;right -->
<g id="edge31" class="edge"><title>player_x_1&#45;&gt;right</title>
<path fill="none" stroke="green" stroke-width="0.397869" d="M765.214,-97.6674C758.64,-94.4236 750.77,-90.8578 743.385,-88.3259 674.435,-64.6875 649.212,-83.6249 583.385,-52.3259 581.039,-51.2106 578.708,-49.897 576.434,-48.4649"/>
<polygon fill="green" stroke="green" stroke-width="0.397869" points="578.232,-45.4493 568.049,-42.5239 574.185,-51.161 578.232,-45.4493"/>
</g>
<!-- player_x_1&#45;&gt;select -->
<g id="edge47" class="edge"><title>player_x_1&#45;&gt;select</title>
<path fill="none" stroke="green" stroke-width="0.252456" d="M766.033,-97.6841C759.341,-94.2807 751.154,-90.5861 743.385,-88.3259 622.064,-53.0309 578.626,-99.4323 461.385,-52.3259 459.226,-51.4584 457.08,-50.42 454.978,-49.2665"/>
<polygon fill="green" stroke="green" stroke-width="0.252456" points="456.448,-46.0537 446.13,-43.6441 452.693,-51.9617 456.448,-46.0537"/>
</g>
<!-- player_y_1 -->
<g id="node7" class="node"><title>player_y_1</title>
<polygon fill="lightgray" stroke="black" points="882.385,-115.711 826.385,-115.711 826.385,-97.7107 882.385,-97.7107 882.385,-115.711"/>
<text text-anchor="middle" x="854.385" y="-104.511" font-family="Times,serif" font-size="9.00">player_y_1</text>
</g>
<!-- player_y_1&#45;&gt;attack -->
<g id="edge11" class="edge"><title>player_y_1&#45;&gt;attack</title>
<path fill="none" stroke="red" stroke-width="0.443787" d="M839.221,-97.6485C832.647,-94.4016 824.776,-90.8385 817.385,-88.3259 746.731,-64.3093 721.532,-82.7347 653.385,-52.3259 651.275,-51.3843 649.165,-50.3039 647.085,-49.1317"/>
<polygon fill="red" stroke="red" stroke-width="0.443787" points="648.582,-45.9372 638.259,-43.552 644.841,-51.854 648.582,-45.9372"/>
</g>
<!-- player_y_1&#45;&gt;up -->
<g id="edge65" class="edge"><title>player_y_1&#45;&gt;up</title>
<path fill="none" stroke="red" stroke-width="0.28736" d="M840.075,-97.5321C833.392,-94.098 825.2,-90.4214 817.385,-88.3259 634.715,-39.3455 566.954,-127.433 393.385,-52.3259 390.326,-51.0022 387.374,-49.2072 384.609,-47.1813"/>
<polygon fill="red" stroke="red" stroke-width="0.28736" points="386.83,-44.4757 376.95,-40.651 382.288,-49.8024 386.83,-44.4757"/>
</g>
<!-- player_y_1&#45;&gt;down -->
<g id="edge50" class="edge"><title>player_y_1&#45;&gt;down</title>
<path fill="none" stroke="red" stroke-width="0.138402" d="M837.245,-97.6005C809.911,-84.6665 755.979,-59.147 721.086,-42.6366"/>
<polygon fill="red" stroke="red" stroke-width="0.138402" points="722.324,-39.3502 711.788,-38.2367 719.33,-45.6776 722.324,-39.3502"/>
</g>
<!-- player_y_1&#45;&gt;left -->
<g id="edge34" class="edge"><title>player_y_1&#45;&gt;left</title>
<path fill="none" stroke="green" stroke-width="0.400164" d="M840.04,-97.6599C833.349,-94.2516 825.161,-90.5598 817.385,-88.3259 689.163,-51.4921 641.336,-106.413 519.385,-52.3259 516.551,-51.0692 513.79,-49.4389 511.169,-47.6121"/>
<polygon fill="green" stroke="green" stroke-width="0.400164" points="513.339,-44.8658 503.354,-41.3239 508.951,-50.3196 513.339,-44.8658"/>
</g>
<!-- player_y_1&#45;&gt;right -->
<g id="edge4" class="edge"><title>player_y_1&#45;&gt;right</title>
<path fill="none" stroke="red" stroke-width="0.166768" d="M839.651,-97.5975C833.021,-94.2615 824.988,-90.6442 817.385,-88.3259 716.736,-57.6379 679.908,-94.2211 583.385,-52.3259 581.002,-51.2918 578.644,-50.036 576.353,-48.6435"/>
<polygon fill="red" stroke="red" stroke-width="0.166768" points="578.14,-45.6227 567.935,-42.7752 574.137,-51.3651 578.14,-45.6227"/>
</g>
<!-- player_y_1&#45;&gt;select -->
<g id="edge58" class="edge"><title>player_y_1&#45;&gt;select</title>
<path fill="none" stroke="green" stroke-width="0.175957" d="M840.059,-97.59C833.373,-94.1676 825.183,-90.4841 817.385,-88.3259 664.118,-45.9058 609.712,-109.678 461.385,-52.3259 459.214,-51.4867 457.06,-50.4697 454.952,-49.3318"/>
<polygon fill="green" stroke="green" stroke-width="0.175957" points="456.416,-46.1176 446.09,-43.7453 452.683,-52.0391 456.416,-46.1176"/>
</g>
<!-- player_x_2 -->
<g id="node8" class="node"><title>player_x_2</title>
<polygon fill="lightgray" stroke="black" points="224.385,-115.711 168.385,-115.711 168.385,-97.7107 224.385,-97.7107 224.385,-115.711"/>
<text text-anchor="middle" x="196.385" y="-104.511" font-family="Times,serif" font-size="9.00">player_x_2</text>
</g>
<!-- player_x_2&#45;&gt;attack -->
<g id="edge68" class="edge"><title>player_x_2&#45;&gt;attack</title>
<path fill="none" stroke="green" stroke-width="0.260936" d="M210.712,-97.5962C217.399,-94.1751 225.589,-90.4908 233.385,-88.3259 384.059,-46.4842 437.194,-107.839 583.385,-52.3259 585.545,-51.5056 587.693,-50.5172 589.801,-49.4131"/>
<polygon fill="green" stroke="green" stroke-width="0.260936" points="591.975,-52.1869 598.694,-43.9948 588.333,-46.2091 591.975,-52.1869"/>
</g>
<!-- player_x_2&#45;&gt;up -->
<g id="edge16" class="edge"><title>player_x_2&#45;&gt;up</title>
<path fill="none" stroke="green" stroke-width="0.444944" d="M213.693,-97.5548C219.9,-94.6361 226.953,-91.3269 233.385,-88.3259 270.119,-71.1854 312.676,-51.4968 339.316,-39.1922"/>
<polygon fill="green" stroke="green" stroke-width="0.444944" points="341.09,-42.2283 348.702,-34.8586 338.155,-35.8731 341.09,-42.2283"/>
</g>
<!-- player_x_2&#45;&gt;down -->
<g id="edge36" class="edge"><title>player_x_2&#45;&gt;down</title>
<path fill="none" stroke="green" stroke-width="0.107449" d="M210.695,-97.535C217.379,-94.1015 225.571,-90.4245 233.385,-88.3259 414.324,-39.7317 477.678,-117.345 653.385,-52.3259 655.552,-51.524 657.705,-50.5495 659.817,-49.4558"/>
<polygon fill="green" stroke="green" stroke-width="0.107449" points="661.98,-52.2375 668.719,-44.0619 658.352,-46.2507 661.98,-52.2375"/>
</g>
<!-- player_x_2&#45;&gt;left -->
<g id="edge60" class="edge"><title>player_x_2&#45;&gt;left</title>
<path fill="none" stroke="green" stroke-width="0.579948" d="M211.122,-97.6118C217.754,-94.2784 225.786,-90.6592 233.385,-88.3259 331.454,-58.2124 368.378,-95.6172 461.385,-52.3259 464.195,-51.0179 466.941,-49.3549 469.553,-47.5089"/>
<polygon fill="green" stroke="green" stroke-width="0.579948" points="471.782,-50.2079 477.359,-41.1997 467.382,-44.7639 471.782,-50.2079"/>
</g>
<!-- player_x_2&#45;&gt;right -->
<g id="edge17" class="edge"><title>player_x_2&#45;&gt;right</title>
<path fill="none" stroke="green" stroke-width="0.388725" d="M210.735,-97.6778C217.427,-94.2731 225.614,-90.5792 233.385,-88.3259 356.43,-52.6463 401.175,-101.718 519.385,-52.3259 521.781,-51.3246 524.149,-50.0922 526.447,-48.7157"/>
<polygon fill="green" stroke="green" stroke-width="0.388725" points="528.65,-51.4477 534.878,-42.8767 524.664,-45.6931 528.65,-51.4477"/>
</g>
<!-- player_x_2&#45;&gt;select -->
<g id="edge41" class="edge"><title>player_x_2&#45;&gt;select</title>
<path fill="none" stroke="red" stroke-width="0.117589" d="M211.557,-97.6722C218.132,-94.4293 226.001,-90.8628 233.385,-88.3259 301.908,-64.7819 326.315,-82.0682 392.385,-52.3259 394.859,-51.2123 397.334,-49.9095 399.76,-48.4935"/>
<polygon fill="red" stroke="red" stroke-width="0.117589" points="401.749,-51.3754 408.244,-43.0049 397.946,-45.4981 401.749,-51.3754"/>
</g>
<!-- player_y_2 -->
<g id="node9" class="node"><title>player_y_2</title>
<polygon fill="lightgray" stroke="black" points="298.385,-115.711 242.385,-115.711 242.385,-97.7107 298.385,-97.7107 298.385,-115.711"/>
<text text-anchor="middle" x="270.385" y="-104.511" font-family="Times,serif" font-size="9.00">player_y_2</text>
</g>
<!-- player_y_2&#45;&gt;attack -->
<g id="edge48" class="edge"><title>player_y_2&#45;&gt;attack</title>
<path fill="none" stroke="green" stroke-width="0.144354" d="M284.74,-97.6939C291.432,-94.2925 299.619,-90.5967 307.385,-88.3259 426.119,-53.6076 468.344,-97.8101 583.385,-52.3259 585.534,-51.4763 587.673,-50.4657 589.774,-49.3451"/>
<polygon fill="green" stroke="green" stroke-width="0.144354" points="591.966,-52.1064 598.652,-43.8878 588.3,-46.143 591.966,-52.1064"/>
</g>
<!-- player_y_2&#45;&gt;up -->
<g id="edge32" class="edge"><title>player_y_2&#45;&gt;up</title>
<path fill="none" stroke="red" stroke-width="0.708207" d="M280.194,-97.6005C295.044,-85.3221 323.612,-61.7018 343.553,-45.214"/>
<polygon fill="red" stroke="red" stroke-width="0.708207" points="346.029,-47.7079 351.506,-38.6383 341.569,-42.3131 346.029,-47.7079"/>
</g>
<!-- player_y_2&#45;&gt;down -->
<g id="edge9" class="edge"><title>player_y_2&#45;&gt;down</title>
<path fill="none" stroke="red" stroke-width="0.572556" stroke-dasharray="1,5" d="M284.713,-97.6004C291.4,-94.1801 299.59,-90.4954 307.385,-88.3259 456.331,-46.8697 508.879,-107.296 653.385,-52.3259 655.544,-51.5044 657.692,-50.515 659.8,-49.4102"/>
<polygon fill="red" stroke="red" stroke-width="0.572556" points="661.975,-52.1835 668.692,-43.9902 658.331,-46.2062 661.975,-52.1835"/>
</g>
<!-- player_y_2&#45;&gt;left -->
<g id="edge24" class="edge"><title>player_y_2&#45;&gt;left</title>
<path fill="none" stroke="green" stroke-width="0.122879" d="M285.566,-97.6974C292.142,-94.4587 300.01,-90.8885 307.385,-88.3259 373.78,-65.2537 398.786,-84.2943 461.385,-52.3259 464.001,-50.9901 466.575,-49.3686 469.045,-47.5995"/>
<polygon fill="green" stroke="green" stroke-width="0.122879" points="471.368,-50.2225 476.947,-41.2159 466.969,-44.7772 471.368,-50.2225"/>
</g>
<!-- player_y_2&#45;&gt;right -->
<g id="edge54" class="edge"><title>player_y_2&#45;&gt;right</title>
<path fill="none" stroke="green" stroke-width="0.389157" d="M285.135,-97.6536C291.769,-94.328 299.8,-90.7033 307.385,-88.3259 398.581,-59.7427 432.014,-91.0587 519.385,-52.3259 521.759,-51.2733 524.111,-50.0043 526.399,-48.6028"/>
<polygon fill="green" stroke="green" stroke-width="0.389157" points="528.623,-51.3186 534.81,-42.7179 524.609,-45.5831 528.623,-51.3186"/>
</g>
<!-- player_y_2&#45;&gt;select -->
<g id="edge12" class="edge"><title>player_y_2&#45;&gt;select</title>
<path fill="none" stroke="red" stroke-width="0.104791" d="M287.268,-97.6105C293.558,-94.6368 300.774,-91.2774 307.385,-88.3259 344.847,-71.5994 356.619,-72.4247 392.385,-52.3259 394.611,-51.0748 396.866,-49.7101 399.102,-48.2843"/>
<polygon fill="red" stroke="red" stroke-width="0.104791" points="401.202,-51.0892 407.533,-42.5938 397.286,-45.2871 401.202,-51.0892"/>
</g>
<!-- distance_1 -->
<g id="node10" class="node"><title>distance_1</title>
<polygon fill="lightgray" stroke="black" points="167.385,-179.095 113.385,-179.095 113.385,-161.095 167.385,-161.095 167.385,-179.095"/>
<text text-anchor="middle" x="140.385" y="-167.895" font-family="Times,serif" font-size="9.00">distance_1</text>
</g>
<!-- distance_1&#45;&gt;attack -->
<g id="edge35" class="edge"><title>distance_1&#45;&gt;attack</title>
<path fill="none" stroke="green" stroke-width="0.178472" d="M167.63,-168.574C301.412,-165.883 883.389,-152.621 909.385,-125.095 920.605,-113.214 920.106,-100.66 909.385,-88.3259 871.697,-44.9673 706.703,-73.7157 653.385,-52.3259 651.24,-51.4656 649.104,-50.4468 647.005,-49.3202"/>
<polygon fill="green" stroke="green" stroke-width="0.178472" points="648.482,-46.1189 638.133,-43.8486 644.807,-52.0769 648.482,-46.1189"/>
</g>
<!-- distance_1&#45;&gt;up -->
<g id="edge51" class="edge"><title>distance_1&#45;&gt;up</title>
<path fill="none" stroke="green" stroke-width="0.416555" stroke-dasharray="1,5" d="M124.861,-160.988C112.418,-153.528 95.8484,-141.188 88.3848,-125.095 81.5089,-110.27 78.1505,-101.066 88.3848,-88.3259 119.362,-49.762 272.281,-34.0593 336.697,-29.085"/>
<polygon fill="green" stroke="green" stroke-width="0.416555" points="337.233,-32.5551 346.948,-28.3271 336.717,-25.5741 337.233,-32.5551"/>
</g>
<!-- distance_1&#45;&gt;down -->
<g id="edge2" class="edge"><title>distance_1&#45;&gt;down</title>
<path fill="none" stroke="red" stroke-width="0.592157" d="M167.816,-168.607C303.862,-166.055 900.735,-153.277 927.385,-125.095 989.453,-59.4602 805.83,-36.48 724.764,-29.667"/>
<polygon fill="red" stroke="red" stroke-width="0.592157" points="724.744,-26.1543 714.497,-28.8447 724.186,-33.132 724.744,-26.1543"/>
</g>
<!-- distance_1&#45;&gt;left -->
<g id="edge19" class="edge"><title>distance_1&#45;&gt;left</title>
<path fill="none" stroke="red" stroke-width="0.599604" d="M139.557,-160.965C138.378,-144.49 138.33,-107.138 159.385,-88.3259 209.784,-43.2949 399.581,-79.6786 461.385,-52.3259 464.219,-51.0715 466.981,-49.4425 469.602,-47.6166"/>
<polygon fill="red" stroke="red" stroke-width="0.599604" points="471.82,-50.3245 477.418,-41.3293 467.432,-44.8702 471.82,-50.3245"/>
</g>
<!-- distance_1&#45;&gt;right -->
<g id="edge28" class="edge"><title>distance_1&#45;&gt;right</title>
<path fill="none" stroke="red" stroke-width="0.407312" d="M167.427,-168.54C298.901,-165.709 866.042,-151.967 891.385,-125.095 902.597,-113.207 902.249,-100.534 891.385,-88.3259 845.573,-36.8481 647.085,-78.6113 583.385,-52.3259 580.984,-51.3352 578.613,-50.1104 576.313,-48.7391"/>
<polygon fill="red" stroke="red" stroke-width="0.407312" points="578.094,-45.716 567.878,-42.9095 574.114,-51.4745 578.094,-45.716"/>
</g>
<!-- distance_1&#45;&gt;select -->
<g id="edge44" class="edge"><title>distance_1&#45;&gt;select</title>
<path fill="none" stroke="green" stroke-width="0.138254" d="M135.122,-160.836C125.625,-144.781 108.218,-109.117 126.385,-88.3259 165.633,-43.4075 336.966,-74.3917 392.385,-52.3259 394.905,-51.3224 397.414,-50.0985 399.863,-48.7368"/>
<polygon fill="green" stroke="green" stroke-width="0.138254" points="401.805,-51.6497 408.39,-43.3494 398.066,-45.7319 401.805,-51.6497"/>
</g>
<!-- 37 -->
<g id="node18" class="node"><title>37</title>
<ellipse fill="white" stroke="black" cx="18.3848" cy="-106.711" rx="18.2703" ry="18.2703"/>
<text text-anchor="middle" x="18.3848" y="-104.511" font-family="Times,serif" font-size="9.00">37</text>
</g>
<!-- distance_1&#45;&gt;37 -->
<g id="edge52" class="edge"><title>distance_1&#45;&gt;37</title>
<path fill="none" stroke="green" stroke-width="0.217723" d="M123.357,-161.039C105.178,-152.375 75.5803,-138.091 50.3848,-125.095 48.0739,-123.904 45.6797,-122.646 43.2886,-121.375"/>
<polygon fill="green" stroke="green" stroke-width="0.217723" points="44.728,-118.174 34.2644,-116.512 41.4075,-124.337 44.728,-118.174"/>
</g>
<!-- distance_2 -->
<g id="node11" class="node"><title>distance_2</title>
<polygon fill="lightgray" stroke="black" points="370.385,-115.711 316.385,-115.711 316.385,-97.7107 370.385,-97.7107 370.385,-115.711"/>
<text text-anchor="middle" x="343.385" y="-104.511" font-family="Times,serif" font-size="9.00">distance_2</text>
</g>
<!-- distance_2&#45;&gt;attack -->
<g id="edge23" class="edge"><title>distance_2&#45;&gt;attack</title>
<path fill="none" stroke="red" stroke-width="0.329707" d="M357.72,-97.6639C364.172,-94.3402 371.987,-90.7141 379.385,-88.3259 467,-60.0403 498.549,-88.0938 583.385,-52.3259 585.514,-51.4282 587.639,-50.3811 589.729,-49.2336"/>
<polygon fill="red" stroke="red" stroke-width="0.329707" points="591.948,-51.9744 598.58,-43.7123 588.243,-46.0351 591.948,-51.9744"/>
</g>
<!-- distance_2&#45;&gt;up -->
<g id="edge5" class="edge"><title>distance_2&#45;&gt;up</title>
<path fill="none" stroke="red" stroke-width="0.223331" d="M345.656,-97.6005C348.511,-87.4093 353.554,-69.4046 357.826,-54.15"/>
<polygon fill="red" stroke="red" stroke-width="0.223331" points="361.298,-54.7317 360.625,-44.1583 354.557,-52.8437 361.298,-54.7317"/>
</g>
<!-- distance_2&#45;&gt;down -->
<g id="edge59" class="edge"><title>distance_2&#45;&gt;down</title>
<path fill="none" stroke="red" stroke-width="0.275215" d="M357.328,-97.6881C363.835,-94.2856 371.803,-90.5904 379.385,-88.3259 497.071,-53.1733 539.185,-97.5395 653.385,-52.3259 655.533,-51.4753 657.672,-50.4639 659.773,-49.3428"/>
<polygon fill="red" stroke="red" stroke-width="0.275215" points="661.966,-52.1037 668.651,-43.8842 658.299,-46.1408 661.966,-52.1037"/>
</g>
<!-- distance_2&#45;&gt;left -->
<g id="edge45" class="edge"><title>distance_2&#45;&gt;left</title>
<path fill="none" stroke="green" stroke-width="0.513628" d="M359.813,-97.6226C365.934,-94.6503 372.955,-91.2886 379.385,-88.3259 415.534,-71.669 427.751,-73.609 461.385,-52.3259 463.867,-50.7554 466.353,-48.98 468.77,-47.1169"/>
<polygon fill="green" stroke="green" stroke-width="0.513628" points="471.145,-49.6942 476.604,-40.6143 466.674,-44.3077 471.145,-49.6942"/>
</g>
<!-- distance_2&#45;&gt;right -->
<g id="edge29" class="edge"><title>distance_2&#45;&gt;right</title>
<path fill="none" stroke="red" stroke-width="0.131761" d="M358.511,-97.5804C364.838,-94.3983 372.345,-90.9017 379.385,-88.3259 439.719,-66.2485 461.789,-80.7918 519.385,-52.3259 521.658,-51.2025 523.922,-49.8998 526.136,-48.4902"/>
<polygon fill="red" stroke="red" stroke-width="0.131761" points="528.2,-51.3166 534.332,-42.676 524.15,-45.6073 528.2,-51.3166"/>
</g>
<!-- distance_2&#45;&gt;select -->
<g id="edge13" class="edge"><title>distance_2&#45;&gt;select</title>
<path fill="none" stroke="red" stroke-width="0.188812" d="M352.058,-97.6005C363.69,-86.7234 384.841,-66.9455 401.775,-51.1103"/>
<polygon fill="red" stroke="red" stroke-width="0.188812" points="404.296,-53.5448 409.21,-44.1583 399.515,-48.4319 404.296,-53.5448"/>
</g>
<!-- 37&#45;&gt;up -->
<g id="edge20" class="edge"><title>37&#45;&gt;up</title>
<path fill="none" stroke="green" stroke-width="0.36701" d="M33.5654,-96.2302C38.7442,-93.3345 44.6723,-90.377 50.3848,-88.3259 152.135,-51.7916 280.635,-35.5002 336.858,-29.7555"/>
<polygon fill="green" stroke="green" stroke-width="0.36701" points="337.502,-33.2091 347.11,-28.7444 336.815,-26.2429 337.502,-33.2091"/>
</g>
</g>
</svg>
