<?xml version="1.0" encoding="UTF-8" standalone="no"?>
<!DOCTYPE svg PUBLIC "-//W3C//DTD SVG 1.1//EN"
 "http://www.w3.org/Graphics/SVG/1.1/DTD/svg11.dtd">
<!-- Generated by graphviz version 2.38.0 (20140413.2041)
 -->
<!-- Title: %3 Pages: 1 -->
<svg width="1038pt" height="187pt"
 viewBox="0.00 0.00 1038.50 187.10" xmlns="http://www.w3.org/2000/svg" xmlns:xlink="http://www.w3.org/1999/xlink">
<g id="graph0" class="graph" transform="scale(1 1) rotate(0) translate(4 183.095)">
<title>%3</title>
<polygon fill="white" stroke="none" points="-4,4 -4,-183.095 1034.5,-183.095 1034.5,4 -4,4"/>
<!-- enemy_hp -->
<g id="node1" class="node"><title>enemy_hp</title>
<polygon fill="lightgray" stroke="black" points="648.615,-115.711 595.615,-115.711 595.615,-97.7107 648.615,-97.7107 648.615,-115.711"/>
<text text-anchor="middle" x="622.115" y="-104.511" font-family="Times,serif" font-size="9.00">enemy_hp</text>
</g>
<!-- attack -->
<g id="node12" class="node"><title>attack</title>
<ellipse fill="lightblue" stroke="black" cx="678.115" cy="-26.163" rx="26.3269" ry="26.3269"/>
<text text-anchor="middle" x="678.115" y="-23.963" font-family="Times,serif" font-size="9.00">attack</text>
</g>
<!-- enemy_hp&#45;&gt;attack -->
<g id="edge4" class="edge"><title>enemy_hp&#45;&gt;attack</title>
<path fill="none" stroke="red" stroke-width="0.327316" d="M627.897,-97.6005C634.811,-87.9018 646.771,-71.1262 657.285,-56.3792"/>
<polygon fill="red" stroke="red" stroke-width="0.327316" points="660.304,-58.174 663.259,-47.9996 654.604,-54.1104 660.304,-58.174"/>
</g>
<!-- up -->
<g id="node13" class="node"><title>up</title>
<ellipse fill="lightblue" stroke="black" cx="487.115" cy="-26.163" rx="18.2703" ry="18.2703"/>
<text text-anchor="middle" x="487.115" y="-23.963" font-family="Times,serif" font-size="9.00">up</text>
</g>
<!-- enemy_hp&#45;&gt;up -->
<g id="edge22" class="edge"><title>enemy_hp&#45;&gt;up</title>
<path fill="none" stroke="red" stroke-width="0.494762" d="M605.716,-97.6727C576.758,-83.4587 519.212,-55.114 515.115,-52.3259 512.582,-50.6026 510.038,-48.6667 507.571,-46.6539"/>
<polygon fill="red" stroke="red" stroke-width="0.494762" points="509.451,-43.6491 499.615,-39.7112 504.849,-48.9234 509.451,-43.6491"/>
</g>
<!-- down -->
<g id="node14" class="node"><title>down</title>
<ellipse fill="lightblue" stroke="black" cx="550.115" cy="-26.163" rx="26.3269" ry="26.3269"/>
<text text-anchor="middle" x="550.115" y="-23.963" font-family="Times,serif" font-size="9.00">down</text>
</g>
<!-- enemy_hp&#45;&gt;down -->
<g id="edge43" class="edge"><title>enemy_hp&#45;&gt;down</title>
<path fill="none" stroke="green" stroke-width="0.150019" d="M614.68,-97.6005C605.257,-87.3199 588.545,-69.088 574.484,-53.7491"/>
<polygon fill="green" stroke="green" stroke-width="0.150019" points="576.763,-51.0556 567.426,-46.0489 571.603,-55.7856 576.763,-51.0556"/>
</g>
<!-- left -->
<g id="node15" class="node"><title>left</title>
<ellipse fill="lightblue" stroke="black" cx="614.115" cy="-26.163" rx="19.6" ry="19.6"/>
<text text-anchor="middle" x="614.115" y="-23.963" font-family="Times,serif" font-size="9.00">left</text>
</g>
<!-- enemy_hp&#45;&gt;left -->
<g id="edge58" class="edge"><title>enemy_hp&#45;&gt;left</title>
<path fill="none" stroke="red" stroke-width="0.382586" d="M621.289,-97.6005C620.299,-87.8858 618.587,-71.0711 617.083,-56.3066"/>
<polygon fill="red" stroke="red" stroke-width="0.382586" points="620.533,-55.6428 616.038,-46.0489 613.569,-56.3521 620.533,-55.6428"/>
</g>
<!-- right -->
<g id="node16" class="node"><title>right</title>
<ellipse fill="lightblue" stroke="black" cx="427.115" cy="-26.163" rx="23.1702" ry="23.1702"/>
<text text-anchor="middle" x="427.115" y="-23.963" font-family="Times,serif" font-size="9.00">right</text>
</g>
<!-- enemy_hp&#45;&gt;right -->
<g id="edge10" class="edge"><title>enemy_hp&#45;&gt;right</title>
<path fill="none" stroke="green" stroke-width="0.137775" d="M606.953,-97.674C600.621,-94.5064 593.119,-90.9952 586.115,-88.3259 531.691,-67.5863 512.175,-78.4362 460.115,-52.3259 457.748,-51.1389 455.381,-49.7741 453.062,-48.3071"/>
<polygon fill="green" stroke="green" stroke-width="0.137775" points="454.664,-45.1572 444.461,-42.3019 450.657,-50.8966 454.664,-45.1572"/>
</g>
<!-- select -->
<g id="node17" class="node"><title>select</title>
<ellipse fill="lightblue" stroke="black" cx="360.115" cy="-26.163" rx="25.4118" ry="25.4118"/>
<text text-anchor="middle" x="360.115" y="-23.963" font-family="Times,serif" font-size="9.00">select</text>
</g>
<!-- enemy_hp&#45;&gt;select -->
<g id="edge55" class="edge"><title>enemy_hp&#45;&gt;select</title>
<path fill="none" stroke="red" stroke-width="0.239081" d="M607.766,-97.7047C601.312,-94.3885 593.498,-90.7571 586.115,-88.3259 504.064,-61.3092 474.516,-86.3476 395.115,-52.3259 392.621,-51.2575 390.132,-49.987 387.696,-48.5933"/>
<polygon fill="red" stroke="red" stroke-width="0.239081" points="389.502,-45.5938 379.194,-43.1463 385.726,-51.4879 389.502,-45.5938"/>
</g>
<!-- player_hp_1 -->
<g id="node2" class="node"><title>player_hp_1</title>
<polygon fill="lightgray" stroke="black" points="727.615,-115.711 666.615,-115.711 666.615,-97.7107 727.615,-97.7107 727.615,-115.711"/>
<text text-anchor="middle" x="697.115" y="-104.511" font-family="Times,serif" font-size="9.00">player_hp_1</text>
</g>
<!-- player_hp_1&#45;&gt;attack -->
<g id="edge19" class="edge"><title>player_hp_1&#45;&gt;attack</title>
<path fill="none" stroke="green" stroke-width="0.590978" d="M695.153,-97.6005C693.083,-89.0421 689.679,-74.9733 686.457,-61.6504"/>
<polygon fill="green" stroke="green" stroke-width="0.590978" points="689.806,-60.6081 684.053,-51.7113 683.002,-62.2539 689.806,-60.6081"/>
</g>
<!-- player_hp_1&#45;&gt;up -->
<g id="edge44" class="edge"><title>player_hp_1&#45;&gt;up</title>
<path fill="none" stroke="red" stroke-width="0.516405" d="M680.225,-97.648C673.182,-94.4763 664.853,-90.9692 657.115,-88.3259 595.502,-67.2812 572.555,-82.978 515.115,-52.3259 512.322,-50.8355 509.583,-49.0083 506.979,-47.025"/>
<polygon fill="red" stroke="red" stroke-width="0.516405" points="509.085,-44.2212 499.212,-40.3791 504.534,-49.5399 509.085,-44.2212"/>
</g>
<!-- player_hp_1&#45;&gt;down -->
<g id="edge2" class="edge"><title>player_hp_1&#45;&gt;down</title>
<path fill="none" stroke="red" stroke-width="0.118354" d="M679.125,-97.611C652.022,-85.3274 602.079,-62.3586 585.115,-52.3259 583.126,-51.1497 581.107,-49.8912 579.096,-48.5874"/>
<polygon fill="red" stroke="red" stroke-width="0.118354" points="580.668,-45.4242 570.431,-42.6955 576.732,-51.2127 580.668,-45.4242"/>
</g>
<!-- player_hp_1&#45;&gt;left -->
<g id="edge21" class="edge"><title>player_hp_1&#45;&gt;left</title>
<path fill="none" stroke="red" stroke-width="0.287337" d="M688.545,-97.6005C676.117,-85.8396 652.694,-63.6728 635.43,-47.3355"/>
<polygon fill="red" stroke="red" stroke-width="0.287337" points="637.663,-44.6291 627.994,-40.2976 632.851,-49.7134 637.663,-44.6291"/>
</g>
<!-- player_hp_1&#45;&gt;right -->
<g id="edge66" class="edge"><title>player_hp_1&#45;&gt;right</title>
<path fill="none" stroke="green" stroke-width="0.166701" d="M680.699,-97.5626C673.589,-94.3012 665.083,-90.7505 657.115,-88.3259 571.963,-62.4171 541.525,-88.3019 460.115,-52.3259 457.458,-51.1519 454.82,-49.7237 452.26,-48.1505"/>
<polygon fill="green" stroke="green" stroke-width="0.166701" points="454.162,-45.2106 443.947,-42.4014 450.181,-50.968 454.162,-45.2106"/>
</g>
<!-- player_hp_1&#45;&gt;select -->
<g id="edge15" class="edge"><title>player_hp_1&#45;&gt;select</title>
<path fill="none" stroke="green" stroke-width="0.14868" d="M681.135,-97.5695C673.957,-94.2283 665.28,-90.6147 657.115,-88.3259 543.937,-56.6044 504.271,-95.9165 395.115,-52.3259 392.595,-51.3198 390.087,-50.0941 387.639,-48.7311"/>
<polygon fill="green" stroke="green" stroke-width="0.14868" points="389.436,-45.7265 379.113,-43.3414 385.695,-51.6433 389.436,-45.7265"/>
</g>
<!-- player_hp_2 -->
<g id="node3" class="node"><title>player_hp_2</title>
<polygon fill="lightgray" stroke="black" points="208.615,-115.711 147.615,-115.711 147.615,-97.7107 208.615,-97.7107 208.615,-115.711"/>
<text text-anchor="middle" x="178.115" y="-104.511" font-family="Times,serif" font-size="9.00">player_hp_2</text>
</g>
<!-- player_hp_2&#45;&gt;up -->
<g id="edge47" class="edge"><title>player_hp_2&#45;&gt;up</title>
<path fill="none" stroke="red" stroke-width="0.292567" d="M194.107,-97.6149C201.287,-94.2822 209.962,-90.6625 218.115,-88.3259 322.222,-58.4867 361.139,-98.4728 459.115,-52.3259 462.13,-50.9056 465.055,-49.0526 467.807,-46.9955"/>
<polygon fill="red" stroke="red" stroke-width="0.292567" points="470.139,-49.6061 475.455,-40.4413 465.584,-44.2907 470.139,-49.6061"/>
</g>
<!-- player_hp_2&#45;&gt;down -->
<g id="edge34" class="edge"><title>player_hp_2&#45;&gt;down</title>
<path fill="none" stroke="green" stroke-width="0.152812" d="M193.694,-97.6886C200.942,-94.2861 209.785,-90.591 218.115,-88.3259 345.996,-53.5513 390.345,-99.6963 514.115,-52.3259 516.632,-51.3625 519.14,-50.1856 521.594,-48.8723"/>
<polygon fill="green" stroke="green" stroke-width="0.152812" points="523.438,-51.8469 530.161,-43.6579 519.799,-45.8674 523.438,-51.8469"/>
</g>
<!-- player_hp_2&#45;&gt;left -->
<g id="edge16" class="edge"><title>player_hp_2&#45;&gt;left</title>
<path fill="none" stroke="green" stroke-width="0.315203" d="M193.67,-97.5991C200.913,-94.1786 209.759,-90.494 218.115,-88.3259 376.755,-47.1613 434.559,-117.088 585.115,-52.3259 587.962,-51.1011 590.732,-49.4911 593.358,-47.6761"/>
<polygon fill="green" stroke="green" stroke-width="0.315203" points="595.57,-50.389 601.179,-41.401 591.189,-44.9292 595.57,-50.389"/>
</g>
<!-- player_hp_2&#45;&gt;right -->
<g id="edge67" class="edge"><title>player_hp_2&#45;&gt;right</title>
<path fill="none" stroke="red" stroke-width="0.55818" d="M194.555,-97.6442C201.67,-94.3965 210.172,-90.8341 218.115,-88.3259 294.25,-64.2832 321.429,-85.3636 394.115,-52.3259 396.759,-51.1241 399.388,-49.6768 401.942,-48.0912"/>
<polygon fill="red" stroke="red" stroke-width="0.55818" points="404.031,-50.9022 410.247,-42.3228 400.037,-45.153 404.031,-50.9022"/>
</g>
<!-- player_hp_2&#45;&gt;select -->
<g id="edge53" class="edge"><title>player_hp_2&#45;&gt;select</title>
<path fill="none" stroke="green" stroke-width="0.313963" d="M196.831,-97.5612C203.541,-94.6431 211.165,-91.3327 218.115,-88.3259 255.578,-72.1167 298.64,-53.5826 327.429,-41.2053"/>
<polygon fill="green" stroke="green" stroke-width="0.313963" points="329.18,-44.2626 336.985,-37.098 326.415,-37.8315 329.18,-44.2626"/>
</g>
<!-- enemy_x -->
<g id="node4" class="node"><title>enemy_x</title>
<polygon fill="lightgray" stroke="black" points="794.615,-115.711 745.615,-115.711 745.615,-97.7107 794.615,-97.7107 794.615,-115.711"/>
<text text-anchor="middle" x="770.115" y="-104.511" font-family="Times,serif" font-size="9.00">enemy_x</text>
</g>
<!-- enemy_x&#45;&gt;attack -->
<g id="edge50" class="edge"><title>enemy_x&#45;&gt;attack</title>
<path fill="none" stroke="green" stroke-width="0.269664" d="M760.615,-97.6005C747.68,-86.5568 723.998,-66.3376 705.314,-50.3856"/>
<polygon fill="green" stroke="green" stroke-width="0.269664" points="707.537,-47.6808 697.659,-43.8494 702.991,-53.0044 707.537,-47.6808"/>
</g>
<!-- enemy_x&#45;&gt;up -->
<g id="edge64" class="edge"><title>enemy_x&#45;&gt;up</title>
<path fill="none" stroke="green" stroke-width="0.406123" d="M757.066,-97.5809C751.169,-94.2419 743.993,-90.6267 737.115,-88.3259 642.322,-56.6163 605.274,-95.4809 515.115,-52.3259 512.108,-50.8868 509.188,-49.0225 506.44,-46.9594"/>
<polygon fill="green" stroke="green" stroke-width="0.406123" points="508.662,-44.2548 498.794,-40.4005 504.105,-49.5679 508.662,-44.2548"/>
</g>
<!-- enemy_x&#45;&gt;down -->
<g id="edge12" class="edge"><title>enemy_x&#45;&gt;down</title>
<path fill="none" stroke="red" stroke-width="0.182106" d="M756.665,-97.6369C750.815,-94.388 743.784,-90.8266 737.115,-88.3259 672.109,-63.9532 648.278,-81.1369 585.115,-52.3259 583.012,-51.367 580.908,-50.2734 578.833,-49.0915"/>
<polygon fill="red" stroke="red" stroke-width="0.182106" points="580.334,-45.8986 570.017,-43.4887 576.579,-51.8064 580.334,-45.8986"/>
</g>
<!-- enemy_x&#45;&gt;left -->
<g id="edge27" class="edge"><title>enemy_x&#45;&gt;left</title>
<path fill="none" stroke="red" stroke-width="0.374948" stroke-dasharray="1,5" d="M755.516,-97.541C749.846,-94.4948 743.249,-91.1046 737.115,-88.3259 696.363,-69.8675 681.481,-75.3348 643.115,-52.3259 640.596,-50.8153 638.085,-49.0792 635.654,-47.2401"/>
<polygon fill="red" stroke="red" stroke-width="0.374948" points="637.743,-44.4269 627.8,-40.7679 633.291,-49.8288 637.743,-44.4269"/>
</g>
<!-- enemy_x&#45;&gt;right -->
<g id="edge56" class="edge"><title>enemy_x&#45;&gt;right</title>
<path fill="none" stroke="green" stroke-width="0.280561" d="M757.414,-97.6574C751.465,-94.2487 744.151,-90.5572 737.115,-88.3259 618.775,-50.8026 574.922,-99.5652 460.115,-52.3259 457.429,-51.2207 454.77,-49.8397 452.198,-48.297"/>
<polygon fill="green" stroke="green" stroke-width="0.280561" points="454.093,-45.3534 443.864,-42.5956 450.141,-51.1307 454.093,-45.3534"/>
</g>
<!-- enemy_x&#45;&gt;select -->
<g id="edge1" class="edge"><title>enemy_x&#45;&gt;select</title>
<path fill="none" stroke="red" stroke-width="0.473473" d="M757.438,-97.5781C751.495,-94.1534 744.178,-90.4713 737.115,-88.3259 590.871,-43.9081 537.935,-106.754 395.115,-52.3259 392.58,-51.3598 390.061,-50.1628 387.604,-48.8196"/>
<polygon fill="red" stroke="red" stroke-width="0.473473" points="389.396,-45.812 379.064,-43.4666 385.678,-51.7432 389.396,-45.812"/>
</g>
<!-- enemy_y -->
<g id="node5" class="node"><title>enemy_y</title>
<polygon fill="lightgray" stroke="black" points="861.615,-115.711 812.615,-115.711 812.615,-97.7107 861.615,-97.7107 861.615,-115.711"/>
<text text-anchor="middle" x="837.115" y="-104.511" font-family="Times,serif" font-size="9.00">enemy_y</text>
</g>
<!-- enemy_y&#45;&gt;attack -->
<g id="edge38" class="edge"><title>enemy_y&#45;&gt;attack</title>
<path fill="none" stroke="red" stroke-width="0.302015" d="M822.055,-97.6435C816.444,-94.6733 810.008,-91.3078 804.115,-88.3259 772.562,-72.3622 736.198,-54.7986 710.671,-42.604"/>
<polygon fill="red" stroke="red" stroke-width="0.302015" points="711.983,-39.3523 701.45,-38.2077 708.971,-45.6708 711.983,-39.3523"/>
</g>
<!-- enemy_y&#45;&gt;up -->
<g id="edge23" class="edge"><title>enemy_y&#45;&gt;up</title>
<path fill="none" stroke="green" stroke-width="0.16118" d="M824.419,-97.6402C818.472,-94.2279 811.157,-90.5385 804.115,-88.3259 680.628,-49.5312 632.876,-106.05 515.115,-52.3259 512.082,-50.9424 509.147,-49.1115 506.39,-47.0664"/>
<polygon fill="green" stroke="green" stroke-width="0.16118" points="508.612,-44.3612 498.737,-40.5213 504.062,-49.6809 508.612,-44.3612"/>
</g>
<!-- enemy_y&#45;&gt;down -->
<g id="edge69" class="edge"><title>enemy_y&#45;&gt;down</title>
<path fill="none" stroke="red" stroke-width="0.177703" d="M824.063,-97.588C818.166,-94.2502 810.99,-90.6341 804.115,-88.3259 710.604,-56.9326 676.23,-90.1126 585.115,-52.3259 582.98,-51.4408 580.852,-50.4031 578.758,-49.2626"/>
<polygon fill="red" stroke="red" stroke-width="0.177703" points="580.241,-46.0631 569.9,-43.758 576.546,-52.0087 580.241,-46.0631"/>
</g>
<!-- enemy_y&#45;&gt;left -->
<g id="edge28" class="edge"><title>enemy_y&#45;&gt;left</title>
<path fill="none" stroke="red" stroke-width="0.339285" d="M823.68,-97.596C817.833,-94.3402 810.8,-90.7846 804.115,-88.3259 735.299,-63.0168 708.575,-85.3579 643.115,-52.3259 640.347,-50.9295 637.629,-49.2102 635.032,-47.3314"/>
<polygon fill="red" stroke="red" stroke-width="0.339285" points="637.207,-44.589 627.244,-40.9859 632.786,-50.0158 637.207,-44.589"/>
</g>
<!-- enemy_y&#45;&gt;right -->
<g id="edge31" class="edge"><title>enemy_y&#45;&gt;right</title>
<path fill="none" stroke="red" stroke-width="0.323765" d="M824.439,-97.5762C818.495,-94.151 811.179,-90.4691 804.115,-88.3259 657.012,-43.6957 602.994,-109.041 460.115,-52.3259 457.415,-51.2544 454.747,-49.8963 452.169,-48.3686"/>
<polygon fill="red" stroke="red" stroke-width="0.323765" points="454.062,-45.4234 443.825,-42.6905 450.123,-51.2103 454.062,-45.4234"/>
</g>
<!-- enemy_y&#45;&gt;select -->
<g id="edge8" class="edge"><title>enemy_y&#45;&gt;select</title>
<path fill="none" stroke="red" stroke-width="0.47316" d="M824.766,-97.703C818.772,-94.2158 811.32,-90.4474 804.115,-88.3259 629.063,-36.7873 566.181,-115.85 395.115,-52.3259 392.571,-51.3815 390.047,-50.2 387.586,-48.8675"/>
<polygon fill="red" stroke="red" stroke-width="0.47316" points="389.375,-45.8585 379.038,-43.5345 385.67,-51.7974 389.375,-45.8585"/>
</g>
<!-- player_x_1 -->
<g id="node6" class="node"><title>player_x_1</title>
<polygon fill="lightgray" stroke="black" points="283.115,-115.711 227.115,-115.711 227.115,-97.7107 283.115,-97.7107 283.115,-115.711"/>
<text text-anchor="middle" x="255.115" y="-104.511" font-family="Times,serif" font-size="9.00">player_x_1</text>
</g>
<!-- player_x_1&#45;&gt;attack -->
<g id="edge26" class="edge"><title>player_x_1&#45;&gt;attack</title>
<path fill="none" stroke="red" stroke-width="0.292245" d="M269.441,-97.5951C276.128,-94.1738 284.318,-90.4897 292.115,-88.3259 443.221,-46.3878 496.502,-107.975 643.115,-52.3259 645.275,-51.506 647.423,-50.5178 649.531,-49.4139"/>
<polygon fill="red" stroke="red" stroke-width="0.292245" points="651.705,-52.1878 658.424,-43.996 648.063,-46.2098 651.705,-52.1878"/>
</g>
<!-- player_x_1&#45;&gt;up -->
<g id="edge41" class="edge"><title>player_x_1&#45;&gt;up</title>
<path fill="none" stroke="red" stroke-width="0.22531" d="M270.274,-97.6349C276.847,-94.3857 284.718,-90.8246 292.115,-88.3259 364.048,-64.0254 391.496,-86.8612 459.115,-52.3259 461.934,-50.886 464.689,-49.0901 467.302,-47.1246"/>
<polygon fill="red" stroke="red" stroke-width="0.22531" points="469.739,-49.6465 475.078,-40.4952 465.198,-44.3197 469.739,-49.6465"/>
</g>
<!-- player_x_1&#45;&gt;down -->
<g id="edge62" class="edge"><title>player_x_1&#45;&gt;down</title>
<path fill="none" stroke="red" stroke-width="0.412209" d="M269.857,-97.6268C276.489,-94.2962 284.521,-90.675 292.115,-88.3259 387.606,-58.7866 421.491,-89.9021 514.115,-52.3259 516.612,-51.3127 519.106,-50.0997 521.55,-48.7613"/>
<polygon fill="red" stroke="red" stroke-width="0.412209" points="523.417,-51.7217 530.098,-43.4984 519.747,-45.7609 523.417,-51.7217"/>
</g>
<!-- player_x_1&#45;&gt;left -->
<g id="edge9" class="edge"><title>player_x_1&#45;&gt;left</title>
<path fill="none" stroke="green" stroke-width="0.11928" d="M269.462,-97.6672C276.153,-94.2604 284.34,-90.5677 292.115,-88.3259 418.179,-51.9731 465.234,-105.641 585.115,-52.3259 587.947,-51.0664 590.707,-49.4342 593.328,-47.6063"/>
<polygon fill="green" stroke="green" stroke-width="0.11928" points="595.546,-50.3133 601.142,-41.3169 591.157,-44.8601 595.546,-50.3133"/>
</g>
<!-- player_x_1&#45;&gt;right -->
<g id="edge32" class="edge"><title>player_x_1&#45;&gt;right</title>
<path fill="none" stroke="red" stroke-width="0.497863" d="M271.534,-97.5649C277.899,-94.5216 285.286,-91.1272 292.115,-88.3259 336.592,-70.0812 351.82,-75.1785 394.115,-52.3259 396.444,-51.0673 398.785,-49.6514 401.085,-48.1495"/>
<polygon fill="red" stroke="red" stroke-width="0.497863" points="403.516,-50.717 409.652,-42.0802 399.469,-45.0051 403.516,-50.717"/>
</g>
<!-- player_x_1&#45;&gt;select -->
<g id="edge48" class="edge"><title>player_x_1&#45;&gt;select</title>
<path fill="none" stroke="red" stroke-width="0.17106" d="M265.956,-97.6005C281.313,-86.1122 309.943,-64.6946 331.618,-48.4804"/>
<polygon fill="red" stroke="red" stroke-width="0.17106" points="333.924,-51.1267 339.834,-42.3339 329.731,-45.5215 333.924,-51.1267"/>
</g>
<!-- player_y_1 -->
<g id="node7" class="node"><title>player_y_1</title>
<polygon fill="lightgray" stroke="black" points="357.115,-115.711 301.115,-115.711 301.115,-97.7107 357.115,-97.7107 357.115,-115.711"/>
<text text-anchor="middle" x="329.115" y="-104.511" font-family="Times,serif" font-size="9.00">player_y_1</text>
</g>
<!-- player_y_1&#45;&gt;attack -->
<g id="edge13" class="edge"><title>player_y_1&#45;&gt;attack</title>
<path fill="none" stroke="red" stroke-width="0.354467" d="M343.469,-97.6922C350.162,-94.2905 358.348,-90.5949 366.115,-88.3259 485.28,-53.5115 527.654,-97.9455 643.115,-52.3259 645.264,-51.4768 647.403,-50.4666 649.505,-49.3463"/>
<polygon fill="red" stroke="red" stroke-width="0.354467" points="651.696,-52.1078 658.383,-43.8897 648.03,-46.1442 651.696,-52.1078"/>
</g>
<!-- player_y_1&#45;&gt;up -->
<g id="edge65" class="edge"><title>player_y_1&#45;&gt;up</title>
<path fill="none" stroke="green" stroke-width="0.13642" d="M345.58,-97.673C351.95,-94.643 359.328,-91.2294 366.115,-88.3259 406.863,-70.8911 421.345,-75.5192 459.115,-52.3259 461.812,-50.6693 464.491,-48.7388 467.063,-46.6973"/>
<polygon fill="green" stroke="green" stroke-width="0.13642" points="469.531,-49.1896 474.798,-39.9969 464.948,-43.8984 469.531,-49.1896"/>
</g>
<!-- player_y_1&#45;&gt;down -->
<g id="edge51" class="edge"><title>player_y_1&#45;&gt;down</title>
<path fill="none" stroke="green" stroke-width="0.426841" d="M344.667,-97.5529C351.171,-94.3667 358.885,-90.8744 366.115,-88.3259 429.959,-65.8187 452.422,-80.1965 514.115,-52.3259 516.571,-51.2163 519.035,-49.9335 521.458,-48.5464"/>
<polygon fill="green" stroke="green" stroke-width="0.426841" points="523.368,-51.4797 529.966,-43.1898 519.638,-45.556 523.368,-51.4797"/>
</g>
<!-- player_y_1&#45;&gt;left -->
<g id="edge35" class="edge"><title>player_y_1&#45;&gt;left</title>
<path fill="none" stroke="green" stroke-width="0.285211" d="M343.859,-97.6346C350.492,-94.3055 358.523,-90.6832 366.115,-88.3259 460.317,-59.0736 495.82,-94.2333 585.115,-52.3259 587.92,-51.009 590.664,-49.3403 593.275,-47.4911"/>
<polygon fill="green" stroke="green" stroke-width="0.285211" points="595.505,-50.1886 601.079,-41.1782 591.103,-44.7463 595.505,-50.1886"/>
</g>
<!-- player_y_1&#45;&gt;right -->
<g id="edge5" class="edge"><title>player_y_1&#45;&gt;right</title>
<path fill="none" stroke="red" stroke-width="0.347851" d="M339.233,-97.6005C353.761,-85.9563 381.016,-64.1116 401.338,-47.8234"/>
<polygon fill="red" stroke="red" stroke-width="0.347851" points="403.677,-50.4338 409.291,-41.4486 399.299,-44.9717 403.677,-50.4338"/>
</g>
<!-- player_y_1&#45;&gt;select -->
<g id="edge59" class="edge"><title>player_y_1&#45;&gt;select</title>
<path fill="none" stroke="green" stroke-width="0.212983" d="M332.315,-97.6005C335.885,-88.5559 341.883,-73.3568 347.397,-59.3878"/>
<polygon fill="green" stroke="green" stroke-width="0.212983" points="350.684,-60.5909 351.1,-50.0042 344.173,-58.0211 350.684,-60.5909"/>
</g>
<!-- player_x_2 -->
<g id="node8" class="node"><title>player_x_2</title>
<polygon fill="lightgray" stroke="black" points="431.115,-115.711 375.115,-115.711 375.115,-97.7107 431.115,-97.7107 431.115,-115.711"/>
<text text-anchor="middle" x="403.115" y="-104.511" font-family="Times,serif" font-size="9.00">player_x_2</text>
</g>
<!-- player_x_2&#45;&gt;attack -->
<g id="edge68" class="edge"><title>player_x_2&#45;&gt;attack</title>
<path fill="none" stroke="green" stroke-width="0.211845" d="M417.874,-97.6799C424.509,-94.3592 432.538,-90.731 440.115,-88.3259 527.45,-60.6021 558.697,-87.9594 643.115,-52.3259 645.243,-51.4273 647.368,-50.3795 649.458,-49.2315"/>
<polygon fill="green" stroke="green" stroke-width="0.211845" points="651.678,-51.9719 658.309,-43.709 647.972,-46.0331 651.678,-51.9719"/>
</g>
<!-- player_x_2&#45;&gt;up -->
<g id="edge17" class="edge"><title>player_x_2&#45;&gt;up</title>
<path fill="none" stroke="green" stroke-width="0.146774" d="M411.788,-97.6005C424.583,-85.6357 448.896,-62.9009 466.445,-46.4909"/>
<polygon fill="green" stroke="green" stroke-width="0.146774" points="469.053,-48.8441 473.966,-39.4576 464.272,-43.7312 469.053,-48.8441"/>
</g>
<!-- player_x_2&#45;&gt;down -->
<g id="edge37" class="edge"><title>player_x_2&#45;&gt;down</title>
<path fill="none" stroke="green" stroke-width="0.271122" d="M420.152,-97.7028C449.048,-84.0936 505.393,-57.4264 514.115,-52.3259 516.361,-51.0123 518.648,-49.6018 520.925,-48.1435"/>
<polygon fill="green" stroke="green" stroke-width="0.271122" points="523.176,-50.8491 529.551,-42.3866 519.29,-45.0267 523.176,-50.8491"/>
</g>
<!-- player_x_2&#45;&gt;left -->
<g id="edge61" class="edge"><title>player_x_2&#45;&gt;left</title>
<path fill="none" stroke="green" stroke-width="0.597034" stroke-dasharray="1,5" d="M418.673,-97.5701C425.178,-94.3865 432.892,-90.8915 440.115,-88.3259 502.686,-66.1007 526.187,-82.9304 585.115,-52.3259 587.721,-50.9722 590.289,-49.339 592.756,-47.5627"/>
<polygon fill="green" stroke="green" stroke-width="0.597034" points="595.083,-50.1821 600.653,-41.17 590.678,-44.7411 595.083,-50.1821"/>
</g>
<!-- player_x_2&#45;&gt;right -->
<g id="edge18" class="edge"><title>player_x_2&#45;&gt;right</title>
<path fill="none" stroke="red" stroke-width="0.192328" d="M405.593,-97.6005C408.407,-88.3905 413.171,-72.799 417.502,-58.6229"/>
<polygon fill="red" stroke="red" stroke-width="0.192328" points="420.971,-59.2485 420.546,-48.6622 414.276,-57.2029 420.971,-59.2485"/>
</g>
<!-- player_x_2&#45;&gt;select -->
<g id="edge42" class="edge"><title>player_x_2&#45;&gt;select</title>
<path fill="none" stroke="red" stroke-width="0.194214" d="M398.675,-97.6005C393.57,-88.276 384.885,-72.4102 377.048,-58.0947"/>
<polygon fill="red" stroke="red" stroke-width="0.194214" points="379.939,-56.0865 372.067,-48.9956 373.798,-59.4479 379.939,-56.0865"/>
</g>
<!-- player_y_2 -->
<g id="node9" class="node"><title>player_y_2</title>
<polygon fill="lightgray" stroke="black" points="505.115,-115.711 449.115,-115.711 449.115,-97.7107 505.115,-97.7107 505.115,-115.711"/>
<text text-anchor="middle" x="477.115" y="-104.511" font-family="Times,serif" font-size="9.00">player_y_2</text>
</g>
<!-- player_y_2&#45;&gt;attack -->
<g id="edge49" class="edge"><title>player_y_2&#45;&gt;attack</title>
<path fill="none" stroke="green" stroke-width="0.101232" d="M492.711,-97.6741C499.221,-94.5064 506.929,-90.9952 514.115,-88.3259 569.913,-67.5971 589.458,-78.0954 643.115,-52.3259 645.197,-51.3256 647.287,-50.2005 649.351,-48.9954"/>
<polygon fill="green" stroke="green" stroke-width="0.101232" points="651.627,-51.693 658.141,-43.3375 647.838,-45.8069 651.627,-51.693"/>
</g>
<!-- player_y_2&#45;&gt;up -->
<g id="edge33" class="edge"><title>player_y_2&#45;&gt;up</title>
<path fill="none" stroke="green" stroke-width="0.235225" d="M478.147,-97.6005C479.436,-87.473 481.708,-69.6293 483.642,-54.4363"/>
<polygon fill="green" stroke="green" stroke-width="0.235225" points="487.12,-54.8309 484.911,-44.4689 480.176,-53.9468 487.12,-54.8309"/>
</g>
<!-- player_y_2&#45;&gt;down -->
<g id="edge11" class="edge"><title>player_y_2&#45;&gt;down</title>
<path fill="none" stroke="red" stroke-width="0.150998" stroke-dasharray="1,5" d="M484.652,-97.6005C494.206,-87.3199 511.151,-69.088 525.406,-53.7491"/>
<polygon fill="red" stroke="red" stroke-width="0.150998" points="528.319,-55.7566 532.562,-46.0489 523.191,-50.9913 528.319,-55.7566"/>
</g>
<!-- player_y_2&#45;&gt;left -->
<g id="edge25" class="edge"><title>player_y_2&#45;&gt;left</title>
<path fill="none" stroke="green" stroke-width="0.530148" d="M494.194,-97.564C522.521,-84.0086 576.929,-57.7696 585.115,-52.3259 587.56,-50.6994 590.023,-48.8874 592.425,-47.0019"/>
<polygon fill="green" stroke="green" stroke-width="0.530148" points="594.811,-49.5688 600.241,-40.471 590.323,-44.1971 594.811,-49.5688"/>
</g>
<!-- player_y_2&#45;&gt;right -->
<g id="edge54" class="edge"><title>player_y_2&#45;&gt;right</title>
<path fill="none" stroke="green" stroke-width="0.132661" d="M471.952,-97.6005C465.57,-87.5741 454.373,-69.9847 444.766,-54.8919"/>
<polygon fill="green" stroke="green" stroke-width="0.132661" points="447.663,-52.9264 439.341,-46.37 441.758,-56.6854 447.663,-52.9264"/>
</g>
<!-- player_y_2&#45;&gt;select -->
<g id="edge40" class="edge"><title>player_y_2&#45;&gt;select</title>
<path fill="none" stroke="green" stroke-width="0.175731" d="M464.21,-97.5698C447.954,-87.2547 419.226,-68.8288 395.115,-52.3259 393.007,-50.8834 390.84,-49.3784 388.665,-47.8532"/>
<polygon fill="green" stroke="green" stroke-width="0.175731" points="390.541,-44.8925 380.36,-41.9595 386.49,-50.6011 390.541,-44.8925"/>
</g>
<!-- distance_1 -->
<g id="node10" class="node"><title>distance_1</title>
<polygon fill="lightgray" stroke="black" points="531.115,-179.095 477.115,-179.095 477.115,-161.095 531.115,-161.095 531.115,-179.095"/>
<text text-anchor="middle" x="504.115" y="-167.895" font-family="Times,serif" font-size="9.00">distance_1</text>
</g>
<!-- distance_1&#45;&gt;attack -->
<g id="edge36" class="edge"><title>distance_1&#45;&gt;attack</title>
<path fill="none" stroke="green" stroke-width="0.15228" stroke-dasharray="1,5" d="M531.37,-168.184C617.871,-165.013 882.005,-153.096 907.115,-125.095 964.808,-60.7602 792.862,-37.1898 714.659,-29.9451"/>
<polygon fill="green" stroke="green" stroke-width="0.15228" points="714.549,-26.4219 704.28,-29.0287 713.933,-33.3948 714.549,-26.4219"/>
</g>
<!-- distance_1&#45;&gt;up -->
<g id="edge52" class="edge"><title>distance_1&#45;&gt;up</title>
<path fill="none" stroke="red" stroke-width="0.134387" d="M477.104,-167.878C396.294,-163.961 160.596,-150.441 138.115,-125.095 127.271,-112.87 127.222,-100.508 138.115,-88.3259 185.959,-34.8157 393.628,-81.7185 459.115,-52.3259 462.155,-50.961 465.096,-49.1413 467.856,-47.1021"/>
<polygon fill="red" stroke="red" stroke-width="0.134387" points="470.181,-49.7187 475.51,-40.5616 465.634,-44.3968 470.181,-49.7187"/>
</g>
<!-- distance_1&#45;&gt;down -->
<g id="edge3" class="edge"><title>distance_1&#45;&gt;down</title>
<path fill="none" stroke="red" stroke-width="0.382433" d="M531.198,-167.884C612.228,-163.984 848.569,-150.506 871.115,-125.095 881.961,-112.871 881.924,-100.582 871.115,-88.3259 828.742,-40.2855 644.737,-75.7448 585.115,-52.3259 582.964,-51.4812 580.823,-50.4742 578.721,-49.3563"/>
<polygon fill="red" stroke="red" stroke-width="0.382433" points="580.194,-46.1539 569.84,-43.9055 576.532,-52.1197 580.194,-46.1539"/>
</g>
<!-- distance_1&#45;&gt;left -->
<g id="edge20" class="edge"><title>distance_1&#45;&gt;left</title>
<path fill="none" stroke="green" stroke-width="0.216096" d="M531.328,-168.038C615.164,-164.506 865.293,-151.795 889.115,-125.095 899.994,-112.901 899.801,-100.69 889.115,-88.3259 852.987,-46.5262 693.334,-75.3572 643.115,-52.3259 640.297,-51.0338 637.546,-49.3809 634.931,-47.5409"/>
<polygon fill="green" stroke="green" stroke-width="0.216096" points="637.102,-44.7954 627.122,-41.2381 632.706,-50.2425 637.102,-44.7954"/>
</g>
<!-- distance_1&#45;&gt;right -->
<g id="edge29" class="edge"><title>distance_1&#45;&gt;right</title>
<path fill="none" stroke="green" stroke-width="0.509816" d="M477.103,-167.987C394.5,-164.321 149.454,-151.31 126.115,-125.095 115.248,-112.89 115.356,-100.627 126.115,-88.3259 165.676,-43.0954 338.594,-75.3102 394.115,-52.3259 396.798,-51.215 399.455,-49.83 402.027,-48.2847"/>
<polygon fill="green" stroke="green" stroke-width="0.509816" points="404.085,-51.1171 410.359,-42.5793 400.13,-45.3414 404.085,-51.1171"/>
</g>
<!-- distance_1&#45;&gt;select -->
<g id="edge45" class="edge"><title>distance_1&#45;&gt;select</title>
<path fill="none" stroke="green" stroke-width="0.270547" stroke-dasharray="1,5" d="M477.017,-168.777C378.011,-167.338 39.9603,-159.891 8.11454,-125.095 -2.91867,-113.04 -2.4055,-100.832 8.11454,-88.3259 48.3343,-40.515 243.235,-30.0761 324.462,-27.7982"/>
<polygon fill="green" stroke="green" stroke-width="0.270547" points="324.784,-31.2912 334.691,-27.5381 324.606,-24.2935 324.784,-31.2912"/>
</g>
<!-- 36 -->
<g id="node18" class="node"><title>36</title>
<ellipse fill="white" stroke="black" cx="35.1145" cy="-106.711" rx="18.2703" ry="18.2703"/>
<text text-anchor="middle" x="35.1145" y="-104.511" font-family="Times,serif" font-size="9.00">36</text>
</g>
<!-- distance_1&#45;&gt;36 -->
<g id="edge57" class="edge"><title>distance_1&#45;&gt;36</title>
<path fill="none" stroke="green" stroke-width="0.3" d="M476.963,-167.768C393.944,-163.489 144.446,-148.933 67.1145,-125.095 64.4863,-124.285 61.8273,-123.249 59.2239,-122.086"/>
<polygon fill="green" stroke="green" stroke-width="0.3" points="60.6934,-118.906 50.1924,-117.5 57.5241,-125.148 60.6934,-118.906"/>
</g>
<!-- 27 -->
<g id="node19" class="node"><title>27</title>
<ellipse fill="white" stroke="black" cx="1012.11" cy="-106.711" rx="18.2703" ry="18.2703"/>
<text text-anchor="middle" x="1012.11" y="-104.511" font-family="Times,serif" font-size="9.00">27</text>
</g>
<!-- distance_1&#45;&gt;27 -->
<g id="edge6" class="edge"><title>distance_1&#45;&gt;27</title>
<path fill="none" stroke="green" stroke-width="0.175598" d="M531.178,-168.028C618.966,-164.343 895.049,-150.937 980.115,-125.095 982.746,-124.296 985.407,-123.266 988.012,-122.108"/>
<polygon fill="green" stroke="green" stroke-width="0.175598" points="989.709,-125.171 997.045,-117.527 986.543,-118.928 989.709,-125.171"/>
</g>
<!-- distance_2 -->
<g id="node11" class="node"><title>distance_2</title>
<polygon fill="lightgray" stroke="black" points="577.115,-115.711 523.115,-115.711 523.115,-97.7107 577.115,-97.7107 577.115,-115.711"/>
<text text-anchor="middle" x="550.115" y="-104.511" font-family="Times,serif" font-size="9.00">distance_2</text>
</g>
<!-- distance_2&#45;&gt;attack -->
<g id="edge24" class="edge"><title>distance_2&#45;&gt;attack</title>
<path fill="none" stroke="red" stroke-width="0.263525" d="M565.213,-97.6641C583.847,-87.5926 616.351,-69.5643 643.115,-52.3259 645.006,-51.1076 646.936,-49.8285 648.869,-48.5196"/>
<polygon fill="red" stroke="red" stroke-width="0.263525" points="651.045,-51.2695 657.257,-42.6867 647.049,-45.5224 651.045,-51.2695"/>
</g>
<!-- distance_2&#45;&gt;up -->
<g id="edge7" class="edge"><title>distance_2&#45;&gt;up</title>
<path fill="none" stroke="green" stroke-width="0.60658" d="M543.61,-97.6005C534.507,-86.2518 517.634,-65.2138 504.688,-49.0739"/>
<polygon fill="green" stroke="green" stroke-width="0.60658" points="507.326,-46.7686 498.339,-41.1576 501.866,-51.1483 507.326,-46.7686"/>
</g>
<!-- distance_2&#45;&gt;down -->
<g id="edge60" class="edge"><title>distance_2&#45;&gt;down</title>
<path fill="none" stroke="red" stroke-width="0.198061" d="M550.115,-97.6005C550.115,-89.2498 550.115,-75.6527 550.115,-62.6213"/>
<polygon fill="red" stroke="red" stroke-width="0.198061" points="553.615,-62.4026 550.115,-52.4026 546.615,-62.4027 553.615,-62.4026"/>
</g>
<!-- distance_2&#45;&gt;left -->
<g id="edge46" class="edge"><title>distance_2&#45;&gt;left</title>
<path fill="none" stroke="green" stroke-width="0.35908" d="M556.723,-97.6005C565.806,-86.4521 582.509,-65.9533 595.562,-49.9329"/>
<polygon fill="green" stroke="green" stroke-width="0.35908" points="598.392,-52 601.996,-42.0367 592.965,-47.5784 598.392,-52"/>
</g>
<!-- distance_2&#45;&gt;right -->
<g id="edge30" class="edge"><title>distance_2&#45;&gt;right</title>
<path fill="none" stroke="red" stroke-width="0.149726" d="M535.455,-97.7082C517.373,-87.6812 485.869,-69.6978 460.115,-52.3259 457.919,-50.8453 455.675,-49.2712 453.439,-47.661"/>
<polygon fill="red" stroke="red" stroke-width="0.149726" points="455.109,-44.5415 444.993,-41.3931 450.938,-50.1629 455.109,-44.5415"/>
</g>
<!-- distance_2&#45;&gt;select -->
<g id="edge14" class="edge"><title>distance_2&#45;&gt;select</title>
<path fill="none" stroke="red" stroke-width="0.359373" d="M534.579,-97.5524C528.319,-94.4388 520.969,-90.9988 514.115,-88.3259 462.634,-68.2504 444.662,-76.7848 395.115,-52.3259 392.825,-51.1955 390.523,-49.9193 388.254,-48.5563"/>
<polygon fill="red" stroke="red" stroke-width="0.359373" points="390.039,-45.5416 379.755,-42.9938 386.206,-51.3987 390.039,-45.5416"/>
</g>
<!-- 36&#45;&gt;select -->
<g id="edge63" class="edge"><title>36&#45;&gt;select</title>
<path fill="none" stroke="red" stroke-width="0.109263" d="M50.3122,-96.2771C55.4921,-93.3845 61.4166,-90.417 67.1145,-88.3259 156.711,-55.4449 268.559,-38.2625 324.614,-31.1776"/>
<polygon fill="red" stroke="red" stroke-width="0.109263" points="325.238,-34.6272 334.736,-29.932 324.383,-27.6796 325.238,-34.6272"/>
</g>
<!-- 27&#45;&gt;attack -->
<g id="edge39" class="edge"><title>27&#45;&gt;attack</title>
<path fill="none" stroke="green" stroke-width="0.484197" d="M996.924,-96.2571C991.745,-93.3632 985.819,-90.4 980.115,-88.3259 887.586,-54.6821 772.01,-37.8008 714.349,-30.9689"/>
<polygon fill="green" stroke="green" stroke-width="0.484197" points="714.61,-27.4759 704.275,-29.8084 713.809,-34.4299 714.61,-27.4759"/>
</g>
</g>
</svg>
