<?xml version="1.0" encoding="UTF-8" standalone="no"?>
<!DOCTYPE svg PUBLIC "-//W3C//DTD SVG 1.1//EN"
 "http://www.w3.org/Graphics/SVG/1.1/DTD/svg11.dtd">
<!-- Generated by graphviz version 2.38.0 (20140413.2041)
 -->
<!-- Title: %3 Pages: 1 -->
<svg width="2496pt" height="432pt"
 viewBox="0.00 0.00 2496.12 432.27" xmlns="http://www.w3.org/2000/svg" xmlns:xlink="http://www.w3.org/1999/xlink">
<g id="graph0" class="graph" transform="scale(1 1) rotate(0) translate(4 428.274)">
<title>%3</title>
<polygon fill="white" stroke="none" points="-4,4 -4,-428.274 2492.12,-428.274 2492.12,4 -4,4"/>
<!-- enemy_hp -->
<g id="node1" class="node"><title>enemy_hp</title>
<polygon fill="lightgray" stroke="black" points="510.5,-358.061 457.5,-358.061 457.5,-340.061 510.5,-340.061 510.5,-358.061"/>
<text text-anchor="middle" x="484" y="-346.861" font-family="Times,serif" font-size="9.00">enemy_hp</text>
</g>
<!-- attack -->
<g id="node12" class="node"><title>attack</title>
<ellipse fill="lightblue" stroke="black" cx="533" cy="-187.258" rx="26.3269" ry="26.3269"/>
<text text-anchor="middle" x="533" y="-185.058" font-family="Times,serif" font-size="9.00">attack</text>
</g>
<!-- enemy_hp&#45;&gt;attack -->
<g id="edge1" class="edge"><title>enemy_hp&#45;&gt;attack</title>
<path fill="none" stroke="red" stroke-width="0.617631" stroke-dasharray="1,5" d="M457.374,-341.106C420.793,-330.951 358.025,-311.164 345,-291.848 334.458,-276.214 333.919,-264.678 345,-249.421 379.637,-201.729 452.405,-190.499 496.559,-188.274"/>
<polygon fill="red" stroke="red" stroke-width="0.617631" points="496.73,-191.77 506.592,-187.898 496.468,-184.775 496.73,-191.77"/>
</g>
<!-- up -->
<g id="node13" class="node"><title>up</title>
<ellipse fill="lightblue" stroke="black" cx="1216" cy="-187.258" rx="18.2703" ry="18.2703"/>
<text text-anchor="middle" x="1216" y="-185.058" font-family="Times,serif" font-size="9.00">up</text>
</g>
<!-- enemy_hp&#45;&gt;up -->
<g id="edge66" class="edge"><title>enemy_hp&#45;&gt;up</title>
<path fill="none" stroke="green" stroke-width="0.554782" d="M505.014,-340.058C517.351,-335.706 533.351,-330.653 548,-327.848 656.54,-307.065 946.173,-343.255 1044,-291.848 1065.39,-280.607 1058.85,-264.164 1078,-249.421 1112.18,-223.105 1159.45,-205.345 1188.85,-196.018"/>
<polygon fill="green" stroke="green" stroke-width="0.554782" points="1189.93,-199.35 1198.46,-193.07 1187.87,-192.658 1189.93,-199.35"/>
</g>
<!-- down -->
<g id="node14" class="node"><title>down</title>
<ellipse fill="lightblue" stroke="black" cx="772" cy="-187.258" rx="26.3269" ry="26.3269"/>
<text text-anchor="middle" x="772" y="-185.058" font-family="Times,serif" font-size="9.00">down</text>
</g>
<!-- enemy_hp&#45;&gt;down -->
<g id="edge77" class="edge"><title>enemy_hp&#45;&gt;down</title>
<path fill="none" stroke="green" stroke-width="0.30109" stroke-dasharray="1,5" d="M482.879,-339.847C480.815,-321.056 478.629,-274.617 503,-249.421 534.857,-216.486 669.377,-198.615 735.291,-191.689"/>
<polygon fill="green" stroke="green" stroke-width="0.30109" points="736.039,-195.131 745.631,-190.634 735.328,-188.167 736.039,-195.131"/>
</g>
<!-- left -->
<g id="node15" class="node"><title>left</title>
<ellipse fill="lightblue" stroke="black" cx="1991" cy="-187.258" rx="19.6" ry="19.6"/>
<text text-anchor="middle" x="1991" y="-185.058" font-family="Times,serif" font-size="9.00">left</text>
</g>
<!-- enemy_hp&#45;&gt;left -->
<g id="edge41" class="edge"><title>enemy_hp&#45;&gt;left</title>
<path fill="none" stroke="red" stroke-width="0.2169" stroke-dasharray="1,5" d="M504.4,-340.054C516.8,-335.583 533.071,-330.41 548,-327.848 1010.84,-248.4 1139.51,-361.008 1604,-291.848 1741.18,-271.423 1899.45,-219.969 1962.73,-198.215"/>
<polygon fill="red" stroke="red" stroke-width="0.2169" points="1964.09,-201.448 1972.39,-194.869 1961.8,-194.833 1964.09,-201.448"/>
</g>
<!-- right -->
<g id="node16" class="node"><title>right</title>
<ellipse fill="lightblue" stroke="black" cx="1820" cy="-23.3345" rx="23.1702" ry="23.1702"/>
<text text-anchor="middle" x="1820" y="-21.1345" font-family="Times,serif" font-size="9.00">right</text>
</g>
<!-- enemy_hp&#45;&gt;right -->
<g id="edge30" class="edge"><title>enemy_hp&#45;&gt;right</title>
<path fill="none" stroke="red" stroke-width="0.330932" d="M457.144,-340.229C441.952,-336.042 422.54,-331.095 405,-327.848 265.256,-301.978 6.63612,-360.729 95,-249.421 298.154,6.48221 487.61,-129.325 811,-82.669 1190.69,-27.8911 1657.76,-24.1297 1786.04,-24.1989"/>
<polygon fill="red" stroke="red" stroke-width="0.330932" points="1786.38,-27.6993 1796.39,-24.2136 1786.39,-20.6993 1786.38,-27.6993"/>
</g>
<!-- select -->
<g id="node17" class="node"><title>select</title>
<ellipse fill="lightblue" stroke="black" cx="1668" cy="-187.258" rx="25.4118" ry="25.4118"/>
<text text-anchor="middle" x="1668" y="-185.058" font-family="Times,serif" font-size="9.00">select</text>
</g>
<!-- enemy_hp&#45;&gt;select -->
<g id="edge54" class="edge"><title>enemy_hp&#45;&gt;select</title>
<path fill="none" stroke="red" stroke-width="0.407659" d="M504.401,-340.059C516.801,-335.59 533.072,-330.418 548,-327.848 660.306,-308.51 1471.52,-343.704 1573,-291.848 1594.27,-280.977 1590.13,-267.276 1606,-249.421 1617.34,-236.658 1630.75,-223.253 1642.18,-212.255"/>
<polygon fill="red" stroke="red" stroke-width="0.407659" points="1644.91,-214.494 1649.74,-205.064 1640.08,-209.424 1644.91,-214.494"/>
</g>
<!-- 290 -->
<g id="node20" class="node"><title>290</title>
<ellipse fill="white" stroke="black" cx="533" cy="-270.635" rx="21.4286" ry="21.4286"/>
<text text-anchor="middle" x="533" y="-268.435" font-family="Times,serif" font-size="9.00">290</text>
</g>
<!-- enemy_hp&#45;&gt;290 -->
<g id="edge43" class="edge"><title>enemy_hp&#45;&gt;290</title>
<path fill="none" stroke="red" stroke-width="0.111075" d="M489.244,-339.882C495.664,-329.869 506.849,-312.423 516.303,-297.677"/>
<polygon fill="red" stroke="red" stroke-width="0.111075" points="519.457,-299.243 521.908,-288.935 513.564,-295.464 519.457,-299.243"/>
</g>
<!-- 625 -->
<g id="node25" class="node"><title>625</title>
<ellipse fill="white" stroke="black" cx="375" cy="-270.635" rx="21.4286" ry="21.4286"/>
<text text-anchor="middle" x="375" y="-268.435" font-family="Times,serif" font-size="9.00">625</text>
</g>
<!-- enemy_hp&#45;&gt;625 -->
<g id="edge71" class="edge"><title>enemy_hp&#45;&gt;625</title>
<path fill="none" stroke="green" stroke-width="0.636402" d="M472.335,-339.882C455.269,-327.916 423.063,-305.335 400.383,-289.432"/>
<polygon fill="green" stroke="green" stroke-width="0.636402" points="402.109,-286.368 391.912,-283.492 398.09,-292.099 402.109,-286.368"/>
</g>
<!-- 797 -->
<g id="node32" class="node"><title>797</title>
<ellipse fill="white" stroke="black" cx="435" cy="-270.635" rx="21.4286" ry="21.4286"/>
<text text-anchor="middle" x="435" y="-268.435" font-family="Times,serif" font-size="9.00">797</text>
</g>
<!-- enemy_hp&#45;&gt;797 -->
<g id="edge67" class="edge"><title>enemy_hp&#45;&gt;797</title>
<path fill="none" stroke="green" stroke-width="0.346712" d="M478.756,-339.882C472.336,-329.869 461.151,-312.423 451.697,-297.677"/>
<polygon fill="green" stroke="green" stroke-width="0.346712" points="454.436,-295.464 446.092,-288.935 448.543,-299.243 454.436,-295.464"/>
</g>
<!-- player_hp_1 -->
<g id="node2" class="node"><title>player_hp_1</title>
<polygon fill="lightgray" stroke="black" points="705.5,-358.061 644.5,-358.061 644.5,-340.061 705.5,-340.061 705.5,-358.061"/>
<text text-anchor="middle" x="675" y="-346.861" font-family="Times,serif" font-size="9.00">player_hp_1</text>
</g>
<!-- player_hp_1&#45;&gt;attack -->
<g id="edge14" class="edge"><title>player_hp_1&#45;&gt;attack</title>
<path fill="none" stroke="green" stroke-width="0.448927" d="M663.191,-339.975C648.753,-329.761 624.02,-311.171 606,-291.848 584.993,-269.321 565.13,-240.453 551.442,-218.915"/>
<polygon fill="green" stroke="green" stroke-width="0.448927" points="554.242,-216.792 545.969,-210.174 548.309,-220.507 554.242,-216.792"/>
</g>
<!-- player_hp_1&#45;&gt;up -->
<g id="edge79" class="edge"><title>player_hp_1&#45;&gt;up</title>
<path fill="none" stroke="green" stroke-width="0.269733" d="M705.583,-346.788C793.213,-342.732 1043.56,-328.182 1116,-291.848 1135.54,-282.047 1175.06,-237.283 1198.14,-209.906"/>
<polygon fill="green" stroke="green" stroke-width="0.269733" points="1201,-211.942 1204.73,-202.026 1195.63,-207.45 1201,-211.942"/>
</g>
<!-- player_hp_1&#45;&gt;down -->
<g id="edge78" class="edge"><title>player_hp_1&#45;&gt;down</title>
<path fill="none" stroke="green" stroke-width="0.324046" d="M677.804,-340.009C684.02,-322.679 700.004,-280.872 720,-249.421 727.866,-237.049 738.047,-224.518 747.312,-214.048"/>
<polygon fill="green" stroke="green" stroke-width="0.324046" points="750.048,-216.241 754.166,-206.479 744.859,-211.542 750.048,-216.241"/>
</g>
<!-- player_hp_1&#45;&gt;left -->
<g id="edge65" class="edge"><title>player_hp_1&#45;&gt;left</title>
<path fill="none" stroke="red" stroke-width="0.684384" d="M705.64,-346.948C890.012,-340.213 1844.84,-304.754 1872,-291.848 1894.86,-280.982 1891.37,-266.557 1910,-249.421 1927.73,-233.117 1949.62,-216.787 1966.17,-205.107"/>
<polygon fill="red" stroke="red" stroke-width="0.684384" points="1968.55,-207.713 1974.76,-199.126 1964.55,-201.969 1968.55,-207.713"/>
</g>
<!-- player_hp_1&#45;&gt;right -->
<g id="edge50" class="edge"><title>player_hp_1&#45;&gt;right</title>
<path fill="none" stroke="red" stroke-width="0.631832" d="M674.773,-339.912C674.437,-310.09 677.704,-206.282 737,-161.095 907.372,-31.2627 1621.32,-24.0842 1786.01,-24.1812"/>
<polygon fill="red" stroke="red" stroke-width="0.631832" points="1786.47,-27.6818 1796.48,-24.198 1786.48,-20.6818 1786.47,-27.6818"/>
</g>
<!-- player_hp_1&#45;&gt;select -->
<g id="edge10" class="edge"><title>player_hp_1&#45;&gt;select</title>
<path fill="none" stroke="red" stroke-width="0.214788" d="M705.584,-347.015C861.991,-341.564 1566.64,-315.755 1606,-291.848 1619.86,-283.428 1639.62,-247.333 1653.08,-220.1"/>
<polygon fill="red" stroke="red" stroke-width="0.214788" points="1656.33,-221.42 1657.56,-210.896 1650.04,-218.357 1656.33,-221.42"/>
</g>
<!-- player_hp_1&#45;&gt;290 -->
<g id="edge33" class="edge"><title>player_hp_1&#45;&gt;290</title>
<path fill="none" stroke="red" stroke-width="0.267277" d="M658.941,-339.878C637.917,-329.107 599.977,-309.472 568,-291.848 565.321,-290.371 562.539,-288.811 559.768,-287.24"/>
<polygon fill="red" stroke="red" stroke-width="0.267277" points="561.504,-284.2 551.087,-282.264 558.023,-290.274 561.504,-284.2"/>
</g>
<!-- player_hp_2 -->
<g id="node3" class="node"><title>player_hp_2</title>
<polygon fill="lightgray" stroke="black" points="608.5,-424.274 547.5,-424.274 547.5,-406.274 608.5,-406.274 608.5,-424.274"/>
<text text-anchor="middle" x="578" y="-413.074" font-family="Times,serif" font-size="9.00">player_hp_2</text>
</g>
<!-- player_hp_2&#45;&gt;attack -->
<g id="edge92" class="edge"><title>player_hp_2&#45;&gt;attack</title>
<path fill="none" stroke="green" stroke-width="0.124477" stroke-dasharray="1,5" d="M547.15,-413.822C445.453,-412.015 125.516,-403.697 95,-370.274 58.7834,-330.608 59.7436,-289.943 95,-249.421 147.159,-189.473 401.319,-186.482 496.723,-187.534"/>
<polygon fill="green" stroke="green" stroke-width="0.124477" points="496.718,-191.034 506.763,-187.666 496.811,-184.034 496.718,-191.034"/>
</g>
<!-- player_hp_2&#45;&gt;up -->
<g id="edge27" class="edge"><title>player_hp_2&#45;&gt;up</title>
<path fill="none" stroke="green" stroke-width="0.292378" stroke-dasharray="1,5" d="M608.844,-410.984C715.058,-399.165 1064.06,-356.116 1154,-291.848 1180.56,-272.868 1197.75,-238.64 1207.14,-214.742"/>
<polygon fill="green" stroke="green" stroke-width="0.292378" points="1210.48,-215.8 1210.69,-205.207 1203.92,-213.356 1210.48,-215.8"/>
</g>
<!-- player_hp_2&#45;&gt;down -->
<g id="edge72" class="edge"><title>player_hp_2&#45;&gt;down</title>
<path fill="none" stroke="red" stroke-width="0.251693" d="M547.218,-413.148C489.908,-410.336 370.35,-400.86 345,-370.274 310.724,-328.92 309.815,-290.005 345,-249.421 351.433,-242.001 634.174,-205.656 735.963,-192.786"/>
<polygon fill="red" stroke="red" stroke-width="0.251693" points="736.586,-196.235 746.069,-191.51 735.71,-189.29 736.586,-196.235"/>
</g>
<!-- player_hp_2&#45;&gt;left -->
<g id="edge11" class="edge"><title>player_hp_2&#45;&gt;left</title>
<path fill="none" stroke="green" stroke-width="0.639244" d="M608.547,-414.419C809.67,-415.238 1937.47,-417.704 1991,-370.274 2034.06,-332.119 2015.87,-256.169 2001.77,-215.484"/>
<polygon fill="green" stroke="green" stroke-width="0.639244" points="2005.01,-214.155 1998.32,-205.945 1998.43,-216.539 2005.01,-214.155"/>
</g>
<!-- player_hp_2&#45;&gt;right -->
<g id="edge51" class="edge"><title>player_hp_2&#45;&gt;right</title>
<path fill="none" stroke="green" stroke-width="0.176236" d="M547.149,-413.154C442.977,-409.161 108.438,-394.555 67,-370.274 21.2745,-343.482 0,-324.631 0,-271.635 0,-271.635 0,-271.635 0,-186.258 0,-70.08 126.677,-108.27 240,-82.669 395.676,-47.4995 1572.55,-28.0856 1786.64,-24.8271"/>
<polygon fill="green" stroke="green" stroke-width="0.176236" points="1786.7,-28.3266 1796.65,-24.6758 1786.6,-21.3274 1786.7,-28.3266"/>
</g>
<!-- player_hp_2&#45;&gt;select -->
<g id="edge88" class="edge"><title>player_hp_2&#45;&gt;select</title>
<path fill="none" stroke="green" stroke-width="0.493335" d="M608.734,-414.545C713.238,-415.038 1064.24,-413.171 1350,-370.274 1494.38,-348.6 1578.93,-406.75 1669,-291.848 1684.23,-272.419 1682.84,-244.044 1678.28,-221.902"/>
<polygon fill="green" stroke="green" stroke-width="0.493335" points="1681.62,-220.842 1675.92,-211.912 1674.81,-222.448 1681.62,-220.842"/>
</g>
<!-- 183 -->
<g id="node29" class="node"><title>183</title>
<ellipse fill="white" stroke="black" cx="578" cy="-349.061" rx="21.4286" ry="21.4286"/>
<text text-anchor="middle" x="578" y="-346.861" font-family="Times,serif" font-size="9.00">183</text>
</g>
<!-- player_hp_2&#45;&gt;183 -->
<g id="edge59" class="edge"><title>player_hp_2&#45;&gt;183</title>
<path fill="none" stroke="green" stroke-width="0.117345" d="M578,-406.142C578,-399.599 578,-389.97 578,-380.53"/>
<polygon fill="green" stroke="green" stroke-width="0.117345" points="581.5,-380.516 578,-370.516 574.5,-380.516 581.5,-380.516"/>
</g>
<!-- enemy_x -->
<g id="node4" class="node"><title>enemy_x</title>
<polygon fill="lightgray" stroke="black" points="1035.5,-279.635 986.5,-279.635 986.5,-261.635 1035.5,-261.635 1035.5,-279.635"/>
<text text-anchor="middle" x="1011" y="-268.435" font-family="Times,serif" font-size="9.00">enemy_x</text>
</g>
<!-- enemy_x&#45;&gt;attack -->
<g id="edge4" class="edge"><title>enemy_x&#45;&gt;attack</title>
<path fill="none" stroke="green" stroke-width="0.411996" d="M999.92,-261.502C993.531,-257.221 985.167,-252.279 977,-249.421 957.737,-242.68 671.777,-205.901 569.245,-192.852"/>
<polygon fill="green" stroke="green" stroke-width="0.411996" points="569.43,-189.348 559.068,-191.559 568.547,-196.292 569.43,-189.348"/>
</g>
<!-- enemy_x&#45;&gt;up -->
<g id="edge49" class="edge"><title>enemy_x&#45;&gt;up</title>
<path fill="none" stroke="red" stroke-width="0.438187" stroke-dasharray="1,5" d="M1025.6,-261.513C1032.84,-257.633 1041.77,-253.055 1050,-249.421 1097.92,-228.274 1155.66,-208.159 1188.88,-197.085"/>
<polygon fill="red" stroke="red" stroke-width="0.438187" points="1190.36,-200.281 1198.75,-193.818 1188.16,-193.636 1190.36,-200.281"/>
</g>
<!-- enemy_x&#45;&gt;down -->
<g id="edge40" class="edge"><title>enemy_x&#45;&gt;down</title>
<path fill="none" stroke="green" stroke-width="0.104273" d="M999.112,-261.583C992.754,-257.533 984.673,-252.785 977,-249.421 919.772,-224.333 849.223,-205.804 807.579,-196.048"/>
<polygon fill="green" stroke="green" stroke-width="0.104273" points="808.171,-192.593 797.64,-193.759 806.599,-199.414 808.171,-192.593"/>
</g>
<!-- enemy_x&#45;&gt;left -->
<g id="edge70" class="edge"><title>enemy_x&#45;&gt;left</title>
<path fill="none" stroke="red" stroke-width="0.113209" d="M1035.52,-267.316C1076.71,-263.446 1162.43,-255.492 1235,-249.421 1442.45,-232.067 1494.53,-230.45 1702,-213.421 1796.66,-205.652 1908.69,-195.674 1961.12,-190.958"/>
<polygon fill="red" stroke="red" stroke-width="0.113209" points="1961.74,-194.417 1971.38,-190.034 1961.11,-187.445 1961.74,-194.417"/>
</g>
<!-- enemy_x&#45;&gt;right -->
<g id="edge38" class="edge"><title>enemy_x&#45;&gt;right</title>
<path fill="none" stroke="red" stroke-width="0.297759" d="M1021.54,-261.36C1048.05,-240.985 1120.27,-188.09 1189,-161.095 1407.5,-75.2716 1690.8,-38.3413 1786.64,-27.745"/>
<polygon fill="red" stroke="red" stroke-width="0.297759" points="1787.31,-31.1933 1796.88,-26.6359 1786.56,-24.2341 1787.31,-31.1933"/>
</g>
<!-- enemy_y -->
<g id="node5" class="node"><title>enemy_y</title>
<polygon fill="lightgray" stroke="black" points="1489.5,-279.635 1440.5,-279.635 1440.5,-261.635 1489.5,-261.635 1489.5,-279.635"/>
<text text-anchor="middle" x="1465" y="-268.435" font-family="Times,serif" font-size="9.00">enemy_y</text>
</g>
<!-- enemy_y&#45;&gt;attack -->
<g id="edge76" class="edge"><title>enemy_y&#45;&gt;attack</title>
<path fill="none" stroke="red" stroke-width="0.30873" stroke-dasharray="1,5" d="M1441.3,-261.566C1427.39,-257.192 1409.39,-252.139 1393,-249.421 1104.94,-201.674 1027.84,-239.309 737,-213.421 677.98,-208.168 609.699,-199.143 569.001,-193.45"/>
<polygon fill="red" stroke="red" stroke-width="0.30873" points="569.415,-189.974 559.024,-192.043 568.437,-196.905 569.415,-189.974"/>
</g>
<!-- enemy_y&#45;&gt;up -->
<g id="edge15" class="edge"><title>enemy_y&#45;&gt;up</title>
<path fill="none" stroke="green" stroke-width="0.195271" d="M1450.87,-261.461C1443.6,-257.476 1434.5,-252.823 1426,-249.421 1362.57,-224.029 1284.57,-204.117 1243.81,-194.525"/>
<polygon fill="green" stroke="green" stroke-width="0.195271" points="1244.35,-191.056 1233.81,-192.204 1242.76,-197.875 1244.35,-191.056"/>
</g>
<!-- enemy_y&#45;&gt;down -->
<g id="edge97" class="edge"><title>enemy_y&#45;&gt;down</title>
<path fill="none" stroke="green" stroke-width="0.23706" stroke-dasharray="1,5" d="M1440.59,-261.631C1426.77,-257.389 1409.08,-252.446 1393,-249.421 1173.39,-208.112 904.519,-193.664 808.34,-189.609"/>
<polygon fill="green" stroke="green" stroke-width="0.23706" points="808.398,-186.109 798.263,-189.196 808.111,-193.103 808.398,-186.109"/>
</g>
<!-- enemy_y&#45;&gt;left -->
<g id="edge34" class="edge"><title>enemy_y&#45;&gt;left</title>
<path fill="none" stroke="red" stroke-width="0.308869" d="M1476.07,-261.46C1482.45,-257.166 1490.81,-252.225 1499,-249.421 1585.65,-219.739 1868.26,-197.138 1961.13,-190.358"/>
<polygon fill="red" stroke="red" stroke-width="0.308869" points="1961.52,-193.839 1971.24,-189.628 1961.02,-186.857 1961.52,-193.839"/>
</g>
<!-- enemy_y&#45;&gt;right -->
<g id="edge21" class="edge"><title>enemy_y&#45;&gt;right</title>
<path fill="none" stroke="red" stroke-width="0.2002" d="M1472.15,-261.33C1497.22,-232.682 1584.51,-136.78 1675,-82.669 1711.62,-60.7747 1757.95,-43.7701 1788.25,-33.9075"/>
<polygon fill="red" stroke="red" stroke-width="0.2002" points="1789.41,-37.2114 1797.88,-30.8399 1787.29,-30.5419 1789.41,-37.2114"/>
</g>
<!-- enemy_y&#45;&gt;select -->
<g id="edge62" class="edge"><title>enemy_y&#45;&gt;select</title>
<path fill="none" stroke="red" stroke-width="0.26893" d="M1477.28,-261.565C1483.61,-257.606 1491.55,-252.945 1499,-249.421 1544.31,-227.989 1599.3,-209.371 1633.98,-198.474"/>
<polygon fill="red" stroke="red" stroke-width="0.26893" points="1635.12,-201.786 1643.63,-195.478 1633.04,-195.101 1635.12,-201.786"/>
</g>
<!-- player_x_1 -->
<g id="node6" class="node"><title>player_x_1</title>
<polygon fill="lightgray" stroke="black" points="1564,-279.635 1508,-279.635 1508,-261.635 1564,-261.635 1564,-279.635"/>
<text text-anchor="middle" x="1536" y="-268.435" font-family="Times,serif" font-size="9.00">player_x_1</text>
</g>
<!-- player_x_1&#45;&gt;attack -->
<g id="edge69" class="edge"><title>player_x_1&#45;&gt;attack</title>
<path fill="none" stroke="green" stroke-width="0.394584" d="M1523.92,-261.428C1516.72,-257.008 1507.22,-251.955 1498,-249.421 1334.75,-204.579 905.689,-227.794 737,-213.421 677.96,-208.391 609.685,-199.3 568.994,-193.532"/>
<polygon fill="green" stroke="green" stroke-width="0.394584" points="569.413,-190.057 559.018,-192.106 568.423,-196.986 569.413,-190.057"/>
</g>
<!-- player_x_1&#45;&gt;up -->
<g id="edge25" class="edge"><title>player_x_1&#45;&gt;up</title>
<path fill="none" stroke="red" stroke-width="0.594171" d="M1523.05,-261.597C1515.89,-257.451 1506.7,-252.609 1498,-249.421 1408.41,-216.596 1296.04,-198.76 1244.38,-191.778"/>
<polygon fill="red" stroke="red" stroke-width="0.594171" points="1244.67,-188.287 1234.3,-190.452 1243.76,-195.227 1244.67,-188.287"/>
</g>
<!-- player_x_1&#45;&gt;down -->
<g id="edge47" class="edge"><title>player_x_1&#45;&gt;down</title>
<path fill="none" stroke="green" stroke-width="0.207397" d="M1523.88,-261.555C1516.68,-257.177 1507.18,-252.124 1498,-249.421 1431.48,-229.828 946.221,-198.924 808.407,-190.462"/>
<polygon fill="green" stroke="green" stroke-width="0.207397" points="808.552,-186.965 798.357,-189.847 808.124,-193.952 808.552,-186.965"/>
</g>
<!-- player_x_1&#45;&gt;left -->
<g id="edge5" class="edge"><title>player_x_1&#45;&gt;left</title>
<path fill="none" stroke="red" stroke-width="0.11501" d="M1564.12,-264.606C1645.23,-250.098 1879.11,-208.27 1961.69,-193.5"/>
<polygon fill="red" stroke="red" stroke-width="0.11501" points="1962.43,-196.924 1971.65,-191.718 1961.19,-190.034 1962.43,-196.924"/>
</g>
<!-- player_x_1&#45;&gt;right -->
<g id="edge22" class="edge"><title>player_x_1&#45;&gt;right</title>
<path fill="none" stroke="green" stroke-width="0.738006" d="M1542.39,-261.497C1557.32,-242.714 1596.15,-195.323 1634,-161.095 1686.29,-113.808 1754.54,-66.9366 1792.12,-42.2349"/>
<polygon fill="green" stroke="green" stroke-width="0.738006" points="1794.09,-45.1311 1800.55,-36.7326 1790.26,-39.2703 1794.09,-45.1311"/>
</g>
<!-- player_x_1&#45;&gt;select -->
<g id="edge82" class="edge"><title>player_x_1&#45;&gt;select</title>
<path fill="none" stroke="red" stroke-width="0.536929" d="M1549.14,-261.534C1569.73,-248.838 1610.15,-223.924 1638.09,-206.696"/>
<polygon fill="red" stroke="red" stroke-width="0.536929" points="1640.01,-209.625 1646.69,-201.398 1636.34,-203.666 1640.01,-209.625"/>
</g>
<!-- player_y_1 -->
<g id="node7" class="node"><title>player_y_1</title>
<polygon fill="lightgray" stroke="black" points="1982,-358.061 1926,-358.061 1926,-340.061 1982,-340.061 1982,-358.061"/>
<text text-anchor="middle" x="1954" y="-346.861" font-family="Times,serif" font-size="9.00">player_y_1</text>
</g>
<!-- player_y_1&#45;&gt;attack -->
<g id="edge58" class="edge"><title>player_y_1&#45;&gt;attack</title>
<path fill="none" stroke="red" stroke-width="0.293862" d="M1925.83,-345.148C1882.65,-340.779 1797.49,-332.544 1725,-327.848 1531.91,-315.338 1044.27,-332.076 855,-291.848 804.96,-281.212 796.441,-265.869 748,-249.421 685.536,-228.212 611.231,-208.202 568.351,-197.15"/>
<polygon fill="red" stroke="red" stroke-width="0.293862" points="568.965,-193.694 558.409,-194.603 567.228,-200.475 568.965,-193.694"/>
</g>
<!-- player_y_1&#45;&gt;down -->
<g id="edge31" class="edge"><title>player_y_1&#45;&gt;down</title>
<path fill="none" stroke="green" stroke-width="0.310317" d="M1925.83,-345.171C1882.65,-340.832 1797.48,-332.635 1725,-327.848 1634,-321.837 989.196,-326.895 905,-291.848 879.323,-281.16 880.646,-266.885 859,-249.421 840.768,-234.711 819.236,-219.558 802.155,-208.014"/>
<polygon fill="green" stroke="green" stroke-width="0.310317" points="803.926,-204.987 793.67,-202.328 800.029,-210.802 803.926,-204.987"/>
</g>
<!-- player_y_1&#45;&gt;left -->
<g id="edge74" class="edge"><title>player_y_1&#45;&gt;left</title>
<path fill="none" stroke="red" stroke-width="0.902653" d="M1960.33,-339.867C1968.02,-329.395 1980.61,-310.395 1986,-291.848 1993.1,-267.407 1993.89,-238.373 1993.16,-217.27"/>
<polygon fill="red" stroke="red" stroke-width="0.902653" points="1996.65,-216.845 1992.67,-207.024 1989.66,-217.18 1996.65,-216.845"/>
</g>
<!-- player_y_1&#45;&gt;right -->
<g id="edge2" class="edge"><title>player_y_1&#45;&gt;right</title>
<path fill="none" stroke="green" stroke-width="0.2208" stroke-dasharray="1,5" d="M1969.45,-340.022C1985.64,-330.728 2010.42,-313.845 2023,-291.848 2069.16,-211.141 2083.17,-151.795 2021,-82.669 1978.15,-35.0233 1898.94,-25.3395 1853.81,-23.9253"/>
<polygon fill="green" stroke="green" stroke-width="0.2208" points="1853.72,-20.423 1843.65,-23.7294 1853.58,-27.4217 1853.72,-20.423"/>
</g>
<!-- player_y_1&#45;&gt;select -->
<g id="edge42" class="edge"><title>player_y_1&#45;&gt;select</title>
<path fill="none" stroke="red" stroke-width="0.470624" d="M1941.99,-339.909C1915.95,-322.387 1852.13,-280.226 1796,-249.421 1764.22,-231.98 1726.67,-214.375 1700.49,-202.56"/>
<polygon fill="red" stroke="red" stroke-width="0.470624" points="1701.6,-199.225 1691.05,-198.328 1698.74,-205.613 1701.6,-199.225"/>
</g>
<!-- 521 -->
<g id="node21" class="node"><title>521</title>
<ellipse fill="white" stroke="black" cx="1991" cy="-103.882" rx="21.4286" ry="21.4286"/>
<text text-anchor="middle" x="1991" y="-101.682" font-family="Times,serif" font-size="9.00">521</text>
</g>
<!-- player_y_1&#45;&gt;521 -->
<g id="edge17" class="edge"><title>player_y_1&#45;&gt;521</title>
<path fill="none" stroke="red" stroke-width="0.197129" d="M1963.53,-339.951C1974.76,-329.852 1993.13,-311.518 2003,-291.848 2019,-259.972 2016.2,-248.884 2020,-213.421 2022.48,-190.298 2025.49,-183.695 2020,-161.095 2017.5,-150.799 2012.77,-140.279 2007.84,-131.166"/>
<polygon fill="red" stroke="red" stroke-width="0.197129" points="2010.73,-129.176 2002.71,-122.248 2004.66,-132.663 2010.73,-129.176"/>
</g>
<!-- 338 -->
<g id="node26" class="node"><title>338</title>
<ellipse fill="white" stroke="black" cx="1363" cy="-270.635" rx="21.4286" ry="21.4286"/>
<text text-anchor="middle" x="1363" y="-268.435" font-family="Times,serif" font-size="9.00">338</text>
</g>
<!-- player_y_1&#45;&gt;338 -->
<g id="edge90" class="edge"><title>player_y_1&#45;&gt;338</title>
<path fill="none" stroke="green" stroke-width="0.453928" d="M1925.79,-345.711C1831.43,-337.744 1527.36,-311.182 1431,-291.848 1418.2,-289.281 1404.35,-285.376 1392.51,-281.68"/>
<polygon fill="green" stroke="green" stroke-width="0.453928" points="1393.29,-278.254 1382.7,-278.525 1391.14,-284.918 1393.29,-278.254"/>
</g>
<!-- player_x_2 -->
<g id="node8" class="node"><title>player_x_2</title>
<polygon fill="lightgray" stroke="black" points="2152,-424.274 2096,-424.274 2096,-406.274 2152,-406.274 2152,-424.274"/>
<text text-anchor="middle" x="2124" y="-413.074" font-family="Times,serif" font-size="9.00">player_x_2</text>
</g>
<!-- player_x_2&#45;&gt;attack -->
<g id="edge52" class="edge"><title>player_x_2&#45;&gt;attack</title>
<path fill="none" stroke="green" stroke-width="0.234104" d="M2095.84,-413.701C1869.4,-409.074 353.583,-377.83 345,-370.274 304.486,-334.608 300.895,-292.812 333,-249.421 370.668,-198.512 449.844,-188.582 496.485,-187.423"/>
<polygon fill="green" stroke="green" stroke-width="0.234104" points="496.801,-190.92 506.757,-187.297 496.714,-183.92 496.801,-190.92"/>
</g>
<!-- player_x_2&#45;&gt;up -->
<g id="edge12" class="edge"><title>player_x_2&#45;&gt;up</title>
<path fill="none" stroke="red" stroke-width="0.169844" d="M2095.86,-408.368C2056.02,-399.989 1980.91,-384.128 1917,-370.274 1831.59,-351.761 1811.14,-342.604 1725,-327.848 1595.25,-305.62 1547.7,-352.767 1431,-291.848 1408.56,-280.133 1414.08,-263.432 1393,-249.421 1345.8,-218.057 1280.83,-201.049 1244.16,-193.388"/>
<polygon fill="red" stroke="red" stroke-width="0.169844" points="1244.66,-189.919 1234.17,-191.387 1243.29,-196.783 1244.66,-189.919"/>
</g>
<!-- player_x_2&#45;&gt;down -->
<g id="edge73" class="edge"><title>player_x_2&#45;&gt;down</title>
<path fill="none" stroke="red" stroke-width="0.139854" stroke-dasharray="1,5" d="M2095.79,-413.984C1988.78,-412.635 1597.8,-405.44 1278,-370.274 1264.98,-368.842 823.181,-300.09 813,-291.848 792.271,-275.068 781.978,-246.313 776.892,-223.35"/>
<polygon fill="red" stroke="red" stroke-width="0.139854" points="780.273,-222.404 774.903,-213.271 773.405,-223.759 780.273,-222.404"/>
</g>
<!-- player_x_2&#45;&gt;left -->
<g id="edge28" class="edge"><title>player_x_2&#45;&gt;left</title>
<path fill="none" stroke="green" stroke-width="0.294879" d="M2152.12,-408.815C2173.17,-403.097 2200.55,-391.815 2214,-370.274 2242.44,-324.71 2246.57,-292.13 2214,-249.421 2190.55,-218.672 2076.1,-199.565 2020.9,-191.992"/>
<polygon fill="green" stroke="green" stroke-width="0.294879" points="2021.06,-188.483 2010.69,-190.631 2020.14,-195.422 2021.06,-188.483"/>
</g>
<!-- player_x_2&#45;&gt;right -->
<g id="edge93" class="edge"><title>player_x_2&#45;&gt;right</title>
<path fill="none" stroke="red" stroke-width="0.379516" stroke-dasharray="1,5" d="M2152.09,-414.203C2223.22,-413.464 2408.04,-407.88 2454,-370.274 2489.89,-340.911 2488,-318.006 2488,-271.635 2488,-271.635 2488,-271.635 2488,-186.258 2488,-129.935 2463.67,-111.012 2415,-82.669 2318.65,-26.5605 1964.95,-23.5427 1853.72,-24.0224"/>
<polygon fill="red" stroke="red" stroke-width="0.379516" points="1853.41,-20.524 1843.43,-24.0801 1853.45,-27.5239 1853.41,-20.524"/>
</g>
<!-- player_x_2&#45;&gt;select -->
<g id="edge56" class="edge"><title>player_x_2&#45;&gt;select</title>
<path fill="none" stroke="red" stroke-width="0.230677" stroke-dasharray="1,5" d="M2112.11,-406.068C2089.1,-390.298 2036.73,-354.926 1991,-327.848 1927.62,-290.32 1912.47,-278.973 1845,-249.421 1796.62,-228.23 1738.36,-209.303 1702.24,-198.3"/>
<polygon fill="red" stroke="red" stroke-width="0.230677" points="1702.81,-194.816 1692.23,-195.279 1700.79,-201.518 1702.81,-194.816"/>
</g>
<!-- 427 -->
<g id="node23" class="node"><title>427</title>
<ellipse fill="white" stroke="black" cx="2211" cy="-103.882" rx="21.4286" ry="21.4286"/>
<text text-anchor="middle" x="2211" y="-101.682" font-family="Times,serif" font-size="9.00">427</text>
</g>
<!-- player_x_2&#45;&gt;427 -->
<g id="edge32" class="edge"><title>player_x_2&#45;&gt;427</title>
<path fill="none" stroke="red" stroke-width="0.113034" d="M2152.15,-414.701C2221.01,-415.081 2394.98,-411.823 2431,-370.274 2512.95,-275.736 2314.34,-158.616 2238.74,-118.844"/>
<polygon fill="red" stroke="red" stroke-width="0.113034" points="2240.24,-115.676 2229.75,-114.173 2237.01,-121.888 2240.24,-115.676"/>
</g>
<!-- 236 -->
<g id="node24" class="node"><title>236</title>
<ellipse fill="white" stroke="black" cx="2401" cy="-349.061" rx="21.4286" ry="21.4286"/>
<text text-anchor="middle" x="2401" y="-346.861" font-family="Times,serif" font-size="9.00">236</text>
</g>
<!-- player_x_2&#45;&gt;236 -->
<g id="edge26" class="edge"><title>player_x_2&#45;&gt;236</title>
<path fill="none" stroke="green" stroke-width="0.847677" d="M2152.03,-412.311C2197.98,-408.41 2291.64,-397.569 2366,-370.274 2368.94,-369.197 2371.91,-367.882 2374.82,-366.445"/>
<polygon fill="green" stroke="green" stroke-width="0.847677" points="2376.66,-369.43 2383.77,-361.58 2373.32,-363.279 2376.66,-369.43"/>
</g>
<!-- player_y_2 -->
<g id="node9" class="node"><title>player_y_2</title>
<polygon fill="lightgray" stroke="black" points="1723,-424.274 1667,-424.274 1667,-406.274 1723,-406.274 1723,-424.274"/>
<text text-anchor="middle" x="1695" y="-413.074" font-family="Times,serif" font-size="9.00">player_y_2</text>
</g>
<!-- player_y_2&#45;&gt;attack -->
<g id="edge84" class="edge"><title>player_y_2&#45;&gt;attack</title>
<path fill="none" stroke="red" stroke-width="0.239784" d="M1666.73,-413.963C1465.85,-411.687 261.878,-396.944 236,-370.274 198.596,-331.726 202.066,-291.056 236,-249.421 268.506,-209.539 424.521,-194.903 496.487,-190.211"/>
<polygon fill="red" stroke="red" stroke-width="0.239784" points="497.114,-193.679 506.877,-189.565 496.679,-186.692 497.114,-193.679"/>
</g>
<!-- player_y_2&#45;&gt;up -->
<g id="edge23" class="edge"><title>player_y_2&#45;&gt;up</title>
<path fill="none" stroke="red" stroke-width="0.43449" stroke-dasharray="1,5" d="M1666.8,-414.618C1583.76,-415.124 1341.94,-412.825 1278,-370.274 1227.12,-336.416 1217.31,-257.906 1215.84,-215.918"/>
<polygon fill="red" stroke="red" stroke-width="0.43449" points="1219.34,-215.76 1215.63,-205.837 1212.34,-215.909 1219.34,-215.76"/>
</g>
<!-- player_y_2&#45;&gt;down -->
<g id="edge7" class="edge"><title>player_y_2&#45;&gt;down</title>
<path fill="none" stroke="red" stroke-width="0.224085" d="M1666.99,-412.811C1517.55,-404.724 818.702,-363.249 758,-291.848 741.412,-272.336 747.366,-242.859 756.051,-220.331"/>
<polygon fill="red" stroke="red" stroke-width="0.224085" points="759.39,-221.418 760.021,-210.842 752.932,-218.716 759.39,-221.418"/>
</g>
<!-- player_y_2&#45;&gt;left -->
<g id="edge48" class="edge"><title>player_y_2&#45;&gt;left</title>
<path fill="none" stroke="green" stroke-width="0.321671" stroke-dasharray="1,5" d="M1723,-413.351C1810.56,-410.179 2074.82,-398.339 2100,-370.274 2135.87,-330.295 2127.14,-295.772 2100,-249.421 2082.87,-220.162 2046.04,-203.834 2019.94,-195.552"/>
<polygon fill="green" stroke="green" stroke-width="0.321671" points="2020.77,-192.148 2010.19,-192.668 2018.79,-198.86 2020.77,-192.148"/>
</g>
<!-- player_y_2&#45;&gt;right -->
<g id="edge36" class="edge"><title>player_y_2&#45;&gt;right</title>
<path fill="none" stroke="green" stroke-width="0.200132" stroke-dasharray="1,5" d="M1723.14,-413.923C1837.97,-412.272 2267.36,-403.88 2317,-370.274 2349.07,-348.561 2346.34,-329.599 2355,-291.848 2377.64,-193.204 2348.35,-140.075 2265,-82.669 2198.18,-36.6493 1945.59,-26.899 1853.69,-24.8627"/>
<polygon fill="green" stroke="green" stroke-width="0.200132" points="1853.62,-21.3607 1843.55,-24.6554 1853.48,-28.3592 1853.62,-21.3607"/>
</g>
<!-- player_y_2&#45;&gt;select -->
<g id="edge94" class="edge"><title>player_y_2&#45;&gt;select</title>
<path fill="none" stroke="green" stroke-width="0.254811" stroke-dasharray="1,5" d="M1702.24,-406.173C1709.28,-397.81 1719.67,-384.072 1725,-370.274 1744.45,-319.968 1757.95,-298.687 1736,-249.421 1728.11,-231.72 1712.29,-216.995 1697.89,-206.432"/>
<polygon fill="green" stroke="green" stroke-width="0.254811" points="1699.86,-203.536 1689.65,-200.702 1695.86,-209.284 1699.86,-203.536"/>
</g>
<!-- 999 -->
<g id="node19" class="node"><title>999</title>
<ellipse fill="white" stroke="black" cx="1695" cy="-349.061" rx="21.4286" ry="21.4286"/>
<text text-anchor="middle" x="1695" y="-346.861" font-family="Times,serif" font-size="9.00">999</text>
</g>
<!-- player_y_2&#45;&gt;999 -->
<g id="edge63" class="edge"><title>player_y_2&#45;&gt;999</title>
<path fill="none" stroke="green" stroke-width="0.211376" d="M1695,-406.142C1695,-399.599 1695,-389.97 1695,-380.53"/>
<polygon fill="green" stroke="green" stroke-width="0.211376" points="1698.5,-380.516 1695,-370.516 1691.5,-380.516 1698.5,-380.516"/>
</g>
<!-- player_y_2&#45;&gt;338 -->
<g id="edge64" class="edge"><title>player_y_2&#45;&gt;338</title>
<path fill="none" stroke="green" stroke-width="0.645778" d="M1672.57,-406.196C1622.43,-387.885 1497.83,-340.98 1398,-291.848 1395.26,-290.497 1392.43,-289.02 1389.63,-287.499"/>
<polygon fill="green" stroke="green" stroke-width="0.645778" points="1391.35,-284.448 1380.92,-282.592 1387.91,-290.548 1391.35,-284.448"/>
</g>
<!-- 923 -->
<g id="node30" class="node"><title>923</title>
<ellipse fill="white" stroke="black" cx="2287" cy="-349.061" rx="21.4286" ry="21.4286"/>
<text text-anchor="middle" x="2287" y="-346.861" font-family="Times,serif" font-size="9.00">923</text>
</g>
<!-- player_y_2&#45;&gt;923 -->
<g id="edge86" class="edge"><title>player_y_2&#45;&gt;923</title>
<path fill="none" stroke="red" stroke-width="0.304132" d="M1723.09,-413.72C1801.41,-411.785 2028.64,-403.497 2214,-370.274 2228.4,-367.693 2244.07,-363.537 2257.19,-359.664"/>
<polygon fill="red" stroke="red" stroke-width="0.304132" points="2258.54,-362.911 2267.09,-356.653 2256.5,-356.214 2258.54,-362.911"/>
</g>
<!-- distance_1 -->
<g id="node10" class="node"><title>distance_1</title>
<polygon fill="lightgray" stroke="black" points="968,-279.635 914,-279.635 914,-261.635 968,-261.635 968,-279.635"/>
<text text-anchor="middle" x="941" y="-268.435" font-family="Times,serif" font-size="9.00">distance_1</text>
</g>
<!-- distance_1&#45;&gt;attack -->
<g id="edge75" class="edge"><title>distance_1&#45;&gt;attack</title>
<path fill="none" stroke="red" stroke-width="0.303981" d="M913.914,-264.232C842.46,-249.981 648.856,-211.366 568.599,-195.359"/>
<polygon fill="red" stroke="red" stroke-width="0.303981" points="568.987,-191.867 558.495,-193.343 567.618,-198.732 568.987,-191.867"/>
</g>
<!-- distance_1&#45;&gt;up -->
<g id="edge13" class="edge"><title>distance_1&#45;&gt;up</title>
<path fill="none" stroke="green" stroke-width="0.541728" d="M953.593,-261.491C960.326,-257.417 968.883,-252.674 977,-249.421 1050.43,-220.001 1142.31,-201.196 1187.79,-193.003"/>
<polygon fill="green" stroke="green" stroke-width="0.541728" points="1188.56,-196.421 1197.8,-191.237 1187.35,-189.528 1188.56,-196.421"/>
</g>
<!-- distance_1&#45;&gt;down -->
<g id="edge53" class="edge"><title>distance_1&#45;&gt;down</title>
<path fill="none" stroke="green" stroke-width="0.289577" d="M924.663,-261.523C917.16,-257.812 908.139,-253.372 900,-249.421 867.779,-233.782 830.861,-216.174 804.979,-203.881"/>
<polygon fill="green" stroke="green" stroke-width="0.289577" points="806.168,-200.571 795.633,-199.445 803.166,-206.895 806.168,-200.571"/>
</g>
<!-- distance_1&#45;&gt;right -->
<g id="edge18" class="edge"><title>distance_1&#45;&gt;right</title>
<path fill="none" stroke="green" stroke-width="0.420852" stroke-dasharray="1,5" d="M950.108,-261.597C972.443,-242.202 1032.26,-192.147 1089,-161.095 1173.85,-114.663 1198.04,-105.599 1292,-82.669 1475.01,-38.0086 1702.12,-27.4789 1786.45,-25.047"/>
<polygon fill="green" stroke="green" stroke-width="0.420852" points="1786.56,-28.5451 1796.47,-24.7773 1786.38,-21.5477 1786.56,-28.5451"/>
</g>
<!-- distance_1&#45;&gt;select -->
<g id="edge80" class="edge"><title>distance_1&#45;&gt;select</title>
<path fill="none" stroke="red" stroke-width="0.103924" stroke-dasharray="1,5" d="M952.426,-261.561C959.235,-257.186 968.235,-252.132 977,-249.421 1039.94,-229.954 1500.16,-199.079 1632.5,-190.522"/>
<polygon fill="red" stroke="red" stroke-width="0.103924" points="1632.76,-194.012 1642.51,-189.876 1632.31,-187.027 1632.76,-194.012"/>
</g>
<!-- distance_2 -->
<g id="node11" class="node"><title>distance_2</title>
<polygon fill="lightgray" stroke="black" points="1341,-358.061 1287,-358.061 1287,-340.061 1341,-340.061 1341,-358.061"/>
<text text-anchor="middle" x="1314" y="-346.861" font-family="Times,serif" font-size="9.00">distance_2</text>
</g>
<!-- distance_2&#45;&gt;attack -->
<g id="edge68" class="edge"><title>distance_2&#45;&gt;attack</title>
<path fill="none" stroke="red" stroke-width="0.277779" d="M1286.87,-347.654C1209.21,-345.949 979.784,-337.146 796,-291.848 709.787,-270.599 614.061,-227.639 565.337,-204.273"/>
<polygon fill="red" stroke="red" stroke-width="0.277779" points="566.763,-201.075 556.236,-199.873 563.716,-207.377 566.763,-201.075"/>
</g>
<!-- distance_2&#45;&gt;up -->
<g id="edge3" class="edge"><title>distance_2&#45;&gt;up</title>
<path fill="none" stroke="green" stroke-width="0.294095" d="M1314.3,-339.966C1314.57,-322.192 1313.17,-278.988 1295,-249.421 1282.01,-228.281 1258.86,-211.667 1240.97,-201.123"/>
<polygon fill="green" stroke="green" stroke-width="0.294095" points="1242.61,-198.028 1232.18,-196.171 1239.17,-204.127 1242.61,-198.028"/>
</g>
<!-- distance_2&#45;&gt;down -->
<g id="edge44" class="edge"><title>distance_2&#45;&gt;down</title>
<path fill="none" stroke="green" stroke-width="0.630688" d="M1299.11,-340.045C1290.31,-335.689 1278.81,-330.635 1268,-327.848 1096.87,-283.725 1031.37,-368.215 872,-291.848 837.921,-275.518 809.219,-242.351 791.427,-217.926"/>
<polygon fill="green" stroke="green" stroke-width="0.630688" points="794.233,-215.832 785.598,-209.694 788.52,-219.877 794.233,-215.832"/>
</g>
<!-- distance_2&#45;&gt;left -->
<g id="edge81" class="edge"><title>distance_2&#45;&gt;left</title>
<path fill="none" stroke="green" stroke-width="0.340395" d="M1341.18,-346.76C1451.13,-341.326 1859.57,-319.439 1910,-291.848 1941.47,-274.63 1964.83,-239.518 1978.17,-214.968"/>
<polygon fill="green" stroke="green" stroke-width="0.340395" points="1981.42,-216.3 1982.95,-205.816 1975.22,-213.059 1981.42,-216.3"/>
</g>
<!-- distance_2&#45;&gt;right -->
<g id="edge19" class="edge"><title>distance_2&#45;&gt;right</title>
<path fill="none" stroke="green" stroke-width="0.131932" d="M1341.14,-346.777C1414.66,-342.838 1615.7,-328.864 1669,-291.848 1752.51,-233.857 1795.38,-113.89 1811.83,-56.4077"/>
<polygon fill="green" stroke="green" stroke-width="0.131932" points="1815.29,-57.0024 1814.59,-46.4307 1808.55,-55.1312 1815.29,-57.0024"/>
</g>
<!-- distance_2&#45;&gt;select -->
<g id="edge60" class="edge"><title>distance_2&#45;&gt;select</title>
<path fill="none" stroke="green" stroke-width="0.34017" d="M1341.09,-347.196C1411.94,-344.369 1600.28,-333.059 1644,-291.848 1662.44,-274.466 1668,-245.943 1669.2,-223.223"/>
<polygon fill="green" stroke="green" stroke-width="0.34017" points="1672.71,-223.022 1669.47,-212.933 1665.71,-222.836 1672.71,-223.022"/>
</g>
<!-- 564 -->
<g id="node27" class="node"><title>564</title>
<ellipse fill="white" stroke="black" cx="1265" cy="-270.635" rx="21.4286" ry="21.4286"/>
<text text-anchor="middle" x="1265" y="-268.435" font-family="Times,serif" font-size="9.00">564</text>
</g>
<!-- distance_2&#45;&gt;564 -->
<g id="edge37" class="edge"><title>distance_2&#45;&gt;564</title>
<path fill="none" stroke="red" stroke-width="0.395202" d="M1308.76,-339.882C1302.34,-329.869 1291.15,-312.423 1281.7,-297.677"/>
<polygon fill="red" stroke="red" stroke-width="0.395202" points="1284.44,-295.464 1276.09,-288.935 1278.54,-299.243 1284.44,-295.464"/>
</g>
<!-- left&#45;&gt;427 -->
<g id="edge45" class="edge"><title>left&#45;&gt;427</title>
<path fill="none" stroke="red" stroke-width="0.407858" d="M2009.38,-179.46C2047.57,-165.332 2135.8,-132.698 2181.84,-115.667"/>
<polygon fill="red" stroke="red" stroke-width="0.407858" points="2183.09,-118.936 2191.26,-112.184 2180.67,-112.371 2183.09,-118.936"/>
</g>
<!-- 710 -->
<g id="node18" class="node"><title>710</title>
<ellipse fill="white" stroke="black" cx="125" cy="-349.061" rx="21.4286" ry="21.4286"/>
<text text-anchor="middle" x="125" y="-346.861" font-family="Times,serif" font-size="9.00">710</text>
</g>
<!-- 710&#45;&gt;attack -->
<g id="edge6" class="edge"><title>710&#45;&gt;attack</title>
<path fill="none" stroke="green" stroke-width="0.483601" stroke-dasharray="1,5" d="M133.375,-329.428C144.636,-306.664 166.898,-268.797 198,-249.421 247.664,-218.483 420.804,-198.822 496.786,-191.495"/>
<polygon fill="green" stroke="green" stroke-width="0.483601" points="497.213,-194.971 506.839,-190.543 496.554,-188.002 497.213,-194.971"/>
</g>
<!-- 757 -->
<g id="node28" class="node"><title>757</title>
<ellipse fill="white" stroke="black" cx="125" cy="-270.635" rx="21.4286" ry="21.4286"/>
<text text-anchor="middle" x="125" y="-268.435" font-family="Times,serif" font-size="9.00">757</text>
</g>
<!-- 710&#45;&gt;757 -->
<g id="edge46" class="edge"><title>710&#45;&gt;757</title>
<path fill="none" stroke="green" stroke-width="0.11053" d="M125,-327.58C125,-319.721 125,-310.577 125,-301.987"/>
<polygon fill="green" stroke="green" stroke-width="0.11053" points="128.5,-301.907 125,-291.907 121.5,-301.907 128.5,-301.907"/>
</g>
<!-- 999&#45;&gt;select -->
<g id="edge20" class="edge"><title>999&#45;&gt;select</title>
<path fill="none" stroke="green" stroke-width="0.358025" d="M1705.66,-330.625C1716.44,-310.651 1730.18,-277.112 1720,-249.421 1714.74,-235.105 1704.47,-221.852 1694.44,-211.369"/>
<polygon fill="green" stroke="green" stroke-width="0.358025" points="1696.82,-208.801 1687.25,-204.249 1691.9,-213.774 1696.82,-208.801"/>
</g>
<!-- 290&#45;&gt;attack -->
<g id="edge8" class="edge"><title>290&#45;&gt;attack</title>
<path fill="none" stroke="red" stroke-width="0.161735" d="M533,-249.1C533,-241.316 533,-232.216 533,-223.461"/>
<polygon fill="red" stroke="red" stroke-width="0.161735" points="536.5,-223.442 533,-213.442 529.5,-223.442 536.5,-223.442"/>
</g>
<!-- 290&#45;&gt;down -->
<g id="edge85" class="edge"><title>290&#45;&gt;down</title>
<path fill="none" stroke="green" stroke-width="0.538525" d="M552.966,-262.836C593.775,-248.942 687.153,-217.147 737.808,-199.9"/>
<polygon fill="green" stroke="green" stroke-width="0.538525" points="739.002,-203.191 747.34,-196.655 736.746,-196.565 739.002,-203.191"/>
</g>
<!-- 521&#45;&gt;right -->
<g id="edge61" class="edge"><title>521&#45;&gt;right</title>
<path fill="none" stroke="green" stroke-width="0.258478" d="M1972.05,-94.1762C1942.56,-80.6308 1885.43,-54.3897 1850.21,-38.2128"/>
<polygon fill="green" stroke="green" stroke-width="0.258478" points="1851.45,-34.9296 1840.9,-33.9359 1848.53,-41.2906 1851.45,-34.9296"/>
</g>
<!-- 105 -->
<g id="node22" class="node"><title>105</title>
<ellipse fill="white" stroke="black" cx="375" cy="-349.061" rx="21.4286" ry="21.4286"/>
<text text-anchor="middle" x="375" y="-346.861" font-family="Times,serif" font-size="9.00">105</text>
</g>
<!-- 105&#45;&gt;625 -->
<g id="edge24" class="edge"><title>105&#45;&gt;625</title>
<path fill="none" stroke="green" stroke-width="0.139878" d="M375,-327.58C375,-319.721 375,-310.577 375,-301.987"/>
<polygon fill="green" stroke="green" stroke-width="0.139878" points="378.5,-301.907 375,-291.907 371.5,-301.907 378.5,-301.907"/>
</g>
<!-- 427&#45;&gt;right -->
<g id="edge39" class="edge"><title>427&#45;&gt;right</title>
<path fill="none" stroke="red" stroke-width="0.299252" d="M2193.8,-91.2979C2188.31,-88.0619 2182.08,-84.8406 2176,-82.669 2062.3,-42.0575 1917.98,-29.5307 1853.62,-25.8202"/>
<polygon fill="red" stroke="red" stroke-width="0.299252" points="1853.81,-22.3254 1843.63,-25.2791 1853.43,-29.3151 1853.81,-22.3254"/>
</g>
<!-- 236&#45;&gt;right -->
<g id="edge83" class="edge"><title>236&#45;&gt;right</title>
<path fill="none" stroke="green" stroke-width="0.335887" stroke-dasharray="1,5" d="M2407.4,-328.83C2422.26,-280.197 2453.06,-151.299 2388,-82.669 2351.05,-43.6886 1969.54,-28.8993 1853.38,-25.2795"/>
<polygon fill="green" stroke="green" stroke-width="0.335887" points="1853.4,-21.7785 1843.3,-24.9728 1853.19,-28.7753 1853.4,-21.7785"/>
</g>
<!-- 380 -->
<g id="node31" class="node"><title>380</title>
<ellipse fill="white" stroke="black" cx="2325" cy="-270.635" rx="21.4286" ry="21.4286"/>
<text text-anchor="middle" x="2325" y="-268.435" font-family="Times,serif" font-size="9.00">380</text>
</g>
<!-- 236&#45;&gt;380 -->
<g id="edge91" class="edge"><title>236&#45;&gt;380</title>
<path fill="none" stroke="green" stroke-width="0.129309" d="M2386.35,-333.325C2375.1,-322.012 2359.39,-306.217 2346.69,-293.441"/>
<polygon fill="green" stroke="green" stroke-width="0.129309" points="2349.14,-290.948 2339.61,-286.325 2344.18,-295.884 2349.14,-290.948"/>
</g>
<!-- 625&#45;&gt;down -->
<g id="edge57" class="edge"><title>625&#45;&gt;down</title>
<path fill="none" stroke="red" stroke-width="0.125338" d="M391.423,-256.746C395.652,-253.951 400.332,-251.28 405,-249.421 465.087,-225.49 655.746,-201.572 735.925,-192.291"/>
<polygon fill="red" stroke="red" stroke-width="0.125338" points="736.499,-195.748 746.034,-191.131 735.7,-188.794 736.499,-195.748"/>
</g>
<!-- 338&#45;&gt;up -->
<g id="edge35" class="edge"><title>338&#45;&gt;up</title>
<path fill="none" stroke="red" stroke-width="0.287734" d="M1344.88,-259.061C1339.47,-255.931 1333.51,-252.514 1328,-249.421 1298.25,-232.712 1263.77,-213.973 1241,-201.692"/>
<polygon fill="red" stroke="red" stroke-width="0.287734" points="1242.48,-198.512 1232.02,-196.85 1239.16,-204.674 1242.48,-198.512"/>
</g>
<!-- 564&#45;&gt;up -->
<g id="edge55" class="edge"><title>564&#45;&gt;up</title>
<path fill="none" stroke="red" stroke-width="0.161483" d="M1254.37,-251.977C1247.35,-240.316 1238.06,-224.893 1230.38,-212.141"/>
<polygon fill="red" stroke="red" stroke-width="0.161483" points="1233.29,-210.181 1225.13,-203.42 1227.29,-213.792 1233.29,-210.181"/>
</g>
<!-- 757&#45;&gt;attack -->
<g id="edge89" class="edge"><title>757&#45;&gt;attack</title>
<path fill="none" stroke="green" stroke-width="0.255375" d="M142.203,-258.051C147.691,-254.815 153.921,-251.593 160,-249.421 278.49,-207.09 428.733,-193.858 496.692,-189.883"/>
<polygon fill="green" stroke="green" stroke-width="0.255375" points="497.083,-193.367 506.875,-189.322 496.697,-186.378 497.083,-193.367"/>
</g>
<!-- 183&#45;&gt;up -->
<g id="edge95" class="edge"><title>183&#45;&gt;up</title>
<path fill="none" stroke="red" stroke-width="0.107349" d="M597.16,-339.86C608.053,-335.558 622.064,-330.618 635,-327.848 731.58,-307.168 989.53,-335.761 1078,-291.848 1100.67,-280.593 1096.55,-265.625 1116,-249.421 1139.46,-229.878 1169.76,-212.235 1190.84,-200.977"/>
<polygon fill="red" stroke="red" stroke-width="0.107349" points="1192.58,-204.015 1199.81,-196.27 1189.33,-197.816 1192.58,-204.015"/>
</g>
<!-- 183&#45;&gt;290 -->
<g id="edge16" class="edge"><title>183&#45;&gt;290</title>
<path fill="none" stroke="red" stroke-width="0.193799" d="M567.563,-330.335C561.94,-320.786 554.89,-308.813 548.627,-298.175"/>
<polygon fill="red" stroke="red" stroke-width="0.193799" points="551.47,-296.106 543.38,-289.264 545.438,-299.657 551.47,-296.106"/>
</g>
<!-- 923&#45;&gt;right -->
<g id="edge96" class="edge"><title>923&#45;&gt;right</title>
<path fill="none" stroke="green" stroke-width="0.18743" d="M2286.46,-327.54C2284.52,-271.286 2276.05,-116.55 2241,-82.669 2185.94,-29.4463 1943.41,-24.1805 1853.6,-24.0933"/>
<polygon fill="green" stroke="green" stroke-width="0.18743" points="1853.42,-20.5934 1843.43,-24.1054 1853.43,-27.5934 1853.42,-20.5934"/>
</g>
<!-- 923&#45;&gt;380 -->
<g id="edge87" class="edge"><title>923&#45;&gt;380</title>
<path fill="none" stroke="red" stroke-width="0.155848" d="M2296.2,-329.56C2300.73,-320.454 2306.28,-309.292 2311.29,-299.205"/>
<polygon fill="red" stroke="red" stroke-width="0.155848" points="2314.57,-300.477 2315.89,-289.965 2308.3,-297.361 2314.57,-300.477"/>
</g>
<!-- 380&#45;&gt;left -->
<g id="edge9" class="edge"><title>380&#45;&gt;left</title>
<path fill="none" stroke="green" stroke-width="0.371826" stroke-dasharray="1,5" d="M2304.61,-263.752C2290,-259.597 2269.84,-253.979 2252,-249.421 2168.19,-228.008 2068.5,-205.448 2020.17,-194.694"/>
<polygon fill="green" stroke="green" stroke-width="0.371826" points="2020.9,-191.272 2010.38,-192.522 2019.39,-198.106 2020.9,-191.272"/>
</g>
<!-- 797&#45;&gt;attack -->
<g id="edge29" class="edge"><title>797&#45;&gt;attack</title>
<path fill="none" stroke="red" stroke-width="0.583704" d="M451.183,-256.197C465.759,-244.093 487.507,-226.035 504.917,-211.578"/>
<polygon fill="red" stroke="red" stroke-width="0.583704" points="507.607,-213.893 513.065,-204.812 503.136,-208.508 507.607,-213.893"/>
</g>
</g>
</svg>
